<svg width="147" height="147" viewBox="0 0 147 147" fill="none" xmlns="http://www.w3.org/2000/svg">
<path fill-rule="evenodd" clip-rule="evenodd" d="M47.6681 63.7441C41.0095 63.7441 35.6116 58.3462 35.6116 51.6876C35.6116 45.029 41.0095 39.6311 47.6681 39.6311C54.3267 39.6311 59.7246 45.029 59.7246 51.6876C59.7246 58.3462 54.3267 63.7441 47.6681 63.7441ZM83.8518 57.1414V46.2337L75.255 44.0494C74.6246 41.7669 73.7187 39.5991 72.5749 37.5837L77.1102 29.9583L69.3974 22.2454L61.772 26.7808C59.7565 25.6369 57.5886 24.7311 55.3063 24.1006L53.1219 15.5039H42.2142L40.0298 24.1006C37.7474 24.7311 35.5795 25.6369 33.5641 26.7808L25.9388 22.2454L18.2259 29.9583L22.7611 37.5837C21.6175 39.5991 20.7116 41.7671 20.0811 44.0494L11.4844 46.2337V57.1414L20.0811 59.3259C20.7116 61.6082 21.6175 63.776 22.7611 65.7916L18.2259 73.4169L25.9388 81.1299L33.5641 76.5945C35.5795 77.7382 37.7474 78.6441 40.0298 79.2747L42.2142 87.8713H53.1219L55.3063 79.2747C57.5886 78.6441 59.7565 77.7382 61.772 76.5945L69.3974 81.1299L77.1102 73.4169L72.5749 65.7916C73.7187 63.776 74.6246 61.6082 75.255 59.3259L83.8518 57.1414Z" fill="#597EF7"/>
<path fill-rule="evenodd" clip-rule="evenodd" d="M101.853 108.696C95.6664 108.696 90.6515 103.681 90.6515 97.4951C90.6515 91.3089 95.6664 86.2941 101.853 86.2941C108.039 86.2941 113.054 91.3089 113.054 97.4951C113.054 103.681 108.039 108.696 101.853 108.696ZM135.469 102.562V92.4283L127.482 90.3989C126.896 88.2784 126.055 86.2644 124.992 84.392L129.206 77.3077L122.04 70.142L114.956 74.3556C113.083 73.293 111.069 72.4513 108.949 71.8656L106.919 63.8789H96.7855L94.7563 71.8656C92.6358 72.4513 90.6218 73.293 88.7493 74.3556L81.6651 70.142L74.4994 77.3077L78.7129 84.392C77.6502 86.2644 76.8088 88.2784 76.223 90.3989L68.2363 92.4283V102.562L76.223 104.592C76.8088 106.712 77.6502 108.726 78.7129 110.598L74.4994 117.683L81.6651 124.848L88.7493 120.635C90.6218 121.697 92.6358 122.539 94.7563 123.125L96.7855 131.111H106.919L108.949 123.125C111.069 122.539 113.083 121.697 114.956 120.635L122.04 124.848L129.206 117.683L124.992 110.598C126.055 108.726 126.896 106.712 127.482 104.592L135.469 102.562Z" fill="#253368"/>
</svg>
