<svg width="137" height="137" viewBox="0 0 137 137" fill="none" xmlns="http://www.w3.org/2000/svg">
<path d="M10.424 101.889C9.90034 101.889 9.41929 101.6 9.17407 101.138C6.73348 96.5377 5.99345 91.2307 6.9774 85.367C7.90898 79.8119 10.3468 73.9881 14.2234 68.0555C22.1019 55.9986 35.0903 44.7658 50.795 36.4271C66.4996 28.0883 83.0794 23.6246 97.4831 23.852C104.568 23.9637 110.758 25.2067 115.881 27.5467C121.291 30.0176 125.271 33.602 127.714 38.2034C128.08 38.8926 127.818 39.7477 127.128 40.1134C126.439 40.4791 125.584 40.2169 125.218 39.5277C123.074 35.49 119.538 32.3231 114.708 30.1168C109.941 27.9408 104.131 26.7832 97.4376 26.6716C83.5052 26.4483 67.4105 30.8058 52.1207 38.9173C36.8308 47.0287 24.2103 57.9362 16.5882 69.6017C12.9266 75.2064 10.6307 80.6663 9.76389 85.8341C8.88467 91.0709 9.52685 95.7743 11.6712 99.8121C11.903 100.249 11.8898 100.775 11.6362 101.2C11.3826 101.625 10.9255 101.886 10.4309 101.889H10.424Z" fill="#FF7946"/>
<path opacity="0.33" d="M66.2208 115.979C94.1096 115.979 116.718 93.3703 116.718 65.4815C116.718 37.5927 94.1096 14.9844 66.2208 14.9844C38.332 14.9844 15.7236 37.5927 15.7236 65.4815C15.7236 93.3703 38.332 115.979 66.2208 115.979Z" fill="#4E5C93"/>
<path d="M100.176 77.7397C103.15 69.8074 104.639 66.8321 100.176 65.483C95.7142 64.1338 89.2689 72.7813 83.3156 68.6099C77.3622 64.4384 85.2986 55.4299 82.8195 50.2731C80.3403 45.1163 77.365 44.5223 78.8533 34.7779C79.6085 29.8333 84.1852 24.3554 88.511 20.1605C81.5795 16.7459 73.9542 14.9747 66.2273 14.9844C64.2091 14.9844 62.1926 15.1041 60.1886 15.3428C64.3766 24.5208 56.7778 31.2142 51.0932 40.5011C44.1518 51.8496 46.631 58.8999 61.0085 61.6312C75.3861 64.3626 73.8991 81.7058 61.0085 86.1612C48.1179 90.6165 52.084 72.2866 44.1518 72.197C36.2195 72.1074 28.2873 70.3035 27.7912 62.8743C27.5155 58.6615 22.1259 54.7215 17.5162 52.1004C16.323 56.461 15.7205 60.9621 15.7246 65.483C15.7246 93.3713 38.3335 115.98 66.2232 115.98C79.1539 115.997 91.5949 111.036 100.966 102.126C97.4134 93.8936 97.9963 83.5538 100.176 77.7397Z" fill="#597EF7"/>
<path d="M27.7906 62.8742C28.2867 70.3035 36.219 72.1074 44.1513 72.197C52.0835 72.2866 48.1174 90.6302 61.008 86.168C73.8986 81.7058 75.3856 64.3626 61.008 61.6381C46.6304 58.9136 44.1513 51.8537 51.0927 40.5079C56.7718 31.221 64.3705 24.5221 60.188 15.3496C39.6298 17.7916 22.8654 32.5853 17.5156 52.1004C22.1281 54.7215 27.5095 58.6614 27.7906 62.8742Z" fill="#4E5C93"/>
<path d="M27.7906 62.8742C28.2867 70.3035 36.219 72.1074 44.1513 72.197C52.0835 72.2866 48.1174 90.6302 61.008 86.168C73.8986 81.7058 75.3856 64.3626 61.008 61.6381C46.6304 58.9136 44.1513 51.8537 51.0927 40.5079C56.7718 31.221 64.3705 24.5221 60.188 15.3496C39.6298 17.7916 22.8654 32.5853 17.5156 52.1004C22.1281 54.7215 27.5095 58.6614 27.7906 62.8742Z" fill="#E4EBF7"/>
<path d="M116.719 65.4826C116.719 45.5955 105.223 28.3942 88.5148 20.1602C84.189 24.355 79.6123 29.8329 78.8571 34.7775C77.3688 44.5219 80.3441 45.1131 82.8233 50.2727C85.3024 55.4322 77.3688 64.438 83.3152 68.6095C89.2617 72.7809 95.718 64.1321 100.176 65.4826C104.634 66.8331 103.15 69.807 100.176 77.7393C97.996 83.5534 97.4131 93.8932 100.966 102.131C111.038 92.6046 116.737 79.3465 116.719 65.4826Z" fill="#7CB305"/>
<path d="M85.4329 103.079C84.7832 103.08 84.2161 102.639 84.0588 102.008C83.9014 101.378 84.1944 100.721 84.7687 100.418C100.065 92.2992 112.678 81.4 120.3 69.74C123.968 64.1367 126.257 58.6698 127.124 53.5061C128.003 48.2694 127.362 43.566 125.218 39.5282C124.852 38.8391 125.115 37.9839 125.804 37.6182C126.493 37.2525 127.348 37.5147 127.714 38.2039C130.156 42.8039 130.896 48.1096 129.919 53.9747C128.986 59.5298 126.548 65.3535 122.673 71.2848C114.794 83.3431 101.806 94.5745 86.0999 102.913C85.8947 103.023 85.6655 103.079 85.4329 103.079Z" fill="#FAAD14"/>
<path d="M40.736 121.933C46.9031 121.933 51.9026 116.933 51.9026 110.766C51.9026 104.599 46.9031 99.5996 40.736 99.5996C34.5688 99.5996 29.5693 104.599 29.5693 110.766C29.5693 116.933 34.5688 121.933 40.736 121.933Z" fill="#FAAD14"/>
</svg>
