<svg width="150" height="150" viewBox="0 0 150 150" fill="none" xmlns="http://www.w3.org/2000/svg">
<path fill-rule="evenodd" clip-rule="evenodd" d="M117.977 98.1602C100.746 98.1602 86.7773 84.1911 86.7773 66.959C86.7773 49.7269 100.746 35.7578 117.977 35.7578C135.21 35.7578 149.18 49.7269 149.18 66.959C149.18 84.1911 135.21 98.1602 117.977 98.1602Z" fill="#E4EBF7"/>
<path fill-rule="evenodd" clip-rule="evenodd" d="M129.316 94.3203H109.453V91.0244C109.453 90.4176 109.947 89.9258 110.557 89.9258H128.213C128.822 89.9258 129.316 90.4176 129.316 91.0244V94.3203Z" fill="#FF7946"/>
<path fill-rule="evenodd" clip-rule="evenodd" d="M133.661 98.1875H104.933C104.323 98.1875 103.828 97.6957 103.828 97.0889V94.8916C103.828 94.2855 104.323 93.793 104.933 93.793H133.661C134.271 93.793 134.766 94.2855 134.766 94.8916V97.0889C134.766 97.6957 134.271 98.1875 133.661 98.1875Z" fill="#FAAD14"/>
<path fill-rule="evenodd" clip-rule="evenodd" d="M113.341 74.9633L90.991 87.8906C90.0261 88.4492 88.7919 88.1173 88.2344 87.1489L86.4644 84.0788C85.907 83.1112 86.2372 81.8744 87.202 81.3158L109.553 68.3892C110.518 67.8306 111.752 68.1626 112.309 69.1303L114.079 72.2003C114.637 73.1687 114.306 74.4054 113.341 74.9633Z" fill="#FAAD14"/>
<path fill-rule="evenodd" clip-rule="evenodd" d="M134.685 75.1546L119.161 84.1281C117.737 84.9512 115.949 84.52 115.166 83.1642L102.964 62.0038C102.181 60.6481 102.702 58.8819 104.126 58.0588L119.651 49.0851C121.075 48.2613 122.863 48.6933 123.645 50.0492L135.848 71.2094C136.63 72.5653 136.109 74.3315 134.685 75.1546Z" fill="#597EF7"/>
<path fill-rule="evenodd" clip-rule="evenodd" d="M100.91 37.5898H76.7949C75.8075 37.5898 75 36.7821 75 35.7949C75 34.8075 75.8075 34 76.7949 34H100.91C101.897 34 102.705 34.8075 102.705 35.7949C102.705 36.7821 101.897 37.5898 100.91 37.5898Z" fill="#E4EBF7"/>
<path fill-rule="evenodd" clip-rule="evenodd" d="M86.9682 46.0566H77.9933C77.0021 46.0566 76.1982 45.2529 76.1982 44.2617C76.1982 43.2703 77.0021 42.4668 77.9933 42.4668H86.9682C87.9596 42.4668 88.7631 43.2703 88.7631 44.2617C88.7631 45.2529 87.9596 46.0566 86.9682 46.0566Z" fill="#E4EBF7"/>
</svg>
