<svg width="84" height="84" viewBox="0 0 84 84" fill="none" xmlns="http://www.w3.org/2000/svg">
<path fill-rule="evenodd" clip-rule="evenodd" d="M44.7031 20.3438L30.9219 63.6363H39.2537L53.035 20.3438H44.7031Z" fill="#597EF7"/>
<path fill-rule="evenodd" clip-rule="evenodd" d="M25.0517 25.2656H16.2068H10.6313C10.1963 25.2656 9.84375 25.6182 9.84375 26.0531V31.6288V52.3512V57.9268C9.84375 58.3618 10.1963 58.7143 10.6313 58.7143H16.2068H25.0517C25.4866 58.7143 25.8392 58.3618 25.8392 57.9268V53.1387C25.8392 52.7037 25.4866 52.3512 25.0517 52.3512H16.2068V31.6288H25.0517C25.4866 31.6288 25.8392 31.2762 25.8392 30.8413V26.0531C25.8392 25.6182 25.4866 25.2656 25.0517 25.2656Z" fill="#CCD7EE"/>
<path fill-rule="evenodd" clip-rule="evenodd" d="M73.3261 25.2656H67.7504H58.9057C58.4708 25.2656 58.1182 25.6182 58.1182 26.0531V30.8413C58.1182 31.2762 58.4708 31.6288 58.9057 31.6288H67.7504V52.3512H58.9057C58.4708 52.3512 58.1182 52.7037 58.1182 53.1387V57.9268C58.1182 58.3618 58.4708 58.7143 58.9057 58.7143H67.7504H73.3261C73.7611 58.7143 74.1136 58.3618 74.1136 57.9268V53.1387V30.8413V26.0531C74.1136 25.6182 73.7611 25.2656 73.3261 25.2656Z" fill="#CCD7EE"/>
</svg>
