<svg width="498" height="500" viewBox="0 0 498 500" fill="none" xmlns="http://www.w3.org/2000/svg">
<path fill-rule="evenodd" clip-rule="evenodd" d="M130.002 299.345C130.002 299.345 125.119 260.282 177.854 242.704C230.588 225.126 242.307 234.403 242.307 234.403L237.424 250.028C237.424 250.028 229.123 289.091 191.037 294.462C152.951 299.833 138.303 292.021 130.002 299.345Z" fill="#7CB305"/>
<path d="M236.652 236.246L238.195 237.444L238.067 237.604C238.011 237.673 237.943 237.757 237.86 237.855L237.616 238.143C237.445 238.344 237.256 238.56 237.049 238.792L236.891 238.968C235.82 240.157 234.526 241.478 233.008 242.9C228.682 246.951 223.415 250.998 217.183 254.773C204.668 262.355 189.89 267.866 172.769 270.433L172.134 270.526C160.611 272.199 151.428 276.027 144.315 281.354C140.902 283.909 138.194 286.642 136.118 289.37C135.396 290.32 134.805 291.199 134.336 291.984L134.183 292.245C134.111 292.369 134.046 292.486 133.987 292.594L133.824 292.907L133.814 292.927L132.049 292.091L132.103 291.981C132.214 291.758 132.398 291.42 132.659 290.983C133.164 290.136 133.796 289.196 134.564 288.187C136.746 285.32 139.582 282.458 143.144 279.79C150.412 274.348 159.735 270.427 171.347 268.669L171.854 268.594C188.978 266.108 203.719 260.646 216.171 253.103C222.284 249.4 227.443 245.435 231.673 241.474C233.052 240.183 234.237 238.98 235.231 237.892L235.441 237.66C235.749 237.318 236.019 237.009 236.249 236.736L236.507 236.427L236.652 236.246Z" fill="#7CB305"/>
<path fill-rule="evenodd" clip-rule="evenodd" d="M235.959 325.713H242.307V234.404H235.959L237.669 262.46C238.156 270.443 238.209 278.447 237.83 286.436L235.959 325.713Z" fill="#7CB305"/>
<path fill-rule="evenodd" clip-rule="evenodd" d="M138.195 165.654C138.195 165.654 157.631 136.099 203.936 154.826C250.24 173.552 252.561 188.506 252.561 188.506L240.395 194.564C240.395 194.564 211.946 216.433 182.773 197.9C153.602 179.368 148.141 165.485 138.195 165.654Z" fill="#7CB305"/>
<path fill-rule="evenodd" clip-rule="evenodd" d="M246.213 351.104H251.096L253.009 189.92C253.032 187.932 251.723 186.174 249.811 185.627L246.213 184.6C246.213 184.6 247.439 199.576 247.189 218.291C246.951 236.193 245.236 257.496 245.236 273.274C245.236 317.9 246.213 351.104 246.213 351.104Z" fill="#7CB305"/>
<path fill-rule="evenodd" clip-rule="evenodd" d="M204.221 164.579C225.292 180.933 246.702 191.435 246.702 191.435L240.395 194.563C240.395 194.563 211.946 216.432 182.773 197.9C153.602 179.367 148.141 165.485 138.195 165.653C138.195 165.653 171.506 139.189 204.221 164.579Z" fill="#5B8C00"/>
<path fill-rule="evenodd" clip-rule="evenodd" d="M366.699 235.561C366.699 235.561 353.588 215.724 322.352 228.293C291.116 240.863 289.551 250.899 289.551 250.899L297.757 254.965C297.757 254.965 316.949 269.644 336.628 257.205C356.307 244.766 359.99 235.448 366.699 235.561Z" fill="#7CB305"/>
<path fill-rule="evenodd" clip-rule="evenodd" d="M293.759 360.84H290.385L289.063 252.124C289.047 250.783 289.951 249.597 291.272 249.228L293.759 248.535C293.759 248.535 292.912 258.637 293.084 271.259C293.249 283.334 294.434 297.703 294.434 308.345C294.434 338.445 293.759 360.84 293.759 360.84Z" fill="#7CB305"/>
<path fill-rule="evenodd" clip-rule="evenodd" d="M370.344 128.056C370.344 128.056 350.908 98.501 304.604 117.228C258.299 135.955 255.979 150.908 255.979 150.908L268.144 156.966C268.144 156.966 296.594 178.835 325.766 160.303C354.938 141.77 360.398 127.888 370.344 128.056Z" fill="#7CB305"/>
<path fill-rule="evenodd" clip-rule="evenodd" d="M262.326 319.854H257.444L255.531 152.322C255.507 150.334 256.817 148.576 258.728 148.03L262.326 147.002C262.326 147.002 261.1 161.979 261.35 180.693C261.589 198.596 263.303 219.898 263.303 235.676C263.303 280.303 262.326 319.854 262.326 319.854Z" fill="#7CB305"/>
<path fill-rule="evenodd" clip-rule="evenodd" d="M370.344 128.055C370.344 128.055 337.033 101.591 304.318 126.982C283.247 143.335 261.838 153.837 261.838 153.837L268.144 156.966C268.144 156.966 296.594 178.835 325.766 160.302C354.938 141.769 360.398 127.887 370.344 128.055Z" fill="#5B8C00"/>
<path fill-rule="evenodd" clip-rule="evenodd" d="M271.115 318.389H279.416L282.699 214.619L276.446 116.678C276.47 114.69 275.16 112.932 273.249 112.385L269.65 111.357C269.65 111.357 277.463 189.137 277.463 204.915C277.463 249.541 271.115 318.389 271.115 318.389Z" fill="#7CB305"/>
<path fill-rule="evenodd" clip-rule="evenodd" d="M177.704 56.5579C177.704 56.5579 195.432 30.3025 237.424 56.6697C279.725 83.2302 276.788 118.073 276.788 118.073L263.27 119.48C263.27 119.48 228.957 129.98 208.139 102.392C187.321 74.8044 187.077 59.8889 177.704 56.5579Z" fill="#7CB305"/>
<path fill-rule="evenodd" clip-rule="evenodd" d="M177.704 56.5583C177.704 56.5583 196.788 42.4904 213.01 62.5295C221.311 72.7834 235.997 80.5143 242.307 86.4552C258.7 101.89 270.273 118.762 270.273 118.762L263.27 119.481C263.27 119.481 228.957 129.981 208.139 102.393C187.321 74.8048 187.077 59.8893 177.704 56.5583Z" fill="#5B8C00"/>
<path fill-rule="evenodd" clip-rule="evenodd" d="M317.383 455.107H204.102C197.629 455.107 192.383 449.861 192.383 443.389V330.107C192.383 323.635 197.629 318.389 204.102 318.389H317.383C323.855 318.389 329.102 323.635 329.102 330.107V443.389C329.102 449.861 323.855 455.107 317.383 455.107Z" fill="#253368"/>
</svg>
