<svg width="100" height="100" viewBox="0 0 100 100" fill="none" xmlns="http://www.w3.org/2000/svg">
<path fill-rule="evenodd" clip-rule="evenodd" d="M46.4541 6.50781H53.6746V15.1864L46.4541 13.5753V6.50781Z" fill="#253368"/>
<path fill-rule="evenodd" clip-rule="evenodd" d="M39.5391 13.9876C21.3009 18.6325 7.8125 35.1663 7.8125 54.8504C7.8125 78.1375 26.6903 97.0153 49.9774 97.0153C73.2644 97.0153 92.1423 78.1375 92.1423 54.8504C92.1423 31.5635 73.2644 12.6855 49.9774 12.6855C46.3746 12.6855 42.8773 13.1374 39.5391 13.9876Z" fill="#597EF7"/>
<path fill-rule="evenodd" clip-rule="evenodd" d="M49.9768 18.3535C29.8193 18.3535 13.4785 34.6943 13.4785 54.8518C13.4785 75.0092 29.8193 91.35 49.9768 91.35C70.1343 91.35 86.4751 75.0092 86.4751 54.8518C86.4751 34.6943 70.1343 18.3535 49.9768 18.3535Z" fill="#E4EBF7"/>
<path fill-rule="evenodd" clip-rule="evenodd" d="M49.9774 20.5547C31.0364 20.5547 15.6816 35.9093 15.6816 54.8504C15.6816 73.7915 31.0364 89.1461 49.9774 89.1461C68.9183 89.1461 84.2731 73.7915 84.2731 54.8504C84.2731 35.9093 68.9183 20.5547 49.9774 20.5547Z" fill="white"/>
<path fill-rule="evenodd" clip-rule="evenodd" d="M51.4834 53.7477H48.4717V32.3497C48.4717 31.518 49.1458 30.8438 49.9775 30.8438C50.8092 30.8438 51.4834 31.518 51.4834 32.3497V53.7477Z" fill="#253368"/>
<path fill-rule="evenodd" clip-rule="evenodd" d="M49.9775 56.3575V53.3457H63.8058C64.6375 53.3457 65.3117 54.0199 65.3117 54.8516C65.3117 55.6833 64.6375 56.3575 63.8058 56.3575H49.9775Z" fill="#253368"/>
<path fill-rule="evenodd" clip-rule="evenodd" d="M52.9894 54.8517C52.9894 56.515 51.641 57.8634 49.9777 57.8634C48.3143 57.8634 46.9658 56.515 46.9658 54.8517C46.9658 53.1883 48.3143 51.8398 49.9777 51.8398C51.641 51.8398 52.9894 53.1883 52.9894 54.8517Z" fill="#FF7946"/>
<path fill-rule="evenodd" clip-rule="evenodd" d="M49.9737 27.7443C49.142 27.7443 48.4678 27.07 48.4678 26.2384V23.2266C48.4678 22.3949 49.142 21.7207 49.9737 21.7207C50.8054 21.7207 51.4796 22.3949 51.4796 23.2266V26.2384C51.4796 27.07 50.8054 27.7443 49.9737 27.7443Z" fill="#E4EBF7"/>
<path fill-rule="evenodd" clip-rule="evenodd" d="M30.8078 35.6867C30.2197 36.2748 29.2662 36.2748 28.6782 35.6867L26.5485 33.5571C25.9604 32.969 25.9604 32.0155 26.5485 31.4274C27.1366 30.8393 28.0901 30.8393 28.6782 31.4274L30.8078 33.5571C31.3959 34.1451 31.3959 35.0987 30.8078 35.6867Z" fill="#E4EBF7"/>
<path fill-rule="evenodd" clip-rule="evenodd" d="M22.8712 54.8555C22.8712 55.6872 22.197 56.3615 21.3653 56.3615H18.3536C17.5219 56.3615 16.8477 55.6872 16.8477 54.8555C16.8477 54.0238 17.5219 53.3496 18.3536 53.3496H21.3653C22.197 53.3496 22.8712 54.0238 22.8712 54.8555Z" fill="#E4EBF7"/>
<path fill-rule="evenodd" clip-rule="evenodd" d="M30.8137 74.0192C31.4018 74.6073 31.4018 75.5608 30.8137 76.1488L28.6841 78.2785C28.096 78.8667 27.1425 78.8667 26.5544 78.2785C25.9663 77.6904 25.9663 76.737 26.5544 76.1488L28.6841 74.0192C29.2721 73.4311 30.2256 73.4311 30.8137 74.0192Z" fill="#E4EBF7"/>
<path fill-rule="evenodd" clip-rule="evenodd" d="M49.9815 81.957C50.8132 81.957 51.4874 82.6313 51.4874 83.463V86.4747C51.4874 87.3064 50.8132 87.9805 49.9815 87.9805C49.1498 87.9805 48.4756 87.3064 48.4756 86.4747V83.463C48.4756 82.6313 49.1498 81.957 49.9815 81.957Z" fill="#E4EBF7"/>
<path fill-rule="evenodd" clip-rule="evenodd" d="M69.1471 74.0153C69.7353 73.4272 70.6887 73.4272 71.2767 74.0153L73.4065 76.1449C73.9946 76.733 73.9946 77.6865 73.4065 78.2746C72.8183 78.8628 71.8649 78.8628 71.2769 78.2746L69.1471 76.1449C68.559 75.5569 68.559 74.6034 69.1471 74.0153Z" fill="#E4EBF7"/>
<path fill-rule="evenodd" clip-rule="evenodd" d="M77.084 54.8477C77.084 54.016 77.7582 53.3418 78.5899 53.3418H81.6016C82.4333 53.3418 83.1076 54.016 83.1076 54.8477C83.1076 55.6794 82.4333 56.3536 81.6016 56.3536H78.5899C77.7582 56.3536 77.084 55.6794 77.084 54.8477Z" fill="#E4EBF7"/>
<path fill-rule="evenodd" clip-rule="evenodd" d="M69.1413 35.6809C68.5532 35.0929 68.5532 34.1393 69.1413 33.5513L71.2709 31.4216C71.859 30.8334 72.8125 30.8334 73.4006 31.4216C73.9887 32.0097 73.9887 32.9631 73.4006 33.5513L71.2709 35.6809C70.6829 36.269 69.7294 36.269 69.1413 35.6809Z" fill="#E4EBF7"/>
<path fill-rule="evenodd" clip-rule="evenodd" d="M36.9294 9.98611C36.449 9.98611 36.0596 9.59663 36.0596 9.11626V3.89719C36.0596 3.41682 36.449 3.02734 36.9294 3.02734H63.0248C63.5052 3.02734 63.8946 3.41682 63.8946 3.89719V9.11626C63.8946 9.59663 63.5052 9.98611 63.0248 9.98611H36.9294Z" fill="#597EF7"/>
</svg>
