<svg width="150" height="150" viewBox="0 0 150 150" fill="none" xmlns="http://www.w3.org/2000/svg">
<path d="M136.57 57.4863H13.4883V110.484H136.57V57.4863Z" fill="#253368"/>
<path d="M70.3567 12.4166L13.5439 57.4802L133.347 60.5799C133.605 60.5794 133.861 60.5507 134.113 60.4942C135.616 60.1172 136.664 59.0288 136.647 57.4802L78.0233 12.269C75.693 10.753 72.6871 10.9006 70.3567 12.4166Z" fill="#253368"/>
<path d="M135.614 137.927L75.2432 104.863" stroke="white" stroke-width="5.4"/>
<path d="M121.211 49.8047H29.127C28.428 49.8047 27.8613 50.3713 27.8613 51.0703V112.748C27.8613 113.447 28.428 114.013 29.127 114.013H121.211C121.91 114.013 122.477 113.447 122.477 112.748V51.0703C122.477 50.3713 121.91 49.8047 121.211 49.8047Z" fill="white"/>
<path d="M78.3351 104.592C76.3021 105.271 74.0704 104.984 72.2753 103.813L13.3965 57.4805V135.534C13.3965 137.263 15.0992 138.664 16.9197 138.664H133.346C135.169 138.664 136.648 137.263 136.648 135.534V57.4805L80.4222 103.443C79.7989 103.945 79.0925 104.334 78.3351 104.592Z" fill="#CCD7EE"/>
<path d="M50.5264 57.6289V67.8137H60.7112C60.7116 65.1127 59.6387 62.5221 57.7286 60.6121C55.8186 58.702 53.2278 57.6289 50.5264 57.6289Z" fill="#F5222D"/>
<path d="M50.3791 57.6289C46.5097 57.6299 42.9749 59.8277 41.2555 63.3014C39.536 66.7752 39.9288 70.9253 42.2693 74.0131L50.3791 67.8351V57.6289Z" fill="#597EF7"/>
<path d="M50.4402 78.1457C56.1134 78.1457 60.7124 73.5858 60.7124 67.9609H50.4402L42.2617 74.1222C44.2027 76.6583 47.2293 78.1473 50.4402 78.1457Z" fill="#FAAD14"/>
<path d="M104.089 59.1055H73.4092C72.7102 59.1055 72.1436 59.6721 72.1436 60.3711V62.5632C72.1436 63.2622 72.7102 63.8289 73.4092 63.8289H104.089C104.788 63.8289 105.355 63.2622 105.355 62.5632V60.3711C105.355 59.6721 104.788 59.1055 104.089 59.1055Z" fill="#ADC6FF"/>
<path d="M104.089 68.5508H73.4092C72.7102 68.5508 72.1436 69.1174 72.1436 69.8164V72.0085C72.1436 72.7075 72.7102 73.2742 73.4092 73.2742H104.089C104.788 73.2742 105.355 72.7075 105.355 72.0085V69.8164C105.355 69.1174 104.788 68.5508 104.089 68.5508Z" fill="#ADC6FF"/>
</svg>
