<svg width="208" height="65" viewBox="0 0 208 65" fill="none" xmlns="http://www.w3.org/2000/svg">
<path d="M203.513 3.42004L191.016 0.285133C189.751 -0.0325029 188.434 -0.0854235 187.147 0.12972L148 7.24764L149.151 35L189.095 11.7924L200.531 14.8362C202.842 15.4558 205.301 14.6316 206.764 12.7471C207.986 11.1717 208.328 9.08936 207.673 7.20904C207.017 5.32873 205.453 3.904 203.513 3.42004Z" fill="#597EF7"/>
<path d="M55.4948 3.43231L42.9284 0.286199C41.6562 -0.0326367 40.3312 -0.0857469 39.0373 0.13023L4.95318 6.36897C2.05897 6.9025 -0.0302524 9.42435 0.000331434 12.347L0.193654 29L40.9986 11.8323L52.4789 14.8982C54.8035 15.5203 57.2767 14.6932 58.7486 12.8016C59.9822 11.2226 60.3303 9.1322 59.6742 7.24299C59.0181 5.35377 57.4464 3.92072 55.4948 3.43231Z" fill="#597EF7"/>
<path d="M2.70183 33.1108L15 41V6H5.70096C2.55241 6 1.31753e-06 8.65719 1.31753e-06 11.935V28.0569C-0.0013396 30.1151 1.02093 32.0273 2.70183 33.1108Z" fill="#597EF7"/>
<path d="M156.217 27.6656L143 36V6.00003H154.011C155.068 5.99589 156.083 6.42749 156.832 7.19942C157.58 7.97136 158.001 9.02001 158 10.1135V24.2358C158 25.6164 157.33 26.9049 156.217 27.6656Z" fill="#597EF7"/>
<path d="M159 10C159.534 10 159.971 10.3478 159.999 10.7855L160 10.8296V25.1704C160 25.6286 159.552 26 159 26C158.466 26 158.029 25.6521 158.001 25.2145L158 25.1704V10.8296C158 10.3714 158.448 10 159 10Z" fill="#FAAD14"/>
<path d="M7 14.7429V35.2025C7 48.6815 19.9295 57.8727 29.2054 62.733C35.9376 66.247 44.2014 64.1087 48.4432 57.755C54.0968 49.2947 57.9493 36.1347 68.6666 36.1347C74.5056 36.1347 84.729 47.6474 90.1189 55.7978C95.0422 63.2207 104.101 66.6256 112.615 64.2536C129.909 59.4589 150 48.4145 150 35.5554V14.7384C150 11.0169 147.021 8 143.345 8H13.6547C11.889 8 10.1957 8.71056 8.94754 9.97523C7.69941 11.2399 7 12.955 7 14.7429Z" fill="#E4EBF7"/>
<path d="M142.972 6C147.362 6 150.928 9.52429 151 13.8987V14.0315V34.639C151 35.3907 150.391 36 149.64 36C148.905 36 148.307 35.418 148.28 34.69L148.279 34.639V14.0315C148.279 11.1285 145.951 8.76961 143.06 8.72273L142.972 8.72201H13.0277C10.1261 8.72201 7.7683 11.0519 7.72143 13.9437L7.72072 14.0315V34.2851C7.72072 35.0367 7.11167 35.6461 6.36036 35.6461C5.62613 35.6461 5.02776 35.0641 5 34.3361V34.2851V14.0315C5 9.6402 8.52262 6.072 12.895 6.00108L13.0277 6H142.972Z" fill="#253368"/>
<path d="M139.898 16H121.102C119.941 16 119 17.0959 119 18.4478V18.5522C119 19.9041 119.941 21 121.102 21H139.898C141.059 21 142 19.9041 142 18.5522V18.4478C142 17.0959 141.059 16 139.898 16Z" fill="#FF7946"/>
<path d="M139.928 24H131.072C129.928 24 129 24.8767 129 25.9583V26.0417C129 27.1233 129.928 28 131.072 28H139.928C141.072 28 142 27.1233 142 26.0417V25.9583C142 24.8767 141.072 24 139.928 24Z" fill="#FF7946"/>
<path d="M139.928 31H131.072C129.928 31 129 32.0959 129 33.4478V33.5522C129 34.9041 129.928 36 131.072 36H139.928C141.072 36 142 34.9041 142 33.5522V33.4478C142 32.0959 141.072 31 139.928 31Z" fill="#FF7946"/>
<path d="M171.699 14.9325C173.032 11.8533 172.567 8.68167 170.662 7.84838C168.756 7.01509 166.131 8.83573 164.799 11.9149C163.466 14.9941 163.93 18.1657 165.836 18.999C167.742 19.8323 170.367 18.0117 171.699 14.9325Z" fill="#253368"/>
<path d="M25.9009 22.671L23.3155 15.1284C23.0186 14.2544 22.1355 13.7942 21.321 14.0891C19.7541 14.6598 17.3835 15.9832 16.1412 18.9458C15.7851 19.8026 16.1251 20.811 16.9067 21.2164C19.9421 22.7924 22.1291 23.9604 23.6893 24.8152C24.2742 25.1348 24.9799 25.0336 25.4682 24.5601C25.9565 24.0867 26.1282 23.3373 25.9009 22.671Z" fill="#597EF7"/>
<path d="M57.3192 22C57.6952 22 58 22.3107 58 22.6939C58 23.0635 57.7166 23.3656 57.3592 23.3867L57.3192 23.3879L46.1818 23.3876L34.1216 33.8348C33.8462 34.0735 33.4383 34.0498 33.1909 33.788L33.162 33.7554C32.9279 33.4746 32.9512 33.0589 33.208 32.8067L33.2399 32.7773L45.4905 22.1652C45.6013 22.0692 45.7389 22.0122 45.8831 22.0017L45.9314 22H57.3192Z" fill="#597EF7"/>
<path d="M94.4765 17L94.4764 17.01L94.5118 17.0116C94.69 17.0197 94.7229 17.033 94.8437 17.1065L94.871 17.1231L94.9539 17.1931C94.9858 17.2215 94.9967 17.2356 95.0267 17.2746L95.0981 17.3956C95.109 17.4154 95.1144 17.4269 95.1187 17.4389L95.1264 17.4627C95.1343 17.4851 95.1407 17.506 95.1469 17.5288L95.1562 17.5647C95.1678 17.6117 95.182 17.6762 95.1998 17.7615L95.2941 18.2393L95.5225 19.464L96.0933 22.6262C96.3641 24.1413 96.6849 25.9515 97.047 28.0052L98.1821 34.469L99.1609 40.0764L99.1688 40.1061C99.2532 40.3984 99.5103 40.6088 99.8141 40.6342L99.8558 40.6365C100.177 40.6451 100.465 40.445 100.57 40.1454L100.583 40.1039L102.771 32.465C103.006 31.6408 103.754 31.0676 104.613 31.054C105.451 31.0408 106.201 31.564 106.478 32.3471L106.498 32.4049L107.647 35.9755C107.739 36.2641 108.004 36.463 108.308 36.4718C108.597 36.4802 108.861 36.3143 108.98 36.0532L108.997 36.0133L110.988 30.8785C111.297 30.0949 112.044 29.5737 112.882 29.5497L112.948 29.5489H117.317C117.694 29.5489 118 29.8541 118 30.2305C118 30.5935 117.716 30.8903 117.357 30.911L117.317 30.9122L112.946 30.9122C112.658 30.9113 112.398 31.078 112.278 31.333L112.261 31.374L110.271 36.504C109.954 37.3267 109.151 37.86 108.268 37.8345C107.407 37.8096 106.652 37.258 106.366 36.4523L106.346 36.3914L105.196 32.8204C105.119 32.5769 104.89 32.4131 104.634 32.4171C104.392 32.421 104.178 32.5746 104.097 32.8004L104.085 32.8387L101.897 40.4782C101.633 41.3992 100.778 42.0251 99.8189 41.9992C98.8804 41.9739 98.0752 41.3312 97.841 40.4291L97.8263 40.3686L97.8193 40.3338L96.9283 35.2298L95.4209 26.6524C95.0704 24.6694 94.7664 22.9611 94.5188 21.5847L94.0627 19.0819L93.9267 18.3632L86.6831 18.3633C86.3193 18.3633 86.0219 18.0795 86.0012 17.7217L86 17.6816C86 17.3186 86.2844 17.0219 86.643 17.0012L86.6831 17H94.4765Z" fill="#FAAD14"/>
<path d="M88 19C89.1046 19 90 18.1046 90 17C90 15.8954 89.1046 15 88 15C86.8954 15 86 15.8954 86 17C86 18.1046 86.8954 19 88 19Z" fill="#FF7946"/>
<path d="M119 32C120.105 32 121 31.1046 121 30C121 28.8954 120.105 28 119 28C117.895 28 117 28.8954 117 30C117 31.1046 117.895 32 119 32Z" fill="#FF7946"/>
<path d="M79.5318 16H79.4682C78.6573 16 78 16.7498 78 17.6748V28.3252C78 29.2502 78.6573 30 79.4682 30H79.5318C80.3427 30 81 29.2502 81 28.3252V17.6748C81 16.7498 80.3427 16 79.5318 16Z" fill="#597EF7"/>
<path d="M72.0424 19H71.9576C70.8765 19 70 19.7253 70 20.62V26.38C70 27.2747 70.8765 28 71.9576 28H72.0424C73.1235 28 74 27.2747 74 26.38V20.62C74 19.7253 73.1235 19 72.0424 19Z" fill="#597EF7"/>
<path d="M58.5318 17H58.4682C57.6573 17 57 17.7387 57 18.6499V27.3501C57 28.2613 57.6573 29 58.4682 29H58.5318C59.3427 29 60 28.2613 60 27.3501V18.6499C60 17.7387 59.3427 17 58.5318 17Z" fill="#597EF7"/>
<path d="M65.0424 14H64.9576C63.8765 14 63 14.7611 63 15.6999V30.3001C63 31.2389 63.8765 32 64.9576 32H65.0424C66.1235 32 67 31.2389 67 30.3001V15.6999C67 14.7611 66.1235 14 65.0424 14Z" fill="#597EF7"/>
<path d="M33.6134 35.4012C34.7554 34.9444 35.2547 33.4968 34.7286 32.1679C34.2025 30.839 32.8503 30.1321 31.7083 30.5889C30.5664 31.0457 30.0671 32.4933 30.5932 33.8222C31.1192 35.1511 32.4715 35.858 33.6134 35.4012Z" fill="white"/>
<path d="M21.5487 25.9671C19.7043 29.608 19.4979 33.8467 20.9801 37.6454C23.7608 44.9347 31.6193 48.7693 38.5352 46.2026C45.4511 43.6359 48.8027 35.6464 46.022 28.3548C43.2413 21.0633 35.3851 17.231 28.4691 19.7977L33.1193 33.5236L21.5487 25.9671Z" fill="white"/>
<path d="M33 40C36.866 40 40 36.866 40 33C40 29.134 36.866 26 33 26C29.134 26 26 29.134 26 33C26 36.866 29.134 40 33 40Z" fill="#597EF7"/>
<path d="M33 37C35.2091 37 37 35.2091 37 33C37 30.7909 35.2091 29 33 29C30.7909 29 29 30.7909 29 33C29 35.2091 30.7909 37 33 37Z" fill="white"/>
</svg>
