<svg width="77" height="77" viewBox="0 0 77 77" fill="none" xmlns="http://www.w3.org/2000/svg">
<rect x="0.5" y="0.5" width="76" height="76" rx="38" fill="white"/>
<path d="M26.4507 20.7098C27.8071 19.9851 29.2667 19.752 30.6878 19.752C32.3329 19.7519 34.2436 20.2923 35.7867 21.5568C37.4023 22.8807 38.5004 24.9117 38.5004 27.5622C38.5004 30.6078 36.3482 32.2612 35.1348 33.1934C35.0404 33.2659 34.952 33.334 34.8704 33.3981C33.5436 34.4409 33.0317 34.9981 33.0317 36.1559C33.0317 37.4503 31.9823 38.4997 30.6879 38.4997C29.3935 38.4997 28.3442 37.4503 28.3442 36.1559C28.3442 32.6122 30.5668 30.8183 31.9742 29.7124C33.5782 28.4518 33.8129 28.171 33.8129 27.5622C33.8129 26.3214 33.3486 25.6192 32.8158 25.1826C32.2106 24.6867 31.3867 24.4394 30.6881 24.4395C29.7654 24.4395 29.1312 24.5922 28.6595 24.8443C28.2112 25.0837 27.7369 25.5042 27.2796 26.3477C26.6627 27.4856 25.24 27.908 24.1021 27.291C22.9642 26.6741 22.5418 25.2515 23.1588 24.1135C23.9827 22.5938 25.0709 21.4469 26.4507 20.7098Z" fill="#7854F7"/>
<path d="M30.6877 47.8753C32.4138 47.8753 33.8128 46.4763 33.8128 44.7503C33.8128 43.0241 32.4138 41.625 30.6877 41.625C28.9617 41.625 27.5625 43.0241 27.5625 44.7503C27.5625 46.4763 28.9617 47.8753 30.6877 47.8753Z" fill="#7854F7"/>
<path d="M30.6885 10.375C17.7443 10.375 7.25101 20.8683 7.25101 33.8125C7.25101 37.3528 8.03748 40.715 9.44682 43.7294C8.65295 46.8481 7.76604 50.3256 7.18357 52.6084C6.45535 55.4625 9.02545 58.0587 11.8828 57.3719C14.2272 56.8084 17.8304 55.9434 21.0413 55.1781C23.986 56.5097 27.2536 57.25 30.6885 57.25C43.6327 57.25 54.1262 46.7566 54.1262 33.8125C54.1262 20.8683 43.6327 10.375 30.6885 10.375ZM11.9385 33.8125C11.9385 23.4572 20.3332 15.0625 30.6885 15.0625C41.044 15.0625 49.4387 23.4572 49.4387 33.8125C49.4387 44.1678 41.044 52.5625 30.6885 52.5625C27.6862 52.5625 24.8551 51.8587 22.3449 50.6091L21.5842 50.2303L20.7576 50.4272C17.8741 51.1134 14.5426 51.9122 12.0459 52.5119C12.6669 50.0772 13.4894 46.8512 14.2024 44.0491L14.4217 43.1869L14.0138 42.3962C12.6881 39.8269 11.9385 36.9106 11.9385 33.8125Z" fill="#7854F7"/>
<path d="M46.3135 66.6256C40.1592 66.6256 34.5589 64.2534 30.377 60.3737C30.4807 60.375 30.5846 60.3756 30.6886 60.3756C32.9323 60.3756 35.1107 60.0972 37.192 59.5734C39.8917 61.0797 43.0023 61.9381 46.3135 61.9381C49.3157 61.9381 52.147 61.2341 54.657 59.9844L55.4179 59.6056L56.2445 59.8025C59.1242 60.4881 62.3854 61.1956 64.8042 61.7072C64.2576 59.3619 63.5117 56.2225 62.7995 53.4244L62.5804 52.5625L62.9882 51.7719C64.3139 49.2025 65.0635 46.2863 65.0635 43.1881C65.0635 36.5794 61.6448 30.7696 56.4792 27.4304C55.9217 25.1702 55.0751 23.024 53.9804 21.0332C63.1595 24.2092 69.751 32.9288 69.751 43.1881C69.751 46.7291 68.9642 50.0922 67.5542 53.1069C68.3448 56.2569 69.1457 59.6691 69.6535 61.8669C70.2923 64.6325 67.8567 67.1356 65.0676 66.5528C62.7954 66.0778 59.2251 65.3159 55.9632 64.5525C53.0179 65.8847 49.7495 66.6256 46.3135 66.6256Z" fill="#24E6DB"/>
<rect x="0.5" y="0.5" width="76" height="76" rx="38" stroke="url(#paint0_linear)"/>
<defs>
<linearGradient id="paint0_linear" x1="12.5" y1="11" x2="66.5" y2="63" gradientUnits="userSpaceOnUse">
<stop stop-color="#0068C9"/>
<stop offset="1" stop-color="#7F5DF7"/>
</linearGradient>
</defs>
</svg>
