<svg width="84" height="90" viewBox="0 0 84 90" fill="none" xmlns="http://www.w3.org/2000/svg">
<path d="M5.25 28.125C5.25 21.9118 9.95101 16.875 15.75 16.875H68.25C74.0491 16.875 78.75 21.9118 78.75 28.125V61.875C78.75 68.0884 74.0491 73.125 68.25 73.125H15.75C9.95101 73.125 5.25 68.0884 5.25 61.875V28.125ZM23.625 28.125C22.1753 28.125 21 29.3842 21 30.9375C21 32.4908 22.1753 33.75 23.625 33.75H39.375C40.8247 33.75 42 32.4908 42 30.9375C42 29.3842 40.8247 28.125 39.375 28.125H23.625ZM21 42.1875C21 43.7408 22.1753 45 23.625 45H55.125C56.5745 45 57.75 43.7408 57.75 42.1875C57.75 40.6342 56.5745 39.375 55.125 39.375H23.625C22.1753 39.375 21 40.6342 21 42.1875ZM23.625 50.625C22.1753 50.625 21 51.8842 21 53.4375C21 54.9908 22.1753 56.25 23.625 56.25H44.625C46.0747 56.25 47.25 54.9908 47.25 53.4375C47.25 51.8842 46.0747 50.625 44.625 50.625H23.625Z" fill="white"/>
</svg>
