<svg width="413" height="383" viewBox="0 0 413 383" fill="none" xmlns="http://www.w3.org/2000/svg">
<path opacity="0.503534" d="M197.117 372.456C292.939 372.456 370.617 294.777 370.617 198.956C370.617 103.134 292.939 25.4559 197.117 25.4559C101.296 25.4559 23.6172 103.134 23.6172 198.956C23.6172 294.777 101.296 372.456 197.117 372.456Z" fill="#EDEDED"/>
<path fill-rule="evenodd" clip-rule="evenodd" d="M334.117 139.112C319.671 139.112 307.961 127.402 307.961 112.956C307.961 98.5101 319.671 86.7994 334.117 86.7994C348.563 86.7994 360.274 98.5101 360.274 112.956C360.274 127.402 348.563 139.112 334.117 139.112ZM412.617 124.788V101.124L393.967 96.3848C392.599 91.4331 390.633 86.73 388.152 82.3576L397.991 65.8145L381.259 49.0814L364.715 58.9209C360.343 56.4393 355.64 54.4742 350.688 53.1062L345.949 34.4559H322.285L317.546 53.1062C312.594 54.4742 307.891 56.4393 303.519 58.9209L286.976 49.0814L270.243 65.8145L280.082 82.3576C277.601 86.73 275.636 91.4334 274.268 96.3848L255.617 101.124V124.788L274.268 129.527C275.636 134.478 277.601 139.181 280.082 143.554L270.243 160.097L286.976 176.83L303.519 166.991C307.891 169.472 312.594 171.438 317.546 172.806L322.285 191.456H345.949L350.688 172.806C355.64 171.438 360.343 169.472 364.715 166.991L381.259 176.83L397.991 160.097L388.152 143.554C390.633 139.181 392.599 134.478 393.967 129.527L412.617 124.788Z" fill="#597EF7"/>
<path fill-rule="evenodd" clip-rule="evenodd" d="M23.6177 123.555L23.6177 77.9164C23.6177 72.163 28.2869 67.4558 33.9927 67.4558L79.8022 67.4558C85.5086 67.4558 90.1777 72.163 90.1777 77.9164L90.1777 123.555C90.1777 129.308 85.5086 134.016 79.8022 134.016H33.9927C28.2869 134.016 23.6177 129.308 23.6177 123.555Z" fill="#7DB308"/>
<path d="M339.912 105.343H65.162C60.4428 105.343 56.6172 109.169 56.6172 113.888V311.193C56.6172 315.913 60.4428 319.738 65.162 319.738H339.912C344.632 319.738 348.457 315.913 348.457 311.193V113.888C348.457 109.169 344.632 105.343 339.912 105.343Z" fill="#E4EBF7"/>
<path d="M318.861 143.466H86.2112C84.4172 143.466 82.9629 144.92 82.9629 146.714V296.861C82.9629 298.655 84.4172 300.109 86.2112 300.109H318.861C320.655 300.109 322.11 298.655 322.11 296.861V146.714C322.11 144.92 320.655 143.466 318.861 143.466Z" fill="#253369"/>
<path d="M276.862 191.577H114.994V199.179H276.862V191.577Z" fill="white"/>
<path d="M195.922 218.023H114.988V225.626H195.922V218.023Z" fill="#24E6DB"/>
<path d="M195.922 270.916H114.988V278.518H195.922V270.916Z" fill="#E4EBF7"/>
<path d="M163.545 165.03H114.984V172.632H163.545V165.03Z" fill="#E4EBF7"/>
<path d="M236.584 217.922H212.264V225.525H236.584V217.922Z" fill="#E4EBF7"/>
<path d="M236.391 244.469H114.99V252.072H236.391V244.469Z" fill="white"/>
<path d="M64.4343 95.4558H340.493C344.811 95.4558 348.311 98.8829 348.311 103.111V125.921H56.6172V103.111C56.6172 98.8829 60.117 95.4558 64.4343 95.4558Z" fill="#253369"/>
<path d="M73.3256 116.152C76.407 116.152 78.9051 113.706 78.9051 110.689C78.9051 107.671 76.407 105.225 73.3256 105.225C70.2441 105.225 67.7461 107.671 67.7461 110.689C67.7461 113.706 70.2441 116.152 73.3256 116.152Z" fill="#FF7946"/>
<path d="M94.1654 116.152C97.2469 116.152 99.7449 113.706 99.7449 110.689C99.7449 107.671 97.2469 105.225 94.1654 105.225C91.084 105.225 88.5859 107.671 88.5859 110.689C88.5859 113.706 91.084 116.152 94.1654 116.152Z" fill="#FFC53D"/>
<path d="M115.007 116.152C118.089 116.152 120.587 113.706 120.587 110.689C120.587 107.671 118.089 105.225 115.007 105.225C111.926 105.225 109.428 107.671 109.428 110.689C109.428 113.706 111.926 116.152 115.007 116.152Z" fill="#BAE637"/>
<mask id="mask0" mask-type="alpha" maskUnits="userSpaceOnUse" x="0" y="201" width="129" height="160">
<path d="M0 201.735H128.656V360.493H0V201.735Z" fill="white"/>
</mask>
<g mask="url(#mask0)">
<path fill-rule="evenodd" clip-rule="evenodd" d="M99.7396 201.735H28.9162C26.6124 201.735 24.6888 203.446 24.3662 205.726C22.2609 220.61 8.69031 228.261 2.763 230.841C1.0883 231.57 0 233.217 0 235.043V295.606C0 335.239 64.3279 360.493 64.3279 360.493C64.3279 360.493 128.656 335.239 128.656 295.606V235.043C128.656 233.217 127.567 231.57 125.893 230.841C119.965 228.261 106.395 220.61 104.289 205.726C103.967 203.446 102.043 201.927 99.7396 201.927V201.735Z" fill="#ADC6FF"/>
</g>
<path fill-rule="evenodd" clip-rule="evenodd" d="M93.7852 213.534C94.658 216.231 95.8266 218.833 97.2829 221.317C99.424 224.968 102.195 228.371 105.519 231.431C109.246 234.863 113.186 237.43 116.61 239.286V295.279C116.61 310.435 102.094 323.859 89.9172 332.452C80.018 339.437 69.9359 344.458 64.3195 347.026C58.7939 344.504 48.9369 339.599 39.0938 332.702C30.7655 326.867 24.2179 320.848 19.633 314.81C17.1369 311.524 15.232 308.228 13.9712 305.014C12.6751 301.71 12.0449 298.526 12.0449 295.279V239.286C15.4685 237.43 19.4087 234.863 23.1361 231.431C26.4599 228.371 29.2307 224.968 31.3718 221.317C32.8281 218.833 33.9967 216.231 34.8697 213.534H93.7852Z" fill="#597EF7"/>
<path fill-rule="evenodd" clip-rule="evenodd" d="M67.4118 245.047L46.2676 277.13C45.13 278.87 46.3533 281.009 48.4042 281.009H57.8754L46.2305 302.924C45.3617 304.695 47.6003 306.339 48.9731 304.938L80.6446 273.235C82.2607 271.586 81.1145 268.768 78.8276 268.768H64.505L70.4967 246.439C70.9646 244.539 68.4781 243.416 67.4118 245.047Z" fill="white"/>
<path fill-rule="evenodd" clip-rule="evenodd" d="M333.226 319.75C330.301 314.011 332.583 306.989 338.322 304.065C344.061 301.141 351.084 303.423 354.008 309.161C356.932 314.9 354.65 321.923 348.911 324.847C343.172 327.771 336.15 325.489 333.226 319.75ZM354.806 348.036L364.207 343.246L362.314 334.878C364.004 333.332 365.475 331.599 366.71 329.728L375.273 330.288L378.534 320.254L371.276 315.674C371.377 313.434 371.206 311.168 370.747 308.924L377.197 303.267L372.407 293.866L364.038 295.758C362.493 294.068 360.76 292.597 358.889 291.363L359.449 282.799L349.415 279.539L344.835 286.796C342.595 286.695 340.329 286.867 338.085 287.325L332.427 280.876L323.027 285.666L324.919 294.034C323.229 295.58 321.758 297.312 320.523 299.183L311.96 298.623L308.699 308.657L315.957 313.238C315.856 315.477 316.027 317.743 316.486 319.987L310.036 325.645L314.826 335.046L323.195 333.153C324.74 334.844 326.473 336.314 328.344 337.549L327.784 346.113L337.818 349.373L342.399 342.116C344.638 342.216 346.904 342.045 349.148 341.586L354.806 348.036Z" fill="#FF885A"/>
<g opacity="0.21031">
<path opacity="0.21031" fill-rule="evenodd" clip-rule="evenodd" d="M378.617 237.627V225.285C378.617 223.729 379.88 222.456 381.423 222.456H393.811C395.354 222.456 396.617 223.729 396.617 225.285V237.627C396.617 239.183 395.354 240.456 393.811 240.456H381.423C379.88 240.456 378.617 239.183 378.617 237.627Z" fill="#597EF7"/>
</g>
<g opacity="0.21031">
<path opacity="0.21031" fill-rule="evenodd" clip-rule="evenodd" d="M205.39 367.627L214.117 358.9C215.218 357.8 217.011 357.793 218.102 358.884L226.862 367.644C227.953 368.735 227.946 370.528 226.845 371.628L218.118 380.355C217.018 381.455 215.225 381.463 214.134 380.372L205.374 371.612C204.283 370.521 204.29 368.727 205.39 367.627Z" fill="#597EF7"/>
</g>
<g opacity="0.21031">
<path opacity="0.21031" fill-rule="evenodd" clip-rule="evenodd" d="M156.161 21.455L173.616 4.00069C175.816 1.80027 179.402 1.78575 181.584 3.96794L199.104 21.4877C201.287 23.6701 201.272 27.2561 199.072 29.4565L181.617 46.9108C179.417 49.1113 175.831 49.126 173.648 46.9436L156.128 29.4238C153.946 27.2416 153.961 23.6554 156.161 21.455Z" fill="#597EF7"/>
</g>
</svg>
