<svg width="400" height="327" viewBox="0 0 400 327" fill="none" xmlns="http://www.w3.org/2000/svg">
<path d="M366.734 263H339.266C338.567 263 338 263.567 338 264.266L338 291.734C338 292.433 338.567 293 339.266 293H366.734C367.433 293 368 292.433 368 291.734V264.266C368 263.567 367.433 263 366.734 263Z" fill="#597EF7"/>
<path d="M68.5469 40H20.4532C19.7542 40 19.1876 40.5666 19.1876 41.2656L19.1875 88.7344C19.1875 89.4334 19.7541 90 20.4531 90H68.5469C69.2459 90 69.8125 89.4334 69.8125 88.7344V41.2656C69.8125 40.5666 69.2459 40 68.5469 40Z" fill="#597EF7"/>
<path fill-rule="evenodd" clip-rule="evenodd" d="M178 291H221V257H178V291Z" fill="#597EF7"/>
<path fill-rule="evenodd" clip-rule="evenodd" d="M247.993 303H153.007C149.137 303 146 299.866 146 296C146 292.134 149.137 289 153.007 289H247.993C251.863 289 255 292.134 255 296C255 299.866 251.863 303 247.993 303Z" fill="#597EF7"/>
<path fill-rule="evenodd" clip-rule="evenodd" d="M345.897 260H51.1033C43.8664 260 38 254.187 38 247.016V68.9839C38 61.813 43.8664 56 51.1033 56H345.897C353.134 56 359 61.813 359 68.9839V247.016C359 254.187 353.134 260 345.897 260Z" fill="#253368"/>
<path fill-rule="evenodd" clip-rule="evenodd" d="M47.25 318H45.75C43.6879 318 42 316.29 42 314.2V283.8C42 281.71 43.6879 280 45.75 280H47.25C49.3121 280 51 281.71 51 283.8V314.2C51 316.29 49.3121 318 47.25 318Z" fill="#253368"/>
<path fill-rule="evenodd" clip-rule="evenodd" d="M93 318.5C93 320.986 90.9407 323 88.3998 323H5.60022C3.05932 323 1 320.986 1 318.5C1 316.015 3.05932 314 5.60022 314H88.3998C90.9407 314 93 316.015 93 318.5Z" fill="#253368"/>
<path fill-rule="evenodd" clip-rule="evenodd" d="M34.2424 326C33.0089 326 32 325.001 32 323.78V313.219C32 311.998 33.0089 311 34.2424 311H59.7567C60.9903 311 62 311.998 62 313.219V323.78C62 325.001 60.9903 326 59.7567 326H34.2424Z" fill="#ADC6FF"/>
<path d="M35 313V324" stroke="#597EF7" stroke-width="6" stroke-linecap="round" stroke-linejoin="round"/>
<path d="M58 313V324" stroke="#597EF7" stroke-width="6" stroke-linecap="round" stroke-linejoin="round"/>
<path fill-rule="evenodd" clip-rule="evenodd" d="M4 298H90V199H4V298Z" fill="#253368"/>
<path fill-rule="evenodd" clip-rule="evenodd" d="M3.88907 298C1.74991 298 0 296.293 0 294.208V271.792C0 269.707 1.74991 268 3.88907 268H90.1109C92.2492 268 94 269.707 94 271.792V294.208C94 296.293 92.2492 298 90.1109 298H3.88907Z" fill="#ADC6FF"/>
<path fill-rule="evenodd" clip-rule="evenodd" d="M3.88907 228C1.74991 228 0 226.237 0 224.081V200.919C0 198.764 1.74991 197 3.88907 197H90.1109C92.2492 197 94 198.764 94 200.919V224.081C94 226.237 92.2492 228 90.1109 228H3.88907Z" fill="#ADC6FF"/>
<path fill-rule="evenodd" clip-rule="evenodd" d="M10.9996 215C9.34298 215 8 213.88 8 212.5C8 211.119 9.34298 210 10.9996 210C12.657 210 14 211.119 14 212.5C14 213.88 12.657 215 10.9996 215Z" fill="white"/>
<path fill-rule="evenodd" clip-rule="evenodd" d="M17 212.5C17 211.119 18.3428 210 20 210C21.6563 210 23 211.119 23 212.5C23 213.88 21.6563 215 20 215C18.3428 215 17 213.88 17 212.5Z" fill="white"/>
<path fill-rule="evenodd" clip-rule="evenodd" d="M29.0004 215C27.343 215 26 213.88 26 212.5C26 211.119 27.343 210 29.0004 210C30.657 210 32 211.119 32 212.5C32 213.88 30.657 215 29.0004 215Z" fill="white"/>
<path fill-rule="evenodd" clip-rule="evenodd" d="M59.7998 215C59.3579 215 59 214.691 59 214.31V210.69C59 210.309 59.3579 210 59.7998 210H87.2002C87.6421 210 88 210.309 88 210.69V214.31C88 214.691 87.6421 215 87.2002 215H59.7998Z" fill="#597EF7"/>
<path fill-rule="evenodd" clip-rule="evenodd" d="M3.88907 263C1.74991 263 0 261.294 0 259.207V236.793C0 234.707 1.74991 233 3.88907 233H90.1109C92.2492 233 94 234.707 94 236.793V259.207C94 261.294 92.2492 263 90.1109 263H3.88907Z" fill="#ADC6FF"/>
<path fill-rule="evenodd" clip-rule="evenodd" d="M10.9996 252C9.34298 252 8 250.657 8 249C8 247.343 9.34298 246 10.9996 246C12.657 246 14 247.343 14 249C14 250.657 12.657 252 10.9996 252Z" fill="#FF7946"/>
<path fill-rule="evenodd" clip-rule="evenodd" d="M20 252C18.3428 252 17 250.657 17 249C17 247.343 18.3428 246 20 246C21.6563 246 23 247.343 23 249C23 250.657 21.6563 252 20 252Z" fill="#253368"/>
<path fill-rule="evenodd" clip-rule="evenodd" d="M29.0004 252C27.343 252 26 250.657 26 249C26 247.343 27.343 246 29.0004 246C30.657 246 32 247.343 32 249C32 250.657 30.657 252 29.0004 252Z" fill="#253368"/>
<path fill-rule="evenodd" clip-rule="evenodd" d="M87.0332 252H59.9668C59.4324 252 59 251.553 59 251V246.999C59 246.447 59.4324 246 59.9668 246H87.0332C87.5676 246 88 246.447 88 246.999V251C88 251.553 87.5676 252 87.0332 252Z" fill="#FF7946"/>
<path fill-rule="evenodd" clip-rule="evenodd" d="M8 283.5C8 282.119 9.34298 281 10.9996 281C12.657 281 14 282.119 14 283.5C14 284.88 12.657 286 10.9996 286C9.34298 286 8 284.88 8 283.5Z" fill="white"/>
<path fill-rule="evenodd" clip-rule="evenodd" d="M20 286C18.3428 286 17 284.88 17 283.5C17 282.119 18.3428 281 20 281C21.6563 281 23 282.119 23 283.5C23 284.88 21.6563 286 20 286Z" fill="white"/>
<path fill-rule="evenodd" clip-rule="evenodd" d="M29.0004 286C27.343 286 26 284.88 26 283.5C26 282.119 27.343 281 29.0004 281C30.657 281 32 282.119 32 283.5C32 284.88 30.657 286 29.0004 286Z" fill="white"/>
<path fill-rule="evenodd" clip-rule="evenodd" d="M87.0332 286H59.9668C59.4324 286 59 285.626 59 285.167V281.833C59 281.373 59.4324 281 59.9668 281H87.0332C87.5676 281 88 281.373 88 281.833V285.167C88 285.626 87.5676 286 87.0332 286Z" fill="#597EF7"/>
<path fill-rule="evenodd" clip-rule="evenodd" d="M290.782 106.581H109.338V94.2522C109.338 91.5777 111.548 89.4092 114.273 89.4092H285.847C288.572 89.4092 290.782 91.5777 290.782 94.2522V106.581Z" fill="#253368"/>
<path fill-rule="evenodd" clip-rule="evenodd" d="M122.062 97.4719C122.062 99.1503 120.684 100.511 118.984 100.511C117.284 100.511 115.906 99.1503 115.906 97.4719C115.906 95.7934 117.284 94.4325 118.984 94.4325C120.684 94.4325 122.062 95.7934 122.062 97.4719Z" fill="#FF7946"/>
<path fill-rule="evenodd" clip-rule="evenodd" d="M133.554 97.4719C133.554 99.1503 132.176 100.511 130.476 100.511C128.776 100.511 127.398 99.1503 127.398 97.4719C127.398 95.7934 128.776 94.4325 130.476 94.4325C132.176 94.4325 133.554 95.7934 133.554 97.4719Z" fill="#FAAD14"/>
<path fill-rule="evenodd" clip-rule="evenodd" d="M145.046 97.4719C145.046 99.1503 143.668 100.511 141.968 100.511C140.269 100.511 138.891 99.1503 138.891 97.4719C138.891 95.7934 140.269 94.4325 141.968 94.4325C143.668 94.4325 145.046 95.7934 145.046 97.4719Z" fill="#7CB305"/>
<path fill-rule="evenodd" clip-rule="evenodd" d="M114.652 225.435C111.617 225.435 109.156 223.269 109.156 220.598V105.443H290.61V220.598C290.61 223.269 288.149 225.435 285.114 225.435H114.652Z" fill="#E4EBF7"/>
<path d="M276.432 114.273H122.753C121.543 114.273 120.562 115.239 120.562 116.431V213.263C120.562 214.455 121.543 215.421 122.753 215.421H276.432C277.642 215.421 278.622 214.455 278.622 213.263V116.431C278.622 115.239 277.642 114.273 276.432 114.273Z" fill="white"/>
<path d="M196.334 128.723H139.302C137.052 128.723 135.229 130.52 135.229 132.737C135.229 134.954 137.052 136.751 139.302 136.751H196.334C198.584 136.751 200.408 134.954 200.408 132.737C200.408 130.52 198.584 128.723 196.334 128.723Z" fill="#FF7946"/>
<path d="M245.219 176.889H139.302C137.052 176.889 135.229 178.686 135.229 180.902C135.229 183.119 137.052 184.916 139.302 184.916H245.219C247.469 184.916 249.292 183.119 249.292 180.902C249.292 178.686 247.469 176.889 245.219 176.889Z" fill="#ADC6FF"/>
<path d="M228.924 192.944H139.302C137.052 192.944 135.229 194.741 135.229 196.958C135.229 199.174 137.052 200.971 139.302 200.971H228.924C231.174 200.971 232.998 199.174 232.998 196.958C232.998 194.741 231.174 192.944 228.924 192.944Z" fill="#24E6DB"/>
<path d="M212.629 160.833H139.302C137.052 160.833 135.229 162.631 135.229 164.847C135.229 167.064 137.052 168.861 139.302 168.861H212.629C214.879 168.861 216.703 167.064 216.703 164.847C216.703 162.631 214.879 160.833 212.629 160.833Z" fill="#FAAD14"/>
<path d="M261.514 144.778H139.302C137.052 144.778 135.229 146.575 135.229 148.792C135.229 151.009 137.052 152.806 139.302 152.806H261.514C263.763 152.806 265.587 151.009 265.587 148.792C265.587 146.575 263.763 144.778 261.514 144.778Z" fill="#597EF7"/>
<path fill-rule="evenodd" clip-rule="evenodd" d="M332.5 0.265625C295.454 0.265625 265.422 29.9197 265.422 66.5C265.422 103.08 295.454 132.734 332.5 132.734C369.546 132.734 399.578 103.08 399.578 66.5C399.578 29.9197 369.546 0.265625 332.5 0.265625Z" fill="#24E6DB"/>
<path fill-rule="evenodd" clip-rule="evenodd" d="M321.692 88.9994L317.457 84.8177L358.495 44.1485C359.898 42.7627 362.173 42.7627 363.577 44.1485L365.271 45.821C366.674 47.2068 366.674 49.4534 365.271 50.8392L326.774 88.9994C325.371 90.3851 323.095 90.3851 321.692 88.9994Z" fill="white"/>
<path fill-rule="evenodd" clip-rule="evenodd" d="M331 84.8177L326.765 88.9994C325.362 90.3851 323.087 90.3851 321.683 88.9994L304.82 72.3482C303.417 70.9626 303.417 68.716 304.82 67.3302L306.514 65.6577C307.917 64.2719 310.193 64.2719 311.596 65.6577L331 84.8177Z" fill="white"/>
</svg>
