<svg width="337" height="220" viewBox="0 0 337 220" fill="none" xmlns="http://www.w3.org/2000/svg">
<path fill-rule="evenodd" clip-rule="evenodd" d="M39.4829 52.7995C33.9675 52.7995 29.4964 48.3284 29.4964 42.813C29.4964 37.2976 33.9675 32.8265 39.4829 32.8265C44.9983 32.8265 49.4694 37.2976 49.4694 42.813C49.4694 48.3284 44.9983 52.7995 39.4829 52.7995ZM69.4541 47.3304V38.2955L62.3333 36.4862C61.8111 34.5956 61.0608 32.8 60.1134 31.1306L63.87 24.8145L57.4814 18.4258L51.1653 22.1825C49.4958 21.235 47.7002 20.4848 45.8097 19.9625L44.0003 12.8418H34.9654L33.1561 19.9625C31.2655 20.4848 29.4699 21.235 27.8005 22.1825L21.4844 18.4258L15.0957 24.8145L18.8523 31.1306C17.9051 32.8 17.1547 34.5957 16.6324 36.4862L9.51172 38.2955V47.3304L16.6324 49.1398C17.1547 51.0302 17.9051 52.8259 18.8523 54.4954L15.0957 60.8115L21.4844 67.2002L27.8005 63.4435C29.4699 64.3908 31.2655 65.1412 33.1561 65.6635L34.9654 72.7842H44.0003L45.8097 65.6635C47.7002 65.1412 49.4958 64.3908 51.1653 63.4435L57.4814 67.2002L63.87 60.8115L60.1134 54.4954C61.0608 52.8259 61.8111 51.0302 62.3333 49.1398L69.4541 47.3304Z" fill="#8BBC06"/>
<path fill-rule="evenodd" clip-rule="evenodd" d="M84.364 90.0336C79.24 90.0336 75.0861 85.8797 75.0861 80.7557C75.0861 75.6316 79.24 71.4777 84.364 71.4777C89.4881 71.4777 93.642 75.6316 93.642 80.7557C93.642 85.8797 89.4881 90.0336 84.364 90.0336ZM112.209 84.9526V76.5588L105.593 74.8778C105.108 73.1214 104.411 71.4532 103.531 69.9023L107.021 64.0343L101.085 58.0989L95.2175 61.589C93.6665 60.7088 91.9983 60.0117 90.2419 59.5265L88.5609 52.9111H80.167L78.4862 59.5265C76.7298 60.0117 75.0616 60.7088 73.5105 61.589L67.6427 58.0989L61.7073 64.0343L65.1973 69.9023C64.3171 71.4532 63.6201 73.1214 63.1349 74.8778L56.5195 76.5588V84.9526L63.1349 86.6336C63.6201 88.39 64.3171 90.0581 65.1973 91.6091L61.7073 97.4771L67.6427 103.412L73.5105 99.9224C75.0616 100.802 76.7298 101.5 78.4862 101.985L80.167 108.6H88.5609L90.2419 101.985C91.9983 101.5 93.6665 100.802 95.2175 99.9224L101.085 103.412L107.021 97.4771L103.531 91.6091C104.411 90.0581 105.108 88.39 105.593 86.6336L112.209 84.9526Z" fill="#253368"/>
<path d="M260.066 6.66211V92.0369" stroke="white" stroke-width="6" stroke-linecap="round" stroke-linejoin="round"/>
<path d="M275.903 15.9844H78.9658C74.5492 15.9844 70.9688 19.5648 70.9688 23.9814V114.695C70.9688 119.111 74.5492 122.692 78.9658 122.692H275.903C280.32 122.692 283.9 119.111 283.9 114.695V23.9814C283.9 19.5648 280.32 15.9844 275.903 15.9844Z" fill="#597EF7"/>
<path d="M249.235 42.6416H158.935C157.463 42.6416 156.27 43.8351 156.27 45.3073V50.6387C156.27 52.1109 157.463 53.3043 158.935 53.3043H249.235C250.707 53.3043 251.901 52.1109 251.901 50.6387V45.3073C251.901 43.8351 250.707 42.6416 249.235 42.6416Z" fill="#2F54EB"/>
<path d="M207.251 85.292H158.935C157.463 85.292 156.27 86.4855 156.27 87.9577V93.2891C156.27 94.7613 157.463 95.9547 158.935 95.9547H207.251C208.723 95.9547 209.916 94.7613 209.916 93.2891V87.9577C209.916 86.4855 208.723 85.292 207.251 85.292Z" fill="#597EF7"/>
<path d="M249.235 63.9668H158.935C157.463 63.9668 156.27 65.1603 156.27 66.6325V71.9639C156.27 73.4361 157.463 74.6295 158.935 74.6295H249.235C250.707 74.6295 251.901 73.4361 251.901 71.9639V66.6325C251.901 65.1603 250.707 63.9668 249.235 63.9668Z" fill="#2F54EB"/>
<path d="M121.616 42.6416H89.6282C86.6838 42.6416 84.2969 45.0285 84.2969 47.973V79.9612C84.2969 82.9056 86.6838 85.2925 89.6282 85.2925H121.616C124.561 85.2925 126.948 82.9056 126.948 79.9612V47.973C126.948 45.0285 124.561 42.6416 121.616 42.6416Z" fill="#2F54EB"/>
<path d="M140.443 42.6416V112.063" stroke="white" stroke-width="6" stroke-linecap="round" stroke-linejoin="round"/>
<path d="M241.249 81.041H44.3115C39.8949 81.041 36.3145 84.6214 36.3145 89.0381V179.751C36.3145 184.168 39.8949 187.748 44.3115 187.748H241.249C245.666 187.748 249.246 184.168 249.246 179.751V89.0381C249.246 84.6214 245.666 81.041 241.249 81.041Z" fill="#E4EBF7"/>
<path d="M214.581 107.697H124.281C122.809 107.697 121.615 108.891 121.615 110.363V115.694C121.615 117.167 122.809 118.36 124.281 118.36H214.581C216.053 118.36 217.247 117.167 217.247 115.694V110.363C217.247 108.891 216.053 107.697 214.581 107.697Z" fill="#597EF7"/>
<path d="M172.596 150.349H124.281C122.809 150.349 121.615 151.542 121.615 153.014V158.346C121.615 159.818 122.809 161.011 124.281 161.011H172.596C174.069 161.011 175.262 159.818 175.262 158.346V153.014C175.262 151.542 174.069 150.349 172.596 150.349Z" fill="#597EF7"/>
<path d="M214.581 129.022H124.281C122.809 129.022 121.615 130.216 121.615 131.688V137.02C121.615 138.492 122.809 139.685 124.281 139.685H214.581C216.053 139.685 217.247 138.492 217.247 137.02V131.688C217.247 130.216 216.053 129.022 214.581 129.022Z" fill="#597EF7"/>
<path d="M86.9622 107.697H54.9739C52.0295 107.697 49.6426 110.084 49.6426 113.029V145.017C49.6426 147.961 52.0295 150.348 54.9739 150.348H86.9622C89.9066 150.348 92.2935 147.961 92.2935 145.017V113.029C92.2935 110.084 89.9066 107.697 86.9622 107.697Z" fill="#597EF7"/>
<path d="M105.789 107.697V177.118" stroke="white" stroke-width="6" stroke-linecap="round" stroke-linejoin="round"/>
<path fill-rule="evenodd" clip-rule="evenodd" d="M264.329 204.902L302.023 139.409L318.134 139.409L281.023 204.902L264.329 204.902Z" fill="#FF7946"/>
<path d="M266.527 161.728C272.964 161.728 278.182 156.511 278.182 150.074C278.182 143.638 272.964 138.42 266.527 138.42C260.091 138.42 254.873 143.638 254.873 150.074C254.873 156.511 260.091 161.728 266.527 161.728Z" fill="#FF7946"/>
<path d="M311.84 204.989C318.276 204.989 323.494 199.771 323.494 193.335C323.494 186.898 318.276 181.681 311.84 181.681C305.403 181.681 300.186 186.898 300.186 193.335C300.186 199.771 305.403 204.989 311.84 204.989Z" fill="#FF7946"/>
<path fill-rule="evenodd" clip-rule="evenodd" d="M324.042 64.8081L299.54 77.0592C298.9 77.3795 298.12 77.1198 297.8 76.479C297.71 76.2989 297.663 76.1003 297.663 75.8989L297.663 51.3968C297.663 50.6804 298.244 50.0996 298.96 50.0996C299.162 50.0996 299.36 50.1465 299.54 50.2366L324.042 62.4876C324.683 62.808 324.943 63.5872 324.623 64.228C324.497 64.479 324.293 64.6826 324.042 64.8081Z" fill="#FFC53D"/>
</svg>
