<svg width="515" height="452" viewBox="0 0 515 452" fill="none" xmlns="http://www.w3.org/2000/svg">
<path d="M450.94 415H186.06C176.086 415 168 423.283 168 433.5C168 443.717 176.086 452 186.06 452H450.94C460.914 452 469 443.717 469 433.5C469 423.283 460.914 415 450.94 415Z" fill="#E4EBF7"/>
<g opacity="0.5">
<path d="M114.936 263.514V304.048" stroke="white" stroke-width="6" stroke-linecap="round" stroke-linejoin="round"/>
<path d="M122.454 267.939H28.9512C26.8542 267.939 25.1543 269.639 25.1543 271.736V314.806C25.1543 316.903 26.8542 318.602 28.9512 318.602H122.454C124.551 318.602 126.251 316.903 126.251 314.806V271.736C126.251 269.639 124.551 267.939 122.454 267.939Z" fill="#597EF7"/>
<path d="M109.793 280.596H66.9199C66.2209 280.596 65.6543 281.162 65.6543 281.861V284.393C65.6543 285.092 66.2209 285.658 66.9199 285.658H109.793C110.492 285.658 111.059 285.092 111.059 284.393V281.861C111.059 281.162 110.492 280.596 109.793 280.596Z" fill="#2F54EB"/>
<path d="M89.8594 300.846H66.9199C66.2209 300.846 65.6543 301.412 65.6543 302.111V304.643C65.6543 305.342 66.2209 305.908 66.9199 305.908H89.8594C90.5584 305.908 91.125 305.342 91.125 304.643V302.111C91.125 301.412 90.5584 300.846 89.8594 300.846Z" fill="#597EF7"/>
<path d="M109.793 290.721H66.9199C66.2209 290.721 65.6543 291.287 65.6543 291.986V294.518C65.6543 295.217 66.2209 295.783 66.9199 295.783H109.793C110.492 295.783 111.059 295.217 111.059 294.518V291.986C111.059 291.287 110.492 290.721 109.793 290.721Z" fill="#2F54EB"/>
<path d="M49.2012 280.596H34.0137C32.6157 280.596 31.4824 281.729 31.4824 283.127V298.314C31.4824 299.712 32.6157 300.846 34.0137 300.846H49.2012C50.5991 300.846 51.7324 299.712 51.7324 298.314V283.127C51.7324 281.729 50.5991 280.596 49.2012 280.596Z" fill="#2F54EB"/>
<path d="M58.1406 280.596V313.556" stroke="white" stroke-width="6" stroke-linecap="round" stroke-linejoin="round"/>
<path d="M106.001 298.827H12.498C10.4011 298.827 8.70117 300.527 8.70117 302.624V345.693C8.70117 347.79 10.4011 349.49 12.498 349.49H106.001C108.098 349.49 109.798 347.79 109.798 345.693V302.624C109.798 300.527 108.098 298.827 106.001 298.827Z" fill="#E4EBF7"/>
<path d="M93.3398 311.483H50.4668C49.7678 311.483 49.2012 312.05 49.2012 312.749V315.28C49.2012 315.979 49.7678 316.546 50.4668 316.546H93.3398C94.0388 316.546 94.6055 315.979 94.6055 315.28V312.749C94.6055 312.05 94.0388 311.483 93.3398 311.483Z" fill="#597EF7"/>
<path d="M73.4063 331.733H50.4668C49.7678 331.733 49.2012 332.3 49.2012 332.999V335.53C49.2012 336.229 49.7678 336.796 50.4668 336.796H73.4063C74.1053 336.796 74.6719 336.229 74.6719 335.53V332.999C74.6719 332.3 74.1053 331.733 73.4063 331.733Z" fill="#597EF7"/>
<path d="M93.3398 321.608H50.4668C49.7678 321.608 49.2012 322.175 49.2012 322.874V325.405C49.2012 326.104 49.7678 326.671 50.4668 326.671H93.3398C94.0388 326.671 94.6055 326.104 94.6055 325.405V322.874C94.6055 322.175 94.0388 321.608 93.3398 321.608Z" fill="#597EF7"/>
<path d="M32.748 311.483H17.5605C16.1626 311.483 15.0293 312.617 15.0293 314.015V329.202C15.0293 330.6 16.1626 331.733 17.5605 331.733H32.748C34.146 331.733 35.2793 330.6 35.2793 329.202V314.015C35.2793 312.617 34.146 311.483 32.748 311.483Z" fill="#597EF7"/>
<path d="M41.6855 311.483V344.443" stroke="white" stroke-width="6" stroke-linecap="round" stroke-linejoin="round"/>
</g>
<path fill-rule="evenodd" clip-rule="evenodd" d="M423.694 351.728H394.223V248.976C394.223 240.797 400.786 234.167 408.881 234.167H409.035C417.131 234.167 423.694 240.797 423.694 248.976V351.728Z" fill="#7CB305"/>
<path fill-rule="evenodd" clip-rule="evenodd" d="M438.348 376.88H408.791V323.225C408.791 315.263 415.209 308.808 423.126 308.808H424.013C431.93 308.808 438.348 315.263 438.348 323.225V376.88Z" fill="#5B8C00"/>
<path fill-rule="evenodd" clip-rule="evenodd" d="M398.545 351.675H368.791V293.338C368.791 285.331 375.226 278.839 383.164 278.839H384.173C392.11 278.839 398.545 285.331 398.545 293.338V351.675Z" fill="#7CB305"/>
<path fill-rule="evenodd" clip-rule="evenodd" d="M440.106 436.898H362.704C359.644 436.898 357.164 434.4 357.164 431.319V353.836C357.164 350.754 359.644 348.257 362.704 348.257H440.106C443.166 348.257 445.646 350.754 445.646 353.836V431.319C445.646 434.4 443.166 436.898 440.106 436.898Z" fill="#253368"/>
<path fill-rule="evenodd" clip-rule="evenodd" d="M280.32 62.985L281.394 35.7695L306.003 36.5279L307.961 62.4937C308.553 70.3375 302.441 77.0824 294.543 77.3024C286.532 77.5266 280.005 70.9555 280.32 62.985Z" fill="#FFC999"/>
<path fill-rule="evenodd" clip-rule="evenodd" d="M275.477 33.1619C275.477 33.1619 271.739 29.4827 270.296 32.0857C268.853 34.6877 271.804 43.7332 275.733 43.8451C280.981 43.993 275.477 33.1619 275.477 33.1619Z" fill="#FFC999"/>
<path fill-rule="evenodd" clip-rule="evenodd" d="M298.393 55.6932C298.393 55.6932 290.86 62.3483 280.423 56.3199C272.909 51.9801 271.489 35.4535 272.535 23.2575C273.127 16.357 276.145 12.5594 282.705 10.3162C289.266 8.0731 307.219 7.44119 307.954 27.6706C308.772 50.2018 298.393 55.6932 298.393 55.6932Z" fill="#FFC999"/>
<path d="M285.535 26.5521C285.643 26.5035 285.755 26.5853 285.803 26.7381L285.817 26.7986L286.57 30.9319C286.577 30.9662 286.58 31.0016 286.579 31.037L286.576 31.09L285.423 41.9632L288.152 41.8677C288.265 41.8637 288.361 41.9907 288.381 42.1608L288.385 42.219C288.388 42.3976 288.307 42.5487 288.199 42.5803L288.162 42.5863L285.158 42.6918C285.027 42.6963 284.924 42.5305 284.924 42.3333L284.927 42.2733L286.116 31.0522L285.378 26.9965C285.347 26.8269 285.399 26.6508 285.496 26.5754L285.535 26.5521Z" fill="#DD936F"/>
<path d="M289.444 24.2305L289.548 24.2332L293.554 24.5158L294.487 24.5748C297.18 24.7354 298.912 24.7483 299.756 24.5827C300.336 24.4688 300.915 24.7769 301.049 25.2708C301.183 25.7648 300.821 26.2575 300.241 26.3715C299.078 26.5996 297.158 26.5818 294.067 26.3897L292.445 26.2813L289.53 26.0734C289.479 26.0699 289.429 26.0666 289.379 26.0633C288.785 26.0238 288.342 25.5821 288.388 25.0767C288.432 24.601 288.894 24.2385 289.444 24.2305Z" fill="#253368"/>
<path d="M292.276 45.0141C292.576 44.9598 292.89 45.0671 292.977 45.2539C293.064 45.4407 292.892 45.6361 292.592 45.6905L292.32 45.735C292.258 45.7444 292.189 45.7547 292.112 45.7657C291.732 45.8199 291.289 45.8739 290.786 45.9242C288.579 46.1449 286.001 46.225 283.136 46.0824C282.824 46.067 282.592 45.8972 282.617 45.7033C282.642 45.5094 282.914 45.3647 283.225 45.3802C285.997 45.5181 288.485 45.4408 290.607 45.2286C290.989 45.1904 291.333 45.1501 291.638 45.1095L292.046 45.0516C292.155 45.035 292.232 45.0222 292.276 45.0141Z" fill="#FF7946"/>
<path fill-rule="evenodd" clip-rule="evenodd" d="M306.909 35.7692L310.658 27.9066C310.658 27.9066 312.829 16.671 310.031 11.9553C305.689 4.63714 296.317 5.13143 290.684 3.32005C285.053 1.50766 285.045 -0.32623 282.797 0.0493487C280.549 0.424927 272.001 6.66444 271.225 12.9306C270.543 18.4404 272.428 32.3645 272.428 32.3645C272.428 32.3645 273.598 19.9448 274.709 16.6403C279.061 14.699 295.088 14.1064 301.846 15.9137C301.846 15.9137 302.563 20.1055 302.997 23.061C306.661 25.4557 306.909 35.7692 306.909 35.7692Z" fill="#253368"/>
<path d="M306.146 46.3515C306.249 46.1641 306.478 46.0988 306.658 46.2057C306.838 46.3126 306.9 46.5512 306.798 46.7386C305.055 49.9216 303.193 52.4974 301.224 54.5052C295.262 60.5862 288.885 61.1562 283.03 58.4704C282.327 58.1479 281.697 57.8021 281.148 57.4557C281.004 57.3644 280.872 57.2777 280.755 57.1969L280.489 57.0072C280.478 56.9983 280.467 56.9905 280.459 56.984C280.293 56.8549 280.259 56.61 280.383 56.4372C280.507 56.2644 280.742 56.229 280.908 56.3582L281.008 56.4327C281.127 56.5192 281.305 56.6406 281.537 56.7876C282.059 57.117 282.66 57.4471 283.332 57.7553C288.928 60.3223 294.979 59.7814 300.699 53.9469C302.616 51.992 304.437 49.4739 306.146 46.3515Z" fill="#DD936F"/>
<path d="M285.435 28.8457L287.884 28.9191C288.163 28.9274 288.388 29.6927 288.385 30.6283C288.383 31.5016 288.184 32.2146 287.93 32.2989L287.874 32.3072L285.426 32.2339C285.146 32.2255 284.921 31.4602 284.924 30.5246C284.926 29.6514 285.126 28.9384 285.38 28.854L285.435 28.8457Z" fill="#253368"/>
<path d="M287.171 32.3228C287.93 32.2553 288.706 32.4173 289.465 32.723C289.844 32.8755 290.138 33.0298 290.318 33.1413C290.691 33.3715 290.805 33.8577 290.573 34.2273C290.34 34.5968 289.85 34.7098 289.477 34.4796L289.359 34.4117C289.239 34.3475 289.071 34.2661 288.866 34.1838C288.322 33.9644 287.781 33.8516 287.313 33.8932C286.952 33.9252 286.649 34.0464 286.391 34.2772L286.296 34.369C285.994 34.6851 285.491 34.6988 285.172 34.3994C284.853 34.1001 284.84 33.6011 285.142 33.2849C285.697 32.7028 286.394 32.3918 287.171 32.3228Z" fill="#253368"/>
<path d="M278.209 23.103C279.676 22.983 281.212 23.2883 282.726 23.8662C283.495 24.1596 284.09 24.4552 284.442 24.6611C284.885 24.9201 285.053 25.524 284.817 26.0101C284.581 26.4962 284.031 26.6803 283.588 26.4214L283.446 26.3427C283.382 26.3088 283.302 26.2677 283.208 26.2207C282.886 26.0608 282.523 25.9001 282.13 25.75C280.83 25.2542 279.527 24.9952 278.344 25.0919C277.434 25.1662 276.639 25.4499 275.971 25.9675C275.561 26.285 274.994 26.1775 274.705 25.7274C274.416 25.2774 274.514 24.6552 274.924 24.3377C275.878 23.5987 276.988 23.2028 278.209 23.103Z" fill="#253368"/>
<path d="M288.149 49.6152C288.278 49.614 288.383 49.8674 288.384 50.1812C288.384 50.4636 288.3 50.6987 288.189 50.7438L288.151 50.7516L286.311 50.7691C286.182 50.7703 286.077 50.5169 286.076 50.2031C286.076 49.9207 286.16 49.6856 286.271 49.6405L286.309 49.6327L288.149 49.6152Z" fill="#DD936F"/>
<path d="M307.295 28.8458C307.68 28.837 307.996 29.5766 307.999 30.4977C308.003 31.3574 307.734 32.0713 307.385 32.1698L307.309 32.1814L301.78 32.3072C301.395 32.3159 301.08 31.5763 301.076 30.6552C301.073 29.7955 301.342 29.0816 301.691 28.9831L301.767 28.9716L307.295 28.8458Z" fill="#253368"/>
<path fill-rule="evenodd" clip-rule="evenodd" d="M300.748 28.8457L289.763 28.896C288.996 28.8995 288.377 29.6176 288.385 30.503C288.401 32.1544 288.491 34.8023 288.87 37.0678C289.318 39.7402 291.407 41.3671 293.763 41.4829C296.706 41.6256 299.347 41.6174 300.675 39.849C302.701 37.1543 302.187 32.7357 302.135 30.3942C302.117 29.5346 301.493 28.8422 300.748 28.8457Z" fill="white"/>
<path d="M301.578 28.8457L290.079 28.8939C289.135 28.8979 288.375 29.7081 288.385 30.7038C288.41 32.9864 288.56 35.1965 288.898 37.042C289.372 39.6309 291.564 41.3678 294.257 41.489L294.818 41.5114C298.653 41.6458 300.489 41.2989 301.693 39.8314C302.605 38.721 303.102 37.2708 303.291 35.4936C303.402 34.4588 303.407 33.5203 303.345 32.0675L303.286 30.6765C303.285 30.6502 303.284 30.622 303.283 30.59C303.261 29.6222 302.496 28.8418 301.578 28.8457ZM290.081 29.4285L301.58 29.3803C302.223 29.3775 302.762 29.927 302.778 30.6033L302.803 31.2763L302.826 31.7743C302.901 33.3858 302.903 34.3615 302.789 35.4337C302.609 37.1124 302.147 38.4634 301.311 39.4812C300.194 40.8424 298.335 41.135 294.278 40.9549C291.807 40.8437 289.821 39.2704 289.394 36.9406C289.064 35.1329 288.915 32.951 288.891 30.698C288.884 29.9998 289.417 29.4313 290.081 29.4285Z" fill="#253368"/>
<path fill-rule="evenodd" clip-rule="evenodd" d="M284.911 28.8457L271.249 28.9019C270.75 30.9585 271.269 38.9043 273.62 40.5978C276.768 42.2786 283.109 41.519 284.089 39.79C285.575 37.1662 286.109 32.1707 286.075 30.0213C286.065 29.367 285.548 28.8434 284.911 28.8457Z" fill="white"/>
<path d="M284.697 28.8457L271.538 28.8996C271.421 28.9001 271.319 28.9819 271.291 29.0983C270.593 31.9655 271.653 39.146 273.676 40.5971C276.714 42.2156 283.053 41.627 284.127 39.7394C285.366 37.559 286.121 33.1547 286.074 30.2313C286.062 29.4599 285.45 28.843 284.697 28.8457ZM271.743 29.4229L284.699 29.37C285.172 29.3683 285.555 29.755 285.563 30.2398C285.608 33.0764 284.869 37.3934 283.685 39.4753C282.775 41.0756 276.736 41.6365 273.94 40.1496L273.84 40.0713C272.191 38.6668 271.223 32.3666 271.72 29.5464L271.743 29.4229Z" fill="#253368"/>
<path d="M302.641 28.8461C303.039 28.8311 303.372 29.2213 303.384 29.7175C303.396 30.1807 303.123 30.5726 302.763 30.635L302.684 30.6432L289.129 31.153C288.73 31.168 288.397 30.7778 288.385 30.2816C288.374 29.8184 288.646 29.4265 289.007 29.3641L289.085 29.3559L302.641 28.8461Z" fill="#253368"/>
<path d="M271.819 28.8457L285.348 29.0418C285.754 29.0477 286.08 29.5252 286.076 30.1083C286.072 30.6525 285.782 31.0964 285.413 31.1484L285.333 31.1534L271.804 30.9573C271.398 30.9514 271.072 30.4739 271.076 29.8908C271.08 29.3466 271.37 28.9027 271.739 28.8507L271.819 28.8457Z" fill="#253368"/>
<path fill-rule="evenodd" clip-rule="evenodd" d="M308.676 29.255C309.77 27.5612 311.533 27.0039 312.85 28.8037C314.97 31.7023 313.449 43.0472 308.002 43.8462C305.915 43.5761 306.969 31.8984 308.676 29.255Z" fill="#FFC999"/>
<path d="M310.906 31.1866C311.109 31.0997 311.343 31.1941 311.429 31.3975C311.516 31.601 311.422 31.8363 311.22 31.9233L311.116 31.9718C311.052 32.004 310.97 32.0478 310.874 32.1033C310.604 32.2592 310.334 32.4473 310.083 32.6664C309.193 33.4451 308.781 34.3856 309.069 35.5244C309.146 35.8283 309.265 35.9708 309.562 36.1412L309.749 36.2419C310.368 36.5667 310.646 36.8574 310.731 37.521C310.86 38.5274 310.405 39.3053 309.6 39.8534C309.19 40.1321 308.785 40.296 308.501 40.3716C308.288 40.4283 308.07 40.3009 308.013 40.087C307.957 39.8732 308.084 39.6539 308.297 39.5972L308.425 39.5559C308.463 39.5423 308.507 39.5258 308.555 39.5062C308.76 39.4235 308.964 39.3183 309.153 39.19C309.731 38.7968 310.026 38.2915 309.941 37.6235C309.9 37.3057 309.809 37.1879 309.477 37.0041L309.297 36.9082C308.74 36.6138 308.448 36.3203 308.296 35.7216C307.925 34.2508 308.463 33.0217 309.56 32.0621C309.853 31.8064 310.164 31.5891 310.476 31.4088C310.665 31.2996 310.815 31.2258 310.906 31.1866Z" fill="#DD936F"/>
<path fill-rule="evenodd" clip-rule="evenodd" d="M280.305 32.8328C280.354 33.7885 279.621 34.5861 278.666 34.6151C277.712 34.6432 276.898 33.8922 276.848 32.9365C276.799 31.9817 277.532 31.1832 278.487 31.1551C279.441 31.1261 280.255 31.8771 280.305 32.8328Z" fill="#253368"/>
<path fill-rule="evenodd" clip-rule="evenodd" d="M296.459 32.8328C296.509 33.7885 295.775 34.5861 294.82 34.6151C293.866 34.6432 293.052 33.8922 293.002 32.9365C292.954 31.9817 293.686 31.1832 294.641 31.1551C295.595 31.1261 296.41 31.8771 296.459 32.8328Z" fill="#253368"/>
<path fill-rule="evenodd" clip-rule="evenodd" d="M231.507 161.56C225.24 158.69 222.199 151.188 224.577 144.464L246.115 83.5478C249.283 74.5887 258.979 70.264 267.328 74.0868C275.578 77.8643 279.18 88.0807 275.258 96.5801L248.269 155.059C245.252 161.595 237.852 164.466 231.507 161.56Z" fill="#FFC999"/>
<path fill-rule="evenodd" clip-rule="evenodd" d="M258.494 135L230.691 122.277L246.271 82.9657C249.682 74.3614 259.16 70.3606 267.306 74.0882C275.452 77.8159 279.099 87.8222 275.398 96.2941L258.494 135Z" fill="#597EF7"/>
<path d="M231.433 122.526C231.526 122.288 231.777 122.161 232.015 122.22L232.08 122.241L260.345 133.541C260.601 133.644 260.726 133.937 260.625 134.196C260.533 134.434 260.282 134.561 260.043 134.502L259.979 134.481L231.714 123.181C231.458 123.078 231.332 122.785 231.433 122.526Z" fill="#253368"/>
<path fill-rule="evenodd" clip-rule="evenodd" d="M237.617 447.077C224.501 452.344 218.013 444.177 218.013 444.177C218.013 444.177 217.707 441.365 220.049 438.282C222.981 434.425 229.348 433.174 237.027 425.84C242.925 420.206 246.931 411.32 246.931 411.32C251.238 405.165 264.113 410.868 264.113 410.868C264.113 410.868 264.302 425.835 263.869 433.219C263.869 433.219 263.298 437.277 253.297 438.503C245.813 439.42 245.472 443.922 237.617 447.077Z" fill="#4E5C93"/>
<path fill-rule="evenodd" clip-rule="evenodd" d="M266.285 414.141L282.472 301.334C283.7 291.578 276.961 282.684 267.55 281.639C258.139 280.594 249.746 287.808 248.965 297.613L239.924 410.979C239.924 410.979 252.915 418.213 266.285 414.141Z" fill="#ADC6FF"/>
<path fill-rule="evenodd" clip-rule="evenodd" d="M264.024 316.053C254.994 315.028 248.406 306.493 249.223 296.879L256.976 205.541C257.882 194.865 266.841 187.049 276.867 188.187C286.893 189.325 294.097 198.976 292.863 209.614L282.3 300.634C281.188 310.215 273.053 317.078 264.024 316.053Z" fill="#ADC6FF"/>
<path fill-rule="evenodd" clip-rule="evenodd" d="M333.53 448.187C346.574 453.63 352.988 445.085 352.988 445.085C352.988 445.085 353.281 442.149 350.944 438.942C348.018 434.93 341.69 433.65 334.039 426.029C328.162 420.174 324.15 410.92 324.15 410.92C319.851 404.515 306.846 412.651 306.846 412.651C306.846 412.651 306.953 426.132 307.411 433.834C307.411 433.834 307.993 438.065 317.928 439.305C325.363 440.232 325.719 444.928 333.53 448.187Z" fill="#4E5C93"/>
<path fill-rule="evenodd" clip-rule="evenodd" d="M298.826 413.274L293.023 299.897C292.521 290.091 300.375 281.802 310.415 281.544C320.453 281.286 328.743 289.157 328.769 298.976L326.96 412.508C326.96 412.508 312.636 418.434 298.826 413.274Z" fill="#ADC6FF"/>
<path fill-rule="evenodd" clip-rule="evenodd" d="M311.431 316.148C320.502 315.895 327.704 307.978 327.614 298.361L326.755 207.002C326.655 196.323 318.32 187.803 308.249 188.084C298.178 188.365 290.278 197.339 290.708 208.008L294.387 299.288C294.775 308.897 302.361 316.401 311.431 316.148Z" fill="#ADC6FF"/>
<path fill-rule="evenodd" clip-rule="evenodd" d="M323.084 154.421C323.084 154.421 327.306 125.758 329.564 114.331C331.824 102.903 335.944 75.5271 331.195 73.6819C326.446 71.8367 314.016 68.0771 314.016 68.0771C314.016 68.0771 304.078 68.4602 294.143 70.9931C286.279 72.9984 287.181 67.9636 277.628 69.9347C273.583 70.7701 255.74 71.6085 255.212 75.5168C249.974 114.314 260.686 160.724 260.686 160.724C260.686 160.724 257.035 164.79 261.847 169.688C263.435 171.271 274.09 170.779 286.758 170.311C301.179 169.777 319.104 168.909 321.25 168.049C328.159 165.277 323.084 154.421 323.084 154.421Z" fill="#597EF7"/>
<path fill-rule="evenodd" clip-rule="evenodd" d="M282.015 62.3076L291.845 69.7308L281.581 80.7692L275.691 68.2761L282.015 62.3076Z" fill="#597EF7"/>
<path fill-rule="evenodd" clip-rule="evenodd" d="M291.846 71.0481L301.262 84.2308L313.769 66.9447L307.981 60L291.846 71.0481Z" fill="#597EF7"/>
<path d="M290.756 71.9016C290.851 71.6256 291.166 71.4744 291.459 71.5638C291.752 71.6532 291.913 71.9495 291.818 72.2255L291.767 72.3841C291.739 72.4774 291.703 72.6014 291.66 72.7576L291.626 72.8808C291.468 73.4638 291.291 74.2007 291.1 75.103L290.974 75.7147C290.468 78.2189 289.964 81.4136 289.491 85.3725L289.378 86.3449C288.308 95.6789 287.561 107.756 287.274 122.92L287.245 124.528C286.972 140.994 287.785 155.079 289.062 165.568C289.097 165.856 288.877 166.117 288.571 166.15C288.265 166.183 287.988 165.976 287.953 165.688L287.824 164.604C286.638 154.377 285.891 140.946 286.116 125.349L286.158 122.901C286.456 107.173 287.248 94.7521 288.382 85.255L288.502 84.2746C288.963 80.577 289.452 77.5751 289.942 75.2035L290.005 74.8978C290.179 74.0797 290.341 73.3922 290.49 72.827L290.614 72.3706C290.678 72.1444 290.726 71.9898 290.756 71.9016Z" fill="#253368"/>
<path d="M303.031 95.3572L302.573 95.5209C302.364 95.5972 302.226 95.8129 302.231 96.0529L302.26 97.3023C302.347 100.786 302.476 103.795 302.638 106.357L302.715 107.506C302.793 108.607 302.874 109.563 302.955 110.38L302.982 110.647C303.015 110.966 303.046 111.244 303.075 111.483L303.128 111.893C303.133 111.933 303.138 111.964 303.141 111.986C303.165 112.141 303.248 112.278 303.37 112.361L311.044 117.609C311.205 117.719 311.41 117.721 311.572 117.612L321.033 111.286C321.176 111.19 321.266 111.023 321.273 110.84L321.845 94.5747C321.855 94.3028 321.68 94.0645 321.435 94.0151L321.16 93.9646L320.949 93.9294C320.56 93.8665 320.112 93.8036 319.609 93.7451C314.355 93.1332 308.535 93.4442 303.031 95.3572ZM319.503 94.8343L319.789 94.8689L320.221 94.9258C320.359 94.945 320.491 94.9644 320.617 94.9838L320.825 95.0165L320.279 110.505L311.313 116.5L304.098 111.566L304.026 110.961L303.979 110.524C303.881 109.577 303.783 108.423 303.69 107.051L303.611 105.827L303.557 104.891C303.443 102.822 303.348 100.489 303.278 97.879L303.243 96.4333L303.336 96.4011C308.687 94.5412 314.375 94.2372 319.503 94.8343Z" fill="#253368"/>
<path fill-rule="evenodd" clip-rule="evenodd" d="M290.692 80.8147C290.71 82.0882 291.24 83.1012 291.877 83.0769C292.514 83.0511 293.017 81.9994 292.999 80.7245C292.981 79.4511 292.45 78.438 291.813 78.4623C291.176 78.4881 290.674 79.5412 290.692 80.8147Z" fill="white"/>
<path fill-rule="evenodd" clip-rule="evenodd" d="M288.385 98.1223C288.413 99.3972 289.208 100.409 290.164 100.384C291.119 100.36 291.873 99.3071 291.846 98.0322C291.819 96.7587 291.023 95.7456 290.067 95.77C289.112 95.7957 288.358 96.8488 288.385 98.1223Z" fill="white"/>
<path fill-rule="evenodd" clip-rule="evenodd" d="M288.385 116.583C288.413 117.857 289.208 118.87 290.164 118.845C291.119 118.82 291.873 117.768 291.846 116.493C291.819 115.22 291.023 114.207 290.067 114.231C289.11 114.257 288.358 115.31 288.385 116.583Z" fill="white"/>
<path fill-rule="evenodd" clip-rule="evenodd" d="M288.385 135.045C288.413 136.319 289.208 137.332 290.164 137.307C291.119 137.282 291.873 136.23 291.846 134.955C291.819 133.682 291.023 132.668 290.067 132.693C289.112 132.719 288.358 133.772 288.385 135.045Z" fill="white"/>
<path fill-rule="evenodd" clip-rule="evenodd" d="M290.692 156.38C290.701 157.335 290.966 158.095 291.284 158.076C291.603 158.058 291.854 157.268 291.845 156.312C291.836 155.357 291.571 154.597 291.252 154.616C290.934 154.635 290.683 155.425 290.692 156.38Z" fill="white"/>
<path d="M312.847 67.127C313.022 66.8956 313.346 66.8549 313.57 67.0359C313.774 67.2004 313.826 67.4916 313.701 67.717L313.659 67.7824L301.338 84.0265C301.149 84.2764 300.796 84.297 300.58 84.0869L300.529 84.0296L290.803 71.4041C290.626 71.1742 290.663 70.8396 290.886 70.6569C291.089 70.4907 291.375 70.5073 291.559 70.6844L291.61 70.7424L300.929 82.8398L312.847 67.127Z" fill="#253368"/>
<path d="M275.993 69.27C276.219 69.1698 276.475 69.2666 276.596 69.4867L276.628 69.5563L281.621 82.6789L290.978 70.0267C291.131 69.8205 291.398 69.7712 291.603 69.8999L291.662 69.9439C291.853 70.1084 291.899 70.3966 291.78 70.618L291.739 70.6822L281.866 84.0328C281.65 84.325 281.237 84.2829 281.068 83.9747L281.035 83.9046L275.728 69.9555C275.626 69.6872 275.745 69.3802 275.993 69.27Z" fill="#253368"/>
<path d="M254.245 93.4621C254.493 93.4551 254.704 93.6379 254.743 93.8823L254.753 94.0706L254.8 95.4454C254.821 96.0491 254.846 96.7186 254.876 97.4496L254.958 99.428C255.045 101.455 255.149 103.626 255.27 105.915L255.311 106.682C255.827 116.233 256.531 125.783 257.454 134.695L257.604 136.123C258.692 146.284 260.004 154.883 261.561 161.443C261.594 161.583 261.567 161.731 261.486 161.85C259.468 164.817 259.696 167.216 261.276 169.142C261.548 169.473 261.839 169.759 262.13 169.999L262.286 170.125L262.414 170.219L262.623 170.246C268.236 170.938 276.459 171.073 286.621 170.753L287.814 170.714C293.719 170.511 300.015 170.168 306.45 169.724L308.182 169.602C311.046 169.397 313.79 169.183 316.359 168.968L319.508 168.697L321.311 168.531C321.58 168.505 321.819 168.709 321.844 168.985C321.869 169.262 321.672 169.507 321.402 169.533L319.593 169.699C318.99 169.752 318.335 169.81 317.632 169.87L314.874 170.1C312.234 170.314 309.43 170.526 306.516 170.727C300.07 171.172 293.764 171.516 287.847 171.719L286.66 171.758C276.251 172.086 267.862 171.938 262.18 171.203C262.11 171.194 262.044 171.17 261.984 171.133C261.608 170.896 261.067 170.448 260.527 169.79C258.749 167.623 258.423 164.868 260.416 161.683L260.557 161.462L260.5 161.217C258.943 154.514 257.636 145.793 256.555 135.52L256.48 134.801C255.61 126.396 254.933 117.427 254.426 108.426L254.333 106.738C254.194 104.162 254.076 101.729 253.979 99.4724L253.843 96.109L253.77 93.9805C253.762 93.7029 253.975 93.4711 254.245 93.4621Z" fill="#253368"/>
<path fill-rule="evenodd" clip-rule="evenodd" d="M327.184 207.391L297.398 221.898C297.398 221.898 290.892 223.666 285.694 221.927C277.346 219.134 263.207 214.803 257.358 206.275C256.369 193.709 261.465 176.689 261.465 176.689L262.059 169.089C262.059 169.089 288.731 171.27 320.802 167.308C321.138 171.047 322.125 175.594 322.125 175.594C322.125 175.594 329.437 194.559 327.184 207.391Z" fill="#ADC6FF"/>
<path d="M320.687 174.609C320.72 174.855 320.583 175.088 320.38 175.129L319.542 175.289L318.437 175.49C318.041 175.561 317.619 175.634 317.171 175.71C314.611 176.146 311.737 176.581 308.616 176.987C297.645 178.415 286.534 179.129 276.164 178.741C271.174 178.555 266.491 178.113 262.168 177.39C261.964 177.356 261.821 177.128 261.849 176.88C261.877 176.633 262.066 176.46 262.27 176.494C266.565 177.212 271.222 177.652 276.187 177.837C286.519 178.223 297.597 177.511 308.537 176.087L309.956 175.899C312.29 175.581 314.473 175.248 316.473 174.915L318.028 174.648L319.762 174.333L320.258 174.237C320.461 174.196 320.653 174.363 320.687 174.609Z" fill="#597EF7"/>
<path d="M320.69 167.694C320.712 167.933 320.568 168.148 320.368 168.175L318.932 168.355C318.545 168.401 318.129 168.451 317.686 168.502L317.001 168.58C314.504 168.862 311.723 169.144 308.713 169.41L308.015 169.471C296.4 170.476 284.633 170.974 273.652 170.69C269.635 170.587 265.803 170.378 262.183 170.056C261.982 170.038 261.832 169.83 261.847 169.59C261.862 169.351 262.036 169.171 262.237 169.189C265.844 169.509 269.663 169.717 273.667 169.821C284.623 170.104 296.369 169.607 307.962 168.604C311.236 168.321 314.249 168.018 316.932 167.714L318.564 167.525L320.287 167.31C320.487 167.284 320.667 167.455 320.69 167.694Z" fill="#597EF7"/>
<path d="M289.037 169.615C289.232 169.624 289.385 169.797 289.378 170.004L289.312 172.231C289.287 173.185 289.261 174.233 289.237 175.364C289.064 183.531 289.032 192.095 289.231 200.104L289.264 201.33C289.492 209.43 289.954 216.168 290.688 221.105C290.719 221.31 290.586 221.502 290.393 221.534C290.199 221.566 290.018 221.426 289.987 221.222L289.878 220.462C289.166 215.31 288.728 208.388 288.522 200.124C288.337 192.674 288.351 184.747 288.493 177.105L288.559 173.937C288.581 173.029 288.603 172.186 288.625 171.414L288.669 169.977C288.676 169.77 288.841 169.608 289.037 169.615Z" fill="#597EF7"/>
<path fill-rule="evenodd" clip-rule="evenodd" d="M282.616 173.685C282.645 174.641 283.442 175.401 284.398 175.384C285.353 175.367 286.104 174.578 286.076 173.622C286.047 172.666 285.25 171.906 284.294 171.923C283.338 171.94 282.587 172.729 282.616 173.685Z" fill="white"/>
<path d="M282.172 178.846C282.382 178.856 282.544 179.023 282.533 179.219L282.485 180.18C282.449 180.955 282.413 181.832 282.379 182.796C282.219 187.378 282.169 192.118 282.295 196.544C282.349 198.422 282.433 200.189 282.552 201.824C282.912 206.781 284.568 208.805 290.345 209.292C290.554 209.309 290.709 209.482 290.69 209.677C290.671 209.872 290.486 210.016 290.276 209.998L289.755 209.949C283.972 209.341 282.162 206.996 281.79 201.872C281.671 200.226 281.586 198.45 281.532 196.563C281.417 192.525 281.448 188.229 281.575 184.03L281.616 182.773C281.636 182.221 281.656 181.697 281.676 181.204L281.749 179.593L281.771 179.182C281.782 178.986 281.961 178.836 282.172 178.846Z" fill="#597EF7"/>
<path fill-rule="evenodd" clip-rule="evenodd" d="M338.557 166.014C331.832 167.032 325.519 162.364 324.172 155.376L311.773 91.0931C310.028 82.0432 315.779 73.2781 324.458 71.7624C333.245 70.2277 341.461 76.7399 342.458 86.0292L349.456 151.203C350.231 158.419 345.405 164.977 338.557 166.014Z" fill="#FFC999"/>
<path fill-rule="evenodd" clip-rule="evenodd" d="M348.384 127.096L318.215 131.538L311.67 90.4474C310.237 81.4532 316.313 73.0089 325.152 71.7072C333.991 70.4065 342.158 76.7537 343.277 85.7934L348.384 127.096Z" fill="#597EF7"/>
<path d="M347.805 128.082C348.082 128.047 348.339 128.213 348.379 128.451C348.416 128.67 348.257 128.874 348.017 128.933L347.95 128.945L317.81 132.688C317.533 132.722 317.276 132.557 317.236 132.318C317.199 132.1 317.358 131.896 317.598 131.837L317.665 131.824L347.805 128.082Z" fill="#253368"/>
<path fill-rule="evenodd" clip-rule="evenodd" d="M291.189 71.4349C287.576 73.5118 286.201 78.0403 288.052 81.7743L326.126 158.61C329.58 165.579 338.175 168.222 344.949 164.398C351.835 160.51 353.949 151.578 349.534 145.017L301.663 73.8699C299.351 70.4346 294.779 69.3716 291.189 71.4349Z" fill="#FFC999"/>
<path fill-rule="evenodd" clip-rule="evenodd" d="M327.612 155.11C327.492 159.398 324.046 162.858 319.733 163.022L237.632 166.144C229.928 166.437 223.576 160.202 223.774 152.543C223.973 144.898 230.616 139.001 238.283 139.667L320.132 146.768C324.454 147.143 327.734 150.801 327.612 155.11Z" fill="#FFC999"/>
<path fill-rule="evenodd" clip-rule="evenodd" d="M281.374 74.6362C281.374 74.6362 289.821 87.4752 296.942 86.4837C303.393 85.5853 303.344 77.1639 303.344 77.1639C303.344 77.1639 304.029 69.7668 299.798 63.7229C296.897 59.5782 295.813 50.1705 293.274 50.4772C289.965 50.8758 293.692 59.7765 291.981 61.4988C288.515 64.9894 281.185 51.6025 278.837 50.0693C274.248 47.0735 271.125 59.3135 281.374 74.6362Z" fill="#FFC999"/>
<path d="M277.096 50.7906C277.292 50.7233 277.508 50.8223 277.577 51.0117C278.4 53.2484 279.655 55.4546 281.227 57.5845C282.262 58.987 283.371 60.2724 284.48 61.4119C284.791 61.7307 285.083 62.0195 285.353 62.2764L285.824 62.7143C285.878 62.7627 285.92 62.8002 285.951 62.8265C286.106 62.9604 286.119 63.1905 285.981 63.3404C285.842 63.4903 285.604 63.5032 285.449 63.3693L285.253 63.1942C285.188 63.1358 285.113 63.0665 285.027 62.9866C284.696 62.6776 284.328 62.3178 283.932 61.9106C282.801 60.7484 281.67 59.4382 280.613 58.0071C279.004 55.8259 277.716 53.5616 276.868 51.2554C276.798 51.0661 276.9 50.858 277.096 50.7906Z" fill="#DD936F"/>
<path d="M274.783 54.2475C274.964 54.185 275.157 54.2999 275.212 54.504L275.267 54.6895L275.381 55.0414C275.43 55.1899 275.486 55.3516 275.549 55.5258C275.85 56.359 276.24 57.3021 276.728 58.3355C278.126 61.294 280.034 64.3774 282.525 67.4288C282.654 67.5861 282.645 67.8306 282.504 67.9749C282.364 68.1192 282.147 68.1087 282.018 67.9514C279.485 64.8501 277.545 61.7127 276.12 58.698C275.62 57.6407 275.221 56.6736 274.911 55.8162L274.79 55.4714C274.752 55.3622 274.718 55.2587 274.686 55.1611L274.578 54.8144C274.568 54.7793 274.56 54.7512 274.554 54.7302C274.499 54.5261 274.601 54.31 274.783 54.2475Z" fill="#DD936F"/>
<path d="M275.854 61.1999C276.003 61.099 276.188 61.1712 276.267 61.3612C277.49 64.296 278.712 66.7118 279.874 68.6415C280.228 69.2305 280.555 69.7358 280.848 70.1602L280.972 70.3372C281.164 70.6096 281.298 70.785 281.366 70.8675C281.488 71.0161 281.493 71.2627 281.376 71.4183C281.26 71.574 281.066 71.5797 280.944 71.4311L280.83 71.2852L280.685 71.0906C280.632 71.0195 280.577 70.9423 280.518 70.8589C280.183 70.3851 279.804 69.8055 279.389 69.116C278.206 67.1523 276.966 64.7 275.727 61.7267C275.648 61.5367 275.705 61.3009 275.854 61.1999Z" fill="#DD936F"/>
<path d="M276.662 48.7157C277.596 48.1693 278.558 48.5464 279.454 49.4526C279.656 49.6578 279.841 49.8765 280.005 50.0953L280.153 50.3028C280.179 50.3419 280.202 50.3762 280.22 50.4056L280.447 50.7854L280.794 51.3525C280.946 51.5992 281.11 51.8601 281.284 52.1326C282.112 53.4302 282.998 54.7277 283.903 55.9375C284.804 57.1403 285.675 58.1901 286.499 59.0425C287.913 60.5049 289.124 61.3193 290.026 61.3617C291.224 61.418 291.806 61.0035 292.038 60.1071C292.215 59.4214 292.202 58.6923 292.028 57.0643L291.905 55.9539C291.839 55.3285 291.808 54.9235 291.796 54.4908L291.757 53.2579C291.679 50.5145 291.845 50.1329 293.183 49.7011L293.237 49.6946C293.65 49.6579 294.149 49.7919 294.62 50.2324C294.974 50.5638 295.265 51.0384 295.478 51.67L295.602 52.0725C295.692 52.3769 295.857 52.9349 295.935 53.1938C296.131 53.8458 296.322 54.4626 296.525 55.0942C297.063 56.7709 297.625 58.3551 298.226 59.8447C299.182 62.2138 300.172 64.1759 301.189 65.6157C302.01 66.7779 302.572 68.7892 302.935 71.4279C303.132 72.8614 303.258 74.3943 303.328 75.9308L303.355 76.5994C303.376 77.2293 303.384 77.7381 303.384 78.0853C303.383 78.296 303.224 78.4625 303.03 78.4619C302.854 78.4613 302.709 78.3255 302.682 78.1481L302.678 78.0876L302.673 77.5408C302.666 77.1195 302.651 76.5851 302.623 75.9664C302.554 74.4522 302.43 72.9424 302.236 71.5354C301.889 69.0121 301.354 67.0966 300.624 66.0624C299.567 64.5673 298.553 62.5567 297.577 60.1376C296.968 58.6289 296.4 57.0276 295.856 55.3343C295.72 54.9099 295.589 54.4922 295.458 54.0665L294.867 52.0889C294.686 51.483 294.44 51.0617 294.152 50.7912C293.872 50.5297 293.594 50.4362 293.369 50.4354L293.307 50.4372L293.159 50.4891C292.468 50.7432 292.395 51.0431 292.462 53.2445L292.51 54.6915C292.522 54.9528 292.542 55.2239 292.576 55.5663L292.754 57.22C292.916 58.7887 292.919 59.5318 292.719 60.3041C292.397 61.5484 291.512 62.1788 289.995 62.1074C288.868 62.0544 287.534 61.158 286.005 59.576C285.158 58.6991 284.267 57.6265 283.349 56.4007C282.432 55.1746 281.536 53.8623 280.699 52.5501L280.361 52.0154C280.253 51.8429 280.15 51.6763 280.052 51.5163L279.625 50.8076L279.541 50.6821C279.515 50.6457 279.485 50.6041 279.451 50.5581C279.306 50.3648 279.143 50.1714 278.966 49.9919C278.267 49.2858 277.596 49.0225 277.004 49.3687C276.777 49.502 276.552 49.7261 276.332 50.0531C276.22 50.2213 275.999 50.261 275.84 50.1418C275.681 50.0226 275.644 49.7897 275.756 49.6215C276.034 49.2077 276.336 48.9067 276.662 48.7157Z" fill="#DD936F"/>
<path d="M240.292 139.615L313.46 145.873C313.647 145.889 313.785 146.05 313.769 146.234C313.754 146.398 313.623 146.523 313.463 146.538L313.402 146.538L240.233 140.281C240.047 140.265 239.909 140.103 239.925 139.919C239.939 139.756 240.071 139.63 240.231 139.615L240.292 139.615Z" fill="#DD936F"/>
<path fill-rule="evenodd" clip-rule="evenodd" d="M325.461 168.42C325.461 168.42 313.043 164.402 309.266 157.96C303.863 148.747 317.503 146.067 317.503 146.067C317.503 146.067 321.459 144.936 330.336 145.586C335.266 145.947 347.988 147.296 346.483 149.801C344.701 152.768 336.064 150.376 335.702 152.879C335.331 155.448 337.033 157.499 341.633 160.205C344.508 161.895 348.816 162.242 350.983 164.148C355.223 167.875 343.383 174.237 325.461 168.42Z" fill="#FFC999"/>
<path d="M334.646 161.621C334.79 161.512 335.026 161.51 335.173 161.618L335.288 161.698C335.324 161.722 335.366 161.75 335.416 161.782C335.626 161.919 335.879 162.071 336.173 162.235C337.018 162.707 338.027 163.18 339.198 163.621C342.057 164.7 345.391 165.416 349.191 165.599C349.396 165.609 349.552 165.741 349.538 165.894C349.525 166.047 349.348 166.163 349.143 166.153C345.239 165.964 341.808 165.228 338.862 164.116C337.651 163.66 336.606 163.17 335.727 162.679C335.418 162.507 335.152 162.346 334.928 162.201L334.73 162.07C334.696 162.046 334.67 162.027 334.65 162.013C334.504 161.905 334.502 161.73 334.646 161.621Z" fill="#DD936F"/>
<path d="M333.443 164.052C333.551 163.842 333.774 163.783 333.941 163.919C334.504 164.379 335.089 164.807 335.693 165.202C337.889 166.641 340.245 167.607 342.602 168.189C343.309 168.364 343.972 168.493 344.579 168.582L344.878 168.624C345.058 168.647 345.222 168.666 345.37 168.68L345.695 168.706C345.709 168.707 345.72 168.708 345.729 168.708C345.928 168.717 346.084 168.927 346.077 169.177C346.07 169.427 345.903 169.623 345.705 169.615L345.464 169.598L345.155 169.568C345.045 169.556 344.928 169.542 344.804 169.526C344.097 169.434 343.31 169.289 342.463 169.079C340.043 168.482 337.623 167.489 335.36 166.007C334.736 165.598 334.132 165.156 333.549 164.68C333.382 164.543 333.335 164.262 333.443 164.052Z" fill="#DD936F"/>
<path d="M328.846 166.29C328.965 166.133 329.18 166.109 329.327 166.236L329.394 166.29C329.438 166.325 329.499 166.371 329.576 166.427C329.797 166.588 330.068 166.768 330.39 166.963C331.318 167.524 332.471 168.086 333.862 168.612C335.346 169.173 337.015 169.658 338.877 170.045C339.063 170.084 339.184 170.276 339.148 170.474C339.112 170.672 338.932 170.801 338.746 170.763C336.851 170.369 335.149 169.874 333.633 169.301C332.204 168.761 331.015 168.181 330.052 167.599C329.781 167.435 329.543 167.28 329.338 167.137L329.19 167.031C329.045 166.925 328.948 166.848 328.897 166.804C328.75 166.677 328.727 166.447 328.846 166.29Z" fill="#DD936F"/>
<path d="M317.52 146.152C321.341 145.485 325.546 145.2 329.914 145.51C333.393 145.758 337.399 146.21 340.477 146.787L341.16 146.92C342.819 147.256 344.131 147.624 345.037 148.027C346.332 148.604 346.901 149.322 346.391 150.148C345.637 151.367 344.064 151.847 341.076 152.125L339.277 152.274C336.566 152.507 335.59 152.792 335.49 153.467C335.183 155.532 336.991 157.27 342.163 160.225C342.908 160.651 343.721 160.978 344.78 161.302L345.698 161.567L346.394 161.758C348.739 162.398 349.813 162.823 350.836 163.697C353.28 165.785 351.113 168.517 346.236 169.866C340.858 171.354 333.37 171.053 325.347 168.597L324.76 168.413L324.137 168.202C323.541 167.994 322.876 167.748 322.161 167.465C320.118 166.658 318.074 165.72 316.164 164.659C315.955 164.543 315.749 164.426 315.545 164.308C315.378 164.212 315.322 163.999 315.42 163.834C315.518 163.669 315.732 163.613 315.899 163.71C316.099 163.826 316.302 163.941 316.507 164.055C318.387 165.099 320.404 166.025 322.421 166.822C323.009 167.054 323.563 167.261 324.071 167.442L324.915 167.734L325.105 167.795C333.175 170.341 340.706 170.676 346.047 169.199C350.485 167.971 352.215 165.79 350.378 164.221C349.496 163.468 348.531 163.071 346.461 162.496L344.876 162.055C343.621 161.687 342.681 161.322 341.813 160.825L341.263 160.509C336.249 157.592 334.441 155.76 334.796 153.366C334.977 152.15 336.089 151.838 339.452 151.563L340.739 151.459L341.256 151.411C343.85 151.15 345.221 150.712 345.793 149.786C346 149.452 345.712 149.088 344.749 148.66C343.784 148.23 342.282 147.83 340.347 147.468C337.299 146.897 333.318 146.447 329.864 146.202C325.557 145.895 321.41 146.177 317.642 146.834L316.952 146.96C316.393 147.066 315.873 147.176 315.397 147.286L315.117 147.352C314.86 147.414 314.636 147.471 314.447 147.522L314.22 147.585C314.035 147.64 313.84 147.536 313.784 147.352C313.729 147.169 313.834 146.976 314.02 146.921L314.263 146.853L314.582 146.77C314.697 146.741 314.82 146.71 314.951 146.679L315.533 146.544C316.136 146.41 316.8 146.277 317.52 146.152Z" fill="#DD936F"/>
<path d="M276.918 213.613C277.04 213.449 277.274 213.413 277.441 213.533L278.055 213.964L278.846 214.51C279.126 214.701 279.421 214.9 279.73 215.107C281.495 216.29 283.352 217.472 285.215 218.575C286.425 219.292 287.599 219.952 288.723 220.542C289.502 220.952 290.252 221.326 290.97 221.661C291.091 221.717 291.172 221.833 291.183 221.965L291.263 223.047C291.289 223.413 291.314 223.785 291.338 224.161C291.518 226.945 291.648 229.905 291.735 232.884L291.765 234.002C291.783 234.673 291.797 235.317 291.809 235.927L291.834 237.446L291.846 238.476C291.847 238.679 291.68 238.845 291.474 238.847C291.267 238.848 291.098 238.684 291.097 238.481L291.083 237.255L291.051 235.478C291.041 235.009 291.03 234.523 291.017 234.021C290.931 230.675 290.793 227.33 290.591 224.208L290.516 223.098L290.452 222.232L290.208 222.117C289.763 221.904 289.307 221.676 288.84 221.436L288.37 221.191C287.234 220.594 286.049 219.928 284.828 219.205C282.953 218.095 281.084 216.905 279.308 215.715L278.419 215.114L277.264 214.315L277 214.127C276.832 214.007 276.796 213.777 276.918 213.613Z" fill="#597EF7"/>
</svg>
