<svg width="460" height="342" viewBox="0 0 460 342" fill="none" xmlns="http://www.w3.org/2000/svg">
<path d="M446.22 14.8223H14.1042C6.49374 14.8223 0.324219 20.6692 0.324219 27.8817V328.588C0.324219 335.801 6.49374 341.648 14.1042 341.648H446.22C453.83 341.648 460 335.801 460 328.588V27.8817C460 20.6692 453.83 14.8223 446.22 14.8223Z" fill="#E4EBF7"/>
<path d="M12.3276 0H447.672C454.48 0 460 5.1746 460 11.5578V46H0V11.5578C0 5.1746 5.51926 0 12.3276 0Z" fill="#253368"/>
<path d="M26.3214 31.5499C31.175 31.5499 35.1096 27.821 35.1096 23.2212C35.1096 18.6214 31.175 14.8926 26.3214 14.8926C21.4678 14.8926 17.5332 18.6214 17.5332 23.2212C17.5332 27.821 21.4678 31.5499 26.3214 31.5499Z" fill="#FF7946"/>
<path d="M59.1417 31.5499C63.9953 31.5499 67.9299 27.821 67.9299 23.2212C67.9299 18.6214 63.9953 14.8926 59.1417 14.8926C54.2881 14.8926 50.3535 18.6214 50.3535 23.2212C50.3535 27.821 54.2881 31.5499 59.1417 31.5499Z" fill="#FAAD14"/>
<path d="M91.9738 31.5499C96.8274 31.5499 100.762 27.821 100.762 23.2212C100.762 18.6214 96.8274 14.8926 91.9738 14.8926C87.1202 14.8926 83.1855 18.6214 83.1855 23.2212C83.1855 27.821 87.1202 31.5499 91.9738 31.5499Z" fill="#7CB305"/>
<path d="M84.1546 166.796H25.823C23.7688 166.796 22.1035 168.374 22.1035 170.321V179.009C22.1035 180.956 23.7688 182.534 25.823 182.534H84.1546C86.2088 182.534 87.8741 180.956 87.8741 179.009V170.321C87.8741 168.374 86.2088 166.796 84.1546 166.796Z" fill="#ADC6FF"/>
<path d="M84.211 197.098H25.7666C23.7435 197.098 22.1035 198.652 22.1035 200.569V208.888C22.1035 210.805 23.7435 212.36 25.7666 212.36H84.211C86.2341 212.36 87.8741 210.805 87.8741 208.888V200.569C87.8741 198.652 86.2341 197.098 84.211 197.098Z" fill="#597EF7"/>
<path d="M84.211 226.779H25.7666C23.7435 226.779 22.1035 228.334 22.1035 230.251V238.57C22.1035 240.487 23.7435 242.041 25.7666 242.041H84.211C86.2341 242.041 87.8741 240.487 87.8741 238.57V230.251C87.8741 228.334 86.2341 226.779 84.211 226.779Z" fill="#597EF7"/>
<path d="M54.9863 141.096C73.12 141.096 87.8203 127.165 87.8203 109.979C87.8203 92.7939 73.12 78.8623 54.9863 78.8623C36.8526 78.8623 22.1523 92.7939 22.1523 109.979C22.1523 127.165 36.8526 141.096 54.9863 141.096Z" fill="white"/>
<path d="M54.9887 141.096C64.4521 141.101 73.4332 137.138 79.5218 130.273C74.7244 121.641 65.2774 116.238 54.9836 116.238C44.6898 116.238 35.2427 121.641 30.4453 130.273C36.5371 137.14 45.522 141.102 54.9887 141.096Z" fill="#253368"/>
<path d="M55.1631 117.476C61.9831 117.476 67.5118 112.237 67.5118 105.773C67.5118 99.3099 61.9831 94.0703 55.1631 94.0703C48.3431 94.0703 42.8145 99.3099 42.8145 105.773C42.8145 112.237 48.3431 117.476 55.1631 117.476Z" fill="#253368"/>
</svg>
