<svg width="40" height="40" viewBox="0 0 40 40" fill="none" xmlns="http://www.w3.org/2000/svg">
<path d="M35 36.0501C35 36.683 34.5297 37.206 33.9196 37.2887L33.75 37.3001H6.25C5.55964 37.3001 5 36.7405 5 36.0501C5 35.4173 5.47026 34.8943 6.08038 34.8115L6.25 34.8001H33.75C34.4404 34.8001 35 35.3598 35 36.0501ZM34.6339 14.3329C35.0777 14.7767 35.118 15.4711 34.7549 15.9605L34.6339 16.1007L20.8839 29.8507C20.4401 30.2945 19.7457 30.3348 19.2563 29.9717L19.1161 29.8507L5.36612 16.1007C4.87796 15.6125 4.87796 14.8211 5.36612 14.3329C5.80989 13.8891 6.50433 13.8488 6.99368 14.2119L7.13388 14.3329L20 27.199L32.8661 14.3329C33.3543 13.8448 34.1457 13.8448 34.6339 14.3329Z" fill="#24E6DB"/>
</svg>
