<svg width="88" height="56" viewBox="0 0 88 56" fill="none" xmlns="http://www.w3.org/2000/svg">
<g filter="url(#filter0_d)">
<path d="M41.5071 0.0012583C43.3858 0.0012583 45.1481 0.380007 46.794 1.1375C48.4399 1.895 49.878 2.91674 51.1083 4.20273C52.3386 5.48871 53.3029 7.01251 54.0011 8.77413C54.6994 10.5358 55.0569 12.4031 55.0735 14.3761C55.0735 16.2963 54.7327 18.1372 54.051 19.8988C53.3694 21.6604 52.3885 23.2106 51.1083 24.5495L29.5367 47.3801L7.96518 24.5495C6.70164 23.2106 5.72905 21.6604 5.04741 19.8988C4.36576 18.1372 4.01663 16.2963 4 14.3761C4 12.4031 4.34914 10.5446 5.04741 8.80056C5.74568 7.05655 6.71827 5.53275 7.96518 4.22915C9.21209 2.92555 10.6502 1.895 12.2795 1.1375C13.9088 0.380007 15.6711 0.0012583 17.5664 0.0012583C18.9463 0.0012583 20.1766 0.168612 21.2573 0.50332C22.3379 0.838029 23.3354 1.29605 24.2498 1.87739C25.1642 2.45872 26.0454 3.17218 26.8933 4.01776C27.7412 4.86333 28.6223 5.77057 29.5367 6.73946C30.4511 5.75295 31.324 4.84572 32.1553 4.01776C32.9865 3.18979 33.8677 2.48515 34.7987 1.90381C35.7297 1.32247 36.7356 0.855645 37.8162 0.50332C38.8969 0.150996 40.1272 -0.0163579 41.5071 0.0012583ZM48.8389 22.1448C49.8198 21.1055 50.568 19.9164 51.0834 18.5776C51.5988 17.2387 51.8565 15.8382 51.8565 14.3761C51.8565 12.8435 51.5904 11.4166 51.0584 10.0954C50.5264 8.77413 49.7949 7.62027 48.8639 6.63376C47.9328 5.64726 46.8356 4.88095 45.572 4.33485C44.3085 3.78875 42.9535 3.50689 41.5071 3.48927C40.1106 3.48927 38.872 3.71828 37.7913 4.1763C36.7106 4.63432 35.7131 5.25089 34.7987 6.026C33.8843 6.80112 33.0115 7.6555 32.1802 8.58916C31.3489 9.52282 30.4678 10.5005 29.5367 11.5223C28.639 10.571 27.7661 9.6109 26.9182 8.64201C26.0703 7.67312 25.1892 6.80112 24.2748 6.026C23.3604 5.25089 22.3545 4.61671 21.2573 4.12345C20.16 3.6302 18.9297 3.38357 17.5664 3.38357C16.1366 3.38357 14.7899 3.66543 13.5264 4.22915C12.2629 4.79287 11.1656 5.57679 10.2346 6.58092C9.30353 7.58504 8.5637 8.75652 8.01505 10.0954C7.46641 11.4342 7.19209 12.8611 7.19209 14.3761C7.19209 15.8382 7.44979 17.2387 7.96518 18.5776C8.48057 19.9164 9.23703 21.1055 10.2346 22.1448L29.5367 42.5973L48.8389 22.1448Z" fill="#24E6DB"/>
</g>
<g clip-path="url(#clip0)" filter="url(#filter1_d)">
<path d="M70.7148 17.1244C70.7148 17.6973 70.5977 18.2308 70.3633 18.7249C70.1289 19.2191 69.8086 19.6559 69.4023 20.0355C68.9961 20.415 68.5156 20.7122 67.9609 20.9271C67.4063 21.1419 66.8242 21.2494 66.2148 21.2494C65.5898 21.2494 65.0078 21.1419 64.4688 20.9271C63.9297 20.7122 63.4531 20.4186 63.0391 20.0462C62.625 19.6738 62.3008 19.237 62.0664 18.7357C61.832 18.2344 61.7148 17.6973 61.7148 17.1244C61.7148 16.5586 61.832 16.0251 62.0664 15.5238C62.3008 15.0225 62.6211 14.5856 63.0273 14.2132C63.4336 13.8408 63.9102 13.5436 64.457 13.3216C65.0039 13.0996 65.5898 12.9922 66.2148 12.9994C66.832 12.9994 67.4141 13.1068 67.9609 13.3216C68.5078 13.5365 68.9844 13.8301 69.3906 14.2025C69.7969 14.5749 70.1211 15.0153 70.3633 15.5238C70.6055 16.0322 70.7227 16.5658 70.7148 17.1244ZM66.2148 19.8744C66.6289 19.8744 67.0156 19.8027 67.375 19.6595C67.7344 19.5163 68.0547 19.3193 68.3359 19.0687C68.6172 18.818 68.832 18.528 68.9805 18.1986C69.1289 17.8692 69.207 17.5111 69.2148 17.1244C69.2148 16.7448 69.1367 16.3903 68.9805 16.0609C68.8242 15.7315 68.6094 15.4378 68.3359 15.18C68.0625 14.9222 67.7461 14.7253 67.3867 14.5892C67.0273 14.4531 66.6367 14.3815 66.2148 14.3744C65.8008 14.3744 65.4141 14.446 65.0547 14.5892C64.6953 14.7324 64.375 14.9294 64.0938 15.18C63.8125 15.4307 63.5977 15.7207 63.4492 16.0501C63.3008 16.3796 63.2227 16.7376 63.2148 17.1244C63.2148 17.5039 63.293 17.8584 63.4492 18.1878C63.6055 18.5173 63.8203 18.8109 64.0938 19.0687C64.3672 19.3265 64.6836 19.5234 65.043 19.6595C65.4023 19.7956 65.793 19.8672 66.2148 19.8744ZM79.7148 25.3744C80.332 25.3744 80.9141 25.4818 81.4609 25.6966C82.0078 25.9115 82.4844 26.2051 82.8906 26.5775C83.2969 26.9499 83.6211 27.3903 83.8633 27.8988C84.1055 28.4072 84.2227 28.9408 84.2148 29.4994C84.2148 30.0723 84.0977 30.6058 83.8633 31.0999C83.6289 31.5941 83.3086 32.0309 82.9023 32.4105C82.4961 32.79 82.0156 33.0872 81.4609 33.3021C80.9063 33.5169 80.3242 33.6244 79.7148 33.6244C79.0898 33.6244 78.5078 33.5169 77.9688 33.3021C77.4297 33.0872 76.9531 32.7936 76.5391 32.4212C76.125 32.0488 75.8008 31.612 75.5664 31.1107C75.332 30.6094 75.2148 30.0723 75.2148 29.4994C75.2148 28.9336 75.332 28.4001 75.5664 27.8988C75.8008 27.3975 76.1211 26.9606 76.5273 26.5882C76.9336 26.2158 77.4102 25.9186 77.957 25.6966C78.5039 25.4746 79.0898 25.3672 79.7148 25.3744ZM79.7148 32.2494C80.1289 32.2494 80.5156 32.1777 80.875 32.0345C81.2344 31.8913 81.5547 31.6943 81.8359 31.4437C82.1172 31.193 82.332 30.903 82.4805 30.5736C82.6289 30.2442 82.707 29.8861 82.7148 29.4994C82.7148 29.1198 82.6367 28.7653 82.4805 28.4359C82.3242 28.1065 82.1094 27.8128 81.8359 27.555C81.5625 27.2972 81.2461 27.1003 80.8867 26.9642C80.5273 26.8281 80.1367 26.7565 79.7148 26.7494C79.3008 26.7494 78.9141 26.821 78.5547 26.9642C78.1953 27.1074 77.875 27.3044 77.5938 27.555C77.3125 27.8057 77.0977 28.0957 76.9492 28.4251C76.8008 28.7546 76.7227 29.1126 76.7148 29.4994C76.7148 29.8789 76.793 30.2334 76.9492 30.5628C77.1055 30.8923 77.3203 31.1859 77.5938 31.4437C77.8672 31.7015 78.1836 31.8984 78.543 32.0345C78.9023 32.1706 79.293 32.2422 79.7148 32.2494ZM79.4336 12.9994L68.1836 33.6244H66.4961L77.7461 12.9994H79.4336Z" fill="#24E6DB"/>
</g>
<defs>
<filter id="filter0_d" x="0" y="0" width="59.0735" height="55.3801" filterUnits="userSpaceOnUse" color-interpolation-filters="sRGB">
<feFlood flood-opacity="0" result="BackgroundImageFix"/>
<feColorMatrix in="SourceAlpha" type="matrix" values="0 0 0 0 0 0 0 0 0 0 0 0 0 0 0 0 0 0 127 0"/>
<feOffset dy="4"/>
<feGaussianBlur stdDeviation="2"/>
<feColorMatrix type="matrix" values="0 0 0 0 0 0 0 0 0 0 0 0 0 0 0 0 0 0 0.25 0"/>
<feBlend mode="normal" in2="BackgroundImageFix" result="effect1_dropShadow"/>
<feBlend mode="normal" in="SourceGraphic" in2="effect1_dropShadow" result="shape"/>
</filter>
<filter id="filter1_d" x="56" y="13" width="32" height="30" filterUnits="userSpaceOnUse" color-interpolation-filters="sRGB">
<feFlood flood-opacity="0" result="BackgroundImageFix"/>
<feColorMatrix in="SourceAlpha" type="matrix" values="0 0 0 0 0 0 0 0 0 0 0 0 0 0 0 0 0 0 127 0"/>
<feOffset dy="4"/>
<feGaussianBlur stdDeviation="2"/>
<feColorMatrix type="matrix" values="0 0 0 0 0 0 0 0 0 0 0 0 0 0 0 0 0 0 0.25 0"/>
<feBlend mode="normal" in2="BackgroundImageFix" result="effect1_dropShadow"/>
<feBlend mode="normal" in="SourceGraphic" in2="effect1_dropShadow" result="shape"/>
</filter>
<clipPath id="clip0">
<rect width="24" height="22" fill="white" transform="translate(60 13)"/>
</clipPath>
</defs>
</svg>
