<svg width="61" height="61" viewBox="0 0 61 61" fill="none" xmlns="http://www.w3.org/2000/svg">
<path d="M31.1122 7.53418C30.5164 7.53418 29.9844 7.80746 29.635 8.23548L29.4898 8.34533C24.0395 6.69307 17.8732 8.00843 13.5627 12.2914C9.72845 16.1011 8.25733 21.3696 9.1493 26.2987L9.11113 26.3364L6.67837 28.7535C4.56294 30.8554 4.56294 34.2633 6.67837 36.3653C7.92114 37.6 9.61758 38.1094 11.2346 37.8933C11.4729 38.7735 11.9396 39.6051 12.6348 40.296C13.5796 41.2346 14.7867 41.7541 16.0217 41.8543C16.1224 43.0819 16.6452 44.2815 17.5903 45.2204C18.5788 46.2025 19.8542 46.7259 21.1484 46.7902C21.2133 48.0757 21.7399 49.3428 22.7282 50.3246C24.6606 52.2448 27.6898 52.4108 29.8119 50.823L30.7942 51.7993C32.9201 53.9114 36.3663 53.9114 38.4922 51.7993C39.4336 50.8637 39.9579 49.6712 40.0655 48.4494C41.2928 48.3449 42.4912 47.8259 43.4309 46.8923C44.3731 45.9562 44.8954 44.7622 44.9988 43.5394C46.2102 43.4263 47.3905 42.9085 48.3185 41.9864C49.0459 41.2638 49.5232 40.387 49.7505 39.4618C51.3433 39.6506 53.0043 39.138 54.2266 37.9236C56.342 35.8216 56.342 32.4137 54.2266 30.3118L52.1081 28.207L52.5435 26.5128C53.4898 22.8293 53.014 18.9275 51.2104 15.5764C48.548 10.6291 43.365 7.54691 37.7309 7.54691H33.6472C33.4731 7.53848 33.2983 7.53418 33.1224 7.53418H31.1122ZM38.5445 20.1031L47.3481 28.8503L47.358 28.8607L47.3918 28.8953L51.522 32.9991C52.144 33.617 52.144 34.6186 51.522 35.2363C50.9003 35.8541 49.8923 35.8541 49.2703 35.2363L45.1401 31.1325C44.3934 30.3903 43.1826 30.3903 42.4358 31.1325L42.3944 31.1737C41.6474 31.9156 41.6474 33.1188 42.3944 33.8607L45.6142 37.0599C46.2364 37.6783 46.2364 38.681 45.6142 39.2994C45.0469 39.8629 44.1552 39.9134 43.5325 39.4481C42.7683 38.8767 41.6967 38.9542 41.0237 39.6295C40.3509 40.3049 40.2835 41.3703 40.8663 42.1239C41.3452 42.7433 41.2977 43.6375 40.7265 44.205C40.1506 44.7772 39.2409 44.8206 38.617 44.3326C37.8578 43.7386 36.7717 43.8009 36.0862 44.4778C35.4005 45.1546 35.3311 46.2333 35.9241 46.9915C36.4164 47.6208 36.3699 48.5335 35.7876 49.112C35.1555 49.74 34.1309 49.74 33.4988 49.112L32.5541 48.1733L32.8214 47.9075C34.9369 45.8055 34.9369 42.3977 32.8214 40.296C31.833 39.3136 30.5576 38.7905 29.2634 38.7262C29.1986 37.4406 28.6719 36.1736 27.6837 35.1915C26.7387 34.2529 25.5317 33.7334 24.2967 33.6332C24.1961 32.4059 23.6732 31.2062 22.7282 30.267C21.4854 29.0323 19.789 28.523 18.1719 28.739C17.9336 27.8588 17.4669 27.0272 16.7718 26.3364C15.6754 25.2471 14.2261 24.7223 12.7897 24.7621C12.4165 21.273 13.5757 17.6528 16.2672 14.9786C18.7687 12.493 22.0927 11.3227 25.3688 11.4676L21.5628 14.3512C18.9604 16.3229 18.4591 20.0267 20.4437 22.6192C22.4238 25.2058 26.13 25.7073 28.7263 23.7403L33.527 20.1031H38.5445ZM23.8651 17.39L31.8416 11.3467H33.1224C33.2482 11.3467 33.373 11.3501 33.4968 11.3567C33.5306 11.3585 33.5646 11.3594 33.5987 11.3594H37.7309C41.9709 11.3594 45.8597 13.6789 47.8534 17.3832C49.1107 19.7196 49.5052 22.4118 48.9814 24.9959L40.8173 16.8716C40.4581 16.5002 39.9635 16.2906 39.4471 16.2906H32.8865C32.4707 16.2906 32.0666 16.4264 31.7351 16.6774L26.4241 20.7014C25.4999 21.4015 24.1757 21.2223 23.471 20.3017C22.7708 19.3871 22.947 18.0856 23.8651 17.39ZM15.3393 37.6087C14.9125 37.1847 14.7786 36.5798 14.9377 36.0425C15.0104 35.7967 15.1442 35.5652 15.3393 35.3715L17.772 32.9544C18.3938 32.3365 19.4019 32.3365 20.0237 32.9544C20.6384 33.5649 20.6454 34.5508 20.0447 35.1702L20.023 35.1915L17.5903 37.6089L17.5693 37.6297C17.3788 37.8122 17.1538 37.9381 16.9157 38.0077C16.3748 38.1658 15.766 38.0326 15.3393 37.6087ZM14.0906 29.0473C14.2825 29.2458 14.412 29.4819 14.4792 29.7313C14.6216 30.2594 14.4843 30.8465 14.0673 31.2608L11.6345 33.678C11.0127 34.2958 10.0046 34.2958 9.38285 33.678C8.76106 33.0601 8.76106 32.0587 9.38285 31.4408L11.8156 29.0237C12.4374 28.4058 13.4455 28.4058 14.0673 29.0237L14.0906 29.0473ZM27.6842 47.6376C27.489 47.8317 27.2555 47.9647 27.0076 48.0369C26.4673 48.1944 25.8591 48.0613 25.4326 47.6376C25.0063 47.2139 24.8723 46.6097 25.0307 46.0724C25.1033 45.8264 25.2373 45.5943 25.4326 45.4004L27.8654 42.983C28.4871 42.3651 29.4954 42.3651 30.1171 42.983C30.7388 43.6009 30.7388 44.6026 30.1171 45.2204L27.6842 47.6376ZM22.5464 42.5334C22.3516 42.7268 22.1187 42.8597 21.8718 42.9322C21.3307 43.0905 20.7217 42.9573 20.2948 42.5334C19.8678 42.1092 19.734 41.504 19.8934 40.9664C19.9635 40.7298 20.0902 40.5064 20.2737 40.3173L20.2954 40.296L22.7282 37.8786L22.7491 37.8577C23.3724 37.2612 24.3646 37.2681 24.9792 37.8788C25.6011 38.4967 25.6011 39.4984 24.9792 40.116L22.5464 42.5334Z" fill="#24E6DB"/>
</svg>
