<svg width="358" height="400" viewBox="0 0 358 400" fill="none" xmlns="http://www.w3.org/2000/svg">
<path d="M327.692 366.154H38.4612C33.3632 366.154 29.2305 370.287 29.2305 375.385C29.2305 380.483 33.3632 384.616 38.4612 384.616H327.692C332.79 384.616 336.923 380.483 336.923 375.385C336.923 370.287 332.79 366.154 327.692 366.154Z" fill="#E4EBF7"/>
<circle cx="177.172" cy="181.018" r="165.848" fill="#597EF7"/>
<path fill-rule="evenodd" clip-rule="evenodd" d="M345.166 39.1287H141.725V20.8611C141.725 16.8984 144.931 13.6855 148.885 13.6855H338.006C341.96 13.6855 345.166 16.8984 345.166 20.8611V39.1287Z" fill="#253368"/>
<path fill-rule="evenodd" clip-rule="evenodd" d="M338.006 215.018H148.885C144.931 215.018 141.725 211.806 141.725 207.843V36.9893H345.166V207.843C345.166 211.806 341.96 215.018 338.006 215.018Z" fill="#E4EBF7"/>
<path fill-rule="evenodd" clip-rule="evenodd" d="M158.257 25.5257C158.257 28.0126 156.245 30.0289 153.763 30.0289C151.281 30.0289 149.27 28.0126 149.27 25.5257C149.27 23.0388 151.281 21.0225 153.763 21.0225C156.245 21.0225 158.257 23.0388 158.257 25.5257Z" fill="#FF7946"/>
<path fill-rule="evenodd" clip-rule="evenodd" d="M175.04 25.5257C175.04 28.0126 173.028 30.0289 170.546 30.0289C168.064 30.0289 166.053 28.0126 166.053 25.5257C166.053 23.0388 168.064 21.0225 170.546 21.0225C173.028 21.0225 175.04 23.0388 175.04 25.5257Z" fill="#FAAD14"/>
<path fill-rule="evenodd" clip-rule="evenodd" d="M191.821 25.5257C191.821 28.0126 189.809 30.0289 187.327 30.0289C184.846 30.0289 182.834 28.0126 182.834 25.5257C182.834 23.0388 184.846 21.0225 187.327 21.0225C189.809 21.0225 191.821 23.0388 191.821 25.5257Z" fill="#7CB305"/>
<path fill-rule="evenodd" clip-rule="evenodd" d="M163.713 190.802C162.479 190.802 161.479 189.8 161.479 188.564V58.8652C161.479 57.6297 162.479 56.6279 163.713 56.6279H325.4C326.634 56.6279 327.635 57.6297 327.635 58.8652V188.564C327.635 189.8 326.634 190.802 325.4 190.802H163.713Z" fill="white"/>
<path d="M217.632 113.162C218.562 112.365 219.97 112.544 220.675 113.534L220.711 113.587L253.248 162.356L278.415 144.671C278.713 144.462 279.061 144.335 279.423 144.302L279.501 144.297L312.755 142.561C313.901 142.502 314.878 143.382 314.938 144.528C314.997 145.653 314.148 146.616 313.032 146.706L312.972 146.71L280.314 148.414L253.895 166.979C252.958 167.638 251.668 167.411 251.009 166.484L250.973 166.432L218.555 117.841L180.667 150.279C179.811 151.011 178.532 150.927 177.78 150.099L177.738 150.052C177.005 149.196 177.09 147.917 177.917 147.165L177.965 147.123L217.632 113.162Z" fill="#FF7946"/>
<path d="M307.831 83.7291C308.47 82.7763 309.76 82.5218 310.713 83.1609C311.649 83.7883 311.911 85.0436 311.315 85.9909L311.281 86.0432L281.696 130.159C280.954 131.265 279.382 131.394 278.47 130.438L278.426 130.39L244.61 92.7659L221.169 108.582C220.839 108.805 220.451 108.928 220.053 108.937L219.974 108.937L179.282 108.272C178.135 108.253 177.22 107.308 177.239 106.161C177.257 105.034 178.17 104.131 179.29 104.117L179.35 104.118L219.388 104.772L243.785 88.3109C244.626 87.7433 245.751 87.8679 246.448 88.597L246.492 88.6443L279.731 125.628L307.831 83.7291Z" fill="#FAAD14"/>
<path d="M256.578 111.981C257.096 111.528 257.804 111.362 258.468 111.535L258.536 111.554L280.199 117.979L312.128 112.892C313.242 112.715 314.289 113.457 314.496 114.557L314.507 114.617C314.684 115.73 313.942 116.777 312.841 116.985L312.782 116.995L280.388 122.156C280.109 122.201 279.825 122.188 279.552 122.119L279.47 122.097L258.452 115.862L221.929 147.805C221.257 148.393 220.285 148.484 219.517 148.037L219.46 148.002L175.827 120.701C174.855 120.093 174.56 118.811 175.168 117.838C175.766 116.883 177.012 116.582 177.978 117.147L178.031 117.179L220.355 143.661L256.578 111.981Z" fill="#597EF7"/>
<path fill-rule="evenodd" clip-rule="evenodd" d="M219.117 73.6077H178.187C176.511 73.6077 175.141 72.2339 175.141 70.5548C175.141 68.8755 176.511 67.502 178.187 67.502H219.117C220.792 67.502 222.163 68.8755 222.163 70.5548C222.163 72.2339 220.792 73.6077 219.117 73.6077Z" fill="#CCD7EE"/>
<path fill-rule="evenodd" clip-rule="evenodd" d="M195.451 88.0061H180.219C178.536 88.0061 177.172 86.6392 177.172 84.9533C177.172 83.267 178.536 81.9004 180.219 81.9004H195.451C197.134 81.9004 198.498 83.267 198.498 84.9533C198.498 86.6392 197.134 88.0061 195.451 88.0061Z" fill="#CCD7EE"/>
<path d="M305.817 154.438C298.683 154.438 292.916 160.299 292.916 167.51C292.916 174.721 298.683 180.583 305.817 180.583C312.951 180.583 318.718 174.721 318.718 167.51C318.718 160.299 312.951 154.438 305.817 154.438ZM305.817 159.355C310.217 159.355 313.8 162.997 313.8 167.51C313.8 172.023 310.217 175.665 305.817 175.665C301.417 175.665 297.834 172.023 297.834 167.51C297.834 162.997 301.417 159.355 305.817 159.355Z" fill="#CCD7EE"/>
<path d="M314.396 160.616C315.645 160.082 317.09 160.661 317.624 161.909C318.342 163.586 318.718 165.412 318.718 167.289C318.718 168.825 318.466 170.328 317.979 171.747C317.538 173.031 316.14 173.715 314.856 173.275C313.592 172.841 312.909 171.48 313.307 170.213L313.328 170.151C313.639 169.245 313.8 168.281 313.8 167.289C313.8 166.129 313.579 165.008 313.159 163.978L313.103 163.844C312.569 162.595 313.148 161.15 314.396 160.616Z" fill="#597EF7"/>
<path fill-rule="evenodd" clip-rule="evenodd" d="M84.8688 290.856C84.8688 295.239 81.316 298.792 76.9336 298.792C72.5513 298.792 68.998 295.239 68.998 290.856C68.998 286.474 72.5513 282.921 76.9336 282.921C81.316 282.921 84.8688 286.474 84.8688 290.856Z" fill="#253368"/>
<path fill-rule="evenodd" clip-rule="evenodd" d="M75.4453 362.273H78.517V293.226H75.4453V362.273Z" fill="#253368"/>
<path fill-rule="evenodd" clip-rule="evenodd" d="M75.4456 362.273L39.6702 368.232L37.3613 366.565L75.4456 355.348V362.273Z" fill="#253368"/>
<path fill-rule="evenodd" clip-rule="evenodd" d="M78.5176 362.273L114.293 368.232L116.601 366.565L78.5176 355.348V362.273Z" fill="#253368"/>
<path fill-rule="evenodd" clip-rule="evenodd" d="M74.5449 370.285H79.4187V360.28H74.5449V370.285Z" fill="#253368"/>
<path fill-rule="evenodd" clip-rule="evenodd" d="M43.0228 370.417C43.0228 372.702 41.1708 374.554 38.8866 374.554C36.6021 374.554 34.75 372.702 34.75 370.417C34.75 368.133 36.6021 366.281 38.8866 366.281C41.1708 366.281 43.0228 368.133 43.0228 370.417Z" fill="#253368"/>
<path fill-rule="evenodd" clip-rule="evenodd" d="M81.1185 370.417C81.1185 372.702 79.2665 374.554 76.9819 374.554C74.6978 374.554 72.8457 372.702 72.8457 370.417C72.8457 368.133 74.6978 366.281 76.9819 366.281C79.2665 366.281 81.1185 368.133 81.1185 370.417Z" fill="#253368"/>
<path fill-rule="evenodd" clip-rule="evenodd" d="M119.576 370.417C119.576 372.702 117.724 374.554 115.439 374.554C113.155 374.554 111.303 372.702 111.303 370.417C111.303 368.133 113.155 366.281 115.439 366.281C117.724 366.281 119.576 368.133 119.576 370.417Z" fill="#253368"/>
<path fill-rule="evenodd" clip-rule="evenodd" d="M126.675 289.399H27.1934C27.1934 279.621 35.1194 271.695 44.8972 271.695H108.971C118.748 271.695 126.675 279.621 126.675 289.399Z" fill="#A3B5D6"/>
<path fill-rule="evenodd" clip-rule="evenodd" d="M108.437 223.931C108.437 223.931 107.691 236.354 96.3368 235.477C84.7592 234.582 86.004 222.042 86.004 222.042C86.004 222.042 85.4411 214.248 86.2482 203.766C86.8795 195.575 87.8492 184.878 88.7522 179.677C89.7253 174.062 94.8921 170.358 100.21 170.768C108.293 171.392 111.034 177.913 110.855 183.579C110.681 189.089 110.42 198.155 110.093 204.224C109.466 215.894 108.437 223.931 108.437 223.931Z" fill="#ADC6FF"/>
<path fill-rule="evenodd" clip-rule="evenodd" d="M133.786 239.084C135.152 244.192 146.516 242.457 146.516 242.457L152.086 246.998C152.969 247.609 153.347 247.013 153.827 247.122C155.121 247.417 155.431 246.057 155.431 246.057C155.925 245.946 156.566 246.452 157.04 245.265C157.04 245.265 157.961 245.406 158.276 244.32C158.394 243.916 156.615 238.445 155.554 235.245C155.087 233.839 153.872 232.817 152.41 232.597L138.81 230.547C138.81 230.547 131.948 232.211 133.786 239.084Z" fill="#C99382"/>
<path d="M145.68 238.892C145.525 238.825 145.345 238.898 145.279 239.053C145.22 239.192 145.27 239.349 145.391 239.429L145.44 239.455L149.457 241.172L153.468 246.702C153.556 246.823 153.717 246.861 153.848 246.798L153.895 246.769C154.017 246.681 154.054 246.52 153.991 246.389L153.963 246.342L149.903 240.744C149.881 240.714 149.854 240.689 149.824 240.668L149.775 240.642L145.68 238.892Z" fill="#9B6160"/>
<path d="M148.413 237.206C148.265 237.122 148.079 237.175 147.996 237.322C147.922 237.453 147.955 237.615 148.067 237.708L148.112 237.739L151.8 239.819L155.069 245.544C155.144 245.675 155.3 245.729 155.436 245.681L155.487 245.658C155.617 245.583 155.672 245.427 155.623 245.29L155.6 245.24L152.289 239.442C152.271 239.41 152.247 239.382 152.219 239.359L152.174 239.328L148.413 237.206Z" fill="#9B6160"/>
<path d="M151.059 235.645C150.927 235.54 150.734 235.563 150.629 235.695C150.536 235.813 150.544 235.979 150.639 236.088L150.68 236.126L153.163 238.092L156.146 244.236C156.211 244.371 156.363 244.436 156.503 244.397L156.554 244.377C156.689 244.312 156.754 244.16 156.715 244.02L156.696 243.968L153.682 237.762C153.669 237.734 153.651 237.709 153.63 237.686L153.597 237.655L151.059 235.645Z" fill="#9B6160"/>
<path fill-rule="evenodd" clip-rule="evenodd" d="M97.72 215.261C97.72 215.261 86.2774 212.852 83.9537 222.36C81.5581 232.166 92.4271 234.986 92.4271 234.986C92.4271 234.986 100.125 236.783 109.603 239.038C115.389 240.414 121.808 241.806 126.614 242.147C131.817 242.517 132.994 239.853 134.156 235.098C135.536 229.452 135.532 226.978 130.715 225.043C126.123 223.198 119.667 221.537 114.721 220.022C105.292 217.135 97.72 215.261 97.72 215.261Z" fill="#ADC6FF"/>
<path fill-rule="evenodd" clip-rule="evenodd" d="M136.552 241.377L139.238 230.382L132.013 227.772L128.939 240.351L136.552 241.377Z" fill="#ADC6FF"/>
<path fill-rule="evenodd" clip-rule="evenodd" d="M144.468 261.494C121.742 255.582 98.1888 249.703 79.3453 245.456C79.3453 245.456 65.1244 244.679 64.3723 257.675C63.6362 270.413 78.999 274.197 78.999 274.197L140.713 283.802C140.713 283.802 150.781 285.254 152.464 274.069C153.997 263.867 144.468 261.494 144.468 261.494Z" fill="#597EF7"/>
<path fill-rule="evenodd" clip-rule="evenodd" d="M140.463 321.7C136.429 320.89 132.694 324.056 132.837 328.174C133.001 332.912 133.19 339.313 133.3 346.209C133.414 353.306 133.522 359.187 134.029 359.934C136.264 363.225 140.73 364.449 145.318 367.709C148.95 370.29 149.577 371.516 154.205 372.384C160.765 373.615 157.707 370.828 150.423 362.015C143.933 354.164 144.37 350.482 144.37 350.482L145.578 328.308C145.75 325.139 143.571 322.324 140.463 321.7Z" fill="#C99382"/>
<path fill-rule="evenodd" clip-rule="evenodd" d="M149.767 359.931C154.506 365.205 159.938 369.374 159.806 371.878C159.674 374.384 157.702 376.646 149.542 373.746C143.958 371.762 145.556 370.562 140.226 367.09C137.564 365.356 136.593 365.542 134.139 363.524C132.733 361.713 133.366 352.916 133.366 352.916L142.707 363.165C142.707 363.165 140.278 358.392 142.274 357.357C144.269 356.322 146.107 355.618 147.284 356.467C148.46 357.315 149.767 359.931 149.767 359.931Z" fill="#7D4556"/>
<path fill-rule="evenodd" clip-rule="evenodd" d="M154.391 274.243C151.327 311.478 147.84 347.912 147.84 347.912L132.097 347.901L129.637 272.904C129.637 272.904 131.018 264.298 143.179 262.731C154.364 261.29 154.391 274.243 154.391 274.243Z" fill="#597EF7"/>
<path fill-rule="evenodd" clip-rule="evenodd" d="M41.4713 262.292C42.8884 247.273 43.264 239.55 44.9457 236.729C81.0983 237.764 90.1045 237.288 90.1045 237.288C90.1045 237.288 90.4729 242.601 92.1387 258.955C92.1387 258.955 81.0077 279.263 66.6447 279.263C53.6953 279.263 41.4713 262.292 41.4713 262.292Z" fill="#597EF7"/>
<path fill-rule="evenodd" clip-rule="evenodd" d="M44.9467 236.729L45.6304 229.917L89.8995 230.449L90.1055 237.271C90.1055 237.271 66.6768 238.174 44.9467 236.729Z" fill="#597EF7"/>
<path fill-rule="evenodd" clip-rule="evenodd" d="M64.8489 146.555C64.8489 146.555 58.7001 142.782 61.1623 136.08C58.669 130.088 62.1736 126.644 62.1736 126.644C62.1736 126.644 62.6815 118.971 67.7844 118.794C71.3787 111.079 80.1682 114.617 80.1682 114.617C80.1682 114.617 86.1235 110.227 93.9869 117.048C99.9617 117.564 100.134 114.59 101.953 116.756C103.774 118.922 104.39 123.811 101.729 125.589C106.059 127.721 101.672 134.561 101.672 134.561C101.672 134.561 102.915 138.711 97.6567 141.521C92.3975 144.331 89.9682 153.925 81.3305 156.547C73.0187 159.07 64.4955 156.017 64.8489 146.555Z" fill="#7D4556"/>
<path fill-rule="evenodd" clip-rule="evenodd" d="M67.3568 161.122L69.8554 147.991L87.2676 151.081L86.8387 162.665C86.6478 167.837 82.2357 171.833 77.0769 171.506C76.9783 171.499 76.8807 171.493 76.7812 171.487C71.5061 171.154 66.714 166.375 67.3568 161.122Z" fill="#C99382"/>
<path fill-rule="evenodd" clip-rule="evenodd" d="M74.5469 127.946C74.5469 127.946 75.4898 132.658 71.8511 133.733C72.3688 139.798 69.7583 139.225 69.7583 139.225C69.7583 139.225 65.6579 133.785 62.6984 138.421C59.8864 142.825 64.5107 149.467 68.9174 148.529C76.0279 160.373 90.6386 161.212 95.611 153.616C98.6317 149 97.6763 142.195 98.1034 139.013C99.1547 131.194 97.7518 128.796 97.7518 128.796C97.7518 128.796 94.7479 129.382 91.5203 126.868C87.9615 129.412 82.975 126.746 82.975 126.746C82.975 126.746 79.5245 131.001 74.5469 127.946Z" fill="#C99382"/>
<path d="M66.421 139.387C65.4155 139.172 64.7224 139.422 64.3412 139.987C64.1706 140.24 64.0999 140.491 64.084 140.675C64.0682 140.858 64.2039 141.02 64.3871 141.036C64.5703 141.052 64.7316 140.916 64.7475 140.732C64.7544 140.651 64.7959 140.505 64.8931 140.36C65.1165 140.029 65.5329 139.879 66.2818 140.039C66.9886 140.19 67.5739 140.737 67.9123 141.466C68.0539 141.771 68.1351 142.08 68.1443 142.324C68.1511 142.502 68.1201 142.593 68.1137 142.596C67.4272 142.973 66.8907 143.518 66.7123 144.119C66.4836 144.891 66.8536 145.644 67.8251 146.272C67.9796 146.372 68.1857 146.327 68.2854 146.172C68.3851 146.018 68.3406 145.811 68.1861 145.711C67.4437 145.232 67.2151 144.766 67.3507 144.309C67.471 143.903 67.8871 143.481 68.4337 143.181C69.5395 142.575 68.2407 139.776 66.421 139.387Z" fill="#9B6160"/>
<path d="M67.4018 141.837C67.0942 141.8 66.7758 141.789 66.4723 141.819C65.6475 141.902 65.0918 142.287 65.095 143.058C65.0958 143.242 65.2455 143.391 65.4294 143.39C65.6133 143.389 65.7617 143.239 65.761 143.055C65.7595 142.711 66.0126 142.536 66.5387 142.483C66.7868 142.458 67.059 142.468 67.3219 142.499L67.4428 142.516C67.4761 142.521 67.5021 142.525 67.5197 142.529C67.7002 142.564 67.8749 142.445 67.9099 142.265C67.9448 142.084 67.8268 141.909 67.6463 141.874L67.5212 141.853C67.4859 141.848 67.4459 141.843 67.4018 141.837Z" fill="#9B6160"/>
<path fill-rule="evenodd" clip-rule="evenodd" d="M86.0933 138.927C85.8163 142.127 83.0025 144.497 79.8051 144.222C76.6086 143.945 74.2414 141.126 74.5175 137.925C74.7928 134.725 77.6084 132.354 80.8049 132.63C84.0023 132.907 86.3695 135.726 86.0933 138.927Z" fill="white"/>
<path d="M80.839 132.222C84.2613 132.518 86.7956 135.535 86.5 138.962C86.2034 142.388 83.1911 144.925 79.7688 144.63C76.3471 144.334 73.8129 141.316 74.1086 137.89C74.3984 134.52 77.319 132.009 80.671 132.209L80.839 132.222ZM74.9242 137.96C74.6675 140.936 76.868 143.556 79.8392 143.813C82.811 144.069 85.4268 141.866 85.6844 138.891C85.9411 135.916 83.7404 133.295 80.7685 133.038C77.7972 132.781 75.18 134.985 74.9242 137.96Z" fill="#7D4556"/>
<path fill-rule="evenodd" clip-rule="evenodd" d="M100.177 139.597C99.9003 142.798 97.0865 145.168 93.8891 144.893C90.6926 144.616 88.3245 141.797 88.6015 138.596C88.8767 135.396 91.6924 133.025 94.8889 133.301C98.0863 133.578 100.453 136.397 100.177 139.597Z" fill="white"/>
<path d="M94.9249 132.893C98.3472 133.189 100.882 136.206 100.586 139.632C100.289 143.059 97.277 145.596 93.8548 145.301C90.4327 145.005 87.898 141.987 88.1945 138.561C88.4843 135.191 91.405 132.68 94.7569 132.88L94.9249 132.893ZM89.0101 138.631C88.7526 141.606 90.9536 144.227 93.9251 144.484C96.8969 144.74 99.5128 142.537 99.7703 139.562C100.027 136.587 97.8263 133.966 94.8544 133.709C91.8831 133.452 89.266 135.656 89.0101 138.631Z" fill="#7D4556"/>
<path d="M87.5221 137.976C87.3621 138.067 87.3059 138.27 87.3967 138.431L87.4808 138.583C87.5487 138.707 87.6245 138.849 87.7062 139.006C87.9397 139.455 88.1733 139.933 88.391 140.42C88.5872 140.859 88.761 141.284 88.9062 141.686C89.3953 143.04 89.5079 144.021 89.2009 144.375C88.8565 144.772 88.407 145.006 87.868 145.104C87.3192 145.203 86.7196 145.154 86.1368 145.011C85.9174 144.957 85.7546 144.904 85.6693 144.871C85.498 144.804 85.3049 144.888 85.238 145.06C85.1711 145.231 85.2558 145.425 85.4271 145.492L85.5412 145.533C85.6517 145.57 85.7997 145.615 85.9783 145.658C86.644 145.822 87.3322 145.878 87.986 145.76C88.6669 145.637 89.2536 145.331 89.7038 144.812C90.2377 144.196 90.1056 143.047 89.5325 141.459C89.3812 141.04 89.2014 140.601 88.9988 140.148C88.7753 139.648 88.536 139.158 88.2968 138.698L88.1377 138.397L87.976 138.102C87.8852 137.941 87.682 137.885 87.5221 137.976Z" fill="#9B6160"/>
<path fill-rule="evenodd" clip-rule="evenodd" d="M81.3834 146.982C81.3834 146.982 86.686 148.058 90.5645 147.776C90.5645 147.776 89.1624 151.514 85.3763 150.724C82.0147 150.021 81.3834 146.982 81.3834 146.982Z" fill="white"/>
<path d="M81.4542 146.639L82.1502 146.769C82.7033 146.867 83.3131 146.965 83.9613 147.056C85.3477 147.251 86.7142 147.39 87.99 147.446C88.9217 147.487 89.7775 147.482 90.5405 147.427C90.795 147.408 90.983 147.66 90.8933 147.899L90.8482 148.01C90.8024 148.117 90.7358 148.256 90.6472 148.42C90.4422 148.8 90.1875 149.179 89.8789 149.535C88.7529 150.83 87.2307 151.468 85.3063 151.066C83.9218 150.777 82.8637 150.096 82.097 149.145C81.7317 148.692 81.457 148.207 81.2595 147.722C81.1397 147.427 81.0715 147.195 81.0422 147.054C80.991 146.807 81.208 146.589 81.4542 146.639ZM82.0284 147.459L81.8993 147.435L81.9074 147.457C82.0805 147.882 82.3218 148.308 82.6415 148.705C83.3099 149.534 84.2287 150.126 85.4491 150.381C87.1047 150.726 88.3804 150.192 89.351 149.075L89.509 148.884C89.6615 148.691 89.7974 148.491 89.9172 148.289L89.9918 148.158L89.9802 148.159C89.3529 148.183 88.6771 148.177 87.9593 148.146C86.6587 148.088 85.2707 147.948 83.8638 147.75C83.207 147.657 82.5892 147.558 82.0284 147.459Z" fill="#7D4556"/>
<path d="M90.7974 131.388C90.6302 131.291 90.4162 131.348 90.3192 131.515C90.2222 131.683 90.2791 131.897 90.4462 131.994C92.2419 133.037 94.5343 133.459 96.9361 133.016C97.1262 132.981 97.2518 132.799 97.2168 132.608C97.1818 132.418 96.9994 132.292 96.8094 132.327C94.5741 132.74 92.4508 132.349 90.7974 131.388Z" fill="#7D4556"/>
<path d="M87.8632 136.718C87.2044 136.632 86.5095 136.633 85.8561 136.686L85.6043 136.709L85.4945 136.722L85.6027 137.535L85.8355 137.51C85.8624 137.508 85.8911 137.505 85.9215 137.503C86.5226 137.455 87.1639 137.454 87.7576 137.531C88.113 137.577 88.4302 137.65 88.6992 137.75L88.8296 137.802L89.1543 137.05C88.782 136.889 88.3478 136.781 87.8632 136.718Z" fill="#7D4556"/>
<path d="M94.5065 137.707C93.5099 137.621 92.7811 138.055 92.3184 138.806C92.0743 139.202 91.9514 139.592 91.9061 139.869C91.8695 140.092 92.0207 140.303 92.2438 140.34C92.4669 140.376 92.6774 140.225 92.714 140.002L92.7277 139.936C92.7377 139.893 92.7526 139.838 92.7731 139.773C92.831 139.589 92.911 139.405 93.015 139.236C93.3256 138.732 93.7721 138.466 94.4361 138.524C95.0421 138.576 95.391 138.884 95.5781 139.402C95.6784 139.68 95.7175 139.976 95.7183 140.232L95.7141 140.384C95.6946 140.609 95.8613 140.808 96.0865 140.827C96.293 140.845 96.4769 140.706 96.5211 140.509L96.5311 140.436C96.5315 140.428 96.5321 140.417 96.5334 140.395C96.5512 140.015 96.5077 139.566 96.348 139.123C96.0587 138.322 95.4539 137.789 94.5065 137.707Z" fill="#7D4556"/>
<path d="M80.5827 136.503C79.5862 136.417 78.8573 136.851 78.3942 137.601C78.15 137.997 78.0269 138.388 77.9815 138.665C77.9448 138.888 78.0959 139.099 78.3189 139.136C78.5217 139.169 78.7142 139.047 78.7751 138.857L78.8147 138.685C78.8236 138.651 78.8348 138.612 78.8485 138.569C78.9065 138.385 78.9866 138.201 79.0907 138.032C79.4016 137.528 79.8483 137.262 80.5123 137.32C81.118 137.372 81.4668 137.68 81.654 138.198C81.7544 138.476 81.7936 138.772 81.7945 139.028L81.7903 139.18C81.7709 139.405 81.9377 139.604 82.1629 139.623C82.3694 139.641 82.5532 139.502 82.5974 139.305L82.6082 139.217L82.6096 139.191C82.6274 138.811 82.5838 138.362 82.4239 137.919C82.1345 137.118 81.5298 136.585 80.5827 136.503Z" fill="#7D4556"/>
<path d="M74.5156 137.925L68.7956 137.43" stroke="#7D4556" stroke-width="1.383"/>
<path d="M84.5487 130.818C84.4764 130.639 84.2726 130.552 84.0934 130.624C83.4524 130.883 82.6929 131.065 81.8399 131.178C80.5463 131.348 79.1597 131.348 77.8608 131.246L77.5924 131.223L77.1761 131.179C76.9846 131.154 76.8089 131.289 76.7838 131.481C76.7587 131.672 76.8937 131.848 77.0852 131.873L77.28 131.896L77.5275 131.921C77.6153 131.929 77.7082 131.937 77.806 131.944C79.1494 132.05 80.5818 132.05 81.9311 131.872C82.8386 131.753 83.654 131.557 84.3552 131.274C84.5343 131.201 84.621 130.997 84.5487 130.818Z" fill="#7D4556"/>
<path d="M85.0904 154.338C84.9067 154.33 84.751 154.472 84.7426 154.656L84.7317 154.829C84.7245 154.924 84.714 155.042 84.6996 155.177C84.6576 155.571 84.5964 155.964 84.5128 156.328C84.339 157.087 84.0896 157.605 83.8143 157.756C83.653 157.845 83.5938 158.047 83.6822 158.209C83.7705 158.37 83.9728 158.43 84.1341 158.341C84.6323 158.068 84.9476 157.412 85.1619 156.477C85.252 156.084 85.3172 155.666 85.3618 155.248L85.3883 154.97L85.4079 154.686C85.4162 154.503 85.2741 154.347 85.0904 154.338Z" fill="#9B6160"/>
<path d="M86.2522 155.481C86.0683 155.48 85.9179 155.628 85.9161 155.812L85.9082 156.081C85.9056 156.14 85.9025 156.204 85.8985 156.274C85.8786 156.623 85.8454 156.972 85.7963 157.295C85.7476 157.615 85.6858 157.892 85.611 158.11C85.5512 158.284 85.6437 158.473 85.8176 158.533C85.9915 158.593 86.1809 158.5 86.2407 158.326C86.3303 158.066 86.4004 157.752 86.4546 157.396C86.5073 157.049 86.5423 156.681 86.5633 156.312L86.577 156.02C86.58 155.937 86.5815 155.868 86.582 155.818C86.5838 155.634 86.4361 155.483 86.2522 155.481Z" fill="#9B6160"/>
<path d="M83.5535 155.718C83.3777 155.664 83.1915 155.763 83.1376 155.939L83.1099 156.025C83.0923 156.078 83.069 156.145 83.0407 156.222C82.962 156.438 82.873 156.653 82.7765 156.852C82.5973 157.221 82.4125 157.485 82.2659 157.586L82.2231 157.611C82.0579 157.692 81.9893 157.892 82.07 158.057C82.1507 158.222 82.35 158.291 82.5153 158.21C82.8437 158.05 83.1165 157.677 83.3754 157.143C83.4829 156.922 83.5801 156.686 83.6661 156.451L83.7425 156.234C83.7557 156.194 83.7664 156.16 83.7744 156.134C83.8282 155.958 83.7294 155.772 83.5535 155.718Z" fill="#9B6160"/>
<path d="M87.2622 155.23C87.0985 155.254 86.98 155.393 86.9773 155.554L86.9808 155.608L87.2711 157.601C87.2977 157.783 87.4667 157.91 87.6487 157.883C87.8125 157.859 87.9309 157.72 87.9336 157.559L87.9301 157.505L87.6398 155.512C87.6159 155.348 87.4766 155.229 87.3163 155.227L87.2622 155.23Z" fill="#9B6160"/>
<path d="M75.8322 155.082C75.6784 154.981 75.472 155.024 75.3712 155.178C75.2704 155.332 75.3134 155.539 75.4672 155.64C75.9853 155.98 76.5194 156.289 77.0684 156.568C80.4118 158.269 83.9027 158.751 86.9017 158.546L87.1814 158.525C87.4362 158.503 87.6168 158.482 87.7148 158.467C87.8966 158.439 88.0217 158.269 87.9943 158.087C87.9668 157.905 87.7971 157.78 87.6153 157.808L87.463 157.827C87.3976 157.835 87.3178 157.843 87.2242 157.852L87.1261 157.86C84.1782 158.106 80.6913 157.663 77.37 155.973C76.8427 155.705 76.3296 155.408 75.8322 155.082Z" fill="#9B6160"/>
<path d="M82.666 144.656C82.614 144.48 82.4289 144.379 82.2525 144.431L82.0989 144.479C81.9804 144.518 81.8488 144.564 81.7073 144.618C81.3026 144.769 80.8976 144.947 80.5176 145.15C79.2465 145.83 78.5168 146.635 78.6938 147.61C78.7267 147.791 78.9 147.911 79.0809 147.878C79.2619 147.845 79.3819 147.672 79.349 147.49C79.242 146.902 79.7929 146.294 80.8313 145.738C81.1828 145.55 81.5617 145.384 81.9408 145.242L82.1223 145.176C82.2619 145.126 82.3713 145.091 82.4408 145.07C82.6172 145.018 82.718 144.833 82.666 144.656Z" fill="#9B6160"/>
<path fill-rule="evenodd" clip-rule="evenodd" d="M66.4456 161.744L64.5863 165.2C64.5863 165.2 51.6856 166.749 45.3867 170.548C39.6907 173.984 40.4082 210.249 41.2846 222.454C38.2159 236.783 49.6665 235.628 49.6665 235.628L90.5295 239.002C90.5295 239.002 96.5106 235.602 93.5369 225.504C94.2996 217.293 107.616 177.911 102.472 172.761C98.472 168.756 88.8167 167.973 88.8167 167.973L88.1694 163.958C88.1694 163.958 81.9717 163.249 66.4456 161.744Z" fill="#ADC6FF"/>
<path d="M100.507 188.442C100.32 188.424 100.153 188.561 100.135 188.748C99.7837 192.366 99.098 196.684 98.1328 201.556C97.5891 204.3 96.965 207.177 96.2761 210.145C95.463 213.648 94.5976 217.118 93.7269 220.43L93.2144 222.359C93.0688 222.901 92.9283 223.419 92.7937 223.911L92.443 225.182L92.1465 226.235C92.0945 226.416 92.1989 226.605 92.3797 226.657C92.5604 226.709 92.7491 226.605 92.801 226.424L93.1571 225.156L93.4505 224.092C93.6528 223.352 93.8684 222.554 94.0947 221.703C95.0645 218.058 96.0343 214.199 96.9395 210.3C97.63 207.325 98.2556 204.441 98.8009 201.688L99.0195 200.569C99.874 196.133 100.486 192.177 100.813 188.814C100.831 188.627 100.694 188.46 100.507 188.442Z" fill="#597EF7"/>
<path d="M67.7668 167.109C67.585 167.061 67.3987 167.17 67.3508 167.352C67.3029 167.534 67.4115 167.72 67.5933 167.768C73.9724 169.451 80.235 169.882 85.5081 169.596L85.9452 169.57C86.2149 169.554 86.4587 169.536 86.6754 169.518L87.1077 169.478C87.1228 169.476 87.1358 169.475 87.1469 169.474C87.3337 169.453 87.4681 169.284 87.447 169.097C87.4259 168.91 87.2574 168.775 87.0705 168.796L86.7726 168.825L86.2806 168.865C86.1613 168.873 86.0353 168.882 85.9029 168.89C80.6073 169.22 74.2437 168.818 67.7668 167.109Z" fill="#597EF7"/>
<path fill-rule="evenodd" clip-rule="evenodd" d="M108.251 328.98C103.866 328.255 99.9514 331.809 100.256 336.249C100.607 341.357 101.045 348.259 101.416 355.699C101.799 363.355 102.131 369.699 102.707 370.487C105.238 373.957 110.105 375.115 115.177 378.466C119.191 381.118 119.913 382.419 124.94 383.185C132.067 384.273 128.663 381.378 120.478 372.132C113.187 363.895 113.522 359.904 113.522 359.904L114.013 335.925C114.083 332.498 111.629 329.539 108.251 328.98Z" fill="#C99382"/>
<path fill-rule="evenodd" clip-rule="evenodd" d="M119.691 369.907C125 375.426 131.016 379.726 130.965 382.435C130.915 385.144 128.868 387.657 119.954 384.828C113.853 382.89 115.534 381.537 109.654 377.985C106.718 376.21 105.677 376.447 102.954 374.359C101.369 372.457 101.73 362.938 101.73 362.938L112.189 373.657C112.189 373.657 109.392 368.594 111.508 367.404C113.624 366.214 115.582 365.386 116.884 366.258C118.186 367.13 119.691 369.907 119.691 369.907Z" fill="#7D4556"/>
<path fill-rule="evenodd" clip-rule="evenodd" d="M121.094 276.717C119.184 317.023 116.786 356.479 116.786 356.479L99.7917 357.061L94.3256 276.2C94.3256 276.2 95.3307 264.117 108.561 264.712C120.498 265.248 121.094 276.717 121.094 276.717Z" fill="#597EF7"/>
<path fill-rule="evenodd" clip-rule="evenodd" d="M113.963 263.517C95.5888 256.696 72.1246 251.736 55.1271 248.275C55.1271 248.275 42.3757 249.978 41.5135 262.526C40.6691 274.824 54.5233 277.954 54.5233 277.954L110.252 285.138C110.252 285.138 119.346 286.199 121.024 275.366C122.556 265.484 113.963 263.517 113.963 263.517Z" fill="#597EF7"/>
<path d="M44.4731 238.596C44.2892 238.596 44.1401 238.745 44.1401 238.929C44.1401 239.095 44.2609 239.232 44.4191 239.258L44.4731 239.262H89.8077C89.9915 239.262 90.1406 239.113 90.1406 238.929C90.1406 238.763 90.0199 238.626 89.8617 238.6L89.8077 238.596H44.4731Z" fill="#253368"/>
<path d="M44.973 243.769C44.7891 243.769 44.6401 243.918 44.6401 244.102C44.6401 244.268 44.7608 244.405 44.919 244.431L44.973 244.435H90.4737C90.6576 244.435 90.8066 244.286 90.8066 244.102C90.8066 243.936 90.6859 243.799 90.5277 243.773L90.4737 243.769H44.973Z" fill="#253368"/>
<path d="M76.2078 238.513C76.0425 238.521 75.9111 238.648 75.8928 238.808L75.8911 238.862L76.1415 244.119C76.1502 244.303 76.3062 244.445 76.4899 244.436C76.6552 244.428 76.7866 244.301 76.8049 244.141L76.8066 244.087L76.5562 238.83C76.5475 238.646 76.3915 238.504 76.2078 238.513Z" fill="#253368"/>
<path fill-rule="evenodd" clip-rule="evenodd" d="M116.562 263.352L65.3406 252.229L117.439 239.612L159.385 253.069L116.562 263.352Z" fill="#CCD7EE"/>
<path fill-rule="evenodd" clip-rule="evenodd" d="M118.713 259.854L81.5129 251.776L118.469 242.492L149.814 252.385L118.713 259.854Z" fill="#4E5C93"/>
<path fill-rule="evenodd" clip-rule="evenodd" d="M65.2192 254.902L65.3275 252.246L117.627 263.172L116.574 265.954L65.2192 254.902Z" fill="#253368"/>
<path d="M125.225 245.113L95.0714 254.282C94.9541 254.318 94.8879 254.442 94.9235 254.559C94.9547 254.662 95.0535 254.726 95.1563 254.716L95.2004 254.707L125.354 245.539C125.471 245.503 125.538 245.379 125.502 245.261C125.471 245.158 125.372 245.095 125.269 245.104L125.225 245.113Z" fill="#CCD7EE"/>
<path d="M121.397 243.314L87.7143 252.942C87.5964 252.975 87.5282 253.098 87.5618 253.217C87.5913 253.32 87.689 253.385 87.7919 253.377L87.8362 253.369L121.519 243.742C121.636 243.708 121.705 243.585 121.671 243.467C121.642 243.364 121.544 243.298 121.441 243.306L121.397 243.314Z" fill="#CCD7EE"/>
<path d="M125.515 247.831L100.17 255.924C100.054 255.961 99.9891 256.086 100.026 256.203C100.059 256.305 100.159 256.368 100.261 256.357L100.305 256.347L125.65 248.254C125.767 248.217 125.831 248.092 125.794 247.975C125.762 247.873 125.662 247.811 125.559 247.822L125.515 247.831Z" fill="#CCD7EE"/>
<path d="M132.273 248.895L106.928 256.988C106.811 257.026 106.747 257.151 106.784 257.268C106.817 257.37 106.916 257.432 107.019 257.421L107.063 257.412L132.408 249.319C132.525 249.282 132.589 249.157 132.552 249.04C132.519 248.937 132.42 248.875 132.317 248.886L132.273 248.895Z" fill="#CCD7EE"/>
<path d="M138.49 250.321L113.145 258.414C113.028 258.451 112.964 258.576 113.001 258.693C113.034 258.796 113.133 258.858 113.236 258.847L113.28 258.838L138.625 250.745C138.742 250.707 138.806 250.582 138.769 250.465C138.736 250.363 138.636 250.301 138.534 250.312L138.49 250.321Z" fill="#CCD7EE"/>
<path d="M87.7422 250.495C87.6215 250.473 87.506 250.553 87.4842 250.674C87.465 250.78 87.5239 250.881 87.6198 250.92L87.663 250.932L119.561 256.722C119.681 256.744 119.797 256.663 119.819 256.543C119.838 256.437 119.779 256.335 119.683 256.297L119.64 256.284L87.7422 250.495Z" fill="#CCD7EE"/>
<path d="M95.0108 248.384C94.8902 248.363 94.7747 248.443 94.7528 248.564C94.7337 248.669 94.7926 248.771 94.8884 248.809L94.9316 248.822L126.83 254.611C126.951 254.633 127.066 254.553 127.088 254.432C127.107 254.327 127.048 254.225 126.953 254.186L126.909 254.174L95.0108 248.384Z" fill="#CCD7EE"/>
<path d="M103.939 247.206C103.819 247.184 103.703 247.264 103.681 247.385C103.662 247.49 103.721 247.592 103.817 247.631L103.86 247.643L135.758 253.433C135.879 253.455 135.994 253.374 136.016 253.254C136.035 253.148 135.976 253.046 135.88 253.008L135.837 252.995L103.939 247.206Z" fill="#CCD7EE"/>
<path d="M110.163 243.094C110.043 243.073 109.927 243.153 109.905 243.273C109.886 243.379 109.945 243.481 110.041 243.519L110.084 243.532L141.983 249.321C142.103 249.343 142.219 249.263 142.241 249.142C142.26 249.037 142.201 248.935 142.105 248.896L142.062 248.884L110.163 243.094Z" fill="#CCD7EE"/>
<path fill-rule="evenodd" clip-rule="evenodd" d="M116.614 265.958L118.925 266.291L159.484 256.016L179.404 189.478L135.997 195.623L116.614 265.958Z" fill="#253368"/>
<path fill-rule="evenodd" clip-rule="evenodd" d="M119.009 266.301L161.779 255.484C162.17 255.386 162.481 255.088 162.597 254.701L181.813 190.761C182.056 189.957 181.383 189.174 180.553 189.292L139.375 195.179C138.925 195.244 138.554 195.571 138.432 196.011L119.009 266.301Z" fill="#4E5C93"/>
<path fill-rule="evenodd" clip-rule="evenodd" d="M57.0561 222.817C57.0561 222.817 55.6568 235.184 44.3642 233.71C32.8496 232.207 34.7533 219.748 34.7533 219.748C34.7533 219.748 34.6006 211.936 35.9582 201.511C37.0193 193.365 38.5501 182.735 39.7248 177.586C40.9928 172.031 46.3469 168.605 51.6363 169.295C59.6737 170.345 62.0693 177 61.5925 182.649C61.129 188.143 60.3912 197.183 59.7465 203.226C58.5061 214.846 57.0561 222.817 57.0561 222.817Z" fill="#ADC6FF"/>
<path fill-rule="evenodd" clip-rule="evenodd" d="M89.7174 238.71C91.2047 244.27 103.573 242.382 103.573 242.382L109.634 247.323C110.594 247.988 111.007 247.34 111.529 247.459C112.937 247.78 113.274 246.299 113.274 246.299C113.813 246.178 114.51 246.73 115.026 245.438C115.026 245.438 116.028 245.592 116.371 244.409C116.498 243.969 114.563 238.015 113.408 234.532C112.9 233.002 111.579 231.891 109.987 231.65L95.1852 229.419C95.1852 229.419 87.7169 231.229 89.7174 238.71Z" fill="#C99382"/>
<path d="M102.664 238.501C102.495 238.428 102.3 238.507 102.227 238.676C102.162 238.829 102.219 239.002 102.355 239.088L102.403 239.114L106.775 240.983L111.14 247.001C111.236 247.133 111.411 247.174 111.553 247.106L111.605 247.075C111.737 246.978 111.778 246.803 111.709 246.661L111.679 246.609L107.259 240.517C107.235 240.485 107.206 240.457 107.173 240.435L107.12 240.407L102.664 238.501Z" fill="#9B6160"/>
<path d="M105.638 236.666C105.478 236.576 105.275 236.632 105.184 236.793C105.104 236.935 105.14 237.112 105.261 237.213L105.311 237.247L109.325 239.511L112.882 245.74C112.963 245.883 113.133 245.942 113.282 245.889L113.336 245.864C113.478 245.783 113.538 245.613 113.485 245.464L113.46 245.409L109.857 239.1C109.837 239.065 109.811 239.034 109.78 239.009L109.731 238.975L105.638 236.666Z" fill="#9B6160"/>
<path d="M108.515 234.966C108.371 234.852 108.161 234.877 108.047 235.021C107.946 235.15 107.954 235.329 108.058 235.448L108.102 235.489L110.805 237.629L114.051 244.316C114.123 244.465 114.292 244.536 114.446 244.49L114.496 244.47C114.645 244.397 114.716 244.229 114.67 244.075L114.65 244.024L111.37 237.269C111.355 237.239 111.336 237.212 111.314 237.187L111.277 237.153L108.515 234.966Z" fill="#9B6160"/>
<path fill-rule="evenodd" clip-rule="evenodd" d="M50.4658 212.782C50.4658 212.782 38.0136 210.159 35.4839 220.508C32.8752 231.18 44.7059 234.25 44.7059 234.25C44.7059 234.25 53.0834 236.205 63.3975 238.659C69.6955 240.157 76.6826 241.672 81.9124 242.043C87.5756 242.446 88.856 239.546 90.1204 234.372C91.6227 228.228 91.6192 225.534 86.376 223.428C81.3779 221.42 74.3509 219.612 68.9692 217.963C58.7075 214.821 50.4658 212.782 50.4658 212.782Z" fill="#ADC6FF"/>
<path fill-rule="evenodd" clip-rule="evenodd" d="M92.7295 241.205L95.6543 229.239L87.79 226.399L84.4443 240.088L92.7295 241.205Z" fill="#ADC6FF"/>
<path d="M61.5091 189.443C61.3221 189.423 61.1544 189.559 61.1344 189.746L61.0344 190.61C60.8054 192.481 60.3573 195.629 59.7118 199.955L57.4643 214.811C57.4402 214.981 57.5458 215.142 57.7108 215.187C60.7643 216.031 63.8838 216.93 67.0229 217.879L69.169 218.529L76.2767 220.608L77.4336 220.951C81.0074 222.018 83.5737 222.869 85.7489 223.743C88.3059 224.77 89.5495 225.918 89.9675 227.569C89.9906 227.66 90.0503 227.737 90.1311 227.783L90.182 227.806L94.7502 229.454L91.9722 240.825L87.0097 240.157C86.9255 240.145 86.8409 240.166 86.772 240.213L86.7235 240.253C85.575 241.403 83.9343 241.88 81.4362 241.702C77.029 241.389 71.3672 240.312 63.4446 238.437L56.866 236.876L44.2828 233.917C44.0997 233.874 43.9166 233.988 43.8739 234.172C43.8313 234.355 43.9451 234.538 44.1283 234.581L49.6054 235.865C52.2967 236.497 55.0861 237.155 57.9217 237.827L63.7545 239.211C71.4681 241.026 77.021 242.072 81.3879 242.382C83.9005 242.562 85.6694 242.104 86.9544 240.971L87.0827 240.854L92.1842 241.542C92.3376 241.563 92.4828 241.477 92.5423 241.339L92.5604 241.285L95.4843 229.319C95.5211 229.169 95.4518 229.015 95.321 228.941L95.2691 228.918L90.5793 227.224L90.5391 227.091C90.0042 225.416 88.6722 224.222 86.2278 223.202L86.0024 223.11L85.5409 222.927C83.5931 222.167 81.3264 221.413 78.3376 220.51L75.7403 219.743C74.2556 219.312 70.8885 218.331 69.2056 217.829L68.5685 217.636C65.4192 216.672 62.2832 215.756 59.2067 214.896L58.1821 214.611L60.3369 200.38C61.1247 195.108 61.6282 191.536 61.8115 189.819C61.8315 189.631 61.6961 189.463 61.5091 189.443Z" fill="#597EF7"/>
<path fill-rule="evenodd" clip-rule="evenodd" d="M224.873 264.329C240.34 257.055 249.558 276.13 241.779 286.751C232.287 299.711 227.425 314.624 224.717 319.117C222.433 322.907 216.176 332.147 208.642 327.888C201.708 323.969 205.487 308.585 205.487 308.585C205.487 308.585 205.793 273.301 224.873 264.329Z" fill="#5B8C00"/>
<path fill-rule="evenodd" clip-rule="evenodd" d="M178.353 324.926C173.095 317.874 171.175 307.753 177.044 305.157C182.671 302.669 191.992 308.796 196.309 320.587C200.626 332.378 203.117 340.855 198.894 342.329C191.965 344.748 185.298 334.242 178.353 324.926Z" fill="#5B8C00"/>
<path fill-rule="evenodd" clip-rule="evenodd" d="M233.631 325.462C227.684 332.391 219.102 346.329 213.726 341.447C210.467 338.489 214.823 324.478 226.747 316.855C236.89 310.371 239.579 318.533 233.631 325.462Z" fill="#7CB305"/>
<path fill-rule="evenodd" clip-rule="evenodd" d="M176.723 277.379C178.984 275.866 181.829 275.521 184.425 276.348C188.048 277.501 193.546 280.936 198.987 290.796C206.092 303.668 209.79 317.78 209.059 326.719C208.581 332.565 201.337 335.085 197.284 330.823C195.423 328.865 193.454 325.848 191.527 321.27C183.773 302.849 176.524 291.305 175.659 290.146C173.353 287.052 171.703 280.737 176.723 277.379Z" fill="#7CB305"/>
<path fill-rule="evenodd" clip-rule="evenodd" d="M181.923 284.727C181.999 285.637 181.32 286.436 180.405 286.512C179.49 286.589 178.686 285.913 178.609 285.004C178.533 284.094 179.212 283.295 180.127 283.219C181.042 283.142 181.846 283.818 181.923 284.727Z" fill="white"/>
<path fill-rule="evenodd" clip-rule="evenodd" d="M196.042 291.783C196.119 292.693 195.44 293.492 194.525 293.568C193.61 293.645 192.806 292.969 192.729 292.06C192.652 291.15 193.332 290.351 194.247 290.275C195.162 290.198 195.965 290.874 196.042 291.783Z" fill="white"/>
<path fill-rule="evenodd" clip-rule="evenodd" d="M193.676 310.571C193.764 311.612 192.985 312.528 191.938 312.615C190.89 312.702 189.969 311.929 189.882 310.887C189.794 309.846 190.572 308.93 191.62 308.843C192.667 308.756 193.588 309.529 193.676 310.571Z" fill="white"/>
<path fill-rule="evenodd" clip-rule="evenodd" d="M237.044 282.494C237.044 283.972 235.839 285.171 234.352 285.171C232.865 285.171 231.66 283.972 231.66 282.494C231.66 281.016 232.865 279.817 234.352 279.817C235.839 279.817 237.044 281.016 237.044 282.494Z" fill="white"/>
<path fill-rule="evenodd" clip-rule="evenodd" d="M215.371 290.667C215.371 292.146 214.166 293.344 212.679 293.344C211.192 293.344 209.987 292.146 209.987 290.667C209.987 289.189 211.192 287.991 212.679 287.991C214.166 287.991 215.371 289.189 215.371 290.667Z" fill="white"/>
<path fill-rule="evenodd" clip-rule="evenodd" d="M222.39 308.836C222.39 309.454 221.887 309.955 221.265 309.955C220.644 309.955 220.14 309.454 220.14 308.836C220.14 308.218 220.644 307.717 221.265 307.717C221.887 307.717 222.39 308.218 222.39 308.836Z" fill="white"/>
<path fill-rule="evenodd" clip-rule="evenodd" d="M230.497 323.143C230.497 324.056 229.753 324.796 228.835 324.796C227.917 324.796 227.173 324.056 227.173 323.143C227.173 322.231 227.917 321.491 228.835 321.491C229.753 321.491 230.497 322.231 230.497 323.143Z" fill="white"/>
<path d="M191.67 326.809C191.825 326.662 192.071 326.667 192.218 326.821L192.289 326.898L192.343 326.957C192.441 327.065 192.554 327.194 192.68 327.345C193.041 327.772 193.441 328.282 193.872 328.875C195.1 330.566 196.326 332.582 197.471 334.921C200.736 341.598 202.694 349.528 202.694 358.683C202.694 358.896 202.52 359.068 202.306 359.068C202.092 359.068 201.918 358.896 201.918 358.683C201.918 349.649 199.989 341.833 196.773 335.258C195.649 332.96 194.446 330.982 193.244 329.327C192.849 328.783 192.481 328.312 192.148 327.914L192.086 327.84C191.992 327.728 191.906 327.629 191.829 327.542L191.732 327.434C191.696 327.394 191.671 327.368 191.657 327.353C191.51 327.199 191.515 326.955 191.67 326.809Z" fill="#253368"/>
<path d="M220.955 329.506C221.083 329.335 221.326 329.3 221.498 329.428C221.669 329.555 221.704 329.796 221.576 329.967C220.164 331.847 218.862 333.868 217.663 336.01C215.131 340.54 213.172 345.396 211.719 350.252C211.21 351.951 210.801 353.529 210.483 354.945L210.418 355.235C210.342 355.581 210.276 355.897 210.22 356.18L210.184 356.365L210.12 356.714C210.084 356.924 209.885 357.066 209.673 357.03C209.462 356.995 209.32 356.796 209.356 356.586L209.378 356.462C209.396 356.362 209.418 356.244 209.444 356.109L209.508 355.788C209.571 355.482 209.643 355.144 209.726 354.776L209.796 354.467C210.108 353.116 210.499 351.627 210.976 350.032C212.444 345.125 214.423 340.219 216.986 335.636C218.2 333.464 219.522 331.414 220.955 329.506Z" fill="#253368"/>
<path d="M227.729 281.426C227.877 281.568 227.888 281.798 227.757 281.952L227.74 281.971C227.733 281.979 227.716 281.997 227.692 282.023L227.596 282.127L227.541 282.188C227.374 282.373 227.18 282.595 226.961 282.856C226.333 283.602 225.633 284.5 224.878 285.551C222.718 288.558 220.557 292.179 218.538 296.419C215.178 303.477 212.561 311.528 210.975 320.579C209.049 331.569 208.73 343.574 210.307 356.604C210.332 356.816 210.181 357.008 209.968 357.033C209.755 357.058 209.562 356.908 209.537 356.696C207.951 343.592 208.272 331.51 210.211 320.446C211.81 311.326 214.448 303.209 217.838 296.089C219.876 291.807 222.061 288.146 224.247 285.103L224.417 284.869C225.091 283.94 225.721 283.133 226.295 282.447L226.366 282.361C226.572 282.116 226.757 281.903 226.92 281.722L226.964 281.673C227.014 281.617 227.06 281.567 227.1 281.524L227.181 281.438C227.329 281.284 227.574 281.279 227.729 281.426Z" fill="#253368"/>
<path d="M194.177 304.279C194.36 304.169 194.598 304.227 194.709 304.409L194.748 304.474C194.779 304.526 194.816 304.588 194.857 304.661L194.918 304.766C195.022 304.948 195.139 305.157 195.268 305.392L195.374 305.588C195.768 306.318 196.201 307.162 196.662 308.119L196.725 308.25C198.23 311.384 199.734 315.049 201.137 319.214C205.066 330.875 207.456 344.11 207.546 358.68C207.547 358.893 207.375 359.067 207.161 359.068C206.947 359.069 206.772 358.898 206.771 358.685C206.682 344.2 204.306 331.045 200.402 319.458C199.034 315.399 197.571 311.821 196.107 308.752L196.025 308.582C195.525 307.539 195.059 306.63 194.639 305.856L194.512 305.625C194.391 305.405 194.282 305.211 194.185 305.045L194.14 304.966L194.046 304.809C193.935 304.627 193.994 304.39 194.177 304.279Z" fill="#253368"/>
<path fill-rule="evenodd" clip-rule="evenodd" d="M224.009 377.798H190.504C188.693 377.798 187.211 376.325 187.211 374.524V350.223C187.211 348.422 188.693 346.949 190.504 346.949H224.009C225.821 346.949 227.303 348.422 227.303 350.223V374.524C227.303 376.325 225.821 377.798 224.009 377.798Z" fill="#253368"/>
</svg>
