<svg width="61" height="62" viewBox="0 0 61 62" fill="none" xmlns="http://www.w3.org/2000/svg">
<g filter="url(#filter0_d)">
<path d="M47.6667 13.0833V48.6667H12.0833V13.0833H47.6667ZM50.4625 8H9.2875C8.01667 8 7 9.01667 7 10.2875V51.4625C7 52.4792 8.01667 53.75 9.2875 53.75H50.4625C51.4792 53.75 52.75 52.4792 52.75 51.4625V10.2875C52.75 9.01667 51.4792 8 50.4625 8ZM27.3333 18.1667H42.5833V23.25H27.3333V18.1667ZM27.3333 28.3333H42.5833V33.4167H27.3333V28.3333ZM27.3333 38.5H42.5833V43.5833H27.3333V38.5ZM17.1667 18.1667H22.25V23.25H17.1667V18.1667ZM17.1667 28.3333H22.25V33.4167H17.1667V28.3333ZM17.1667 38.5H22.25V43.5833H17.1667V38.5Z" fill="#24E6DB"/>
</g>
<defs>
<filter id="filter0_d" x="-4" y="0" width="69" height="69" filterUnits="userSpaceOnUse" color-interpolation-filters="sRGB">
<feFlood flood-opacity="0" result="BackgroundImageFix"/>
<feColorMatrix in="SourceAlpha" type="matrix" values="0 0 0 0 0 0 0 0 0 0 0 0 0 0 0 0 0 0 127 0"/>
<feOffset dy="4"/>
<feGaussianBlur stdDeviation="2"/>
<feColorMatrix type="matrix" values="0 0 0 0 0 0 0 0 0 0 0 0 0 0 0 0 0 0 0.25 0"/>
<feBlend mode="normal" in2="BackgroundImageFix" result="effect1_dropShadow"/>
<feBlend mode="normal" in="SourceGraphic" in2="effect1_dropShadow" result="shape"/>
</filter>
</defs>
</svg>
