<svg width="504" height="380" viewBox="0 0 504 380" fill="none" xmlns="http://www.w3.org/2000/svg">
<path fill-rule="evenodd" clip-rule="evenodd" d="M262.706 59.9737H29.3711V39.066C29.3711 34.5307 33.0482 30.8535 37.5836 30.8535H254.494C259.029 30.8535 262.706 34.5307 262.706 39.066V59.9737Z" fill="#253368"/>
<path fill-rule="evenodd" clip-rule="evenodd" d="M254.494 261.283H37.5836C33.0482 261.283 29.3711 257.606 29.3711 253.07V57.5254H262.706V253.07C262.706 257.606 259.029 261.283 254.494 261.283Z" fill="#E4EBF7"/>
<path fill-rule="evenodd" clip-rule="evenodd" d="M48.3334 44.406C48.3334 47.2523 46.0257 49.56 43.1791 49.56C40.3328 49.56 38.0254 47.2523 38.0254 44.406C38.0254 41.5597 40.3328 39.252 43.1791 39.252C46.0257 39.252 48.3334 41.5597 48.3334 44.406Z" fill="#FF7946"/>
<path fill-rule="evenodd" clip-rule="evenodd" d="M67.5811 44.406C67.5811 47.2523 65.2738 49.56 62.4271 49.56C59.5808 49.56 57.2734 47.2523 57.2734 44.406C57.2734 41.5597 59.5808 39.252 62.4271 39.252C65.2738 39.252 67.5811 41.5597 67.5811 44.406Z" fill="#FAAD14"/>
<path fill-rule="evenodd" clip-rule="evenodd" d="M86.8292 44.406C86.8292 47.2523 84.5218 49.56 81.6752 49.56C78.8289 49.56 76.5215 47.2523 76.5215 44.406C76.5215 41.5597 78.8289 39.252 81.6752 39.252C84.5218 39.252 86.8292 41.5597 86.8292 44.406Z" fill="#7CB305"/>
<path fill-rule="evenodd" clip-rule="evenodd" d="M54.59 233.567C53.1744 233.567 52.0273 232.421 52.0273 231.006V82.5635C52.0273 81.1494 53.1744 80.0029 54.59 80.0029H240.036C241.451 80.0029 242.598 81.1494 242.598 82.5635V231.006C242.598 232.421 241.451 233.567 240.036 233.567H54.59Z" fill="white"/>
<path fill-rule="evenodd" clip-rule="evenodd" d="M118.133 99.4364H71.1894C69.2673 99.4364 67.6953 97.864 67.6953 95.9423C67.6953 94.0202 69.2673 92.4482 71.1894 92.4482H118.133C120.055 92.4482 121.627 94.0202 121.627 95.9423C121.627 97.864 120.055 99.4364 118.133 99.4364Z" fill="#E4EBF7"/>
<path fill-rule="evenodd" clip-rule="evenodd" d="M90.9928 115.915H73.5218C71.5922 115.915 70.0273 114.35 70.0273 112.421C70.0273 110.491 71.5922 108.927 73.5218 108.927H90.9928C92.9228 108.927 94.4869 110.491 94.4869 112.421C94.4869 114.35 92.9228 115.915 90.9928 115.915Z" fill="#E4EBF7"/>
<path d="M146.022 113.038C121.88 113.038 102.309 132.609 102.309 156.752C102.309 180.894 121.88 200.465 146.022 200.465C170.164 200.465 189.735 180.894 189.735 156.752C189.735 132.609 170.164 113.038 146.022 113.038ZM146.022 126.726C162.605 126.726 176.048 140.169 176.048 156.752C176.048 173.334 162.605 186.777 146.022 186.777C129.439 186.777 115.996 173.334 115.996 156.752C115.996 140.169 129.439 126.726 146.022 126.726Z" fill="#FAAD14"/>
<path d="M176.716 135.201C180.153 133.628 184.214 135.138 185.787 138.575C188.377 144.233 189.736 150.403 189.736 156.752C189.736 161.951 188.825 167.035 187.065 171.824C185.762 175.372 181.83 177.191 178.282 175.888C174.769 174.598 172.951 170.731 174.179 167.211L174.217 167.104C175.423 163.821 176.048 160.334 176.048 156.752C176.048 152.469 175.155 148.324 173.449 144.51L173.341 144.272C171.768 140.835 173.279 136.774 176.716 135.201Z" fill="#FF7946"/>
<path d="M217.575 191.941C209.393 191.941 202.777 198.652 202.777 206.91C202.777 215.168 209.393 221.878 217.575 221.878C225.756 221.878 232.372 215.168 232.372 206.91C232.372 198.652 225.756 191.941 217.575 191.941ZM217.575 197.583C222.622 197.583 226.73 201.75 226.73 206.91C226.73 212.07 222.622 216.237 217.575 216.237C212.527 216.237 208.419 212.07 208.419 206.91C208.419 201.75 212.527 197.583 217.575 197.583Z" fill="#E4EBF7"/>
<path d="M227.413 199.013C228.845 198.399 230.503 199.062 231.117 200.494C231.941 202.415 232.372 204.506 232.372 206.656C232.372 208.415 232.083 210.137 231.524 211.762C231.018 213.235 229.413 214.019 227.94 213.512C226.492 213.014 225.71 211.456 226.164 210.004L226.189 209.927C226.546 208.892 226.73 207.79 226.73 206.656C226.73 205.272 226.455 203.937 225.932 202.717C225.318 201.285 225.981 199.627 227.413 199.013Z" fill="#597EF7"/>
<path fill-rule="evenodd" clip-rule="evenodd" d="M396.889 339.153C399.638 343.468 405.292 344.855 409.723 342.303L495.282 293.045C502.994 288.258 505.312 278.088 500.432 270.43C495.509 262.705 485.193 260.556 477.598 265.673L399.102 326.437C395.19 329.466 394.23 334.979 396.889 339.153Z" fill="#FFC999"/>
<path fill-rule="evenodd" clip-rule="evenodd" d="M406.345 354.901C406.345 354.901 415.448 339.691 409.022 331.448C403.203 323.983 395.061 328.894 395.061 328.894C395.061 328.894 386.193 332.493 378.623 339.969C373.633 344.895 365.097 355.222 367.329 358.194C370.238 362.069 379.22 349.816 382.09 351.863C385.034 353.963 383.368 356.632 381.569 363.95C380.445 368.522 377.538 372.588 377.324 376.648C376.907 384.583 394.591 378.857 406.345 354.901Z" fill="#FFC999"/>
<path d="M389.124 357.887C388.801 357.891 388.536 358.131 388.49 358.441L388.483 358.546L388.479 358.793C388.469 359.121 388.436 359.588 388.365 360.18C388.217 361.422 387.946 362.805 387.522 364.294C386.318 368.519 384.137 372.782 380.732 376.825C380.501 377.099 380.536 377.51 380.811 377.742C381.085 377.973 381.496 377.938 381.727 377.663C385.255 373.474 387.521 369.047 388.773 364.651C389.216 363.093 389.5 361.643 389.656 360.334L389.712 359.821C389.751 359.419 389.772 359.084 389.78 358.82L389.783 358.529C389.778 358.17 389.483 357.882 389.124 357.887Z" fill="#DD936F"/>
<path d="M395.667 358.509C395.314 358.441 394.974 358.673 394.906 359.025C394.279 362.301 393.063 365.47 391.431 368.46C390.566 370.044 389.639 371.476 388.713 372.731L388.337 373.23C388.216 373.388 388.099 373.536 387.987 373.676L387.655 374.081C387.583 374.166 387.529 374.228 387.495 374.266C387.256 374.534 387.278 374.945 387.546 375.185C387.813 375.425 388.224 375.402 388.464 375.135L388.731 374.822L388.828 374.705C389.11 374.361 389.423 373.96 389.76 373.504C390.719 372.204 391.678 370.723 392.572 369.084C394.266 365.982 395.529 362.689 396.184 359.27C396.251 358.917 396.02 358.576 395.667 358.509Z" fill="#DD936F"/>
<path d="M401.559 355.873C401.201 355.843 400.887 356.108 400.856 356.466L400.838 356.625C400.816 356.789 400.775 357.032 400.711 357.35C400.556 358.109 400.318 359.001 399.978 360.017C399.001 362.942 397.403 366.269 395.042 369.934C394.848 370.236 394.935 370.638 395.237 370.833C395.538 371.028 395.941 370.941 396.136 370.639C398.555 366.883 400.2 363.458 401.212 360.43C401.569 359.363 401.82 358.42 401.985 357.61L402.06 357.222C402.112 356.929 402.14 356.713 402.152 356.577C402.183 356.219 401.917 355.904 401.559 355.873Z" fill="#DD936F"/>
<path fill-rule="evenodd" clip-rule="evenodd" d="M354.22 218.182C354.22 218.182 319.704 196.116 352.302 169.254C344.632 150.065 362.848 141.751 362.848 141.751C357.736 137.913 350.064 121.923 369.561 108.172C369.561 86.4257 388.103 85.6801 388.103 85.6801C388.103 85.6801 414.662 70.7315 426.946 89.3356C450.85 93.9858 446.264 119.365 446.264 119.365C446.264 119.365 460.006 128.959 453.613 141.751C461.284 149.425 462.563 157.739 456.809 163.496C478.861 184.603 462.563 203.791 462.563 203.791C462.563 203.791 474.892 236.118 433.184 236.118C426.473 261.062 384.286 256.265 383.328 235.158C358.399 247.631 354.22 218.182 354.22 218.182Z" fill="#253368"/>
<path fill-rule="evenodd" clip-rule="evenodd" d="M379.987 117.977C393.772 120.399 397.963 109.96 397.963 109.96C397.963 109.96 403.65 95.259 405.107 104.284C405.882 109.081 413.294 102.717 416.702 107.829C418.993 111.272 413.261 115.706 420.711 124.881C425.027 130.196 408.001 134.437 418.505 144.234C418.505 144.234 412.02 157.038 424.849 160.938L425.751 175.174C426.265 183.314 419.798 190.198 411.647 190.185C403.7 190.173 397.331 183.598 397.565 175.649L398.088 157.939C378.168 157.939 377.196 130.542 379.987 117.977Z" fill="#FFC999"/>
<path d="M405.401 132.56C405.056 132.214 404.496 132.214 404.15 132.56L403.97 132.725C403.887 132.797 403.782 132.885 403.656 132.984C403.223 133.326 402.716 133.67 402.138 133.991C400.182 135.079 397.949 135.643 395.492 135.404C395.006 135.357 394.574 135.714 394.527 136.2C394.48 136.687 394.835 137.119 395.322 137.166C398.164 137.442 400.747 136.79 402.998 135.538C404.14 134.902 404.952 134.261 405.401 133.812C405.746 133.466 405.747 132.906 405.401 132.56Z" fill="#F5222D"/>
<path d="M394.527 118.785C394.205 118.808 393.954 119.062 393.926 119.374L393.925 119.49C393.942 119.963 393.849 120.753 393.54 121.824C393.042 123.546 392.112 125.48 390.641 127.588C390.428 127.893 390.514 128.314 390.829 128.512C392.396 129.496 393.745 130.295 394.88 130.926L395.214 131.11C395.552 131.295 395.85 131.454 396.109 131.587L396.667 131.864C396.993 132.015 397.379 131.872 397.53 131.546C397.68 131.219 397.538 130.833 397.212 130.682L396.882 130.52L396.3 130.218C396.156 130.141 396.002 130.058 395.838 129.968L395.169 129.597C394.475 129.205 393.704 128.752 392.854 128.235L392.093 127.765L392.299 127.452C393.422 125.708 394.196 124.07 394.676 122.56L394.789 122.185C395.109 121.08 395.227 120.208 395.228 119.602L395.222 119.388C395.197 119.029 394.886 118.759 394.527 118.785Z" fill="#DD936F"/>
<path d="M411.36 154.637C411.189 154.321 410.794 154.204 410.478 154.376C406.615 156.479 402.611 157.536 398.591 157.591C398.232 157.596 397.944 157.892 397.949 158.251C397.954 158.61 398.249 158.898 398.608 158.893C402.84 158.835 407.052 157.723 411.1 155.519C411.415 155.348 411.532 154.952 411.36 154.637Z" fill="#DD936F"/>
<path d="M403.783 118.64C403.313 118.64 402.932 119.021 402.932 119.491C402.932 122.762 405.393 125.441 408.468 125.441C411.541 125.441 414.002 122.762 414.002 119.491C414.002 119.021 413.621 118.64 413.151 118.64C412.681 118.64 412.301 119.021 412.301 119.491C412.301 121.852 410.568 123.739 408.468 123.739C406.366 123.739 404.633 121.852 404.633 119.491C404.633 119.021 404.252 118.64 403.783 118.64Z" fill="#253368"/>
<path d="M382.317 119.225C381.871 119.225 381.51 119.586 381.51 120.032C381.51 123.264 383.721 125.938 386.532 125.938C389.344 125.938 391.555 123.264 391.555 120.032C391.555 119.586 391.193 119.225 390.748 119.225C390.302 119.225 389.941 119.586 389.941 120.032C389.941 122.433 388.378 124.324 386.532 124.324C384.688 124.324 383.124 122.432 383.124 120.032C383.124 119.586 382.763 119.225 382.317 119.225Z" fill="#253368"/>
<path d="M413.022 110C409.775 108.629 406.336 108.767 403.085 109.812C402.151 110.112 401.453 110.416 401.053 110.627C400.637 110.847 400.478 111.362 400.698 111.777C400.917 112.193 401.432 112.352 401.847 112.133L402.061 112.029C402.127 111.998 402.205 111.963 402.295 111.924C402.678 111.757 403.118 111.59 403.606 111.433C406.503 110.501 409.544 110.379 412.361 111.569C412.875 111.786 413.377 112.046 413.864 112.351C414.263 112.6 414.788 112.479 415.037 112.08C415.286 111.682 415.164 111.156 414.766 110.907C414.202 110.554 413.62 110.253 413.022 110Z" fill="#253368"/>
<path fill-rule="evenodd" clip-rule="evenodd" d="M268.929 206.828L251.319 171.467C251.319 171.467 227.669 144.384 221.281 147.396C215.485 151.005 231.011 157.252 235.241 165.325C229.252 165.949 233.322 173.699 233.322 173.699C233.322 173.699 228.579 174.347 230.974 180.818C227.001 183.987 231.802 191.061 231.802 191.061C231.802 191.061 245.671 207.435 257.688 219.249C257.688 219.249 274.153 230.445 268.929 206.828Z" fill="#FFC999"/>
<path fill-rule="evenodd" clip-rule="evenodd" d="M264.443 194.625C264.443 194.625 260.696 182.103 258.411 175.787C256.126 169.47 256.876 157.235 252.657 161.161C249.822 163.802 251.566 170.707 252.558 175.851C253.551 180.993 247.301 194.646 254.949 202.06C260.117 207.068 266.86 206.693 264.443 194.625Z" fill="#FFC999"/>
<path d="M237.364 164.453C237.065 164.229 236.642 164.291 236.419 164.589C236.196 164.888 236.257 165.312 236.555 165.535L236.95 165.838L237.453 166.237C237.629 166.378 237.813 166.528 238.004 166.686C239.096 167.586 240.187 168.554 241.204 169.549C242.351 170.672 243.328 171.758 244.082 172.778C245.982 175.344 246.248 177.099 244.738 178.054C244.423 178.253 244.329 178.67 244.528 178.985C244.727 179.301 245.144 179.395 245.459 179.195C247.863 177.675 247.471 175.086 245.168 171.974C244.366 170.89 243.342 169.752 242.148 168.584C241.102 167.559 239.982 166.567 238.863 165.643L238.297 165.183L237.487 164.546C237.436 164.507 237.395 164.476 237.364 164.453Z" fill="#DD936F"/>
<path d="M235.246 173.163C235.072 173.493 235.198 173.902 235.528 174.076L235.918 174.289L236.417 174.57C236.592 174.671 236.774 174.777 236.964 174.889C238.046 175.529 239.128 176.224 240.135 176.948C241.6 178 242.776 179.021 243.552 179.961C244.691 181.34 244.839 182.312 244.006 183.042C243.393 183.578 242.555 183.673 241.486 183.364C240.683 183.132 239.803 182.685 238.9 182.085C238.404 181.757 237.933 181.403 237.504 181.05L237.176 180.774C237.087 180.696 237.017 180.634 236.97 180.589C236.697 180.335 236.27 180.349 236.015 180.622C235.761 180.895 235.776 181.322 236.048 181.577L236.192 181.707C236.307 181.81 236.46 181.941 236.647 182.094C237.11 182.475 237.617 182.855 238.154 183.212C239.162 183.88 240.157 184.386 241.111 184.662C242.582 185.087 243.888 184.94 244.894 184.059C246.407 182.735 246.139 180.972 244.593 179.1C243.73 178.055 242.473 176.964 240.923 175.85C239.88 175.101 238.765 174.385 237.651 173.726L237.088 173.398C236.998 173.346 236.91 173.296 236.824 173.248L236.158 172.881C235.828 172.707 235.42 172.833 235.246 173.163Z" fill="#DD936F"/>
<path d="M234.722 179.955C234.349 179.96 234.051 180.266 234.056 180.639C234.061 181.013 234.367 181.311 234.74 181.306C235.644 181.295 236.907 181.901 238.529 183.262C241.933 186.118 242.885 188.165 242.128 188.8C241.344 189.457 239.114 188.866 237.46 187.187C236.871 186.59 235.938 187.389 236.437 188.064C236.569 188.241 236.701 188.416 236.834 188.586C240.058 192.731 242.481 194.19 247.872 196.006L248.748 196.296C253.62 197.884 255.551 199.344 257.284 203.863C257.418 204.212 257.808 204.386 258.156 204.252C258.505 204.118 258.678 203.728 258.545 203.379C256.686 198.532 254.494 196.795 249.526 195.131L248.242 194.705C244.518 193.448 242.329 192.39 240.25 190.41L240.093 190.257L240.105 190.261C241.169 190.518 242.158 190.433 242.852 189.945L242.996 189.835C244.695 188.409 243.37 185.561 239.397 182.227C237.55 180.677 236.011 179.939 234.722 179.955Z" fill="#DD936F"/>
<path d="M251.262 168.749C250.928 168.777 250.671 169.045 250.647 169.37L250.647 169.48L251.492 179.292L251.344 179.698L251.287 179.862C251.094 180.428 250.9 181.063 250.72 181.752C250.086 184.178 249.767 186.637 249.94 188.951C250.122 191.392 250.847 193.506 252.219 195.18C252.456 195.468 252.881 195.51 253.169 195.273C253.457 195.037 253.499 194.611 253.263 194.323C252.084 192.885 251.449 191.033 251.286 188.851C251.126 186.706 251.426 184.387 252.026 182.094C252.198 181.438 252.381 180.835 252.565 180.299L252.745 179.793C252.768 179.731 252.788 179.681 252.803 179.643C252.83 179.577 252.846 179.508 252.851 179.438L252.85 179.332L251.992 169.364C251.964 169.029 251.696 168.773 251.372 168.748L251.262 168.749Z" fill="#DD936F"/>
<path fill-rule="evenodd" clip-rule="evenodd" d="M249.829 197.525C253.297 194.26 258.639 194.217 261.956 197.429L326.002 259.437C331.693 265.335 329.667 274.892 323.511 280.687H325.16C318.953 286.533 307.647 286.268 302.139 280.102L248.749 209.327C246.007 205.801 246.474 200.682 249.829 197.525Z" fill="#FFC999"/>
<path fill-rule="evenodd" clip-rule="evenodd" d="M304.709 281.877C297.671 276.313 296.474 266.097 302.035 259.055L356.213 190.442C361.772 183.401 371.985 182.204 379.019 187.766C386.057 193.328 387.254 203.548 381.693 210.588L327.515 279.201C321.956 286.242 311.745 287.441 304.709 281.877Z" fill="#FFC999"/>
<path fill-rule="evenodd" clip-rule="evenodd" d="M358.725 239.675L381.693 210.587C387.229 203.577 386.027 193.306 379.019 187.767C372.013 182.226 361.749 183.43 356.213 190.443L333.463 219.253L358.725 239.675Z" fill="#597EF7"/>
<path d="M379.703 187.654C379.481 187.479 379.158 187.517 378.983 187.739C378.807 187.961 378.845 188.284 379.067 188.46C385.753 193.744 386.982 203.479 381.889 210.259L381.657 210.561L359.011 239.238L334.151 219.144C333.959 218.988 333.687 218.995 333.503 219.147L333.43 219.22C333.275 219.413 333.281 219.685 333.433 219.869L333.507 219.942L358.769 240.364C358.967 240.523 359.246 240.512 359.43 240.351L359.494 240.283L382.462 211.197C388.173 203.962 386.933 193.369 379.703 187.654Z" fill="#4E5C93"/>
<path fill-rule="evenodd" clip-rule="evenodd" d="M431.549 300.937L430.423 292.4C430.423 292.4 396.735 292.602 363.693 290.945C362.857 294.734 361.899 301.556 361.899 301.556C364.677 299.272 394.69 305.94 431.549 300.937Z" fill="#4E5C93"/>
<path d="M365.445 300.892C365.079 300.875 364.769 301.158 364.751 301.525C364.734 301.891 365.017 302.202 365.383 302.219C380.848 302.943 395.842 303.254 409.08 303.227L412.706 303.211C416.481 303.184 419.865 303.129 422.611 303.053L424.373 302.999C425.474 302.961 426.371 302.921 427.009 302.882L427.638 302.836C427.721 302.828 427.794 302.821 427.855 302.814C427.974 302.799 428.058 302.785 428.135 302.762L428.187 302.756C428.249 302.741 428.303 302.683 428.574 302.393L428.474 301.849C428.399 301.494 428.352 301.489 428.175 301.472C428.036 301.424 427.893 301.425 427.763 301.466L427.685 301.496L427.388 301.524L426.927 301.556L425.944 301.608C425.474 301.63 424.931 301.651 424.325 301.672L422.573 301.726C419.324 301.815 415.174 301.877 410.539 301.895L407.601 301.901C394.75 301.902 380.315 301.589 365.445 300.892Z" fill="#253368"/>
<path fill-rule="evenodd" clip-rule="evenodd" d="M366.149 206.427C362.728 213.887 356.391 226.727 355.603 235.209C354.324 248.96 363.274 259.195 363.274 259.195C363.274 259.195 363.363 255.15 364.231 290.779C405.22 297.975 431.352 290.324 431.352 290.324L430.553 280.88L437.208 258.555C437.208 258.555 441.255 250.241 449.564 231.691C455.341 218.798 454.938 202.81 454.157 194.263C453.822 190.601 451.272 187.523 447.732 186.528C435.373 183.049 430.693 182.94 430.693 182.94L429.529 174.782C429.33 173.384 428.134 172.347 426.723 172.347H396.594C395.3 172.347 394.169 173.224 393.849 174.478L391.64 183.094L372.994 185.103C370.067 185.677 367.858 189.748 367.555 192.718L366.149 206.427Z" fill="#597EF7"/>
<path d="M395.126 182.843C394.837 182.843 394.602 183.078 394.602 183.367C394.602 183.625 394.788 183.839 395.032 183.884L395.126 183.892H422.255C422.545 183.892 422.779 183.657 422.779 183.367C422.779 183.11 422.594 182.896 422.349 182.851L422.255 182.843H395.126Z" fill="#4E5C93"/>
<path d="M431.434 180.659C431.176 180.454 430.812 180.473 430.576 180.688L430.502 180.767L401.865 216.899L390.75 183.195C390.646 182.882 390.332 182.697 390.017 182.747L389.912 182.773C389.599 182.876 389.414 183.191 389.464 183.506L389.49 183.611L400.99 218.484C401.144 218.952 401.726 219.085 402.07 218.764L402.14 218.688L431.542 181.592C431.77 181.305 431.721 180.887 431.434 180.659Z" fill="#CCD7EE"/>
<path fill-rule="evenodd" clip-rule="evenodd" d="M393.41 221.081C390.401 226.159 391.756 232.525 396.438 235.303C401.118 238.081 407.352 236.216 410.36 231.139C413.369 226.062 412.012 219.694 407.332 216.918C402.65 214.14 396.417 216.004 393.41 221.081Z" fill="#CCD7EE"/>
<path fill-rule="evenodd" clip-rule="evenodd" d="M392.327 221.057C389.32 226.135 390.675 232.5 395.356 235.278C400.038 238.056 406.271 236.192 409.278 231.115C412.286 226.037 410.931 219.67 406.251 216.893C401.569 214.116 395.336 215.98 392.327 221.057Z" fill="#E4EBF7"/>
<path fill-rule="evenodd" clip-rule="evenodd" d="M394.239 221.942C391.903 225.884 392.956 230.826 396.59 232.982C400.225 235.138 405.063 233.692 407.399 229.749C409.735 225.808 408.683 220.864 405.05 218.708C401.415 216.551 396.575 217.999 394.239 221.942Z" fill="#FAAD14"/>
<path d="M454.143 193.738C453.854 193.747 453.626 193.989 453.634 194.278L453.678 196.29L453.685 196.674C453.753 200.683 453.76 204.92 453.667 208.885L453.635 210.073C453.508 214.352 453.262 217.792 452.876 220.109C452.437 222.744 450.75 227.223 448.135 232.995L447.431 234.531C447.191 235.05 446.945 235.576 446.693 236.108C445.585 238.454 444.414 240.84 443.23 243.184L442.34 244.933C441.907 245.778 441.5 246.564 441.126 247.28L440.327 248.809L429.579 280.879L429.554 281.097L430.467 290.387L430.326 290.415C429.93 290.494 429.475 290.581 428.965 290.673L428.573 290.744C426.649 291.084 424.421 291.424 421.913 291.742C404.802 293.911 385.436 293.923 365.487 290.364L364.663 290.213L364.566 286.684L364.15 274.507L363.634 260.297L363.568 260.063L363.251 259.47L362.932 258.856C362.766 258.532 362.59 258.183 362.407 257.812C361.532 256.044 360.658 254.126 359.842 252.128C358.682 249.287 357.739 246.523 357.09 243.926C356.462 241.415 356.128 239.131 356.128 237.128C356.128 232.115 356.793 228.268 358.284 224.3C359.03 222.312 359.989 220.261 361.371 217.641L362.528 215.501L366.609 208.121L366.674 207.888L366.995 199.412C367.006 199.123 366.78 198.879 366.491 198.868C366.234 198.858 366.013 199.036 365.959 199.278L365.947 199.372L365.631 207.722L361.827 214.599L360.728 216.615C359.173 219.53 358.117 221.761 357.302 223.93C355.766 228.02 355.08 231.992 355.08 237.128C355.08 239.226 355.426 241.593 356.073 244.181C356.736 246.831 357.694 249.641 358.871 252.525C359.697 254.548 360.582 256.488 361.467 258.278L361.828 258.999C362.003 259.343 362.168 259.664 362.323 259.959L362.591 260.459L363.461 284.95C363.556 287.853 363.611 289.774 363.618 290.507L363.619 290.653C363.619 290.906 363.799 291.122 364.048 291.169C384.554 294.976 404.477 295.01 422.045 292.783C424.317 292.495 426.363 292.188 428.164 291.88L428.755 291.777C429.299 291.68 429.787 291.59 430.219 291.506L431.148 291.317C431.375 291.267 431.538 291.075 431.557 290.851L431.557 290.753L430.609 281.106L441.286 249.223L441.834 248.189C442.195 247.499 442.592 246.737 443.016 245.913L443.273 245.412C444.762 242.505 446.251 239.5 447.641 236.557C448.147 235.487 448.63 234.442 449.09 233.428L449.576 232.346C451.951 227.013 453.48 222.864 453.91 220.282L454.014 219.607C454.383 217.035 454.609 213.382 454.715 208.91C454.796 205.497 454.802 201.887 454.759 198.392L454.726 196.27L454.682 194.249C454.674 193.959 454.432 193.731 454.143 193.738Z" fill="#4E5C93"/>
<path fill-rule="evenodd" clip-rule="evenodd" d="M494.64 293.812L494.803 293.725C502.834 289.41 505.847 279.395 501.535 271.36L459.823 193.647C455.51 185.612 445.502 182.597 437.472 186.912L437.31 186.999C429.28 191.315 426.265 201.329 430.579 209.365L472.289 287.077C476.603 295.112 486.61 298.128 494.64 293.812Z" fill="#FFC999"/>
<path fill-rule="evenodd" clip-rule="evenodd" d="M447.897 241.63L429.979 208.247C425.66 200.2 428.705 190.08 436.748 185.756C444.79 181.434 454.905 184.483 459.224 192.529L476.973 225.596L447.897 241.63Z" fill="#597EF7"/>
<path d="M430.018 208.226C429.881 207.97 429.563 207.875 429.308 208.012C429.081 208.134 428.98 208.398 429.057 208.635L429.094 208.722L447.012 242.105C447.135 242.334 447.402 242.434 447.64 242.355L447.727 242.316L476.801 226.282C477.055 226.142 477.147 225.823 477.007 225.569C476.883 225.344 476.617 225.246 476.381 225.325L476.295 225.363L447.686 241.141L430.018 208.226Z" fill="#4E5C93"/>
</svg>
