<svg width="61" height="62" viewBox="0 0 61 62" fill="none" xmlns="http://www.w3.org/2000/svg">
<g filter="url(#filter0_d)">
<path d="M29.9908 27.7042C24.2213 26.2046 22.3658 24.6542 22.3658 22.2396C22.3658 19.4692 24.9329 17.5375 29.2283 17.5375C33.7525 17.5375 35.43 19.6979 35.5825 22.875H41.1996C41.0217 18.5033 38.3529 14.4875 33.0408 13.1913V7.625H25.4158V13.115C20.485 14.1825 16.52 17.385 16.52 22.2904C16.52 28.1617 21.3746 31.0846 28.4658 32.7875C34.82 34.3125 36.0908 36.5492 36.0908 38.9129C36.0908 40.6667 34.8454 43.4625 29.2283 43.4625C23.9925 43.4625 21.9338 41.1242 21.6542 38.125H16.0625C16.3675 43.6912 20.5358 46.8175 25.4158 47.8596V53.375H33.0408V47.9104C37.9971 46.97 41.9367 44.0979 41.9367 38.8875C41.9367 31.6692 35.7604 29.2037 29.9908 27.7042Z" fill="#24E6DB"/>
</g>
<defs>
<filter id="filter0_d" x="-4" y="0" width="69" height="69" filterUnits="userSpaceOnUse" color-interpolation-filters="sRGB">
<feFlood flood-opacity="0" result="BackgroundImageFix"/>
<feColorMatrix in="SourceAlpha" type="matrix" values="0 0 0 0 0 0 0 0 0 0 0 0 0 0 0 0 0 0 127 0"/>
<feOffset dy="4"/>
<feGaussianBlur stdDeviation="2"/>
<feColorMatrix type="matrix" values="0 0 0 0 0 0 0 0 0 0 0 0 0 0 0 0 0 0 0.25 0"/>
<feBlend mode="normal" in2="BackgroundImageFix" result="effect1_dropShadow"/>
<feBlend mode="normal" in="SourceGraphic" in2="effect1_dropShadow" result="shape"/>
</filter>
</defs>
</svg>
