<svg width="61" height="61" viewBox="0 0 61 61" fill="none" xmlns="http://www.w3.org/2000/svg">
<path d="M31.77 17.5375C36.2942 17.5375 37.9717 19.6979 38.1242 22.875H43.7413C43.5634 18.5033 40.8946 14.4875 35.5825 13.1913V7.625H27.9575V13.115C26.6104 13.42 25.3396 13.8775 24.1959 14.4875L27.9321 18.2238C28.9742 17.7917 30.245 17.5375 31.77 17.5375ZM13.5463 10.3192L10.3184 13.5471L19.0617 22.2904C19.0617 27.5771 23.0267 30.4492 28.9996 32.2283L37.9209 41.1496C37.0567 42.3696 35.2521 43.4625 31.77 43.4625C26.5342 43.4625 24.4754 41.1242 24.1959 38.125H18.6042C18.9092 43.6912 23.0775 46.8175 27.9575 47.8596V53.375H35.5825V47.9104C38.0225 47.4529 40.2084 46.5125 41.8096 45.0638L47.4521 50.7063L50.68 47.4783L13.5463 10.3192Z" fill="#24E6DB"/>
</svg>
