<svg width="44" height="44" viewBox="0 0 44 44" fill="none" xmlns="http://www.w3.org/2000/svg">
<path d="M0 2.75V24.9004C0.401043 24.4993 0.83073 24.1413 1.28906 23.8262C1.74739 23.5111 2.23438 23.2246 2.75 22.9668V13.75H41.25V35.75H17.875L20.625 38.5H44V2.75H0ZM2.75 11V5.5H41.25V11H2.75ZM13.6855 31.4961C13.6855 30.5508 13.5065 29.6699 13.1484 28.8535C12.7904 28.0371 12.3034 27.3281 11.6875 26.7266C11.0716 26.125 10.3555 25.6452 9.53906 25.2871C8.72266 24.929 7.83464 24.7572 6.875 24.7715C5.91536 24.7715 5.02018 24.9505 4.18945 25.3086C3.35872 25.6667 2.63542 26.1536 2.01953 26.7695C1.40364 27.3854 0.916668 28.1159 0.558594 28.9609C0.20052 29.806 0.0214844 30.7012 0.0214844 31.6465C0.0214844 32.5775 0.193359 33.4512 0.537109 34.2676C0.880859 35.084 1.36068 35.8073 1.97656 36.4375C2.59245 37.0677 3.30143 37.5547 4.10352 37.8984C4.9056 38.2422 5.78646 38.4212 6.74609 38.4355C7.43359 38.4355 8.10677 38.3424 8.76562 38.1562C9.42448 37.9701 10.0475 37.6908 10.6348 37.3184L14.9531 41.6367C15.2826 41.9661 15.6048 42.2956 15.9199 42.625C16.235 42.9544 16.5645 43.2767 16.9082 43.5918C17.0514 43.7207 17.1875 43.821 17.3164 43.8926C17.4453 43.9642 17.6172 44 17.832 44C18.2044 44 18.5339 43.8568 18.8203 43.5703C19.1068 43.2839 19.25 42.9544 19.25 42.582C19.25 42.3815 19.2142 42.2168 19.1426 42.0879C19.071 41.959 18.9707 41.8158 18.8418 41.6582C18.541 41.3145 18.2259 40.985 17.8965 40.6699C17.5671 40.3548 17.2305 40.0326 16.8867 39.7031C16.1562 38.9727 15.4401 38.2493 14.7383 37.5332C14.0365 36.8171 13.3132 36.0938 12.5684 35.3633C12.9264 34.776 13.1986 34.1602 13.3848 33.5156C13.571 32.8711 13.6712 32.1979 13.6855 31.4961ZM10.9355 31.7539C10.9355 32.2982 10.8353 32.8066 10.6348 33.2793C10.4342 33.752 10.1549 34.1673 9.79688 34.5254C9.4388 34.8835 9.02344 35.1628 8.55078 35.3633C8.07812 35.5638 7.5625 35.6641 7.00391 35.6641C6.44531 35.6641 5.91536 35.5566 5.41406 35.3418C4.91276 35.127 4.45443 34.819 4.03906 34.418C3.6237 34.0169 3.30859 33.5729 3.09375 33.0859C2.87891 32.599 2.75716 32.069 2.72852 31.4961C2.72852 30.9805 2.83594 30.4863 3.05078 30.0137C3.26562 29.541 3.56641 29.1113 3.95312 28.7246C4.33984 28.3379 4.76953 28.0371 5.24219 27.8223C5.71484 27.6074 6.21614 27.4928 6.74609 27.4785C7.30469 27.4785 7.83464 27.5931 8.33594 27.8223C8.83724 28.0514 9.28125 28.3737 9.66797 28.7891C10.0547 29.2044 10.3626 29.6556 10.5918 30.1426C10.821 30.6296 10.9355 31.1667 10.9355 31.7539Z" fill="#24E6DB"/>
</svg>
