<svg width="28" height="28" viewBox="0 0 28 28" fill="none" xmlns="http://www.w3.org/2000/svg">
<path d="M14 0C15.2852 0 16.5247 0.164062 17.7188 0.492188C18.9128 0.820312 20.0293 1.28971 21.0684 1.90039C22.1074 2.51107 23.0508 3.24023 23.8984 4.08789C24.7461 4.93555 25.4753 5.88346 26.0859 6.93164C26.6966 7.97982 27.166 9.09635 27.4941 10.2812C27.8223 11.4661 27.9909 12.7057 28 14C28 15.2852 27.8359 16.5247 27.5078 17.7188C27.1797 18.9128 26.7103 20.0293 26.0996 21.0684C25.4889 22.1074 24.7598 23.0508 23.9121 23.8984C23.0645 24.7461 22.1165 25.4753 21.0684 26.0859C20.0202 26.6966 18.9036 27.166 17.7188 27.4941C16.5339 27.8223 15.2943 27.9909 14 28C12.7148 28 11.4753 27.8359 10.2812 27.5078C9.08724 27.1797 7.9707 26.7103 6.93164 26.0996C5.89258 25.4889 4.94922 24.7598 4.10156 23.9121C3.25391 23.0645 2.52474 22.1165 1.91406 21.0684C1.30339 20.0202 0.833984 18.9082 0.505859 17.7324C0.177734 16.5566 0.00911458 15.3125 0 14C0 12.7148 0.164062 11.4753 0.492188 10.2812C0.820312 9.08724 1.28971 7.9707 1.90039 6.93164C2.51107 5.89258 3.24023 4.94922 4.08789 4.10156C4.93555 3.25391 5.88346 2.52474 6.93164 1.91406C7.97982 1.30339 9.0918 0.833984 10.2676 0.505859C11.4434 0.177734 12.6875 0.00911458 14 0ZM25.0605 8.75C24.7142 8.01172 24.2949 7.31901 23.8027 6.67188C23.3105 6.02474 22.7637 5.42773 22.1621 4.88086C21.5605 4.33398 20.9089 3.85547 20.207 3.44531C19.5052 3.03516 18.7715 2.69336 18.0059 2.41992C18.334 2.87565 18.6302 3.35872 18.8945 3.86914C19.1589 4.37956 19.3913 4.90365 19.5918 5.44141C19.7923 5.97917 19.9701 6.5306 20.125 7.0957C20.2799 7.66081 20.4076 8.21224 20.5078 8.75H25.0605ZM26.25 14C26.25 12.7878 26.0814 11.6211 25.7441 10.5H20.7812C20.8542 11.0833 20.9089 11.6621 20.9453 12.2363C20.9818 12.8105 21 13.3984 21 14C21 14.5924 20.9818 15.1758 20.9453 15.75C20.9089 16.3242 20.8542 16.9076 20.7812 17.5H25.7441C26.0814 16.3789 26.25 15.2122 26.25 14ZM14 26.25C14.4466 26.25 14.8613 26.127 15.2441 25.8809C15.627 25.6348 15.987 25.3112 16.3242 24.9102C16.6615 24.5091 16.9531 24.0579 17.1992 23.5566C17.4453 23.0553 17.6777 22.5404 17.8965 22.0117C18.1152 21.4831 18.2839 20.9818 18.4023 20.5078C18.5208 20.0339 18.6257 19.6146 18.7168 19.25H9.2832C9.35612 19.6055 9.46094 20.0247 9.59766 20.5078C9.73438 20.9909 9.903 21.4922 10.1035 22.0117C10.304 22.5312 10.5319 23.0417 10.7871 23.543C11.0423 24.0443 11.3385 24.5 11.6758 24.9102C12.013 25.3203 12.3685 25.6439 12.7422 25.8809C13.1159 26.1178 13.5352 26.2409 14 26.25ZM19.0176 17.5C19.0905 16.9167 19.1452 16.3379 19.1816 15.7637C19.2181 15.1895 19.2409 14.6016 19.25 14C19.25 13.4076 19.2318 12.8242 19.1953 12.25C19.1589 11.6758 19.0996 11.0924 19.0176 10.5H8.98242C8.9095 11.0833 8.85482 11.6621 8.81836 12.2363C8.7819 12.8105 8.75911 13.3984 8.75 14C8.75 14.5924 8.76823 15.1758 8.80469 15.75C8.84115 16.3242 8.90039 16.9076 8.98242 17.5H19.0176ZM1.75 14C1.75 15.2122 1.91862 16.3789 2.25586 17.5H7.21875C7.14583 16.9167 7.09115 16.3379 7.05469 15.7637C7.01823 15.1895 7 14.6016 7 14C7 13.4076 7.01823 12.8242 7.05469 12.25C7.09115 11.6758 7.14583 11.0924 7.21875 10.5H2.25586C1.91862 11.6211 1.75 12.7878 1.75 14ZM14 1.75C13.5534 1.75 13.1387 1.87305 12.7559 2.11914C12.373 2.36523 12.013 2.6888 11.6758 3.08984C11.3385 3.49089 11.0469 3.94206 10.8008 4.44336C10.5547 4.94466 10.3223 5.45964 10.1035 5.98828C9.88477 6.51693 9.71615 7.01823 9.59766 7.49219C9.47917 7.96615 9.37435 8.38542 9.2832 8.75H18.7168C18.6439 8.39453 18.5391 7.97526 18.4023 7.49219C18.2656 7.00911 18.097 6.50781 17.8965 5.98828C17.696 5.46875 17.4681 4.95833 17.2129 4.45703C16.9577 3.95573 16.6615 3.5 16.3242 3.08984C15.987 2.67969 15.6315 2.35612 15.2578 2.11914C14.8841 1.88216 14.4648 1.75911 14 1.75ZM9.99414 2.41992C9.22852 2.68424 8.49479 3.02604 7.79297 3.44531C7.09115 3.86458 6.43945 4.3431 5.83789 4.88086C5.23633 5.41862 4.68945 6.01107 4.19727 6.6582C3.70508 7.30534 3.28581 8.0026 2.93945 8.75H7.49219C7.60156 8.20312 7.72917 7.65169 7.875 7.0957C8.02083 6.53971 8.19401 5.99284 8.39453 5.45508C8.59505 4.91732 8.83203 4.38867 9.10547 3.86914C9.37891 3.34961 9.67513 2.86654 9.99414 2.41992ZM2.93945 19.25C3.28581 19.9883 3.70508 20.681 4.19727 21.3281C4.68945 21.9753 5.23633 22.5723 5.83789 23.1191C6.43945 23.666 7.09115 24.1445 7.79297 24.5547C8.49479 24.9648 9.22852 25.3066 9.99414 25.5801C9.66602 25.1243 9.36979 24.6413 9.10547 24.1309C8.84115 23.6204 8.60872 23.0964 8.4082 22.5586C8.20768 22.0208 8.02995 21.4694 7.875 20.9043C7.72005 20.3392 7.59245 19.7878 7.49219 19.25H2.93945ZM18.0059 25.5801C18.7715 25.3158 19.5052 24.974 20.207 24.5547C20.9089 24.1354 21.5605 23.6569 22.1621 23.1191C22.7637 22.5814 23.3105 21.9889 23.8027 21.3418C24.2949 20.6947 24.7142 19.9974 25.0605 19.25H20.5078C20.3984 19.7969 20.2708 20.3483 20.125 20.9043C19.9792 21.4603 19.806 22.0072 19.6055 22.5449C19.4049 23.0827 19.168 23.6113 18.8945 24.1309C18.6211 24.6504 18.3249 25.1335 18.0059 25.5801Z" fill="white"/>
</svg>
