<svg width="95" height="264" viewBox="0 0 95 264" fill="none" xmlns="http://www.w3.org/2000/svg">
<path fill-rule="evenodd" clip-rule="evenodd" d="M33.7735 234.1C31.0734 234.164 28.804 232.084 28.6337 229.388L24.9798 171.724C24.7168 167.571 27.9611 164.031 32.1217 163.934C36.2834 163.836 39.6908 167.218 39.6229 171.38L38.6861 229.151C38.6425 231.853 36.4743 234.037 33.7735 234.1Z" fill="#FFC999"/>
<path fill-rule="evenodd" clip-rule="evenodd" d="M30.8535 110.073C25.9507 110.188 22.1046 114.318 22.3361 119.216L24.8296 171.885C25.0217 175.942 28.4164 179.104 32.4763 179.009C36.5363 178.913 39.7782 175.595 39.7788 171.534L39.7921 118.805C39.7933 113.901 35.757 109.958 30.8535 110.073Z" fill="#FFC999"/>
<path fill-rule="evenodd" clip-rule="evenodd" d="M28.7446 236.818L38.2316 236.941L38.9606 221.942L28.0684 221.801L28.7446 236.818Z" fill="#597EF7"/>
<path d="M28.1534 224.484L38.2094 224.615C38.3814 224.617 38.519 224.758 38.5168 224.93C38.5148 225.088 38.3959 225.217 38.2436 225.235L38.2013 225.237L28.1453 225.107C27.9733 225.105 27.8357 224.964 27.8379 224.792C27.84 224.634 27.9588 224.505 28.1111 224.487L28.1534 224.484Z" fill="#E4EBF7"/>
<path fill-rule="evenodd" clip-rule="evenodd" d="M27.808 236.214L38.2385 236.349L38.5184 255.462L15.0161 255.158L14.9961 252.223C14.9931 251.145 15.7627 250.219 16.8237 250.026L23.0869 248.272L26.3155 246.489C27.2887 245.951 27.8868 244.926 27.871 243.815C27.8395 241.427 27.7904 237.377 27.808 236.214Z" fill="#4E5C93"/>
<path fill-rule="evenodd" clip-rule="evenodd" d="M38.2848 256.083L14.8534 255.779C14.6316 255.777 14.4541 255.594 14.4571 255.372L14.4904 252.744C14.4935 252.522 14.6759 252.344 14.8982 252.347L38.3291 252.651C38.5509 252.654 38.729 252.836 38.7266 253.058L38.6921 255.686C38.689 255.908 38.5066 256.086 38.2848 256.083Z" fill="#E4EBF7"/>
<path fill-rule="evenodd" clip-rule="evenodd" d="M14.8965 252.347C14.9177 250.691 16.1381 249.294 17.776 249.051L23.0867 248.264L23.3836 252.399L14.8965 252.347Z" fill="#E4EBF7"/>
<path d="M14.8997 252.187L38.3306 252.49C38.4186 252.491 38.489 252.564 38.4879 252.652C38.4869 252.729 38.4314 252.792 38.3586 252.806L38.3264 252.809L14.8956 252.505C14.8076 252.504 14.7372 252.432 14.7383 252.344C14.7393 252.267 14.7948 252.203 14.8676 252.189L14.8997 252.187Z" fill="#A3B5D6"/>
<path d="M27.6667 243.092C27.7052 242.92 27.8757 242.812 28.0475 242.851L28.1468 242.875C28.2597 242.905 28.4122 242.951 28.5938 243.016C28.9957 243.159 29.3977 243.345 29.7749 243.578C30.1889 243.835 30.548 244.135 30.8353 244.483C31.008 244.693 30.8568 245.008 30.5854 245.005C30.2962 245.001 29.8463 245.058 29.2876 245.163C29.0973 245.199 28.8978 245.24 28.6918 245.284L28.4068 245.348L28.1483 245.407L28.2172 245.465C28.4649 245.68 28.7107 245.923 28.9464 246.194L29.0865 246.36C29.1692 246.461 29.2495 246.565 29.3271 246.671C29.4917 246.897 29.3075 247.21 29.0304 247.175C28.6803 247.132 28.2642 247.127 27.7971 247.156C27.3844 247.182 26.9464 247.233 26.4988 247.303L26.2097 247.35L26.2856 247.399C26.3178 247.42 26.35 247.442 26.3824 247.465L26.4794 247.537C26.7617 247.752 27.0091 248.014 27.2108 248.325C27.3066 248.473 27.2644 248.67 27.1167 248.766C26.969 248.861 26.7716 248.819 26.6759 248.672C26.5153 248.424 26.3185 248.216 26.0928 248.044C25.8643 247.87 25.6186 247.741 25.3733 247.651L25.2585 247.612C25.1708 247.584 25.104 247.568 25.065 247.561C24.7234 247.504 24.7052 247.02 25.0416 246.937L25.2779 246.883L25.3462 246.868C25.5836 246.817 25.8445 246.766 26.1211 246.719C26.6832 246.622 27.2369 246.552 27.7576 246.52C27.9464 246.508 28.1283 246.501 28.3026 246.5L28.3653 246.5L28.3351 246.467C28.1602 246.277 27.9805 246.103 27.7999 245.947L27.6644 245.833C27.5819 245.765 27.504 245.705 27.4321 245.652L27.3069 245.564C27.2835 245.548 27.2665 245.537 27.2564 245.531C27.0184 245.384 27.0717 245.023 27.342 244.951L27.6995 244.86C27.9741 244.793 28.2642 244.725 28.5568 244.661C28.7683 244.615 28.9735 244.574 29.1699 244.537L29.459 244.485C29.5521 244.469 29.642 244.455 29.7284 244.442L29.8665 244.422L29.8195 244.384C29.7402 244.323 29.6572 244.263 29.571 244.205L29.4391 244.12C29.1035 243.912 28.7418 243.745 28.3799 243.616C28.285 243.583 28.1953 243.553 28.1123 243.528L27.9425 243.481C27.9276 243.477 27.916 243.474 27.908 243.473C27.7362 243.434 27.6282 243.264 27.6667 243.092Z" fill="#E4EBF7"/>
<path d="M28.0166 240.036C27.9803 240.036 27.9441 240.042 27.9098 240.054C27.4765 240.205 27.2459 240.48 27.2881 240.833C27.314 241.049 27.436 241.24 27.6186 241.425C27.7264 241.535 27.8324 241.619 27.9085 241.671L27.9375 241.698L28.0703 241.813C28.2232 241.944 28.3962 242.089 28.5861 242.246C29.1287 242.693 29.6979 243.14 30.2671 243.558C30.6032 243.805 30.9298 244.035 31.244 244.244C32.2994 244.945 33.1636 245.383 33.8027 245.489C34.7217 245.64 35.2041 245.089 35.0354 243.99C34.7729 242.276 33.4345 241.174 31.4131 240.556C30.7061 240.34 29.9563 240.197 29.2037 240.114C28.9978 240.091 28.8003 240.074 28.6133 240.061L28.4299 240.05C28.3325 240.045 28.2459 240.041 28.1714 240.039L28.0166 240.036ZM28.0713 240.674L28.2039 240.677C28.449 240.686 28.7661 240.707 29.1333 240.747C29.8493 240.827 30.5613 240.962 31.2269 241.166C32.9915 241.705 34.1268 242.616 34.3862 243.975L34.4053 244.086L34.4249 244.231C34.4893 244.801 34.3386 244.931 33.9064 244.86C33.3828 244.773 32.5808 244.367 31.5969 243.713C31.2915 243.51 30.9729 243.286 30.6444 243.045C30.0858 242.634 29.5256 242.194 28.9916 241.754L28.6739 241.489L28.299 241.169C28.2234 241.114 28.147 241.053 28.0723 240.978L28.0353 240.938C27.9774 240.874 27.9397 240.816 27.9262 240.778L27.9222 240.761C27.9419 240.738 27.9895 240.707 28.0713 240.674Z" fill="#E4EBF7"/>
<path fill-rule="evenodd" clip-rule="evenodd" d="M68.4728 233.26C71.1542 232.928 73.0945 231.145 72.8697 228.453L68.0553 170.269C67.7081 166.121 63.9814 163.094 59.8506 163.605C55.7197 164.117 52.8432 167.961 53.5182 172.068L63.4954 229.688C63.9335 232.354 65.792 233.592 68.4728 233.26Z" fill="#FFC999"/>
<path fill-rule="evenodd" clip-rule="evenodd" d="M53.2337 110.138C58.1008 109.535 62.5098 113.058 62.9964 117.938L68.2277 170.406C68.6306 174.447 65.7354 178.071 61.7045 178.57C57.6742 179.069 53.9821 176.26 53.3876 172.243L45.6676 120.083C44.9496 115.231 48.3666 110.74 53.2337 110.138Z" fill="#FFC999"/>
<path fill-rule="evenodd" clip-rule="evenodd" d="M74.2422 234.926L64.1505 235.14L61.4746 220.148L72.3643 219.903L74.2422 234.926Z" fill="#597EF7"/>
<path d="M72.2923 222.588C72.4643 222.584 72.6068 222.72 72.6108 222.892C72.6142 223.05 72.5 223.183 72.3485 223.207L72.3063 223.211L62.2521 223.437C62.0802 223.441 61.9376 223.304 61.9337 223.132C61.9302 222.975 62.0444 222.842 62.1959 222.818L62.2381 222.814L72.2923 222.588Z" fill="#E4EBF7"/>
<path fill-rule="evenodd" clip-rule="evenodd" d="M74.4281 235L64 235.235L65.9021 254.35L89.4008 253.821L89.3918 250.887C89.3857 249.809 88.6064 248.89 87.5442 248.707L81.2646 247.013L78.019 245.26C77.041 244.732 76.1817 243.657 75.8315 242.602C75.1837 240.651 74.4577 236.163 74.4281 235Z" fill="#4E5C93"/>
<path fill-rule="evenodd" clip-rule="evenodd" d="M66.1417 254.968L89.569 254.441C89.7907 254.436 89.9665 254.252 89.9623 254.03L89.9028 251.403C89.898 251.181 89.7138 251.004 89.4914 251.01L66.0648 251.536C65.843 251.541 65.6667 251.726 65.672 251.948L65.7303 254.575C65.7357 254.797 65.92 254.973 66.1417 254.968Z" fill="#E4EBF7"/>
<path fill-rule="evenodd" clip-rule="evenodd" d="M89.4918 251.01C89.4542 249.354 88.2217 247.97 86.5807 247.742L81.2634 247.005L81.0059 251.142L89.4918 251.01Z" fill="#E4EBF7"/>
<path d="M89.4887 250.85C89.5767 250.848 89.6496 250.917 89.6516 251.005C89.6533 251.082 89.6002 251.148 89.5279 251.164L89.4958 251.168L66.0692 251.695C65.9813 251.697 65.9083 251.627 65.9063 251.539C65.9046 251.462 65.9578 251.397 66.03 251.38L66.0621 251.376L89.4887 250.85Z" fill="#A3B5D6"/>
<path d="M72.8439 239.008C73.0153 238.968 73.1868 239.075 73.2269 239.246C73.2637 239.403 73.1774 239.56 73.0307 239.616L72.9893 239.629C72.9694 239.634 72.9275 239.645 72.8669 239.662C72.7633 239.692 72.6473 239.73 72.5219 239.776C72.1635 239.907 71.8053 240.077 71.4729 240.286C71.338 240.371 71.2105 240.461 71.0912 240.556L71.0396 240.598L71.0516 240.6C71.218 240.62 71.3984 240.647 71.5917 240.68L71.7391 240.706C71.9408 240.742 72.1518 240.783 72.3692 240.828C72.5623 240.868 72.754 240.91 72.9406 240.953L73.5365 241.095C73.5483 241.098 73.5592 241.101 73.5689 241.103C73.8398 241.172 73.8964 241.532 73.6598 241.681L73.6102 241.715C73.5949 241.725 73.5768 241.738 73.5561 241.753C73.4671 241.817 73.3672 241.894 73.2592 241.984C73.0372 242.169 72.815 242.38 72.6002 242.617L72.5606 242.662L72.6277 242.661C72.7445 242.661 72.8648 242.663 72.9884 242.667L73.176 242.676C73.7052 242.704 74.2682 242.77 74.8389 242.864C75.041 242.897 75.2342 242.932 75.4154 242.967L75.7185 243.029C75.7937 243.045 75.8509 243.058 75.8879 243.067C76.2098 243.142 76.212 243.587 75.915 243.68L75.8116 243.704C75.7524 243.718 75.6684 243.744 75.5665 243.782C75.3244 243.873 75.0818 244.002 74.8564 244.176C74.6286 244.352 74.4307 244.564 74.2704 244.817C74.1761 244.965 73.9791 245.009 73.8305 244.915C73.6818 244.821 73.6378 244.624 73.7321 244.475C73.9335 244.158 74.1822 243.891 74.467 243.671C74.5309 243.622 74.5948 243.576 74.6583 243.534L74.7235 243.491L74.462 243.45C74.0982 243.396 73.7403 243.354 73.3969 243.329L73.1422 243.312C72.6719 243.287 72.2535 243.296 71.9021 243.343C71.6254 243.38 71.4381 243.069 71.6005 242.842C71.681 242.729 71.7644 242.62 71.8504 242.513C72.1232 242.175 72.4126 241.877 72.7047 241.62L72.7658 241.567L72.5216 241.512L72.2396 241.452C72.0279 241.408 71.8228 241.368 71.6273 241.333L71.3767 241.291C70.9321 241.219 70.5716 241.182 70.3266 241.188C70.0553 241.194 69.9009 240.88 70.0715 240.668C70.3578 240.314 70.7174 240.009 71.1329 239.747C71.5065 239.511 71.9047 239.323 72.3027 239.178L72.4726 239.118C72.6321 239.064 72.7593 239.028 72.8439 239.008Z" fill="#E4EBF7"/>
<path d="M72.0113 237L71.849 237.004C71.6023 237.013 71.2746 237.037 70.8889 237.081C70.1378 237.168 69.3863 237.315 68.6758 237.534C66.6294 238.167 65.2784 239.287 65.0294 241.02C64.8717 242.119 65.3572 242.666 66.2724 242.508C66.9088 242.399 67.7666 241.954 68.813 241.246C69.1259 241.034 69.4512 240.801 69.7859 240.55C70.3526 240.126 70.9194 239.672 71.4596 239.218L71.7812 238.945L72.1643 238.611C72.2097 238.582 72.3143 238.497 72.4205 238.387C72.5955 238.207 72.7139 238.02 72.7436 237.811C72.795 237.45 72.5621 237.167 72.1176 237.017C72.0834 237.005 72.0474 237 72.0113 237ZM71.9615 237.638C72.0296 237.665 72.0729 237.69 72.0979 237.711L72.1114 237.725C72.1061 237.766 72.0523 237.851 71.9627 237.944C71.889 238.02 71.8137 238.081 71.7689 238.112L71.3659 238.461C71.2669 238.546 71.1612 238.636 71.0495 238.73C70.5178 239.176 69.9601 239.623 69.4039 240.04C69.0768 240.285 68.7596 240.512 68.4555 240.718L68.194 240.892C67.338 241.451 66.6373 241.799 66.164 241.88C65.7005 241.96 65.561 241.803 65.6604 241.111C65.8669 239.673 67.0276 238.711 68.8641 238.144C69.5335 237.937 70.2476 237.798 70.9623 237.715L71.221 237.687C71.4688 237.663 71.683 237.649 71.8543 237.642L71.9615 237.638Z" fill="#E4EBF7"/>
<path fill-rule="evenodd" clip-rule="evenodd" d="M50.2774 101.788C51.3391 103.136 53.2739 103.412 54.6695 102.413L81.6155 83.1245C84.0327 81.2708 84.469 77.7981 82.5845 75.4033C80.6842 72.9879 77.1665 72.6128 74.799 74.5737L50.5938 97.4695C49.3879 98.6099 49.2509 100.483 50.2774 101.788Z" fill="#FFC999"/>
<path fill-rule="evenodd" clip-rule="evenodd" d="M53.9598 106.731C53.9598 106.731 56.4958 101.35 54.0749 98.8119C51.8826 96.5129 49.3266 98.4235 49.3266 98.4235C49.3266 98.4235 46.4834 99.9196 44.2025 102.666C42.6998 104.476 40.1905 108.209 41.0346 109.127C42.135 110.323 44.7291 105.934 45.7556 106.522C46.8094 107.125 46.3404 108.072 45.9829 110.575C45.7593 112.139 44.9236 113.593 44.9867 114.955C45.1109 117.618 50.8282 115.119 53.9598 106.731Z" fill="#FFC999"/>
<path d="M48.3036 108.278C48.4348 108.263 48.5532 108.357 48.568 108.489L48.5752 108.573L48.5779 108.615C48.6134 109.213 48.5627 110.011 48.3583 110.949C48.0531 112.35 47.4589 113.773 46.5085 115.159C46.4338 115.268 46.285 115.295 46.1761 115.221C46.0673 115.146 46.0395 114.997 46.1142 114.888C47.0284 113.555 47.5987 112.189 47.8911 110.847C48.0857 109.954 48.1337 109.2 48.1006 108.643L48.0929 108.542C48.0781 108.411 48.1724 108.293 48.3036 108.278Z" fill="#DD936F"/>
<path d="M50.5127 108.27C50.6442 108.282 50.7412 108.398 50.7293 108.529C50.6145 109.802 50.2531 111.044 49.7227 112.217C49.4947 112.722 49.2503 113.18 49.0056 113.584C48.9411 113.69 48.88 113.787 48.8231 113.874L48.7022 114.053C48.6907 114.07 48.6813 114.083 48.6742 114.092C48.5963 114.199 48.4467 114.222 48.3401 114.144C48.2336 114.066 48.2104 113.917 48.2883 113.81L48.3708 113.691C48.4388 113.59 48.5147 113.471 48.5967 113.336C48.8319 112.948 49.0673 112.507 49.2871 112.021C49.7968 110.892 50.1435 109.701 50.2532 108.486C50.2638 108.368 50.359 108.278 50.4738 108.27L50.5127 108.27Z" fill="#DD936F"/>
<path d="M52.1573 107.436C52.1554 107.304 52.261 107.195 52.393 107.193C52.5118 107.192 52.6116 107.277 52.6317 107.39L52.6354 107.429L52.6351 107.487L52.63 107.612C52.6135 107.883 52.5583 108.279 52.4398 108.791C52.1997 109.829 51.7657 111.015 51.0905 112.333C51.0303 112.451 50.8863 112.497 50.7688 112.437C50.6513 112.377 50.6048 112.233 50.665 112.115C51.3223 110.832 51.7427 109.683 51.974 108.683C52.0437 108.383 52.0916 108.114 52.1216 107.878L52.1352 107.763C52.1474 107.649 52.1537 107.56 52.1561 107.498L52.1573 107.436Z" fill="#DD936F"/>
<path fill-rule="evenodd" clip-rule="evenodd" d="M56.1976 89.5724C61.6846 90.002 74.7074 124.676 79.6272 137.075C78.9721 139.572 74.9703 143.976 74.9703 143.976C74.9703 143.976 75.3988 145.965 75.6623 147.159C70.9807 151.01 61.9245 153.102 61.9245 153.102L61.9051 154.81C47.4262 161.476 28.0384 155.087 28.0384 155.087C28.0384 155.087 27.6772 154.717 27.9366 153.377C21.3631 153.301 7.28714 144.961 7.28714 144.961L9.28743 140.835L3.49805 134.909C3.49805 134.909 19.1319 106.149 23.9439 98.1044C28.1687 91.0425 32.1311 89.0088 32.1311 89.0088C32.1311 89.0088 46.4621 88.8095 56.1976 89.5724Z" fill="#4E5C93"/>
<path d="M31.2077 95.7998C31.2669 95.6788 31.413 95.6288 31.534 95.688C31.6429 95.7413 31.6943 95.8649 31.6604 95.9773L31.6458 96.0143L7.84024 144.646L7.97833 144.748L8.24964 144.943C8.71984 145.277 9.27409 145.649 9.90884 146.05C11.7242 147.197 13.8193 148.345 16.1657 149.416C19.8138 151.082 23.7281 152.405 27.8615 153.259C27.9935 153.286 28.0783 153.415 28.0511 153.547C28.0238 153.679 27.8948 153.764 27.7629 153.737C23.5918 152.875 19.6431 151.54 15.9631 149.86C13.5959 148.779 11.4816 147.621 9.64825 146.463C9.07733 146.102 8.57025 145.764 8.12946 145.455L7.96728 145.341C7.83335 145.246 7.71376 145.159 7.60873 145.082L7.38271 144.911C7.30329 144.849 7.27139 144.746 7.2986 144.652L7.31392 144.612L31.2077 95.7998Z" fill="#253368"/>
<path d="M60.1304 105.683C60.2438 105.64 60.3691 105.687 60.4278 105.789L60.4448 105.825L76.1307 147.319C76.1711 147.426 76.132 147.546 76.0365 147.609L75.9242 147.681C75.833 147.739 75.7255 147.806 75.6022 147.881C75.2506 148.095 74.8421 148.334 74.3812 148.592C73.0652 149.326 71.5914 150.06 69.9943 150.744C67.3889 151.862 64.7137 152.738 62.0338 153.279C61.9017 153.306 61.7731 153.221 61.7464 153.089C61.7197 152.957 61.8051 152.828 61.9371 152.801C64.5818 152.267 67.2256 151.401 69.802 150.296C71.3828 149.618 72.8417 148.892 74.1435 148.166C74.5338 147.948 74.8856 147.744 75.1962 147.557L75.5176 147.36L75.6043 147.306L59.9885 105.997C59.9456 105.884 59.9928 105.758 60.0945 105.7L60.1304 105.683Z" fill="#253368"/>
<path d="M49.9392 90.4979C50.0713 90.4715 50.1998 90.5572 50.2262 90.6893L51.1627 95.4168C51.4845 97.0494 51.8275 98.7977 52.1882 100.645L52.3867 101.662C53.7755 108.785 55.1643 116.029 56.4851 123.079L57.1396 126.586C57.3708 127.83 57.598 129.059 57.8209 130.271L58.5561 134.29C60.0107 142.294 61.2241 149.287 62.1411 155.014C62.1599 155.131 62.0913 155.245 61.9788 155.283C61.2688 155.525 60.5501 155.748 59.823 155.954C51.0549 158.437 41.7014 158.296 32.8683 156.57C31.5746 156.317 30.3974 156.048 29.3532 155.777L29.0949 155.709C28.8178 155.635 28.5648 155.566 28.3369 155.5L27.9389 155.384C27.8364 155.353 27.7625 155.33 27.718 155.315C27.6133 155.282 27.5458 155.183 27.5489 155.076L27.5538 155.036L38.4702 100.322C38.4966 100.19 38.625 100.105 38.7571 100.131C38.876 100.155 38.9574 100.261 38.9532 100.378L38.9486 100.418L28.0751 154.915L28.2137 154.957C28.5002 155.041 28.8365 155.136 29.22 155.237C30.317 155.528 31.5713 155.82 32.9619 156.091C41.7262 157.804 51.0065 157.944 59.6901 155.485C60.2294 155.332 60.7639 155.17 61.2937 154.997L61.6265 154.886L61.352 153.191C60.395 147.337 59.1611 140.302 57.7016 132.323L57.1732 129.447C57.0607 128.837 56.9472 128.223 56.8326 127.605L56.66 126.675C55.3639 119.7 53.9886 112.479 52.6019 105.325L51.7094 100.738C51.2833 98.5557 50.8817 96.5112 50.5108 94.6323L49.7479 90.7849C49.7215 90.6528 49.8071 90.5243 49.9392 90.4979Z" fill="#253368"/>
<path d="M44.1276 91.433C44.2486 91.4402 44.3441 91.5342 44.3564 91.6509L44.3574 91.6906L41.7917 137.194C41.7841 137.329 41.669 137.432 41.5345 137.424C41.4134 137.417 41.318 137.323 41.3056 137.207L41.3047 137.167L43.8703 91.6632C43.8779 91.5287 43.9931 91.4258 44.1276 91.433Z" fill="#253368"/>
<path d="M37.3017 90.4304C37.3416 90.3018 37.4783 90.2299 37.6069 90.2698C37.7227 90.3058 37.7925 90.4201 37.7762 90.5364L37.7675 90.5751L28.1351 121.588C28.0951 121.717 27.9585 121.789 27.8298 121.749C27.714 121.713 27.6442 121.599 27.6606 121.482L27.6692 121.444L37.3017 90.4304Z" fill="#253368"/>
<path fill-rule="evenodd" clip-rule="evenodd" d="M31.082 89.5707L31.4953 86.4349C31.4953 86.4349 43.8788 86.5088 56.0241 85.9004C56.3314 87.2923 56.6834 89.798 56.6834 89.798C55.6624 88.9593 44.6302 91.4086 31.082 89.5707Z" fill="#4E5C93"/>
<path d="M55.3797 89.554C55.5142 89.5477 55.6284 89.6517 55.6347 89.7862C55.641 89.9208 55.537 90.035 55.4025 90.0413L54.1424 90.0979C48.9055 90.3236 43.8468 90.4208 39.3412 90.4118L38.0083 90.4058C36.6209 90.396 35.3768 90.3756 34.3678 90.3479L33.588 90.3233C33.2433 90.3107 32.9595 90.2976 32.7512 90.2848L32.5198 90.268C32.4892 90.2652 32.4626 90.2625 32.4401 90.2598C32.3965 90.2545 32.3654 90.2493 32.3371 90.2409L32.3182 90.2386C32.2954 90.2331 32.2754 90.2118 32.1758 90.1054L32.2047 89.9444C32.2372 89.7752 32.2515 89.7739 32.3226 89.767C32.3735 89.7495 32.4263 89.7498 32.4741 89.7646L32.5026 89.7758L32.6622 89.79L32.9483 89.8074C33.0991 89.8153 33.2781 89.8233 33.4818 89.8311L34.0158 89.8496C35.2565 89.8881 36.922 89.9149 38.8051 89.9223L39.8847 89.9245C44.6084 89.9251 49.9141 89.8098 55.3797 89.554Z" fill="#253368"/>
<path fill-rule="evenodd" clip-rule="evenodd" d="M62.496 29.5442C62.496 29.5442 68.2599 31.8966 65.0841 37.5423C65.0841 37.5423 77.9402 49.7598 68.2448 60.0612C66.8335 65.4713 54.616 63.497 54.616 63.497C54.616 63.497 49.4993 69.6724 40.8546 64.9089C31.327 69.6724 26.5635 60.3218 26.5635 60.3218C26.5635 60.3218 16.8602 58.5572 19.507 49.9125C14.3139 43.0942 20.9795 40.0644 20.9795 40.0644C20.9795 40.0644 17.9497 33.3988 25.2213 29.763C23.9863 25.3521 29.463 21.8854 29.463 21.8854C30.169 14.4084 35.0882 8.17305 39.9723 8.80447C39.9723 8.80447 51.2778 3.10052 57.3374 18.2496C62.6905 22.5314 63.7309 25.4861 62.496 29.5442Z" fill="#253368"/>
<path fill-rule="evenodd" clip-rule="evenodd" d="M56.8522 26.6044C55.9705 28.5041 54.0411 29.6651 52.5389 28.9676C51.0361 28.2708 50.5332 26.165 51.4149 24.2653C52.2959 22.365 54.2296 21.3906 55.7317 22.0875C57.2345 22.785 57.7338 24.7041 56.8522 26.6044Z" fill="#FFC999"/>
<path fill-rule="evenodd" clip-rule="evenodd" d="M43.8564 47.4431C40.7187 47.4431 38.2082 44.8392 38.3221 41.704L38.7402 30.2324H48.9725L49.3906 41.704C49.5046 44.8392 46.994 47.4431 43.8564 47.4431Z" fill="#FFC999"/>
<path fill-rule="evenodd" clip-rule="evenodd" d="M53.736 24.86C53.2822 31.6656 50.7365 38.0131 43.5619 38.0131C36.9757 38.0131 33.6816 31.8571 33.6816 25.0363C33.6816 15.5093 38.1052 12.0596 43.5619 12.0596C49.0186 12.0596 54.3826 15.156 53.736 24.86Z" fill="#FFC999"/>
<path d="M37.3798 22.2629C38.7684 21.9205 40.1611 21.7763 41.5216 21.9363C41.7088 21.9583 41.8426 22.1279 41.8206 22.315C41.7986 22.5021 41.6291 22.636 41.4419 22.614C40.1737 22.4648 38.8589 22.6009 37.5432 22.9254C37.2528 22.997 37.0078 23.0655 36.7332 23.1493L36.256 23.2962C36.1607 23.3215 36.1324 23.3265 36.047 23.3069L35.9939 23.2917C35.9187 23.2671 35.9002 23.2362 35.7891 23.0508L35.7937 22.9174C35.7988 22.8312 35.8091 22.8176 35.8469 22.768L35.8986 22.7117C35.9129 22.6971 35.9198 22.6923 35.9359 22.6811C35.9868 22.6443 36.0444 22.6235 36.1027 22.6179L36.1492 22.6165L36.3158 22.5644C36.6959 22.4448 37.0005 22.3565 37.3798 22.2629Z" fill="#253368"/>
<path d="M46.3921 21.8325C48.0482 21.3593 49.5942 21.5653 50.9487 22.1955C51.4492 22.4284 51.8096 22.6636 52.0098 22.827C52.1558 22.9462 52.1775 23.1611 52.0583 23.3071C51.9391 23.453 51.7242 23.4747 51.5783 23.3555L51.5096 23.3034C51.4691 23.2741 51.4155 23.237 51.3493 23.1938C51.1518 23.0649 50.9213 22.9353 50.6609 22.8142C49.4453 22.2486 48.0638 22.0645 46.5795 22.4886C46.3983 22.5403 46.2095 22.4354 46.1577 22.2543C46.106 22.0731 46.2109 21.8843 46.3921 21.8325Z" fill="#253368"/>
<path d="M38.3111 24.9297C38.4995 24.9303 38.6517 25.0835 38.6511 25.272C38.648 26.2075 39.1855 26.9349 39.794 26.9367C40.4027 26.9389 40.9447 26.2153 40.9477 25.2794C40.9484 25.091 41.1016 24.9388 41.29 24.9394C41.4784 24.94 41.6307 25.0932 41.63 25.2817C41.6259 26.558 40.8284 27.6228 39.7918 27.619C38.7553 27.6159 37.9646 26.5458 37.9688 25.2697C37.9694 25.0813 38.1226 24.9291 38.3111 24.9297Z" fill="#253368"/>
<path d="M47.1333 24.9297C47.3217 24.9303 47.474 25.0835 47.4734 25.272C47.4703 26.2075 48.0077 26.9349 48.6163 26.9367C49.2249 26.9389 49.7669 26.2153 49.77 25.2794C49.7706 25.091 49.9239 24.9388 50.1123 24.9394C50.3007 24.94 50.4529 25.0932 50.4523 25.2817C50.4481 26.558 49.6506 27.6228 48.614 27.619C47.5776 27.6159 46.7869 26.5458 46.791 25.2697C46.7917 25.0813 46.9449 24.9291 47.1333 24.9297Z" fill="#253368"/>
<path d="M46.259 30.6706C46.4249 30.6015 46.6154 30.68 46.6845 30.8459C46.7536 31.0119 46.6751 31.2023 46.5091 31.2714C46.397 31.3181 46.2834 31.3611 46.1684 31.4005C44.875 31.8434 43.5059 31.8155 42.2133 31.505C42.0478 31.4653 41.895 31.4232 41.7562 31.3805L41.6549 31.3484C41.5543 31.3156 41.4823 31.2895 41.4419 31.2735C41.2748 31.2073 41.1931 31.0181 41.2593 30.8511C41.3256 30.684 41.5147 30.6023 41.6817 30.6685L41.7654 30.699C41.7911 30.708 41.8215 30.7182 41.8565 30.7296C42.0051 30.778 42.1757 30.8267 42.3653 30.8722C43.5481 31.1563 44.7982 31.1818 45.9576 30.7848C46.0594 30.7499 46.1599 30.7119 46.259 30.6706Z" fill="#F5222D"/>
<path d="M48.8795 36.1754C49.0282 36.0597 49.2426 36.0865 49.3583 36.2352C49.474 36.3839 49.4472 36.5983 49.2985 36.714L49.1859 36.797C49.1089 36.8516 49.0079 36.9197 48.8842 36.9981C48.5582 37.2048 48.1849 37.4109 47.7695 37.6032C45.3106 38.741 42.6255 38.9014 39.9854 37.4496C39.8203 37.3588 39.7601 37.1514 39.8509 36.9863C39.9417 36.8212 40.1491 36.7609 40.3142 36.8517C42.7398 38.1856 45.2042 38.0384 47.4829 36.9839C47.87 36.8048 48.2172 36.613 48.5189 36.4218L48.6957 36.3063C48.7804 36.2492 48.8421 36.2045 48.8795 36.1754Z" fill="#D18888"/>
<path fill-rule="evenodd" clip-rule="evenodd" d="M55.1456 22.9196C55.1456 22.9196 54.2633 27.6243 53.4404 27.977C53.9106 26.3306 53.3222 21.0375 53.0877 20.5672C52.852 20.0964 55.0868 19.6262 55.1456 22.9196Z" fill="#4E5C93"/>
<path d="M45.2401 22.9164C45.3048 22.7395 45.5007 22.6485 45.6777 22.7132C45.841 22.773 45.9311 22.9445 45.8931 23.1098L45.8809 23.1508L45.3166 24.6923L45.5756 29.0786C45.5856 29.2473 45.4711 29.3954 45.3102 29.4315L45.2691 29.4382L43.5627 29.6091C43.3752 29.6279 43.208 29.4911 43.1892 29.3036C43.1719 29.1306 43.2871 28.9748 43.4524 28.9371L43.4947 28.9302L44.8751 28.7918L44.6315 24.662C44.6297 24.6308 44.6321 24.5997 44.6387 24.5694L44.6517 24.5246L45.2401 22.9164Z" fill="#D18888"/>
<path fill-rule="evenodd" clip-rule="evenodd" d="M12.7932 84.7092C10.0391 83.3354 8.92053 79.9893 10.2943 77.2358L23.6818 50.4001C25.0549 47.6466 28.4017 46.528 31.1552 47.9017C33.9093 49.2754 35.0273 52.6215 33.6542 55.375L20.2666 82.2102C18.8923 84.9643 15.5467 86.0829 12.7932 84.7092Z" fill="#FFC999"/>
<path fill-rule="evenodd" clip-rule="evenodd" d="M27.977 66.7523L33.6519 55.3765C35.0201 52.6339 33.8961 49.2708 31.1529 47.9031C28.4109 46.5348 25.0478 47.6595 23.6795 50.4015L18.0586 61.6694L27.977 66.7523Z" fill="#597EF7"/>
<path d="M31.125 47.888C31.1725 47.7927 31.2882 47.7541 31.3834 47.8016C34.1813 49.1974 35.3509 52.598 34.0265 55.4131L33.9682 55.5334L28.2934 66.9091C28.2508 66.9944 28.1536 67.0343 28.0655 67.0077L28.0331 66.9946L18.1146 61.9118C18.0199 61.8632 17.9825 61.7471 18.031 61.6524C18.0742 61.5682 18.1707 61.5293 18.2581 61.5558L18.2904 61.5688L28.0351 66.5624L33.6234 55.3613C34.9247 52.7529 33.8901 49.5625 31.3272 48.2059L31.2114 48.1464C31.1161 48.0989 31.0775 47.9832 31.125 47.888Z" fill="#4E5C93"/>
<path fill-rule="evenodd" clip-rule="evenodd" d="M81.4673 82.7249C83.9263 80.8737 84.419 77.3803 82.5677 74.9219L64.5324 50.9621C62.6812 48.5037 59.1878 48.0111 56.7294 49.8623C54.2704 51.7129 53.7777 55.2063 55.6284 57.6653L73.6649 81.6245C75.5155 84.0829 79.0089 84.5755 81.4673 82.7249Z" fill="#FFC999"/>
<path fill-rule="evenodd" clip-rule="evenodd" d="M63.2737 67.8212L55.6283 57.6647C53.7849 55.216 54.28 51.7044 56.7287 49.8617C59.1768 48.0183 62.6884 48.5134 64.5317 50.9621L72.1044 61.0223L63.2737 67.8212Z" fill="#597EF7"/>
<path d="M56.4852 49.8053C56.5703 49.7413 56.6911 49.7584 56.7551 49.8434C56.8191 49.9285 56.802 50.0493 56.717 50.1133C54.3898 51.8646 53.8904 55.1787 55.5741 57.536L55.6546 57.6458L63.1826 67.6472L71.8593 60.9673C71.9343 60.9096 72.0382 60.9156 72.106 60.9769L72.1296 61.0024C72.1873 61.0774 72.1813 61.1813 72.12 61.2491L72.0944 61.2727L63.2637 68.0716C63.1882 68.1297 63.0833 68.1231 63.0157 68.0608L62.9922 68.0348L55.3467 57.8776C53.4393 55.3444 53.9516 51.712 56.4852 49.8053Z" fill="#4E5C93"/>
<path fill-rule="evenodd" clip-rule="evenodd" d="M61.0433 48.7135C56.2168 46.8248 52.5319 47.2162 50.9516 45.7958C50.0172 44.956 49.6948 40.9814 49.6948 40.9814H38.0403C38.0403 40.9814 37.7185 44.956 36.7841 45.7958C35.2038 47.2162 31.5122 45.425 27.1578 47.784C23.0475 50.0115 25.0484 57.0577 26.9299 62.1151C27.365 63.2846 26.6148 65.4885 27.342 67.1143C28.0734 68.7498 29.1853 70.7307 29.6259 71.7893C31.0753 75.2669 30.7778 79.0136 31.7134 82.1689C31.7134 82.1689 30.2233 85.0508 32.5751 86.2203H55.1612C57.9814 84.9333 56.0229 82.1689 56.0229 82.1689C56.9155 79.1578 56.3732 76.7291 57.6966 72.3189C57.9608 71.4366 58.9564 70.0387 59.8041 68.1729C61.1276 65.2618 60.5101 62.4683 60.6864 61.7624C62.2328 55.5773 65.2275 50.3515 61.0433 48.7135Z" fill="#597EF7"/>
<path d="M39.987 46.1201L47.7131 46.1825C47.8429 46.1836 47.9473 46.2897 47.9463 46.4195C47.9453 46.5364 47.8593 46.6327 47.7474 46.65L47.7093 46.6528L39.9832 46.5904C39.8534 46.5893 39.749 46.4832 39.75 46.3533C39.751 46.2365 39.837 46.1402 39.9489 46.1229L39.987 46.1201Z" fill="#A3B5D6"/>
<path d="M29.0101 55.1203C29.1062 55.1659 29.1471 55.2809 29.1014 55.377L29.064 55.4586L29.0251 55.5463C28.9757 55.6591 28.9217 55.7873 28.864 55.9301L28.8201 56.0399C28.6073 56.5766 28.3944 57.1849 28.1956 57.8526C27.4751 60.272 27.1271 62.7952 27.3553 65.2446C27.5381 67.2106 28.1825 68.8022 29.7535 71.3801L29.8762 71.5804L29.9019 71.648L30.2013 73.3308L30.4928 74.9469C30.5898 75.4812 30.6863 76.0088 30.7813 76.5232L31.1679 78.5895C31.5051 80.3616 31.7579 81.5959 31.8974 82.1205C31.9103 82.1691 31.9038 82.2207 31.8792 82.2645C31.0021 83.8248 31.64 85.815 32.5226 86.0192L32.5729 86.0288L55.1847 86.0288L55.2424 85.9937L55.3124 85.9462C55.4431 85.8535 55.5744 85.737 55.6971 85.5956C56.344 84.8495 56.5008 83.7639 55.8438 82.2466C55.8284 82.2111 55.8241 82.1717 55.8314 82.1337L55.9986 81.258C56.4635 78.8035 56.8555 76.5775 57.178 74.6085L57.2976 73.8703C57.3478 73.5565 57.3941 73.2619 57.4366 72.9868L57.5473 72.2561L57.6005 71.8904L57.6327 71.8077C59.5267 69.0622 60.3596 66.8872 60.4918 64.4581C60.6121 62.2442 60.2078 60.0432 59.4593 57.9721C59.2289 57.3344 58.982 56.7569 58.7354 56.25L58.6352 56.0481C58.6029 55.9843 58.5717 55.9241 58.5418 55.8675L58.4354 55.6715C58.4246 55.6525 58.4161 55.6377 58.4099 55.6272C58.356 55.5354 58.3866 55.4173 58.4783 55.3633C58.57 55.3094 58.6881 55.34 58.7421 55.4317L58.8117 55.5555L58.8371 55.6022C58.9111 55.7393 58.9934 55.8995 59.082 56.0814C59.3343 56.6001 59.5865 57.1901 59.8218 57.8411C60.5866 59.9574 61 62.2082 60.8766 64.4791C60.7437 66.9219 59.9244 69.1138 58.0928 71.8175L57.9754 71.9886L57.8785 72.6465L57.7848 73.256C57.718 73.6843 57.6426 74.1564 57.5583 74.6708L57.3808 75.7387C57.0741 77.558 56.7127 79.5736 56.2943 81.7657L56.2205 82.149L56.255 82.2302C56.8839 83.769 56.7226 84.944 56.049 85.7756L55.9882 85.848C55.7656 86.1048 55.5416 86.2735 55.3723 86.3665L55.318 86.3947L55.2335 86.4142L32.5442 86.4121C31.3539 86.2333 30.5832 84.0396 31.4446 82.2641L31.5052 82.1449L31.4464 81.9015C31.3042 81.2939 31.0938 80.2556 30.8286 78.8677L30.4967 77.1033L30.2105 75.548C30.1139 75.0185 30.0164 74.4802 29.9191 73.9397L29.5286 71.7506L29.4232 71.5787C27.866 69.0231 27.1954 67.3998 26.987 65.436L26.9715 65.2803C26.7383 62.776 27.0928 60.2056 27.8262 57.7426C28.0284 57.0637 28.245 56.4447 28.4618 55.8978L28.5504 55.6786C28.579 55.6092 28.6066 55.5436 28.6331 55.4817L28.7533 55.2116C28.799 55.1155 28.914 55.0746 29.0101 55.1203Z" fill="#4E5C93"/>
<path d="M57.3333 65.9785C57.4397 65.9785 57.526 66.0648 57.526 66.1712C57.526 66.2658 57.4578 66.3445 57.3679 66.3608L57.3333 66.3639H29.4583C29.3519 66.3639 29.2656 66.2777 29.2656 66.1712C29.2656 66.0766 29.3338 65.9979 29.4237 65.9816L29.4583 65.9785H57.3333Z" fill="#4E5C93"/>
<path d="M36.5448 45.6576C36.6447 45.5886 36.7778 45.6042 36.8594 45.6888L36.8846 45.7196L43.7643 55.6707L50.9537 45.8902C51.0256 45.7924 51.1566 45.7637 51.2613 45.8172L51.2951 45.8381C51.3929 45.9099 51.4216 46.0409 51.3681 46.1456L51.3473 46.1794L43.9551 56.236C43.864 56.3599 43.6859 56.3678 43.5834 56.2619L43.5575 56.2303L36.4828 45.9974C36.4061 45.8864 36.4339 45.7343 36.5448 45.6576Z" fill="#E4EBF7"/>
<path fill-rule="evenodd" clip-rule="evenodd" d="M47.727 59.7222C47.727 61.9631 45.9103 63.7798 43.6695 63.7798C41.428 63.7798 39.6113 61.9631 39.6113 59.7222C39.6113 57.4814 41.428 55.6641 43.6695 55.6641C45.9103 55.6641 47.727 57.4814 47.727 59.7222Z" fill="#E4EBF7"/>
<path fill-rule="evenodd" clip-rule="evenodd" d="M46.6005 59.7228C46.6005 61.3407 45.2886 62.6526 43.6701 62.6526C42.0522 62.6526 40.7402 61.3407 40.7402 59.7228C40.7402 58.1049 42.0522 56.793 43.6701 56.793C45.2886 56.793 46.6005 58.1049 46.6005 59.7228Z" fill="#FFC2BD"/>
<path fill-rule="evenodd" clip-rule="evenodd" d="M50.3231 58.9558H42.5376C41.9068 58.9558 41.3905 58.4546 41.3705 57.8244L40.8385 41.0526C40.8173 40.3927 41.3469 39.8467 42.0062 39.8467H50.8551C51.5144 39.8467 52.0434 40.3927 52.0228 41.0526L51.4908 57.8244C51.4708 58.4546 50.9539 58.9558 50.3231 58.9558Z" fill="#4E5C93"/>
<path fill-rule="evenodd" clip-rule="evenodd" d="M42.9011 55.9988C44.044 57.2798 43.9773 59.2329 42.7497 60.4327L19.0528 83.5957C16.8047 85.6529 13.3095 85.476 11.2807 83.2024C9.23435 80.9088 9.47977 77.3797 11.8236 75.3915L38.5939 55.5571C39.9283 54.5682 41.7959 54.7602 42.9011 55.9988Z" fill="#FFC999"/>
<path fill-rule="evenodd" clip-rule="evenodd" d="M44.6235 61.6722C44.6235 61.6722 39.3553 62.8963 37.5628 60.2585C35.9388 57.8698 38.1264 55.9634 38.1264 55.9634C38.1264 55.9634 40.0006 53.7232 42.8796 52.2216C44.7762 51.2321 48.5738 49.7172 49.2283 50.6425C50.0808 51.8502 45.6834 53.3148 46.0088 54.3401C46.3433 55.3926 47.2746 55.1569 49.5676 55.3181C51.0007 55.4193 52.4532 54.9545 53.6518 55.2714C55.9957 55.8919 52.6792 60.4954 44.6235 61.6722Z" fill="#FFC999"/>
<path d="M54.1583 56.0794C54.2804 56.0294 54.4201 56.0878 54.4701 56.21C54.5202 56.3321 54.4618 56.4718 54.3396 56.5218C52.0542 57.4586 49.9413 57.5978 48.1869 57.2722C48.0435 57.2456 47.9135 57.2174 47.7978 57.1888L47.7136 57.1673C47.6304 57.1452 47.572 57.1276 47.5398 57.1168C47.4147 57.0747 47.3474 56.9391 47.3895 56.814C47.4316 56.6889 47.5672 56.6216 47.6923 56.6637L47.7952 56.6941L47.8359 56.7051C47.9604 56.738 48.1068 56.7711 48.2741 56.8022C49.9434 57.1119 51.9642 56.9788 54.1583 56.0794Z" fill="#DD936F"/>
<path d="M53.0115 58.103C53.0392 58.2321 52.957 58.3592 52.8279 58.3869L52.6731 58.4173C52.6382 58.4237 52.5988 58.4308 52.555 58.4385C52.3377 58.4765 52.0889 58.5144 51.8122 58.5498C50.3356 58.7386 48.7315 58.7808 47.1338 58.585C47.0028 58.5689 46.9096 58.4496 46.9256 58.3186C46.9417 58.1875 47.061 58.0943 47.192 58.1104C48.7458 58.3009 50.3115 58.2597 51.7516 58.0756C52.0208 58.0412 52.2624 58.0043 52.4726 57.9675L52.7276 57.9194C52.8567 57.8917 52.9838 57.974 53.0115 58.103Z" fill="#DD936F"/>
<path d="M50.5714 59.2504C50.699 59.2163 50.83 59.292 50.8641 59.4196C50.8982 59.5471 50.8224 59.6781 50.6949 59.7122C48.6953 60.2468 47.1233 60.3585 46.0019 60.2278L45.8332 60.2053C45.7698 60.1956 45.7218 60.1865 45.6894 60.179C45.5608 60.1494 45.4805 60.0211 45.51 59.8925C45.5396 59.7638 45.6679 59.6835 45.7966 59.7131L45.8737 59.7277C45.9081 59.7334 45.9511 59.7397 46.0027 59.7463L46.0572 59.7529C47.119 59.8767 48.6303 59.7693 50.5714 59.2504Z" fill="#DD936F"/>
<path d="M31.7829 60.1301C31.8884 60.0507 32.0383 60.0719 32.1177 60.1774C32.1882 60.2712 32.1793 60.4 32.1024 60.4832L32.0704 60.5121L14.1562 73.9906C14.0507 74.07 13.9009 74.0488 13.8215 73.9433C13.7509 73.8495 13.7598 73.7207 13.8368 73.6375L13.8688 73.6085L31.7829 60.1301Z" fill="#DD936F"/>
<path fill-rule="evenodd" clip-rule="evenodd" d="M27.0943 35.0926C28.5929 28.7978 30.6228 22.9194 30.6228 22.9194C33.0406 13.7033 35.7396 9.5106 45.4423 9.86327C55.1462 10.2165 60.4442 22.8091 55.6419 23.9804C48.4085 25.745 47.7219 22.1074 45.5605 18.3243C44.1492 15.8544 43.3578 16.5325 42.7961 17.4039C42.4349 17.9638 41.6926 18.9279 40.2674 18.0504C38.7385 17.1094 36.5152 17.9456 36.7243 21.7008C37.0182 26.9939 35.6457 26.2504 36.1298 29.1572C36.6243 32.1203 40.2183 31.235 39.1597 35.8228C39.1597 35.8228 42.1786 37.5298 36.8855 41.2353C32.5952 44.2384 26.212 38.7975 27.0943 35.0926Z" fill="#253368"/>
</svg>
