<svg width="98" height="258" viewBox="0 0 98 258" fill="none" xmlns="http://www.w3.org/2000/svg">
<path fill-rule="evenodd" clip-rule="evenodd" d="M32.1582 93.0131C32.1582 93.0131 57.7333 74.6321 61.5171 72.9281C70.8995 68.7017 75.0089 77.5875 69.3066 82.0028C61.72 87.878 34.9812 98.2678 34.9812 98.2678L32.1582 93.0131Z" fill="#FFC999"/>
<path fill-rule="evenodd" clip-rule="evenodd" d="M20.0566 37.3218C20.0566 37.3218 16.9216 61.9348 15.8154 65.2019C12.5025 74.9913 3.14982 71.0592 3.9963 64.7746C5.04811 56.9615 14.693 36.1073 14.693 36.1073L20.0566 37.3218Z" fill="#FFC999"/>
<path fill-rule="evenodd" clip-rule="evenodd" d="M17.9109 38.9581C17.9109 38.9581 19.7528 39.0391 21.8755 37.6558C23.9805 36.2836 28.9776 31.3864 29.2082 31.0375C29.993 29.8468 28.6177 29.119 25.6072 31.8082C26.0646 28.8896 27.1088 26.9877 28.7115 25.8055C30.3137 24.624 28.8734 22.7864 26.1872 23.7282C23.5004 24.6693 21.2789 25.0415 19.4499 27.1569C16.8305 30.1858 15.6594 33.2712 14.9708 35.7428C14.2124 38.4652 15.2277 38.5639 17.9109 38.9581Z" fill="#FFC999"/>
<path d="M25.4948 31.5988C25.609 31.5369 25.7517 31.5792 25.8136 31.6934C25.8693 31.7961 25.8406 31.922 25.751 31.9913L25.719 32.0122L24.0886 32.8964C24.0608 32.9115 24.0303 32.9208 23.9988 32.9238L23.7871 32.9478L23.5166 32.9842C23.4219 32.9978 23.3229 33.013 23.2202 33.0298C22.6338 33.1256 22.0478 33.2534 21.5026 33.417C20.1672 33.8178 19.3123 34.3642 19.1554 35.0261C19.1254 35.1524 18.9987 35.2306 18.8724 35.2006C18.746 35.1707 18.6678 35.0439 18.6978 34.9176C18.907 34.0355 19.8815 33.4125 21.3674 32.9666C21.9341 32.7965 22.5394 32.6645 23.1444 32.5657L23.4498 32.5187C23.5475 32.5046 23.6408 32.4921 23.7291 32.4811L23.9054 32.4603L25.4948 31.5988Z" fill="#DD936F"/>
<path d="M23.2635 24.6385C23.3276 24.5256 23.4712 24.4861 23.5841 24.5503C23.9408 24.753 24.0461 25.0833 23.9321 25.4481C23.8737 25.635 23.7621 25.8235 23.613 26.0125C23.5389 26.1063 23.4601 26.1943 23.3813 26.2745C23.3336 26.3231 23.2957 26.3589 23.2446 26.4011L23.187 26.4408C23.1199 26.4892 23.0249 26.5634 22.9096 26.6632C22.6506 26.8872 22.3911 27.1558 22.1489 27.468C21.6269 28.1411 21.2594 28.9195 21.1137 29.8025C21.0925 29.9306 20.9715 30.0173 20.8434 29.9962C20.7152 29.975 20.6285 29.854 20.6497 29.7259C20.809 28.7606 21.2099 27.9113 21.7773 27.1797C22.0395 26.8417 22.3204 26.551 22.6019 26.3075L22.7097 26.2164C22.8281 26.1189 22.9185 26.053 22.9593 26.0288L23.0177 25.9733C23.0264 25.9646 23.0358 25.9551 23.0459 25.9449C23.1135 25.8761 23.1811 25.8005 23.2438 25.7211C23.3605 25.5733 23.4448 25.4308 23.4832 25.3078C23.5301 25.1579 23.5087 25.0638 23.3902 24.983L23.3517 24.9592C23.2388 24.895 23.1993 24.7514 23.2635 24.6385Z" fill="#DD936F"/>
<path d="M23.1668 29.4765C23.1494 29.5883 23.0532 29.6744 22.9363 29.6754C22.8194 29.6763 22.7218 29.5919 22.7026 29.4798L22.6992 29.4415C22.6983 29.2251 22.7788 28.8516 23.0135 28.3398C23.3916 27.5152 24.068 26.5872 25.1069 25.5803L25.1626 25.5177L25.1895 25.4862C25.2537 25.4099 25.3179 25.3268 25.3775 25.2405C25.4657 25.1129 25.5352 24.99 25.579 24.8792C25.6957 24.5845 25.637 24.4714 25.2313 24.4331C25.102 24.4209 25.007 24.3063 25.0192 24.177C25.0314 24.0477 25.1461 23.9527 25.2754 23.9649C26.0109 24.0342 26.2425 24.4808 26.0163 25.0523C25.9577 25.2004 25.8713 25.353 25.7645 25.5077C25.6958 25.6072 25.6226 25.7018 25.5494 25.7889L25.4896 25.8582C25.4717 25.8783 25.4558 25.8956 25.4415 25.9105C24.4357 26.8857 23.7938 27.7664 23.441 28.5358C23.3197 28.8003 23.2428 29.0308 23.2008 29.2255C23.1808 29.3184 23.1723 29.3838 23.1701 29.4205L23.1695 29.4392L23.1668 29.4765Z" fill="#DD936F"/>
<path d="M27.4805 23.5614C27.5657 23.4634 27.7142 23.4529 27.8123 23.5381C28.3073 23.9682 28.296 24.4644 27.8851 25.0509L27.8292 25.1252C27.5138 25.5256 26.4751 26.6346 26.4278 26.6888C26.2995 26.8358 26.1814 26.9778 26.0703 27.1191C25.5571 27.7728 25.1813 28.408 24.9216 28.999C24.8314 29.2043 24.7622 29.3888 24.7114 29.5494L24.6817 29.6473C24.6699 29.6888 24.6623 29.7188 24.6584 29.7367C24.631 29.8636 24.5059 29.9444 24.379 29.917C24.252 29.8896 24.1713 29.7645 24.1987 29.6376L24.2156 29.5687C24.2268 29.5264 24.2424 29.4724 24.263 29.4074C24.3189 29.231 24.394 29.0307 24.491 28.8098C24.7663 28.1834 25.1622 27.5142 25.7005 26.8286C25.778 26.7299 25.8587 26.6312 25.9433 26.5311L26.103 26.3469C26.3004 26.1314 27.3181 25.0405 27.4999 24.781C27.7861 24.3725 27.7914 24.143 27.5038 23.8931C27.4058 23.8079 27.3954 23.6594 27.4805 23.5614Z" fill="#DD936F"/>
<path fill-rule="evenodd" clip-rule="evenodd" d="M46.6239 6.04674C46.6239 6.04674 30.9077 7.82916 30.3497 16.7529C30.0634 21.3424 34.2868 26.5597 32.0469 27.8503C23.293 32.8966 31.5754 36.554 25.1177 39.136C16.0155 42.7744 19.1156 57.2172 27.6071 56.9118C36.4021 56.5954 35.2733 68.9069 50.5334 66.1305C59.134 64.5658 57.3105 59.373 63.4953 56.6757C69.6808 53.9791 78.585 41.8571 71.5583 33.7329C67.1951 28.5947 62.7602 28.8492 60.6123 20.5618C58.4651 12.2739 56.2516 7.14857 52.1772 7.61211C50.813 5.42807 46.6239 6.04674 46.6239 6.04674Z" fill="#253368"/>
<path fill-rule="evenodd" clip-rule="evenodd" d="M20.866 41.0418L16.2931 33.1217C15.9148 32.4662 16.1392 31.6275 16.7953 31.2491L33.8396 21.4087C34.4951 21.0297 35.3333 21.2548 35.7122 21.9102L40.2851 29.8303C40.6634 30.4858 40.439 31.3246 39.7829 31.7029L22.7386 41.5433C22.0831 41.9223 21.2443 41.6973 20.866 41.0418Z" fill="#597EF7"/>
<path fill-rule="evenodd" clip-rule="evenodd" d="M21.3817 40.7801L16.8088 32.86C16.4305 32.2045 16.6549 31.3657 17.3103 30.9874L34.3553 21.147C35.0107 20.768 35.8489 20.993 36.2278 21.6485L40.8001 29.5686C41.179 30.2247 40.954 31.0628 40.2985 31.4412L23.2542 41.2816C22.5981 41.6605 21.76 41.4355 21.3817 40.7801Z" fill="#E4EBF7"/>
<path fill-rule="evenodd" clip-rule="evenodd" d="M23.6795 40.1349L18.4727 31.0346L33.8075 22.1807L39.0144 31.281L23.6795 40.1349Z" fill="#253368"/>
<path fill-rule="evenodd" clip-rule="evenodd" d="M57.9182 179.721C57.893 179.565 71.4866 230.632 71.5908 233.44C71.8747 241.104 71.646 242.188 75.8099 244.073C76.8762 244.555 78.4367 243.91 80.1639 245.717C84.8925 250.662 91.6366 253.314 92.3687 250.348C92.8108 247.578 81.782 239.204 80.5067 233.56C79.1823 227.697 73.1519 175.467 71.6509 170.429C68.9672 161.421 53.4293 147.265 57.9182 179.721Z" fill="#FFC999"/>
<path fill-rule="evenodd" clip-rule="evenodd" d="M73.2082 245.154C73.2082 245.154 71.1137 241.039 71.7851 235.912C71.7851 235.912 75.9624 238.94 79.0956 242.284C82.7138 246.145 83.5649 246.318 83.5649 246.318C87.9894 247.524 88.8882 244.984 88.8882 244.984C88.8882 244.984 91.3813 247.97 95.9959 251.118C100.128 253.937 84.4987 255.089 82.2184 251.212C79.9381 247.335 77.0336 245.125 77.0336 245.125L76.0176 251.157L74.5252 251.168L73.2082 245.154Z" fill="#253368"/>
<path fill-rule="evenodd" clip-rule="evenodd" d="M40.5273 184.746C40.5377 184.588 37.7816 227.99 37.9385 230.796C38.3671 238.453 39.3065 239.454 35.3351 241.717C34.3185 242.297 32.7047 241.799 31.1522 243.759C26.9037 249.121 20.4343 252.387 19.4306 249.503C18.7335 246.786 28.9369 237.424 29.6825 231.686C30.4575 225.725 23.7024 177.512 25.2813 172.498C27.6002 165.134 37.2929 152.634 40.5273 184.746Z" fill="#FFC999"/>
<path fill-rule="evenodd" clip-rule="evenodd" d="M38.034 242.55C38.034 242.55 39.1266 238.316 37.9825 233.272C37.9825 233.272 34.715 236.618 31.9056 240.238C28.6614 244.419 27.83 244.67 27.83 244.67C23.5367 246.282 22.406 243.836 22.406 243.836C22.406 243.836 20.2005 247.041 15.8981 250.603C12.0457 253.793 27.7141 253.491 29.6247 249.419C31.5358 245.346 34.222 242.876 34.222 242.876L35.7942 248.788L37.281 248.66L38.034 242.55Z" fill="#253368"/>
<path fill-rule="evenodd" clip-rule="evenodd" d="M43.1374 158.596L43.1233 219.384L17.9492 221.001C17.9492 221.001 18.3643 188.595 18.9162 157.913C18.9162 157.913 18.3306 142.576 30.9903 142.51C43.6506 142.444 43.1374 158.596 43.1374 158.596Z" fill="#E4EBF7"/>
<path fill-rule="evenodd" clip-rule="evenodd" d="M18.7679 152.949C18.8415 128.213 19.0267 101.866 21.1537 96.4136C21.1537 96.4136 25.4028 93.5502 33.8054 98.5388C43.603 104.356 42.9291 113.181 42.9291 113.181L42.8279 153.248C42.7047 156.521 42.5949 166.682 29.9708 166.97C17.5441 167.254 18.7667 153.488 18.7679 152.949Z" fill="#E4EBF7"/>
<path fill-rule="evenodd" clip-rule="evenodd" d="M36.528 24.917C36.4943 24.7429 36.2552 24.7208 36.1896 24.8857C35.6114 26.342 34.2017 30.2821 35.7616 30.5567C37.5213 30.8664 36.8346 26.5063 36.528 24.917Z" fill="white"/>
<path fill-rule="evenodd" clip-rule="evenodd" d="M49.9702 39.0071C49.747 31.8566 50.0456 29.0771 50.0456 29.0771L40.9876 31.0815L40.1279 38.611C39.8122 41.3831 41.8527 43.8663 44.6334 44.0926C47.574 44.3323 50.0622 41.9558 49.9702 39.0071Z" fill="#F4B784"/>
<path fill-rule="evenodd" clip-rule="evenodd" d="M46.6349 15.5309C46.6349 15.5309 45.8047 12.681 43.8015 13.8742C42.3692 14.7277 42.7929 13.968 42.5458 13.1973C41.6273 10.3369 40.5647 16.794 36.0556 17.8793C35.7098 21.3497 34.7987 32.7886 42.2766 33.8083C45.1854 34.205 48.857 32.6734 50.6897 28.5567C51.797 26.0691 51.2354 23.3866 50.2513 22.7882C47.0095 20.8181 47.2094 19.0633 46.6349 15.5309Z" fill="#FFC999"/>
<path d="M40.1915 18.1233C40.3058 18.0991 40.4183 18.1626 40.4592 18.2681L40.4701 18.3048L40.8545 20.1265L40.8585 20.1984L40.84 20.3637L40.8155 20.5606C40.7832 20.8124 40.7423 21.1003 40.692 21.4224L40.666 21.5863C40.5154 22.5256 40.3157 23.5711 40.0601 24.708L39.9586 25.1506L40.5746 25.4414L41.9963 26.1259C42.113 26.1829 42.1614 26.3237 42.1044 26.4404C42.0474 26.5571 41.9066 26.6054 41.7899 26.5485L41.2625 26.2926L40.6667 26.0063L39.9922 25.686L39.5872 25.4964C39.4861 25.4494 39.4319 25.3377 39.4575 25.2292C39.7561 23.9636 39.9873 22.8036 40.1598 21.7681L40.2017 21.5119C40.2457 21.2374 40.2831 20.9866 40.3144 20.7603L40.3728 20.3095L40.3866 20.1869L40.0099 18.4019C39.9858 18.2876 40.0492 18.1751 40.1548 18.1342L40.1915 18.1233Z" fill="#DD936F"/>
<path d="M37.1215 20.4319C37.2886 20.4595 37.4016 20.6173 37.374 20.7843L37.3617 20.8862C37.3373 21.1372 37.3424 21.4112 37.3964 21.6609C37.5043 22.1602 37.7644 22.42 38.2835 22.4102C38.6259 22.4037 38.8395 22.1826 38.9667 21.7661C39.0379 21.533 39.0669 21.2883 39.0706 21.0913L39.0706 21.0046C39.0649 20.8354 39.1975 20.6936 39.3667 20.6879C39.5218 20.6827 39.6539 20.7937 39.6792 20.9426L39.6835 20.9874L39.6837 21.1025C39.6794 21.3511 39.6437 21.6484 39.5531 21.9451C39.3566 22.5889 38.9488 23.0109 38.2951 23.0232C37.4494 23.0393 36.9617 22.5521 36.7971 21.7904C36.7277 21.4692 36.7214 21.1356 36.7515 20.8269C36.7578 20.7621 36.7643 20.7135 36.7691 20.6844C36.7944 20.5313 36.9291 20.4235 37.08 20.4279L37.1215 20.4319Z" fill="#253368"/>
<path d="M43.9661 20.9041C44.12 20.9247 44.2318 21.056 44.2321 21.207L44.2229 21.3172C44.204 21.5634 44.2166 21.8417 44.2823 22.0967C44.408 22.5842 44.682 22.8416 45.2074 22.8316C45.5526 22.8251 45.7696 22.6061 45.9012 22.1955C45.9761 21.9616 46.0072 21.7176 46.0122 21.5268L46.0128 21.4485C46.0088 21.2776 46.1428 21.1372 46.3121 21.1333C46.4672 21.1296 46.5982 21.2419 46.622 21.391L46.6259 21.4411C46.629 21.7005 46.5946 22.0408 46.4851 22.3826C46.2817 23.0173 45.8703 23.4324 45.219 23.4446C44.3799 23.4606 43.8796 22.9906 43.6886 22.2497C43.6034 21.9192 43.588 21.578 43.6115 21.2704L43.6217 21.1674C43.6422 21.0135 43.7735 20.9017 43.9245 20.9014L43.9661 20.9041Z" fill="#253368"/>
<path d="M44.3251 27.0773C44.4884 27.0327 44.657 27.1289 44.7017 27.2922C44.7464 27.4555 44.6502 27.6241 44.4869 27.6688C43.1174 28.0434 41.8322 28.0906 40.7448 27.946C40.5375 27.9184 40.3887 27.8903 40.3058 27.8706C40.1411 27.8313 40.0395 27.6659 40.0788 27.5012C40.1181 27.3365 40.2834 27.2348 40.4481 27.2741L40.5076 27.287C40.5791 27.3014 40.6861 27.3196 40.8256 27.3382C41.8371 27.4727 43.0416 27.4285 44.3251 27.0773Z" fill="#C44343"/>
<path d="M36.3999 17.425L36.9509 17.5309C37.3752 17.6106 37.8202 17.6903 38.2642 17.7646L38.7713 17.847L39.0159 17.8848C39.3433 17.9345 39.6477 17.9767 39.9246 18.0105C40.0927 18.0309 40.2124 18.1838 40.1919 18.3518C40.1714 18.5199 40.0186 18.6396 39.8505 18.6191C39.5672 18.5846 39.2569 18.5415 38.9239 18.491L38.4224 18.4121C38.3368 18.3982 38.2503 18.3839 38.163 18.3693C37.8268 18.313 37.4902 18.2538 37.1624 18.1937L36.5241 18.0739L36.2798 18.0262C36.1137 17.993 36.006 17.8315 36.0392 17.6655C36.0696 17.5133 36.2079 17.4101 36.3586 17.4195L36.3999 17.425Z" fill="#253368"/>
<path d="M47.4369 18.0463C47.6049 18.0254 47.758 18.1447 47.7789 18.3128C47.7998 18.4808 47.6805 18.6339 47.5124 18.6548C46.4287 18.7894 45.3396 18.8771 44.298 18.927L43.9441 18.9426C43.8299 18.9471 43.7194 18.9511 43.613 18.9544L43.0542 18.9675C43.0046 18.9682 42.9651 18.9685 42.9364 18.9686C42.7671 18.9691 42.6294 18.8323 42.6289 18.6629C42.6284 18.4936 42.7653 18.356 42.9346 18.3555L43.292 18.3498L43.7541 18.3362C43.9171 18.3304 44.0889 18.3232 44.2686 18.3146C45.2957 18.2653 46.3697 18.1789 47.4369 18.0463Z" fill="#253368"/>
<path d="M41.674 29.0195L42.4925 29.0582C42.6223 29.0643 42.7225 29.1744 42.7163 29.3041C42.7108 29.4209 42.6211 29.5137 42.5086 29.5266L42.4704 29.5279L41.6518 29.4893C41.5221 29.4832 41.4219 29.373 41.428 29.2433C41.4335 29.1266 41.5233 29.0337 41.6357 29.0208L41.674 29.0195Z" fill="#DD936F"/>
<path fill-rule="evenodd" clip-rule="evenodd" d="M55.3107 24.87C56.1157 21.9692 53.2818 21.9766 53.2818 21.9766C53.2818 21.9766 53.0482 24.9013 52.1211 27.4741C54.9557 27.5599 55.3107 24.87 55.3107 24.87Z" fill="#FFC999"/>
<path fill-rule="evenodd" clip-rule="evenodd" d="M53.5905 26.833C53.5568 26.6589 53.3177 26.6368 53.2521 26.8018C52.6739 28.2586 51.2642 32.198 52.8241 32.4727C54.5839 32.7824 53.8971 28.4229 53.5905 26.833Z" fill="white"/>
<path fill-rule="evenodd" clip-rule="evenodd" d="M6.90212 64.7739C6.90212 64.7739 21.3162 53.2571 24.2944 51.2758C31.4866 46.491 36.7292 48.0698 37.1754 51.853C37.7133 56.4141 13.5021 69.7227 13.5021 69.7227C13.5021 69.7227 10.4557 71.6719 6.95499 69.8343C2.81751 67.6625 6.90212 64.7739 6.90212 64.7739Z" fill="#FFC999"/>
<path fill-rule="evenodd" clip-rule="evenodd" d="M18.3906 55.4426C19.5415 53.6013 28.5003 38.5767 34.7335 44.8541C39.4916 49.6459 36.8164 56.3194 25.2812 65.8195L18.3906 55.4426Z" fill="#597EF7"/>
<path fill-rule="evenodd" clip-rule="evenodd" d="M49.1907 81.5291C44.3627 82.7064 32.2101 81.9136 30.776 81.2992C29.3418 80.6842 30.6607 77.9612 30.6607 77.9612C30.6607 77.9612 25.3349 66.8099 25.1301 63.7361C24.9253 60.663 27.6654 53.7136 27.6654 53.7136C27.6654 53.7136 28.0499 46.8506 28.5208 45.0847C29.2541 42.3341 36.0454 43.7683 37.6334 42.9485C39.2215 42.1287 39.487 38.1494 39.487 38.1494L50.2196 37.4854C50.2196 37.4854 50.8168 40.529 51.4495 41.583C52.6783 43.6322 56.2615 40.6333 59.3426 43.5874C66.0253 49.9942 54.4534 67.9178 50.2796 77.1752C50.2796 77.1752 51.7445 79.426 49.1907 81.5291Z" fill="#597EF7"/>
<path d="M50.0618 42.5892C50.2299 42.5689 50.3826 42.6887 50.4029 42.8568C50.4215 43.0109 50.3224 43.152 50.1763 43.1901L50.1353 43.1979L39.8902 44.4346C39.7221 44.4549 39.5694 44.3351 39.5491 44.167C39.5305 44.0129 39.6296 43.8717 39.7758 43.8336L39.8167 43.8259L50.0618 42.5892Z" fill="#253368"/>
<path d="M49.722 44.1135C49.8859 44.0708 50.0533 44.1689 50.0961 44.3328C50.1353 44.4829 50.056 44.6362 49.9164 44.6936L49.8768 44.7068L44.4602 46.1202C44.2964 46.1629 44.1289 46.0647 44.0862 45.9009C44.047 45.7507 44.1262 45.5975 44.2659 45.5401L44.3054 45.5269L49.722 44.1135Z" fill="#253368"/>
<path d="M49.6439 59.812C49.7372 59.7258 49.8827 59.7316 49.9689 59.825C50.055 59.9183 50.0492 60.0637 49.9559 60.1499C49.8876 60.2129 49.7589 60.3181 49.5711 60.4511C49.2619 60.6703 48.8963 60.8887 48.4756 61.0923C46.5515 62.0233 44.2049 62.3356 41.4792 61.6712L41.2632 61.6167C40.4208 61.3969 38.2926 61.399 35.3094 61.5731C34.5578 61.617 33.7703 61.6707 32.9599 61.7325L32.471 61.7705C31.833 61.821 31.2078 61.8741 30.6079 61.928L29.4223 62.0384L28.8629 62.0939C28.7366 62.1069 28.6236 62.0151 28.6106 61.8887C28.5976 61.7624 28.6894 61.6494 28.8157 61.6364L29.6911 61.5507L29.858 61.535C30.553 61.4699 31.2917 61.4047 32.0525 61.3428L32.4347 61.3121C33.2562 61.247 34.0576 61.1895 34.8257 61.1416L35.6918 61.0909C38.4499 60.9404 40.4155 60.9448 41.3153 61.1559L41.3793 61.1717C44.0868 61.8778 46.3953 61.588 48.2753 60.6783C48.6724 60.4862 49.0162 60.2808 49.3052 60.0759L49.4227 59.9906C49.5293 59.911 49.6033 59.8495 49.6439 59.812Z" fill="#253368"/>
<path d="M28.0851 49.2734L28.1225 49.2745C28.2362 49.287 28.3213 49.3802 28.3271 49.4908L28.326 49.5282L27.9403 53.0391L27.925 53.0999L27.817 53.3738L27.6515 53.8047C27.6126 53.9073 27.5723 54.0144 27.5309 54.1257C27.2347 54.9204 26.9386 55.7633 26.6623 56.617C26.4401 57.3036 26.2401 57.9688 26.0679 58.6022C25.6251 60.2309 25.3871 61.568 25.4063 62.5021C25.4218 63.2577 25.5866 64.1788 25.8776 65.227C26.0759 65.9411 26.3279 66.6972 26.6212 67.4769C26.8888 68.1881 27.1756 68.8797 27.4624 69.524L27.6346 69.9051L27.8327 70.3269C27.8367 70.3352 27.8403 70.3426 27.8434 70.349C27.8993 70.463 27.8522 70.6007 27.7381 70.6566C27.6241 70.7125 27.4863 70.6653 27.4305 70.5513L27.3231 70.326C27.2383 70.1455 27.1439 69.9393 27.0422 69.711C26.752 69.0589 26.4618 68.3591 26.1908 67.6388C25.893 66.8471 25.6367 66.0784 25.4345 65.35C25.1341 64.2679 24.9629 63.3114 24.9465 62.5115C24.9262 61.523 25.1707 60.1494 25.6241 58.4816C25.7984 57.8407 26.0004 57.1686 26.2247 56.4754C26.5033 55.6148 26.8016 54.7657 27.1 53.9651L27.2216 53.6415L27.4861 52.9587L27.8689 49.478C27.88 49.377 27.9549 49.2985 28.049 49.2782L28.0851 49.2734Z" fill="#253368"/>
<path fill-rule="evenodd" clip-rule="evenodd" d="M29.6714 111.365L20.6329 102.11C20.6329 102.11 19.5967 88.6443 30.2545 82.9199L50.3806 84.2928C50.3806 84.2928 57.8273 89.7498 58.9426 105.423L39.6664 112.484L29.6714 111.365Z" fill="#E4EBF7"/>
<path fill-rule="evenodd" clip-rule="evenodd" d="M50.8243 84.5764L29.0273 84.1471L29.8625 79.833L50.4827 80.6375L50.8243 84.5764Z" fill="#E4EBF7"/>
<path d="M37.3954 85.0559C37.5211 85.0733 37.6089 85.1894 37.5915 85.3152C35.8599 97.7823 35.6865 108.862 36.4417 117.926L36.4772 118.343C36.5744 119.46 36.6785 120.437 36.7825 121.268L36.8515 121.797L36.906 122.18C36.9123 122.223 36.9172 122.254 36.9206 122.275C36.9407 122.401 36.8553 122.519 36.7299 122.539C36.6045 122.559 36.4866 122.473 36.4665 122.348L36.4277 122.087L36.3444 121.469L36.2739 120.895C36.1955 120.231 36.1178 119.485 36.0437 118.661L36.0191 118.383C35.2206 109.21 35.3728 97.947 37.136 85.252C37.1517 85.1388 37.2473 85.0563 37.358 85.0537L37.3954 85.0559Z" fill="#A3B5D6"/>
<path d="M29.9973 83.999L50.7592 84.503C50.8861 84.5061 50.9865 84.6115 50.9835 84.7385C50.9807 84.8527 50.895 84.9455 50.7854 84.9606L50.748 84.9627L29.9861 84.4587C29.8592 84.4557 29.7588 84.3502 29.7618 84.2233C29.7646 84.109 29.8503 84.0163 29.9599 84.0011L29.9973 83.999Z" fill="#A3B5D6"/>
<path fill-rule="evenodd" clip-rule="evenodd" d="M47.097 159.268L56.8657 220.438L80.7436 219.421C80.7436 219.421 76.3982 186.161 70.8768 155.975C70.8768 155.975 69.0705 140.043 56.5671 142.031C44.0644 144.019 47.097 159.268 47.097 159.268Z" fill="#E4EBF7"/>
<path fill-rule="evenodd" clip-rule="evenodd" d="M69.9389 149.811C65.6597 125.447 59.4093 99.6348 56.3859 94.6242C56.3859 94.6242 53.173 91.8049 45.741 98.1498C37.0753 105.548 39.2404 114.13 39.2404 114.13L46.2805 154.196C46.9581 157.401 48.7945 167.395 61.2837 165.532C73.5774 163.699 70.0321 150.341 69.9389 149.811Z" fill="#E4EBF7"/>
<path d="M31.2897 120.179C31.3203 120.069 31.426 120 31.536 120.012L31.5728 120.019L40.8951 122.609C40.9694 122.63 41.0275 122.686 41.0515 122.757L41.0606 122.794L56.5985 219.644C56.6186 219.77 56.5333 219.888 56.4079 219.908C56.295 219.926 56.1882 219.859 56.1533 219.753L56.1444 219.717L40.6297 123.012L31.4497 120.462C31.3396 120.432 31.2705 120.326 31.2826 120.216L31.2897 120.179Z" fill="#A3B5D6"/>
<path fill-rule="evenodd" clip-rule="evenodd" d="M61.5331 78.402C61.5331 78.402 53.6082 57.7144 52.5014 53.7148C49.8281 44.0552 54.6303 40.51 59.9015 42.7253C66.2562 45.3956 72.0339 76.3842 72.0339 76.3842C72.0339 76.3842 72.3448 79.9895 68.0938 81.8167C63.0697 83.9768 61.5331 78.402 61.5331 78.402Z" fill="#FFC999"/>
<path fill-rule="evenodd" clip-rule="evenodd" d="M55.7058 63.3987C55.0515 61.4274 46.9862 45.1127 55.306 42.1052C61.657 39.8095 64.2439 45.3046 67.9976 59.7694L55.7058 63.3987Z" fill="#597EF7"/>
<path d="M52.9848 55.8624C53.1306 55.8092 53.2906 55.8736 53.361 56.0072L53.3779 56.0453L55.8586 62.8428L67.9926 59.6853C68.1428 59.6462 68.2959 59.7255 68.3533 59.8652L68.3665 59.9047C68.4056 60.0549 68.3263 60.2081 68.1866 60.2655L68.147 60.2787L55.7436 63.5069C55.6045 63.5431 55.4612 63.4778 55.3956 63.3541L55.3783 63.3153L52.8019 56.2555C52.7438 56.0965 52.8257 55.9205 52.9848 55.8624Z" fill="#253368"/>
</svg>
