<svg width="212" height="400" viewBox="0 0 212 400" fill="none" xmlns="http://www.w3.org/2000/svg">
<path fill-rule="evenodd" clip-rule="evenodd" d="M108.761 366.859C112.814 366.954 116.219 363.832 116.475 359.787L121.959 273.246C122.354 267.012 117.485 261.701 111.24 261.555C104.995 261.408 99.8801 266.484 99.982 272.73L101.389 359.432C101.454 363.486 104.708 366.764 108.761 366.859Z" fill="#FFC999"/>
<path fill-rule="evenodd" clip-rule="evenodd" d="M113.142 175.265C120.501 175.438 126.273 181.636 125.926 188.988L122.183 268.032C121.895 274.121 116.801 278.866 110.708 278.723C104.615 278.579 99.7485 273.6 99.7476 267.505L99.7285 188.372C99.7267 181.011 105.784 175.093 113.142 175.265Z" fill="#FFC999"/>
<path fill-rule="evenodd" clip-rule="evenodd" d="M116.304 370.937L102.067 371.122L100.973 348.611L117.318 348.399L116.304 370.937Z" fill="#597EF7"/>
<path d="M117.195 352.427C117.453 352.423 117.665 352.63 117.668 352.888C117.671 353.125 117.498 353.323 117.27 353.356L117.207 353.362L102.116 353.557C101.858 353.56 101.646 353.354 101.643 353.096C101.64 352.859 101.813 352.661 102.041 352.627L102.104 352.622L117.195 352.427Z" fill="#E4EBF7"/>
<path fill-rule="evenodd" clip-rule="evenodd" d="M117.712 370.031L102.059 370.234L101.639 398.919L136.91 398.461L136.94 394.058C136.945 392.439 135.79 391.05 134.198 390.76L124.798 388.128L119.952 385.451C118.492 384.646 117.594 383.107 117.617 381.439C117.665 377.855 117.739 371.776 117.712 370.031Z" fill="#4E5C93"/>
<path fill-rule="evenodd" clip-rule="evenodd" d="M101.991 399.849L137.155 399.392C137.489 399.389 137.756 399.114 137.751 398.781L137.7 394.838C137.697 394.504 137.422 394.238 137.089 394.241L101.925 394.698C101.592 394.702 101.325 394.976 101.328 395.309L101.38 399.253C101.385 399.586 101.658 399.853 101.991 399.849Z" fill="#E4EBF7"/>
<path fill-rule="evenodd" clip-rule="evenodd" d="M137.089 394.243C137.057 391.757 135.225 389.662 132.767 389.297L124.797 388.115L124.352 394.321L137.089 394.243Z" fill="#E4EBF7"/>
<path d="M137.086 394.004C137.218 394.002 137.327 394.108 137.328 394.24C137.33 394.356 137.249 394.453 137.14 394.477L137.092 394.482L101.928 394.938C101.796 394.94 101.687 394.834 101.686 394.702C101.684 394.586 101.765 394.489 101.874 394.465L101.922 394.46L137.086 394.004Z" fill="#A3B5D6"/>
<path d="M117.353 379.99C117.611 379.932 117.866 380.095 117.924 380.352C117.977 380.589 117.845 380.823 117.625 380.905L117.377 380.972C117.22 381.016 117.044 381.072 116.854 381.139C116.311 381.333 115.768 381.584 115.264 381.896C115.063 382.021 114.872 382.153 114.693 382.292L114.623 382.349L114.639 382.352C114.888 382.385 115.158 382.428 115.447 382.48L115.668 382.521C115.963 382.576 116.271 382.639 116.588 382.708C116.881 382.771 117.172 382.837 117.455 382.905L118.361 383.13C118.379 383.135 118.396 383.139 118.411 383.143C118.794 383.245 118.886 383.733 118.595 383.973L118.38 384.12C118.244 384.216 118.091 384.331 117.926 384.467C117.586 384.745 117.246 385.063 116.917 385.421L116.875 385.468L116.969 385.468C117.143 385.469 117.322 385.473 117.507 385.482L117.786 385.497C118.568 385.545 119.4 385.651 120.244 385.796C120.555 385.849 120.853 385.906 121.133 385.963L121.407 386.02C121.622 386.066 121.778 386.103 121.864 386.124C122.369 386.248 122.341 386.974 121.829 387.06L121.739 387.079C121.649 387.1 121.521 387.138 121.366 387.194C120.998 387.329 120.629 387.523 120.286 387.784C119.948 388.043 119.652 388.355 119.411 388.726C119.268 388.948 118.971 389.011 118.75 388.868C118.528 388.724 118.465 388.428 118.608 388.206C118.911 387.739 119.282 387.347 119.706 387.023C119.803 386.949 119.9 386.88 119.997 386.816L120.11 386.744L120.082 386.739C119.405 386.622 118.737 386.532 118.103 386.479L117.727 386.452C117.026 386.408 116.402 386.416 115.877 386.481C115.461 386.533 115.184 386.062 115.432 385.724C115.547 385.566 115.666 385.412 115.789 385.262C116.206 384.752 116.649 384.303 117.096 383.916L117.2 383.827L116.813 383.738L116.385 383.643C116.076 383.576 115.777 383.515 115.491 383.461C114.653 383.303 113.978 383.218 113.544 383.223C113.137 383.228 112.91 382.755 113.169 382.441C113.6 381.918 114.139 381.468 114.76 381.083C115.326 380.732 115.93 380.453 116.533 380.238L116.79 380.15C117.032 380.071 117.225 380.019 117.353 379.99Z" fill="#E4EBF7"/>
<path d="M117.402 375.768L117.369 375.768C117.224 375.769 117.025 375.775 116.782 375.788C116.422 375.807 116.032 375.838 115.62 375.884C114.491 376.01 113.366 376.224 112.305 376.548C109.271 377.475 107.262 379.129 106.868 381.701C106.615 383.35 107.339 384.178 108.718 383.951C109.677 383.792 110.974 383.135 112.558 382.082C113.029 381.769 113.52 381.424 114.024 381.054C114.878 380.426 115.732 379.755 116.546 379.084L117.179 378.555L117.608 378.186C117.678 378.143 117.837 378.016 117.998 377.852C118.272 377.575 118.456 377.287 118.495 376.963C118.558 376.434 118.212 376.021 117.562 375.794C117.511 375.776 117.457 375.767 117.402 375.768ZM117.321 376.725C117.419 376.765 117.483 376.802 117.521 376.835L117.542 376.856L117.545 376.849C117.537 376.913 117.456 377.04 117.318 377.18C117.205 377.294 117.091 377.385 117.022 377.432L116.262 378.076C116.158 378.163 116.05 378.253 115.938 378.345C115.136 379.006 114.296 379.667 113.458 380.283C112.965 380.645 112.487 380.981 112.028 381.285C110.552 382.267 109.348 382.877 108.563 383.007C107.862 383.122 107.654 382.885 107.814 381.846C108.141 379.713 109.864 378.294 112.584 377.463C113.583 377.158 114.652 376.954 115.726 376.835C116.208 376.782 116.633 376.751 116.979 376.736L117.321 376.725Z" fill="#E4EBF7"/>
<path fill-rule="evenodd" clip-rule="evenodd" d="M58.7769 355.448C54.7536 354.951 51.8408 352.273 52.1791 348.234L59.4034 260.913C59.9245 254.688 65.5175 250.145 71.7169 250.913C77.9164 251.68 82.2334 257.45 81.2203 263.614L66.2468 350.088C65.5893 354.088 62.8001 355.946 58.7769 355.448Z" fill="#FFC999"/>
<path fill-rule="evenodd" clip-rule="evenodd" d="M81.7462 169.979C74.4418 169.075 67.8249 174.361 67.0956 181.686L59.2437 260.428C58.6389 266.493 62.9841 271.931 69.0335 272.681C75.082 273.429 80.6231 269.214 81.5152 263.185L93.1012 184.905C94.1788 177.623 89.0507 170.883 81.7462 169.979Z" fill="#FFC999"/>
<path fill-rule="evenodd" clip-rule="evenodd" d="M48.4004 370.595L63.5449 370.914L67.5609 348.416L51.2178 348.049L48.4004 370.595Z" fill="#597EF7"/>
<path d="M50.1109 352.077L65.1999 352.416C65.458 352.422 65.6625 352.636 65.6568 352.894C65.6514 353.131 65.4712 353.322 65.2424 353.348L65.1789 353.351L50.0899 353.012C49.8318 353.006 49.6272 352.792 49.6329 352.534C49.6384 352.297 49.8186 352.106 50.0474 352.08L50.1109 352.077Z" fill="#E4EBF7"/>
<path fill-rule="evenodd" clip-rule="evenodd" d="M48.1847 369.677L63.8348 370.029L60.9801 398.715L25.7148 397.923L25.7276 393.52C25.7367 391.901 26.9062 390.522 28.5004 390.248L37.9246 387.705L42.7955 385.075C44.2633 384.283 45.5528 382.668 46.0794 381.085C47.0506 378.157 48.141 371.421 48.1847 369.677Z" fill="#4E5C93"/>
<path fill-rule="evenodd" clip-rule="evenodd" d="M60.6185 399.643L25.4596 398.852C25.1267 398.845 24.863 398.569 24.8692 398.235L24.9585 394.293C24.9658 393.959 25.2431 393.694 25.576 393.702L60.7339 394.493C61.0677 394.501 61.3314 394.776 61.3243 395.11L61.2359 399.053C61.2278 399.386 60.9513 399.65 60.6185 399.643Z" fill="#E4EBF7"/>
<path fill-rule="evenodd" clip-rule="evenodd" d="M25.5762 393.702C25.6326 391.217 27.4832 389.139 29.945 388.798L37.9251 387.691L38.3125 393.901L25.5762 393.702Z" fill="#E4EBF7"/>
<path d="M25.5825 393.463L60.7405 394.254C60.8726 394.257 60.9772 394.367 60.9743 394.499C60.9716 394.614 60.8875 394.709 60.778 394.729L60.7297 394.732L25.5717 393.941C25.4397 393.938 25.335 393.829 25.3379 393.697C25.3406 393.581 25.4247 393.487 25.5342 393.467L25.5825 393.463Z" fill="#A3B5D6"/>
<path d="M45.339 380.456C45.4126 380.202 45.678 380.056 45.9317 380.129L46.0772 380.175C46.2424 380.23 46.4651 380.313 46.7296 380.426C47.3146 380.675 47.8965 380.988 48.4379 381.371C49.0401 381.796 49.5551 382.282 49.9563 382.835C50.1954 383.165 49.9394 383.623 49.5332 383.593C49.0999 383.56 48.4199 383.604 47.5723 383.71C47.2767 383.746 46.9662 383.79 46.6453 383.839L46.2181 383.907L45.8468 383.969L45.9363 384.055C46.2847 384.396 46.628 384.779 46.9542 385.203L47.1478 385.462C47.2678 385.628 47.3836 385.798 47.4949 385.972C47.7206 386.325 47.4155 386.777 47.0036 386.7C46.4807 386.602 45.8545 386.556 45.148 386.556C44.5171 386.556 43.8453 386.594 43.1581 386.659L42.7616 386.699L42.857 386.769C42.9029 386.803 42.9489 386.839 42.9949 386.876L43.1328 386.99C43.5424 387.342 43.8942 387.761 44.1711 388.253C44.3008 388.483 44.2193 388.774 43.9892 388.904C43.759 389.034 43.4673 388.952 43.3376 388.722C43.1172 388.331 42.8373 387.998 42.5097 387.716C42.1854 387.438 41.8321 387.225 41.4764 387.07C41.2667 386.978 41.1079 386.928 41.0279 386.909C40.5216 386.792 40.5393 386.065 41.0508 385.972L41.4987 385.9C41.8478 385.847 42.2317 385.796 42.6391 385.751C43.5021 385.656 44.3517 385.6 45.1474 385.599C45.433 385.599 45.7075 385.606 45.9701 385.621L46.0701 385.627L46.0155 385.558C45.7726 385.261 45.5212 384.987 45.2672 384.738L45.0764 384.557C44.9601 384.449 44.8501 384.353 44.7482 384.268L44.5707 384.125C44.5375 384.099 44.5132 384.081 44.4989 384.071C44.156 383.829 44.2691 383.294 44.6806 383.212L45.1138 383.129L45.2158 383.11C45.6269 383.035 46.0614 382.961 46.5002 382.894C46.8296 382.843 47.149 382.798 47.4542 382.76L47.8925 382.709C48.0337 382.694 48.1697 382.681 48.3006 382.67L48.5105 382.653L48.4369 382.586C48.3227 382.485 48.2028 382.387 48.0777 382.292L47.8861 382.152C47.4044 381.812 46.8807 381.53 46.3539 381.305C46.2157 381.246 46.085 381.195 45.9638 381.15L45.752 381.076C45.7121 381.063 45.6827 381.053 45.6651 381.048C45.4113 380.975 45.2654 380.709 45.339 380.456Z" fill="#E4EBF7"/>
<path d="M46.4933 377.09C46.4409 377.101 46.3906 377.12 46.3447 377.148C45.7391 377.507 45.4854 377.995 45.6737 378.509C45.7823 378.806 46.0144 379.043 46.3275 379.254C46.5177 379.381 46.6976 379.473 46.8243 379.527L46.8757 379.559L47.4401 379.873C47.6149 379.968 47.801 380.068 47.9973 380.173C48.9321 380.671 49.9058 381.16 50.8702 381.606C51.4397 381.87 51.9898 382.11 52.5152 382.324C54.2726 383.038 55.6706 383.422 56.6391 383.385C58.0318 383.331 58.5737 382.376 57.9991 380.813C57.1106 378.394 54.8475 377.171 51.7337 376.85C50.548 376.729 49.3151 376.747 48.1042 376.865C47.7655 376.898 47.4477 376.937 47.1553 376.979L46.7494 377.043C46.6354 377.063 46.5492 377.079 46.4933 377.09ZM46.7669 378.011L46.9128 377.986C46.9651 377.977 47.0242 377.967 47.0898 377.957C47.4211 377.905 47.7931 377.856 48.1968 377.817C49.3489 377.705 50.5201 377.687 51.6358 377.802C54.4249 378.089 56.3645 379.137 57.1011 381.143C57.463 382.127 57.3075 382.402 56.6021 382.429C55.8098 382.46 54.5131 382.103 52.8754 381.438C52.3647 381.23 51.8282 380.995 51.2718 380.738C50.3252 380.3 49.3671 379.819 48.447 379.329L47.8988 379.033L47.2492 378.672C47.1227 378.614 46.9931 378.548 46.8612 378.46L46.7959 378.414C46.693 378.337 46.62 378.264 46.587 378.21L46.5738 378.185C46.5943 378.146 46.6545 378.086 46.7669 378.011Z" fill="#E4EBF7"/>
<path fill-rule="evenodd" clip-rule="evenodd" d="M96.7514 165.435C95.2354 167.814 92.1161 168.579 89.6716 167.172L42.4739 140.016C38.2196 137.377 36.941 131.77 39.6329 127.549C42.3484 123.29 48.0395 122.105 52.2292 124.926L95.5309 158.425C97.689 160.095 98.2183 163.134 96.7514 165.435Z" fill="#FFC999"/>
<path fill-rule="evenodd" clip-rule="evenodd" d="M91.5344 174.117C91.5344 174.117 86.5127 165.731 90.0576 161.187C93.2678 157.072 97.7594 159.779 97.7594 159.779C97.7594 159.779 102.651 161.764 106.827 165.885C109.58 168.601 114.289 174.294 113.058 175.932C111.452 178.069 106.498 171.313 104.915 172.442C103.29 173.6 104.21 175.071 105.202 179.105C105.822 181.626 107.426 183.868 107.544 186.106C107.774 190.48 98.0186 187.324 91.5344 174.117Z" fill="#FFC999"/>
<path d="M101.033 175.763C101.212 175.765 101.358 175.897 101.383 176.068L101.387 176.126L101.389 176.262C101.395 176.443 101.413 176.701 101.452 177.027C101.534 177.712 101.684 178.474 101.918 179.295C102.581 181.624 103.784 183.974 105.663 186.203C105.79 186.355 105.771 186.581 105.62 186.709C105.468 186.836 105.242 186.817 105.114 186.665C103.168 184.356 101.918 181.915 101.227 179.492C100.983 178.633 100.826 177.834 100.74 177.112L100.709 176.829C100.688 176.608 100.676 176.423 100.672 176.277L100.67 176.117C100.673 175.919 100.835 175.76 101.033 175.763Z" fill="#DD936F"/>
<path d="M97.4261 176.106C97.6207 176.069 97.8087 176.196 97.846 176.391C98.192 178.196 98.8625 179.944 99.7631 181.592C100.24 182.465 100.751 183.255 101.262 183.947L101.47 184.222C101.536 184.309 101.601 184.391 101.663 184.468L101.846 184.691C101.886 184.738 101.915 184.772 101.934 184.793C102.066 184.941 102.054 185.167 101.906 185.3C101.759 185.432 101.532 185.419 101.4 185.272L101.252 185.1L101.199 185.035C101.043 184.846 100.871 184.624 100.685 184.373C100.156 183.656 99.627 182.839 99.1334 181.936C98.1993 180.226 97.5024 178.41 97.1412 176.526C97.104 176.331 97.2315 176.143 97.4261 176.106Z" fill="#DD936F"/>
<path d="M94.1739 174.654C94.3713 174.637 94.5451 174.783 94.5619 174.981L94.572 175.068C94.5841 175.158 94.6063 175.292 94.6421 175.468C94.7272 175.886 94.8586 176.378 95.046 176.938C95.5853 178.551 96.4667 180.385 97.769 182.405C97.8764 182.571 97.8284 182.793 97.6618 182.901C97.4953 183.008 97.2733 182.96 97.1659 182.794C95.8312 180.723 94.9238 178.835 94.3656 177.166C94.1688 176.578 94.0299 176.058 93.939 175.611L93.898 175.397C93.8692 175.235 93.8534 175.116 93.847 175.042C93.8301 174.844 93.9765 174.671 94.1739 174.654Z" fill="#DD936F"/>
<path fill-rule="evenodd" clip-rule="evenodd" d="M120.29 98.7447C120.29 98.7447 139.33 86.5794 121.347 71.7705C125.579 61.1922 115.53 56.6088 115.53 56.6088C118.35 54.4926 122.582 45.6776 111.827 38.0967C111.827 26.1079 101.598 25.6968 101.598 25.6968C101.598 25.6968 86.9468 17.4557 80.1708 27.7121C66.9843 30.2757 69.5143 44.2671 69.5143 44.2671C69.5143 44.2671 61.9334 49.5563 65.4601 56.6088C61.2286 60.8394 60.5229 65.4228 63.6967 68.5967C51.5324 80.2326 60.5229 90.8109 60.5229 90.8109C60.5229 90.8109 53.7214 108.633 76.7296 108.633C80.4318 122.384 103.704 119.739 104.232 108.103C117.984 114.98 120.29 98.7447 120.29 98.7447Z" fill="#253368"/>
<path fill-rule="evenodd" clip-rule="evenodd" d="M106.074 43.5025C98.4691 44.8375 96.1574 39.0827 96.1574 39.0827C96.1574 39.0827 93.0199 30.978 92.216 35.9534C91.7886 38.598 87.6999 35.0895 85.8201 37.9078C84.556 39.8057 87.7181 42.2502 83.6084 47.3084C81.2276 50.2385 90.62 52.5766 84.8252 57.9777C84.8252 57.9777 88.4028 65.0365 81.3258 67.1864L80.8283 75.0346C80.5446 79.5226 84.1122 83.3176 88.6084 83.3103C92.9927 83.3039 96.5057 79.679 96.3766 75.2965L96.0883 65.5331C107.077 65.5331 107.613 50.4295 106.074 43.5025Z" fill="#FFC999"/>
<path d="M92.0549 51.5414C92.2454 51.3508 92.5544 51.3508 92.7449 51.5413L92.8446 51.6325C92.8902 51.6721 92.9481 51.7203 93.0178 51.7753C93.2563 51.9637 93.5364 52.153 93.8549 52.3301C94.9342 52.9303 96.1658 53.2408 97.5211 53.1095C97.7893 53.0835 98.0278 53.2799 98.0538 53.5481C98.0798 53.8163 97.8835 54.0548 97.6153 54.0808C96.0471 54.2327 94.6226 53.8735 93.3807 53.1829C92.7507 52.8326 92.3026 52.4789 92.0551 52.2314C91.8645 52.0409 91.8644 51.732 92.0549 51.5414Z" fill="#F5222D"/>
<path d="M98.0526 43.9472C98.2305 43.9599 98.3688 44.1001 98.3845 44.2721L98.3848 44.3359C98.3754 44.5967 98.4267 45.032 98.5975 45.6225C98.8722 46.5722 99.3851 47.638 100.197 48.8005C100.314 48.9686 100.267 49.2007 100.093 49.3097C99.2282 49.8524 98.4843 50.2928 97.8583 50.6406L97.6741 50.7421C97.4876 50.8441 97.323 50.9314 97.18 51.005L96.8724 51.1577C96.6925 51.2407 96.4793 51.1621 96.3963 50.9822C96.3134 50.8023 96.392 50.5891 96.5719 50.5061L96.7536 50.417L97.0748 50.2502C97.1543 50.2079 97.2393 50.162 97.3298 50.1126L97.6985 49.9077C98.0813 49.6918 98.5069 49.4422 98.9758 49.1569L99.3956 48.898L99.2821 48.7254C98.6623 47.7637 98.2352 46.8611 97.9709 46.0285L97.9082 45.8219C97.7319 45.2123 97.6666 44.7319 97.6663 44.3976L97.6693 44.2796C97.6834 44.082 97.855 43.9331 98.0526 43.9472Z" fill="#DD936F"/>
<path d="M88.7683 63.7118C88.863 63.5377 89.0809 63.4734 89.2549 63.5681C91.386 64.7276 93.595 65.3102 95.8126 65.3406C96.0107 65.3433 96.1691 65.5061 96.1664 65.7042C96.1637 65.9024 96.0009 66.0608 95.8027 66.0581C93.4682 66.0261 91.145 65.4133 88.912 64.1984C88.7379 64.1037 88.6736 63.8858 88.7683 63.7118Z" fill="#DD936F"/>
<path d="M92.948 43.8672C93.2072 43.8672 93.4173 44.0773 93.4173 44.3364C93.4173 46.1397 92.0595 47.6167 90.3634 47.6167C88.6682 47.6167 87.3105 46.1396 87.3105 44.3364C87.3105 44.0773 87.5206 43.8672 87.7798 43.8672C88.039 43.8672 88.2491 44.0773 88.2491 44.3364C88.2491 45.6381 89.205 46.6782 90.3634 46.6782C91.5227 46.6782 92.4788 45.6382 92.4788 44.3364C92.4788 44.0773 92.6888 43.8672 92.948 43.8672Z" fill="#253368"/>
<path d="M104.789 44.1895C105.035 44.1895 105.234 44.3888 105.234 44.6346C105.234 46.4161 104.014 47.8908 102.464 47.8908C100.913 47.8908 99.6934 46.4165 99.6934 44.6346C99.6934 44.3888 99.8927 44.1895 100.139 44.1895C100.384 44.1895 100.584 44.3888 100.584 44.6346C100.584 45.9582 101.446 47.0005 102.464 47.0005C103.482 47.0005 104.344 45.9578 104.344 44.6346C104.344 44.3888 104.543 44.1895 104.789 44.1895Z" fill="#253368"/>
<path d="M87.8505 39.1052C89.6421 38.3493 91.539 38.4253 93.3322 39.0014C93.8477 39.167 94.2328 39.3344 94.4534 39.4508C94.6826 39.5718 94.7703 39.8557 94.6494 40.0849C94.5284 40.3141 94.2445 40.4018 94.0153 40.2808L93.8974 40.2235C93.8609 40.2066 93.8178 40.1872 93.7682 40.1657C93.5568 40.0738 93.3142 39.9814 93.0451 39.8949C91.4468 39.3814 89.7694 39.3142 88.2154 39.9699C87.9315 40.0896 87.6549 40.233 87.386 40.4011C87.1662 40.5384 86.8767 40.4716 86.7394 40.2518C86.602 40.0321 86.6688 39.7426 86.8886 39.6052C87.2 39.4106 87.5209 39.2442 87.8505 39.1052Z" fill="#253368"/>
<path fill-rule="evenodd" clip-rule="evenodd" d="M167.338 92.4851L177.053 72.9909C177.053 72.9909 190.099 58.0601 193.623 59.7207C196.821 61.7105 188.256 65.1545 185.922 69.6051C189.226 69.9489 186.981 74.2213 186.981 74.2213C186.981 74.2213 189.597 74.5787 188.276 78.1464C190.467 79.8933 187.819 83.7929 187.819 83.7929C187.819 83.7929 180.168 92.8198 173.54 99.333C173.54 99.333 164.456 105.505 167.338 92.4851Z" fill="#FFC999"/>
<path fill-rule="evenodd" clip-rule="evenodd" d="M169.813 85.7575C169.813 85.7575 171.88 78.8541 173.14 75.372C174.4 71.8898 173.987 65.1447 176.314 67.3091C177.878 68.7651 176.916 72.5719 176.368 75.4074C175.821 78.2421 179.269 85.7693 175.05 89.8562C172.199 92.6172 168.479 92.4108 169.813 85.7575Z" fill="#FFC999"/>
<path d="M184.751 69.124C184.916 69.0008 185.149 69.0345 185.272 69.1993C185.395 69.364 185.362 69.5974 185.197 69.7205L184.979 69.8876L184.702 70.1074C184.605 70.1854 184.503 70.268 184.398 70.3549C183.796 70.8514 183.193 71.3849 182.632 71.9336C182 72.5525 181.461 73.1515 181.045 73.7133C179.997 75.1282 179.85 76.0954 180.683 76.6219C180.857 76.7318 180.909 76.9619 180.799 77.1357C180.689 77.3095 180.459 77.3614 180.285 77.2515C178.959 76.4132 179.175 74.9861 180.446 73.2701C180.888 72.6728 181.453 72.0456 182.112 71.4012C182.689 70.8363 183.307 70.2893 183.924 69.7802L184.236 69.5264L184.683 69.1754C184.711 69.1539 184.734 69.1367 184.751 69.124Z" fill="#DD936F"/>
<path d="M185.92 73.9262C186.016 74.1081 185.947 74.3334 185.765 74.4294L185.55 74.5467L185.274 74.702C185.178 74.7573 185.077 74.8159 184.973 74.8777C184.376 75.2306 183.779 75.6137 183.223 76.0127C182.415 76.5928 181.767 77.1556 181.338 77.6739C180.71 78.4342 180.628 78.9702 181.088 79.3726C181.426 79.6682 181.888 79.72 182.478 79.5497C182.921 79.4218 183.407 79.1755 183.905 78.8451C184.178 78.6639 184.438 78.4691 184.675 78.2744L184.856 78.1221C184.905 78.0792 184.943 78.0446 184.97 78.0202C185.12 77.8799 185.356 77.8879 185.496 78.0383C185.636 78.1886 185.628 78.4242 185.478 78.5646L185.398 78.6367C185.335 78.693 185.251 78.7654 185.148 78.8498C184.892 79.0597 184.613 79.2695 184.316 79.4659C183.76 79.8346 183.211 80.1134 182.685 80.2653C181.873 80.4996 181.153 80.4188 180.598 79.9332C179.764 79.2033 179.912 78.2311 180.764 77.1994C181.24 76.6231 181.933 76.0219 182.789 75.4077C183.364 74.9946 183.979 74.5999 184.594 74.2365L184.904 74.0557C184.954 74.0272 185.003 73.9996 185.05 73.9729L185.417 73.7707C185.599 73.6747 185.825 73.7443 185.92 73.9262Z" fill="#DD936F"/>
<path d="M186.209 77.6701C186.415 77.6727 186.58 77.8416 186.577 78.0472C186.574 78.2529 186.405 78.4175 186.2 78.4148C185.701 78.4084 185.004 78.7425 184.109 79.4929C182.232 81.0677 181.707 82.196 182.124 82.5459C182.556 82.9084 183.787 82.5822 184.699 81.657C185.024 81.3275 185.539 81.7683 185.263 82.1402C185.191 82.2381 185.118 82.3342 185.045 82.4283C183.266 84.7132 181.929 85.5176 178.955 86.5188L178.472 86.6788C175.784 87.5542 174.72 88.3587 173.763 90.8505C173.689 91.0426 173.474 91.1385 173.282 91.0648C173.09 90.9911 172.994 90.7757 173.068 90.5836C174.093 87.9114 175.303 86.9536 178.043 86.0361L178.751 85.8018C180.806 85.1083 182.013 84.5254 183.16 83.4339L183.247 83.3496L183.24 83.3517C182.653 83.4931 182.107 83.4463 181.725 83.1776L181.645 83.1166C180.708 82.3307 181.439 80.7606 183.631 78.9222C184.649 78.0681 185.498 77.661 186.209 77.6701Z" fill="#DD936F"/>
<path d="M177.085 71.4925C177.269 71.5084 177.411 71.6561 177.424 71.8349L177.424 71.8955L176.958 77.3048L177.04 77.5291L177.071 77.6191C177.178 77.9314 177.284 78.2813 177.384 78.661C177.734 79.9984 177.909 81.3545 177.814 82.6301C177.714 83.9756 177.314 85.1414 176.557 86.0638C176.426 86.2228 176.192 86.246 176.033 86.1155C175.874 85.985 175.851 85.7504 175.981 85.5914C176.631 84.799 176.981 83.7779 177.071 82.5747C177.16 81.3924 176.994 80.114 176.663 78.8496C176.568 78.4883 176.467 78.1557 176.366 77.8601L176.267 77.5811C176.254 77.547 176.243 77.5194 176.235 77.4986C176.22 77.4624 176.211 77.4242 176.208 77.3855L176.209 77.3272L176.682 71.8316C176.698 71.6472 176.845 71.5058 177.024 71.4922L177.085 71.4925Z" fill="#DD936F"/>
<path fill-rule="evenodd" clip-rule="evenodd" d="M177.875 87.3556C175.962 85.5559 173.015 85.5323 171.186 87.3029L135.855 121.488C132.716 124.739 133.833 130.008 137.229 133.203H136.32C139.744 136.426 145.98 136.279 149.019 132.88L178.471 93.8625C179.983 91.9182 179.726 89.0963 177.875 87.3556Z" fill="#FFC999"/>
<path fill-rule="evenodd" clip-rule="evenodd" d="M147.603 133.859C151.485 130.792 152.145 125.16 149.078 121.277L119.191 83.4512C116.124 79.5698 110.491 78.9096 106.61 81.9761C102.728 85.0427 102.068 90.6765 105.135 94.5579L135.022 132.384C138.089 136.265 143.721 136.927 147.603 133.859Z" fill="#FFC999"/>
<path fill-rule="evenodd" clip-rule="evenodd" d="M117.804 110.594L105.134 94.5579C102.08 90.6929 102.743 85.0309 106.609 81.9771C110.474 78.9223 116.136 79.5862 119.19 83.4521L131.74 99.3351L117.804 110.594Z" fill="#597EF7"/>
<path d="M106.23 81.9154C106.353 81.8186 106.531 81.8394 106.627 81.962C106.724 82.0846 106.703 82.2625 106.581 82.3593C102.893 85.2725 102.215 90.6393 105.024 94.3775L105.152 94.5437L117.645 110.353L131.359 99.2753C131.465 99.1894 131.614 99.1932 131.716 99.2769L131.756 99.3176C131.842 99.4239 131.838 99.5735 131.755 99.675L131.714 99.7153L117.778 110.974C117.669 111.062 117.515 111.056 117.414 110.967L117.378 110.929L104.708 94.8944C101.558 90.9056 102.242 85.0658 106.23 81.9154Z" fill="#4E5C93"/>
<path fill-rule="evenodd" clip-rule="evenodd" d="M115.322 144.368C123.557 145.013 143.101 197.051 150.485 215.658C149.502 219.406 143.496 226.016 143.496 226.016C143.496 226.016 144.139 229 144.535 230.793C137.508 236.572 123.917 239.711 123.917 239.711L123.888 242.275C102.16 252.279 73.0619 242.692 73.0619 242.692C73.0619 242.692 72.5199 242.135 72.9091 240.125C63.0438 240.011 41.919 227.494 41.919 227.494L44.9219 221.301L36.2324 212.409C36.2324 212.409 59.6953 169.245 66.9179 157.173C73.2574 146.575 79.2041 143.523 79.2041 143.523C79.2041 143.523 100.712 143.223 115.322 144.368Z" fill="#4E5C93"/>
<path d="M77.8183 153.714C77.9072 153.532 78.1264 153.457 78.308 153.546C78.4714 153.626 78.5486 153.812 78.4976 153.98L78.4758 154.036L42.7487 227.021L43.084 227.267L43.3635 227.467C44.0692 227.968 44.9011 228.527 45.8537 229.129C48.5783 230.85 51.7227 232.573 55.2441 234.18C60.719 236.68 66.5934 238.666 72.7965 239.947C72.9944 239.988 73.1218 240.182 73.0809 240.38C73.04 240.578 72.8463 240.705 72.6484 240.664C66.3889 239.371 60.4629 237.368 54.9401 234.846C51.3873 233.224 48.2142 231.486 45.4627 229.747C44.6058 229.206 43.8448 228.699 43.1832 228.235L42.9398 228.064C42.7388 227.921 42.5593 227.791 42.4017 227.675L42.0902 227.441C42.0795 227.433 42.0702 227.425 42.0624 227.419C41.9432 227.326 41.8954 227.171 41.9362 227.03L41.9592 226.97L77.8183 153.714Z" fill="#253368"/>
<path d="M121.227 168.547C121.397 168.483 121.585 168.554 121.673 168.706L121.699 168.76L145.239 231.033C145.3 231.194 145.241 231.375 145.097 231.469L144.929 231.577C144.792 231.664 144.631 231.764 144.446 231.877L143.973 232.162C143.561 232.406 143.107 232.668 142.613 232.943C140.638 234.045 138.426 235.147 136.03 236.175C132.119 237.852 128.105 239.166 124.083 239.979C123.884 240.019 123.691 239.891 123.651 239.693C123.611 239.495 123.739 239.301 123.938 239.261C127.907 238.459 131.874 237.16 135.741 235.502C138.113 234.484 140.303 233.394 142.257 232.304L142.823 231.984C143.279 231.724 143.693 231.479 144.064 231.252L144.449 231.014L121.014 169.019C120.95 168.849 121.02 168.661 121.173 168.573L121.227 168.547Z" fill="#253368"/>
<path d="M105.933 145.759C106.131 145.719 106.324 145.848 106.363 146.046L107.255 150.538L109.015 159.49C109.209 160.478 109.405 161.486 109.606 162.513L110.647 167.871C112.555 177.715 114.449 187.643 116.25 197.294L117.255 202.702C117.51 204.085 117.763 205.454 118.011 206.808L119.003 212.246C121.125 223.939 122.898 234.17 124.245 242.583C124.273 242.759 124.17 242.93 124.001 242.987C122.936 243.349 121.857 243.685 120.766 243.994C107.607 247.72 93.5695 247.509 80.3131 244.918C78.3716 244.539 76.6048 244.134 75.0377 243.728L74.65 243.626C74.151 243.493 73.704 243.369 73.3117 243.255L72.5837 243.035C72.4265 242.985 72.3253 242.836 72.3303 242.676L72.3372 242.615L88.7203 160.503C88.7599 160.305 88.9526 160.177 89.1509 160.216C89.3293 160.252 89.4514 160.411 89.4451 160.587L89.4382 160.647L73.1198 242.435L73.7143 242.609C74.0517 242.706 74.4266 242.809 74.8377 242.918C76.4841 243.355 78.3665 243.792 80.4535 244.2C93.6067 246.771 107.534 246.979 120.566 243.289C121.376 243.06 122.178 242.816 122.973 242.558L123.473 242.391L122.964 239.259C121.51 230.395 119.641 219.766 117.436 207.729L116.535 202.835C116.364 201.914 116.192 200.986 116.019 200.053C114.074 189.585 112.01 178.747 109.929 168.011L108.153 158.893C107.722 156.693 107.31 154.597 106.92 152.619L105.645 146.19C105.606 145.992 105.734 145.799 105.933 145.759Z" fill="#253368"/>
<path d="M97.2092 147.163C97.3908 147.173 97.5341 147.315 97.5526 147.49L97.554 147.549L93.7036 215.84C93.6922 216.042 93.5193 216.196 93.3175 216.185C93.1359 216.175 92.9926 216.034 92.9741 215.858L92.9727 215.799L96.8231 147.508C96.8345 147.306 97.0073 147.152 97.2092 147.163Z" fill="#253368"/>
<path d="M86.9648 145.657C87.0248 145.464 87.2299 145.356 87.423 145.416C87.5967 145.47 87.7015 145.641 87.677 145.816L87.664 145.874L73.2079 192.418C73.1479 192.611 72.9428 192.719 72.7498 192.659C72.576 192.605 72.4712 192.433 72.4957 192.259L72.5088 192.201L86.9648 145.657Z" fill="#253368"/>
<path fill-rule="evenodd" clip-rule="evenodd" d="M77.6289 144.367L78.25 139.661C78.25 139.661 96.8339 139.771 115.061 138.858C115.522 140.947 116.051 144.708 116.051 144.708C114.518 143.449 97.9616 147.125 77.6289 144.367Z" fill="#4E5C93"/>
<path d="M114.096 144.342C114.298 144.333 114.469 144.489 114.479 144.691C114.488 144.893 114.332 145.064 114.13 145.073C105.6 145.473 97.3282 145.644 90.0253 145.629L88.0248 145.621C85.9426 145.606 84.0756 145.575 82.5613 145.534L81.5891 145.504C80.9819 145.483 80.4868 145.461 80.1351 145.439L79.7878 145.414C79.7419 145.41 79.702 145.405 79.6682 145.401C79.6028 145.393 79.556 145.386 79.5136 145.373L79.4852 145.37C79.451 145.361 79.4211 145.329 79.2715 145.17L79.3266 144.87C79.3679 144.674 79.394 144.671 79.4918 144.662C79.5682 144.636 79.6474 144.636 79.7192 144.658L79.7622 144.675L79.9259 144.691L80.18 144.708L80.7224 144.737C80.9818 144.749 81.2813 144.761 81.6156 144.772L82.582 144.802C84.374 144.851 86.6637 144.885 89.2208 144.895L90.841 144.898C97.9304 144.899 105.893 144.726 114.096 144.342Z" fill="#253368"/>
<path fill-rule="evenodd" clip-rule="evenodd" d="M113.706 92.2641C115.594 96.3765 119.089 103.455 119.524 108.132C120.23 115.712 115.293 121.354 115.293 121.354C115.293 121.354 115.243 119.125 114.764 138.767C92.1534 142.734 77.7373 138.516 77.7373 138.516L78.1784 133.31L74.5071 121.002C74.5071 121.002 72.2745 116.418 67.691 106.192C64.5044 99.0838 64.7263 90.2698 65.1574 85.5581C65.342 83.5392 66.7489 81.8422 68.7014 81.2938C75.5193 79.3759 78.1011 79.3159 78.1011 79.3159L78.7431 74.8179C78.8532 74.0476 79.5125 73.4756 80.291 73.4756H96.9114C97.6253 73.4756 98.2492 73.9594 98.4256 74.6506L99.6442 79.4004L109.931 80.5081C111.545 80.8246 112.763 83.069 112.931 84.7059L113.706 92.2641Z" fill="#597EF7"/>
<path d="M97.7233 79.2627C97.883 79.2627 98.0125 79.3922 98.0125 79.5519C98.0125 79.6939 97.9102 79.8119 97.7753 79.8364L97.7233 79.8411H82.7579C82.5982 79.8411 82.4688 79.7116 82.4688 79.5519C82.4688 79.4099 82.571 79.2918 82.706 79.2674L82.7579 79.2627H97.7233Z" fill="#4E5C93"/>
<path d="M77.6933 78.0588C77.8358 77.9457 78.0366 77.9559 78.1669 78.0746L78.2075 78.1181L94.005 98.0372L100.137 79.4567C100.194 79.284 100.367 79.1822 100.541 79.2098L100.599 79.2238C100.772 79.2809 100.873 79.4542 100.846 79.6283L100.832 79.6861L94.4878 98.9112C94.4026 99.1693 94.0814 99.2426 93.8918 99.0657L93.8534 99.0239L77.6339 78.573C77.5083 78.4146 77.5349 78.1844 77.6933 78.0588Z" fill="#CCD7EE"/>
<path fill-rule="evenodd" clip-rule="evenodd" d="M98.6691 100.343C100.329 103.142 99.5813 106.652 96.9986 108.183C94.4167 109.715 90.9782 108.687 89.3185 105.888C87.6589 103.089 88.4073 99.5785 90.9891 98.048C93.5719 96.5165 97.0104 97.5441 98.6691 100.343Z" fill="#CCD7EE"/>
<path fill-rule="evenodd" clip-rule="evenodd" d="M99.2651 100.33C100.924 103.129 100.176 106.638 97.5945 108.17C95.0118 109.701 91.5733 108.674 89.9145 105.874C88.2548 103.075 89.0024 99.5648 91.5842 98.0343C94.1669 96.5028 97.6054 97.5305 99.2651 100.33Z" fill="#E4EBF7"/>
<path fill-rule="evenodd" clip-rule="evenodd" d="M98.2114 100.817C99.5 102.991 98.9189 105.715 96.9145 106.904C94.9093 108.093 92.2401 107.295 90.9515 105.122C89.6629 102.949 90.2431 100.223 92.2474 99.0349C94.2527 97.8454 96.9227 98.6438 98.2114 100.817Z" fill="#FAAD14"/>
<path d="M65.1667 85.2687C65.3264 85.2736 65.4521 85.4067 65.4476 85.5663L65.4233 86.6751L65.4195 86.8867C65.3817 89.0973 65.3777 91.4331 65.4296 93.619L65.447 94.2737C65.5168 96.6328 65.6528 98.5295 65.8658 99.8067C66.1077 101.259 67.0383 103.728 68.481 106.91L68.8692 107.757C69.0018 108.043 69.1376 108.333 69.2763 108.627C69.8875 109.92 70.5337 111.236 71.187 112.528L71.6778 113.492C71.9166 113.958 72.1412 114.391 72.3476 114.786L72.7881 115.629L78.7175 133.309L78.7311 133.429L78.2277 138.551L78.305 138.566C78.5238 138.61 78.7744 138.658 79.0557 138.708L79.2725 138.747C80.3334 138.935 81.5629 139.122 82.9462 139.298C92.3854 140.493 103.069 140.5 114.073 138.538L114.528 138.455L114.581 136.509L114.811 129.796L115.096 121.962L115.132 121.833L115.307 121.506L115.483 121.168C115.574 120.989 115.671 120.797 115.772 120.592C116.255 119.618 116.737 118.56 117.187 117.459C117.827 115.893 118.347 114.368 118.705 112.937C119.052 111.553 119.236 110.293 119.236 109.189C119.236 106.426 118.869 104.305 118.047 102.117C117.635 101.021 117.106 99.8902 116.344 98.4459L115.706 97.2661L113.454 93.1975L113.419 93.0691L113.241 88.3965C113.235 88.2369 113.36 88.1026 113.519 88.0965C113.661 88.0912 113.783 88.1889 113.813 88.3228L113.819 88.3746L113.994 92.978L116.092 96.7688L116.699 97.8805C117.556 99.4872 118.139 100.717 118.588 101.913C119.436 104.168 119.814 106.358 119.814 109.189C119.814 110.346 119.623 111.65 119.266 113.077C118.901 114.538 118.372 116.088 117.723 117.677C117.267 118.793 116.779 119.862 116.291 120.849L116.092 121.246C115.995 121.436 115.904 121.613 115.818 121.776L115.671 122.051L115.191 135.553C115.138 137.153 115.108 138.213 115.104 138.617L115.104 138.697C115.104 138.836 115.004 138.956 114.867 138.981C103.555 141.08 92.5646 141.099 82.8735 139.871C81.6199 139.713 80.4911 139.544 79.4978 139.373L79.1718 139.317C78.8718 139.264 78.6023 139.214 78.3644 139.167L77.8517 139.063C77.7266 139.036 77.6368 138.93 77.6259 138.806L77.6262 138.752L78.1491 133.434L72.2589 115.857L71.9572 115.287C71.7575 114.907 71.5388 114.486 71.3051 114.032L71.1631 113.756C70.3417 112.154 69.5203 110.497 68.7534 108.874C68.4747 108.284 68.2077 107.709 67.9542 107.149L67.6859 106.553C66.3757 103.613 65.5324 101.325 65.2953 99.9018L65.2377 99.53C65.0341 98.1121 64.9098 96.0979 64.8513 93.6327C64.8067 91.7513 64.8033 89.7611 64.8271 87.8342L64.845 86.6645L64.8695 85.55C64.874 85.3904 65.007 85.2646 65.1667 85.2687Z" fill="#4E5C93"/>
<path fill-rule="evenodd" clip-rule="evenodd" d="M42.826 140.439L42.7359 140.391C38.3062 138.012 36.6438 132.491 39.0228 128.061L62.0328 85.2184C64.4118 80.7886 69.9329 79.1262 74.3627 81.5052L74.4518 81.5534C78.8815 83.9325 80.5449 89.4535 78.1649 93.8833L55.1558 136.726C52.7759 141.156 47.2557 142.818 42.826 140.439Z" fill="#FFC999"/>
<path fill-rule="evenodd" clip-rule="evenodd" d="M68.6116 111.671L78.496 93.2675C80.8787 88.8314 79.199 83.2522 74.762 80.8686C70.3258 78.4859 64.7457 80.1665 62.363 84.6026L52.5723 102.832L68.6116 111.671Z" fill="#597EF7"/>
<path d="M78.4749 93.2559C78.5505 93.1152 78.7258 93.0624 78.8665 93.138C78.9916 93.2052 79.0472 93.3512 79.005 93.4816L78.9845 93.5296L69.1 111.933C69.0324 112.059 68.8848 112.115 68.7538 112.071L68.7057 112.05L52.6672 103.21C52.5274 103.133 52.4765 102.957 52.5536 102.817C52.6221 102.693 52.7687 102.639 52.8986 102.683L52.9464 102.704L68.7282 111.402L78.4749 93.2559Z" fill="#4E5C93"/>
</svg>
