<svg width="376" height="502" viewBox="0 0 376 502" fill="none" xmlns="http://www.w3.org/2000/svg">
<path d="M261 383H85C78.3726 383 73 388.373 73 395C73 401.627 78.3726 407 85 407H261C267.627 407 273 401.627 273 395C273 388.373 267.627 383 261 383Z" fill="#E4EBF7"/>
<g clip-path="url(#clip0)">
<path fill-rule="evenodd" clip-rule="evenodd" d="M252.328 166.789C252.328 166.789 251.557 162.397 256.366 158.256C260.085 155.054 259.655 153.873 261.27 151.737C262.884 149.602 263.523 152.887 261.376 157.396C259.581 160.556 269.4 157.654 272.819 154.271C276.137 150.987 277.142 166.259 260.429 169.74C252.192 171.456 252.328 166.789 252.328 166.789Z" fill="#997C79"/>
<path d="M273.028 159.647C272.982 159.612 272.896 159.596 272.744 159.642C272.464 159.727 272.096 160 271.64 160.518C271.591 160.574 271.541 160.632 271.49 160.693L271.413 160.787C269.62 163.007 266.831 163.918 262.69 163.815L262.458 163.809C261.141 163.764 260.125 164.053 259.365 164.6C258.606 165.147 258.185 165.874 258.006 166.573L257.978 166.695C257.977 166.702 257.976 166.707 257.975 166.712C257.957 166.832 257.844 166.915 257.723 166.896C257.603 166.878 257.52 166.765 257.539 166.644L257.549 166.589C257.556 166.555 257.565 166.513 257.578 166.463C257.781 165.673 258.253 164.857 259.107 164.241C259.948 163.636 261.061 163.32 262.473 163.367C266.54 163.503 269.244 162.676 270.973 160.627L271.07 160.51C271.151 160.409 271.231 160.314 271.309 160.226C272.221 159.19 272.889 158.988 273.296 159.296C273.322 159.316 273.341 159.335 273.355 159.351C273.435 159.443 273.425 159.582 273.333 159.662C273.251 159.733 273.132 159.733 273.05 159.668L273.028 159.647Z" fill="#604346"/>
<path d="M272.922 157.124C273.593 156.861 274.14 156.972 274.281 157.487C274.313 157.605 274.244 157.727 274.127 157.759C274.022 157.787 273.914 157.736 273.869 157.641L273.855 157.604C273.802 157.407 273.543 157.355 273.083 157.535C272.544 157.746 271.896 158.233 271.263 158.935L271.145 159.068C270.577 159.723 269.768 160.288 268.796 160.77C268.284 161.024 267.759 161.239 267.249 161.417C267.07 161.479 266.906 161.532 266.759 161.576L266.573 161.629C266.455 161.66 266.334 161.59 266.303 161.472C266.272 161.354 266.342 161.234 266.46 161.202L266.632 161.153L266.856 161.083C266.935 161.057 267.017 161.029 267.104 161C267.597 160.828 268.106 160.62 268.6 160.375C269.524 159.916 270.288 159.383 270.811 158.779C271.525 157.956 272.276 157.377 272.922 157.124Z" fill="#604346"/>
<path d="M270.972 156.719C272.597 155.173 273.567 154.871 274.042 155.319C274.077 155.351 274.101 155.383 274.116 155.409C274.178 155.514 274.143 155.649 274.038 155.711C273.944 155.766 273.827 155.745 273.759 155.665L273.739 155.64C273.672 155.577 273.531 155.55 273.257 155.635C272.789 155.781 272.135 156.223 271.277 157.039C270.652 157.633 269.975 158.136 269.262 158.556C268.551 158.975 267.842 159.291 267.168 159.517C266.979 159.581 266.803 159.634 266.643 159.677L266.525 159.708C266.409 159.737 266.326 159.755 266.281 159.763C266.161 159.785 266.046 159.706 266.024 159.586C266.002 159.466 266.081 159.351 266.201 159.329L266.263 159.316C266.289 159.31 266.321 159.303 266.358 159.294L266.418 159.279C266.597 159.234 266.802 159.175 267.028 159.099C267.674 158.881 268.355 158.578 269.038 158.176C269.723 157.772 270.373 157.289 270.972 156.719Z" fill="#604346"/>
<path fill-rule="evenodd" clip-rule="evenodd" d="M179.778 151.446L183.638 136.685L170.442 127.867L163.064 145.119C163.064 145.119 168.433 158.168 179.778 151.446Z" fill="#997C79"/>
<path fill-rule="evenodd" clip-rule="evenodd" d="M167.613 118.667C166.067 130.132 172.262 137.29 179.46 139.766C188.041 142.719 192.153 135.795 194.804 124.804C197.495 113.643 193.851 108.519 185.739 105.897C177.282 103.162 169.178 107.054 167.613 118.667Z" fill="#997C79"/>
<path fill-rule="evenodd" clip-rule="evenodd" d="M173.162 122.024C173.155 121.092 173.328 119.584 172.118 118.611C170.454 117.272 168.158 118.929 167.757 121.307C167.271 124.191 169.242 126.597 170.631 127.014C169.695 129.704 169.061 131.093 169.061 131.093C169.061 131.093 166.873 127.169 166.543 121.959C166.028 113.828 170.692 104.019 179.644 104.075C193.516 104.555 195.495 115.612 195.495 115.612L179.563 110.711L178.407 116.178C178.407 116.178 175.509 115.502 174.239 122L173.162 122.024Z" fill="#604346"/>
<path d="M186.563 119.636C186.739 119.684 186.843 119.864 186.796 120.04C186.752 120.201 186.597 120.302 186.436 120.282L186.392 120.273L181.431 118.938L179.738 118.964C179.571 118.967 179.431 118.845 179.407 118.684L179.403 118.64C179.4 118.473 179.522 118.333 179.683 118.309L179.727 118.305L181.466 118.278L181.557 118.289L186.563 119.636Z" fill="#604346"/>
<path fill-rule="evenodd" clip-rule="evenodd" d="M174.964 131.736C177.555 129.679 178.07 127.315 185.599 129.67C189.261 130.816 190.203 132.408 190.656 135.741C188.319 139.981 183.774 141.755 178.969 139.934C168.872 136.11 171.432 125.639 171.432 125.639C171.432 125.639 172.778 126.438 173.022 127.351C173.693 129.874 174.383 130.658 174.964 131.736Z" fill="#7C5B4D"/>
<path fill-rule="evenodd" clip-rule="evenodd" d="M187.539 132.567C187.539 132.567 184.819 131.945 180.836 130.363C180.836 130.363 180.941 132.235 183.886 133.118C186.197 133.812 187.539 132.567 187.539 132.567Z" fill="white"/>
<path d="M187.594 132.327L187.472 132.297C187.37 132.272 187.249 132.242 187.11 132.206L186.755 132.11C186.447 132.026 186.107 131.929 185.738 131.818C184.276 131.379 182.657 130.821 180.927 130.133C180.77 130.071 180.602 130.181 180.59 130.343L180.59 130.388C180.617 130.706 180.759 131.142 181.099 131.615C181.631 132.358 182.514 132.965 183.814 133.355C184.814 133.655 185.722 133.637 186.522 133.383C187.092 133.202 187.491 132.949 187.707 132.749C187.853 132.614 187.788 132.371 187.594 132.327ZM186.941 132.672L186.9 132.694C186.741 132.777 186.565 132.851 186.372 132.912C185.666 133.136 184.859 133.153 183.956 132.882C182.758 132.522 181.968 131.978 181.5 131.327L181.438 131.237C181.339 131.088 181.264 130.946 181.209 130.816L181.189 130.767L181.485 130.882C182.818 131.393 184.08 131.826 185.248 132.186L185.596 132.291C185.969 132.403 186.313 132.502 186.625 132.587L186.941 132.672Z" fill="#604346"/>
<path d="M190.549 120.772C190.691 120.859 190.743 121.037 190.678 121.186L190.657 121.225L189.69 122.794L189.062 129.587C189 130.253 188.37 130.708 187.726 130.57L187.657 130.553L183.643 129.428C183.467 129.379 183.365 129.197 183.414 129.021C183.459 128.861 183.616 128.761 183.777 128.784L183.821 128.793L187.835 129.918C188.089 129.989 188.345 129.829 188.398 129.578L188.405 129.526L189.041 122.657C189.044 122.624 189.052 122.591 189.065 122.56L189.088 122.515L190.095 120.88C190.183 120.737 190.361 120.685 190.509 120.751L190.549 120.772Z" fill="#604346"/>
<path d="M184.162 135.112C184.293 135.148 184.371 135.284 184.334 135.416C184.302 135.534 184.188 135.608 184.07 135.596L184.031 135.588L182.107 135.058C181.975 135.022 181.898 134.886 181.934 134.754C181.967 134.636 182.08 134.561 182.198 134.574L182.238 134.582L184.162 135.112Z" fill="#604346"/>
<path d="M194.95 121.924C195.126 121.971 195.232 122.151 195.185 122.327C195.143 122.488 194.988 122.59 194.827 122.57L194.783 122.562L190.528 121.442C190.352 121.395 190.247 121.215 190.293 121.039C190.336 120.878 190.491 120.776 190.652 120.796L190.696 120.804L194.95 121.924Z" fill="#604346"/>
<path d="M173.529 136.412C173.627 136.317 173.784 136.32 173.879 136.418C176.155 138.775 178.833 139.962 181.444 140.34C181.764 140.386 182.052 140.414 182.305 140.428L182.438 140.434C182.517 140.437 182.574 140.438 182.608 140.437C182.744 140.435 182.857 140.543 182.859 140.68C182.862 140.816 182.753 140.929 182.617 140.931L182.508 140.931C182.447 140.93 182.37 140.927 182.277 140.922C182.011 140.907 181.708 140.877 181.373 140.829C178.661 140.437 175.883 139.205 173.523 136.761C173.428 136.663 173.431 136.507 173.529 136.412Z" fill="#604346"/>
<path d="M170.686 119.452C171.078 119.521 171.464 119.704 171.763 120.054C172.22 120.589 172.362 121.404 172.104 122.53C172.076 122.655 171.956 122.738 171.829 122.72C171.188 122.63 170.822 122.788 170.688 123.104C170.565 123.393 170.637 123.821 170.872 124.176C170.948 124.289 170.917 124.443 170.803 124.518C170.689 124.594 170.536 124.562 170.46 124.449C170.14 123.965 170.038 123.367 170.233 122.91C170.436 122.434 170.911 122.18 171.593 122.203L171.666 122.207L171.673 122.171C171.818 121.364 171.714 120.801 171.431 120.429L171.387 120.375C171.173 120.125 170.888 119.99 170.6 119.939C170.561 119.932 170.531 119.928 170.512 119.926L170.497 119.925C170.36 119.92 170.254 119.805 170.259 119.669C170.265 119.532 170.38 119.426 170.516 119.431L170.587 119.437C170.615 119.44 170.648 119.445 170.686 119.452Z" fill="#604346"/>
<path d="M184.384 122.311C184.559 122.363 184.657 122.547 184.605 122.721C184.332 123.628 183.402 124.155 182.521 123.891C181.64 123.627 181.153 122.674 181.425 121.767C181.477 121.593 181.661 121.494 181.835 121.546C182.01 121.599 182.109 121.782 182.056 121.957C181.887 122.521 182.184 123.102 182.71 123.259C183.237 123.417 183.804 123.096 183.974 122.532C184.026 122.357 184.21 122.259 184.384 122.311Z" fill="#604346"/>
<path d="M193.183 124.95C193.357 125.002 193.456 125.186 193.404 125.36C193.131 126.267 192.201 126.794 191.32 126.529C190.438 126.265 189.952 125.313 190.224 124.406C190.276 124.232 190.46 124.133 190.634 124.185C190.809 124.237 190.908 124.421 190.855 124.595C190.686 125.159 190.983 125.74 191.509 125.898C192.035 126.056 192.603 125.734 192.773 125.17C192.825 124.996 193.009 124.897 193.183 124.95Z" fill="#604346"/>
<path fill-rule="evenodd" clip-rule="evenodd" d="M169.217 214.309C174 216.256 176.482 211.178 176.146 207.521C176.146 207.521 189.846 176.112 192.361 157.33C188.189 153.524 184.404 151.232 180.292 149.284C178.68 148.52 175.014 149.277 173.008 148.62C170.042 147.648 166.433 142.868 163.517 142.255C159.897 141.494 156.225 141.016 153.29 140.72C149.16 140.303 145.226 142.594 143.603 146.415C140.699 153.248 137.197 166.897 137.613 192.627C137.613 192.627 132.118 198.37 137.949 201.817C144.848 205.896 169.217 214.309 169.217 214.309Z" fill="#ADC6FF"/>
<path fill-rule="evenodd" clip-rule="evenodd" d="M181.518 146.105L183.13 150.857L176.311 156.983L172.722 148.617L181.518 146.105Z" fill="#ADC6FF"/>
<path fill-rule="evenodd" clip-rule="evenodd" d="M172.73 148.587L165.369 139.617L160.405 142.451L164.222 152.259L172.73 148.587Z" fill="#ADC6FF"/>
<path fill-rule="evenodd" clip-rule="evenodd" d="M175.88 154.699L172.718 148.558L166.708 151.657L168.528 159.143L173.057 159.828L175.88 154.699Z" fill="#253368"/>
<path fill-rule="evenodd" clip-rule="evenodd" d="M173.058 160.125L168.348 158.866L155.778 190.302C155.622 190.693 155.613 191.127 155.755 191.524L159.164 201.057C159.547 202.129 160.846 202.542 161.778 201.889L169.887 196.201C170.313 195.903 170.581 195.429 170.617 194.911L173.058 160.125Z" fill="#253368"/>
<path d="M182.51 150.929C182.645 150.806 182.853 150.815 182.976 150.95C183.089 151.073 183.09 151.258 182.986 151.383L182.956 151.415L177.121 156.756C176.973 156.892 176.743 156.863 176.63 156.705L176.606 156.666L172.577 148.996L164.62 152.997C164.462 153.076 164.274 153.017 164.187 152.869L164.167 152.827L160.37 143.48C160.302 143.312 160.383 143.119 160.552 143.051C160.705 142.989 160.878 143.05 160.96 143.188L160.981 143.232L164.643 152.248L172.57 148.262C172.716 148.189 172.891 148.234 172.984 148.363L173.01 148.404L176.991 155.981L182.51 150.929Z" fill="#597EF7"/>
<path d="M172.81 159.773C172.898 159.795 172.951 159.885 172.928 159.974C172.908 160.051 172.837 160.101 172.76 160.097L172.727 160.092L167.981 158.859C167.893 158.836 167.84 158.746 167.863 158.658C167.883 158.581 167.954 158.531 168.031 158.535L168.064 158.54L172.81 159.773Z" fill="#597EF7"/>
<path fill-rule="evenodd" clip-rule="evenodd" d="M214.979 167.741C214.979 167.741 205.038 168.103 202.878 163.959C200.921 160.205 204.825 158.395 204.825 158.395C204.825 158.395 209.132 154.996 213.784 153.876C216.832 153.142 222.418 150.883 223.213 152.342C224.25 154.245 218.161 155.623 217.899 157.178C217.367 160.327 227.175 159.168 228.866 159.834C232.172 161.134 226.906 167.398 214.979 167.741Z" fill="#997C79"/>
<path d="M228.714 161.315C228.826 161.282 228.943 161.347 228.976 161.458C229.008 161.57 228.944 161.687 228.832 161.72C227.96 161.972 227.039 162.147 226.079 162.252C224.507 162.423 222.907 162.403 221.361 162.245C220.897 162.198 220.466 162.142 220.076 162.079L219.884 162.048C219.729 162.022 219.593 161.997 219.475 161.974L219.329 161.944C219.215 161.919 219.144 161.806 219.169 161.692C219.194 161.579 219.307 161.507 219.42 161.532L219.557 161.56C219.642 161.577 219.738 161.595 219.844 161.613L219.954 161.632C220.385 161.705 220.872 161.772 221.403 161.826C222.922 161.98 224.493 162.001 226.033 161.832C226.97 161.73 227.868 161.56 228.714 161.315Z" fill="#604346"/>
<path d="M227.606 163.529C227.717 163.491 227.837 163.551 227.874 163.661C227.911 163.771 227.852 163.891 227.742 163.928L227.58 163.978C227.526 163.994 227.462 164.012 227.389 164.032C227.104 164.11 226.769 164.188 226.388 164.264C225.3 164.481 224.049 164.632 222.653 164.681C221.243 164.731 219.759 164.673 218.212 164.489C218.096 164.475 218.013 164.37 218.027 164.254C218.041 164.139 218.146 164.056 218.261 164.07C219.787 164.251 221.249 164.308 222.638 164.259C224.011 164.211 225.239 164.063 226.305 163.851C226.615 163.789 226.893 163.725 227.136 163.663L227.278 163.625C227.442 163.581 227.552 163.547 227.606 163.529Z" fill="#604346"/>
<path d="M223.515 165.874C223.63 165.859 223.736 165.939 223.752 166.055C223.768 166.17 223.687 166.277 223.572 166.292C221.551 166.567 219.787 166.657 218.29 166.611C217.765 166.595 217.31 166.563 216.927 166.52L216.739 166.498L216.503 166.464C216.483 166.461 216.467 166.458 216.456 166.456C216.342 166.435 216.266 166.324 216.287 166.21C216.309 166.095 216.419 166.02 216.534 166.041L216.646 166.06C216.726 166.071 216.835 166.086 216.973 166.101C217.345 166.142 217.789 166.173 218.303 166.189C219.777 166.235 221.517 166.146 223.515 165.874Z" fill="#604346"/>
<path fill-rule="evenodd" clip-rule="evenodd" d="M170.72 195.188C166.348 197.13 161.223 195.254 159.138 190.949L141.57 154.693C139.053 149.498 141.339 143.251 146.615 140.908C151.892 138.565 158.059 141.058 160.225 146.409L175.342 183.753C177.136 188.187 175.092 193.247 170.72 195.188Z" fill="#ADC6FF"/>
<path fill-rule="evenodd" clip-rule="evenodd" d="M222.577 196.491C219.424 200.09 213.986 200.54 210.285 197.508L179.116 171.983C174.65 168.325 174.101 161.695 177.905 157.353C181.709 153.011 188.354 152.683 192.567 156.63L221.969 184.172C225.461 187.443 225.73 192.893 222.577 196.491Z" fill="#ADC6FF"/>
<path fill-rule="evenodd" clip-rule="evenodd" d="M204.968 156.907L211.184 168.009L173.141 194.68C168.989 197.522 163.305 196.319 160.661 192.039C158.018 187.759 159.486 182.138 163.885 179.698L204.968 156.907Z" fill="#ADC6FF"/>
<path d="M204.599 156.749C204.743 156.669 204.921 156.709 205.019 156.836L205.045 156.876L211.128 167.71C211.202 167.844 211.175 168.009 211.067 168.111L211.028 168.143L169.962 196.567L169.893 196.603C169.605 196.715 169.096 196.839 168.409 196.888C166.766 197.006 164.983 196.608 163.177 195.48C160.788 193.989 158.595 191.356 156.7 187.376C154.38 182.502 152.017 177.471 149.712 172.513L147.382 167.486L145.475 163.34C145.399 163.175 145.472 162.979 145.638 162.904C145.788 162.835 145.963 162.889 146.051 163.024L146.081 163.081L147.981 167.21C148.443 168.211 148.933 169.271 149.448 170.381C152.023 175.932 154.686 181.611 157.295 187.093C159.139 190.965 161.251 193.501 163.526 194.921C165.209 195.972 166.853 196.339 168.361 196.231C168.723 196.205 169.047 196.152 169.328 196.084L169.455 196.051C169.493 196.041 169.527 196.031 169.556 196.022L169.621 196L210.406 167.771L204.63 157.483L166.636 178.345C166.491 178.425 166.312 178.384 166.215 178.256L166.189 178.215C166.109 178.07 166.15 177.891 166.278 177.794L166.319 177.767L204.599 156.749Z" fill="#597EF7"/>
<path d="M199.322 161.419C199.462 161.332 199.643 161.364 199.747 161.487L199.775 161.526L205.824 171.316C205.919 171.471 205.871 171.674 205.716 171.77C205.576 171.857 205.395 171.825 205.291 171.702L205.263 171.663L199.214 161.873C199.119 161.718 199.167 161.515 199.322 161.419Z" fill="#597EF7"/>
<path fill-rule="evenodd" clip-rule="evenodd" d="M206.646 166.213C207.129 165.915 207.76 166.065 208.059 166.547C208.356 167.029 208.208 167.662 207.725 167.96C207.242 168.257 206.61 168.108 206.312 167.626C206.014 167.144 206.163 166.511 206.646 166.213Z" fill="white"/>
<path fill-rule="evenodd" clip-rule="evenodd" d="M252.08 161.031L258.402 170.74L220.656 197.909C216.505 200.75 210.821 199.548 208.177 195.268C205.533 190.988 207.001 185.367 211.4 182.927L252.08 161.031Z" fill="#ADC6FF"/>
<path d="M252.271 160.877C252.41 160.804 252.578 160.84 252.676 160.956L252.705 160.998L258.614 170.742C258.694 170.875 258.671 171.043 258.563 171.149L258.524 171.181L219.186 199.384C219.038 199.49 218.832 199.456 218.726 199.308C218.63 199.173 218.649 198.991 218.765 198.879L218.802 198.848L257.892 170.823L252.302 161.604L214.144 181.578C213.998 181.654 213.82 181.61 213.725 181.48L213.7 181.438C213.623 181.292 213.667 181.114 213.797 181.019L213.839 180.994L252.271 160.877Z" fill="#597EF7"/>
<path d="M246.835 164.648C246.976 164.561 247.157 164.593 247.26 164.715L247.289 164.755L253.337 174.545C253.433 174.7 253.385 174.903 253.23 174.998C253.089 175.085 252.909 175.054 252.805 174.931L252.776 174.891L246.728 165.101C246.632 164.947 246.68 164.743 246.835 164.648Z" fill="#597EF7"/>
<path fill-rule="evenodd" clip-rule="evenodd" d="M254.159 169.442C254.642 169.144 255.274 169.293 255.572 169.775C255.87 170.258 255.721 170.89 255.238 171.188C254.756 171.486 254.124 171.337 253.825 170.854C253.528 170.372 253.677 169.74 254.159 169.442Z" fill="white"/>
<path d="M161.51 151.767C161.661 151.7 161.836 151.756 161.922 151.892L161.945 151.935L172.043 174.736C172.117 174.902 172.042 175.097 171.875 175.171C171.724 175.238 171.549 175.182 171.464 175.046L171.441 175.003L161.342 152.202C161.268 152.036 161.343 151.841 161.51 151.767Z" fill="#597EF7"/>
<path fill-rule="evenodd" clip-rule="evenodd" d="M164.193 242.661L152.754 252.483L135.397 247.095C135.397 247.095 126.687 242.494 126.324 231.747C125.961 221 135.541 204.803 135.541 204.803L170.773 217.833C170.773 217.833 170.106 234.768 164.193 242.661Z" fill="#4E5C93"/>
<path fill-rule="evenodd" clip-rule="evenodd" d="M154.565 380.935C154.565 380.935 160.545 391.48 171.683 392.807C178.976 393.676 172.294 400.923 159.497 399.435C152.203 398.587 153.478 394.792 149.483 395.096C147.168 395.272 140.783 394.739 140.641 392.974C140.455 390.668 141.181 386.755 141.753 383.394C142.129 381.185 142.396 374.634 143.116 372.95C148.155 361.154 154.579 366.566 154.565 380.935Z" fill="#253368"/>
<path fill-rule="evenodd" clip-rule="evenodd" d="M125.061 337.716C125.061 337.716 119.873 348.673 125.192 358.548C128.675 365.014 118.558 364.276 112.417 352.951C108.915 346.496 113.099 344.796 110.554 341.703C109.078 339.909 105.996 334.542 107.205 333.248C109.319 330.986 110.133 331.031 114.64 329.119C142.914 317.134 138.505 328.287 125.061 337.716Z" fill="#253368"/>
<path fill-rule="evenodd" clip-rule="evenodd" d="M139.653 375.908L135.747 301.542C135.431 295.519 140.266 290.481 146.296 290.549C152.118 290.616 156.762 295.43 156.618 301.251L154.977 376.275C154.977 376.275 148.736 379.318 139.653 375.908Z" fill="#4E5C93"/>
<path fill-rule="evenodd" clip-rule="evenodd" d="M146.902 305.852C152.565 305.253 156.74 300.284 156.354 294.603L152.061 231.273C151.563 223.921 145.057 218.455 137.729 219.231C130.401 220.007 125.185 226.715 126.238 234.008L135.304 296.832C136.117 302.468 141.24 306.452 146.902 305.852Z" fill="#4E5C93"/>
<path fill-rule="evenodd" clip-rule="evenodd" d="M119.37 326.349L178.935 281.655C183.759 278.036 190.637 279.242 193.941 284.287C197.131 289.158 195.722 295.697 190.809 298.822L127.878 338.853C127.878 338.853 121.601 335.791 119.37 326.349Z" fill="#4E5C93"/>
<path fill-rule="evenodd" clip-rule="evenodd" d="M189.472 299.691C194.622 297.264 196.954 291.241 194.749 286.054L170.167 228.232C167.314 221.52 159.4 218.55 152.733 221.69C146.067 224.83 143.317 232.822 146.674 239.297L175.599 295.075C178.193 300.077 184.321 302.116 189.472 299.691Z" fill="#4E5C93"/>
<path d="M160.57 231.569C160.727 231.662 160.778 231.864 160.686 232.02C160.161 232.907 159.052 234.291 157.507 236.042L157.023 236.586C156.941 236.679 156.857 236.771 156.773 236.865C156.178 237.525 155.562 238.193 154.946 238.851L154.19 239.653L153.349 240.532L157.058 302.881L155.409 376.522C155.406 376.643 155.337 376.753 155.23 376.808L155.113 376.865C155.063 376.889 155.001 376.918 154.929 376.95C154.69 377.058 154.412 377.173 154.099 377.291C153.208 377.627 152.211 377.92 151.13 378.133C147.144 378.921 143.141 378.456 139.478 376.187C139.323 376.091 139.275 375.888 139.371 375.734C139.467 375.579 139.67 375.531 139.825 375.627C143.331 377.798 147.168 378.244 151.002 377.487C152.046 377.28 153.008 376.998 153.867 376.674C154.107 376.584 154.324 376.496 154.518 376.412L154.722 376.32L154.754 376.305L156.4 302.894L152.683 240.426C152.677 240.334 152.711 240.243 152.775 240.177L153.575 239.343C153.665 239.249 153.758 239.151 153.853 239.051C154.667 238.19 155.494 237.299 156.283 236.423L156.775 235.874L157.013 235.606C158.531 233.886 159.622 232.524 160.118 231.685C160.203 231.541 160.38 231.486 160.53 231.548L160.57 231.569Z" fill="#253368"/>
<path fill-rule="evenodd" clip-rule="evenodd" d="M170.866 219.107L135.309 204.947L137.661 200.823L172.222 214.586L170.866 219.107Z" fill="black"/>
<path fill-rule="evenodd" clip-rule="evenodd" d="M163.991 217.256L155.864 214.02C154.951 213.657 154.502 212.612 154.866 211.7L156.068 208.681C156.431 207.768 157.475 207.319 158.388 207.682L166.515 210.919C167.427 211.282 167.877 212.326 167.513 213.239L166.311 216.258C165.948 217.17 164.903 217.62 163.991 217.256Z" fill="white"/>
<path fill-rule="evenodd" clip-rule="evenodd" d="M163.524 215.884L156.999 213.285C156.449 213.066 156.179 212.438 156.398 211.89L157.315 209.539C157.533 208.99 158.133 208.837 158.683 209.055L165.209 211.654C165.757 211.873 166.027 212.5 165.809 213.049L164.919 215.283C164.701 215.832 164.073 216.102 163.524 215.884Z" fill="black"/>
</g>
<defs>
<clipPath id="clip0">
<rect width="225" height="450" fill="white" transform="translate(166.486) rotate(21.7138)"/>
</clipPath>
</defs>
</svg>
