<svg width="225" height="450" viewBox="0 0 225 450" fill="none" xmlns="http://www.w3.org/2000/svg">
<path d="M204 353H28C21.3726 353 16 358.373 16 365C16 371.627 21.3726 377 28 377H204C210.627 377 216 371.627 216 365C216 358.373 210.627 353 204 353Z" fill="#E4EBF7"/>
<path fill-rule="evenodd" clip-rule="evenodd" d="M95.584 114.814L97.8615 97.8262L113.165 99.749L112.852 116.132C112.758 121.081 108.547 124.947 103.609 124.621C98.6004 124.29 94.9169 119.789 95.584 114.814Z" fill="#FFC999"/>
<path fill-rule="evenodd" clip-rule="evenodd" d="M116.976 94.1893C117.936 93.2961 119.364 93.1069 120.311 94.2414C121.836 96.0693 120.013 102.487 115.648 102.54C114.008 102.228 115.478 95.5841 116.976 94.1893Z" fill="#FFC999"/>
<path d="M118.861 95.1376C118.99 95.1215 119.108 95.2134 119.124 95.3428C119.139 95.4592 119.066 95.5663 118.957 95.5982L118.919 95.606C118.883 95.6104 118.805 95.6302 118.699 95.6756C118.514 95.7547 118.328 95.88 118.152 96.0625C117.834 96.3922 117.587 96.8701 117.444 97.5268C117.407 97.6971 117.422 97.74 117.569 97.8336L117.671 97.8961C117.974 98.0818 118.125 98.2757 118.137 98.6399C118.156 99.2077 117.908 99.6409 117.492 99.9426C117.258 100.112 117.025 100.207 116.861 100.248C116.735 100.279 116.607 100.202 116.575 100.076C116.544 99.9495 116.621 99.8215 116.747 99.79L116.788 99.7781C116.814 99.7697 116.847 99.7576 116.887 99.7414C116.999 99.6957 117.111 99.6357 117.215 99.5606C117.512 99.3451 117.679 99.0539 117.665 98.6559C117.66 98.4964 117.616 98.4246 117.475 98.3308L117.367 98.2639C117.026 98.0567 116.891 97.8442 116.983 97.4262C117.144 96.6862 117.431 96.1293 117.812 95.7348C118.194 95.3389 118.584 95.1718 118.861 95.1376Z" fill="#DD936F"/>
<path fill-rule="evenodd" clip-rule="evenodd" d="M94.5285 92.5154C93.7118 91.4891 92.3268 91.0909 91.2227 92.0725C89.4436 93.6538 90.2939 100.271 94.6016 100.971C96.2713 100.905 95.8033 94.1166 94.5285 92.5154Z" fill="#FFC999"/>
<path d="M92.5298 93.0507C92.7404 93.1094 93.0345 93.2746 93.3221 93.5991C93.7284 94.0575 93.9911 94.7136 94.0487 95.5935C94.075 95.9972 93.932 96.1861 93.604 96.3375L93.4706 96.3947C93.2854 96.4741 93.2221 96.5361 93.1903 96.7078C93.114 97.1208 93.2544 97.4466 93.5454 97.7097C93.6314 97.7874 93.7242 97.8532 93.8168 97.9067L93.8869 97.945C93.9062 97.9548 93.9211 97.9617 93.9307 97.9657C94.0511 98.0157 94.1082 98.1538 94.0582 98.2741C94.0082 98.3945 93.8701 98.4516 93.7498 98.4016C93.6137 98.3451 93.4216 98.2341 93.2289 98.0598C92.8253 97.6949 92.6172 97.2121 92.7262 96.622C92.7863 96.2969 92.9417 96.1242 93.2141 95.993L93.3542 95.9317C93.5645 95.844 93.5902 95.815 93.5777 95.6243C93.5268 94.8467 93.3041 94.2903 92.9689 93.9122C92.8385 93.765 92.7 93.6559 92.5631 93.5789C92.5162 93.5526 92.477 93.5339 92.4478 93.5216L92.4032 93.5054C92.2776 93.4704 92.2042 93.3403 92.2392 93.2147C92.2703 93.1031 92.3765 93.0327 92.488 93.043L92.5298 93.0507Z" fill="#DD936F"/>
<path fill-rule="evenodd" clip-rule="evenodd" d="M117.11 95.9443C116.236 107.681 111.364 112.266 104.455 111.751C98.0694 111.274 93.4644 105.224 94.0642 93.8533C94.5217 85.1785 97.1057 79.0831 106.977 79.8201C117.342 80.5926 117.756 87.282 117.11 95.9443Z" fill="#FFC999"/>
<path d="M98.8286 109.36C98.9124 109.26 99.0612 109.247 99.1611 109.331C100.617 110.551 102.765 111.325 104.94 111.487C107.237 111.658 108.948 111.274 110.721 110.199C110.833 110.132 110.978 110.168 111.045 110.279C111.113 110.39 111.077 110.536 110.966 110.603C109.107 111.73 107.297 112.136 104.905 111.958C102.637 111.789 100.395 110.981 98.8578 109.692C98.7579 109.608 98.7449 109.46 98.8286 109.36Z" fill="#DD936F"/>
<path fill-rule="evenodd" clip-rule="evenodd" d="M96.1243 89.952C95.0933 91.2216 94.5726 93.3718 94.3287 94.793C94.2951 94.9894 94.0096 94.9782 93.9925 94.7792C93.7947 92.536 93.6141 87.0483 94.5548 83.9627C96.0327 79.1098 102.245 75.51 105.776 75.5872C107.212 75.6181 109.672 75.9088 112.098 78.3227C114.632 80.8461 116.27 80.7077 117.863 84.2119C118.948 86.6001 117.761 93.0455 117.186 96.1153C117.142 96.35 116.8 96.3322 116.782 96.0942C116.674 94.6454 116.388 92.6447 115.637 91.5934C115.544 89.6725 115.304 86.0688 115.304 86.0688C111.123 84.7333 101.663 84.3068 96.7202 84.8691L96.1243 89.952Z" fill="#253368"/>
<path d="M108.674 90.5599C110.225 90.2869 111.998 90.2493 113.884 90.597C114.242 90.6631 114.479 91.0068 114.413 91.3648C114.347 91.7229 114.003 91.9596 113.645 91.8936C111.926 91.5766 110.308 91.6109 108.903 91.8583C108.715 91.8914 108.546 91.9261 108.395 91.961L108.229 92.0015L108.089 92.0398C107.741 92.1475 107.372 91.9528 107.264 91.6051C107.156 91.2573 107.351 90.8881 107.699 90.7804L107.815 90.7465C108.011 90.6925 108.301 90.6257 108.674 90.5599Z" fill="#253368"/>
<path d="M103.458 91.1212C103.563 91.0718 103.685 91.1063 103.75 91.1974L103.772 91.2342L104.816 93.4523C104.828 93.4775 104.835 93.5044 104.838 93.5319L104.838 93.5733L104.215 100.701L106.199 100.855C106.316 100.864 106.407 100.957 106.416 101.07L106.416 101.109C106.407 101.226 106.315 101.316 106.201 101.326L106.163 101.326L103.942 101.154C103.824 101.145 103.733 101.051 103.724 100.937L103.725 100.898L104.361 93.5954L103.345 91.4352C103.295 91.3304 103.33 91.2076 103.421 91.1427L103.458 91.1212Z" fill="#DD936F"/>
<path d="M97.389 89.3542C97.957 89.2995 98.6155 89.3294 99.3508 89.4291C99.9626 89.512 100.609 89.6407 101.27 89.8028C101.605 89.8849 101.928 89.9717 102.231 90.0595L102.639 90.1813L102.932 90.2749C103.277 90.3912 103.462 90.7651 103.346 91.1101C103.229 91.4551 102.855 91.6405 102.51 91.5242L102.221 91.432L102.077 91.3883C101.73 91.2844 101.352 91.1803 100.956 91.0832C100.337 90.9315 99.7351 90.8116 99.1737 90.7355C98.5309 90.6484 97.9687 90.6228 97.5154 90.6665C97.153 90.7014 96.831 90.4359 96.7961 90.0735C96.7611 89.7112 97.0266 89.3891 97.389 89.3542Z" fill="#253368"/>
<path d="M103.491 93.463L107.564 93.7662C107.824 93.7856 108.019 94.012 107.999 94.2719C107.981 94.5145 107.783 94.7006 107.545 94.7086L107.494 94.7075L103.421 94.4043C103.161 94.385 102.966 94.1585 102.986 93.8986C103.004 93.656 103.202 93.4699 103.44 93.4619L103.491 93.463Z" fill="#253368"/>
<path d="M103.695 95.388C104.739 94.9598 105.759 95.0403 106.669 95.4304C106.956 95.5534 107.168 95.6792 107.293 95.771C107.503 95.9252 107.549 96.2205 107.395 96.4307C107.241 96.6409 106.945 96.6863 106.735 96.5322C106.664 96.4803 106.513 96.3904 106.297 96.2979C105.602 96 104.838 95.9397 104.054 96.2613C103.812 96.3602 103.537 96.2449 103.438 96.0037C103.339 95.7626 103.454 95.4869 103.695 95.388Z" fill="#253368"/>
<path fill-rule="evenodd" clip-rule="evenodd" d="M103.182 93.123L96.0638 92.4803C95.5668 92.4355 95.1278 92.8006 95.0869 93.2977C95.0098 94.2251 94.9274 95.7169 95.0533 97.0108C95.2023 98.5375 96.4686 99.5783 97.9886 99.7866C99.8871 100.047 101.598 100.203 102.552 99.2922C104.006 97.904 103.908 95.3932 103.998 94.0768C104.031 93.593 103.664 93.1665 103.182 93.123Z" fill="white"/>
<path d="M103.196 92.9663L96.0781 92.3236L96.0044 92.3193L95.9393 92.32C95.4141 92.3407 94.9745 92.7478 94.9303 93.2846C94.8189 94.6243 94.7899 95.9261 94.8969 97.0259C95.0476 98.5698 96.3082 99.7149 97.9674 99.9422L98.4802 100.009C100.732 100.286 101.854 100.176 102.661 99.4058C103.324 98.7729 103.718 97.8924 103.925 96.776L103.957 96.5961C104.027 96.186 104.063 95.83 104.095 95.2582L104.152 94.1409C104.153 94.1228 104.154 94.105 104.155 94.0874C104.194 93.519 103.764 93.0175 103.196 92.9663ZM95.9853 92.6336L96.0404 92.6362L103.168 93.2794C103.566 93.3153 103.869 93.6686 103.842 94.066L103.82 94.4504L103.795 94.9788C103.754 95.7888 103.716 96.1809 103.616 96.7186C103.42 97.7757 103.052 98.5978 102.444 99.1784C101.677 99.9104 100.508 99.9734 98.0101 99.6307C96.4873 99.422 95.3455 98.3848 95.2099 96.9954C95.1051 95.9183 95.1337 94.6331 95.2437 93.3105C95.2756 92.923 95.6016 92.6317 95.9853 92.6336Z" fill="#253368"/>
<path d="M95.1368 92.2056L103.98 92.7705C104.241 92.7871 104.438 93.0115 104.421 93.2716C104.406 93.5144 104.209 93.7026 103.972 93.7131L103.92 93.7125L95.0767 93.1476C94.8165 93.131 94.6191 92.9066 94.6357 92.6465C94.6513 92.4037 94.8477 92.2156 95.0853 92.2051L95.1368 92.2056Z" fill="#253368"/>
<path d="M100.112 94.2834C100.861 94.3396 101.372 95.1254 101.306 96.0057C101.293 96.1873 101.135 96.3234 100.953 96.3099C100.772 96.2963 100.635 96.1382 100.649 95.9567C100.69 95.4063 100.404 94.9663 100.063 94.9408C99.7217 94.9152 99.3732 95.3082 99.3321 95.8587C99.3186 96.0403 99.1604 96.1764 98.9789 96.1629C98.7974 96.1493 98.6612 95.9912 98.6748 95.8097C98.7383 94.9584 99.3219 94.2743 100.038 94.2803L100.112 94.2834Z" fill="#5C4E4A"/>
<path fill-rule="evenodd" clip-rule="evenodd" d="M115.275 94.0244L108.157 93.3817C107.66 93.3368 107.221 93.7014 107.18 94.199C107.103 95.1265 107.021 96.6182 107.147 97.9122C107.296 99.4389 108.563 100.48 110.083 100.688C111.981 100.948 113.692 101.105 114.646 100.194C116.1 98.8054 116.002 96.2946 116.092 94.9782C116.125 94.4944 115.757 94.0679 115.275 94.0244Z" fill="white"/>
<path d="M115.287 93.8678L108.169 93.2251L108.095 93.2207L108.031 93.2215C107.505 93.2421 107.066 93.6489 107.022 94.1861C106.911 95.5218 106.882 96.8269 106.989 97.9274C107.14 99.4713 108.4 100.616 110.059 100.844L110.405 100.89C112.769 101.193 113.926 101.096 114.753 100.307C115.416 99.6743 115.81 98.7938 116.017 97.6775L116.049 97.4974C116.124 97.0575 116.16 96.6796 116.194 96.0321L116.24 95.0976C116.242 95.0596 116.244 95.0239 116.247 94.9888C116.286 94.4206 115.856 93.919 115.287 93.8678ZM108.077 93.5351L108.147 93.5386L115.259 94.1809C115.657 94.2168 115.961 94.57 115.933 94.9673L115.916 95.2733L115.88 96.01C115.842 96.733 115.802 97.1119 115.708 97.6201C115.512 98.6772 115.144 99.4993 114.536 100.08C113.769 100.812 112.6 100.875 110.102 100.532C108.579 100.324 107.437 99.2863 107.302 97.8969C107.197 96.819 107.225 95.5307 107.335 94.212C107.367 93.8241 107.693 93.5331 108.077 93.5351Z" fill="#253368"/>
<path d="M111.094 95.1028C111.843 95.1589 112.354 95.9445 112.289 96.8254C112.275 97.0069 112.117 97.1433 111.936 97.1299C111.754 97.1165 111.618 96.9585 111.631 96.777C111.672 96.2258 111.386 95.7857 111.045 95.7601C110.704 95.7345 110.356 96.1274 110.315 96.6781C110.301 96.8596 110.143 96.9958 109.961 96.9822C109.78 96.9687 109.644 96.8105 109.657 96.629C109.721 95.7776 110.304 95.0936 111.02 95.0996L111.094 95.1028Z" fill="#5C4E4A"/>
<path d="M107.229 93.107L116.072 93.6719C116.332 93.6885 116.53 93.9128 116.513 94.173C116.498 94.4158 116.301 94.6039 116.064 94.6144L116.012 94.6139L107.168 94.049C106.908 94.0324 106.711 93.808 106.728 93.5479C106.743 93.3051 106.94 93.1169 107.177 93.1064L107.229 93.107Z" fill="#253368"/>
<path fill-rule="evenodd" clip-rule="evenodd" d="M108.695 102.72C105.088 102.778 101.785 102.204 101.785 102.204C101.785 102.204 102.45 104.453 105.134 104.653C107.818 104.853 108.695 102.72 108.695 102.72Z" fill="white"/>
<path d="M101.469 102.298C101.573 102.65 101.825 103.154 102.281 103.658C102.96 104.407 103.895 104.892 105.109 104.982C106.426 105.08 107.459 104.671 108.223 103.93C108.635 103.53 108.883 103.127 108.999 102.846C109.089 102.627 108.926 102.387 108.689 102.391C107.061 102.417 105.375 102.318 103.741 102.137C103.232 102.081 102.766 102.02 102.353 101.96L101.841 101.88C101.601 101.838 101.4 102.064 101.469 102.298ZM102.387 102.705L102.339 102.624L102.695 102.673C102.998 102.714 103.323 102.754 103.668 102.792L104.167 102.845C105.336 102.962 106.526 103.035 107.699 103.051L108.113 103.054L108.082 103.098C107.989 103.221 107.883 103.341 107.764 103.457C107.13 104.071 106.279 104.408 105.158 104.325C104.118 104.247 103.339 103.843 102.769 103.215C102.621 103.051 102.494 102.879 102.387 102.705Z" fill="#FF7946"/>
<path d="M103.572 105.751C103.636 105.638 103.78 105.598 103.893 105.663L103.973 105.704L104.014 105.724C104.116 105.772 104.232 105.821 104.359 105.867C104.88 106.055 105.411 106.13 105.896 106.031C106.067 105.997 106.23 105.94 106.383 105.861C106.498 105.801 106.641 105.846 106.701 105.961C106.761 106.077 106.716 106.22 106.6 106.28C106.408 106.38 106.203 106.451 105.99 106.494C105.407 106.612 104.794 106.525 104.199 106.311C103.955 106.223 103.769 106.135 103.661 106.073C103.547 106.009 103.507 105.865 103.572 105.751Z" fill="#DD936F"/>
<path fill-rule="evenodd" clip-rule="evenodd" d="M138.436 372.654C146.884 376.216 151.22 371.087 151.22 371.087C151.22 371.087 151.46 369.293 149.981 367.287C148.131 364.777 144.011 363.884 139.127 359.08C135.374 355.39 132.9 349.647 132.9 349.647C130.188 345.647 121.547 350.41 121.547 350.41C121.547 350.41 121.399 358.676 121.574 363.405C121.574 363.405 121.887 366.009 128.369 366.94C133.219 367.637 133.376 370.521 138.436 372.654Z" fill="#253368"/>
<path fill-rule="evenodd" clip-rule="evenodd" d="M77.1227 372.654C68.6746 376.216 64.3385 371.087 64.3385 371.087C64.3385 371.087 64.0993 369.293 65.5771 367.287C67.4275 364.777 71.5473 363.884 76.4319 359.08C80.1839 355.39 82.6591 349.647 82.6591 349.647C85.3703 345.647 94.0122 350.41 94.0122 350.41C94.0122 350.41 94.1592 358.676 93.9845 363.405C93.9845 363.405 93.672 366.009 87.1897 366.94C82.3394 367.637 82.1819 370.521 77.1227 372.654Z" fill="#253368"/>
<path fill-rule="evenodd" clip-rule="evenodd" d="M169.641 120.83C170.152 125.298 167.122 129.346 162.79 129.981L126.314 135.328C121.087 136.094 116.243 132.261 115.626 126.87C115.007 121.478 118.862 116.673 124.129 116.266L160.893 113.423C165.259 113.086 169.129 116.363 169.641 120.83Z" fill="#FFC999"/>
<path fill-rule="evenodd" clip-rule="evenodd" d="M153.243 133.124L127.343 136.566C121.631 137.407 116.359 133.349 115.71 127.612C115.061 121.876 115.554 116.708 121.309 116.25L150.717 114.257L153.243 133.124Z" fill="#597EF7"/>
<path fill-rule="evenodd" clip-rule="evenodd" d="M122.181 173.315L129.451 119.982C128.348 118.857 124.356 116.131 115.424 116.882C112.456 117.131 105.526 120.82 102.406 120.884C100.295 120.928 93.8509 116.677 92.108 117.06C81.9619 119.286 78.9923 120.771 73.5488 122.503L82.5974 171.594C82.5974 171.594 79.8334 180.803 85.0284 180.943C125.103 182.022 119.751 181.507 119.751 181.507C119.751 181.507 124.689 180.525 122.181 173.315Z" fill="#597EF7"/>
<path fill-rule="evenodd" clip-rule="evenodd" d="M95.5268 114.052L91.6133 117.06L96.5624 125.968L102.929 120.306L95.5268 114.052Z" fill="#597EF7"/>
<path d="M91.4493 117.021C91.5942 116.938 91.7754 116.978 91.8742 117.106L91.899 117.144L96.6473 125.453L102.711 120.112C102.835 120.003 103.019 120.004 103.141 120.108L103.176 120.142C103.286 120.266 103.285 120.45 103.181 120.572L103.147 120.607L96.7798 126.215C96.6352 126.343 96.4164 126.318 96.3021 126.171L96.2758 126.132L91.3267 117.471C91.2364 117.313 91.2913 117.111 91.4493 117.021Z" fill="#253368"/>
<path fill-rule="evenodd" clip-rule="evenodd" d="M112.876 114.052L115.683 117.368L109.927 126.463L102.795 120.303L112.876 114.052Z" fill="#597EF7"/>
<path d="M115.093 118.363C115.193 118.21 115.398 118.168 115.55 118.268C115.688 118.359 115.736 118.536 115.668 118.682L115.644 118.724L110.448 126.643C110.349 126.794 110.15 126.835 110.001 126.744L109.962 126.716L103.105 121.045L102.044 173.569L101.999 173.895L101.958 174.222C101.938 174.392 101.918 174.572 101.899 174.759C101.814 175.585 101.761 176.407 101.754 177.173C101.74 178.67 101.909 179.771 102.27 180.253C102.379 180.398 102.349 180.605 102.204 180.714C102.058 180.823 101.852 180.794 101.742 180.648C101.264 180.01 101.079 178.807 101.095 177.167C101.102 176.379 101.156 175.537 101.243 174.692L101.283 174.321C101.296 174.201 101.31 174.085 101.324 173.973L101.382 173.545C101.384 173.537 101.385 173.53 101.386 173.524L101.388 173.512L102.46 120.349C102.466 120.089 102.753 119.943 102.964 120.075L103 120.102L110.098 125.973L115.093 118.363Z" fill="#253368"/>
<path fill-rule="evenodd" clip-rule="evenodd" d="M104.483 128.196C104.403 128.777 104.732 129.302 105.216 129.368C105.701 129.434 106.159 129.016 106.238 128.435C106.317 127.853 105.988 127.328 105.504 127.262C105.019 127.196 104.562 127.614 104.483 128.196Z" fill="white"/>
<path fill-rule="evenodd" clip-rule="evenodd" d="M104.346 138.219C104.267 138.801 104.596 139.326 105.08 139.392C105.565 139.458 106.022 139.041 106.101 138.459C106.181 137.876 105.852 137.352 105.367 137.285C104.882 137.219 104.425 137.638 104.346 138.219Z" fill="white"/>
<path fill-rule="evenodd" clip-rule="evenodd" d="M103.852 149.277C103.772 149.859 104.101 150.384 104.586 150.45C105.071 150.515 105.528 150.098 105.608 149.516C105.687 148.934 105.358 148.409 104.873 148.343C104.388 148.277 103.931 148.695 103.852 149.277Z" fill="white"/>
<path fill-rule="evenodd" clip-rule="evenodd" d="M103.459 171.445C103.38 172.027 103.709 172.552 104.193 172.617C104.678 172.684 105.135 172.266 105.214 171.684C105.294 171.102 104.965 170.577 104.481 170.511C103.996 170.445 103.538 170.863 103.459 171.445Z" fill="white"/>
<path fill-rule="evenodd" clip-rule="evenodd" d="M103.357 159.008C103.278 159.59 103.607 160.115 104.091 160.181C104.576 160.247 105.034 159.829 105.113 159.248C105.192 158.665 104.863 158.141 104.379 158.074C103.893 158.008 103.437 158.427 103.357 159.008Z" fill="white"/>
<path d="M123.897 135.102L111.69 134.797C111.513 134.793 111.364 134.929 111.353 135.106L110.774 144.568C110.767 144.68 110.818 144.788 110.909 144.854L117.343 149.555C117.464 149.644 117.63 149.639 117.746 149.544L122.826 145.394C122.891 145.341 122.933 145.265 122.944 145.182L124.215 135.474C124.241 135.28 124.092 135.107 123.897 135.102ZM111.991 135.464L123.514 135.751L122.308 144.966L117.525 148.873L111.443 144.428L111.991 135.464Z" fill="#253368"/>
<path fill-rule="evenodd" clip-rule="evenodd" d="M122.284 185.309L82.4609 184.896L83.246 180.214L121.751 180.592L122.284 185.309Z" fill="#ADC6FF"/>
<path fill-rule="evenodd" clip-rule="evenodd" d="M82.787 183.586C82.787 183.586 77.4833 195.462 78.0297 210.851C84.7791 215.303 98.3417 217.842 98.3417 217.842C99.3529 218.367 105.409 218.097 106.434 217.652C106.434 217.652 124.91 212.018 126.657 209.218C125.665 194.71 122.222 184.648 122.222 184.648" fill="#ADC6FF"/>
<path fill-rule="evenodd" clip-rule="evenodd" d="M104.047 182.234C103.968 182.816 104.296 183.341 104.781 183.407C105.266 183.473 105.723 183.055 105.802 182.473C105.881 181.891 105.552 181.366 105.068 181.3C104.583 181.234 104.126 181.652 104.047 182.234Z" fill="white"/>
<path fill-rule="evenodd" clip-rule="evenodd" d="M71.7626 180.987C67.0086 180.449 63.5374 176.239 63.9171 171.47L67.1075 131.309C67.5643 125.554 72.6973 121.322 78.4335 121.971C84.1697 122.62 88.2283 127.89 87.3892 133.602L81.5343 173.461C80.8395 178.195 76.516 181.524 71.7626 180.987Z" fill="#FFC999"/>
<path fill-rule="evenodd" clip-rule="evenodd" d="M87.9874 134.03C88.8272 128.318 84.1694 122.373 78.4332 121.725C72.697 121.076 67.564 125.308 67.1071 131.063L64.7031 158.448C64.7031 158.448 83.2096 159.604 83.824 159.604L87.9874 134.03Z" fill="#597EF7"/>
<path fill-rule="evenodd" clip-rule="evenodd" d="M89.146 280.575C83.4434 280.552 78.7903 276.002 78.64 270.301L78.0493 205.857C77.9874 199.121 83.5205 193.675 90.2547 193.844C96.8663 194.009 102.076 199.531 101.858 206.141L99.7311 270.465C99.4938 276.132 94.8182 280.598 89.146 280.575Z" fill="#ADC6FF"/>
<path fill-rule="evenodd" clip-rule="evenodd" d="M95.1258 351.246L99.3189 272.936C99.6498 266.914 94.8272 261.865 88.7964 261.918C82.9739 261.971 78.3187 266.774 78.4479 272.596L80.0036 351.115C80.0036 351.115 86.0344 354.634 95.1258 351.246Z" fill="#ADC6FF"/>
<path fill-rule="evenodd" clip-rule="evenodd" d="M122.3 284.107C127.98 283.592 132.223 278.657 131.88 272.964L126.907 208.709C126.388 201.994 120.406 197.045 113.712 197.795C107.138 198.53 102.425 204.481 103.213 211.048L110.883 274.948C111.608 280.574 116.652 284.619 122.3 284.107Z" fill="#ADC6FF"/>
<path fill-rule="evenodd" clip-rule="evenodd" d="M121.501 353.661L111.082 277.299C110.233 271.328 114.602 265.881 120.615 265.415C126.42 264.964 131.473 269.347 131.846 275.159L135.896 352.207C135.896 352.207 130.85 356.252 121.501 353.661Z" fill="#ADC6FF"/>
<path fill-rule="evenodd" clip-rule="evenodd" d="M132.823 95.5592L124.466 89.9615C124.466 89.9615 120.503 80.0698 118.501 78.5306C116.5 76.9921 113.893 77.2927 111.691 76.3053C109.49 75.3178 109.982 77.7449 112.73 79.1186C115.478 80.4917 116.596 80.3361 117.263 83.1396C117.93 85.9425 116.919 95.9409 120.955 97.7207C122.395 99.0443 123.526 100.055 124.411 100.825C126.344 102.507 129.34 102.25 130.863 100.191C130.9 100.141 130.937 100.091 130.974 100.04C132.544 97.8492 135.211 96.8097 132.823 95.5592Z" fill="#FFC999"/>
<path d="M109.833 76.6777C109.555 75.724 110.313 75.3458 111.493 75.8757C111.612 75.9291 111.665 76.0687 111.612 76.1876C111.558 76.3065 111.419 76.3596 111.3 76.3062C110.434 75.9174 110.145 76.0615 110.286 76.5455C110.483 77.2192 111.341 78.0934 112.54 78.6926L112.746 78.7928C113.436 79.123 114.727 79.6929 114.825 79.7402C116.165 80.384 116.744 81.0663 117.162 82.7215L117.198 82.87C117.303 83.3096 117.384 83.9044 117.477 84.8607L117.72 87.5159L117.776 88.0794C117.852 88.8095 117.929 89.4594 118.018 90.0858L118.083 90.5213C118.677 94.3866 119.695 96.7879 121.404 97.5416C121.524 97.5942 121.578 97.7335 121.525 97.8528C121.473 97.972 121.333 98.026 121.214 97.9735C119.233 97.1001 118.158 94.4313 117.551 90.1521C117.461 89.5194 117.383 88.864 117.307 88.1286L117.189 86.9007L117.039 85.237C116.933 84.1047 116.848 83.4388 116.739 82.9794C116.364 81.4044 115.902 80.8038 114.732 80.2203L114.582 80.1477C114.315 80.0266 112.896 79.3981 112.329 79.1148C111.022 78.4616 110.071 77.493 109.833 76.6777Z" fill="#DD936F"/>
<path d="M128.058 131.375C128.239 131.396 128.369 131.559 128.348 131.74L128.195 133.059L128.067 134.096C127.704 136.832 125.148 154.63 122.938 170.295L122.52 173.264L122.56 173.35C123.489 175.421 123.408 177.494 122.697 179.393L122.634 179.555C122.503 179.887 122.362 180.184 122.221 180.444L122.152 180.568C122.098 180.662 122.055 180.731 122.025 180.775C121.924 180.927 121.719 180.967 121.568 180.866C121.417 180.764 121.376 180.56 121.478 180.408L121.531 180.323C121.561 180.273 121.599 180.208 121.642 180.128C121.771 179.892 121.9 179.618 122.021 179.312C122.749 177.473 122.839 175.461 121.882 173.456C121.855 173.398 121.845 173.333 121.854 173.269L127.131 136.056C127.295 134.881 127.403 134.096 127.441 133.794L127.589 132.57C127.622 132.289 127.656 131.99 127.693 131.665C127.712 131.499 127.851 131.376 128.014 131.373L128.058 131.375Z" fill="#253368"/>
<path fill-rule="evenodd" clip-rule="evenodd" d="M104.696 267.725L58.6504 266.485C57.4309 266.452 56.4679 265.436 56.5008 264.216L57.3709 231.9C57.4039 230.68 58.4197 229.717 59.6398 229.75L105.685 230.99C106.906 231.023 107.868 232.039 107.836 233.259L106.965 265.575C106.933 266.795 105.917 267.758 104.696 267.725Z" fill="#4E5C93"/>
<path fill-rule="evenodd" clip-rule="evenodd" d="M103.128 267.682L57.082 266.442C55.8626 266.409 54.8995 265.394 54.9325 264.173L55.8026 231.857C55.8355 230.637 56.8513 229.674 58.0715 229.707L104.117 230.947C105.338 230.98 106.3 231.996 106.267 233.216L105.397 265.532C105.364 266.752 104.349 267.715 103.128 267.682Z" fill="#253368"/>
<path fill-rule="evenodd" clip-rule="evenodd" d="M81.6967 230.528C80.232 231.012 80.5761 232.308 80.3869 235.515C80.2682 237.518 80.7573 240.131 80.2306 241.782C79.6881 243.484 71.8557 244.355 70.0852 233.121C70.0852 233.121 68.3219 220.049 71.9784 217.503C75.2901 215.198 80.9729 219.758 80.9729 219.758C80.9729 219.758 82.0473 221.204 84.1903 225.201L86.2529 230.342L81.6967 230.528Z" fill="#FFC999"/>
<path d="M77.5615 231.012C77.678 231.01 77.7738 231.103 77.7754 231.22L77.7787 231.379C77.782 231.509 77.7867 231.661 77.7931 231.832C77.8115 232.32 77.84 232.864 77.8807 233.451C77.9968 235.126 78.1872 236.8 78.4685 238.362C78.6758 239.512 78.9254 240.557 79.2206 241.471C79.2564 241.582 79.1956 241.701 79.0847 241.736C78.9739 241.772 78.855 241.711 78.8192 241.6C78.5176 240.667 78.2637 239.604 78.0533 238.437C77.7689 236.858 77.5769 235.169 77.4598 233.48L77.4276 232.984C77.4081 232.661 77.3924 232.353 77.3801 232.062L77.3631 231.603L77.3535 231.226C77.3519 231.109 77.445 231.013 77.5615 231.012Z" fill="#4E5C93"/>
<path d="M75.07 231.687C75.1865 231.686 75.2811 231.781 75.2813 231.897C75.2826 232.792 75.3565 233.803 75.494 234.91C75.6415 236.097 75.8577 237.36 76.1246 238.657C76.283 239.427 76.4512 240.169 76.6207 240.865L76.7055 241.209C76.7748 241.487 76.8391 241.736 76.8967 241.953L76.9689 242.22C77.0002 242.332 76.9347 242.448 76.8225 242.48C76.7103 242.511 76.5939 242.445 76.5626 242.333L76.489 242.061L76.3374 241.476L76.2962 241.311C76.0968 240.513 75.8975 239.646 75.7114 238.742C75.4424 237.435 75.2243 236.161 75.0753 234.962C74.9358 233.839 74.8608 232.811 74.8594 231.898C74.8592 231.781 74.9535 231.687 75.07 231.687Z" fill="#4E5C93"/>
<path d="M72.2943 232.167C72.4103 232.157 72.5126 232.243 72.5227 232.359L72.5623 232.75C72.571 232.831 72.5807 232.916 72.5913 233.007C72.652 233.528 72.7307 234.114 72.8294 234.751C73.1113 236.571 73.4965 238.436 74.0001 240.239C74.0315 240.351 73.9659 240.468 73.8537 240.499C73.7415 240.53 73.6252 240.465 73.5938 240.352C73.0852 238.532 72.6968 236.651 72.4125 234.816L72.3321 234.278C72.2817 233.928 72.2376 233.597 72.1996 233.286L72.1429 232.796L72.1024 232.395C72.0923 232.279 72.1782 232.177 72.2943 232.167Z" fill="#4E5C93"/>
<path fill-rule="evenodd" clip-rule="evenodd" d="M80.8965 219.894L70.3324 220.747L64.0953 174.208C63.4948 169.213 67.1888 164.729 72.2058 164.364C77.2235 163.998 81.5293 167.899 81.6591 172.928L80.8965 219.894Z" fill="#FFC999"/>
<path d="M86.4631 230.338C86.4655 230.454 86.373 230.55 86.2566 230.553L85.511 230.57C85.0636 230.582 84.6161 230.595 84.1879 230.609L83.1449 230.647C82.4759 230.676 81.983 230.706 81.7208 230.737C80.5446 230.876 80.4335 232.567 80.9142 237.734L81.0396 239.092C81.1064 239.848 81.1517 240.451 81.1828 241.028C81.1891 241.144 81.0999 241.243 80.9836 241.25C80.8672 241.256 80.7679 241.167 80.7616 241.051L80.7433 240.736C80.7169 240.31 80.6824 239.857 80.6369 239.33L80.3929 236.668C80.224 234.757 80.1854 233.866 80.2398 232.911C80.3302 231.32 80.754 230.427 81.6712 230.318L81.8624 230.299C82.2489 230.265 82.8805 230.233 83.6999 230.203L84.4993 230.177L85.6447 230.145L86.2479 230.131C86.3644 230.129 86.4607 230.221 86.4631 230.338Z" fill="#4E5C93"/>
<path d="M86.173 138.318L86.2178 138.32C86.3836 138.339 86.5069 138.477 86.5107 138.64L86.5088 138.684L84.1627 159.699C84.1449 159.859 84.015 159.98 83.8586 159.992H83.8153L64.6945 158.836C64.5128 158.825 64.3744 158.669 64.3854 158.487C64.3954 158.321 64.5275 158.19 64.6894 158.178L64.7342 158.178L83.5421 159.315L85.8537 138.611C85.8705 138.461 85.9865 138.345 86.1294 138.322L86.173 138.318Z" fill="#253368"/>
<path d="M152.087 121.352C152.253 121.336 152.402 121.446 152.44 121.604L152.447 121.648L153.571 133.091C153.587 133.252 153.483 133.399 153.33 133.441L153.287 133.45L127.315 136.952C127.135 136.976 126.969 136.85 126.944 136.669C126.922 136.504 127.027 136.351 127.183 136.307L127.227 136.298L152.884 132.839L151.791 121.712C151.775 121.546 151.884 121.397 152.042 121.36L152.087 121.352Z" fill="#253368"/>
<path fill-rule="evenodd" clip-rule="evenodd" d="M123.855 100.363L128.432 92.7783L165.481 114.024C169.449 116.299 170.792 121.576 168.431 125.609C166.07 129.643 160.961 130.797 157.215 128.144L123.855 100.363Z" fill="#FFC999"/>
<path d="M141.322 114.994C141.419 114.879 141.584 114.855 141.709 114.93L141.749 114.959L153.344 124.793C153.472 124.901 153.488 125.092 153.38 125.22C153.282 125.335 153.118 125.359 152.993 125.284L152.953 125.255L141.357 115.421C141.229 115.312 141.214 115.121 141.322 114.994Z" fill="#253368"/>
<path d="M122.222 184.66C122.352 184.66 122.458 184.766 122.458 184.896C122.458 185.013 122.372 185.111 122.26 185.129L122.222 185.132H82.4625C82.3322 185.132 82.2266 185.026 82.2266 184.896C82.2266 184.779 82.3121 184.682 82.4243 184.663L82.4625 184.66H122.222Z" fill="#597EF7"/>
<path d="M121.73 179.885C121.912 179.885 122.059 180.032 122.059 180.214C122.059 180.381 121.935 180.519 121.775 180.541L121.73 180.544H83.2476C83.0655 180.544 82.918 180.396 82.918 180.214C82.918 180.047 83.042 179.91 83.2028 179.888L83.2476 179.885H121.73Z" fill="#253368"/>
<path d="M102.007 180.215C102.125 180.215 102.222 180.3 102.24 180.413L102.243 180.451V217.778C102.243 217.908 102.138 218.014 102.007 218.014C101.89 218.014 101.793 217.928 101.775 217.816L101.771 217.778V180.451C101.771 180.32 101.877 180.215 102.007 180.215Z" fill="#597EF7"/>
<path d="M106.429 217.417C106.559 217.414 106.667 217.517 106.67 217.647C106.673 217.765 106.59 217.864 106.478 217.885L106.44 217.889L98.3471 218.079C98.2168 218.082 98.1087 217.979 98.1055 217.848C98.1028 217.731 98.1861 217.632 98.2978 217.611L98.336 217.607L106.429 217.417Z" fill="#597EF7"/>
<path d="M107.864 185.124C107.981 185.124 108.078 185.21 108.097 185.322L108.1 185.36V204.112C108.1 205.613 107.331 207.007 106.069 207.808L105.949 207.881L102.54 209.896C102.427 209.962 102.283 209.925 102.216 209.813C102.158 209.713 102.18 209.588 102.265 209.515L102.3 209.49L105.709 207.475C106.86 206.795 107.58 205.575 107.626 204.245L107.628 204.112V185.36C107.628 185.23 107.733 185.124 107.864 185.124Z" fill="#597EF7"/>
</svg>
