<svg width="291" height="582" viewBox="0 0 291 582" fill="none" xmlns="http://www.w3.org/2000/svg">
<g clip-path="url(#clip0)">
<path fill-rule="evenodd" clip-rule="evenodd" d="M171.49 787.171C171.49 787.171 160.514 565.014 173.893 559.594C192.452 552.078 248.311 572.586 251.138 603.996C253.964 635.407 234.883 793.944 234.883 793.944C234.883 793.944 239.669 813.042 231.529 818.596C220.334 823.171 209.372 803.517 177.056 807.712C162.167 800.284 171.49 787.171 171.49 787.171Z" fill="#4E5C93"/>
<path fill-rule="evenodd" clip-rule="evenodd" d="M246.464 607.927L269.006 788.9C269.006 788.9 259.968 814.625 277.914 819.002C283.496 820.365 293.822 813.602 305.792 812.086C317.762 810.569 331.374 814.298 334.278 809.432C340.086 799.702 333.524 784.858 333.524 784.858C333.524 784.858 339.786 631.988 333.008 573.32C330.251 549.469 250.533 573.502 246.464 607.927Z" fill="#4E5C93"/>
<path fill-rule="evenodd" clip-rule="evenodd" d="M177.955 530.263C177.955 530.263 165.163 573.445 170.838 595.973C175.42 614.161 222.64 635.945 251.316 637.531C266.706 638.383 322.105 622.253 328.971 600.1C335.719 578.326 332.101 562.829 328.423 550.433C325.771 541.495 322.743 529.787 322.743 529.787C322.743 529.787 190.606 530.963 177.955 530.263Z" fill="#4E5C93"/>
<path d="M233.92 564.363C233.509 564.313 233.135 564.605 233.084 565.016L233.009 565.697L232.905 566.786C232.847 567.433 232.79 568.146 232.736 568.922C231.737 583.224 232.604 599.409 236.764 614.755C237.766 618.453 238.946 622.007 240.312 625.397C240.467 625.781 240.904 625.967 241.288 625.812C241.672 625.657 241.858 625.22 241.703 624.836C240.36 621.502 239.199 618.005 238.212 614.362C234.103 599.204 233.244 583.176 234.232 569.027L234.331 567.717C234.365 567.303 234.399 566.913 234.433 566.547L234.543 565.458C234.555 565.349 234.565 565.262 234.573 565.199C234.624 564.788 234.331 564.414 233.92 564.363Z" fill="#253368"/>
<path d="M179.324 540.18C179.006 539.914 178.533 539.956 178.267 540.273C178.001 540.591 178.043 541.064 178.361 541.33L178.655 541.566L178.96 541.802C179.124 541.926 179.304 542.061 179.502 542.205C180.435 542.887 181.553 543.646 182.858 544.462C186.575 546.788 191.04 549.111 196.255 551.277C209.954 556.967 226.296 560.575 245.296 561.099C269.485 561.766 296.366 557.353 325.954 546.863C326.344 546.725 326.548 546.296 326.41 545.906C326.271 545.515 325.843 545.311 325.452 545.45C296.036 555.878 269.339 560.262 245.337 559.6C226.524 559.081 210.363 555.513 196.83 549.892C191.693 547.758 187.302 545.473 183.653 543.191L182.832 542.668C182.038 542.155 181.325 541.67 180.695 541.218L180.031 540.731L179.581 540.386C179.449 540.283 179.364 540.213 179.324 540.18Z" fill="#253368"/>
<path d="M234.207 533.472C233.827 533.464 233.508 533.74 233.451 534.105L233.442 534.206L232.932 558.71C232.923 559.124 233.252 559.467 233.666 559.476C234.045 559.484 234.365 559.208 234.422 558.843L234.431 558.741L234.941 534.237C234.95 533.823 234.621 533.481 234.207 533.472Z" fill="#253368"/>
<path d="M178.613 529.548C178.199 529.527 177.847 529.845 177.825 530.259C177.806 530.638 178.072 530.966 178.435 531.034L178.536 531.046L322.379 538.403C322.792 538.425 323.145 538.106 323.167 537.693C323.185 537.314 322.92 536.986 322.557 536.917L322.455 536.905L178.613 529.548Z" fill="#253368"/>
<path fill-rule="evenodd" clip-rule="evenodd" d="M292.672 331.749C292.672 331.749 297.317 345.687 289.292 349.909C282.241 353.62 275.356 352.443 274.511 342.73C273.665 333.016 277.045 306.408 283.381 307.252C289.714 308.098 292.672 331.749 292.672 331.749Z" fill="#4A3D39"/>
<path fill-rule="evenodd" clip-rule="evenodd" d="M229.523 334.566L230.081 361.113C230.401 376.248 242.456 388.515 257.585 389.096C274.234 389.733 287.903 376.065 287.266 359.417L286.219 332.057L229.523 334.566Z" fill="#9E7D6C"/>
<path fill-rule="evenodd" clip-rule="evenodd" d="M257.373 359.987C257.373 359.987 241.347 361.819 231.275 355.409C219.182 347.713 222.314 322.094 222.576 313.742C223.032 299.092 229.443 291.307 229.443 291.307C229.443 291.307 235.853 278.945 261.494 278.945C287.135 278.945 288.05 302.753 288.05 313.742C288.05 324.731 285.266 345.596 278.435 351.287C270.194 358.156 257.373 359.987 257.373 359.987Z" fill="#B0927B"/>
<path fill-rule="evenodd" clip-rule="evenodd" d="M223.948 304.585C223.948 304.585 212.96 293.596 217.081 284.898C221.201 276.198 229.442 275.281 238.601 277.57C247.757 279.861 283.534 269.667 287.593 289.018C303.16 305.959 291.841 320.77 291.841 320.77C291.841 320.77 285.401 313.692 283.111 319.644C280.822 325.596 279.031 329.64 277.199 327.808C275.366 325.977 277.025 318.907 273.82 315.702C270.614 312.496 266.641 302.61 269.278 295.885C270.193 291.765 235.853 291.307 228.527 294.513C224.396 296.32 223.948 304.585 223.948 304.585Z" fill="#4A3D39"/>
<path d="M226.563 308.667C228.548 307.418 231.49 306.995 235.524 307.751C236.338 307.903 236.874 308.687 236.722 309.501C236.569 310.316 235.786 310.852 234.971 310.7C231.639 310.075 229.461 310.388 228.162 311.206C227.808 311.429 227.628 311.613 227.575 311.683L227.561 311.703C227.17 312.434 226.261 312.709 225.53 312.318C224.8 311.926 224.525 311.017 224.916 310.287C225.175 309.803 225.701 309.21 226.563 308.667Z" fill="#4A3D39"/>
<path d="M251.379 307.934C253.836 307.569 256.472 307.604 258.992 308.325C259.779 308.55 260.534 308.839 261.249 309.197C261.99 309.567 262.29 310.468 261.92 311.209C261.549 311.95 260.648 312.25 259.907 311.88C259.362 311.607 258.781 311.384 258.167 311.209C256.12 310.623 253.89 310.594 251.821 310.901L251.357 310.977C251.133 311.017 250.968 311.052 250.868 311.077C250.064 311.278 249.25 310.789 249.049 309.986C248.848 309.182 249.337 308.368 250.14 308.167L250.36 308.116C250.611 308.061 250.955 307.997 251.379 307.934Z" fill="#4A3D39"/>
<path d="M240.673 315.832C240.913 316.029 240.947 316.384 240.749 316.623L240.564 316.856C240.413 317.049 240.245 317.271 240.063 317.519C239.544 318.23 239.024 319.005 238.54 319.817C237.754 321.135 237.14 322.42 236.765 323.614C235.468 327.744 237.105 330.063 243.131 330.063C243.441 330.063 243.693 330.314 243.693 330.625C243.693 330.936 243.441 331.188 243.131 331.188C236.335 331.188 234.17 328.122 235.692 323.277C236.096 321.989 236.746 320.628 237.574 319.241C238.077 318.396 238.616 317.592 239.155 316.855L239.556 316.32L239.881 315.908C240.079 315.668 240.433 315.634 240.673 315.832Z" fill="#7C5B4D"/>
<path fill-rule="evenodd" clip-rule="evenodd" d="M257.144 321.984C257.144 323.628 256.016 324.96 254.626 324.96C253.235 324.96 252.107 323.628 252.107 321.984C252.107 320.34 253.235 319.008 254.626 319.008C256.016 319.008 257.144 320.34 257.144 321.984Z" fill="#4A3D39"/>
<path fill-rule="evenodd" clip-rule="evenodd" d="M233.336 321.984C233.336 323.628 232.208 324.96 230.818 324.96C229.427 324.96 228.301 323.628 228.301 321.984C228.301 320.34 229.427 319.008 230.818 319.008C232.208 319.008 233.336 320.34 233.336 321.984Z" fill="#4A3D39"/>
<path fill-rule="evenodd" clip-rule="evenodd" d="M229.617 337.101C229.617 337.101 230.179 330.626 239.19 330.062C246.972 329.576 251.928 331.325 254.676 336.819C257.422 342.314 240.597 336.819 240.597 336.819C240.597 336.819 227.328 343.053 229.617 337.101Z" fill="#4A3D39"/>
<path fill-rule="evenodd" clip-rule="evenodd" d="M295.741 327.271C294.795 333.477 290.481 337.966 286.105 337.3C281.731 336.631 278.953 331.06 279.9 324.853C280.846 318.648 285.16 314.158 289.534 314.826C293.91 315.493 296.689 321.066 295.741 327.271Z" fill="#9E7D6C"/>
<path d="M268.439 354.601C268.725 354.481 269.055 354.617 269.174 354.903C269.294 355.19 269.159 355.52 268.872 355.639C256.255 360.91 245.213 361.069 236.256 358.166C235.012 357.763 233.924 357.331 232.997 356.897C232.752 356.782 232.532 356.674 232.335 356.572L232.148 356.473C232.001 356.395 231.9 356.337 231.845 356.304C231.579 356.144 231.493 355.799 231.653 355.532C231.813 355.266 232.159 355.18 232.425 355.34C232.596 355.443 232.948 355.632 233.474 355.878C234.359 356.292 235.404 356.708 236.603 357.096C245.313 359.919 256.08 359.763 268.439 354.601Z" fill="#7C5B4D"/>
<path d="M243.648 351.464C243.957 351.492 244.185 351.765 244.157 352.075L244.147 352.244C244.098 353.216 244.176 354.362 244.479 355.439C244.955 357.127 245.875 358.213 247.368 358.512C247.672 358.573 247.87 358.869 247.809 359.174C247.748 359.479 247.451 359.676 247.147 359.615C245.179 359.221 243.976 357.801 243.396 355.744C243.054 354.53 242.968 353.271 243.023 352.188L243.037 351.973C243.062 351.695 243.286 351.482 243.557 351.463L243.648 351.464Z" fill="#7C5B4D"/>
<path d="M289.306 319.926C289.617 319.926 289.869 320.178 289.869 320.488C289.869 320.799 289.617 321.051 289.306 321.051C289.194 321.051 288.971 321.071 288.677 321.135C288.179 321.242 287.681 321.436 287.218 321.735C285.998 322.524 285.22 323.903 285.099 326.071L285.09 326.246L285.192 326.274C287.194 326.834 288.279 327.694 288.45 328.864L288.467 329.019C288.551 330.1 287.87 331.223 286.612 332.459C286.39 332.677 286.034 332.674 285.816 332.452C285.599 332.23 285.602 331.874 285.823 331.657C286.863 330.635 287.396 329.756 287.346 329.105C287.289 328.364 286.412 327.705 284.391 327.229C284.137 327.17 283.957 326.943 283.957 326.682C283.957 323.786 284.947 321.864 286.607 320.79C287.61 320.141 288.609 319.926 289.306 319.926Z" fill="#7C5B4D"/>
<path fill-rule="evenodd" clip-rule="evenodd" d="M159.152 502.687C176.206 508.168 194.464 498.73 199.852 481.648L221.281 413.715C226.628 396.763 217.279 378.676 200.357 373.237C183.304 367.755 165.046 377.193 159.658 394.276L138.227 462.21C132.881 479.16 142.231 497.248 159.152 502.687Z" fill="#E4EBF7"/>
<path fill-rule="evenodd" clip-rule="evenodd" d="M176.721 464.349C176.721 464.349 143.772 530.363 195.729 544.98C220.71 552.008 241.175 554.196 259.658 553.131C300.063 550.8 320.429 543.699 325.478 538.193C339.041 523.407 331.764 500.054 334.842 464.652C337.646 432.374 352.887 394.422 335.163 376.605C321.815 368.55 309.26 362.042 291.311 356.997C277.605 353.145 268.206 377.895 254.748 377.634C243.576 377.418 234.075 355.04 223.988 357.737C204.342 362.987 196.32 366.386 180.015 374.325C180.015 374.325 173.568 399.114 180.923 435.042C180.923 435.042 175.637 450.06 176.721 464.349Z" fill="#E4EBF7"/>
<path fill-rule="evenodd" clip-rule="evenodd" d="M227.85 365.273C227.85 365.273 230.34 418.873 240.112 444.109C271.072 390.992 291.094 359.059 291.936 358.969L253.822 375.1L227.85 365.273Z" fill="white"/>
<path fill-rule="evenodd" clip-rule="evenodd" d="M237.717 381.75L251.107 372.451L265.102 384.298L256.966 395.104L239.971 394.666L237.717 381.75Z" fill="#253368"/>
<path fill-rule="evenodd" clip-rule="evenodd" d="M230.648 410.572L240.275 394.506L257.161 395.035L260.959 408.141L239.123 445.768L230.648 410.572Z" fill="#253368"/>
<path fill-rule="evenodd" clip-rule="evenodd" d="M229.529 386.311L252.483 372.945L230.753 356.208L226.98 359.753L229.529 386.311Z" fill="white"/>
<path fill-rule="evenodd" clip-rule="evenodd" d="M252.482 372.945L271.724 388.195L292.357 358.981L288.295 353.785L252.482 372.945Z" fill="white"/>
<path fill-rule="evenodd" clip-rule="evenodd" d="M228.667 387.382L251.651 372.497L230.533 354.229L226.148 359.303L228.667 387.382Z" fill="white"/>
<path d="M229.965 353.738L225.581 358.813C225.448 358.966 225.383 359.168 225.401 359.37L227.92 387.449C227.97 388.011 228.601 388.318 229.075 388.011L252.059 373.127C252.479 372.855 252.52 372.257 252.142 371.93L231.024 353.661C230.71 353.39 230.236 353.425 229.965 353.738ZM230.609 355.286L250.405 372.41L229.302 386.076L226.923 359.551L230.609 355.286Z" fill="#E4EBF7"/>
<path fill-rule="evenodd" clip-rule="evenodd" d="M251.652 372.497L272.094 390.432L294.471 357.941L286.959 351.489L251.652 372.497Z" fill="white"/>
<path d="M295.47 357.811L287.038 350.569L250.381 372.38L272.233 391.552L295.47 357.811ZM286.878 352.409L293.47 358.07L271.954 389.312L252.921 372.613L286.878 352.409Z" fill="#E4EBF7"/>
<path d="M238.608 443.875C238.987 443.88 239.297 444.167 239.342 444.533L239.347 444.635L238.905 476.735C238.903 476.841 238.879 476.945 238.835 477.041L238.467 477.864L238.044 478.845C237.762 479.511 237.459 480.244 237.141 481.042C235.865 484.235 234.588 487.791 233.397 491.616C230.082 502.26 228.058 512.885 227.961 522.783C227.853 533.772 230.151 543.184 235.27 550.555C235.506 550.895 235.422 551.362 235.082 551.598C234.741 551.835 234.274 551.75 234.038 551.41C228.721 543.755 226.35 534.044 226.461 522.768C226.56 512.704 228.61 501.943 231.965 491.17C233.168 487.306 234.458 483.713 235.748 480.485L236.127 479.547C236.374 478.942 236.61 478.38 236.832 477.862L237.406 476.556L237.847 444.615C237.853 444.235 238.139 443.925 238.506 443.88L238.608 443.875Z" fill="#A3B5D6"/>
<path d="M180.849 397.035C180.943 396.632 181.346 396.381 181.75 396.475C182.153 396.569 182.404 396.972 182.31 397.375C181.991 398.746 182.084 401.43 182.507 404.992L182.558 405.407C182.71 406.64 182.897 407.942 183.11 409.286C183.284 410.382 183.468 411.459 183.653 412.487L184.103 414.859C184.113 414.909 184.118 414.959 184.118 415.01L184.114 415.085L178.67 468.143C178.658 468.259 178.619 468.371 178.557 468.469L178.292 468.899C178.221 469.017 178.139 469.153 178.047 469.309L177.684 469.931C177.372 470.472 177.038 471.07 176.685 471.721C175.273 474.329 173.86 477.247 172.542 480.405C168.336 490.477 166.031 500.606 166.613 510.024C167.469 523.891 174.535 534.911 189.211 542.096L189.972 542.375C190.131 542.432 190.304 542.493 190.488 542.558L191.316 542.844C192.178 543.137 193.143 543.453 194.206 543.787C198.261 545.06 202.902 546.334 208.054 547.524C222.235 550.798 237.5 552.815 253.293 552.955C273.509 553.134 293.153 550.202 311.674 543.542C315.165 542.287 318.603 540.902 321.988 539.385L323.294 538.791L323.573 538.463C323.883 538.09 324.23 537.648 324.603 537.141C325.675 535.687 326.749 534.004 327.751 532.113C333.021 522.172 334.26 511.012 328.979 499.337C328.809 498.96 328.976 498.516 329.353 498.345C329.731 498.174 330.175 498.342 330.346 498.719C335.838 510.862 334.547 522.495 329.076 532.816C328.038 534.775 326.925 536.52 325.811 538.031L325.355 538.636C325.208 538.827 325.065 539.007 324.928 539.176L324.547 539.636C324.439 539.763 324.356 539.856 324.302 539.915C324.235 539.988 324.154 540.048 324.064 540.089C320.174 541.884 316.212 543.504 312.182 544.953C293.483 551.677 273.664 554.635 253.28 554.455C237.37 554.314 221.998 552.283 207.716 548.985C202.525 547.787 197.847 546.503 193.757 545.218L192.715 544.886C191.874 544.615 191.103 544.358 190.404 544.116L189.465 543.787L188.796 543.542C188.732 543.518 188.674 543.495 188.613 543.47C173.381 536.016 166.004 524.511 165.115 510.116C164.517 500.434 166.871 490.092 171.158 479.827C172.497 476.62 173.931 473.657 175.366 471.007L175.788 470.236C175.995 469.865 176.194 469.512 176.385 469.181L176.864 468.364L177.196 467.816L182.61 415.043L182.437 414.156C182.399 413.956 182.359 413.745 182.318 413.524C182.083 412.258 181.848 410.905 181.628 409.521C181.413 408.161 181.224 406.843 181.069 405.591C180.581 401.643 180.463 398.692 180.849 397.035Z" fill="#A3B5D6"/>
<path d="M294.31 357.484C294.569 357.161 295.042 357.11 295.364 357.37C295.687 357.63 295.738 358.102 295.478 358.424C289.878 365.381 281.827 377.312 271.972 393.004L269.703 396.632C269.193 397.45 268.68 398.276 268.164 399.109C262.574 408.132 256.79 417.714 251.067 427.371L248.431 431.832C246.484 435.136 244.667 438.24 243.009 441.088L239.756 446.705C239.439 447.257 238.622 447.188 238.402 446.59C235.074 437.545 232.332 425.332 230.112 410.727C228.467 399.904 227.195 388.356 226.247 376.767L226.073 374.594C225.814 371.278 225.596 368.145 225.415 365.24L225.263 362.688C225.222 361.97 225.185 361.297 225.152 360.673L225.03 358.167C225.013 357.753 225.335 357.403 225.749 357.386C226.163 357.369 226.512 357.691 226.529 358.105L226.583 359.278C226.617 359.963 226.656 360.726 226.702 361.563L226.761 362.603C226.965 366.185 227.232 370.177 227.569 374.477C228.53 386.76 229.853 399.042 231.595 410.502L231.9 412.469C233.9 425.16 236.309 435.939 239.16 444.243L239.266 444.55L240.824 441.862C242.278 439.358 243.869 436.632 245.574 433.73L247.139 431.07C253.279 420.65 259.538 410.229 265.594 400.413L266.889 398.319C267.664 397.067 268.432 395.833 269.192 394.616L271.652 390.695C281.105 375.7 288.844 364.273 294.31 357.484Z" fill="#A3B5D6"/>
<path d="M219.83 477.608C232.256 475.726 248.213 476.126 267.164 480.39C267.568 480.48 267.822 480.882 267.731 481.286C267.64 481.69 267.239 481.944 266.835 481.853C248.071 477.631 232.301 477.237 220.054 479.091C218.754 479.288 217.607 479.497 216.619 479.707L216.255 479.786C215.977 479.848 215.727 479.906 215.507 479.96L214.989 480.094C214.591 480.209 214.175 479.979 214.061 479.581C213.946 479.183 214.176 478.768 214.574 478.653L214.927 478.559L215.389 478.445C215.557 478.406 215.737 478.364 215.931 478.321C217.031 478.078 218.333 477.834 219.83 477.608Z" fill="#A3B5D6"/>
<path d="M225.305 468.249L228.688 468.496L231.862 468.718C232.934 468.791 234.018 468.864 235.106 468.935L238.607 469.157L242.31 469.375C249.181 469.761 254.08 469.921 256.136 469.78C256.549 469.752 256.907 470.064 256.935 470.477C256.964 470.89 256.652 471.248 256.238 471.277L255.914 471.295C253.509 471.413 248.36 471.227 241.229 470.816L238.515 470.654C237.899 470.616 237.275 470.577 236.643 470.537C234.463 470.398 232.279 470.252 230.159 470.104L225.191 469.745C224.778 469.713 224.469 469.353 224.5 468.94C224.529 468.561 224.834 468.27 225.203 468.248L225.305 468.249Z" fill="#A3B5D6"/>
<path fill-rule="evenodd" clip-rule="evenodd" d="M331.188 508.569C349.03 506.72 361.95 490.692 359.968 472.865L352.086 401.925C350.125 384.285 334.3 371.529 316.645 373.358H316.644C298.803 375.207 285.883 391.235 287.865 409.062L295.747 480.002C297.708 497.642 313.533 510.399 331.188 508.569Z" fill="#E4EBF7"/>
<path fill-rule="evenodd" clip-rule="evenodd" d="M242.673 387.88C242.673 387.88 260.61 407.743 272.732 404.209C283.709 401.008 280.482 386.487 280.482 386.487C280.482 386.487 283.172 374.472 273.518 365.986C262.551 356.347 263.349 342.099 259.017 343.278C253.37 344.815 258.471 360.726 257.829 363.241C255.705 371.562 232.676 346.45 231.743 346.156C229.512 345.453 228.861 348.249 228.284 348.654C227.048 349.522 226.217 350.863 226.235 353.379C226.245 354.778 227.625 356.193 227.571 357.927C227.567 358.068 226.398 364.359 230.046 368.85C234.261 374.038 228.12 374.142 242.673 387.88Z" fill="#B0927B"/>
<path d="M228.658 349.182C228.932 349.036 229.273 349.141 229.419 349.415C231.148 352.669 233.446 355.803 236.174 358.785C238.419 361.238 240.826 363.449 243.232 365.382C243.934 365.945 244.593 366.451 245.198 366.895L245.846 367.362C246.113 367.552 246.309 367.686 246.426 367.762C246.685 367.933 246.757 368.282 246.586 368.542C246.415 368.801 246.067 368.873 245.807 368.702L245.565 368.538C245.372 368.406 245.149 368.249 244.898 368.068C244.182 367.552 243.385 366.948 242.528 366.259C240.079 364.292 237.631 362.043 235.344 359.544C232.555 356.497 230.202 353.287 228.425 349.943C228.279 349.668 228.384 349.328 228.658 349.182Z" fill="#7C5B4D"/>
<path d="M227.872 357.586C228.149 357.444 228.488 357.552 228.63 357.829C228.772 358.105 228.663 358.444 228.387 358.586C227.487 359.049 227.411 360.573 228.114 362.882C228.338 363.618 228.631 364.4 228.977 365.208C229.199 365.727 229.434 366.234 229.671 366.718L229.91 367.195C230.1 367.568 230.247 367.841 230.292 367.93C233.51 372.291 236.601 375.817 239.453 378.577C240.448 379.54 241.342 380.338 242.12 380.98L242.5 381.288L242.827 381.544C242.945 381.634 243.024 381.692 243.061 381.718C243.315 381.897 243.375 382.248 243.196 382.502C243.017 382.756 242.666 382.816 242.412 382.637L242.145 382.438C241.933 382.276 241.685 382.08 241.404 381.847C240.603 381.187 239.688 380.369 238.671 379.385C235.774 376.582 232.642 373.01 229.35 368.54L229.2 368.267C229.119 368.116 229.02 367.927 228.907 367.706C228.579 367.061 228.25 366.367 227.943 365.651C227.582 364.808 227.274 363.988 227.037 363.21C226.187 360.417 226.288 358.401 227.872 357.586Z" fill="#7C5B4D"/>
<path d="M255.805 351.074C255.555 339.672 261.971 339.082 264.606 350.296L264.684 350.639C265.832 355.781 267.96 359.413 271.505 363.198L271.864 363.577C272.58 364.324 275.201 366.899 275.755 367.476C276.319 368.062 276.797 368.593 277.224 369.113C278.464 370.623 279.438 372.699 280.187 375.2C280.742 377.052 281.143 379.032 281.415 381.01C281.491 381.564 281.553 382.086 281.602 382.569L281.663 383.238C281.679 383.425 281.688 383.567 281.694 383.658C281.711 383.968 281.474 384.234 281.164 384.252C280.854 384.269 280.588 384.032 280.57 383.722L280.53 383.185L280.515 383.025C280.464 382.464 280.394 381.838 280.301 381.164C280.036 379.238 279.646 377.314 279.109 375.522C278.399 373.152 277.485 371.204 276.355 369.827C276.029 369.431 275.671 369.025 275.261 368.589L274.768 368.076C273.981 367.278 271.722 365.054 271.052 364.355C267.285 360.426 264.974 356.67 263.71 351.415L263.587 350.885C261.289 340.599 256.708 340.938 256.929 351.05C256.972 352.988 257.208 354.77 257.641 356.85L257.812 357.638C257.939 358.194 258.369 360.07 258.465 360.571C258.663 361.601 258.714 362.312 258.589 362.896C258.271 364.389 256.927 364.804 254.285 364.39C252.066 364.042 249.022 362.253 245.311 359.326C244.13 358.395 242.901 357.363 241.634 356.245C239.625 354.472 237.621 352.574 235.715 350.675L234.76 349.716L233.353 348.265C233.298 348.206 233.249 348.154 233.206 348.108L233.066 347.946C233.044 347.922 233.02 347.896 232.994 347.868C232.819 347.68 232.624 347.492 232.416 347.318C231.877 346.868 231.354 346.598 230.923 346.58C230.239 346.553 229.655 347.195 229.25 348.935C229.195 349.174 228.991 349.349 228.747 349.368C227.009 349.507 226.523 350.921 227.025 353.472C227.179 354.255 227.422 355.095 227.731 355.957C227.878 356.369 228.034 356.768 228.191 357.144L228.421 357.677L228.734 358.346L228.775 358.428C228.903 358.678 229.065 358.975 229.266 359.317C229.846 360.3 230.614 361.439 231.595 362.718C234.412 366.387 238.369 370.429 243.659 374.721C243.901 374.917 243.938 375.271 243.742 375.512C243.546 375.754 243.192 375.79 242.951 375.595C237.593 371.248 233.574 367.142 230.703 363.403C229.694 362.088 228.9 360.911 228.297 359.888C228.084 359.526 227.911 359.21 227.773 358.939L227.541 358.459C227.482 358.333 227.406 358.167 227.318 357.964C227.097 357.46 226.877 356.911 226.671 356.336C226.345 355.425 226.087 354.532 225.921 353.689C225.356 350.818 225.928 348.796 228.072 348.331L228.252 348.296L228.281 348.191C228.798 346.393 229.666 345.484 230.817 345.455L230.968 345.456C231.701 345.486 232.426 345.86 233.137 346.455C233.302 346.592 233.458 346.736 233.604 346.881L233.817 347.1C233.941 347.234 234.032 347.339 234.055 347.371L234.713 348.058L235.562 348.927C235.862 349.231 236.178 349.549 236.509 349.878C238.4 351.762 240.388 353.645 242.379 355.401C243.63 356.506 244.844 357.526 246.007 358.443C249.573 361.255 252.491 362.97 254.459 363.279C256.585 363.611 257.336 363.38 257.489 362.662C257.566 362.3 257.539 361.781 257.404 361.02L257.321 360.589C257.157 359.81 256.698 357.818 256.678 357.725C256.144 355.301 255.854 353.29 255.805 351.074Z" fill="#7C5B4D"/>
<path fill-rule="evenodd" clip-rule="evenodd" d="M276.586 386.526L253.302 403.446C247.231 407.858 245.712 416.265 249.853 422.523L299.283 497.199C309.772 511.634 329.977 514.833 344.412 504.342C358.848 493.853 362.046 473.648 351.555 459.213L295.794 389.138C291.123 383.267 282.655 382.115 276.586 386.526Z" fill="#E4EBF7"/>
<path d="M276.857 385.91C283.196 381.388 291.935 382.572 296.848 388.561L297.069 388.837L352.219 459.394C352.474 459.72 352.417 460.191 352.09 460.446C351.794 460.678 351.377 460.652 351.112 460.4L351.037 460.317L295.887 389.76C291.582 384.254 283.763 383.044 278.005 386.939L277.728 387.131L254.297 403.848C248.606 407.908 247.056 415.672 250.699 421.594L250.877 421.875L299.6 496.903L299.7 497.02C299.763 497.092 299.846 497.184 299.947 497.294L300.055 497.411C300.438 497.826 300.889 498.289 301.405 498.789C302.88 500.219 304.572 501.65 306.451 502.985C314.188 508.481 322.535 510.697 330.977 507.796C331.369 507.661 331.796 507.869 331.93 508.261C332.065 508.653 331.856 509.08 331.465 509.214C322.492 512.297 313.676 509.957 305.582 504.207C303.637 502.826 301.888 501.346 300.361 499.866C299.932 499.451 299.546 499.058 299.202 498.696L298.953 498.43C298.759 498.219 298.612 498.055 298.487 497.905L298.397 497.795L249.619 422.692C245.376 416.16 246.943 407.478 253.145 402.833L253.426 402.627L276.857 385.91Z" fill="#A3B5D6"/>
<path fill-rule="evenodd" clip-rule="evenodd" d="M290.92 511.274C290.92 511.274 262.783 506.891 258.961 494.067C255.499 482.454 269.554 470.091 269.554 470.091C269.554 470.091 281.278 468.972 294.961 468.351C303.928 467.945 320.989 467.93 322.43 472.464C324.31 478.376 306.446 478.94 304.865 483.167C301.66 491.732 329.858 493.802 334.25 496.592C342.835 502.044 324.631 516.788 290.92 511.274Z" fill="#B0927B"/>
<path fill-rule="evenodd" clip-rule="evenodd" d="M270.252 498.346L271.896 462.58C272.151 457.045 268.002 452.292 262.483 451.797L169.794 443.464C151.969 442.645 136.854 456.432 136.035 474.256C135.216 492.081 149.002 507.195 166.827 508.014L259.89 508.221C265.431 508.233 269.998 503.88 270.252 498.346Z" fill="#E4EBF7"/>
<path d="M165.455 443.263L263.151 451.951C268.963 452.555 273.294 457.557 273.097 463.364L273.083 463.655L270.939 499.394C270.59 505.228 265.782 509.774 259.971 509.829L259.68 509.828L166.628 508.322C166.213 508.316 165.883 507.974 165.89 507.56C165.896 507.181 166.183 506.872 166.55 506.828L166.652 506.823L259.704 508.329C264.751 508.411 268.981 504.575 269.422 499.578L269.442 499.305L271.586 463.566C271.888 458.528 268.24 454.134 263.279 453.476L263.007 453.444L165.322 444.757C164.91 444.72 164.605 444.356 164.642 443.944C164.675 443.565 164.984 443.278 165.353 443.261L165.455 443.263Z" fill="#A3B5D6"/>
</g>
<defs>
<clipPath id="clip0">
<rect width="291" height="582" fill="white"/>
</clipPath>
</defs>
</svg>
