<svg width="28" height="28" viewBox="0 0 28 28" fill="none" xmlns="http://www.w3.org/2000/svg">
<path d="M11.0833 0C17.2045 0 22.1667 4.96218 22.1667 11.0833C22.1667 13.5123 21.3853 15.7587 20.0603 17.585L27.4874 25.0126C28.1709 25.696 28.1709 26.804 27.4874 27.4874C26.8467 28.1281 25.8328 28.1682 25.1455 27.6076L25.0126 27.4874L17.585 20.0603C15.7587 21.3853 13.5123 22.1667 11.0833 22.1667C4.96218 22.1667 0 17.2045 0 11.0833C0 4.96218 4.96218 0 11.0833 0ZM11.0833 3.5C6.89517 3.5 3.5 6.89517 3.5 11.0833C3.5 15.2715 6.89517 18.6667 11.0833 18.6667C15.2715 18.6667 18.6667 15.2715 18.6667 11.0833C18.6667 6.89517 15.2715 3.5 11.0833 3.5Z" fill="white"/>
</svg>
