<svg xmlns="http://www.w3.org/2000/svg" viewBox="0 0 89 32" width="89" height="32">
	<style>
		tspan { white-space:pre }
		.shp0 { fill: #939393 } 
	</style>
	<g id="8">
		<g id="1">
			<g id="2">
				<path id="2 копия" fill-rule="evenodd" class="shp0" d="M87.19 26.21C87.54 28.11 86.28 29.94 84.37 30.29C82.46 30.64 80.63 29.38 80.28 27.48C80.18 26.96 80.2 26.44 80.33 25.96L73.85 24.65L74.25 22.69L81.48 24.16C81.93 23.79 82.48 23.52 83.1 23.41C85.01 23.06 86.84 24.31 87.19 26.21ZM83.46 25.37C82.64 25.52 82.1 26.3 82.25 27.12C82.4 27.93 83.19 28.47 84.01 28.32C84.83 28.17 85.37 27.39 85.22 26.57C85.07 25.76 84.28 25.22 83.46 25.37ZM5.87 9.1C3.96 9.45 2.13 8.19 1.78 6.29C1.42 4.39 2.69 2.57 4.6 2.22C6.38 1.89 8.09 2.96 8.6 4.64L15.08 5.96L14.68 7.92L8.6 6.68C8.23 7.89 7.21 8.86 5.87 9.1ZM4.96 4.19C4.14 4.34 3.6 5.12 3.75 5.93C3.9 6.75 4.69 7.29 5.51 7.14C6.33 6.99 6.87 6.2 6.72 5.39C6.57 4.58 5.78 4.04 4.96 4.19ZM71.6 22.9L64.05 21.36L64.45 19.4L72 20.94L71.6 22.9ZM60.81 19.79L53.26 18.26L53.66 16.3L61.21 17.83L60.81 19.79ZM50.01 16.69L42.46 15.15L42.87 13.19L50.42 14.73L50.01 16.69ZM38.24 13.77L30.69 12.23L31.09 10.27L38.64 11.81L38.24 13.77ZM26.46 10.84L18.91 9.31L19.31 7.35L26.86 8.88L26.46 10.84Z" />
			</g>
		</g>
	</g>
</svg>