<svg xmlns="http://www.w3.org/2000/svg" viewBox="0 0 87 37" width="87" height="37">
	<style>
		tspan { white-space:pre }
		.shp0 { fill: #939393 } 
	</style>
	<g id="8">
		<g id="1">
			<g id="4">
				<path id="4 копия" fill-rule="evenodd" class="shp0" d="M84.39 2.43C85.76 3.8 85.75 6.02 84.38 7.38C83 8.74 80.77 8.73 79.4 7.36C79.03 6.99 78.76 6.55 78.59 6.08L72.49 8.63L71.71 6.79L78.51 3.94C78.67 3.38 78.97 2.86 79.42 2.42C80.8 1.05 83.02 1.06 84.39 2.43ZM80.84 3.83C80.24 4.42 80.24 5.37 80.83 5.95C81.41 6.54 82.37 6.55 82.96 5.96C83.55 5.38 83.55 4.43 82.97 3.84C82.38 3.25 81.43 3.25 80.84 3.83ZM7.56 33.98C6.18 35.34 3.95 35.33 2.59 33.96C1.22 32.59 1.22 30.37 2.6 29.01C3.89 27.74 5.9 27.66 7.28 28.76L13.38 26.21L14.16 28.05L8.44 30.45C8.82 31.66 8.52 33.02 7.56 33.98ZM4.02 30.43C3.43 31.01 3.42 31.96 4.01 32.55C4.6 33.14 5.55 33.14 6.14 32.56C6.73 31.97 6.74 31.03 6.15 30.44C5.56 29.85 4.61 29.85 4.02 30.43ZM69.64 8.45L62.53 11.43L61.76 9.58L68.86 6.61L69.64 8.45ZM58.97 11.95L51.87 14.92L51.09 13.08L58.19 10.11L58.97 11.95ZM48.3 15.45L41.2 18.42L40.42 16.58L47.52 13.61L48.3 15.45ZM36.92 19.65L29.82 22.62L29.04 20.78L36.14 17.81L36.92 19.65ZM25.54 23.85L18.44 26.83L17.66 24.98L24.76 22.01L25.54 23.85Z" />
			</g>
		</g>
	</g>
</svg>