<svg xmlns="http://www.w3.org/2000/svg" viewBox="0 0 91 26" width="91" height="26">
	<style>
		tspan { white-space:pre }
		.shp0 { fill: #939393 } 
	</style>
	<g id="8">
		<g id="1">
			<g id="3">
				<path id="3 копия" fill-rule="evenodd" class="shp0" d="M88.3 3.73C89.45 5.29 89.11 7.48 87.54 8.62C85.97 9.76 83.77 9.42 82.62 7.86C82.31 7.44 82.11 6.96 82.01 6.47L75.6 8.09L75.1 6.15L82.26 4.35C82.5 3.82 82.88 3.34 83.39 2.97C84.95 1.83 87.15 2.17 88.3 3.73ZM84.57 4.59C83.9 5.08 83.75 6.01 84.25 6.68C84.74 7.35 85.68 7.5 86.35 7.01C87.02 6.52 87.17 5.58 86.68 4.91C86.19 4.24 85.24 4.1 84.57 4.59ZM7.58 23.47C6.02 24.61 3.82 24.27 2.67 22.71C1.52 21.16 1.86 18.97 3.43 17.83C4.89 16.76 6.9 16.98 8.09 18.28L14.51 16.66L15 18.6L8.98 20.12C9.18 21.36 8.68 22.67 7.58 23.47ZM4.62 19.44C3.95 19.93 3.8 20.87 4.29 21.53C4.78 22.2 5.73 22.35 6.4 21.86C7.07 21.37 7.21 20.43 6.72 19.76C6.23 19.1 5.29 18.95 4.62 19.44ZM72.8 7.49L65.33 9.37L64.84 7.43L72.31 5.55L72.8 7.49ZM61.73 9.36L54.26 11.24L53.77 9.3L61.24 7.42L61.73 9.36ZM50.66 11.22L43.18 13.11L42.69 11.17L50.16 9.29L50.66 11.22ZM38.77 13.68L31.3 15.56L30.81 13.63L38.28 11.74L38.77 13.68ZM26.88 16.14L19.41 18.02L18.92 16.09L26.39 14.2L26.88 16.14Z" />
			</g>
		</g>
	</g>
</svg>