<svg xmlns="http://www.w3.org/2000/svg" viewBox="0 0 90 26" width="90" height="26">
	<style>
		tspan { white-space:pre }
		.shp0 { fill: #5ea5bd } 
	</style>
	<g id="8">
		<g id="2">
			<g id="3">
				<path id="3" fill-rule="evenodd" class="shp0" d="M7.28 2.75C7.78 3.11 8.16 3.59 8.4 4.12L15.52 5.92L15.03 7.86L8.64 6.25C8.55 6.73 8.35 7.21 8.03 7.64C6.89 9.2 4.7 9.54 3.14 8.39C1.58 7.25 1.24 5.06 2.38 3.5C3.53 1.94 5.72 1.6 7.28 2.75ZM4 4.68C3.51 5.35 3.65 6.29 4.32 6.78C4.99 7.27 5.93 7.12 6.42 6.46C6.91 5.79 6.76 4.85 6.1 4.36C5.43 3.87 4.49 4.02 4 4.68ZM86.86 17.6C88.42 18.75 88.76 20.94 87.62 22.5C86.47 24.06 84.28 24.4 82.72 23.25C81.63 22.46 81.14 21.15 81.33 19.9L75.34 18.38L75.83 16.44L82.22 18.06C83.41 16.76 85.41 16.54 86.86 17.6ZM83.58 19.54C83.09 20.21 83.24 21.15 83.9 21.64C84.57 22.13 85.51 21.98 86 21.32C86.49 20.65 86.34 19.71 85.68 19.22C85.01 18.73 84.07 18.88 83.58 19.54ZM18.3 5.32L25.73 7.2L25.24 9.14L17.81 7.26L18.3 5.32ZM29.32 7.19L36.76 9.07L36.27 11.01L28.83 9.13L29.32 7.19ZM40.34 9.06L47.78 10.94L47.29 12.88L39.85 11L40.34 9.06ZM52.17 11.52L59.61 13.4L59.12 15.34L51.68 13.46L52.17 11.52ZM64 13.98L71.44 15.86L70.95 17.8L63.51 15.92L64 13.98Z" />
			</g>
		</g>
	</g>
</svg>