<svg xmlns="http://www.w3.org/2000/svg" viewBox="0 0 88 32" width="88" height="32">
	<style>
		tspan { white-space:pre }
		.shp0 { fill: #5ea5bd } 
	</style>
	<g id="8">
		<g id="2">
			<g id="2">
				<path id="2" fill-rule="evenodd" class="shp0" d="M5.57 23.16C6.18 23.27 6.73 23.54 7.17 23.91L14.37 22.44L14.77 24.4L8.32 25.72C8.45 26.2 8.47 26.71 8.38 27.23C8.03 29.13 6.2 30.39 4.3 30.04C2.4 29.69 1.14 27.87 1.49 25.96C1.84 24.06 3.67 22.81 5.57 23.16ZM3.46 26.33C3.31 27.14 3.85 27.92 4.66 28.07C5.48 28.22 6.26 27.68 6.41 26.87C6.56 26.06 6.02 25.27 5.21 25.12C4.39 24.97 3.61 25.51 3.46 26.33ZM83.7 1.96C85.6 2.31 86.86 4.13 86.51 6.04C86.16 7.94 84.33 9.19 82.43 8.84C81.1 8.6 80.09 7.63 79.72 6.42L73.67 7.66L73.27 5.7L79.72 4.38C80.23 2.7 81.93 1.63 83.7 1.96ZM81.59 5.13C81.44 5.94 81.98 6.73 82.79 6.88C83.61 7.03 84.39 6.49 84.54 5.67C84.69 4.86 84.15 4.08 83.34 3.93C82.52 3.78 81.74 4.32 81.59 5.13ZM16.61 20.69L24.13 19.15L24.53 21.11L17.01 22.65L16.61 20.69ZM27.35 17.58L34.87 16.05L35.27 18L27.75 19.54L27.35 17.58ZM38.09 14.48L45.61 12.94L46.01 14.9L38.5 16.43L38.09 14.48ZM49.82 11.55L57.33 10.01L57.73 11.97L50.22 13.51L49.82 11.55ZM61.54 8.63L69.06 7.09L69.46 9.05L61.94 10.59L61.54 8.63Z" />
			</g>
		</g>
	</g>
</svg>