<svg width="52" height="58" viewBox="0 0 52 58" fill="none" xmlns="http://www.w3.org/2000/svg">
<path d="M26 0C11.9458 0 0.511719 11.434 0.511719 25.4883C0.511719 27.0458 0.511719 39.0943 0.511719 39.3086C0.511719 42.1194 2.79853 44.4062 5.60938 44.4062H7.60086C8.3023 46.3839 10.191 47.8047 12.4062 47.8047C15.2171 47.8047 17.5039 45.5179 17.5039 42.707V28.8867C17.5039 26.0759 15.2171 23.7891 12.4062 23.7891C10.191 23.7891 8.3023 25.2098 7.60086 27.1875H5.60938C5.01363 27.1875 4.44201 27.2912 3.91016 27.4798V25.4883C3.91016 13.3079 13.8197 3.39844 26 3.39844C38.1803 3.39844 48.0898 13.3079 48.0898 25.4883V27.4798C47.558 27.2912 46.9864 27.1875 46.3906 27.1875H44.3991C43.6977 25.2098 41.809 23.7891 39.5938 23.7891C36.7829 23.7891 34.4961 26.0759 34.4961 28.8867V42.707C34.4961 45.5179 36.7829 47.8047 39.5938 47.8047C40.1082 47.8047 40.6048 47.7274 41.0733 47.585C40.4377 49.6764 38.4917 51.2031 36.1953 51.2031H30.8054C30.104 49.2255 28.2152 47.8047 26 47.8047C23.1892 47.8047 20.9023 50.0915 20.9023 52.9023C20.9023 55.7132 23.1892 58 26 58C28.2152 58 30.104 56.5792 30.8054 54.6016H36.1953C40.8801 54.6016 44.6914 50.7902 44.6914 46.1055V44.4062H46.3906C49.2015 44.4062 51.4883 42.1194 51.4883 39.3086C51.4883 39.0974 51.4883 27.0445 51.4883 25.4883C51.4883 11.434 40.0542 0 26 0ZM10.707 28.8867C10.707 27.9498 11.4693 27.1875 12.4062 27.1875C13.3432 27.1875 14.1055 27.9498 14.1055 28.8867V42.707C14.1055 43.644 13.3432 44.4062 12.4062 44.4062C11.4693 44.4062 10.707 43.644 10.707 42.707V28.8867ZM5.60938 30.5859H7.30859V41.0078H5.60938C4.67243 41.0078 3.91016 40.2455 3.91016 39.3086V32.2852C3.91016 31.3482 4.67243 30.5859 5.60938 30.5859ZM26 54.6016C25.0631 54.6016 24.3008 53.8393 24.3008 52.9023C24.3008 51.9654 25.0631 51.2031 26 51.2031C26.9369 51.2031 27.6992 51.9654 27.6992 52.9023C27.6992 53.8393 26.9369 54.6016 26 54.6016ZM41.293 42.707C41.293 43.644 40.5307 44.4062 39.5938 44.4062C38.6568 44.4062 37.8945 43.644 37.8945 42.707V28.8867C37.8945 27.9498 38.6568 27.1875 39.5938 27.1875C40.5307 27.1875 41.293 27.9498 41.293 28.8867V42.707ZM48.0898 39.3086C48.0898 40.2455 47.3276 41.0078 46.3906 41.0078H44.6914V30.5859H46.3906C47.3276 30.5859 48.0898 31.3482 48.0898 32.2852V39.3086Z" fill="#115E96"/>
</svg>
