<svg width="151" height="183" viewBox="0 0 151 183" fill="none" xmlns="http://www.w3.org/2000/svg">
<g filter="url(#filter0_d)">
<rect width="97" height="97" rx="10" fill="#0F53FA"/>
</g>
<path fill-rule="evenodd" clip-rule="evenodd" d="M33.7561 35.3585H28.754C28.1233 35.3585 27.6074 34.8498 27.6074 34.2282V29.2377C27.6074 28.6161 28.1233 28.1074 28.754 28.1074H33.7561C34.3867 28.1074 34.9027 28.6161 34.9027 29.2377V34.2282C34.9027 34.8498 34.3867 35.3585 33.7561 35.3585Z" fill="#E4EBF7"/>
<path fill-rule="evenodd" clip-rule="evenodd" d="M63.2227 68.4874C62.5921 68.4874 62.0762 67.9744 62.0762 67.3474V62.3139C62.0762 61.6869 62.5921 61.1738 63.2227 61.1738H68.2249C68.8555 61.1738 69.3715 61.6869 69.3715 62.3139V67.3474C69.3715 67.9744 68.8555 68.4874 68.2249 68.4874H63.2227Z" fill="#ADC6FF"/>
<path d="M65.3543 27.7139H42.7498C41.1351 27.7139 39.8262 29.0228 39.8262 30.6375V53.3133C39.8262 54.9279 41.1351 56.2368 42.7498 56.2368H65.3543C66.9689 56.2368 68.2779 54.9279 68.2779 53.3133V30.6375C68.2779 29.0228 66.9689 27.7139 65.3543 27.7139Z" fill="#597EF7"/>
<path fill-rule="evenodd" clip-rule="evenodd" d="M47.1807 37.6932C47.0463 37.6932 46.9375 37.5216 46.9375 37.3097V35.7757C46.9375 35.5641 47.0463 35.3926 47.1807 35.3926H53.9896C54.1241 35.3926 54.2328 35.5641 54.2328 35.7757V37.3097C54.2328 37.5216 54.1241 37.6932 53.9896 37.6932H47.1807Z" fill="white"/>
<path fill-rule="evenodd" clip-rule="evenodd" d="M64.5677 43.1785H47.5455C47.2095 43.1785 46.9375 43.007 46.9375 42.795V41.2611C46.9375 41.0495 47.2095 40.8779 47.5455 40.8779H64.5677C64.9038 40.8779 65.1758 41.0495 65.1758 41.2611V42.795C65.1758 43.007 64.9038 43.1785 64.5677 43.1785Z" fill="white"/>
<path fill-rule="evenodd" clip-rule="evenodd" d="M47.4239 48.6639C47.1551 48.6639 46.9375 48.4923 46.9375 48.2804V46.7464C46.9375 46.5348 47.1551 46.3633 47.4239 46.3633H61.0417C61.3105 46.3633 61.5281 46.5348 61.5281 46.7464V48.2804C61.5281 48.4923 61.3105 48.6639 61.0417 48.6639H47.4239Z" fill="white"/>
<path d="M53.1336 40.6953H30.5291C28.9144 40.6953 27.6055 42.0042 27.6055 43.6189V66.2947C27.6055 67.9094 28.9144 69.2183 30.5291 69.2183H53.1336C54.7482 69.2183 56.0572 67.9094 56.0572 66.2947V43.6189C56.0572 42.0042 54.7482 40.6953 53.1336 40.6953Z" fill="#ADC6FF"/>
<path d="M30.5291 40.6953H53.1336C54.7482 40.6953 56.0572 42.0042 56.0572 43.6189V47.4152H27.6055V43.6189C27.6055 42.0042 28.9144 40.6953 30.5291 40.6953Z" fill="#253368"/>
<path d="M51.1316 50.3857H32.3503C31.7448 50.3857 31.2539 50.8766 31.2539 51.4821V53.8604C31.2539 54.4659 31.7448 54.9567 32.3503 54.9567H51.1316C51.7371 54.9567 52.2279 54.4659 52.2279 53.8604V51.4821C52.2279 50.8766 51.7371 50.3857 51.1316 50.3857Z" fill="white"/>
<path d="M51.1316 57.959H32.3503C31.7448 57.959 31.2539 58.4498 31.2539 59.0553V64.9076C31.2539 65.5131 31.7448 66.0039 32.3503 66.0039H51.1316C51.7371 66.0039 52.2279 65.5131 52.2279 64.9076V59.0553C52.2279 58.4498 51.7371 57.959 51.1316 57.959Z" fill="white"/>
<defs>
<filter id="filter0_d" x="-54" y="-22" width="205" height="205" filterUnits="userSpaceOnUse" color-interpolation-filters="sRGB">
<feFlood flood-opacity="0" result="BackgroundImageFix"/>
<feColorMatrix in="SourceAlpha" type="matrix" values="0 0 0 0 0 0 0 0 0 0 0 0 0 0 0 0 0 0 127 0"/>
<feOffset dy="32"/>
<feGaussianBlur stdDeviation="27"/>
<feColorMatrix type="matrix" values="0 0 0 0 0.144886 0 0 0 0 0.539681 0 0 0 0 1 0 0 0 0.224553 0"/>
<feBlend mode="normal" in2="BackgroundImageFix" result="effect1_dropShadow"/>
<feBlend mode="normal" in="SourceGraphic" in2="effect1_dropShadow" result="shape"/>
</filter>
</defs>
</svg>
