<svg width="151" height="183" viewBox="0 0 151 183" fill="none" xmlns="http://www.w3.org/2000/svg">
<g filter="url(#filter0_d)">
<rect width="97" height="97" rx="10" fill="#0F53FA"/>
</g>
<path fill-rule="evenodd" clip-rule="evenodd" d="M72.3217 48.4871C72.3217 61.6397 61.6626 72.3023 48.5144 72.3023C35.3661 72.3023 24.707 61.6397 24.707 48.4871C24.707 35.3341 35.3661 24.6719 48.5144 24.6719C61.6626 24.6719 72.3217 35.3341 72.3217 48.4871Z" fill="#ADC6FF"/>
<mask id="mask0" mask-type="alpha" maskUnits="userSpaceOnUse" x="24" y="24" width="49" height="49">
<path fill-rule="evenodd" clip-rule="evenodd" d="M72.3217 48.4871C72.3217 61.6397 61.6626 72.3023 48.5144 72.3023C35.3661 72.3023 24.707 61.6397 24.707 48.4871C24.707 35.3341 35.3661 24.6719 48.5144 24.6719C61.6626 24.6719 72.3217 35.3341 72.3217 48.4871Z" fill="#ADC6FF"/>
</mask>
<g mask="url(#mask0)">
<path fill-rule="evenodd" clip-rule="evenodd" d="M45.9755 61.2549L50.9278 61.2944C50.9278 61.2944 56.6226 66.7361 48.1722 74.5037C48.1722 74.5037 39.8755 66.2077 45.9755 61.2549Z" fill="#FF7946"/>
<path fill-rule="evenodd" clip-rule="evenodd" d="M52.5193 62.3768H43.8136C43.4318 62.3768 43.1524 62.0167 43.2471 61.6467L44.3851 57.2012H51.9474L53.0858 61.6467C53.1805 62.0167 52.9011 62.3768 52.5193 62.3768Z" fill="#253368"/>
<path fill-rule="evenodd" clip-rule="evenodd" d="M38.0306 56.8121L48.1661 41.0605L58.3023 56.8121C58.727 57.4727 58.2532 58.3416 57.4678 58.3416H38.8651C38.0797 58.3416 37.6056 57.4727 38.0306 56.8121Z" fill="#597EF7"/>
<path fill-rule="evenodd" clip-rule="evenodd" d="M48.1397 28.7056C48.1381 28.7053 48.1366 28.7041 48.1366 28.7041V28.7072C47.9411 28.8049 42.3984 33.0247 42.3984 35.8755C42.3984 41.9277 42.4494 58.3418 42.4494 58.3418H53.9319C53.9319 58.3418 53.8809 41.9277 53.8809 35.8755C53.8809 33.0247 48.1408 28.7053 48.1397 28.7056Z" fill="white"/>
<path fill-rule="evenodd" clip-rule="evenodd" d="M49.9593 36.7241C50.9505 37.7157 50.9505 39.3231 49.9593 40.3146C48.9684 41.3058 47.3616 41.3058 46.3704 40.3146C45.3791 39.3231 45.3791 37.7157 46.3704 36.7241C47.3616 35.7326 48.9684 35.7326 49.9593 36.7241Z" fill="#253368"/>
<path fill-rule="evenodd" clip-rule="evenodd" d="M46.1169 73.163C46.1169 76.474 43.4338 79.158 40.1239 79.158C36.814 79.158 34.1309 76.474 34.1309 73.163C34.1309 69.852 36.814 67.168 40.1239 67.168C43.4338 67.168 46.1169 69.852 46.1169 73.163Z" fill="#E4EBF7"/>
<path fill-rule="evenodd" clip-rule="evenodd" d="M54.322 74.8905C54.322 78.2015 51.6389 80.8856 48.329 80.8856C45.0191 80.8856 42.3359 78.2015 42.3359 74.8905C42.3359 71.5796 45.0191 68.8955 48.329 68.8955C51.6389 68.8955 54.322 71.5796 54.322 74.8905Z" fill="#E4EBF7"/>
<path fill-rule="evenodd" clip-rule="evenodd" d="M72.382 63.9344C72.382 67.6894 69.3393 70.7331 65.5859 70.7331C61.8322 70.7331 58.7891 67.6894 58.7891 63.9344C58.7891 60.1798 61.8322 57.1357 65.5859 57.1357C69.3393 57.1357 72.382 60.1798 72.382 63.9344Z" fill="#E4EBF7"/>
<path fill-rule="evenodd" clip-rule="evenodd" d="M64.9948 45.6805C64.9948 47.169 63.7885 48.3757 62.3001 48.3757C60.8121 48.3757 59.6055 47.169 59.6055 45.6805C59.6055 44.1916 60.8121 42.9854 62.3001 42.9854C63.7885 42.9854 64.9948 44.1916 64.9948 45.6805Z" fill="white"/>
<path fill-rule="evenodd" clip-rule="evenodd" d="M33.1067 50.5298C33.1067 51.3707 32.4252 52.0529 31.5842 52.0529C30.7436 52.0529 30.0625 51.3707 30.0625 50.5298C30.0625 49.689 30.7436 49.0068 31.5842 49.0068C32.4252 49.0068 33.1067 49.689 33.1067 50.5298Z" fill="#E4EBF7"/>
<path fill-rule="evenodd" clip-rule="evenodd" d="M39.2986 66.0684C39.2986 69.8985 36.1942 73.004 32.3649 73.004C28.5361 73.004 25.4316 69.8985 25.4316 66.0684C25.4316 62.2383 28.5361 59.1328 32.3649 59.1328C36.1942 59.1328 39.2986 62.2383 39.2986 66.0684Z" fill="#E4EBF7"/>
<path fill-rule="evenodd" clip-rule="evenodd" d="M58.8292 78.1865C54.6891 78.1865 51.332 74.8288 51.332 70.6865C51.332 66.5447 54.6891 63.1865 58.8292 63.1865C62.9701 63.1865 66.3267 66.5447 66.3267 70.6865C66.3267 74.8288 62.9701 78.1865 58.8292 78.1865Z" fill="#E4EBF7"/>
</g>
<defs>
<filter id="filter0_d" x="-54" y="-22" width="205" height="205" filterUnits="userSpaceOnUse" color-interpolation-filters="sRGB">
<feFlood flood-opacity="0" result="BackgroundImageFix"/>
<feColorMatrix in="SourceAlpha" type="matrix" values="0 0 0 0 0 0 0 0 0 0 0 0 0 0 0 0 0 0 127 0"/>
<feOffset dy="32"/>
<feGaussianBlur stdDeviation="27"/>
<feColorMatrix type="matrix" values="0 0 0 0 0.144886 0 0 0 0 0.539681 0 0 0 0 1 0 0 0 0.224553 0"/>
<feBlend mode="normal" in2="BackgroundImageFix" result="effect1_dropShadow"/>
<feBlend mode="normal" in="SourceGraphic" in2="effect1_dropShadow" result="shape"/>
</filter>
</defs>
</svg>
