<svg width="151" height="183" viewBox="0 0 151 183" fill="none" xmlns="http://www.w3.org/2000/svg">
<g filter="url(#filter0_d)">
<rect width="97" height="97" rx="10" fill="#0F53FA"/>
</g>
<path d="M71.0754 36.0781H25.9453V55.5107H71.0754V36.0781Z" fill="#253368"/>
<path d="M46.7982 19.5533L25.9668 36.0767L69.8947 37.2132C69.9891 37.213 70.0832 37.2025 70.1753 37.1818C70.7265 37.0436 71.1109 36.6445 71.1047 36.0767L49.6092 19.4992C48.7548 18.9434 47.6526 18.9975 46.7982 19.5533Z" fill="#253368"/>
<path d="M26.3457 65.5186L48.4817 53.5576" stroke="white" stroke-width="5.4"/>
<path d="M70.7258 65.5726L48.5898 53.4492" stroke="white" stroke-width="5.4"/>
<path d="M65.445 33.2617H31.6809C31.4246 33.2617 31.2168 33.4695 31.2168 33.7258V56.3408C31.2168 56.5971 31.4246 56.8048 31.6809 56.8048H65.445C65.7013 56.8048 65.9091 56.5971 65.9091 56.3408V33.7258C65.9091 33.4695 65.7013 33.2617 65.445 33.2617Z" fill="white"/>
<path d="M49.7229 53.3505C48.9775 53.5994 48.1592 53.4942 47.501 53.0648L25.9121 36.0762V64.6958C25.9121 65.3296 26.5364 65.8433 27.2039 65.8433H69.8935C70.562 65.8433 71.1042 65.3296 71.1042 64.6958V36.0762L50.4882 52.929C50.2597 53.1131 50.0007 53.2557 49.7229 53.3505Z" fill="#CCD7EE"/>
<path d="M39.5254 36.1309V39.8653H43.2598C43.26 38.8749 42.8666 37.925 42.1662 37.2247C41.4659 36.5243 40.5159 36.1309 39.5254 36.1309Z" fill="#F5222D"/>
<path d="M39.4727 36.1309C38.0539 36.1312 36.7578 36.9371 36.1274 38.2108C35.4969 39.4845 35.6409 41.0062 36.4991 42.1384L39.4727 39.8731V36.1309Z" fill="#597EF7"/>
<path d="M39.4949 43.6534C41.575 43.6534 43.2614 41.9814 43.2614 39.9189H39.4949L36.4961 42.1781C37.2078 43.108 38.3175 43.6539 39.4949 43.6534Z" fill="#FAAD14"/>
<path d="M59.1665 36.6719H47.9172C47.6609 36.6719 47.4531 36.8796 47.4531 37.1359V37.9397C47.4531 38.196 47.6609 38.4038 47.9172 38.4038H59.1665C59.4228 38.4038 59.6306 38.196 59.6306 37.9397V37.1359C59.6306 36.8796 59.4228 36.6719 59.1665 36.6719Z" fill="#ADC6FF"/>
<path d="M59.1665 40.1357H47.9172C47.6609 40.1357 47.4531 40.3435 47.4531 40.5998V41.4036C47.4531 41.6599 47.6609 41.8676 47.9172 41.8676H59.1665C59.4228 41.8676 59.6306 41.6599 59.6306 41.4036V40.5998C59.6306 40.3435 59.4228 40.1357 59.1665 40.1357Z" fill="#ADC6FF"/>
<defs>
<filter id="filter0_d" x="-54" y="-22" width="205" height="205" filterUnits="userSpaceOnUse" color-interpolation-filters="sRGB">
<feFlood flood-opacity="0" result="BackgroundImageFix"/>
<feColorMatrix in="SourceAlpha" type="matrix" values="0 0 0 0 0 0 0 0 0 0 0 0 0 0 0 0 0 0 127 0"/>
<feOffset dy="32"/>
<feGaussianBlur stdDeviation="27"/>
<feColorMatrix type="matrix" values="0 0 0 0 0.144886 0 0 0 0 0.539681 0 0 0 0 1 0 0 0 0.224553 0"/>
<feBlend mode="normal" in2="BackgroundImageFix" result="effect1_dropShadow"/>
<feBlend mode="normal" in="SourceGraphic" in2="effect1_dropShadow" result="shape"/>
</filter>
</defs>
</svg>
