<svg width="560" height="638" viewBox="0 0 560 638" fill="none" xmlns="http://www.w3.org/2000/svg">
<path opacity="0.5" d="M541 506H19C8.50659 506 0 514.507 0 525C0 535.493 8.50659 544 19 544H541C551.493 544 560 535.493 560 525C560 514.507 551.493 506 541 506Z" fill="#CCD7EE"/>
<path fill-rule="evenodd" clip-rule="evenodd" d="M165.981 48.6387C127.406 48.6387 96.1348 80.0218 96.1348 118.734C96.1348 157.447 127.406 188.83 165.981 188.83C204.554 188.83 235.827 157.447 235.827 118.734C235.827 80.0218 204.554 48.6387 165.981 48.6387Z" fill="#597EF7"/>
<mask id="mask0" mask-type="alpha" maskUnits="userSpaceOnUse" x="96" y="49" width="140" height="141">
<path d="M165.981 49.0264C127.406 49.0264 96.1348 80.4095 96.1348 119.122C96.1348 157.836 127.406 189.218 165.981 189.218C204.556 189.218 235.826 157.836 235.826 119.122" fill="white"/>
</mask>
<g mask="url(#mask0)">
<path fill-rule="evenodd" clip-rule="evenodd" d="M210.337 181.969C221.458 181.969 231.558 177.694 239.188 170.74C237.23 156.729 225.274 137.681 210.772 137.681C196.031 137.681 183.899 157.086 182.252 171.438C189.788 177.983 199.589 181.969 210.337 181.969Z" fill="#A8C1EF"/>
<path fill-rule="evenodd" clip-rule="evenodd" d="M227.554 123.2C227.554 132.531 220.018 140.095 210.721 140.095C201.422 140.095 193.885 132.531 193.885 123.2C193.885 113.87 201.422 106.306 210.721 106.306C220.018 106.306 227.554 113.87 227.554 123.2Z" fill="#E4EBF7"/>
<path fill-rule="evenodd" clip-rule="evenodd" d="M91.3008 169.786C98.8367 176.33 108.638 180.317 119.386 180.317C130.507 180.317 140.606 176.042 148.237 169.088C146.279 155.077 134.323 137.681 119.821 137.681C105.08 137.681 92.9478 155.434 91.3008 169.786Z" fill="#A8C1EF"/>
<path fill-rule="evenodd" clip-rule="evenodd" d="M136.603 123.2C136.603 132.531 129.067 140.095 119.769 140.095C110.469 140.095 102.934 132.531 102.934 123.2C102.934 113.87 110.469 106.306 119.769 106.306C129.067 106.306 136.603 113.87 136.603 123.2Z" fill="#E4EBF7"/>
<path fill-rule="evenodd" clip-rule="evenodd" d="M125.262 176.355C136.336 185.972 150.742 191.83 166.537 191.83C182.879 191.83 197.723 185.549 208.937 175.33C206.062 154.739 188.489 130.431 167.178 130.431C145.512 130.431 127.681 155.262 125.262 176.355Z" fill="#CCD7EE"/>
<path fill-rule="evenodd" clip-rule="evenodd" d="M191.841 113.004C191.841 126.717 180.764 137.834 167.1 137.834C153.435 137.834 142.357 126.717 142.357 113.004C142.357 99.2903 153.435 88.1748 167.1 88.1748C180.764 88.1748 191.841 99.2903 191.841 113.004Z" fill="white"/>
</g>
<path fill-rule="evenodd" clip-rule="evenodd" d="M292.551 408.939C291.172 384.519 289.499 359.289 287.709 339.249C287.709 339.249 283.952 324.897 270.84 328.283C257.986 331.601 259.128 348.04 259.128 348.04L269.256 412.306C269.256 412.306 271.023 422.754 282.638 420.867C293.233 419.144 292.551 408.939 292.551 408.939Z" fill="#597EF7"/>
<path fill-rule="evenodd" clip-rule="evenodd" d="M288.164 470.1C283.506 469.672 279.666 473.698 280.324 478.329C281.081 483.658 282.066 490.861 283.022 498.633C284.006 506.631 284.837 513.258 285.5 514.039C288.423 517.485 293.619 518.328 299.199 521.455C303.614 523.93 304.47 525.239 309.807 525.66C317.371 526.257 313.578 523.48 304.282 514.41C296.001 506.33 296.05 502.12 296.05 502.12L294.741 476.942C294.554 473.344 291.753 470.429 288.164 470.1Z" fill="#C99382"/>
<path fill-rule="evenodd" clip-rule="evenodd" d="M303.287 512.136C309.28 517.519 315.923 521.57 316.075 524.413C316.228 527.257 314.271 530.049 304.697 527.761C298.146 526.194 299.808 524.648 293.365 521.37C290.147 519.734 289.072 520.062 286.056 518.079C284.247 516.205 283.902 506.198 283.902 506.198L295.697 516.64C295.697 516.64 292.375 511.544 294.506 510.136C296.638 508.726 298.63 507.71 300.063 508.525C301.496 509.341 303.287 512.136 303.287 512.136Z" fill="#7D4556"/>
<path fill-rule="evenodd" clip-rule="evenodd" d="M292.708 411.089C294.85 453.38 296.83 497.612 296.83 497.612L281.553 497.622L269.061 413.971C269.061 413.971 268.801 401.237 280.52 400.167C291.094 399.202 292.708 411.089 292.708 411.089Z" fill="#597EF7"/>
<path fill-rule="evenodd" clip-rule="evenodd" d="M228.46 411.473C229.269 387.027 230.354 361.765 231.677 341.689C231.677 341.689 235.099 327.253 248.288 330.332C261.215 333.351 260.456 349.813 260.456 349.813L251.826 414.296C251.826 414.296 250.303 424.783 238.647 423.166C228.015 421.692 228.46 411.473 228.46 411.473Z" fill="#597EF7"/>
<path fill-rule="evenodd" clip-rule="evenodd" d="M234.268 472.514C238.915 471.978 242.847 475.914 242.298 480.559C241.665 485.903 240.848 493.129 240.073 500.92C239.275 508.939 238.599 515.583 237.953 516.38C235.112 519.893 229.937 520.857 224.432 524.112C220.075 526.689 219.249 528.018 213.924 528.563C206.377 529.336 210.104 526.472 219.186 517.188C227.277 508.917 227.129 504.71 227.129 504.71L227.852 479.507C227.955 475.905 230.688 472.926 234.268 472.514Z" fill="#C99382"/>
<path fill-rule="evenodd" clip-rule="evenodd" d="M220.128 514.892C214.262 520.411 207.716 524.616 207.63 527.463C207.543 530.309 209.563 533.055 219.082 530.544C225.595 528.826 223.897 527.318 230.262 523.892C233.441 522.18 234.523 522.484 237.493 520.432C239.257 518.515 239.369 508.503 239.369 508.503L227.821 519.217C227.821 519.217 231.022 514.045 228.859 512.687C226.696 511.328 224.681 510.357 223.267 511.207C221.855 512.054 220.128 514.892 220.128 514.892Z" fill="#7D4556"/>
<path fill-rule="evenodd" clip-rule="evenodd" d="M228.353 413.627C227.197 455.955 226.246 500.222 226.246 500.222L241.518 499.876L252.06 415.956C252.06 415.956 252.024 403.22 240.283 402.423C229.689 401.704 228.353 413.627 228.353 413.627Z" fill="#597EF7"/>
<path fill-rule="evenodd" clip-rule="evenodd" d="M270.112 231.598L269.447 217.639L250.93 217.65L250.478 231.696C250.275 237.133 254.595 241.666 260.035 241.725C260.139 241.726 260.243 241.728 260.347 241.729C265.91 241.793 270.377 237.155 270.112 231.598Z" fill="#C99382"/>
<path fill-rule="evenodd" clip-rule="evenodd" d="M273.372 235.042L272.19 231.635L249.215 232.262L248.292 235.488C248.292 235.488 234.978 232.582 228.436 242.863C224.326 249.322 233.932 288.145 234.094 296.813C230.184 307.166 235.866 310.322 235.866 310.322L282.462 309.763C282.462 309.763 287.796 306.229 283.23 299.115C285.101 286.389 294.674 252.279 291.585 245.999C285.445 233.517 273.372 235.042 273.372 235.042Z" fill="#ADC6FF"/>
<path d="M271.591 235.488C271.784 235.47 271.955 235.611 271.973 235.804C271.992 235.996 271.85 236.167 271.657 236.186C270.123 236.331 268.481 236.454 266.746 236.556C261.452 236.865 255.908 236.954 251.057 236.915L249.258 236.894C249.064 236.89 248.911 236.73 248.914 236.536C248.918 236.343 249.078 236.189 249.272 236.193L250.262 236.207C255.284 236.262 261.136 236.181 266.705 235.856C268.432 235.755 270.066 235.633 271.591 235.488Z" fill="#597EF7"/>
<path fill-rule="evenodd" clip-rule="evenodd" d="M288.082 342.963C286.59 327.175 284.272 319.813 282.502 316.847C244.449 317.935 234.97 317.435 234.97 317.435C234.97 317.435 231.713 326.648 231.244 345.183C231.244 345.183 244.544 361.558 259.663 361.558C273.293 361.558 288.082 342.963 288.082 342.963Z" fill="#597EF7"/>
<path fill-rule="evenodd" clip-rule="evenodd" d="M282.501 316.846L281.78 309.686L235.186 310.244L234.969 317.416C234.969 317.416 259.629 318.366 282.501 316.846Z" fill="#597EF7"/>
<path d="M255.635 317.914C255.833 317.918 255.99 318.082 255.986 318.28L255.954 320.256C255.948 320.654 255.943 321.076 255.937 321.52C255.857 328.207 255.864 335.398 256.021 342.146L256.045 343.128C256.24 350.749 256.617 356.825 257.21 360.803C257.239 360.998 257.104 361.181 256.908 361.21C256.712 361.239 256.53 361.104 256.501 360.908L256.426 360.384C255.847 356.194 255.485 349.942 255.304 342.163C255.161 335.968 255.142 329.403 255.202 323.195L255.246 319.667L255.27 318.265C255.274 318.067 255.437 317.91 255.635 317.914Z" fill="#253368"/>
<path d="M262.286 318.067C262.484 318.068 262.643 318.229 262.643 318.427L262.643 320.692C262.647 321.766 262.654 322.986 262.668 324.316C262.7 327.393 262.759 330.437 262.85 333.317L262.881 334.271C263.037 338.796 263.266 342.55 263.578 345.271L263.611 345.549L263.613 345.62C263.407 348.237 261.942 349.835 259.666 350.588C258.415 351.001 257.113 351.107 256.001 351.044L255.828 351.032C255.814 351.031 255.802 351.03 255.793 351.029C255.596 351.009 255.452 350.833 255.473 350.636C255.493 350.439 255.669 350.295 255.866 350.316L256.041 350.328C257.072 350.387 258.29 350.288 259.441 349.907C261.401 349.259 262.642 347.949 262.879 345.765L262.894 345.597L262.866 345.354C262.595 342.988 262.387 339.859 262.234 336.13L262.165 334.295C262.066 331.448 262.001 328.423 261.963 325.35L261.941 323.156C261.932 322.145 261.927 321.213 261.925 320.376L261.926 318.424C261.927 318.226 262.088 318.067 262.286 318.067Z" fill="#253368"/>
<path d="M278.337 318.218C278.535 318.215 278.698 318.373 278.701 318.571L278.713 318.91C278.716 318.973 278.72 319.041 278.724 319.116C278.749 319.556 278.789 320.046 278.847 320.574C279.013 322.083 279.293 323.59 279.713 324.993C280.674 328.209 282.211 330.373 284.412 331.04C284.602 331.097 284.709 331.297 284.651 331.487C284.594 331.676 284.394 331.783 284.204 331.726C281.719 330.973 280.05 328.622 279.026 325.199C278.593 323.75 278.305 322.201 278.134 320.653C278.087 320.22 278.051 319.811 278.025 319.434L277.993 318.85C277.988 318.733 277.985 318.643 277.984 318.582C277.981 318.384 278.139 318.221 278.337 318.218Z" fill="#253368"/>
<path d="M239.135 319.047C239.313 319.046 239.462 319.174 239.491 319.345L239.496 319.414L239.494 319.784C239.486 320.24 239.463 320.841 239.415 321.545C239.313 323.023 239.127 324.495 238.836 325.872C238.071 329.484 236.722 331.874 234.575 332.431C234.384 332.48 234.188 332.365 234.139 332.174C234.089 331.982 234.204 331.786 234.395 331.737C236.191 331.271 237.422 329.091 238.134 325.723C238.418 324.382 238.6 322.943 238.699 321.496L238.725 321.095C238.759 320.512 238.775 320.019 238.779 319.647L238.779 319.408C238.778 319.21 238.937 319.048 239.135 319.047Z" fill="#253368"/>
<path d="M247.325 358.064C247.414 357.887 247.629 357.816 247.806 357.904L248.095 358.044L248.398 358.184C248.558 358.258 248.731 358.335 248.916 358.416C249.796 358.803 250.763 359.189 251.785 359.55C253.747 360.243 255.674 360.755 257.472 361.012C259.083 361.243 260.536 361.258 261.791 361.03C261.985 360.995 262.172 361.124 262.207 361.319C262.243 361.513 262.114 361.7 261.919 361.735C260.581 361.979 259.053 361.962 257.37 361.722C255.52 361.457 253.55 360.933 251.546 360.226C250.655 359.911 249.805 359.578 249.017 359.241L248.628 359.073C248.439 358.99 248.263 358.911 248.099 358.836L247.634 358.618C247.568 358.586 247.518 358.562 247.485 358.545C247.308 358.457 247.237 358.241 247.325 358.064Z" fill="#253368"/>
<path fill-rule="evenodd" clip-rule="evenodd" d="M277.072 204.595C277.072 204.595 281.801 199.213 284.546 204.304C287.154 209.139 281.783 215.741 277.23 214.415C275.24 209.884 277.072 204.595 277.072 204.595Z" fill="#C99382"/>
<path fill-rule="evenodd" clip-rule="evenodd" d="M244.113 204.595C244.113 204.595 239.385 199.213 236.639 204.304C234.032 209.139 239.402 215.741 243.955 214.415C245.945 209.884 244.113 204.595 244.113 204.595Z" fill="#C99382"/>
<path fill-rule="evenodd" clip-rule="evenodd" d="M279.012 205.737C279.012 222.458 270.706 226.878 260.46 226.878C250.215 226.878 242.612 222.633 241.91 205.737C241.264 190.193 250.215 184.975 260.46 184.975C270.706 184.975 279.012 191.057 279.012 205.737Z" fill="#C99382"/>
<path fill-rule="evenodd" clip-rule="evenodd" d="M261.942 207.578C261.982 210.954 264.752 213.659 268.129 213.619C271.505 213.578 274.211 210.808 274.17 207.431C274.13 204.055 271.359 201.35 267.983 201.39C264.606 201.431 261.901 204.201 261.942 207.578Z" fill="white"/>
<path d="M267.979 200.959C264.364 201.003 261.468 203.969 261.512 207.583C261.555 211.198 264.52 214.093 268.135 214.05C271.75 214.006 274.646 211.04 274.602 207.426C274.559 203.812 271.593 200.916 267.979 200.959ZM267.989 201.821C271.127 201.784 273.703 204.298 273.74 207.436C273.778 210.575 271.264 213.15 268.125 213.188C264.986 213.226 262.411 210.712 262.374 207.573C262.336 204.49 264.763 201.95 267.825 201.825L267.989 201.821Z" fill="#7D4556"/>
<path d="M266.562 207.874C266.536 208.084 266.357 208.249 266.139 208.251C265.921 208.254 265.739 208.094 265.708 207.884L265.703 207.826C265.701 207.472 265.766 206.995 265.969 206.511C266.327 205.657 267.011 205.116 268.042 205.104C269.065 205.091 269.787 205.576 270.22 206.365C270.467 206.815 270.574 207.258 270.602 207.572C270.623 207.809 270.448 208.018 270.211 208.039C269.974 208.06 269.765 207.885 269.744 207.648L269.734 207.573C269.726 207.525 269.714 207.462 269.696 207.387C269.645 207.179 269.569 206.97 269.464 206.78C269.176 206.254 268.734 205.957 268.052 205.965C267.393 205.973 266.998 206.286 266.764 206.844C266.678 207.05 266.621 207.276 266.59 207.504C266.578 207.588 266.571 207.662 266.568 207.72L266.562 207.874Z" fill="#7D4556"/>
<path d="M248.306 199.482C250.195 198.286 253.006 198.286 256.838 200.202C257.051 200.308 257.137 200.567 257.03 200.78C256.924 200.992 256.665 201.079 256.452 200.972C252.877 199.185 250.386 199.185 248.767 200.21C248.54 200.354 248.354 200.507 248.206 200.657L248.121 200.748C248.098 200.773 248.081 200.795 248.069 200.81L248.054 200.83C247.92 201.027 247.652 201.077 247.455 200.942C247.259 200.808 247.209 200.54 247.343 200.344C247.501 200.113 247.814 199.794 248.306 199.482Z" fill="#7D4556"/>
<path d="M268.813 198.539C269.998 198.476 271.055 198.666 271.942 199.158C272.15 199.274 272.225 199.536 272.109 199.744C271.993 199.952 271.731 200.027 271.523 199.912C270.793 199.506 269.894 199.344 268.859 199.4C267.79 199.457 266.633 199.739 265.465 200.176C265.094 200.315 264.743 200.462 264.417 200.61L264.178 200.722C263.946 200.832 263.781 200.918 263.696 200.965C263.487 201.08 263.225 201.004 263.11 200.796C262.995 200.587 263.071 200.325 263.279 200.21L263.451 200.12C263.546 200.071 263.665 200.012 263.807 199.944C264.219 199.748 264.675 199.552 265.163 199.369C266.406 198.904 267.645 198.601 268.813 198.539Z" fill="#7D4556"/>
<path d="M257.889 202.204C258.061 202.116 258.272 202.185 258.36 202.358L258.438 202.519C258.47 202.588 258.508 202.672 258.55 202.769C258.688 203.09 258.827 203.45 258.957 203.839C259.381 205.115 259.61 206.406 259.538 207.625C259.494 208.367 259.359 209.045 259.11 209.915L258.745 211.159C258.494 212.043 258.491 212.217 258.58 212.543C258.718 213.048 259.33 213.371 260.761 213.527C260.954 213.548 261.093 213.721 261.072 213.913C261.051 214.106 260.878 214.245 260.686 214.224C258.999 214.04 258.138 213.585 257.904 212.727L257.862 212.564C257.758 212.119 257.808 211.846 258.208 210.494L258.36 209.982C258.645 209.026 258.794 208.335 258.838 207.584C258.904 206.466 258.69 205.259 258.291 204.06C258.193 203.765 258.09 203.488 257.985 203.234L257.906 203.047C257.828 202.867 257.768 202.74 257.735 202.675C257.648 202.503 257.716 202.292 257.889 202.204Z" fill="#9B6160"/>
<path d="M264.565 215.084C264.762 215.033 264.963 215.151 265.014 215.348C265.065 215.545 264.946 215.746 264.75 215.797C262.062 216.494 259.275 216.494 256.701 216.077C256.401 216.028 256.124 215.977 255.875 215.925L255.532 215.849C255.437 215.826 255.366 215.808 255.32 215.796C255.124 215.742 255.008 215.54 255.062 215.344C255.115 215.148 255.318 215.032 255.514 215.085L255.852 215.166C256.134 215.229 256.458 215.291 256.819 215.35C259.301 215.752 261.99 215.752 264.565 215.084Z" fill="#7D4556"/>
<path fill-rule="evenodd" clip-rule="evenodd" d="M246.504 207.578C246.545 210.954 249.316 213.659 252.692 213.619C256.069 213.578 258.773 210.808 258.733 207.431C258.692 204.055 255.922 201.35 252.545 201.39C249.169 201.431 246.464 204.201 246.504 207.578Z" fill="white"/>
<path d="M252.541 200.959C248.927 201.003 246.032 203.969 246.075 207.583C246.118 211.198 249.084 214.093 252.698 214.05C256.313 214.006 259.208 211.041 259.165 207.426C259.121 203.812 256.156 200.916 252.541 200.959ZM252.552 201.821C255.69 201.784 258.265 204.298 258.304 207.437C258.341 210.575 255.827 213.15 252.688 213.188C249.549 213.226 246.974 210.711 246.936 207.573C246.9 204.489 249.326 201.95 252.387 201.825L252.552 201.821Z" fill="#7D4556"/>
<path d="M251.126 207.874C251.1 208.084 250.922 208.249 250.704 208.251C250.485 208.254 250.303 208.094 250.272 207.884L250.268 207.826C250.265 207.472 250.331 206.995 250.534 206.511C250.891 205.657 251.575 205.116 252.605 205.104C253.628 205.091 254.35 205.576 254.783 206.365C255.031 206.815 255.138 207.258 255.166 207.572C255.187 207.809 255.012 208.018 254.775 208.039C254.538 208.06 254.329 207.885 254.308 207.648L254.297 207.573C254.29 207.525 254.277 207.462 254.259 207.387C254.209 207.179 254.133 206.97 254.028 206.78C253.739 206.254 253.298 205.957 252.616 205.965C251.957 205.973 251.562 206.286 251.328 206.844C251.242 207.05 251.185 207.276 251.154 207.504L251.137 207.657C251.133 207.702 251.131 207.741 251.13 207.774L251.129 207.817L251.126 207.874Z" fill="#7D4556"/>
<path d="M259.091 204.958C259.974 204.675 260.911 204.639 261.803 205.014C261.883 205.048 261.962 205.085 262.039 205.125L262.155 205.188L261.731 205.938C261.645 205.889 261.557 205.846 261.468 205.808C260.794 205.524 260.058 205.553 259.354 205.779C259.185 205.833 259.056 205.885 258.976 205.923L258.934 205.944L258.533 205.181C258.647 205.122 258.837 205.039 259.091 204.958Z" fill="#7D4556"/>
<path d="M269.58 224.97C269.759 224.897 269.964 224.983 270.037 225.162C270.11 225.342 270.024 225.546 269.845 225.619C263.711 228.125 257.431 227.75 251.895 225.845C251.712 225.782 251.614 225.583 251.677 225.4C251.74 225.217 251.94 225.119 252.123 225.182C257.512 227.037 263.627 227.402 269.58 224.97Z" fill="#9B6160"/>
<path d="M261.645 218.524C261.839 218.524 261.996 218.681 261.996 218.875C261.996 219.049 261.869 219.194 261.702 219.221L261.645 219.225H258.882C258.688 219.225 258.531 219.068 258.531 218.875C258.531 218.701 258.658 218.556 258.825 218.529L258.882 218.524H261.645Z" fill="#9B6160"/>
<path d="M260.065 222.34C260.24 222.34 260.384 222.467 260.411 222.633L260.416 222.69V226.506C260.416 226.7 260.259 226.857 260.065 226.857C259.891 226.857 259.747 226.73 259.719 226.563L259.715 226.506V222.69C259.715 222.497 259.872 222.34 260.065 222.34Z" fill="#9B6160"/>
<path d="M261.598 223.396C261.771 223.372 261.931 223.479 261.98 223.64L261.993 223.696L262.387 226.59C262.413 226.782 262.279 226.959 262.087 226.985C261.915 227.008 261.754 226.902 261.705 226.74L261.693 226.685L261.298 223.79C261.272 223.599 261.406 223.422 261.598 223.396Z" fill="#9B6160"/>
<path d="M257.957 224.313L258.014 224.318C258.186 224.344 258.31 224.492 258.311 224.66L258.307 224.717L258.045 226.427C258.015 226.619 257.836 226.75 257.645 226.721C257.473 226.694 257.349 226.547 257.348 226.378L257.352 226.321L257.614 224.611C257.641 224.439 257.788 224.315 257.957 224.313Z" fill="#9B6160"/>
<path d="M263.001 224.062C263.169 224.017 263.341 224.102 263.41 224.256L263.429 224.31L263.956 226.284C264.005 226.471 263.894 226.663 263.707 226.713C263.539 226.758 263.367 226.672 263.297 226.518L263.278 226.464L262.752 224.491C262.702 224.304 262.813 224.112 263.001 224.062Z" fill="#9B6160"/>
<path d="M237.495 205.785C238.269 204.867 239.293 204.867 240.258 206.367C240.653 207.27 240.617 207.871 240.274 208.711L240.079 209.168C239.873 209.683 239.886 210.011 240.228 210.524C240.329 210.675 240.446 210.798 240.575 210.894C240.809 211.07 241.041 211.141 241.198 211.155L241.252 211.157C241.446 211.157 241.603 211.314 241.603 211.508C241.603 211.701 241.446 211.858 241.252 211.858C240.961 211.858 240.557 211.757 240.154 211.455C239.962 211.311 239.791 211.131 239.645 210.912C239.193 210.235 239.146 209.691 239.381 209.032L239.462 208.826C239.476 208.792 239.501 208.735 239.568 208.582C239.898 207.823 239.943 207.396 239.642 206.698C238.973 205.663 238.515 205.663 238.031 206.237C237.897 206.396 237.8 206.558 237.754 206.657C237.671 206.832 237.462 206.907 237.287 206.825C237.112 206.742 237.037 206.534 237.119 206.358C237.19 206.209 237.315 205.998 237.495 205.785Z" fill="#9B6160"/>
<path d="M280.309 206.317C281.247 204.867 282.271 204.867 283.044 205.784C283.224 205.998 283.35 206.208 283.42 206.358C283.502 206.533 283.427 206.742 283.252 206.824C283.077 206.907 282.868 206.831 282.786 206.656C282.739 206.557 282.643 206.395 282.509 206.236C282.025 205.663 281.567 205.663 280.924 206.648C280.617 207.348 280.637 207.768 280.913 208.443L281.111 208.907C281.398 209.623 281.375 210.192 280.895 210.911C280.749 211.131 280.577 211.311 280.384 211.456C279.982 211.757 279.579 211.858 279.288 211.858C279.094 211.858 278.938 211.701 278.938 211.507C278.938 211.333 279.065 211.188 279.231 211.161L279.288 211.157C279.44 211.157 279.701 211.091 279.964 210.895C280.093 210.798 280.21 210.675 280.311 210.523C280.631 210.044 280.663 209.727 280.499 209.268L280.399 209.021C280.383 208.985 280.361 208.934 280.329 208.861C279.928 207.94 279.864 207.322 280.309 206.317Z" fill="#9B6160"/>
<path fill-rule="evenodd" clip-rule="evenodd" d="M241.207 208.482C241.207 208.482 238.401 205.499 239.804 201.815C237.348 197.429 238.927 193.219 241.207 191.641C240.506 187.782 243.136 180.94 248.576 180.238C251.777 181.51 255.592 181.642 255.592 181.642C255.592 181.642 264.714 176.379 271.03 182.694C277.52 181.992 280.854 189.36 280.327 191.991C283.835 196.377 281.028 203.043 281.028 203.043C281.028 203.043 280.637 205.622 279.45 209.183C278.222 212.868 277.696 208.131 277.696 207.079C277.696 206.026 275.065 205.149 275.942 200.413C272.959 198.307 273.617 195.062 273.617 195.062C273.617 195.062 271.468 197.255 265.329 194.272C260.943 197.956 254.276 194.272 254.276 194.272C254.276 194.272 248.882 196.859 245.724 194.93C245.724 194.93 246.601 197.561 244.147 201.245C245.023 204.754 242.434 206.377 243.136 208.482C243.838 210.586 241.909 212.692 241.207 208.482Z" fill="#7D4556"/>
<path fill-rule="evenodd" clip-rule="evenodd" d="M231.423 265.887C231.423 265.887 239.589 276.108 248.826 268.47C258.246 260.681 249.579 250.661 249.579 250.661C249.579 250.661 243.991 243.444 236.949 234.927C231.446 228.272 227.249 223.144 223.323 219.221C219.084 214.988 212.459 214.205 208.133 217.781C201.557 223.219 202.14 229.451 205.726 234.211C209.211 238.841 214.109 244.942 218.064 249.959C225.671 259.604 231.423 265.887 231.423 265.887Z" fill="#ADC6FF"/>
<path fill-rule="evenodd" clip-rule="evenodd" d="M185.166 169.166C185.166 169.166 187.565 180.287 192.768 181.515C197.48 182.627 199.712 176.806 199.712 176.806C199.712 176.806 200.941 172.058 200.872 166.586C200.827 163.001 201.758 156.172 199.916 155.702C197.516 155.089 197.703 162.226 196.053 162.955C192.712 164.431 191.235 153.233 190.02 151.546C187.647 148.248 182.187 155.849 185.166 169.166Z" fill="#C99382"/>
<path d="M188.193 151.773C188.387 151.779 188.538 151.941 188.532 152.135C188.454 154.501 188.907 156.999 189.711 159.457C189.972 160.252 190.251 160.985 190.529 161.637L190.669 161.958L190.884 162.42C190.889 162.429 190.893 162.438 190.896 162.444C190.984 162.617 190.914 162.828 190.741 162.915C190.568 163.002 190.358 162.933 190.271 162.76L190.163 162.535L190.03 162.245C189.983 162.141 189.935 162.03 189.885 161.912C189.598 161.242 189.312 160.49 189.045 159.675C188.217 157.146 187.75 154.57 187.831 152.111C187.838 151.918 188 151.766 188.193 151.773Z" fill="#9B6160"/>
<path d="M186.065 153.616C186.258 153.631 186.403 153.8 186.388 153.993L186.38 154.139C186.347 154.961 186.397 156.118 186.596 157.552C186.896 159.708 187.479 162.029 188.412 164.456C188.482 164.636 188.392 164.839 188.211 164.909C188.03 164.978 187.828 164.888 187.758 164.707C186.805 162.229 186.209 159.857 185.902 157.648C185.71 156.27 185.653 155.134 185.674 154.288L185.685 154.006C185.686 153.977 185.688 153.954 185.689 153.939C185.704 153.746 185.872 153.601 186.065 153.616Z" fill="#9B6160"/>
<path d="M184.553 158.857C184.745 158.835 184.919 158.973 184.941 159.165C185.123 160.759 185.371 162.204 185.668 163.5C185.899 164.508 186.146 165.368 186.393 166.082L186.492 166.362C186.524 166.449 186.555 166.531 186.585 166.607L186.703 166.895C186.707 166.904 186.711 166.911 186.713 166.917C186.795 167.093 186.718 167.301 186.543 167.383C186.367 167.464 186.159 167.388 186.077 167.212L186.005 167.043L185.979 166.979C185.903 166.793 185.82 166.57 185.73 166.311C185.475 165.574 185.221 164.689 184.985 163.657C184.682 162.335 184.43 160.865 184.244 159.245C184.223 159.052 184.361 158.879 184.553 158.857Z" fill="#9B6160"/>
<path fill-rule="evenodd" clip-rule="evenodd" d="M224.002 219.979C224.002 219.979 228.411 232.661 217.933 236.693C207.126 240.85 202.333 228.879 202.333 228.879C202.333 228.879 199.169 220.373 195.222 209.906C192.813 203.515 190.294 196.405 189.205 190.982C188.026 185.109 190.885 183.38 196.125 181.365C202.346 178.971 205.162 178.615 208.065 183.82C210.833 188.782 213.664 195.895 216.109 201.308C220.766 211.626 224.002 219.979 224.002 219.979Z" fill="#ADC6FF"/>
<path fill-rule="evenodd" clip-rule="evenodd" d="M188.633 179.548L200.749 174.888L204.77 182.738L190.91 188.071L188.633 179.548Z" fill="#ADC6FF"/>
<path fill-rule="evenodd" clip-rule="evenodd" d="M292.62 265.887C292.62 265.887 284.455 276.108 275.217 268.47C265.798 260.681 274.464 250.661 274.464 250.661C274.464 250.661 280.052 243.444 287.094 234.927C292.597 228.272 296.795 223.144 300.721 219.221C304.959 214.988 311.584 214.205 315.91 217.781C322.486 223.219 321.903 229.451 318.318 234.211C314.832 238.841 309.935 244.942 305.98 249.959C298.372 259.604 292.62 265.887 292.62 265.887Z" fill="#ADC6FF"/>
<path fill-rule="evenodd" clip-rule="evenodd" d="M338.876 169.166C338.876 169.166 336.478 180.287 331.274 181.515C326.562 182.627 324.33 176.806 324.33 176.806C324.33 176.806 323.102 172.058 323.17 166.586C323.216 163.001 322.285 156.172 324.127 155.702C326.527 155.089 326.34 162.226 327.989 162.955C331.33 164.431 332.808 153.233 334.023 151.546C336.396 148.248 341.856 155.849 338.876 169.166Z" fill="#C99382"/>
<path d="M335.85 151.773C336.044 151.766 336.206 151.918 336.212 152.111C336.293 154.57 335.826 157.146 334.998 159.675C334.731 160.49 334.445 161.242 334.159 161.912L334.014 162.245L333.881 162.535C333.83 162.644 333.793 162.72 333.773 162.76C333.686 162.933 333.475 163.002 333.302 162.915C333.129 162.828 333.06 162.617 333.147 162.444L333.219 162.296L333.246 162.238C333.327 162.066 333.417 161.864 333.514 161.637C333.793 160.985 334.072 160.252 334.332 159.457C335.137 156.999 335.59 154.501 335.512 152.135C335.505 151.941 335.657 151.779 335.85 151.773Z" fill="#9B6160"/>
<path d="M337.978 153.616C338.171 153.601 338.339 153.746 338.354 153.939L338.363 154.111C338.398 154.973 338.346 156.171 338.141 157.648C337.834 159.857 337.238 162.229 336.285 164.707C336.216 164.888 336.013 164.978 335.832 164.909C335.652 164.839 335.561 164.636 335.631 164.456C336.564 162.029 337.147 159.708 337.447 157.552C337.633 156.213 337.689 155.117 337.668 154.308L337.663 154.139C337.66 154.065 337.657 154.016 337.655 153.993C337.64 153.8 337.785 153.631 337.978 153.616Z" fill="#9B6160"/>
<path d="M339.49 158.856C339.682 158.878 339.82 159.052 339.798 159.244C339.613 160.865 339.361 162.335 339.058 163.656C338.848 164.574 338.624 165.375 338.398 166.059L338.313 166.31C338.241 166.518 338.173 166.702 338.11 166.863L338.015 167.098C337.994 167.149 337.977 167.187 337.965 167.212C337.884 167.387 337.676 167.464 337.5 167.382C337.324 167.301 337.248 167.093 337.329 166.917L337.391 166.774L337.414 166.716C337.485 166.541 337.565 166.329 337.65 166.081C337.897 165.368 338.144 164.508 338.375 163.5C338.672 162.204 338.92 160.759 339.102 159.165C339.122 158.992 339.264 158.863 339.433 158.854L339.49 158.856Z" fill="#9B6160"/>
<path fill-rule="evenodd" clip-rule="evenodd" d="M300.04 219.979C300.04 219.979 295.631 232.661 306.109 236.693C316.916 240.85 321.709 228.879 321.709 228.879C321.709 228.879 324.873 220.373 328.82 209.906C331.229 203.515 333.748 196.405 334.837 190.982C336.016 185.109 333.156 183.38 327.917 181.365C321.696 178.971 318.88 178.615 315.977 183.82C313.209 188.782 310.378 195.895 307.933 201.308C303.275 211.626 300.04 219.979 300.04 219.979Z" fill="#ADC6FF"/>
<path fill-rule="evenodd" clip-rule="evenodd" d="M335.411 179.548L323.295 174.888L319.273 182.738L333.133 188.071L335.411 179.548Z" fill="#ADC6FF"/>
<path d="M282.173 310.261C282.371 310.261 282.531 310.421 282.531 310.619C282.531 310.797 282.401 310.945 282.231 310.973L282.173 310.978H235.444C235.246 310.978 235.086 310.817 235.086 310.619C235.086 310.441 235.216 310.293 235.386 310.265L235.444 310.261H282.173Z" fill="#253368"/>
<path d="M282.172 316.803C282.37 316.803 282.53 316.963 282.53 317.161C282.53 317.339 282.4 317.487 282.23 317.515L282.172 317.52H234.509C234.311 317.52 234.15 317.359 234.15 317.161C234.15 316.983 234.28 316.835 234.451 316.807L234.509 316.803H282.172Z" fill="#253368"/>
<path fill-rule="evenodd" clip-rule="evenodd" d="M140.051 218.758C139.798 218.758 139.594 218.543 139.594 218.278V211.875C139.594 211.61 139.798 211.395 140.051 211.395C140.303 211.395 140.508 211.61 140.508 211.875V218.278C140.508 218.543 140.303 218.758 140.051 218.758Z" fill="#597EF7"/>
<path fill-rule="evenodd" clip-rule="evenodd" d="M135.198 220.078C135.03 220.078 134.866 219.991 134.776 219.836L131.534 214.253C131.4 214.021 131.479 213.726 131.712 213.592C131.945 213.459 132.242 213.538 132.376 213.769L135.618 219.353C135.753 219.584 135.673 219.88 135.44 220.013C135.364 220.057 135.28 220.078 135.198 220.078Z" fill="#597EF7"/>
<path fill-rule="evenodd" clip-rule="evenodd" d="M131.594 223.684C131.512 223.684 131.429 223.663 131.353 223.618L125.769 220.376C125.538 220.242 125.459 219.945 125.592 219.712C125.726 219.479 126.021 219.4 126.253 219.534L131.836 222.776C132.068 222.91 132.147 223.208 132.013 223.44C131.924 223.596 131.761 223.684 131.594 223.684Z" fill="#597EF7"/>
<path fill-rule="evenodd" clip-rule="evenodd" d="M130.278 228.508H123.875C123.61 228.508 123.395 228.303 123.395 228.051C123.395 227.798 123.61 227.594 123.875 227.594H130.278C130.543 227.594 130.758 227.798 130.758 228.051C130.758 228.303 130.543 228.508 130.278 228.508Z" fill="#597EF7"/>
<path fill-rule="evenodd" clip-rule="evenodd" d="M126.011 236.531C125.844 236.531 125.682 236.444 125.592 236.288C125.459 236.055 125.538 235.758 125.769 235.624L131.353 232.382C131.584 232.247 131.88 232.327 132.013 232.56C132.147 232.792 132.068 233.09 131.836 233.224L126.253 236.466C126.177 236.51 126.093 236.531 126.011 236.531Z" fill="#597EF7"/>
<path fill-rule="evenodd" clip-rule="evenodd" d="M131.955 242.473C131.872 242.473 131.789 242.452 131.712 242.408C131.479 242.274 131.4 241.979 131.534 241.747L134.776 236.164C134.91 235.933 135.208 235.853 135.44 235.987C135.673 236.12 135.753 236.416 135.618 236.647L132.376 242.231C132.286 242.386 132.123 242.473 131.955 242.473Z" fill="#597EF7"/>
<path fill-rule="evenodd" clip-rule="evenodd" d="M140.051 244.605C139.798 244.605 139.594 244.39 139.594 244.125V237.722C139.594 237.457 139.798 237.242 140.051 237.242C140.303 237.242 140.508 237.457 140.508 237.722V244.125C140.508 244.39 140.303 244.605 140.051 244.605Z" fill="#597EF7"/>
<path fill-rule="evenodd" clip-rule="evenodd" d="M148.045 242.473C147.877 242.473 147.714 242.386 147.624 242.231L144.382 236.647C144.247 236.416 144.327 236.12 144.56 235.987C144.792 235.853 145.09 235.933 145.224 236.164L148.466 241.747C148.6 241.979 148.521 242.274 148.288 242.408C148.211 242.452 148.128 242.473 148.045 242.473Z" fill="#597EF7"/>
<path fill-rule="evenodd" clip-rule="evenodd" d="M153.989 236.531C153.907 236.531 153.823 236.51 153.747 236.466L148.164 233.224C147.932 233.09 147.853 232.792 147.987 232.56C148.12 232.327 148.416 232.247 148.647 232.382L154.231 235.624C154.462 235.758 154.541 236.055 154.408 236.288C154.318 236.444 154.156 236.531 153.989 236.531Z" fill="#597EF7"/>
<path fill-rule="evenodd" clip-rule="evenodd" d="M156.125 228.508H149.722C149.457 228.508 149.242 228.303 149.242 228.051C149.242 227.798 149.457 227.594 149.722 227.594H156.125C156.39 227.594 156.605 227.798 156.605 228.051C156.605 228.303 156.39 228.508 156.125 228.508Z" fill="#597EF7"/>
<path fill-rule="evenodd" clip-rule="evenodd" d="M148.406 223.684C148.239 223.684 148.076 223.596 147.987 223.44C147.853 223.208 147.932 222.91 148.164 222.776L153.747 219.534C153.979 219.4 154.274 219.479 154.408 219.712C154.541 219.945 154.462 220.242 154.231 220.376L148.647 223.618C148.571 223.663 148.488 223.684 148.406 223.684Z" fill="#597EF7"/>
<path fill-rule="evenodd" clip-rule="evenodd" d="M144.802 220.078C144.72 220.078 144.636 220.057 144.56 220.013C144.327 219.88 144.247 219.584 144.382 219.353L147.624 213.769C147.758 213.538 148.055 213.459 148.288 213.592C148.521 213.726 148.6 214.022 148.466 214.253L145.224 219.836C145.134 219.991 144.97 220.078 144.802 220.078Z" fill="#597EF7"/>
<path fill-rule="evenodd" clip-rule="evenodd" d="M278.051 121.758C277.798 121.758 277.594 121.543 277.594 121.278V114.875C277.594 114.61 277.798 114.395 278.051 114.395C278.303 114.395 278.508 114.61 278.508 114.875V121.278C278.508 121.543 278.303 121.758 278.051 121.758Z" fill="#597EF7"/>
<path fill-rule="evenodd" clip-rule="evenodd" d="M273.198 123.078C273.03 123.078 272.866 122.991 272.776 122.836L269.534 117.253C269.4 117.021 269.479 116.726 269.712 116.592C269.945 116.459 270.242 116.538 270.376 116.769L273.618 122.353C273.753 122.584 273.673 122.88 273.44 123.013C273.364 123.057 273.28 123.078 273.198 123.078Z" fill="#597EF7"/>
<path fill-rule="evenodd" clip-rule="evenodd" d="M269.594 126.684C269.512 126.684 269.429 126.663 269.353 126.618L263.769 123.376C263.538 123.242 263.459 122.945 263.592 122.712C263.726 122.479 264.021 122.4 264.253 122.534L269.836 125.776C270.068 125.91 270.147 126.208 270.013 126.44C269.924 126.596 269.761 126.684 269.594 126.684Z" fill="#597EF7"/>
<path fill-rule="evenodd" clip-rule="evenodd" d="M268.278 131.508H261.875C261.61 131.508 261.395 131.303 261.395 131.051C261.395 130.798 261.61 130.594 261.875 130.594H268.278C268.543 130.594 268.758 130.798 268.758 131.051C268.758 131.303 268.543 131.508 268.278 131.508Z" fill="#597EF7"/>
<path fill-rule="evenodd" clip-rule="evenodd" d="M264.011 139.531C263.844 139.531 263.682 139.444 263.592 139.288C263.459 139.055 263.538 138.758 263.769 138.624L269.353 135.382C269.584 135.247 269.88 135.327 270.013 135.56C270.147 135.792 270.068 136.09 269.836 136.224L264.253 139.466C264.177 139.51 264.093 139.531 264.011 139.531Z" fill="#597EF7"/>
<path fill-rule="evenodd" clip-rule="evenodd" d="M269.955 145.473C269.872 145.473 269.789 145.452 269.712 145.408C269.479 145.274 269.4 144.979 269.534 144.747L272.776 139.164C272.91 138.933 273.208 138.853 273.44 138.987C273.673 139.12 273.753 139.416 273.618 139.647L270.376 145.231C270.286 145.386 270.123 145.473 269.955 145.473Z" fill="#597EF7"/>
<path fill-rule="evenodd" clip-rule="evenodd" d="M278.051 147.605C277.798 147.605 277.594 147.39 277.594 147.125V140.722C277.594 140.457 277.798 140.242 278.051 140.242C278.303 140.242 278.508 140.457 278.508 140.722V147.125C278.508 147.39 278.303 147.605 278.051 147.605Z" fill="#597EF7"/>
<path fill-rule="evenodd" clip-rule="evenodd" d="M286.045 145.473C285.877 145.473 285.714 145.386 285.624 145.231L282.382 139.647C282.247 139.416 282.327 139.12 282.56 138.987C282.792 138.853 283.09 138.933 283.224 139.164L286.466 144.747C286.6 144.979 286.521 145.274 286.288 145.408C286.211 145.452 286.128 145.473 286.045 145.473Z" fill="#597EF7"/>
<path fill-rule="evenodd" clip-rule="evenodd" d="M291.989 139.531C291.907 139.531 291.823 139.51 291.747 139.466L286.164 136.224C285.932 136.09 285.853 135.792 285.987 135.56C286.12 135.327 286.416 135.247 286.647 135.382L292.231 138.624C292.462 138.758 292.541 139.055 292.408 139.288C292.318 139.444 292.156 139.531 291.989 139.531Z" fill="#597EF7"/>
<path fill-rule="evenodd" clip-rule="evenodd" d="M294.125 131.508H287.722C287.457 131.508 287.242 131.303 287.242 131.051C287.242 130.798 287.457 130.594 287.722 130.594H294.125C294.39 130.594 294.605 130.798 294.605 131.051C294.605 131.303 294.39 131.508 294.125 131.508Z" fill="#597EF7"/>
<path fill-rule="evenodd" clip-rule="evenodd" d="M286.406 126.684C286.239 126.684 286.076 126.596 285.987 126.44C285.853 126.208 285.932 125.91 286.164 125.776L291.747 122.534C291.979 122.4 292.274 122.479 292.408 122.712C292.541 122.945 292.462 123.242 292.231 123.376L286.647 126.618C286.571 126.663 286.488 126.684 286.406 126.684Z" fill="#597EF7"/>
<path fill-rule="evenodd" clip-rule="evenodd" d="M282.802 123.078C282.72 123.078 282.636 123.057 282.56 123.013C282.327 122.88 282.247 122.584 282.382 122.353L285.624 116.769C285.758 116.538 286.055 116.459 286.288 116.592C286.521 116.726 286.6 117.022 286.466 117.253L283.224 122.836C283.134 122.991 282.97 123.078 282.802 123.078Z" fill="#597EF7"/>
<path fill-rule="evenodd" clip-rule="evenodd" d="M383.051 247.758C382.798 247.758 382.594 247.543 382.594 247.278V240.875C382.594 240.61 382.798 240.395 383.051 240.395C383.303 240.395 383.508 240.61 383.508 240.875V247.278C383.508 247.543 383.303 247.758 383.051 247.758Z" fill="#597EF7"/>
<path fill-rule="evenodd" clip-rule="evenodd" d="M378.198 249.078C378.03 249.078 377.866 248.991 377.776 248.836L374.534 243.253C374.4 243.021 374.479 242.726 374.712 242.592C374.945 242.459 375.242 242.538 375.376 242.769L378.618 248.353C378.753 248.584 378.673 248.88 378.44 249.013C378.364 249.057 378.28 249.078 378.198 249.078Z" fill="#597EF7"/>
<path fill-rule="evenodd" clip-rule="evenodd" d="M374.594 252.684C374.512 252.684 374.429 252.663 374.353 252.618L368.769 249.376C368.538 249.242 368.459 248.945 368.592 248.712C368.726 248.479 369.021 248.4 369.253 248.534L374.836 251.776C375.068 251.91 375.147 252.208 375.013 252.44C374.924 252.596 374.761 252.684 374.594 252.684Z" fill="#597EF7"/>
<path fill-rule="evenodd" clip-rule="evenodd" d="M373.278 257.508H366.875C366.61 257.508 366.395 257.303 366.395 257.051C366.395 256.798 366.61 256.594 366.875 256.594H373.278C373.543 256.594 373.758 256.798 373.758 257.051C373.758 257.303 373.543 257.508 373.278 257.508Z" fill="#597EF7"/>
<path fill-rule="evenodd" clip-rule="evenodd" d="M369.011 265.531C368.844 265.531 368.682 265.444 368.592 265.288C368.459 265.055 368.538 264.758 368.769 264.624L374.353 261.382C374.584 261.247 374.88 261.327 375.013 261.56C375.147 261.792 375.068 262.09 374.836 262.224L369.253 265.466C369.177 265.51 369.093 265.531 369.011 265.531Z" fill="#597EF7"/>
<path fill-rule="evenodd" clip-rule="evenodd" d="M374.955 271.473C374.872 271.473 374.789 271.452 374.712 271.408C374.479 271.274 374.4 270.979 374.534 270.747L377.776 265.164C377.91 264.933 378.208 264.853 378.44 264.987C378.673 265.12 378.753 265.416 378.618 265.647L375.376 271.231C375.286 271.386 375.123 271.473 374.955 271.473Z" fill="#597EF7"/>
<path fill-rule="evenodd" clip-rule="evenodd" d="M383.051 273.605C382.798 273.605 382.594 273.39 382.594 273.125V266.722C382.594 266.457 382.798 266.242 383.051 266.242C383.303 266.242 383.508 266.457 383.508 266.722V273.125C383.508 273.39 383.303 273.605 383.051 273.605Z" fill="#597EF7"/>
<path fill-rule="evenodd" clip-rule="evenodd" d="M391.045 271.473C390.877 271.473 390.714 271.386 390.624 271.231L387.382 265.647C387.247 265.416 387.327 265.12 387.56 264.987C387.792 264.853 388.09 264.933 388.224 265.164L391.466 270.747C391.6 270.979 391.521 271.274 391.288 271.408C391.211 271.452 391.128 271.473 391.045 271.473Z" fill="#597EF7"/>
<path fill-rule="evenodd" clip-rule="evenodd" d="M396.989 265.531C396.907 265.531 396.823 265.51 396.747 265.466L391.164 262.224C390.932 262.09 390.853 261.792 390.987 261.56C391.12 261.327 391.416 261.247 391.647 261.382L397.231 264.624C397.462 264.758 397.541 265.055 397.408 265.288C397.318 265.444 397.156 265.531 396.989 265.531Z" fill="#597EF7"/>
<path fill-rule="evenodd" clip-rule="evenodd" d="M399.125 257.508H392.722C392.457 257.508 392.242 257.303 392.242 257.051C392.242 256.798 392.457 256.594 392.722 256.594H399.125C399.39 256.594 399.605 256.798 399.605 257.051C399.605 257.303 399.39 257.508 399.125 257.508Z" fill="#597EF7"/>
<path fill-rule="evenodd" clip-rule="evenodd" d="M391.406 252.684C391.239 252.684 391.076 252.596 390.987 252.44C390.853 252.208 390.932 251.91 391.164 251.776L396.747 248.534C396.979 248.4 397.274 248.479 397.408 248.712C397.541 248.945 397.462 249.242 397.231 249.376L391.647 252.618C391.571 252.663 391.488 252.684 391.406 252.684Z" fill="#597EF7"/>
<path fill-rule="evenodd" clip-rule="evenodd" d="M387.802 249.078C387.72 249.078 387.636 249.057 387.56 249.013C387.327 248.88 387.247 248.584 387.382 248.353L390.624 242.769C390.758 242.538 391.055 242.459 391.288 242.592C391.521 242.726 391.6 243.022 391.466 243.253L388.224 248.836C388.134 248.991 387.97 249.078 387.802 249.078Z" fill="#597EF7"/>
<path fill-rule="evenodd" clip-rule="evenodd" d="M101.667 520.198C99.7914 520.198 98.3132 518.6 98.4592 516.73L110.672 360.257H122.375L105.135 517.331C104.956 518.963 103.578 520.198 101.936 520.198" fill="#FFC53D"/>
<path fill-rule="evenodd" clip-rule="evenodd" d="M371.291 520.198C373.167 520.198 374.645 518.6 374.499 516.73L362.287 360.257H350.584L367.824 517.331C368.003 518.963 369.381 520.198 371.023 520.198" fill="#FFC53D"/>
<path fill-rule="evenodd" clip-rule="evenodd" d="M369.209 360.257H103.751C102.787 360.257 101.886 359.782 101.34 358.989C100.006 357.048 101.395 354.405 103.751 354.405H369.209C371.565 354.405 372.955 357.048 371.62 358.989C371.075 359.782 370.173 360.257 369.209 360.257Z" fill="#FFC53D"/>
<path fill-rule="evenodd" clip-rule="evenodd" d="M362.678 364.158H110.283L110.673 360.257H362.288L362.678 364.158Z" fill="#D48806"/>
<path fill-rule="evenodd" clip-rule="evenodd" d="M178.74 349.937H195.086V337.094H178.74V349.937Z" fill="#597EF7"/>
<path fill-rule="evenodd" clip-rule="evenodd" d="M204.99 354.336H169.379C167.928 354.336 166.752 353.16 166.752 351.709C166.752 350.258 167.928 349.082 169.379 349.082H204.99C206.441 349.082 207.617 350.258 207.617 351.709C207.617 353.16 206.441 354.336 204.99 354.336Z" fill="#597EF7"/>
<path fill-rule="evenodd" clip-rule="evenodd" d="M241.833 337.928H131.212C128.496 337.928 126.295 335.727 126.295 333.011V265.591C126.295 262.875 128.496 260.674 131.212 260.674H241.833C244.548 260.674 246.749 262.875 246.749 265.591V333.011C246.749 335.727 244.548 337.928 241.833 337.928Z" fill="#253368"/>
<path d="M341.746 296.188C341.746 287.232 334.483 279.895 325.524 279.895C316.564 279.895 309.301 287.232 309.301 296.188C309.301 299.733 311.183 304.312 314.206 307.688C317.203 311.033 318.057 316.665 318.057 321.156V322.916H332.991V321.17C332.991 316.68 333.845 311.059 336.826 307.703C339.859 304.292 341.746 299.306 341.746 296.188Z" fill="#FFE58F"/>
<path d="M339.076 296.144C339.076 288.663 333.01 282.533 325.524 282.533C318.037 282.533 311.973 288.662 311.973 296.144C311.973 299.108 313.544 302.932 316.07 305.752C318.574 308.547 320.432 313.251 320.432 317.002V318.472H330.616V317.015C330.616 313.263 332.475 308.567 334.966 305.764C337.5 302.915 339.076 298.75 339.076 296.145V296.144Z" fill="#FAAD14"/>
<path d="M329.642 331.133H321.407C321.119 331.133 320.857 330.946 320.7 330.639L319.58 327.74H331.47L330.35 330.639C330.193 330.946 329.931 331.133 329.643 331.133H329.642Z" fill="#253368"/>
<path d="M331.642 316.218H319.408C318.499 316.218 317.762 316.955 317.762 317.864V327.341C317.762 328.25 318.499 328.987 319.408 328.987H331.642C332.551 328.987 333.288 328.25 333.288 327.341V317.864C333.288 316.955 332.551 316.218 331.642 316.218Z" fill="#597EF7"/>
<path d="M326.529 319.64C326.681 319.64 326.803 319.762 326.803 319.914C326.803 320.061 326.687 320.182 326.541 320.188L326.529 320.188H317.782C317.631 320.188 317.508 320.065 317.508 319.914C317.508 319.766 317.624 319.646 317.77 319.64L317.782 319.64H326.529Z" fill="white"/>
<path d="M326.529 325.316C326.681 325.316 326.803 325.439 326.803 325.591C326.803 325.738 326.687 325.858 326.541 325.865L326.529 325.865H317.782C317.631 325.865 317.508 325.742 317.508 325.591C317.508 325.443 317.624 325.323 317.77 325.317L317.782 325.316H326.529Z" fill="white"/>
<path d="M333.238 322.478C333.389 322.478 333.512 322.6 333.512 322.752C333.512 322.899 333.396 323.019 333.25 323.026L333.238 323.026H324.491C324.34 323.026 324.217 322.903 324.217 322.752C324.217 322.604 324.333 322.484 324.479 322.478L324.491 322.478H333.238Z" fill="white"/>
<path d="M326.632 289.639L320.517 298.954C320.188 299.459 320.541 300.08 321.134 300.08H323.874L320.506 306.442C320.254 306.957 320.902 307.434 321.299 307.027L330.459 297.825C330.926 297.346 330.594 296.528 329.933 296.528H325.791L327.524 290.046C327.659 289.492 326.94 289.168 326.632 289.639Z" fill="white"/>
<path fill-rule="evenodd" clip-rule="evenodd" d="M454.264 349.842C477.761 338.728 491.765 367.876 479.948 384.105C465.528 403.909 458.141 426.697 454.027 433.562C450.557 439.354 441.052 453.474 429.606 446.966C419.072 440.977 424.813 417.469 424.813 417.469C424.813 417.469 425.278 363.553 454.264 349.842Z" fill="#5B8C00"/>
<path fill-rule="evenodd" clip-rule="evenodd" d="M383.591 442.44C375.603 431.663 372.687 416.198 381.603 412.232C390.151 408.43 404.311 417.791 410.87 435.809C417.428 453.826 421.212 466.781 414.797 469.033C404.271 472.728 394.142 456.674 383.591 442.44Z" fill="#5B8C00"/>
<path fill-rule="evenodd" clip-rule="evenodd" d="M467.572 443.258C458.537 453.846 445.499 475.145 437.331 467.685C432.381 463.165 438.999 441.755 457.114 430.107C472.522 420.199 476.607 432.671 467.572 443.258Z" fill="#7CB305"/>
<path fill-rule="evenodd" clip-rule="evenodd" d="M381.117 369.785C384.552 367.473 388.875 366.945 392.818 368.209C398.322 369.971 406.675 375.22 414.941 390.286C425.734 409.957 431.352 431.521 430.241 445.18C429.515 454.113 418.51 457.964 412.354 451.451C409.526 448.459 406.535 443.848 403.608 436.853C391.828 408.704 380.815 391.064 379.501 389.293C375.997 384.566 373.492 374.915 381.117 369.785Z" fill="#7CB305"/>
<path fill-rule="evenodd" clip-rule="evenodd" d="M389.017 381.014C389.133 382.403 388.101 383.625 386.711 383.741C385.321 383.858 384.1 382.826 383.984 381.436C383.867 380.046 384.899 378.825 386.289 378.708C387.679 378.592 388.9 379.624 389.017 381.014Z" fill="white"/>
<path fill-rule="evenodd" clip-rule="evenodd" d="M410.467 391.796C410.584 393.185 409.552 394.407 408.162 394.523C406.772 394.64 405.551 393.608 405.434 392.218C405.317 390.828 406.35 389.607 407.74 389.49C409.129 389.374 410.351 390.406 410.467 391.796Z" fill="white"/>
<path fill-rule="evenodd" clip-rule="evenodd" d="M406.872 420.504C407.006 422.096 405.824 423.494 404.232 423.628C402.64 423.761 401.242 422.579 401.108 420.987C400.975 419.396 402.157 417.997 403.748 417.864C405.34 417.73 406.738 418.912 406.872 420.504Z" fill="white"/>
<path fill-rule="evenodd" clip-rule="evenodd" d="M472.757 377.601C472.757 379.86 470.926 381.691 468.667 381.691C466.408 381.691 464.577 379.86 464.577 377.601C464.577 375.342 466.408 373.511 468.667 373.511C470.926 373.511 472.757 375.342 472.757 377.601Z" fill="white"/>
<path fill-rule="evenodd" clip-rule="evenodd" d="M439.831 390.09C439.831 392.349 438 394.18 435.741 394.18C433.482 394.18 431.651 392.349 431.651 390.09C431.651 387.832 433.482 386 435.741 386C438 386 439.831 387.832 439.831 390.09Z" fill="white"/>
<path fill-rule="evenodd" clip-rule="evenodd" d="M450.495 417.854C450.495 418.798 449.73 419.563 448.786 419.563C447.841 419.563 447.076 418.798 447.076 417.854C447.076 416.909 447.841 416.144 448.786 416.144C449.73 416.144 450.495 416.909 450.495 417.854Z" fill="white"/>
<path fill-rule="evenodd" clip-rule="evenodd" d="M462.811 439.716C462.811 441.111 461.68 442.241 460.285 442.241C458.891 442.241 457.76 441.111 457.76 439.716C457.76 438.321 458.891 437.191 460.285 437.191C461.68 437.191 462.811 438.321 462.811 439.716Z" fill="white"/>
<path d="M403.824 445.317C404.059 445.093 404.432 445.102 404.656 445.337L404.764 445.453L404.845 445.544C404.994 445.709 405.165 445.907 405.358 446.137C405.905 446.79 406.514 447.569 407.168 448.476C409.034 451.058 410.897 454.139 412.635 457.714C417.595 467.917 420.57 480.034 420.57 494.023C420.57 494.349 420.306 494.612 419.981 494.612C419.656 494.612 419.392 494.349 419.392 494.023C419.392 480.219 416.46 468.276 411.576 458.229C409.868 454.717 408.04 451.694 406.214 449.165C405.614 448.334 405.055 447.614 404.55 447.006L404.456 446.893C404.312 446.723 404.182 446.571 404.065 446.438L403.917 446.273C403.863 446.213 403.824 446.172 403.804 446.15C403.579 445.914 403.588 445.542 403.824 445.317Z" fill="#253368"/>
<path d="M448.312 449.439C448.507 449.178 448.876 449.125 449.137 449.319C449.397 449.514 449.451 449.883 449.256 450.144C447.111 453.016 445.132 456.105 443.312 459.379C439.464 466.3 436.489 473.72 434.281 481.14C433.508 483.737 432.887 486.149 432.403 488.311L432.305 488.755C432.189 489.284 432.089 489.766 432.005 490.198L431.95 490.481L431.852 491.015C431.798 491.336 431.494 491.552 431.174 491.498C430.853 491.444 430.637 491.141 430.691 490.82L430.724 490.63C430.752 490.477 430.785 490.297 430.826 490.091L430.923 489.6C431.018 489.133 431.128 488.617 431.253 488.054L431.36 487.581C431.834 485.517 432.427 483.241 433.152 480.804C435.383 473.307 438.389 465.809 442.283 458.806C444.128 455.488 446.135 452.355 448.312 449.439Z" fill="#253368"/>
<path d="M458.603 375.97C458.828 376.186 458.845 376.539 458.647 376.774L458.621 376.803C458.609 376.815 458.584 376.841 458.546 376.882L458.402 377.04L458.317 377.134C458.064 377.416 457.769 377.756 457.437 378.154C456.483 379.295 455.419 380.668 454.273 382.273C450.991 386.867 447.707 392.401 444.641 398.879C439.536 409.666 435.56 421.968 433.151 435.798C430.225 452.591 429.74 470.937 432.135 490.847C432.174 491.17 431.944 491.464 431.621 491.502C431.298 491.541 431.005 491.311 430.966 490.988C428.557 470.963 429.045 452.502 431.991 435.595C434.419 421.659 438.427 409.256 443.577 398.375C446.673 391.832 449.993 386.238 453.314 381.588L453.572 381.23C454.596 379.812 455.553 378.578 456.425 377.529L456.533 377.399C456.846 377.024 457.127 376.699 457.374 376.422L457.441 376.347C457.518 376.261 457.587 376.185 457.647 376.12L457.77 375.988C457.995 375.753 458.368 375.745 458.603 375.97Z" fill="#253368"/>
<path d="M407.631 410.891C407.91 410.722 408.272 410.811 408.44 411.089L408.499 411.189C408.546 411.268 408.602 411.363 408.665 411.474L408.758 411.635C408.916 411.913 409.093 412.232 409.289 412.592L409.45 412.892C410.049 414.007 410.706 415.297 411.407 416.758L411.502 416.958C413.788 421.748 416.073 427.348 418.205 433.712C424.174 451.53 427.806 471.755 427.941 494.02C427.943 494.345 427.681 494.61 427.356 494.612C427.031 494.614 426.766 494.352 426.764 494.027C426.629 471.892 423.019 451.791 417.088 434.086C415.01 427.884 412.788 422.415 410.563 417.725L410.44 417.466C409.679 415.873 408.971 414.482 408.333 413.301L408.141 412.947C407.956 412.611 407.79 412.315 407.644 412.061L407.575 411.941L407.433 411.7C407.264 411.422 407.353 411.06 407.631 410.891Z" fill="#253368"/>
<path fill-rule="evenodd" clip-rule="evenodd" d="M452.953 523.233H402.052C399.3 523.233 397.049 520.982 397.049 518.23V481.096C397.049 478.344 399.3 476.093 402.052 476.093H452.953C455.704 476.093 457.955 478.344 457.955 481.096V518.23C457.955 520.982 455.704 523.233 452.953 523.233Z" fill="#253368"/>
<path fill-rule="evenodd" clip-rule="evenodd" d="M461.214 109.32H334.766V97.9658C334.766 95.5028 336.758 93.5059 339.216 93.5059H456.764C459.222 93.5059 461.214 95.5028 461.214 97.9658V109.32Z" fill="#253368"/>
<path fill-rule="evenodd" clip-rule="evenodd" d="M456.764 218.644H339.216C336.758 218.644 334.766 216.647 334.766 214.184V107.99H461.214V214.184C461.214 216.647 459.222 218.644 456.764 218.644Z" fill="#E4EBF7"/>
<path fill-rule="evenodd" clip-rule="evenodd" d="M345.041 100.866C345.041 102.412 343.791 103.665 342.248 103.665C340.705 103.665 339.455 102.412 339.455 100.866C339.455 99.3206 340.705 98.0674 342.248 98.0674C343.791 98.0674 345.041 99.3206 345.041 100.866Z" fill="#FF7946"/>
<path fill-rule="evenodd" clip-rule="evenodd" d="M355.473 100.866C355.473 102.412 354.222 103.665 352.68 103.665C351.137 103.665 349.887 102.412 349.887 100.866C349.887 99.3206 351.137 98.0674 352.68 98.0674C354.222 98.0674 355.473 99.3206 355.473 100.866Z" fill="#FAAD14"/>
<path fill-rule="evenodd" clip-rule="evenodd" d="M365.902 100.866C365.902 102.412 364.652 103.665 363.109 103.665C361.567 103.665 360.316 102.412 360.316 100.866C360.316 99.3206 361.567 98.0674 363.109 98.0674C364.652 98.0674 365.902 99.3206 365.902 100.866Z" fill="#7CB305"/>
<path fill-rule="evenodd" clip-rule="evenodd" d="M348.432 203.593C347.665 203.593 347.043 202.97 347.043 202.202V121.588C347.043 120.82 347.665 120.197 348.432 120.197H448.928C449.695 120.197 450.317 120.82 450.317 121.588V202.202C450.317 202.97 449.695 203.593 448.928 203.593H348.432Z" fill="white"/>
<path d="M381.946 155.336C382.524 154.841 383.4 154.952 383.838 155.567L383.86 155.6L404.083 185.912L419.726 174.921C419.912 174.791 420.128 174.711 420.353 174.691L420.401 174.688L441.07 173.609C441.782 173.572 442.39 174.119 442.427 174.831C442.463 175.531 441.936 176.13 441.242 176.186L441.205 176.188L420.907 177.247L404.486 188.786C403.903 189.195 403.102 189.055 402.692 188.478L402.669 188.446L382.52 158.244L358.971 178.406C358.439 178.861 357.644 178.809 357.176 178.294L357.15 178.265C356.695 177.733 356.747 176.938 357.262 176.47L357.291 176.444L381.946 155.336Z" fill="#FF7946"/>
<path d="M438.009 137.042C438.407 136.45 439.209 136.292 439.801 136.689C440.382 137.079 440.545 137.859 440.175 138.448L440.154 138.48L421.765 165.9C421.304 166.588 420.327 166.668 419.76 166.074L419.733 166.044L398.715 142.659L384.145 152.489C383.94 152.628 383.699 152.704 383.451 152.71L383.402 152.71L358.11 152.296C357.397 152.285 356.829 151.697 356.84 150.984C356.852 150.284 357.419 149.723 358.115 149.714L358.152 149.714L383.038 150.121L398.202 139.89C398.725 139.537 399.424 139.614 399.857 140.067L399.884 140.097L420.544 163.084L438.009 137.042Z" fill="#FAAD14"/>
<path d="M406.152 154.602C406.475 154.32 406.915 154.217 407.327 154.324L407.37 154.336L420.834 158.329L440.68 155.167C441.372 155.057 442.023 155.518 442.152 156.203L442.158 156.239C442.268 156.931 441.807 157.582 441.123 157.711L441.086 157.718L420.952 160.926C420.778 160.953 420.602 160.945 420.432 160.902L420.381 160.889L407.317 157.013L384.617 176.867C384.198 177.233 383.595 177.289 383.117 177.011L383.082 176.99L355.962 160.021C355.357 159.643 355.174 158.846 355.552 158.242C355.924 157.648 356.698 157.461 357.299 157.812L357.332 157.832L383.638 174.292L406.152 154.602Z" fill="#597EF7"/>
<path fill-rule="evenodd" clip-rule="evenodd" d="M382.869 130.751H357.429C356.387 130.751 355.535 129.897 355.535 128.854C355.535 127.81 356.387 126.956 357.429 126.956H382.869C383.91 126.956 384.762 127.81 384.762 128.854C384.762 129.897 383.91 130.751 382.869 130.751Z" fill="#CCD7EE"/>
<path fill-rule="evenodd" clip-rule="evenodd" d="M368.16 139.7H358.693C357.647 139.7 356.799 138.851 356.799 137.803C356.799 136.755 357.647 135.905 358.693 135.905H368.16C369.206 135.905 370.054 136.755 370.054 137.803C370.054 138.851 369.206 139.7 368.16 139.7Z" fill="#CCD7EE"/>
<path d="M436.757 180.991C432.323 180.991 428.738 184.634 428.738 189.117C428.738 193.599 432.323 197.242 436.757 197.242C441.191 197.242 444.775 193.598 444.775 189.117C444.775 184.635 441.191 180.991 436.757 180.991ZM436.757 184.048C439.492 184.048 441.719 186.312 441.719 189.117C441.719 191.921 439.492 194.185 436.757 194.185C434.022 194.185 431.795 191.921 431.795 189.117C431.795 186.311 434.022 184.048 436.757 184.048Z" fill="#CCD7EE"/>
<path d="M442.09 184.831C442.866 184.499 443.764 184.859 444.096 185.634C444.542 186.677 444.775 187.812 444.775 188.978C444.775 189.933 444.619 190.867 444.316 191.749C444.042 192.547 443.173 192.973 442.375 192.699C441.589 192.429 441.165 191.583 441.413 190.796L441.425 190.757C441.618 190.194 441.719 189.595 441.719 188.978C441.719 188.257 441.582 187.561 441.32 186.92L441.286 186.837C440.954 186.061 441.314 185.163 442.09 184.831Z" fill="#597EF7"/>
</svg>
