<svg width="34" height="57" viewBox="0 0 34 57" fill="none" xmlns="http://www.w3.org/2000/svg">
<path fill-rule="evenodd" clip-rule="evenodd" d="M17.3315 52C12.0787 52 7.86115 47.3461 8.0035 41.7069L8.26641 31.2625C8.35496 27.7768 11.0113 25 14.2583 25H19.7236C22.9705 25 25.6269 27.7768 25.7148 31.2625L25.9968 42.4377C26.1289 47.6768 22.2111 52 17.3315 52Z" fill="#997C79"/>
<path fill-rule="evenodd" clip-rule="evenodd" d="M6.71635 23.3491C7.47693 26.0016 6.6165 27.6252 5.22139 27.9457C3.42332 28.3588 1.47726 26.3616 0.535381 23.7766C-0.799533 20.1141 0.535377 17.8966 2.62875 18.0037C4.36095 18.0926 5.95577 20.6965 6.71635 23.3491Z" fill="#997C79"/>
<path fill-rule="evenodd" clip-rule="evenodd" d="M27.2836 23.3491C26.5231 26.0016 27.3835 27.6252 28.7791 27.9457C30.5763 28.3588 32.5222 26.3616 33.4647 23.7766C34.7995 20.1141 33.4647 17.8966 31.3708 18.0037C29.6388 18.0926 28.0441 20.6965 27.2836 23.3491Z" fill="#997C79"/>
<path fill-rule="evenodd" clip-rule="evenodd" d="M31 19.5C31 30.2694 25.6516 39 17.0239 39C8.90829 39 3.53978 30.2578 3.04781 19.5C2.37415 4.75504 8.90829 0 17.0239 0C25.1395 0 31 5.02717 31 19.5Z" fill="#997C79"/>
<path fill-rule="evenodd" clip-rule="evenodd" d="M6.12395 8.14019L27.6552 8.0897C27.6552 8.0897 28.0838 10.5261 28.3803 14.2154C31.1502 17.4308 30.5564 22 30.5564 22C30.5564 22 34.8102 0 16.9721 0C-1.19554 0 3.56209 22 3.56209 22C3.56209 15.7048 5.43184 14.408 5.43184 14.408C5.43184 14.408 5.72836 11.7451 6.12395 8.14019Z" fill="#604346"/>
<path d="M7.49929 15L13.6823 15.5524C13.8686 15.569 14.0105 15.8077 13.9994 16.0856C13.9892 16.3403 13.8538 16.5394 13.6879 16.558L13.642 16.5585L7.56056 16.0151L6.50808 16.9313C6.36034 17.0598 6.17421 17.0023 6.07182 16.8066L6.04606 16.7498C5.95989 16.5294 5.99847 16.2518 6.12965 16.099L6.1677 16.0606L7.3089 15.0677C7.3521 15.0301 7.40016 15.0075 7.44956 15.001L7.49929 15Z" fill="#604346"/>
<path d="M25.5001 15C25.5467 14.9991 25.5927 15.0122 25.6354 15.0383L25.6769 15.0686L26.8305 16.061C26.9934 16.2012 27.0485 16.5096 26.9534 16.7499C26.8663 16.9702 26.6834 17.0568 26.528 16.9618L26.4864 16.9313L25.4153 16.0095L19.3463 16.1344C19.1734 16.138 19.0288 15.9514 19.0038 15.706L19 15.6377C18.9977 15.3827 19.1241 15.1693 19.2905 15.1325L19.3368 15.127L25.5001 15Z" fill="#604346"/>
<path fill-rule="evenodd" clip-rule="evenodd" d="M4 26.2191C4 26.2191 5.24003 26.4457 6.0073 27.7289C6.91147 29.238 8.31693 31.3518 8.31693 31.3518C8.31693 31.3518 9.11058 28.1979 11.1692 27.097C12.4043 26.4365 14.239 25.9318 16.9501 26.0075C19.5086 26.0783 21.292 26.6624 22.5213 27.3643C24.5707 28.5346 25.7836 31.6535 25.7836 31.6535C25.7836 31.6535 26.8882 30.4461 27.7916 28.433C28.683 26.4479 28.6951 26.6216 30 26.3199C28.7949 32.3583 24.4787 39 16.8495 39C7.94899 39 5.10455 30.4461 4 26.2191Z" fill="#7C5B4D"/>
<path d="M17.7179 32C17.8737 32 18 32.2239 18 32.5C18 32.7485 17.8977 32.9547 17.7637 32.9935L17.7179 33H15.2821C15.1263 33 15 32.7761 15 32.5C15 32.2515 15.1023 32.0453 15.2363 32.0066L15.2821 32H17.7179Z" fill="#604346"/>
<path d="M14.2746 16.0138C14.4585 15.9641 14.6494 16.0528 14.724 16.2145L14.7413 16.2604L15.3798 18.3898C15.3878 18.4164 15.3925 18.4437 15.3938 18.4713L15.3933 18.5126L14.8992 25.2832L18.6222 25.2833C18.8135 25.2833 18.9715 25.4181 18.9965 25.593L19 25.6416C19 25.8231 18.8579 25.973 18.6735 25.9967L18.6222 26H14.495C14.2929 26 14.1299 25.8501 14.1179 25.6641L14.1181 25.6169L14.6348 18.5249L14.0145 16.4565C13.9622 16.282 14.0557 16.1009 14.2262 16.0302L14.2746 16.0138Z" fill="#604346"/>
<path fill-rule="evenodd" clip-rule="evenodd" d="M12 21C12 22.1047 11.3287 23 10.5 23C9.67131 23 9 22.1047 9 21C9 19.8953 9.67131 19 10.5 19C11.3287 19 12 19.8953 12 21Z" fill="#604346"/>
<path fill-rule="evenodd" clip-rule="evenodd" d="M24 21C24 22.1047 23.5525 23 23 23C22.4475 23 22 22.1047 22 21C22 19.8953 22.4475 19 23 19C23.5525 19 24 19.8953 24 21Z" fill="#604346"/>
<path fill-rule="evenodd" clip-rule="evenodd" d="M13 29C13 29 15.7547 29.1635 20 29.0257C20 29.0257 19.3113 30.0565 16.2616 29.9976C13.8692 29.9511 13 29 13 29Z" fill="white"/>
<path d="M12.2883 28.0018C12.079 27.9748 11.9317 28.2627 12.0324 28.5021C12.1706 28.8307 12.4603 29.302 12.9282 29.7684C13.6555 30.4934 14.5871 30.9456 15.737 30.9941C17.256 31.0578 18.385 30.6028 19.1735 29.7964C19.6272 29.3325 19.8782 28.8596 19.9811 28.5251C20.0519 28.2948 19.9146 28.0469 19.7236 28.0604C17.4001 28.2242 15.3316 28.2211 13.5962 28.1134L13.3101 28.0945C13.0774 28.0782 12.868 28.0609 12.6828 28.0435L12.3138 28.005C12.3041 28.0038 12.2956 28.0027 12.2883 28.0018ZM12.8265 28.737L13.1657 28.7642L13.5708 28.7917C15.1287 28.8883 16.9503 28.9015 18.9809 28.7873L19.2414 28.7714L19.2249 28.798C19.1207 28.9562 18.9961 29.113 18.8491 29.2633C18.1601 29.9679 17.1523 30.3741 15.754 30.3154C14.7165 30.2716 13.8899 29.8704 13.2475 29.2301C13.0895 29.0726 12.9505 28.9079 12.8265 28.737Z" fill="#604346"/>
<path d="M9.06774 36.0814C9.16498 35.9802 9.3311 35.9723 9.43877 36.0636C11.1897 37.5492 13.5701 38.5064 16.6457 38.5064C19.7475 38.5064 22.0097 37.5716 23.5539 36.1564C23.6577 36.0612 23.824 36.0631 23.9254 36.1607C24.0267 36.2583 24.0246 36.4145 23.9207 36.5097C22.2819 38.0117 19.8902 39 16.6457 39C13.4325 39 10.9295 37.9936 9.08664 36.43C8.97896 36.3386 8.9705 36.1826 9.06774 36.0814Z" fill="#604346"/>
<path fill-rule="evenodd" clip-rule="evenodd" d="M8.09981 43L4 47.2188L10.3947 57L18 49.4962L8.09981 43Z" fill="#ADC6FF"/>
<path fill-rule="evenodd" clip-rule="evenodd" d="M26.9002 43L31 47.2188L24.6053 57L17 49.4962L26.9002 43Z" fill="#ADC6FF"/>
</svg>
