<svg width="465" height="520" viewBox="0 0 465 520" fill="none" xmlns="http://www.w3.org/2000/svg">
<path d="M426 476.001H50C43.3726 476.001 38 481.374 38 488.001C38 494.628 43.3726 500.001 50 500.001H426C432.627 500.001 438 494.628 438 488.001C438 481.374 432.627 476.001 426 476.001Z" fill="#E4EBF7"/>
<circle cx="230.323" cy="235.323" r="215.603" transform="rotate(180 230.323 235.323)" fill="url(#paint0_linear)"/>
<path fill-rule="evenodd" clip-rule="evenodd" d="M448.716 50.8681H184.242V27.1202C184.242 21.9687 188.41 17.792 193.551 17.792H439.407C444.548 17.792 448.716 21.9687 448.716 27.1202V50.8681Z" fill="#253368"/>
<path fill-rule="evenodd" clip-rule="evenodd" d="M439.407 279.524H193.551C188.41 279.524 184.242 275.348 184.242 270.196V48.0869H448.716V270.196C448.716 275.348 444.548 279.524 439.407 279.524Z" fill="#E4EBF7"/>
<path fill-rule="evenodd" clip-rule="evenodd" d="M205.734 33.1853C205.734 36.4182 203.119 39.0394 199.892 39.0394C196.666 39.0394 194.051 36.4182 194.051 33.1853C194.051 29.9523 196.666 27.3311 199.892 27.3311C203.119 27.3311 205.734 29.9523 205.734 33.1853Z" fill="#FF7946"/>
<path fill-rule="evenodd" clip-rule="evenodd" d="M227.55 33.1853C227.55 36.4182 224.935 39.0394 221.709 39.0394C218.482 39.0394 215.867 36.4182 215.867 33.1853C215.867 29.9523 218.482 27.3311 221.709 27.3311C224.935 27.3311 227.55 29.9523 227.55 33.1853Z" fill="#FAAD14"/>
<path fill-rule="evenodd" clip-rule="evenodd" d="M249.369 33.1853C249.369 36.4182 246.754 39.0394 243.527 39.0394C240.301 39.0394 237.686 36.4182 237.686 33.1853C237.686 29.9523 240.301 27.3311 243.527 27.3311C246.754 27.3311 249.369 29.9523 249.369 33.1853Z" fill="#7CB305"/>
<path fill-rule="evenodd" clip-rule="evenodd" d="M212.827 248.043C211.222 248.043 209.922 246.741 209.922 245.134V76.5257C209.922 74.9195 211.222 73.6172 212.827 73.6172H423.02C424.624 73.6172 425.925 74.9195 425.925 76.5257V245.134C425.925 246.741 424.624 248.043 423.02 248.043H212.827Z" fill="white"/>
<path d="M282.922 147.111C284.131 146.076 285.962 146.308 286.877 147.595L286.925 147.664L329.222 211.064L361.94 188.074C362.328 187.802 362.78 187.636 363.251 187.594L363.352 187.587L406.582 185.331C408.072 185.253 409.342 186.398 409.42 187.887C409.496 189.35 408.393 190.602 406.942 190.72L406.864 190.725L364.409 192.94L330.064 217.074C328.845 217.93 327.169 217.636 326.312 216.431L326.265 216.363L284.121 153.194L234.867 195.363C233.755 196.315 232.092 196.206 231.114 195.13L231.059 195.068C230.107 193.956 230.217 192.294 231.293 191.315L231.354 191.261L282.922 147.111Z" fill="#FF7946"/>
<path d="M400.18 108.848C401.011 107.609 402.689 107.279 403.927 108.109C405.144 108.925 405.484 110.557 404.71 111.788L404.666 111.856L366.205 169.207C365.241 170.645 363.198 170.812 362.011 169.57L361.954 169.508L317.993 120.596L287.521 141.157C287.091 141.447 286.587 141.606 286.07 141.618L285.966 141.618L233.067 140.753C231.576 140.729 230.387 139.5 230.411 138.009C230.435 136.544 231.621 135.37 233.077 135.353L233.155 135.353L285.204 136.203L316.921 114.804C318.014 114.066 319.477 114.228 320.383 115.176L320.44 115.238L363.651 163.317L400.18 108.848Z" fill="#FAAD14"/>
<path d="M333.553 145.577C334.227 144.988 335.147 144.772 336.01 144.996L336.099 145.021L364.261 153.374L405.769 146.761C407.216 146.53 408.577 147.495 408.847 148.926L408.86 149.003C409.091 150.45 408.126 151.811 406.696 152.081L406.618 152.094L364.506 158.804C364.144 158.862 363.774 158.845 363.419 158.756L363.313 158.727L335.989 150.622L288.51 192.147C287.635 192.912 286.372 193.03 285.374 192.449L285.299 192.404L228.577 156.913C227.313 156.122 226.929 154.455 227.72 153.191C228.497 151.95 230.117 151.557 231.373 152.292L231.442 152.334L286.464 186.761L333.553 145.577Z" fill="#597EF7"/>
<path fill-rule="evenodd" clip-rule="evenodd" d="M284.851 95.6914H231.642C229.463 95.6914 227.682 93.9054 227.682 91.7226C227.682 89.5395 229.463 87.7539 231.642 87.7539H284.851C287.029 87.7539 288.811 89.5395 288.811 91.7226C288.811 93.9054 287.029 95.6914 284.851 95.6914Z" fill="#CCD7EE"/>
<path fill-rule="evenodd" clip-rule="evenodd" d="M254.088 114.409H234.285C232.098 114.409 230.324 112.632 230.324 110.44C230.324 108.248 232.098 106.472 234.285 106.472H254.088C256.275 106.472 258.048 108.248 258.048 110.44C258.048 112.632 256.275 114.409 254.088 114.409Z" fill="#CCD7EE"/>
<path d="M397.56 200.771C388.286 200.771 380.789 208.391 380.789 217.765C380.789 227.139 388.286 234.759 397.56 234.759C406.835 234.759 414.332 227.139 414.332 217.765C414.332 208.391 406.835 200.771 397.56 200.771ZM397.56 207.163C403.281 207.163 407.939 211.898 407.939 217.765C407.939 223.632 403.281 228.366 397.56 228.366C391.84 228.366 387.182 223.632 387.182 217.765C387.182 211.898 391.84 207.163 397.56 207.163Z" fill="#CCD7EE"/>
<path d="M408.715 208.801C410.338 208.107 412.217 208.86 412.911 210.483C413.844 212.663 414.333 215.037 414.333 217.477C414.333 219.473 414.005 221.428 413.373 223.272C412.8 224.942 410.982 225.831 409.312 225.258C407.669 224.694 406.782 222.925 407.299 221.278L407.326 221.197C407.73 220.02 407.94 218.766 407.94 217.477C407.94 215.969 407.653 214.511 407.107 213.172L407.034 212.998C406.339 211.375 407.092 209.496 408.715 208.801Z" fill="#597EF7"/>
<path fill-rule="evenodd" clip-rule="evenodd" d="M110.329 378.114C110.329 383.811 105.711 388.43 100.014 388.43C94.3164 388.43 89.6973 383.811 89.6973 378.114C89.6973 372.416 94.3164 367.798 100.014 367.798C105.711 367.798 110.329 372.416 110.329 378.114Z" fill="#253368"/>
<path fill-rule="evenodd" clip-rule="evenodd" d="M98.0781 470.956H102.071V381.194H98.0781V470.956Z" fill="#253368"/>
<path fill-rule="evenodd" clip-rule="evenodd" d="M98.0799 470.956L51.5719 478.702L48.5703 476.535L98.0799 461.952V470.956Z" fill="#253368"/>
<path fill-rule="evenodd" clip-rule="evenodd" d="M102.072 470.956L148.58 478.702L151.581 476.535L102.072 461.952V470.956Z" fill="#253368"/>
<path fill-rule="evenodd" clip-rule="evenodd" d="M96.9082 481.37H103.244V468.364H96.9082V481.37Z" fill="#253368"/>
<path fill-rule="evenodd" clip-rule="evenodd" d="M55.9285 481.543C55.9285 484.513 53.5208 486.92 50.5514 486.92C47.5815 486.92 45.1738 484.513 45.1738 481.543C45.1738 478.573 47.5815 476.166 50.5514 476.166C53.5208 476.166 55.9285 478.573 55.9285 481.543Z" fill="#253368"/>
<path fill-rule="evenodd" clip-rule="evenodd" d="M105.452 481.543C105.452 484.513 103.044 486.92 100.074 486.92C97.1049 486.92 94.6973 484.513 94.6973 481.543C94.6973 478.573 97.1049 476.166 100.074 476.166C103.044 476.166 105.452 478.573 105.452 481.543Z" fill="#253368"/>
<path fill-rule="evenodd" clip-rule="evenodd" d="M155.448 481.543C155.448 484.513 153.04 486.92 150.07 486.92C147.101 486.92 144.693 484.513 144.693 481.543C144.693 478.573 147.101 476.166 150.07 476.166C153.04 476.166 155.448 478.573 155.448 481.543Z" fill="#253368"/>
<path fill-rule="evenodd" clip-rule="evenodd" d="M164.677 376.219H35.3516C35.3516 363.508 45.6555 353.204 58.3665 353.204H141.662C154.373 353.204 164.677 363.508 164.677 376.219Z" fill="#A3B5D6"/>
<path fill-rule="evenodd" clip-rule="evenodd" d="M140.969 291.111C140.969 291.111 139.999 307.262 125.239 306.121C110.188 304.959 111.806 288.657 111.806 288.657C111.806 288.657 111.074 278.524 112.123 264.898C112.944 254.249 114.205 240.343 115.379 233.581C116.644 226.282 123.361 221.466 130.274 222C140.781 222.812 144.345 231.288 144.112 238.654C143.886 245.817 143.547 257.604 143.122 265.493C142.307 280.663 140.969 291.111 140.969 291.111Z" fill="#ADC6FF"/>
<path fill-rule="evenodd" clip-rule="evenodd" d="M173.922 310.81C175.698 317.451 190.471 315.196 190.471 315.196L197.712 321.098C198.859 321.892 199.351 321.118 199.975 321.26C201.657 321.644 202.06 319.875 202.06 319.875C202.703 319.731 203.535 320.389 204.152 318.846C204.152 318.846 205.35 319.029 205.758 317.617C205.912 317.092 203.6 309.98 202.22 305.819C201.613 303.992 200.034 302.664 198.133 302.377L180.453 299.712C180.453 299.712 171.532 301.876 173.922 310.81Z" fill="#C99382"/>
<path d="M189.385 310.56C189.183 310.474 188.949 310.568 188.863 310.77C188.786 310.95 188.852 311.155 189.009 311.259L189.072 311.293L194.295 313.525L199.509 320.713C199.624 320.871 199.833 320.92 200.003 320.838L200.065 320.801C200.222 320.686 200.271 320.477 200.189 320.307L200.153 320.245L194.874 312.968C194.846 312.929 194.811 312.896 194.771 312.87L194.708 312.836L189.385 310.56Z" fill="#9B6160"/>
<path d="M192.936 308.368C192.744 308.26 192.502 308.328 192.394 308.519C192.298 308.689 192.341 308.9 192.486 309.021L192.545 309.062L197.339 311.766L201.589 319.208C201.686 319.378 201.889 319.449 202.066 319.386L202.132 319.356C202.301 319.259 202.372 319.056 202.309 318.878L202.279 318.813L197.975 311.276C197.951 311.234 197.92 311.197 197.884 311.167L197.825 311.127L192.936 308.368Z" fill="#9B6160"/>
<path d="M196.376 306.34C196.204 306.203 195.954 306.233 195.818 306.405C195.697 306.558 195.706 306.773 195.831 306.915L195.883 306.964L199.112 309.521L202.989 317.508C203.074 317.684 203.272 317.768 203.453 317.717L203.52 317.692C203.696 317.606 203.78 317.409 203.73 317.227L203.704 317.16L199.786 309.091C199.769 309.055 199.746 309.022 199.719 308.993L199.675 308.953L196.376 306.34Z" fill="#9B6160"/>
<path fill-rule="evenodd" clip-rule="evenodd" d="M127.036 279.84C127.036 279.84 112.16 276.708 109.139 289.068C106.025 301.817 120.155 305.483 120.155 305.483C120.155 305.483 130.163 307.818 142.484 310.749C150.005 312.539 158.351 314.348 164.598 314.792C171.362 315.273 172.892 311.809 174.402 305.628C176.196 298.288 176.191 295.073 169.929 292.557C163.959 290.158 155.566 287.998 149.137 286.029C136.879 282.276 127.036 279.84 127.036 279.84Z" fill="#ADC6FF"/>
<path fill-rule="evenodd" clip-rule="evenodd" d="M177.518 313.791L181.01 299.498L171.617 296.105L167.621 312.457L177.518 313.791Z" fill="#ADC6FF"/>
<path fill-rule="evenodd" clip-rule="evenodd" d="M187.808 339.943C158.264 332.259 127.645 324.616 103.149 319.095C103.149 319.095 84.6615 318.084 83.6838 334.979C82.7269 351.539 102.699 356.458 102.699 356.458L182.927 368.944C182.927 368.944 196.015 370.832 198.203 356.292C200.196 343.028 187.808 339.943 187.808 339.943Z" fill="#597EF7"/>
<path fill-rule="evenodd" clip-rule="evenodd" d="M182.602 418.211C177.357 417.158 172.502 421.274 172.688 426.627C172.901 432.786 173.147 441.108 173.29 450.072C173.438 459.298 173.579 466.944 174.238 467.915C177.144 472.193 182.948 473.785 188.914 478.023C193.635 481.378 194.45 482.972 200.466 484.1C208.994 485.7 205.019 482.077 195.55 470.62C187.113 460.414 187.681 455.627 187.681 455.627L189.251 426.801C189.475 422.682 186.642 419.023 182.602 418.211Z" fill="#C99382"/>
<path fill-rule="evenodd" clip-rule="evenodd" d="M194.695 467.911C200.857 474.768 207.918 480.187 207.747 483.443C207.575 486.7 205.011 489.64 194.403 485.872C187.144 483.292 189.222 481.732 182.292 477.218C178.832 474.963 177.57 475.206 174.38 472.583C172.551 470.228 173.374 458.792 173.374 458.792L185.517 472.116C185.517 472.116 182.36 465.91 184.955 464.565C187.549 463.22 189.937 462.304 191.468 463.408C192.997 464.511 194.695 467.911 194.695 467.911Z" fill="#7D4556"/>
<path fill-rule="evenodd" clip-rule="evenodd" d="M200.707 356.517C196.725 404.922 192.192 452.285 192.192 452.285L171.725 452.272L168.528 354.775C168.528 354.775 170.322 343.587 186.132 341.551C200.672 339.677 200.707 356.517 200.707 356.517Z" fill="#597EF7"/>
<path fill-rule="evenodd" clip-rule="evenodd" d="M53.9136 340.981C55.7559 321.455 56.2442 311.416 58.4304 307.749C105.429 309.094 117.137 308.475 117.137 308.475C117.137 308.475 117.616 315.382 119.781 336.642C119.781 336.642 105.311 363.043 86.6391 363.043C69.8048 363.043 53.9136 340.981 53.9136 340.981Z" fill="#597EF7"/>
<path fill-rule="evenodd" clip-rule="evenodd" d="M58.4303 307.749L59.3192 298.894L116.869 299.585L117.137 308.454C117.137 308.454 86.6794 309.628 58.4303 307.749Z" fill="#597EF7"/>
<path fill-rule="evenodd" clip-rule="evenodd" d="M84.3038 190.523C84.3038 190.523 76.3103 185.618 79.5111 176.904C76.2699 169.116 80.8259 164.638 80.8259 164.638C80.8259 164.638 81.4861 154.663 88.1199 154.433C92.7925 144.403 104.219 149.003 104.219 149.003C104.219 149.003 111.961 143.296 122.183 152.163C129.95 152.834 130.174 148.967 132.54 151.784C134.906 154.599 135.707 160.955 132.247 163.266C137.877 166.038 132.174 174.93 132.174 174.93C132.174 174.93 133.79 180.325 126.954 183.978C120.117 187.631 116.959 200.104 105.73 203.512C94.9244 206.792 83.8444 202.823 84.3038 190.523Z" fill="#7D4556"/>
<path fill-rule="evenodd" clip-rule="evenodd" d="M87.5633 209.459L90.8115 192.39L113.447 196.406L112.89 211.466C112.642 218.189 106.906 223.384 100.199 222.958C100.071 222.95 99.9443 222.942 99.815 222.934C92.9573 222.502 86.7276 216.288 87.5633 209.459Z" fill="#C99382"/>
<path fill-rule="evenodd" clip-rule="evenodd" d="M96.9115 166.331C96.9115 166.331 98.1373 172.456 93.407 173.854C94.08 181.738 90.6864 180.993 90.6864 180.993C90.6864 180.993 85.3558 173.921 81.5086 179.948C77.8529 185.674 83.8645 194.307 89.5932 193.088C98.8369 208.486 117.831 209.576 124.295 199.701C128.222 193.7 126.98 184.854 127.535 180.718C128.902 170.553 127.078 167.436 127.078 167.436C127.078 167.436 123.173 168.197 118.977 164.929C114.351 168.237 107.868 164.771 107.868 164.771C107.868 164.771 103.382 170.302 96.9115 166.331Z" fill="#C99382"/>
<path d="M86.347 181.204C85.04 180.924 84.1389 181.249 83.6434 181.984C83.4216 182.313 83.3296 182.639 83.309 182.878C83.2884 183.117 83.4648 183.327 83.703 183.347C83.9412 183.368 84.1509 183.191 84.1715 182.953C84.1806 182.848 84.2344 182.657 84.3609 182.469C84.6513 182.039 85.1926 181.843 86.1662 182.052C87.085 182.248 87.8458 182.959 88.2858 183.907C88.4699 184.303 88.5754 184.705 88.5875 185.022C88.5963 185.253 88.5559 185.372 88.5476 185.376C87.6552 185.866 86.9577 186.574 86.7258 187.356C86.4285 188.359 86.9095 189.338 88.1724 190.154C88.3733 190.284 88.6412 190.226 88.7708 190.025C88.9004 189.824 88.8426 189.555 88.6418 189.426C87.6766 188.802 87.3795 188.197 87.5558 187.603C87.7121 187.075 88.253 186.527 88.9636 186.136C90.4012 185.348 88.7128 181.71 86.347 181.204Z" fill="#9B6160"/>
<path d="M87.6225 184.39C87.2227 184.342 86.8088 184.327 86.4141 184.367C85.3419 184.474 84.6195 184.974 84.6237 185.977C84.6247 186.216 84.8193 186.409 85.0584 186.408C85.2975 186.407 85.4905 186.213 85.4895 185.973C85.4876 185.525 85.8166 185.298 86.5005 185.229C86.8231 185.197 87.1769 185.209 87.5187 185.251L87.6759 185.272C87.7192 185.278 87.753 185.284 87.7758 185.289C88.0105 185.334 88.2376 185.181 88.283 184.946C88.3285 184.711 88.175 184.483 87.9403 184.438L87.7778 184.411C87.7319 184.404 87.6799 184.397 87.6225 184.39Z" fill="#9B6160"/>
<path fill-rule="evenodd" clip-rule="evenodd" d="M111.921 180.605C111.561 184.766 107.903 187.847 103.746 187.489C99.5906 187.129 96.5132 183.465 96.8722 179.304C97.23 175.143 100.89 172.061 105.046 172.42C109.202 172.78 112.28 176.444 111.921 180.605Z" fill="white"/>
<path d="M105.091 171.889C109.54 172.274 112.834 176.196 112.45 180.651C112.064 185.105 108.148 188.403 103.699 188.019C99.2512 187.635 95.9568 183.712 96.3411 179.258C96.7179 174.877 100.515 171.613 104.872 171.873L105.091 171.889ZM97.4014 179.349C97.0677 183.217 99.9284 186.624 103.791 186.958C107.654 187.291 111.055 184.427 111.39 180.559C111.723 176.691 108.863 173.285 104.999 172.951C101.136 172.616 97.734 175.482 97.4014 179.349Z" fill="#7D4556"/>
<path fill-rule="evenodd" clip-rule="evenodd" d="M130.231 181.478C129.871 185.639 126.213 188.72 122.057 188.362C117.901 188.003 114.823 184.338 115.183 180.177C115.541 176.016 119.201 172.934 123.356 173.293C127.513 173.653 130.59 177.318 130.231 181.478Z" fill="white"/>
<path d="M123.401 172.762C127.85 173.147 131.145 177.069 130.761 181.524C130.375 185.978 126.459 189.276 122.01 188.892C117.561 188.508 114.266 184.584 114.652 180.13C115.028 175.75 118.825 172.486 123.183 172.746L123.401 172.762ZM115.712 180.222C115.377 184.09 118.239 187.497 122.101 187.831C125.965 188.164 129.365 185.3 129.7 181.432C130.034 177.564 127.173 174.158 123.31 173.824C119.447 173.489 116.045 176.355 115.712 180.222Z" fill="#7D4556"/>
<path d="M113.778 179.37C113.57 179.488 113.497 179.753 113.615 179.961L113.724 180.159C113.813 180.32 113.911 180.505 114.017 180.709C114.321 181.293 114.625 181.915 114.908 182.547C115.163 183.118 115.389 183.67 115.577 184.193C116.213 185.954 116.36 187.228 115.961 187.688C115.513 188.205 114.928 188.51 114.228 188.636C113.514 188.764 112.735 188.701 111.977 188.515C111.692 188.445 111.48 188.376 111.37 188.333C111.147 188.246 110.896 188.356 110.809 188.579C110.722 188.802 110.832 189.053 111.055 189.14L111.203 189.194C111.347 189.243 111.539 189.3 111.771 189.357C112.637 189.569 113.531 189.642 114.381 189.489C115.266 189.329 116.029 188.932 116.614 188.257C117.308 187.456 117.137 185.962 116.392 183.898C116.195 183.353 115.961 182.782 115.698 182.193C115.407 181.543 115.096 180.907 114.785 180.309L114.578 179.917L114.368 179.533C114.25 179.325 113.986 179.252 113.778 179.37Z" fill="#9B6160"/>
<path fill-rule="evenodd" clip-rule="evenodd" d="M105.799 191.078C105.799 191.078 112.692 192.477 117.734 192.11C117.734 192.11 115.912 196.969 110.99 195.942C106.62 195.029 105.799 191.078 105.799 191.078Z" fill="white"/>
<path d="M105.891 190.631L106.796 190.8C107.515 190.927 108.308 191.055 109.15 191.173C110.953 191.427 112.729 191.607 114.388 191.68C115.599 191.734 116.711 191.728 117.703 191.656C118.034 191.632 118.279 191.959 118.162 192.27L118.103 192.414C118.044 192.552 117.957 192.734 117.842 192.947C117.576 193.441 117.244 193.934 116.843 194.396C115.379 196.08 113.4 196.909 110.899 196.387C109.099 196.011 107.723 195.125 106.727 193.889C106.252 193.3 105.895 192.67 105.638 192.039C105.482 191.656 105.394 191.354 105.355 191.17C105.289 190.85 105.571 190.566 105.891 190.631ZM106.638 191.697L106.47 191.666L106.48 191.695C106.705 192.248 107.019 192.801 107.435 193.317C108.304 194.395 109.498 195.164 111.084 195.495C113.237 195.945 114.895 195.25 116.157 193.798L116.362 193.55C116.56 193.299 116.737 193.039 116.893 192.777L116.99 192.606L116.975 192.607C116.159 192.638 115.281 192.631 114.348 192.59C112.657 192.516 110.853 192.333 109.024 192.075C108.17 191.955 107.367 191.826 106.638 191.697Z" fill="#7D4556"/>
<path d="M118.036 170.806C117.819 170.679 117.54 170.754 117.414 170.971C117.288 171.189 117.362 171.467 117.579 171.593C119.914 172.95 122.894 173.498 126.016 172.922C126.263 172.877 126.427 172.639 126.381 172.392C126.336 172.145 126.098 171.981 125.851 172.027C122.946 172.563 120.185 172.055 118.036 170.806Z" fill="#7D4556"/>
<path d="M114.222 177.735C113.366 177.623 112.462 177.624 111.613 177.693L111.285 177.723L111.143 177.74L111.283 178.796L111.586 178.764C111.621 178.761 111.658 178.758 111.698 178.755C112.479 178.692 113.313 178.691 114.085 178.792C114.547 178.852 114.959 178.946 115.309 179.076L115.478 179.144L115.9 178.166C115.416 177.957 114.852 177.817 114.222 177.735Z" fill="#7D4556"/>
<path d="M122.858 179.02C121.563 178.908 120.615 179.472 120.014 180.448C119.696 180.963 119.537 181.471 119.478 181.83C119.43 182.121 119.627 182.395 119.917 182.442C120.207 182.49 120.48 182.293 120.528 182.003L120.546 181.917C120.559 181.862 120.578 181.79 120.605 181.705C120.68 181.466 120.784 181.227 120.919 181.008C121.323 180.352 121.904 180.007 122.767 180.082C123.555 180.15 124.008 180.55 124.251 181.223C124.382 181.584 124.433 181.969 124.434 182.302L124.428 182.499C124.403 182.793 124.62 183.051 124.912 183.076C125.181 183.099 125.42 182.919 125.477 182.663L125.49 182.567C125.491 182.557 125.492 182.543 125.493 182.515C125.516 182.02 125.46 181.436 125.252 180.861C124.876 179.82 124.09 179.126 122.858 179.02Z" fill="#7D4556"/>
<path d="M104.757 177.455C103.461 177.342 102.514 177.906 101.912 178.882C101.594 179.397 101.434 179.905 101.375 180.265C101.327 180.555 101.524 180.829 101.814 180.877C102.077 180.92 102.328 180.762 102.407 180.514L102.458 180.291C102.47 180.247 102.484 180.197 102.502 180.14C102.578 179.901 102.682 179.662 102.817 179.442C103.221 178.787 103.802 178.441 104.665 178.516C105.453 178.584 105.906 178.984 106.149 179.658C106.28 180.019 106.331 180.404 106.332 180.738L106.327 180.934C106.301 181.227 106.518 181.486 106.811 181.511C107.079 181.534 107.318 181.353 107.376 181.097L107.39 180.982L107.392 180.949C107.415 180.455 107.358 179.871 107.15 179.295C106.774 178.254 105.988 177.561 104.757 177.455Z" fill="#7D4556"/>
<path d="M96.8711 179.304L89.4351 178.66" stroke="#7D4556" stroke-width="1.383"/>
<path d="M109.912 170.064C109.818 169.831 109.553 169.718 109.32 169.812C108.487 170.149 107.5 170.386 106.391 170.532C104.709 170.753 102.906 170.754 101.218 170.621L100.869 170.591L100.328 170.533C100.079 170.501 99.8504 170.676 99.8178 170.926C99.7851 171.175 99.9606 171.404 100.21 171.436L100.463 171.466L100.785 171.498C100.899 171.508 101.02 171.519 101.147 171.529C102.893 171.666 104.755 171.666 106.509 171.435C107.689 171.279 108.749 171.025 109.661 170.657C109.893 170.563 110.006 170.298 109.912 170.064Z" fill="#7D4556"/>
<path d="M110.618 200.641C110.379 200.63 110.177 200.815 110.166 201.054L110.152 201.28C110.142 201.403 110.129 201.556 110.11 201.731C110.055 202.243 109.976 202.754 109.867 203.228C109.641 204.214 109.317 204.888 108.959 205.085C108.749 205.2 108.673 205.463 108.787 205.673C108.902 205.883 109.165 205.96 109.375 205.845C110.023 205.49 110.432 204.637 110.711 203.422C110.828 202.911 110.913 202.367 110.971 201.824L111.005 201.463L111.031 201.094C111.042 200.855 110.857 200.652 110.618 200.641Z" fill="#9B6160"/>
<path d="M112.128 202.127C111.889 202.125 111.693 202.317 111.691 202.556L111.681 202.907C111.677 202.983 111.673 203.067 111.668 203.158C111.642 203.611 111.599 204.065 111.535 204.485C111.472 204.901 111.392 205.26 111.294 205.543C111.217 205.77 111.337 206.016 111.563 206.094C111.789 206.172 112.035 206.052 112.113 205.825C112.229 205.486 112.321 205.079 112.391 204.616C112.459 204.165 112.505 203.686 112.532 203.207L112.55 202.827C112.554 202.719 112.556 202.63 112.557 202.564C112.559 202.325 112.367 202.129 112.128 202.127Z" fill="#9B6160"/>
<path d="M108.62 202.434C108.391 202.364 108.149 202.493 108.079 202.722L108.043 202.834C108.02 202.902 107.99 202.989 107.953 203.09C107.851 203.37 107.735 203.649 107.609 203.908C107.376 204.388 107.136 204.731 106.946 204.863L106.89 204.895C106.675 205 106.586 205.26 106.691 205.475C106.796 205.69 107.055 205.779 107.27 205.674C107.697 205.466 108.051 204.981 108.388 204.287C108.528 203.999 108.654 203.693 108.766 203.388L108.865 203.105C108.882 203.053 108.896 203.01 108.907 202.976C108.977 202.747 108.848 202.504 108.62 202.434Z" fill="#9B6160"/>
<path d="M113.442 201.8C113.229 201.832 113.075 202.013 113.071 202.221L113.076 202.292L113.453 204.883C113.488 205.12 113.708 205.284 113.944 205.249C114.157 205.218 114.311 205.037 114.314 204.828L114.31 204.758L113.932 202.167C113.901 201.954 113.72 201.799 113.512 201.796L113.442 201.8Z" fill="#9B6160"/>
<path d="M98.5829 201.608C98.3829 201.477 98.1146 201.533 97.9836 201.733C97.8525 201.933 97.9083 202.202 98.1083 202.333C98.7818 202.775 99.4763 203.177 100.19 203.54C104.536 205.751 109.074 206.378 112.973 206.111L113.337 206.083C113.668 206.056 113.903 206.028 114.03 206.009C114.267 205.973 114.429 205.752 114.394 205.515C114.358 205.279 114.137 205.116 113.901 205.151L113.703 205.177C113.618 205.187 113.514 205.197 113.392 205.209L113.265 205.22C109.433 205.539 104.9 204.964 100.582 202.767C99.8965 202.418 99.2295 202.032 98.5829 201.608Z" fill="#9B6160"/>
<path d="M107.467 188.054C107.399 187.825 107.158 187.693 106.929 187.761L106.729 187.824C106.575 187.875 106.404 187.935 106.22 188.004C105.694 188.201 105.168 188.432 104.674 188.696C103.021 189.58 102.073 190.627 102.303 191.894C102.345 192.129 102.571 192.285 102.806 192.243C103.041 192.2 103.197 191.974 103.154 191.739C103.015 190.973 103.732 190.183 105.081 189.461C105.538 189.217 106.031 189 106.524 188.816L106.76 188.729C106.941 188.665 107.083 188.619 107.174 188.592C107.403 188.525 107.534 188.284 107.467 188.054Z" fill="#9B6160"/>
<path fill-rule="evenodd" clip-rule="evenodd" d="M86.3798 210.269L83.9627 214.761C83.9627 214.761 67.1919 216.775 59.0033 221.714C51.5985 226.18 52.5312 273.325 53.6705 289.191C49.6813 307.819 64.5671 306.317 64.5671 306.317L117.689 310.704C117.689 310.704 125.464 306.283 121.599 293.156C122.59 282.482 139.901 231.286 133.214 224.591C128.014 219.384 115.462 218.366 115.462 218.366L114.621 213.146C114.621 213.146 106.564 212.225 86.3798 210.269Z" fill="#ADC6FF"/>
<path d="M130.659 244.976C130.415 244.952 130.199 245.13 130.175 245.374C129.719 250.076 128.827 255.691 127.573 262.023C126.866 265.592 126.054 269.331 125.159 273.19C124.102 277.744 122.977 282.255 121.845 286.56L121.179 289.068C120.989 289.773 120.807 290.446 120.632 291.086L120.176 292.738L119.79 294.107C119.723 294.342 119.858 294.588 120.093 294.655C120.328 294.723 120.574 294.587 120.641 294.352L121.104 292.704L121.485 291.32C121.748 290.359 122.029 289.321 122.323 288.215C123.584 283.476 124.844 278.46 126.021 273.391C126.919 269.523 127.732 265.774 128.441 262.196L128.725 260.741C129.836 254.974 130.632 249.831 131.056 245.46C131.08 245.216 130.902 244.999 130.659 244.976Z" fill="#597EF7"/>
<path d="M88.0965 217.242C87.8601 217.18 87.6179 217.321 87.5557 217.558C87.4934 217.795 87.6345 218.037 87.8709 218.099C96.1637 220.287 104.305 220.847 111.16 220.475L111.728 220.442C112.079 220.42 112.396 220.397 112.678 220.374L113.24 220.322C113.259 220.32 113.276 220.318 113.291 220.316C113.533 220.289 113.708 220.07 113.681 219.826C113.653 219.583 113.434 219.408 113.191 219.436L112.804 219.473L112.164 219.524C112.009 219.536 111.845 219.547 111.673 219.557C104.789 219.986 96.5164 219.464 88.0965 217.242Z" fill="#597EF7"/>
<path fill-rule="evenodd" clip-rule="evenodd" d="M140.727 427.675C135.027 426.732 129.938 431.353 130.334 437.125C130.79 443.765 131.36 452.738 131.842 462.41C132.34 472.363 132.772 480.611 133.52 481.635C136.81 486.145 143.137 487.651 149.732 492.007C154.949 495.455 155.888 497.146 162.423 498.142C171.688 499.556 167.263 495.793 156.623 483.773C147.144 473.065 147.58 467.876 147.58 467.876L148.218 436.704C148.308 432.249 145.119 428.402 140.727 427.675Z" fill="#C99382"/>
<path fill-rule="evenodd" clip-rule="evenodd" d="M155.599 480.879C162.5 488.054 170.32 493.645 170.253 497.166C170.189 500.688 167.528 503.955 155.94 500.276C148.009 497.758 150.194 495.999 142.55 491.381C138.733 489.074 137.38 489.382 133.84 486.667C131.78 484.194 132.248 471.819 132.248 471.819L145.845 485.754C145.845 485.754 142.209 479.172 144.961 477.626C147.711 476.078 150.256 475.002 151.949 476.136C153.641 477.27 155.599 480.879 155.599 480.879Z" fill="#7D4556"/>
<path fill-rule="evenodd" clip-rule="evenodd" d="M157.422 359.733C154.939 412.131 151.821 463.424 151.821 463.424L129.729 464.18L122.623 359.061C122.623 359.061 123.93 343.353 141.129 344.126C156.647 344.823 157.422 359.733 157.422 359.733Z" fill="#597EF7"/>
<path fill-rule="evenodd" clip-rule="evenodd" d="M148.151 342.573C124.265 333.705 93.7612 327.257 71.6645 322.759C71.6645 322.759 55.0876 324.972 53.9668 341.285C52.8691 357.272 70.8796 361.342 70.8796 361.342L143.327 370.68C143.327 370.68 155.149 372.06 157.331 357.976C159.322 345.13 148.151 342.573 148.151 342.573Z" fill="#597EF7"/>
<path d="M57.8138 310.175C57.5748 310.175 57.381 310.369 57.381 310.608C57.381 310.824 57.5379 311.002 57.7436 311.036L57.8138 311.042H116.749C116.988 311.042 117.182 310.848 117.182 310.608C117.182 310.393 117.025 310.214 116.819 310.18L116.749 310.175H57.8138Z" fill="#253368"/>
<path d="M58.4651 316.9C58.2261 316.9 58.0323 317.094 58.0323 317.334C58.0323 317.549 58.1893 317.728 58.395 317.762L58.4651 317.767H117.616C117.855 317.767 118.049 317.573 118.049 317.334C118.049 317.118 117.892 316.94 117.686 316.906L117.616 316.9H58.4651Z" fill="#253368"/>
<path d="M99.0692 310.068C98.8542 310.078 98.6834 310.244 98.6597 310.451L98.6574 310.521L98.9829 317.355C98.9943 317.595 99.1971 317.779 99.4359 317.768C99.6508 317.757 99.8216 317.592 99.8453 317.385L99.8477 317.314L99.5221 310.48C99.5108 310.241 99.3079 310.056 99.0692 310.068Z" fill="#253368"/>
<path fill-rule="evenodd" clip-rule="evenodd" d="M151.53 342.358L84.9419 327.898L152.669 311.497L207.199 328.991L151.53 342.358Z" fill="#CCD7EE"/>
<path fill-rule="evenodd" clip-rule="evenodd" d="M154.326 337.811L105.966 327.31L154.009 315.241L194.758 328.103L154.326 337.811Z" fill="#4E5C93"/>
<path fill-rule="evenodd" clip-rule="evenodd" d="M84.784 331.373L84.9248 327.921L152.914 342.125L151.545 345.742L84.784 331.373Z" fill="#253368"/>
<path d="M162.792 318.648L123.592 330.568C123.439 330.614 123.353 330.775 123.399 330.928C123.44 331.062 123.568 331.144 123.702 331.132L123.759 331.121L162.959 319.201C163.112 319.155 163.198 318.993 163.152 318.841C163.111 318.707 162.983 318.625 162.849 318.637L162.792 318.648Z" fill="#CCD7EE"/>
<path d="M157.816 316.31L114.029 328.826C113.875 328.87 113.787 329.029 113.83 329.183C113.869 329.317 113.996 329.402 114.13 329.392L114.187 329.381L157.974 316.866C158.127 316.822 158.216 316.662 158.172 316.509C158.134 316.374 158.007 316.289 157.873 316.3L157.816 316.31Z" fill="#CCD7EE"/>
<path d="M163.171 322.182L130.222 332.703C130.07 332.751 129.987 332.914 130.035 333.066C130.077 333.199 130.207 333.28 130.34 333.265L130.398 333.253L163.346 322.732C163.498 322.684 163.582 322.521 163.533 322.369C163.491 322.236 163.361 322.155 163.228 322.17L163.171 322.182Z" fill="#CCD7EE"/>
<path d="M171.956 323.565L139.007 334.086C138.856 334.135 138.772 334.297 138.82 334.449C138.863 334.583 138.992 334.663 139.126 334.649L139.183 334.637L172.131 324.116C172.283 324.068 172.367 323.905 172.318 323.753C172.276 323.62 172.146 323.539 172.013 323.553L171.956 323.565Z" fill="#CCD7EE"/>
<path d="M180.038 325.419L147.089 335.94C146.938 335.988 146.854 336.151 146.902 336.303C146.945 336.436 147.074 336.517 147.208 336.503L147.265 336.49L180.213 325.97C180.365 325.921 180.449 325.759 180.4 325.606C180.358 325.473 180.228 325.393 180.095 325.407L180.038 325.419Z" fill="#CCD7EE"/>
<path d="M114.065 325.644C113.909 325.616 113.758 325.72 113.73 325.877C113.705 326.015 113.782 326.147 113.906 326.197L113.962 326.213L155.429 333.739C155.586 333.768 155.736 333.664 155.765 333.507C155.79 333.369 155.713 333.237 155.589 333.187L155.532 333.171L114.065 325.644Z" fill="#CCD7EE"/>
<path d="M123.513 322.9C123.357 322.872 123.206 322.976 123.178 323.133C123.153 323.27 123.23 323.403 123.354 323.453L123.411 323.469L164.879 330.995C165.035 331.024 165.186 330.919 165.214 330.762C165.239 330.625 165.162 330.493 165.038 330.443L164.982 330.426L123.513 322.9Z" fill="#CCD7EE"/>
<path d="M135.12 321.369C134.963 321.34 134.813 321.445 134.785 321.602C134.76 321.739 134.836 321.871 134.961 321.921L135.017 321.938L176.484 329.464C176.641 329.492 176.791 329.388 176.82 329.231C176.844 329.094 176.768 328.961 176.643 328.911L176.587 328.895L135.12 321.369Z" fill="#CCD7EE"/>
<path d="M143.213 316.023C143.056 315.995 142.906 316.099 142.877 316.256C142.852 316.393 142.929 316.526 143.054 316.576L143.11 316.592L184.578 324.118C184.735 324.147 184.885 324.042 184.913 323.885C184.938 323.748 184.862 323.616 184.737 323.566L184.681 323.55L143.213 316.023Z" fill="#CCD7EE"/>
<path fill-rule="evenodd" clip-rule="evenodd" d="M151.599 345.747L154.604 346.18L207.33 332.822L233.227 246.322L176.798 254.311L151.599 345.747Z" fill="#253368"/>
<path fill-rule="evenodd" clip-rule="evenodd" d="M154.711 346.192L210.312 332.13C210.82 332.003 211.224 331.615 211.375 331.113L236.357 247.99C236.672 246.945 235.797 245.927 234.719 246.081L181.187 253.734C180.602 253.819 180.119 254.243 179.961 254.815L154.711 346.192Z" fill="#4E5C93"/>
<path fill-rule="evenodd" clip-rule="evenodd" d="M74.172 289.663C74.172 289.663 72.3528 305.74 57.6725 303.824C42.7035 301.869 45.1784 285.674 45.1784 285.674C45.1784 285.674 44.9798 275.518 46.7447 261.965C48.1241 251.375 50.1141 237.556 51.6413 230.863C53.2896 223.641 60.25 219.187 67.1262 220.084C77.5749 221.449 80.6892 230.101 80.0693 237.445C79.4668 244.586 78.5075 256.338 77.6695 264.195C76.057 279.301 74.172 289.663 74.172 289.663Z" fill="#ADC6FF"/>
<path fill-rule="evenodd" clip-rule="evenodd" d="M116.634 310.323C118.567 317.551 134.645 315.097 134.645 315.097L142.526 321.521C143.773 322.384 144.31 321.543 144.989 321.697C146.82 322.115 147.257 320.19 147.257 320.19C147.958 320.032 148.864 320.749 149.535 319.07C149.535 319.07 150.838 319.27 151.283 317.732C151.448 317.16 148.933 309.42 147.431 304.892C146.771 302.903 145.054 301.458 142.984 301.146L123.742 298.245C123.742 298.245 114.033 300.598 116.634 310.323Z" fill="#C99382"/>
<path d="M133.464 310.052C133.245 309.958 132.99 310.06 132.896 310.28C132.812 310.478 132.886 310.704 133.062 310.816L133.124 310.849L138.808 313.279L144.483 321.102C144.607 321.274 144.835 321.327 145.02 321.238L145.087 321.198C145.259 321.073 145.312 320.845 145.223 320.66L145.183 320.593L139.437 312.673C139.406 312.631 139.368 312.595 139.325 312.566L139.257 312.53L133.464 310.052Z" fill="#9B6160"/>
<path d="M137.329 307.666C137.12 307.549 136.857 307.623 136.739 307.831C136.635 308.016 136.682 308.246 136.839 308.377L136.904 308.421L142.122 311.364L146.746 319.463C146.851 319.648 147.072 319.725 147.266 319.657L147.337 319.624C147.521 319.518 147.599 319.297 147.53 319.104L147.498 319.033L142.813 310.83C142.788 310.785 142.754 310.745 142.714 310.712L142.65 310.668L137.329 307.666Z" fill="#9B6160"/>
<path d="M141.07 305.458C140.883 305.309 140.611 305.341 140.462 305.529C140.331 305.696 140.341 305.93 140.477 306.084L140.533 306.138L144.047 308.919L148.268 317.612C148.362 317.806 148.581 317.898 148.781 317.838L148.846 317.812C149.04 317.718 149.132 317.498 149.072 317.299L149.046 317.233L144.782 308.451C144.763 308.412 144.739 308.376 144.709 308.345L144.661 308.301L141.07 305.458Z" fill="#9B6160"/>
<path fill-rule="evenodd" clip-rule="evenodd" d="M65.6052 276.617C65.6052 276.617 49.4173 273.208 46.1287 286.661C42.7374 300.535 58.1172 304.525 58.1172 304.525C58.1172 304.525 69.008 307.067 82.4164 310.257C90.6038 312.204 99.6869 314.174 106.486 314.657C113.848 315.18 115.512 311.41 117.156 304.684C119.109 296.696 119.105 293.194 112.288 290.457C105.791 287.847 96.6558 285.496 89.6596 283.353C76.3194 279.267 65.6052 276.617 65.6052 276.617Z" fill="#ADC6FF"/>
<path fill-rule="evenodd" clip-rule="evenodd" d="M120.547 313.567L124.35 298.012L114.126 294.32L109.777 312.116L120.547 313.567Z" fill="#ADC6FF"/>
<path d="M79.9621 246.278C79.719 246.252 79.5009 246.428 79.4749 246.672L79.3449 247.795C79.0472 250.227 78.4646 254.319 77.6255 259.943L74.7038 279.256C74.6724 279.476 74.8097 279.686 75.0243 279.745C78.9938 280.842 83.0491 282.01 87.13 283.244L89.9198 284.089L99.16 286.792L100.664 287.237C105.31 288.625 108.646 289.732 111.474 290.867C114.798 292.203 116.415 293.695 116.958 295.841C116.988 295.96 117.066 296.06 117.171 296.119L117.237 296.149L123.175 298.292L119.564 313.074L113.113 312.205C113.003 312.19 112.893 312.217 112.804 312.279L112.741 312.331C111.248 313.826 109.115 314.446 105.867 314.214C100.138 313.807 92.7775 312.407 82.4781 309.97L73.926 307.941L57.5679 304.094C57.3298 304.038 57.0918 304.186 57.0363 304.425C56.9808 304.663 57.1289 304.901 57.367 304.957L64.4873 306.626C67.9859 307.448 71.6121 308.304 75.2984 309.177L82.8811 310.976C92.9087 313.335 100.127 314.695 105.804 315.099C109.071 315.332 111.37 314.737 113.041 313.264L113.208 313.112L119.84 314.006C120.039 314.033 120.228 313.922 120.305 313.742L120.329 313.672L124.13 298.117C124.178 297.921 124.088 297.721 123.917 297.625L123.85 297.594L117.753 295.393L117.701 295.22C117.006 293.042 115.274 291.49 112.096 290.165L111.803 290.045L111.203 289.807C108.671 288.818 105.724 287.839 101.839 286.665L98.4626 285.667C96.5324 285.107 92.1553 283.832 89.9675 283.179L89.1393 282.929C85.0452 281.675 80.9683 280.485 76.9689 279.366L75.6369 278.996L78.4382 260.496C79.4623 253.642 80.1168 248.999 80.3552 246.766C80.3812 246.522 80.2052 246.304 79.9621 246.278Z" fill="#597EF7"/>
<path fill-rule="evenodd" clip-rule="evenodd" d="M292.337 343.629C312.443 334.174 324.426 358.971 314.314 372.778C301.975 389.626 295.654 409.012 292.134 414.853C289.164 419.781 281.03 431.793 271.235 426.257C262.221 421.161 267.134 401.162 267.134 401.162C267.134 401.162 267.532 355.293 292.337 343.629Z" fill="#5B8C00"/>
<path fill-rule="evenodd" clip-rule="evenodd" d="M231.86 422.406C225.025 413.238 222.529 400.08 230.158 396.706C237.473 393.472 249.59 401.436 255.203 416.765C260.815 432.093 264.053 443.114 258.563 445.03C249.556 448.174 240.888 434.516 231.86 422.406Z" fill="#5B8C00"/>
<path fill-rule="evenodd" clip-rule="evenodd" d="M303.722 423.102C295.991 432.109 284.834 450.229 277.845 443.883C273.609 440.037 279.272 421.823 294.773 411.913C307.959 403.484 311.454 414.094 303.722 423.102Z" fill="#7CB305"/>
<path fill-rule="evenodd" clip-rule="evenodd" d="M229.741 360.594C232.681 358.628 236.38 358.179 239.754 359.253C244.464 360.753 251.611 365.219 258.685 378.036C267.92 394.77 272.728 413.116 271.778 424.736C271.156 432.336 261.739 435.612 256.471 430.071C254.051 427.526 251.491 423.604 248.987 417.653C238.907 393.704 229.482 378.697 228.359 377.191C225.36 373.17 223.216 364.959 229.741 360.594Z" fill="#7CB305"/>
<path fill-rule="evenodd" clip-rule="evenodd" d="M236.5 370.147C236.6 371.329 235.717 372.368 234.527 372.467C233.338 372.566 232.293 371.688 232.193 370.506C232.094 369.323 232.977 368.285 234.166 368.185C235.355 368.086 236.4 368.964 236.5 370.147Z" fill="white"/>
<path fill-rule="evenodd" clip-rule="evenodd" d="M254.856 379.32C254.956 380.502 254.072 381.541 252.883 381.64C251.694 381.739 250.649 380.861 250.549 379.679C250.449 378.496 251.332 377.458 252.522 377.358C253.711 377.259 254.756 378.137 254.856 379.32Z" fill="white"/>
<path fill-rule="evenodd" clip-rule="evenodd" d="M251.779 403.743C251.894 405.097 250.882 406.287 249.52 406.4C248.158 406.514 246.961 405.508 246.847 404.154C246.733 402.8 247.744 401.611 249.106 401.497C250.468 401.383 251.665 402.389 251.779 403.743Z" fill="white"/>
<path fill-rule="evenodd" clip-rule="evenodd" d="M308.158 367.243C308.158 369.165 306.592 370.723 304.659 370.723C302.726 370.723 301.159 369.165 301.159 367.243C301.159 365.322 302.726 363.764 304.659 363.764C306.592 363.764 308.158 365.322 308.158 367.243Z" fill="white"/>
<path fill-rule="evenodd" clip-rule="evenodd" d="M279.983 377.869C279.983 379.79 278.416 381.348 276.484 381.348C274.55 381.348 272.984 379.79 272.984 377.869C272.984 375.947 274.55 374.389 276.484 374.389C278.416 374.389 279.983 375.947 279.983 377.869Z" fill="white"/>
<path fill-rule="evenodd" clip-rule="evenodd" d="M289.108 401.488C289.108 402.291 288.454 402.943 287.646 402.943C286.838 402.943 286.183 402.291 286.183 401.488C286.183 400.685 286.838 400.034 287.646 400.034C288.454 400.034 289.108 400.685 289.108 401.488Z" fill="white"/>
<path fill-rule="evenodd" clip-rule="evenodd" d="M299.647 420.087C299.647 421.274 298.68 422.236 297.486 422.236C296.293 422.236 295.325 421.274 295.325 420.087C295.325 418.901 296.293 417.939 297.486 417.939C298.68 417.939 299.647 418.901 299.647 420.087Z" fill="white"/>
<path d="M249.172 424.853C249.374 424.662 249.693 424.669 249.885 424.87L249.977 424.968L250.047 425.045C250.174 425.186 250.32 425.354 250.485 425.55C250.954 426.105 251.475 426.769 252.035 427.54C253.631 429.737 255.225 432.358 256.713 435.4C260.957 444.079 263.503 454.388 263.503 466.289C263.503 466.566 263.277 466.79 262.999 466.79C262.72 466.79 262.495 466.566 262.495 466.289C262.495 454.545 259.986 444.385 255.806 435.838C254.345 432.85 252.781 430.278 251.218 428.126C250.704 427.419 250.226 426.807 249.794 426.29L249.713 426.194C249.59 426.048 249.479 425.919 249.379 425.807L249.253 425.666C249.206 425.614 249.173 425.579 249.155 425.561C248.963 425.361 248.971 425.044 249.172 424.853Z" fill="#253368"/>
<path d="M287.242 428.359C287.409 428.138 287.725 428.092 287.948 428.258C288.171 428.423 288.216 428.737 288.05 428.959C286.215 431.402 284.521 434.03 282.963 436.815C279.671 442.703 277.125 449.016 275.235 455.329C274.574 457.539 274.042 459.59 273.628 461.43L273.544 461.807C273.445 462.257 273.36 462.667 273.287 463.035L273.24 463.276L273.157 463.73C273.111 464.003 272.851 464.187 272.576 464.141C272.302 464.095 272.117 463.837 272.163 463.564L272.192 463.403C272.215 463.272 272.244 463.119 272.278 462.944L272.362 462.526C272.443 462.129 272.537 461.689 272.645 461.211L272.736 460.809C273.141 459.052 273.649 457.116 274.269 455.043C276.179 448.665 278.751 442.286 282.082 436.328C283.661 433.505 285.379 430.84 287.242 428.359Z" fill="#253368"/>
<path d="M296.048 365.856C296.241 366.04 296.255 366.339 296.085 366.54L296.063 366.564C296.053 366.575 296.032 366.597 296 366.632L295.876 366.766L295.804 366.846C295.587 367.086 295.335 367.375 295.05 367.714C294.234 368.684 293.324 369.852 292.343 371.218C289.534 375.127 286.725 379.834 284.101 385.346C279.732 394.522 276.33 404.988 274.268 416.754C271.764 431.041 271.35 446.648 273.399 463.587C273.433 463.862 273.235 464.112 272.959 464.145C272.683 464.178 272.432 463.982 272.399 463.707C270.337 446.671 270.755 430.965 273.275 416.582C275.353 404.725 278.783 394.173 283.19 384.917C285.84 379.35 288.68 374.592 291.523 370.636L291.743 370.331C292.619 369.124 293.438 368.075 294.184 367.182L294.277 367.071C294.545 366.753 294.785 366.476 294.997 366.24L295.054 366.177C295.12 366.104 295.179 366.039 295.231 365.983L295.336 365.871C295.528 365.671 295.847 365.665 296.048 365.856Z" fill="#253368"/>
<path d="M252.431 395.565C252.669 395.421 252.979 395.497 253.123 395.734L253.173 395.818C253.214 395.886 253.261 395.967 253.315 396.06L253.394 396.198C253.53 396.434 253.681 396.705 253.849 397.012L253.987 397.267C254.5 398.215 255.061 399.313 255.661 400.556L255.743 400.726C257.699 404.801 259.654 409.565 261.479 414.979C266.587 430.139 269.694 447.344 269.81 466.286C269.812 466.563 269.588 466.789 269.31 466.79C269.031 466.792 268.804 466.569 268.803 466.292C268.687 447.461 265.598 430.36 260.523 415.298C258.745 410.021 256.843 405.369 254.939 401.379L254.834 401.158C254.183 399.803 253.577 398.62 253.031 397.615L252.867 397.314C252.709 397.028 252.567 396.776 252.442 396.56L252.382 396.458L252.261 396.253C252.117 396.016 252.193 395.708 252.431 395.565Z" fill="#253368"/>
<path fill-rule="evenodd" clip-rule="evenodd" d="M291.213 491.139H247.656C245.301 491.139 243.375 489.224 243.375 486.883V455.291C243.375 452.95 245.301 451.035 247.656 451.035H291.213C293.567 451.035 295.494 452.95 295.494 455.291V486.883C295.494 489.224 293.567 491.139 291.213 491.139Z" fill="#253368"/>
<defs>
<linearGradient id="paint0_linear" x1="14.7207" y1="19.7207" x2="450.979" y2="19.7207" gradientUnits="userSpaceOnUse">
<stop stop-color="#9ED2FF"/>
<stop offset="1" stop-color="#FDA9E7"/>
</linearGradient>
</defs>
</svg>
