<svg width="125" height="125" viewBox="0 0 125 125" fill="none" xmlns="http://www.w3.org/2000/svg">
<path fill-rule="evenodd" clip-rule="evenodd" d="M111.045 25.7692H13.6719V17.4054C13.6719 15.5911 15.2064 14.1201 17.099 14.1201H107.618C109.511 14.1201 111.045 15.5911 111.045 17.4054V25.7692Z" fill="#253368"/>
<path fill-rule="evenodd" clip-rule="evenodd" d="M107.618 111.025H17.099C15.2064 111.025 13.6719 109.482 13.6719 107.578V25.4873H111.045V107.578C111.045 109.482 109.511 111.025 107.618 111.025Z" fill="#E4EBF7"/>
<path d="M57.0142 90.29H25.1756C23.9935 90.29 23.0352 91.2483 23.0352 92.4304V100.858C23.0352 102.04 23.9935 102.999 25.1756 102.999H57.0142C58.1963 102.999 59.1546 102.04 59.1546 100.858V92.4304C59.1546 91.2483 58.1963 90.29 57.0142 90.29Z" fill="#FAAD14"/>
<path d="M99.8248 90.29H67.9861C66.804 90.29 65.8457 91.2483 65.8457 92.4304V100.858C65.8457 102.04 66.804 102.999 67.9861 102.999H99.8248C101.007 102.999 101.965 102.04 101.965 100.858V92.4304C101.965 91.2483 101.007 90.29 99.8248 90.29Z" fill="#597EF7"/>
<path fill-rule="evenodd" clip-rule="evenodd" d="M22.3687 20.0574C22.3687 21.1656 21.4703 22.0641 20.362 22.0641C19.2538 22.0641 18.3555 21.1656 18.3555 20.0574C18.3555 18.9493 19.2538 18.0508 20.362 18.0508C21.4703 18.0508 22.3687 18.9493 22.3687 20.0574Z" fill="#FF7946"/>
<path fill-rule="evenodd" clip-rule="evenodd" d="M30.3941 20.0574C30.3941 21.1656 29.4958 22.0641 28.3874 22.0641C27.2792 22.0641 26.3809 21.1656 26.3809 20.0574C26.3809 18.9493 27.2792 18.0508 28.3874 18.0508C29.4958 18.0508 30.3941 18.9493 30.3941 20.0574Z" fill="#FAAD14"/>
<path fill-rule="evenodd" clip-rule="evenodd" d="M38.4195 20.0574C38.4195 21.1656 37.5212 22.0641 36.4128 22.0641C35.3046 22.0641 34.4062 21.1656 34.4062 20.0574C34.4062 18.9493 35.3046 18.0508 36.4128 18.0508C37.5212 18.0508 38.4195 18.9493 38.4195 20.0574Z" fill="#7CB305"/>
<path d="M25.1756 34.1045H99.8224C101.005 34.1045 101.963 35.0628 101.963 36.2449V46.8132H23.0352V36.2449C23.0352 35.0628 23.9935 34.1045 25.1756 34.1045Z" fill="#597EF7"/>
<path d="M101.963 46.8135H23.0352V58.8533H101.963V46.8135Z" fill="#FF7946"/>
<path d="M101.963 58.8535H23.0352V70.8933H101.963V58.8535Z" fill="#FAAD14"/>
<path d="M23.0352 70.2236H101.963V80.7919C101.963 81.974 101.005 82.9323 99.8224 82.9323H25.1756C23.9935 82.9323 23.0352 81.974 23.0352 80.7919V70.2236Z" fill="white"/>
</svg>
