<svg width="125" height="125" viewBox="0 0 125 125" fill="none" xmlns="http://www.w3.org/2000/svg">
<path fill-rule="evenodd" clip-rule="evenodd" d="M110.531 104.447H14.4685C12.6803 104.447 11.2305 102.997 11.2305 101.207V29.8223H113.77V101.207C113.77 102.997 112.32 104.447 110.531 104.447Z" fill="#E4EBF7"/>
<path fill-rule="evenodd" clip-rule="evenodd" d="M41.6534 93.3155L37.3572 87.7536C36.9439 87.2185 36.1418 87.2099 35.7172 87.7358L31.0882 93.4691C30.4238 94.292 29.099 93.7631 29.1793 92.707L30.5737 74.3504C30.5741 74.345 30.5785 74.3408 30.5839 74.3408H42.1822C42.1876 74.3408 42.1922 74.345 42.1926 74.3504L43.5766 92.5715C43.6578 93.6397 42.3073 94.1621 41.6534 93.3155Z" fill="#FF7946"/>
<path fill-rule="evenodd" clip-rule="evenodd" d="M51.5137 61.2793C51.5137 69.6391 44.7367 76.416 36.3769 76.416C28.0172 76.416 21.2402 69.6391 21.2402 61.2793C21.2402 52.9195 28.0172 46.1426 36.3769 46.1426C44.7367 46.1426 51.5137 52.9195 51.5137 61.2793Z" fill="#FAAD14"/>
<path fill-rule="evenodd" clip-rule="evenodd" d="M47.1191 61.2793C47.1191 67.212 42.3097 72.0215 36.377 72.0215C30.4442 72.0215 25.6348 67.212 25.6348 61.2793C25.6348 55.3466 30.4442 50.5371 36.377 50.5371C42.3097 50.5371 47.1191 55.3466 47.1191 61.2793Z" fill="#FAAD14"/>
<path fill-rule="evenodd" clip-rule="evenodd" d="M37.2736 57.525L37.9285 58.8488C38.0644 59.1231 38.3266 59.3133 38.6301 59.3572L40.0947 59.5696C40.859 59.6803 41.1642 60.6171 40.6112 61.1549L39.5513 62.1853C39.3317 62.3989 39.2316 62.7065 39.2835 63.0081L39.5336 64.4632C39.6641 65.2224 38.8653 65.8014 38.1816 65.4429L36.8716 64.756C36.6002 64.6135 36.2758 64.6135 36.0045 64.756L34.6944 65.4429C34.0109 65.8014 33.2119 65.2224 33.3424 64.4632L33.5926 63.0081C33.6444 62.7065 33.5443 62.3989 33.3246 62.1853L32.2648 61.1549C31.7118 60.6171 32.017 59.6803 32.7812 59.5696L34.2459 59.3572C34.5493 59.3133 34.8118 59.1231 34.9474 58.8488L35.6024 57.525C35.9442 56.8341 36.9317 56.8341 37.2736 57.525Z" fill="white"/>
<path fill-rule="evenodd" clip-rule="evenodd" d="M61.26 71.5332C60.6634 71.5332 60.1797 71.0494 60.1797 70.4528V68.3412C60.1797 67.7445 60.6634 67.2607 61.26 67.2607H102.312C102.909 67.2607 103.393 67.7445 103.393 68.3412V70.4528C103.393 71.0494 102.909 71.5332 102.312 71.5332H61.26Z" fill="#597EF7"/>
<path fill-rule="evenodd" clip-rule="evenodd" d="M102.312 58.4717H61.26C60.6634 58.4717 60.1797 57.9879 60.1797 57.3912V55.2797C60.1797 54.683 60.6634 54.1992 61.26 54.1992H102.312C102.909 54.1992 103.393 54.683 103.393 55.2797V57.3912C103.393 57.9879 102.909 58.4717 102.312 58.4717Z" fill="#597EF7"/>
<path fill-rule="evenodd" clip-rule="evenodd" d="M102.312 84.4727H61.26C60.6634 84.4727 60.1797 83.9889 60.1797 83.3922V81.2806C60.1797 80.684 60.6634 80.2002 61.26 80.2002H102.312C102.909 80.2002 103.393 80.684 103.393 81.2806V83.3922C103.393 83.9889 102.909 84.4727 102.312 84.4727Z" fill="#597EF7"/>
<path fill-rule="evenodd" clip-rule="evenodd" d="M113.891 37.1094H11.3516V23.8777C11.3516 22.084 12.8013 20.6299 14.5896 20.6299H110.653C112.441 20.6299 113.891 22.084 113.891 23.8777V37.1094Z" fill="#253368"/>
</svg>
