<svg width="125" height="125" viewBox="0 0 125 125" fill="none" xmlns="http://www.w3.org/2000/svg">
<path fill-rule="evenodd" clip-rule="evenodd" d="M111.313 25.6801H13.6719V17.2933C13.6719 15.4741 15.2106 13.999 17.1085 13.999H107.876C109.774 13.999 111.313 15.4741 111.313 17.2933V25.6801Z" fill="#253368"/>
<path fill-rule="evenodd" clip-rule="evenodd" d="M107.876 111.036H17.1085C15.2106 111.036 13.6719 109.488 13.6719 107.579V25.2627H111.313V107.579C111.313 109.488 109.774 111.036 107.876 111.036Z" fill="#E4EBF7"/>
<path d="M104.031 32.6963H20.9698C20.4957 32.6963 20.1113 33.0807 20.1113 33.5548V38.2766C20.1113 38.7508 20.4957 39.1352 20.9698 39.1352H104.031C104.505 39.1352 104.89 38.7508 104.89 38.2766V33.5548C104.89 33.0807 104.505 32.6963 104.031 32.6963Z" fill="#FF7946"/>
<path d="M104.031 43.4277H20.9698C20.4957 43.4277 20.1113 43.8121 20.1113 44.2863V49.0081C20.1113 49.4822 20.4957 49.8666 20.9698 49.8666H104.031C104.505 49.8666 104.89 49.4822 104.89 49.0081V44.2863C104.89 43.8121 104.505 43.4277 104.031 43.4277Z" fill="#597EF7"/>
<path d="M104.031 54.1592H20.9698C20.4957 54.1592 20.1113 54.5436 20.1113 55.0177V101.592C20.1113 102.066 20.4957 102.451 20.9698 102.451H104.031C104.505 102.451 104.89 102.066 104.89 101.592V55.0177C104.89 54.5436 104.505 54.1592 104.031 54.1592Z" fill="white"/>
<path fill-rule="evenodd" clip-rule="evenodd" d="M22.8391 19.839C22.8391 21.0358 21.8682 22.0061 20.6704 22.0061C19.4728 22.0061 18.502 21.0358 18.502 19.839C18.502 18.6422 19.4728 17.6719 20.6704 17.6719C21.8682 17.6719 22.8391 18.6422 22.8391 19.839Z" fill="#FF7946"/>
<path fill-rule="evenodd" clip-rule="evenodd" d="M30.8859 19.839C30.8859 21.0358 29.915 22.0061 28.7173 22.0061C27.5197 22.0061 26.5488 21.0358 26.5488 19.839C26.5488 18.6422 27.5197 17.6719 28.7173 17.6719C29.915 17.6719 30.8859 18.6422 30.8859 19.839Z" fill="#FAAD14"/>
<path fill-rule="evenodd" clip-rule="evenodd" d="M38.9347 19.839C38.9347 21.0358 37.9638 22.0061 36.7661 22.0061C35.5685 22.0061 34.5977 21.0358 34.5977 19.839C34.5977 18.6422 35.5685 17.6719 36.7661 17.6719C37.9638 17.6719 38.9347 18.6422 38.9347 19.839Z" fill="#7CB305"/>
<path fill-rule="evenodd" clip-rule="evenodd" d="M32.7359 65.5479H33.5579L35.9891 71.7255H35.2191L34.5615 69.9951H31.7236L31.0661 71.7255H30.3047L32.7359 65.5479ZM31.9486 69.3981H34.3366L33.1685 66.3093H33.1339L31.9486 69.3981ZM39.2769 65.4268C39.9604 65.4268 40.5401 65.6085 41.0073 65.9718C41.4745 66.3352 41.7514 66.8284 41.8379 67.4427H41.1544C41.0679 66.9928 40.8429 66.6467 40.4968 66.4044C40.1594 66.1708 39.7528 66.0584 39.2682 66.0584C38.5501 66.0584 37.9964 66.3093 37.607 66.8111C37.2437 67.2783 37.062 67.8926 37.062 68.6626C37.062 69.4327 37.235 70.047 37.5984 70.4969C37.9791 70.9727 38.5242 71.215 39.2509 71.215C39.7441 71.215 40.1594 71.0852 40.5055 70.8257C40.8689 70.5488 41.1198 70.1421 41.2409 69.6057H41.9244C41.786 70.3238 41.4659 70.8862 40.9554 71.2842C40.4795 71.6563 39.9085 71.8466 39.2509 71.8466C38.2906 71.8466 37.5551 71.5265 37.0447 70.8949C36.5774 70.3238 36.3525 69.5798 36.3525 68.6626C36.3525 67.7455 36.5861 66.9928 37.062 66.4044C37.5811 65.7469 38.3252 65.4268 39.2769 65.4268ZM42.4349 65.5479H47.4964V66.1622H45.316V71.7255H44.6152V66.1622H42.4349V65.5479ZM48.3183 65.5479H49.0191V71.7255H48.3183V65.5479ZM49.7372 65.5479H50.5159L52.4453 70.9554H52.4713L54.4007 65.5479H55.1794L52.8953 71.7255H52.0214L49.7372 65.5479ZM55.8456 65.5479H60.2236V66.1622H56.5551V68.23H60.0159V68.8443H56.5551V71.1112H60.3706V71.7255H55.8456V65.5479ZM67.1193 65.5479H67.8287V69.3635C67.8287 69.9691 67.9585 70.4277 68.2354 70.7391C68.5209 71.0593 68.9708 71.2237 69.5851 71.2237C70.1907 71.2237 70.6406 71.0593 70.9348 70.7391C71.203 70.4277 71.3415 69.9691 71.3415 69.3635V65.5479H72.0509V69.3548C72.0509 70.1594 71.8433 70.7737 71.4366 71.1977C71.0127 71.6303 70.3984 71.8466 69.5851 71.8466C68.7718 71.8466 68.1575 71.6303 67.7422 71.2064C67.3269 70.7737 67.1193 70.1594 67.1193 69.3548V65.5479ZM75.3733 65.4268C76.0655 65.4268 76.6192 65.5825 77.0172 65.9026C77.4325 66.2314 77.6661 66.7246 77.7267 67.3735H77.0259C76.948 66.9236 76.775 66.5948 76.5068 66.3785C76.2299 66.1535 75.8405 66.0497 75.3387 66.0497C74.8802 66.0497 74.5254 66.1189 74.2659 66.2747C73.9717 66.4477 73.8246 66.7073 73.8246 67.062C73.8246 67.3735 73.9977 67.6244 74.3524 67.8147C74.5081 67.9013 74.8888 68.031 75.4858 68.2041C76.2991 68.4463 76.8355 68.6453 77.0951 68.8011C77.6056 69.1125 77.8651 69.5451 77.8651 70.1075C77.8651 70.644 77.6488 71.0766 77.2162 71.388C76.7836 71.6909 76.2039 71.8466 75.4685 71.8466C74.7417 71.8466 74.1707 71.6909 73.7554 71.3794C73.2709 71.0074 73.0027 70.445 72.9508 69.6836H73.6516C73.7121 70.22 73.9025 70.618 74.214 70.8689C74.4995 71.0939 74.9148 71.215 75.4685 71.215C75.9703 71.215 76.3856 71.1198 76.6971 70.9295C77.0086 70.7391 77.1643 70.4796 77.1643 70.1508C77.1643 69.7615 76.9567 69.4586 76.55 69.2423C76.377 69.1385 75.9357 68.9914 75.2436 68.7924C74.4995 68.5675 74.0236 68.3944 73.8246 68.2906C73.3487 68.0137 73.1151 67.6157 73.1151 67.0966C73.1151 66.5602 73.3401 66.1362 73.7987 65.8421C74.2053 65.5652 74.7331 65.4268 75.3733 65.4268ZM78.7649 65.5479H83.1429V66.1622H79.4744V68.23H82.9352V68.8443H79.4744V71.1112H83.29V71.7255H78.7649V65.5479ZM84.2763 65.5479H86.9412C87.5555 65.5479 88.04 65.6863 88.3947 65.9718C88.7581 66.266 88.9484 66.6986 88.9484 67.2697C88.9484 67.6157 88.8533 67.9186 88.6629 68.1868C88.4553 68.4636 88.1784 68.6367 87.8237 68.7232V68.7405C88.412 68.8703 88.7408 69.2423 88.81 69.8653L88.9052 70.817C88.9398 71.1977 89.0523 71.5005 89.234 71.7255H88.4639C88.3255 71.5178 88.239 71.2496 88.213 70.9035L88.1351 70.0816C88.1005 69.7182 87.9708 69.45 87.7458 69.2942C87.5382 69.1385 87.244 69.0693 86.8546 69.0693H84.9858V71.7255H84.2763V65.5479ZM84.9858 66.1622V68.455H86.8546C87.3045 68.455 87.6593 68.3425 87.9015 68.1349C88.1178 67.9359 88.2303 67.659 88.2303 67.2956C88.2303 66.9149 88.1178 66.6294 87.9102 66.4477C87.6852 66.2574 87.3305 66.1622 86.8546 66.1622H84.9858ZM92.2016 65.4268C92.8938 65.4268 93.4475 65.5825 93.8455 65.9026C94.2608 66.2314 94.4944 66.7246 94.555 67.3735H93.8542C93.7763 66.9236 93.6033 66.5948 93.335 66.3785C93.0582 66.1535 92.6688 66.0497 92.167 66.0497C91.7085 66.0497 91.3537 66.1189 91.0942 66.2747C90.8 66.4477 90.6529 66.7073 90.6529 67.062C90.6529 67.3735 90.8259 67.6244 91.1807 67.8147C91.3364 67.9013 91.7171 68.031 92.3141 68.2041C93.1274 68.4463 93.6638 68.6453 93.9234 68.8011C94.4339 69.1125 94.6934 69.5451 94.6934 70.1075C94.6934 70.644 94.4771 71.0766 94.0445 71.388C93.6119 71.6909 93.0322 71.8466 92.2968 71.8466C91.57 71.8466 90.999 71.6909 90.5837 71.3794C90.0992 71.0074 89.8309 70.445 89.779 69.6836H90.4799C90.5404 70.22 90.7308 70.618 91.0422 70.8689C91.3278 71.0939 91.7431 71.215 92.2968 71.215C92.7986 71.215 93.2139 71.1198 93.5254 70.9295C93.8369 70.7391 93.9926 70.4796 93.9926 70.1508C93.9926 69.7615 93.7849 69.4586 93.3783 69.2423C93.2053 69.1385 92.764 68.9914 92.0718 68.7924C91.3278 68.5675 90.8519 68.3944 90.6529 68.2906C90.177 68.0137 89.9434 67.6157 89.9434 67.0966C89.9434 66.5602 90.1684 66.1362 90.6269 65.8421C91.0336 65.5652 91.5614 65.4268 92.2016 65.4268Z" fill="#4E5C93"/>
<path fill-rule="evenodd" clip-rule="evenodd" d="M33.9165 79.1065H35.4671V92.6083H33.4059V81.5838C32.5928 82.3591 31.5528 82.9264 30.3047 83.2857V81.2434C30.9098 81.0921 31.5338 80.8274 32.2146 80.4492C32.8954 80.0331 33.4627 79.5982 33.9165 79.1065ZM41.6318 79.1065H43.1824V92.6083H41.1212V81.5838C40.3081 82.3591 39.2681 82.9264 38.02 83.2857V81.2434C38.6251 81.0921 39.2491 80.8274 39.9299 80.4492C40.6107 80.0331 41.178 79.5982 41.6318 79.1065ZM50.841 78.8418C52.1269 78.8418 53.2048 79.2011 54.0368 79.9575C54.8499 80.7139 55.266 81.6783 55.266 82.8696C55.266 84.0421 54.8121 85.101 53.9423 86.0654C53.4128 86.6138 52.4862 87.3324 51.1436 88.2401C49.6875 89.2045 48.8176 90.0555 48.534 90.7929H55.2849V92.6083H45.9811C45.9811 91.2657 46.416 90.0933 47.3237 89.0721C47.8154 88.4859 48.8365 87.6728 50.3683 86.6138C51.2759 85.9709 51.9189 85.4603 52.2971 85.0632C52.9022 84.3824 53.2237 83.645 53.2237 82.8507C53.2237 82.0943 53.0157 81.527 52.5996 81.1488C52.1836 80.7706 51.5596 80.5815 50.7654 80.5815C49.9144 80.5815 49.2715 80.8652 48.8365 81.4514C48.3827 82.0187 48.1558 82.8318 48.118 83.9286H46.0568C46.0757 82.4158 46.5106 81.2056 47.3616 80.2979C48.2314 79.3145 49.4038 78.8418 50.841 78.8418ZM58.8967 89.9042C59.3883 89.9042 59.7855 90.0933 60.1258 90.4904C60.4284 90.9064 60.5797 91.417 60.5797 92.0599C60.5797 93.0243 60.296 93.8564 59.7476 94.575C59.1803 95.2935 58.4239 95.7852 57.4784 96.0499V94.8775C57.9701 94.6884 58.405 94.4048 58.7454 93.9887C59.0669 93.5538 59.2371 93.1189 59.2371 92.665C59.1236 92.7029 58.9723 92.7218 58.7643 92.7218C58.3861 92.7218 58.0457 92.5894 57.781 92.3247C57.5163 92.0599 57.3839 91.7195 57.3839 91.3224C57.3839 90.8875 57.5163 90.5471 57.8188 90.2824C58.0836 90.0176 58.4428 89.9042 58.8967 89.9042ZM67.1226 78.8418C68.5597 78.8418 69.6943 79.22 70.5453 79.9764C71.3017 80.6572 71.6799 81.5081 71.6799 82.5103C71.6799 83.21 71.5286 83.7962 71.226 84.269C70.8857 84.7796 70.3751 85.1578 69.6943 85.4225V85.4792C70.3373 85.6305 70.9046 86.0087 71.3584 86.6138C71.8879 87.2568 72.1526 87.9943 72.1526 88.8452C72.1526 90.0366 71.7177 91.001 70.8478 91.7574C69.9591 92.4949 68.711 92.8731 67.1226 92.8731C65.5152 92.8731 64.2671 92.4949 63.3973 91.7574C62.5274 91.001 62.0925 90.0366 62.0925 88.8452C62.0925 87.9943 62.3572 87.2568 62.8867 86.6138C63.3405 86.0087 63.8889 85.6305 64.5508 85.4792V85.4225C63.87 85.1578 63.3595 84.7796 63.0191 84.269C62.7165 83.7962 62.5652 83.21 62.5652 82.5103C62.5652 81.5081 62.9434 80.6572 63.6998 79.9764C64.5319 79.22 65.6854 78.8418 67.1226 78.8418ZM67.1226 80.487C66.2905 80.487 65.6287 80.695 65.137 81.1488C64.7021 81.527 64.4941 82.0187 64.4941 82.586C64.4941 83.2289 64.6642 83.7395 65.0235 84.1177C65.4585 84.5715 66.1581 84.7985 67.1226 84.7985C68.0681 84.7985 68.7677 84.5715 69.2216 84.1177C69.562 83.7395 69.7511 83.2289 69.7511 82.586C69.7511 82.0187 69.5241 81.527 69.1081 81.1488C68.6165 80.695 67.9546 80.487 67.1226 80.487ZM67.1226 86.3302C66.1392 86.3302 65.3828 86.5571 64.8912 87.0488C64.3806 87.5026 64.1348 88.0888 64.1348 88.8452C64.1348 89.5449 64.3806 90.1122 64.9101 90.5471C65.4207 90.982 66.1581 91.209 67.1226 91.209C68.0681 91.209 68.8245 90.982 69.3729 90.5471C69.8645 90.1122 70.1103 89.5449 70.1103 88.8452C70.1103 88.0888 69.8645 87.5026 69.3729 87.0677C68.8434 86.576 68.1059 86.3302 67.1226 86.3302ZM78.3173 78.8418C79.9625 78.8418 81.2105 79.428 82.0804 80.6383C82.9125 81.7918 83.3474 83.3991 83.3474 85.4792C83.3474 87.6728 82.8935 89.4503 82.0048 90.8119C81.0782 92.1734 79.849 92.8731 78.2984 92.8731C75.6699 92.8731 74.1949 91.6439 73.8545 89.2045H75.859C76.1237 90.5093 76.9558 91.1712 78.3173 91.1712C79.2439 91.1712 79.9814 90.6984 80.5487 89.7907C81.0782 88.9209 81.3618 87.8241 81.3618 86.5193C81.3618 86.4436 81.3429 86.368 81.3429 86.2735H81.2673C80.8891 86.8597 80.3974 87.2946 79.8301 87.5971C79.2817 87.8619 78.6577 88.0132 77.958 88.0132C76.6343 88.0132 75.5564 87.5782 74.7622 86.7273C73.9869 85.8952 73.6087 84.8174 73.6087 83.4937C73.6087 82.1321 74.0436 81.0354 74.9513 80.1655C75.859 79.2767 76.9747 78.8418 78.3173 78.8418ZM78.3929 80.5437C77.5609 80.5437 76.8801 80.8084 76.3885 81.3757C75.8779 81.9241 75.6321 82.6238 75.6321 83.4937C75.6321 84.3635 75.8779 85.0443 76.3885 85.5549C76.8612 86.0843 77.5231 86.3491 78.374 86.3491C79.2061 86.3491 79.8868 86.0843 80.3785 85.5549C80.8702 85.0254 81.116 84.3068 81.116 83.4369C81.116 82.5482 80.8513 81.8485 80.3596 81.3379C79.849 80.8084 79.1872 80.5437 78.3929 80.5437ZM89.947 78.8418C91.3085 78.8418 92.3864 79.1633 93.2184 79.8251C94.0126 80.487 94.4287 81.3947 94.4287 82.5482C94.4287 84.0232 93.6723 85.0254 92.1973 85.517C92.9915 85.7629 93.5966 86.1411 94.0127 86.6327C94.4665 87.1433 94.6934 87.8052 94.6934 88.5994C94.6934 89.8474 94.2585 90.8686 93.4075 91.6628C92.4999 92.457 91.3085 92.8731 89.8713 92.8731C88.4909 92.8731 87.3752 92.5138 86.5432 91.8141C85.5977 91.0199 85.0682 89.8664 84.9547 88.3536H87.0348C87.0727 89.2612 87.3563 89.9609 87.9236 90.4526C88.4153 90.9064 89.0582 91.1333 89.8524 91.1333C90.7223 91.1333 91.422 90.8686 91.9515 90.3769C92.4053 89.9231 92.6511 89.3747 92.6511 88.6939C92.6511 87.8997 92.4053 87.3135 91.9136 86.9353C91.4598 86.5571 90.779 86.368 89.8903 86.368H88.9069V84.8174H89.8713C90.7034 84.8174 91.3274 84.6283 91.7434 84.269C92.1595 83.9097 92.3864 83.3802 92.3864 82.6995C92.3864 82.0187 92.1784 81.5081 91.8002 81.1488C91.3842 80.7706 90.7601 80.6004 89.9659 80.6004C89.1528 80.6004 88.5098 80.8084 88.056 81.2245C87.6021 81.6405 87.3185 82.2645 87.2428 83.0966H85.2195C85.3329 81.7539 85.8246 80.7139 86.7134 79.9575C87.5454 79.2011 88.6233 78.8418 89.947 78.8418Z" fill="#253368"/>
</svg>
