<svg width="75" height="58" viewBox="0 0 75 58" fill="none" xmlns="http://www.w3.org/2000/svg">
<path fill-rule="evenodd" clip-rule="evenodd" d="M41.3737 13.7922C41.3737 15.9288 39.6417 17.6608 37.5053 17.6608C35.3689 17.6608 33.6367 15.9288 33.6367 13.7922C33.6367 11.6558 35.3689 9.92383 37.5053 9.92383C39.6417 9.92383 41.3737 11.6558 41.3737 13.7922Z" fill="#253368"/>
<path fill-rule="evenodd" clip-rule="evenodd" d="M36.7793 48.6081H38.2767V14.9473H36.7793V48.6081Z" fill="#253368"/>
<path fill-rule="evenodd" clip-rule="evenodd" d="M36.7809 48.6078L19.3404 51.5128L18.2148 50.7L36.7809 45.2314V48.6078Z" fill="#253368"/>
<path fill-rule="evenodd" clip-rule="evenodd" d="M38.2773 48.6078L55.7179 51.5128L56.8432 50.7L38.2773 45.2314V48.6078Z" fill="#253368"/>
<path fill-rule="evenodd" clip-rule="evenodd" d="M36.3398 52.5139H38.7158V47.6367H36.3398V52.5139Z" fill="#253368"/>
<path fill-rule="evenodd" clip-rule="evenodd" d="M20.9744 52.5779C20.9744 53.6917 20.0715 54.5943 18.958 54.5943C17.8443 54.5943 16.9414 53.6917 16.9414 52.5779C16.9414 51.4642 17.8443 50.5615 18.958 50.5615C20.0715 50.5615 20.9744 51.4642 20.9744 52.5779Z" fill="#253368"/>
<path fill-rule="evenodd" clip-rule="evenodd" d="M39.5447 52.5779C39.5447 53.6917 38.6418 54.5943 37.5281 54.5943C36.4146 54.5943 35.5117 53.6917 35.5117 52.5779C35.5117 51.4642 36.4146 50.5615 37.5281 50.5615C38.6418 50.5615 39.5447 51.4642 39.5447 52.5779Z" fill="#253368"/>
<path fill-rule="evenodd" clip-rule="evenodd" d="M58.2928 52.5779C58.2928 53.6917 57.3899 54.5943 56.2762 54.5943C55.1626 54.5943 54.2598 53.6917 54.2598 52.5779C54.2598 51.4642 55.1626 50.5615 56.2762 50.5615C57.3899 50.5615 58.2928 51.4642 58.2928 52.5779Z" fill="#253368"/>
<path fill-rule="evenodd" clip-rule="evenodd" d="M61.755 13.0818H13.2578C13.2578 8.31514 17.1218 4.45117 21.8884 4.45117H53.1244C57.8908 4.45117 61.755 8.31514 61.755 13.0818Z" fill="#A3B5D6"/>
</svg>
