<svg width="55" height="55" viewBox="0 0 55 55" fill="none" xmlns="http://www.w3.org/2000/svg">
<path d="M0 27.5C0 12.3122 12.3122 0 27.5 0C42.6878 0 55 12.3122 55 27.5C55 42.6878 42.6878 55 27.5 55C12.3122 55 0 42.6878 0 27.5Z" fill="white"/>
<path d="M46.8242 9.9873V26.5014" stroke="white" stroke-width="6" stroke-linecap="round" stroke-linejoin="round"/>
<path d="M49.8887 11.79H11.7949C10.9406 11.79 10.248 12.4826 10.248 13.3369V30.8836C10.248 31.7379 10.9406 32.4305 11.7949 32.4305H49.8887C50.743 32.4305 51.4355 31.7379 51.4355 30.8836V13.3369C51.4355 12.4826 50.743 11.79 49.8887 11.79Z" fill="#597EF7"/>
<path d="M44.7305 16.9463H27.2637C26.9789 16.9463 26.748 17.1771 26.748 17.4619V18.4932C26.748 18.7779 26.9789 19.0088 27.2637 19.0088H44.7305C45.0152 19.0088 45.2461 18.7779 45.2461 18.4932V17.4619C45.2461 17.1771 45.0152 16.9463 44.7305 16.9463Z" fill="#2F54EB"/>
<path d="M36.6094 25.1963H27.2637C26.9789 25.1963 26.748 25.4271 26.748 25.7119V26.7432C26.748 27.0279 26.9789 27.2588 27.2637 27.2588H36.6094C36.8942 27.2588 37.125 27.0279 37.125 26.7432V25.7119C37.125 25.4271 36.8942 25.1963 36.6094 25.1963Z" fill="#597EF7"/>
<path d="M44.7305 21.0713H27.2637C26.9789 21.0713 26.748 21.3021 26.748 21.5869V22.6182C26.748 22.9029 26.9789 23.1338 27.2637 23.1338H44.7305C45.0152 23.1338 45.2461 22.9029 45.2461 22.6182V21.5869C45.2461 21.3021 45.0152 21.0713 44.7305 21.0713Z" fill="#2F54EB"/>
<path d="M20.0449 16.9463H13.8574C13.2879 16.9463 12.8262 17.408 12.8262 17.9775V24.1651C12.8262 24.7346 13.2879 25.1963 13.8574 25.1963H20.0449C20.6145 25.1963 21.0762 24.7346 21.0762 24.1651V17.9775C21.0762 17.408 20.6145 16.9463 20.0449 16.9463Z" fill="#2F54EB"/>
<path d="M23.6875 16.9463V30.3745" stroke="white" stroke-width="6" stroke-linecap="round" stroke-linejoin="round"/>
<path d="M43.1855 24.374H5.0918C4.23748 24.374 3.54492 25.0666 3.54492 25.9209V43.4676C3.54492 44.3219 4.23748 45.0145 5.0918 45.0145H43.1855C44.0398 45.0145 44.7324 44.3219 44.7324 43.4676V25.9209C44.7324 25.0666 44.0398 24.374 43.1855 24.374Z" fill="#E4EBF7"/>
<path d="M38.0273 29.5303H20.5605C20.2758 29.5303 20.0449 29.7611 20.0449 30.0459V31.0772C20.0449 31.3619 20.2758 31.5928 20.5605 31.5928H38.0273C38.3121 31.5928 38.543 31.3619 38.543 31.0772V30.0459C38.543 29.7611 38.3121 29.5303 38.0273 29.5303Z" fill="#597EF7"/>
<path d="M29.9063 37.7803H20.5605C20.2758 37.7803 20.0449 38.0111 20.0449 38.2959V39.3271C20.0449 39.6119 20.2758 39.8428 20.5605 39.8428H29.9063C30.1911 39.8428 30.4219 39.6119 30.4219 39.3271V38.2959C30.4219 38.0111 30.1911 37.7803 29.9063 37.7803Z" fill="#597EF7"/>
<path d="M38.0273 33.6553H20.5605C20.2758 33.6553 20.0449 33.8861 20.0449 34.1709V35.2021C20.0449 35.4869 20.2758 35.7177 20.5605 35.7177H38.0273C38.3121 35.7177 38.543 35.4869 38.543 35.2021V34.1709C38.543 33.8861 38.3121 33.6553 38.0273 33.6553Z" fill="#597EF7"/>
<path d="M13.3418 29.5303H7.1543C6.58475 29.5303 6.12305 29.992 6.12305 30.5615V36.749C6.12305 37.3186 6.58475 37.7803 7.1543 37.7803H13.3418C13.9113 37.7803 14.373 37.3186 14.373 36.749V30.5615C14.373 29.992 13.9113 29.5303 13.3418 29.5303Z" fill="#597EF7"/>
<path d="M16.9844 29.5303V42.9584" stroke="white" stroke-width="6" stroke-linecap="round" stroke-linejoin="round"/>
</svg>
