<svg width="55" height="55" viewBox="0 0 55 55" fill="none" xmlns="http://www.w3.org/2000/svg">
<path fill-rule="evenodd" clip-rule="evenodd" d="M27.5 55C42.6878 55 55 42.6878 55 27.5C55 12.3122 42.6878 0 27.5 0C12.3122 0 0 12.3122 0 27.5C0 42.6878 12.3122 55 27.5 55Z" fill="white"/>
<path d="M28.119 29L27.9863 41.8513" stroke="#0F53FA" stroke-width="2" stroke-linecap="round" stroke-linejoin="round"/>
<path d="M39.4863 34.9163V23.0832C39.4863 22.9061 39.4393 22.7322 39.3501 22.5793C39.2608 22.4263 39.1326 22.2998 38.9784 22.2127L28.4784 16.2779C28.3283 16.193 28.1588 16.1484 27.9863 16.1484C27.8139 16.1484 27.6444 16.193 27.4943 16.2779L16.9943 22.2127C16.8401 22.2998 16.7118 22.4263 16.6226 22.5793C16.5334 22.7322 16.4863 22.9061 16.4863 23.0832V34.9163C16.4863 35.0934 16.5334 35.2673 16.6226 35.4202C16.7118 35.5732 16.8401 35.6997 16.9943 35.7869L27.4943 41.7216C27.6444 41.8065 27.8139 41.8511 27.9863 41.8511C28.1588 41.8511 28.3283 41.8065 28.4784 41.7216L38.9784 35.7869C39.1326 35.6997 39.2608 35.5732 39.3501 35.4202C39.4393 35.2673 39.4863 35.0934 39.4863 34.9163V34.9163Z" stroke="#0F53FA" stroke-width="2" stroke-linecap="round" stroke-linejoin="round"/>
<path d="M39.3483 22.5785L28.1179 29.0001L16.623 22.5771" stroke="#0F53FA" stroke-width="2" stroke-linecap="round" stroke-linejoin="round"/>
<path d="M34.1286 31.5642V25.5642L22.5312 19.084" stroke="#0F53FA" stroke-width="2" stroke-linecap="round" stroke-linejoin="round"/>
</svg>
