<svg width="55" height="55" viewBox="0 0 55 55" fill="none" xmlns="http://www.w3.org/2000/svg">
<path fill-rule="evenodd" clip-rule="evenodd" d="M27.5 55C42.6878 55 55 42.6878 55 27.5C55 12.3122 42.6878 0 27.5 0C12.3122 0 0 12.3122 0 27.5C0 42.6878 12.3122 55 27.5 55Z" fill="white"/>
<path d="M36 39V17C36 15.8954 35.1046 15 34 15H22C20.8954 15 20 15.8954 20 17V39C20 40.1046 20.8954 41 22 41H34C35.1046 41 36 40.1046 36 39Z" stroke="#0F53FA" stroke-width="2" stroke-linecap="round" stroke-linejoin="round"/>
<path d="M24 19H32" stroke="#0F53FA" stroke-width="2" stroke-linecap="round" stroke-linejoin="round"/>
</svg>
