<svg width="55" height="55" viewBox="0 0 55 55" fill="none" xmlns="http://www.w3.org/2000/svg">
<path fill-rule="evenodd" clip-rule="evenodd" d="M27.5 55C42.6878 55 55 42.6878 55 27.5C55 12.3122 42.6878 0 27.5 0C12.3122 0 0 12.3122 0 27.5C0 42.6878 12.3122 55 27.5 55Z" fill="white"/>
<path d="M18 29.4482V37.9997C18 38.2649 18.1054 38.5193 18.2929 38.7068C18.4804 38.8944 18.7348 38.9997 19 38.9997H37C37.2652 38.9997 37.5196 38.8944 37.7071 38.7068C37.8946 38.5193 38 38.2649 38 37.9997V29.4484" stroke="#0F53FA" stroke-width="2" stroke-linecap="round" stroke-linejoin="round"/>
<path d="M18.7543 17H37.2457C37.463 17 37.6744 17.0708 37.8479 17.2017C38.0214 17.3325 38.1475 17.5163 38.2072 17.7253L40 24H16L17.7928 17.7253C17.8525 17.5163 17.9786 17.3325 18.1521 17.2017C18.3256 17.0708 18.537 17 18.7543 17Z" stroke="#0F53FA" stroke-width="2" stroke-linecap="round" stroke-linejoin="round"/>
<path d="M24 24V26C24 27.0609 23.5786 28.0783 22.8284 28.8284C22.0783 29.5786 21.0609 30 20 30C18.9391 30 17.9217 29.5786 17.1716 28.8284C16.4214 28.0783 16 27.0609 16 26V24" stroke="#0F53FA" stroke-width="2" stroke-linecap="round" stroke-linejoin="round"/>
<path d="M32 24V26C32 27.0609 31.5786 28.0783 30.8284 28.8284C30.0783 29.5786 29.0609 30 28 30C26.9391 30 25.9217 29.5786 25.1716 28.8284C24.4214 28.0783 24 27.0609 24 26V24" stroke="#0F53FA" stroke-width="2" stroke-linecap="round" stroke-linejoin="round"/>
<path d="M40 24V26C40 27.0609 39.5786 28.0783 38.8284 28.8284C38.0783 29.5786 37.0609 30 36 30C34.9391 30 33.9217 29.5786 33.1716 28.8284C32.4214 28.0783 32 27.0609 32 26V24" stroke="#0F53FA" stroke-width="2" stroke-linecap="round" stroke-linejoin="round"/>
</svg>
