<svg width="55" height="55" viewBox="0 0 55 55" fill="none" xmlns="http://www.w3.org/2000/svg">
<path fill-rule="evenodd" clip-rule="evenodd" d="M27.5 55C42.6878 55 55 42.6878 55 27.5C55 12.3122 42.6878 0 27.5 0C12.3122 0 0 12.3122 0 27.5C0 42.6878 12.3122 55 27.5 55Z" fill="white"/>
<rect width="32" height="32" transform="translate(10 12)" fill="white"/>
<path d="M21.0008 28.8588L32.2405 38.7497C32.3705 38.8641 32.5281 38.9428 32.6977 38.9781C32.8673 39.0133 33.0431 39.0039 33.208 38.9507C33.3729 38.8976 33.5211 38.8025 33.6382 38.6748C33.7552 38.5471 33.8371 38.3912 33.8758 38.2224L38.5775 17.7058C38.6182 17.5284 38.6097 17.3433 38.5529 17.1704C38.4961 16.9975 38.3932 16.8434 38.2553 16.7246C38.1174 16.6059 37.9497 16.527 37.7703 16.4965C37.5909 16.4661 37.4065 16.4851 37.2372 16.5517L14.1676 25.6147C13.9665 25.6937 13.7964 25.8357 13.6828 26.0194C13.5691 26.2031 13.518 26.4187 13.5371 26.6338C13.5562 26.849 13.6444 27.0522 13.7887 27.213C13.9329 27.3739 14.1253 27.4837 14.3371 27.5261L21.0008 28.8588Z" stroke="#0F53FA" stroke-width="2" stroke-linecap="round" stroke-linejoin="round"/>
<path d="M21 28.8592L38.014 16.5713" stroke="#0F53FA" stroke-width="2" stroke-linecap="round" stroke-linejoin="round"/>
<path d="M26.6134 33.7991L22.7071 37.7054C22.5673 37.8453 22.3891 37.9405 22.1951 37.9791C22.0011 38.0177 21.8 37.9979 21.6173 37.9222C21.4346 37.8465 21.2784 37.7183 21.1685 37.5539C21.0587 37.3894 21 37.1961 21 36.9983V28.8594" stroke="#0F53FA" stroke-width="2" stroke-linecap="round" stroke-linejoin="round"/>
</svg>
