<svg width="182" height="182" viewBox="0 0 182 182" fill="none" xmlns="http://www.w3.org/2000/svg">
<path d="M162.266 36.1763H19.2948C16.4741 36.1763 14.1875 38.4629 14.1875 41.2835V140.309C14.1875 143.129 16.4741 145.416 19.2948 145.416H162.266C165.086 145.416 167.373 143.129 167.373 140.309V41.2835C167.373 38.4629 165.086 36.1763 162.266 36.1763Z" fill="#CCD7EE"/>
<path d="M138.645 132.198C140.86 132.198 142.656 128.407 142.656 123.73C142.656 119.053 140.86 115.262 138.645 115.262C136.429 115.262 134.633 119.053 134.633 123.73C134.633 128.407 136.429 132.198 138.645 132.198Z" fill="white"/>
<path d="M167.3 69.5835H14.2598V85.4251H167.3V69.5835Z" fill="#253368"/>
<path d="M78.1316 101.841H26.8157C25.8755 101.841 25.1133 102.604 25.1133 103.544V105.611C25.1133 106.551 25.8755 107.313 26.8157 107.313H78.1316C79.0718 107.313 79.834 106.551 79.834 105.611V103.544C79.834 102.604 79.0718 101.841 78.1316 101.841Z" fill="#597EF7"/>
<path d="M56.4143 118.257H26.8157C25.8755 118.257 25.1133 119.02 25.1133 119.96V122.027C25.1133 122.967 25.8755 123.729 26.8157 123.729H56.4143C57.3545 123.729 58.1167 122.967 58.1167 122.027V119.96C58.1167 119.02 57.3545 118.257 56.4143 118.257Z" fill="#597EF7"/>
<path d="M39.9126 47.1855H26.8157C25.8755 47.1855 25.1133 47.9477 25.1133 48.888V56.3623C25.1133 57.3025 25.8755 58.0647 26.8157 58.0647H39.9126C40.8528 58.0647 41.615 57.3025 41.615 56.3623V48.888C41.615 47.9477 40.8528 47.1855 39.9126 47.1855Z" fill="white"/>
<path d="M134.632 123.729C134.628 120.447 136.102 117.337 138.645 115.261C134.187 111.607 127.658 112.038 123.718 116.246C119.779 120.455 119.779 126.997 123.718 131.206C127.658 135.414 134.187 135.845 138.645 132.191C136.104 130.116 134.63 127.01 134.632 123.729Z" fill="#FF7946"/>
<path d="M145.575 112.785C143.048 112.782 140.598 113.657 138.645 115.261C141.181 117.34 142.651 120.447 142.651 123.726C142.651 127.005 141.181 130.112 138.645 132.191C142.372 135.249 147.662 135.507 151.67 132.826C155.678 130.146 157.459 125.158 156.057 120.545C154.654 115.932 150.397 112.78 145.575 112.785Z" fill="#FAAD14"/>
</svg>
