<svg width="320" height="226" viewBox="0 0 320 226" fill="none" xmlns="http://www.w3.org/2000/svg">
<path fill-rule="evenodd" clip-rule="evenodd" d="M32.5377 61.4076C32.5377 61.4076 22.6066 63.6915 22.9017 69.4306C23.0534 72.3829 26.1381 75.4069 24.7988 76.3941C19.5634 80.2545 24.8747 81.3899 20.9292 83.5095C15.3683 86.4964 17.9642 94.1316 23.5089 95.3171C29.0537 96.5022 34.227 101.117 39.7717 100.13C45.3165 99.1419 43.2744 94.6841 47.0366 92.511C50.7992 90.3383 55.6138 81.9484 50.5218 77.2718C47.3534 74.3085 44.5331 74.794 42.553 69.658C40.5725 64.5215 38.7817 61.41 36.2075 62.0027C35.1744 60.7077 32.5377 61.4076 32.5377 61.4076Z" fill="#253368"/>
<path fill-rule="evenodd" clip-rule="evenodd" d="M27.4554 74.1951C27.4214 74.0863 27.2666 74.0895 27.2365 74.1994C26.9726 75.1721 26.3579 77.791 27.3772 77.8525C28.526 77.9222 27.7679 75.1879 27.4554 74.1951Z" fill="white"/>
<path fill-rule="evenodd" clip-rule="evenodd" d="M30.7617 85.0181V77.8078L36.4143 75.8672C36.4143 75.8672 36.455 78.9452 37.6726 86.1114C35.593 88.0871 30.7617 87.397 30.7617 85.0181Z" fill="#F4B784"/>
<path fill-rule="evenodd" clip-rule="evenodd" d="M33.2414 67.4625C33.2414 67.4625 32.5014 65.7028 31.3067 66.6108C30.4522 67.2603 30.6675 66.7444 30.453 66.2703C29.6565 64.5106 29.4476 68.7114 26.6406 69.7334C26.6726 71.9747 26.9251 79.3458 31.7863 79.4522C33.6775 79.4936 35.9159 78.2486 36.7886 75.4854C37.3156 73.8164 36.7602 72.1438 36.0866 71.8336C33.8671 70.8121 33.8671 69.6766 33.2414 67.4625Z" fill="#FFC999"/>
<path d="M29.3045 69.5936C29.3743 69.5703 29.4493 69.6019 29.4824 69.6649L29.4919 69.6871L29.8711 70.8225L29.8787 70.8671L29.8788 70.9955C29.8785 71.0528 29.8776 71.1204 29.8761 71.1979L29.8707 71.4081C29.8662 71.5543 29.8599 71.7124 29.8515 71.8821C29.8225 72.4626 29.7728 73.1027 29.698 73.7952L29.6639 74.097L29.9047 74.1785C30.0952 74.2431 30.2934 74.3112 30.4923 74.3802L31.0423 74.5725C31.1194 74.5998 31.1598 74.6843 31.1324 74.7612C31.1051 74.8381 31.0204 74.8784 30.9433 74.8511L30.5934 74.7284L30.0015 74.5238L29.4562 74.3397C29.3895 74.3175 29.3476 74.2517 29.3559 74.182C29.457 73.333 29.5211 72.5575 29.5555 71.8674L29.5665 71.6246C29.5713 71.5075 29.5749 71.3971 29.5775 71.2934L29.5825 70.9942L29.5825 70.8937L29.2108 69.7805C29.1875 69.7108 29.2191 69.636 29.2823 69.603L29.3045 69.5936Z" fill="#DD936F"/>
<path d="M28.9594 71.2893C29.0673 71.2733 29.1678 71.3476 29.1838 71.4553L29.1903 71.5098C29.1911 71.5178 29.1919 71.5263 29.1926 71.5354C29.2088 71.7214 29.2041 71.9233 29.1627 72.1181C29.0767 72.5228 28.8465 72.8051 28.4436 72.8587C27.8844 72.933 27.5344 72.637 27.3808 72.1372C27.3408 72.0071 27.3163 71.8702 27.304 71.7319C27.2974 71.6578 27.2948 71.5909 27.2949 71.5343L27.2961 71.4763C27.3016 71.3676 27.3944 71.2839 27.5033 71.2894C27.6032 71.2944 27.682 71.3725 27.6903 71.4693L27.6904 71.5045C27.6865 71.6521 27.7035 71.8427 27.7585 72.0217C27.8607 72.3544 28.049 72.5136 28.3914 72.468C28.6026 72.4399 28.7214 72.2942 28.7762 72.0364C28.8082 71.8855 28.8122 71.72 28.7991 71.5695L28.7941 71.5217C28.7937 71.5182 28.7933 71.5153 28.793 71.5131C28.777 71.4054 28.8515 71.3052 28.9594 71.2893Z" fill="#232E36"/>
<path d="M33.4407 71.0653C33.5488 71.0505 33.6484 71.1259 33.6633 71.2337L33.6687 71.2821L33.6706 71.3049C33.6854 71.4903 33.6788 71.6936 33.634 71.8902C33.5431 72.2895 33.3106 72.5675 32.9094 72.6209C32.3541 72.6947 31.9964 72.4107 31.8267 71.9258C31.754 71.7182 31.7254 71.5119 31.7211 71.3467L31.7207 71.2828C31.7228 71.174 31.8129 71.0875 31.922 71.0895C32.022 71.0915 32.1032 71.1672 32.1144 71.2636L32.1157 71.2904C32.1144 71.4227 32.1358 71.6133 32.1997 71.7959C32.313 72.1196 32.5103 72.2764 32.8572 72.2302C33.0699 72.2019 33.1909 72.0573 33.2488 71.803C33.2833 71.6513 33.2887 71.4853 33.2768 71.3362L33.272 71.2874C33.2571 71.1796 33.3326 71.0802 33.4407 71.0653Z" fill="#232E36"/>
<path d="M32.6046 75.0063C32.7059 74.9659 32.8208 75.0151 32.8613 75.1161C32.9019 75.2172 32.8526 75.3319 32.7513 75.3723C31.8357 75.7375 30.9754 75.85 30.286 75.8193L30.193 75.8142C30.1442 75.8111 30.1095 75.8078 30.0899 75.8055C29.9815 75.7924 29.9044 75.6942 29.9175 75.5862C29.9295 75.4871 30.0132 75.4142 30.1105 75.4128L30.2186 75.4209C30.8684 75.4629 31.7079 75.364 32.6046 75.0063Z" fill="#C44343"/>
<path fill-rule="evenodd" clip-rule="evenodd" d="M45.2508 89.3966C45.2508 89.3966 46.3949 89.8754 48.2058 93.3495C49.922 96.642 51.1917 99.6691 51.1917 99.6691L58.1429 85.5449L61.753 88.3431C61.753 88.3431 57.3105 106.293 54.0958 109.02C51.6204 111.175 49.5716 109.131 48.8885 108.336C47.4307 106.639 44.3267 101.381 44.3267 101.381C44.3267 101.381 41.4222 90.1868 45.2508 89.3966Z" fill="#FFC999"/>
<path fill-rule="evenodd" clip-rule="evenodd" d="M44.9305 109.831L55.6269 116.051C56.4861 116.551 56.7591 117.661 56.2301 118.501L48.0926 131.415C47.5861 132.219 46.5297 132.475 45.7096 131.992L34.3685 125.311C33.4847 124.79 33.2339 123.628 33.8245 122.791L42.6064 110.337C43.1318 109.592 44.1416 109.372 44.9305 109.831Z" fill="#FF7946"/>
<path fill-rule="evenodd" clip-rule="evenodd" d="M42.5086 109.361L51.1632 113.787L46.1558 133.202L40.8066 118.669L42.5086 109.361Z" fill="#C44343"/>
<path fill-rule="evenodd" clip-rule="evenodd" d="M50.5954 98.3453C50.5954 98.3453 47.7098 100.532 45.7752 103.484C40.5043 96.9647 38.0537 87.7882 43.9947 88.0514C47.0406 88.6875 50.5954 98.3453 50.5954 98.3453Z" fill="#597EF7"/>
<path fill-rule="evenodd" clip-rule="evenodd" d="M30.3319 82.1523L37.2475 82.5792C37.2475 82.5792 37.5837 85.7825 38.6069 86.3094C39.6301 86.8364 44.8114 87.342 45.2839 89.11C45.5873 90.2454 44.8643 92.5833 44.8643 92.5833C44.8643 92.5833 46.6298 97.0502 46.4979 99.0255C46.3655 101.001 42.7333 109.134 42.7333 109.134C42.7333 109.134 43.5254 110.846 42.6014 111.241C41.6773 111.637 34.7372 111.363 31.6265 110.606C30.8257 106.95 27.5514 98.6148 27.5514 98.6148L20.4486 97.89C20.4486 97.89 19.0315 87.3692 22.8253 85.7041C25.343 84.599 28.7477 86.1033 29.5398 84.7862C29.9475 84.1087 30.3319 82.1523 30.3319 82.1523Z" fill="#597EF7"/>
<path fill-rule="evenodd" clip-rule="evenodd" d="M26.7035 174.845L20.0557 208.066C20.0557 208.066 19.9874 211.306 20.3007 214.19C20.7787 218.595 20.4551 223.567 17.4404 222.683C15.757 222.189 14.5616 218.609 15.119 210.404C16.1861 194.699 18.3866 178.302 19.5745 174.549C21.3567 168.919 27.5947 165.955 26.7035 174.845Z" fill="#FFC999"/>
<path fill-rule="evenodd" clip-rule="evenodd" d="M40.3536 180.789C40.3382 180.688 43.2179 205.693 43.2728 207.499C43.4217 212.426 42.8741 213.119 45.5487 214.349C46.2338 214.664 47.242 214.256 48.347 215.425C51.3716 218.624 55.7054 220.358 56.1898 218.455C56.4869 216.677 49.4184 211.246 48.6215 207.613C47.7939 203.838 49.5748 173.957 46.9018 171.883C44.2284 169.809 40.6507 160.046 40.3536 180.789Z" fill="#FFC999"/>
<path fill-rule="evenodd" clip-rule="evenodd" d="M30.5645 194.261L49.0029 195.304C49.0029 195.304 49.8566 157.704 49.2624 144.369C48.6682 131.035 47.1986 118.699 45.7136 117.217C44.2281 115.736 34.1287 125.218 32.6437 136.775C31.1586 148.331 30.5645 194.261 30.5645 194.261Z" fill="#A3B5D6"/>
<path fill-rule="evenodd" clip-rule="evenodd" d="M42.9328 112.877C46.5749 116.207 47.2955 122.982 47.2955 122.982L40.1255 129.68L32.6141 202.57L13.0391 199.002C13.0391 199.002 21.3848 132.178 23.0539 125.366C25.2236 116.512 30.3381 112.423 30.3381 112.423L42.9328 112.877Z" fill="#E4EBF7"/>
<path fill-rule="evenodd" clip-rule="evenodd" d="M15.0879 217.005C15.0879 217.005 18.2745 220.297 20.5508 217.005C20.8922 220.146 20.716 224.301 19.1452 224.301C15.2755 224.301 15.0879 217.005 15.0879 217.005Z" fill="#253368"/>
<path fill-rule="evenodd" clip-rule="evenodd" d="M44.1836 214.82C44.1836 214.82 42.9316 212.379 43.3867 209.087C43.3867 209.087 45.6698 211.049 47.6736 213.212C49.9879 215.71 50.5358 215.824 50.5358 215.824C53.3807 216.619 53.9713 214.991 53.9713 214.991C53.9713 214.991 55.5646 216.921 58.5236 218.965C61.1733 220.794 51.0984 221.467 49.6465 218.965C48.1943 216.462 46.3327 215.029 46.3327 215.029L45.6512 218.902H44.6896L44.1836 214.82Z" fill="#253368"/>
<path fill-rule="evenodd" clip-rule="evenodd" d="M49.1909 116.549C52.0232 115.799 53.319 112.555 51.7822 111.202C48.1073 107.969 45.6847 106.418 45.1486 106.379C42.0805 107.743 43.9555 111.213 46.3836 111.743C49.8064 112.49 50.2149 113.105 49.4564 114.392C49.4564 114.392 47.7873 113.711 47.7114 114.278C47.6399 114.811 49.3047 115.338 49.5702 115.3C49.8357 115.262 49.3806 115.489 48.7733 115.716C48.2752 115.903 47.9769 116.871 49.1909 116.549Z" fill="#FFC999"/>
<path fill-rule="evenodd" clip-rule="evenodd" d="M57.8418 86.4537C57.8418 86.4537 58.449 83.9562 59.8906 82.4798C61.6601 80.6681 61.7735 80.3165 62.6979 79.2631C63.6216 78.2096 63.8357 79.9441 62.5458 82.215C61.4898 83.7954 66.739 82.6414 68.6539 81.0039C70.5127 79.4144 70.361 86.832 61.5977 88.611C58.6947 89.2002 57.8418 86.4537 57.8418 86.4537Z" fill="#FFC999"/>
<path d="M26.8254 69.4194L27.0599 69.4377L27.3472 69.4583C27.4463 69.4651 27.5484 69.4718 27.6527 69.4782L28.0084 69.4987C28.1837 69.508 28.3548 69.5159 28.5196 69.522L28.7739 69.5303C28.8971 69.5336 29.0141 69.5357 29.1243 69.5365C29.2333 69.5374 29.3211 69.6263 29.3203 69.7351C29.3195 69.8439 29.2304 69.9315 29.1213 69.9306L28.8871 69.9272C28.8062 69.9255 28.7225 69.9232 28.6362 69.9205L28.5048 69.9159C28.2267 69.9055 27.9313 69.8903 27.6283 69.8715L27.3202 69.8515L26.9039 69.8211C26.8555 69.8173 26.8179 69.8143 26.7923 69.8121C26.6836 69.803 26.6029 69.7077 26.612 69.5993C26.6204 69.4999 26.7014 69.4239 26.7985 69.4189L26.8254 69.4194Z" fill="#232E36"/>
<path d="M33.9328 69.0124C34.0388 68.9868 34.1455 69.0519 34.1712 69.1576C34.1968 69.2634 34.1316 69.3699 34.0256 69.3955C33.3416 69.5604 32.6508 69.6957 31.9876 69.8035L31.7622 69.8392C31.6894 69.8505 31.619 69.861 31.5511 69.8709L31.1396 69.9269C31.132 69.9278 31.1251 69.9286 31.119 69.9293C31.0106 69.942 30.9125 69.8646 30.8998 69.7565C30.8871 69.6485 30.9646 69.5506 31.073 69.5379L31.2561 69.5144L31.4941 69.481C31.6277 69.4615 31.7715 69.4393 31.924 69.4145C32.578 69.3082 33.2593 69.1748 33.9328 69.0124Z" fill="#232E36"/>
<path d="M31.5766 76.3588C31.6855 76.3516 31.7796 76.4338 31.7869 76.5423C31.7935 76.6419 31.7249 76.7291 31.6296 76.7485L31.6029 76.7521L31.0759 76.7872C30.9671 76.7944 30.8729 76.7122 30.8657 76.6037C30.859 76.5041 30.9277 76.4169 31.023 76.3975L31.0496 76.3939L31.5766 76.3588Z" fill="#DD936F"/>
<path fill-rule="evenodd" clip-rule="evenodd" d="M39.4728 72.7966C39.7762 70.8855 37.9628 71.0968 37.9628 71.0968C37.9628 71.0968 38.0268 72.9814 37.6211 74.6918C39.4419 74.5405 39.4728 72.7966 39.4728 72.7966Z" fill="#F4B784"/>
<path d="M27.69 92.0626C27.7652 92.0658 27.8253 92.1232 27.834 92.1954L27.835 92.22L27.6074 97.5942C27.6039 97.6776 27.5333 97.7423 27.4497 97.7388C27.3744 97.7356 27.3143 97.6782 27.3056 97.606L27.3047 97.5814L27.5322 92.2073C27.5358 92.1239 27.6064 92.0591 27.69 92.0626Z" fill="#253368"/>
<path fill-rule="evenodd" clip-rule="evenodd" d="M30.0352 112.575L42.9336 112.878L42.6029 110.454L30.8699 110.077L30.0352 112.575Z" fill="#E4EBF7"/>
<path fill-rule="evenodd" clip-rule="evenodd" d="M46.7343 108.313C46.6849 109.259 45.9852 110.042 45.0485 110.195C40.2094 110.985 25.592 112.91 23.3927 111.28C20.525 109.154 20.4349 98.661 20.4004 97.6627C20.3989 97.619 20.4282 97.58 20.4708 97.5681C23.8028 96.6629 27.0885 98.3627 27.5073 98.5909C27.5365 98.6066 27.5535 98.6354 27.5555 98.6681L28.0043 105.433C28.0363 105.917 28.4381 106.295 28.9244 106.297L44.9 106.376C45.9532 106.382 46.7888 107.264 46.7343 108.313Z" fill="#FFC999"/>
<path d="M39.867 112.885C39.947 112.868 40.0257 112.919 40.0427 112.999L40.1422 113.471C40.5569 115.455 40.7564 116.653 40.8597 117.842L40.8675 117.934C40.9713 119.188 40.968 120.448 40.8635 122.453L40.8231 123.168L40.2728 131.739L34.2816 194.06C34.2738 194.142 34.2015 194.201 34.12 194.193C34.0467 194.186 33.991 194.127 33.9863 194.056L33.9867 194.032L39.9774 131.716L40.5273 123.151C40.5366 122.998 40.5439 122.875 40.5487 122.788L40.5762 122.269C40.6688 120.43 40.6717 119.234 40.5807 118.064L40.5565 117.777C40.4439 116.54 40.222 115.267 39.7528 113.06C39.7358 112.98 39.787 112.902 39.867 112.885Z" fill="#A3B5D6"/>
<path d="M28.0906 159.42C28.1579 159.373 28.2502 159.39 28.2966 159.457C28.3379 159.517 28.3291 159.597 28.2794 159.646L28.2588 159.663L21.6581 164.204C21.5907 164.251 21.4984 164.234 21.452 164.167C21.4107 164.107 21.4195 164.028 21.4693 163.978L21.4898 163.961L28.0906 159.42Z" fill="#A3B5D6"/>
<path d="M32.0896 153.189C32.1561 153.141 32.2486 153.156 32.2964 153.223C32.3388 153.282 32.3316 153.361 32.2828 153.412L32.2626 153.429L24.9788 158.651C24.9123 158.699 24.8198 158.684 24.772 158.618C24.7296 158.559 24.7368 158.479 24.7856 158.429L24.8058 158.411L32.0896 153.189Z" fill="#A3B5D6"/>
<path d="M30.3572 85.4785L36.9579 86.2734C37.041 86.2834 37.1002 86.3587 37.0902 86.4416C37.0811 86.5162 37.0191 86.5715 36.9462 86.5745L36.9216 86.5736L30.3209 85.7786C30.2378 85.7686 30.1786 85.6933 30.1886 85.6105C30.1976 85.5359 30.2597 85.4806 30.3325 85.4775L30.3572 85.4785Z" fill="#253368"/>
<path d="M30.3799 86.5671C30.399 86.4944 30.4679 86.448 30.5405 86.4548L30.5648 86.459L34.0548 87.3675C34.1358 87.3885 34.1843 87.4711 34.1631 87.5519C34.1441 87.6246 34.0752 87.671 34.0026 87.6642L33.9783 87.66L30.4883 86.7515C30.4073 86.7305 30.3588 86.6479 30.3799 86.5671Z" fill="#253368"/>
<path d="M30.5329 97.2187C30.6069 97.1387 30.7318 97.1337 30.812 97.2075L30.8442 97.2356C30.8834 97.2686 30.9439 97.3157 31.0253 97.3732C31.2094 97.5033 31.4285 97.634 31.6818 97.7563C32.8514 98.3208 34.281 98.5109 35.9548 98.1044L36.0911 98.0701C36.6845 97.9156 38.0683 97.917 40.0349 98.0315C40.5213 98.0598 41.0306 98.0945 41.5547 98.1343L41.8709 98.1588C42.3657 98.1979 42.8486 98.2394 43.3056 98.2813L43.9354 98.3407L44.2039 98.3674C44.3125 98.3786 44.3914 98.4754 44.3802 98.5837C44.369 98.6919 44.2719 98.7706 44.1634 98.7595L43.495 98.6946L42.806 98.6322C42.4919 98.6047 42.1684 98.5777 41.8397 98.5517L41.2135 98.5041C40.9041 98.4816 40.6007 98.461 40.3049 98.4426L39.754 98.4104C38.0155 98.3158 36.7629 98.3182 36.2286 98.4422L36.1908 98.4515C34.3633 98.9269 32.7923 98.7301 31.5098 98.111C31.2362 97.979 30.9983 97.8371 30.7969 97.6948L30.712 97.6332C30.6342 97.5752 30.5781 97.5286 30.544 97.4971C30.4639 97.4233 30.4589 97.2986 30.5329 97.2187Z" fill="#253368"/>
<path d="M30.0727 112.532L42.7057 112.759C42.7875 112.761 42.8526 112.828 42.8512 112.91C42.8498 112.983 42.795 113.043 42.7244 113.053L42.7003 113.055L30.0674 112.828C29.9856 112.826 29.9204 112.759 29.9219 112.677C29.9232 112.604 29.9781 112.544 30.0487 112.534L30.0727 112.532Z" fill="#A3B5D6"/>
<path fill-rule="evenodd" clip-rule="evenodd" d="M38.518 74.1746C38.4836 74.0658 38.3287 74.0689 38.2991 74.1793C38.0352 75.1516 37.4205 77.7704 38.4394 77.8319C39.5882 77.9017 38.8305 75.1677 38.518 74.1746Z" fill="white"/>
<path d="M58.3113 84.9473C58.3491 84.8728 58.4402 84.8429 58.5149 84.8805C58.5821 84.9144 58.6131 84.9914 58.5911 85.0608L58.5818 85.0836L49.7067 102.615C49.669 102.689 49.5778 102.719 49.5032 102.681C49.4359 102.647 49.4049 102.57 49.4269 102.501L49.4362 102.478L58.3113 84.9473Z" fill="#DD936F"/>
<path d="M44.9899 91.0716C45.065 91.0766 45.1237 91.1355 45.1306 91.2079L45.131 91.2325L45.0195 92.9009L45.0774 93.0482L45.185 93.3277C45.2103 93.3942 45.2364 93.4636 45.2634 93.5357C45.4556 94.0505 45.6478 94.5964 45.8273 95.1497C45.9718 95.5951 46.1019 96.027 46.2142 96.4389L46.2873 96.7143C46.5325 97.663 46.6629 98.4497 46.6511 99.0302C46.6432 99.4136 46.5821 99.8348 46.4739 100.288C46.339 100.853 46.1349 101.453 45.8801 102.068C45.7123 102.472 45.5325 102.859 45.3527 103.216L45.2445 103.426L45.1786 103.55C45.1469 103.609 45.1241 103.65 45.1117 103.672C45.0705 103.745 44.9781 103.77 44.9052 103.729C44.8324 103.688 44.8067 103.596 44.8479 103.523L44.9117 103.407L44.9761 103.286C45.0096 103.222 45.045 103.153 45.0821 103.08C45.2587 102.73 45.4353 102.349 45.6001 101.952C45.8492 101.351 46.0483 100.766 46.1792 100.218C46.2826 99.7844 46.3407 99.384 46.3481 99.024C46.3603 98.424 46.207 97.5648 45.9218 96.5182C45.8109 96.1113 45.6821 95.6839 45.539 95.2428C45.361 94.694 45.1702 94.1521 44.9794 93.6413L44.8647 93.3381L44.7255 92.9819C44.7198 92.9678 44.7163 92.953 44.715 92.938L44.7148 92.9153L44.8286 91.2124C44.8342 91.1291 44.9064 91.0661 44.9899 91.0716Z" fill="#253368"/>
<path d="M50.9579 111.971C51.0363 111.941 51.1236 111.981 51.1529 112.059L51.1794 112.136L51.1883 112.163C51.2139 112.244 51.2395 112.334 51.2633 112.432C51.3489 112.784 51.391 113.142 51.3652 113.48C51.3562 113.599 51.3386 113.713 51.312 113.822C51.2249 114.178 50.9222 114.533 50.4721 114.887C50.2907 115.029 50.097 115.162 49.9033 115.281C49.8581 115.309 49.815 115.335 49.7746 115.359L49.6552 115.426C49.6504 115.429 49.6462 115.431 49.6428 115.433C49.569 115.472 49.4772 115.445 49.4378 115.371C49.3984 115.297 49.4263 115.206 49.5001 115.166L49.5658 115.13L49.681 115.062C49.7014 115.05 49.7224 115.037 49.7439 115.024C49.9285 114.91 50.113 114.784 50.2846 114.649C50.6856 114.334 50.9509 114.023 51.0176 113.75C51.0402 113.658 51.0552 113.56 51.0631 113.457C51.0861 113.155 51.0476 112.827 50.9688 112.503C50.9523 112.435 50.9348 112.371 50.9172 112.312L50.8995 112.255C50.8855 112.211 50.8749 112.18 50.8692 112.165C50.8398 112.087 50.8795 112 50.9579 111.971Z" fill="#DD936F"/>
<path d="M67.5921 84.3064C68.1434 83.7172 68.5409 83.5648 68.8024 83.7175C68.8412 83.7402 68.8686 83.7656 68.8861 83.7886C68.9365 83.8552 68.9234 83.95 68.8566 84.0004C68.7899 84.0507 68.6948 84.0376 68.6444 83.971L68.6502 83.9786C68.6196 83.961 68.5656 83.9581 68.4692 83.995C68.3139 84.0545 68.1134 84.2017 67.8671 84.4564L67.8137 84.5126C66.786 85.6114 65.2837 85.9875 63.1143 85.7838L62.9833 85.7709C62.0178 85.6713 61.3571 85.9328 60.9312 86.4275C60.8042 86.5751 60.708 86.7333 60.6387 86.8913C60.5978 86.9846 60.5752 87.0554 60.5669 87.0922C60.5483 87.1736 60.4671 87.2246 60.3856 87.2061C60.304 87.1876 60.2528 87.1066 60.2714 87.0252L60.286 86.9704C60.3016 86.9181 60.3261 86.85 60.3611 86.7701C60.4419 86.586 60.5536 86.4022 60.7014 86.2305C61.1921 85.6605 61.9503 85.3605 63.0145 85.4703C65.1263 85.6884 66.5617 85.3595 67.5332 84.3679L67.5921 84.3064Z" fill="#DD936F"/>
<path d="M68.7023 82.5991C69.0803 82.4813 69.386 82.5653 69.4461 82.8654C69.4625 82.9472 69.4093 83.0268 69.3272 83.0432C69.2534 83.0579 69.1814 83.0164 69.1558 82.9482L69.149 82.9246C69.1334 82.8465 69.0224 82.816 68.7926 82.8876C68.4901 82.9819 68.111 83.2325 67.7355 83.6072C67.4744 83.8676 67.1321 84.092 66.7282 84.2845C66.3999 84.441 66.0495 84.5679 65.6991 84.668C65.6072 84.6942 65.5202 84.7172 65.4392 84.7371L65.2679 84.7764C65.2517 84.7798 65.2386 84.7824 65.2287 84.7843C65.1465 84.7999 65.0672 84.7461 65.0515 84.6641C65.0359 84.5821 65.0898 84.503 65.172 84.4873L65.2919 84.4614C65.3894 84.4388 65.4983 84.4109 65.6157 84.3774C65.9509 84.2816 66.286 84.1603 66.5976 84.0118C66.9728 83.8329 67.2874 83.6267 67.5213 83.3935C67.9289 82.9866 68.3483 82.7094 68.7023 82.5991Z" fill="#DD936F"/>
<path d="M67.6855 82.3245C68.5338 81.6278 69.0557 81.4647 69.3397 81.6638C69.3876 81.6974 69.418 81.735 69.4347 81.7682C69.4721 81.8429 69.4418 81.9337 69.367 81.971C69.2921 82.0083 69.2011 81.9781 69.1637 81.9034L69.1677 81.9123L69.1655 81.9111C69.1257 81.8832 69.0428 81.8754 68.8914 81.9227C68.6477 81.9989 68.3127 82.2009 67.8781 82.5578C67.8093 82.6144 67.7394 82.6691 67.6685 82.722C67.118 83.1331 66.5285 83.4234 65.9389 83.6137C65.7322 83.6805 65.5399 83.73 65.3668 83.7649L65.2839 83.7808C65.2209 83.7922 65.1733 83.7991 65.1429 83.8025C65.0597 83.8117 64.9848 83.7519 64.9755 83.669C64.9663 83.586 65.0262 83.5113 65.1094 83.5021L65.1466 83.4972C65.1842 83.4917 65.2382 83.4824 65.3068 83.4686C65.4689 83.4359 65.6501 83.3892 65.8456 83.3261C66.4051 83.1455 66.9649 82.8699 67.4869 82.48L67.5869 82.4035L67.6855 82.3245Z" fill="#DD936F"/>
<g clip-path="url(#clip0)">
<path fill-rule="evenodd" clip-rule="evenodd" d="M284.848 210.487H299.866V207.262H284.848V210.487Z" fill="#253368"/>
<path fill-rule="evenodd" clip-rule="evenodd" d="M296.131 174.328L300.153 226.397H303.606L299.584 174.328H296.131Z" fill="#597EF7"/>
<path fill-rule="evenodd" clip-rule="evenodd" d="M285.131 174.328L281.109 226.397H284.563L288.585 174.328H285.131Z" fill="#597EF7"/>
<path fill-rule="evenodd" clip-rule="evenodd" d="M283.665 177.718C281.884 177.718 280.439 176.2 280.439 174.329C280.439 172.457 281.884 170.939 283.665 170.939H301.365C303.146 170.939 304.591 172.457 304.591 174.329C304.591 176.2 303.146 177.718 301.365 177.718H283.665Z" fill="#A3B5D6"/>
</g>
<path fill-rule="evenodd" clip-rule="evenodd" d="M250.385 145.066L252.09 152.668L278.474 148.825C281.327 148.375 283.25 145.461 282.697 142.427C282.144 139.393 279.339 137.47 276.538 138.205L250.385 145.066Z" fill="#ADC6FF"/>
<path d="M254.286 144.603C254.379 144.58 254.472 144.636 254.505 144.729L254.512 144.756L256.004 151.838C256.027 151.947 255.963 152.056 255.861 152.08C255.768 152.103 255.675 152.047 255.643 151.954L255.635 151.927L254.143 144.845C254.12 144.736 254.184 144.627 254.286 144.603Z" fill="#597EF7"/>
<path fill-rule="evenodd" clip-rule="evenodd" d="M253.304 149.965C252.985 150.032 252.777 150.363 252.839 150.705C252.902 151.047 253.21 151.27 253.529 151.203C253.848 151.136 254.056 150.805 253.993 150.463C253.931 150.121 253.622 149.898 253.304 149.965Z" fill="white"/>
<path fill-rule="evenodd" clip-rule="evenodd" d="M275.833 148.706C278.532 149.224 281.128 147.353 281.7 144.478L286.519 120.267C287.209 116.797 285.082 113.404 281.826 112.78C278.569 112.155 275.478 114.548 275.004 118.058L271.698 142.56C271.305 145.47 273.135 148.188 275.833 148.706Z" fill="#ADC6FF"/>
<path fill-rule="evenodd" clip-rule="evenodd" d="M249.602 164.837C249.633 168.336 252.237 171.182 255.499 171.282L291.862 172.391C296.083 172.52 299.559 168.863 299.521 164.335C299.48 159.807 295.941 156.221 291.723 156.435L255.385 158.275C252.126 158.44 249.572 161.339 249.602 164.837Z" fill="#253368"/>
<path fill-rule="evenodd" clip-rule="evenodd" d="M234.417 204.105C234.417 204.105 228.495 208.001 222.54 205.405C218.64 203.706 219.984 209.589 226.816 212.591C230.71 214.302 231.122 211.882 233.042 213.232C234.155 214.015 236.768 214.978 237.431 214.154C238.589 212.712 238.819 211.742 239.959 209.902C245.511 200.939 243.761 196.901 234.417 204.105Z" fill="#253368"/>
<path fill-rule="evenodd" clip-rule="evenodd" d="M258.435 212.041C258.435 212.041 257.302 219.39 251.571 222.515C247.82 224.561 252.846 227.326 259.436 223.757C263.193 221.723 261.757 219.804 263.967 219.133C265.247 218.744 267.637 217.258 267.491 216.181C267.233 214.299 266.701 213.477 266.151 211.348C263.471 200.979 259.479 199.751 258.435 212.041Z" fill="#253368"/>
<path fill-rule="evenodd" clip-rule="evenodd" d="M267.312 209.853L261.36 164.54C260.878 160.871 257.606 158.4 254.221 159.15C250.953 159.874 248.869 163.324 249.587 166.818L258.795 211.573C258.795 211.573 262.576 212.978 267.312 209.853Z" fill="#253368"/>
<path fill-rule="evenodd" clip-rule="evenodd" d="M298.895 119.285C298.895 119.526 299.077 119.722 299.302 119.722C299.527 119.722 299.71 119.526 299.71 119.285C299.71 119.043 299.527 118.848 299.302 118.848C299.077 118.848 298.895 119.043 298.895 119.285Z" fill="#4E5C93"/>
<path fill-rule="evenodd" clip-rule="evenodd" d="M286.655 110.888L286.121 103.673L295.283 100.569L296.863 110.033C297.164 112.188 295.83 114.437 294.018 115.425C293.83 115.528 293.635 115.623 293.431 115.707C290.369 116.975 286.771 114.407 286.655 110.888Z" fill="#997C79"/>
<path fill-rule="evenodd" clip-rule="evenodd" d="M297.578 95.589C297.739 102.695 293.76 106.65 289.504 107.678C284.43 108.904 282.523 104.398 281.704 97.5062C280.871 90.5083 283.269 87.6235 288.055 86.5679C293.045 85.4673 297.416 88.3907 297.578 95.589Z" fill="#997C79"/>
<path fill-rule="evenodd" clip-rule="evenodd" d="M294.208 97.2667C294.27 96.698 294.266 95.7647 295.017 95.2523C296.049 94.5463 297.253 95.7125 297.332 97.193C297.427 98.9866 296.154 100.324 295.336 100.485C295.568 102.231 295.685 103.29 295.685 103.29C295.685 103.29 297.467 100.833 297.982 97.6722C298.787 92.741 297.14 86.68 291.247 86.1219C282.776 85.9497 281.889 91.8462 281.889 91.8462L291.273 89.9254L291.588 93.3425C291.588 93.3425 293.28 93.125 293.596 97.1792L294.208 97.2667Z" fill="#604346"/>
<path d="M289.709 94.4189L290.698 94.5518C290.802 94.5657 290.875 94.667 290.862 94.7779C290.85 94.8797 290.77 94.9543 290.677 94.9553L290.651 94.9537L289.688 94.8243L286.778 95.3053C286.684 95.321 286.595 95.2586 286.568 95.1629L286.563 95.136C286.548 95.0347 286.606 94.9393 286.696 94.911L286.721 94.905L289.657 94.4197L289.709 94.4189Z" fill="#604346"/>
<path fill-rule="evenodd" clip-rule="evenodd" d="M292.572 103.076C291.225 101.645 291.08 100.166 286.644 101.098C284.485 101.551 283.513 102.527 283.381 104.465C284.446 107.212 286.292 108.743 289.144 107.954C295.135 106.298 294.967 99.5898 294.967 99.5898C294.967 99.5898 294.15 99.9872 293.954 100.528C293.413 102.024 292.97 102.456 292.572 103.076Z" fill="#7C5B4D"/>
<path fill-rule="evenodd" clip-rule="evenodd" d="M285.355 102.739C285.355 102.739 286.944 102.542 289.312 101.844C289.312 101.844 289.135 102.98 287.402 103.321C286.042 103.589 285.355 102.739 285.355 102.739Z" fill="white"/>
<path d="M289.262 101.647C288.305 101.929 287.41 102.149 286.597 102.315L286.411 102.352C286.153 102.403 285.92 102.445 285.714 102.479L285.439 102.521C285.393 102.528 285.357 102.533 285.333 102.536C285.183 102.555 285.113 102.747 285.212 102.87C285.289 102.965 285.433 103.099 285.644 103.23C286.127 103.531 286.727 103.659 287.436 103.519C288.109 103.386 288.615 103.128 288.974 102.779C289.311 102.45 289.461 102.114 289.498 101.876C289.521 101.73 289.395 101.608 289.262 101.647ZM288.984 102.147L288.962 102.183C288.899 102.283 288.818 102.383 288.72 102.479C288.415 102.776 287.974 103.001 287.367 103.121L287.276 103.137C286.7 103.231 286.221 103.121 285.833 102.879L285.82 102.871L286.106 102.821C286.224 102.8 286.349 102.776 286.48 102.751C287.159 102.617 287.897 102.445 288.683 102.23L288.984 102.147Z" fill="#604346"/>
<path d="M284.38 95.3291C284.466 95.2852 284.568 95.3178 284.619 95.4014L284.631 95.4255L285.102 96.4924C285.111 96.5112 285.116 96.5312 285.119 96.5517L285.12 96.5826L285.051 100.821C285.048 100.983 285.174 101.11 285.321 101.102L285.351 101.099L287.708 100.682C287.811 100.664 287.909 100.738 287.925 100.849C287.941 100.95 287.884 101.046 287.795 101.075L287.77 101.081L285.412 101.498C285.034 101.565 284.691 101.262 284.674 100.857L284.673 100.814L284.742 96.6226L284.29 95.5988C284.249 95.5061 284.279 95.3969 284.357 95.3425L284.38 95.3291Z" fill="#604346"/>
<path d="M288.239 104.275C288.342 104.257 288.439 104.333 288.456 104.443C288.471 104.544 288.413 104.64 288.324 104.669L288.299 104.675L287.17 104.869C287.067 104.887 286.97 104.812 286.954 104.701C286.938 104.6 286.996 104.504 287.085 104.475L287.11 104.469L288.239 104.275Z" fill="#604346"/>
<path d="M284.296 95.3401C284.399 95.3237 284.495 95.4 284.511 95.5107C284.525 95.6121 284.466 95.7071 284.377 95.7349L284.352 95.7408L281.857 96.1386C281.754 96.155 281.658 96.0787 281.643 95.968C281.629 95.8666 281.687 95.7716 281.777 95.7438L281.802 95.7379L284.296 95.3401Z" fill="#604346"/>
<path d="M292.282 106.038C292.363 105.966 292.482 105.978 292.548 106.064C292.615 106.15 292.604 106.278 292.524 106.35C292.082 106.742 291.605 107.067 291.096 107.327C289.661 108.061 288.155 108.235 286.847 108.095L286.731 108.081C286.713 108.079 286.696 108.077 286.679 108.074L286.582 108.059C286.568 108.057 286.558 108.055 286.55 108.054C286.448 108.034 286.379 107.929 286.397 107.819C286.416 107.709 286.514 107.635 286.617 107.655L286.687 107.667C286.736 107.674 286.803 107.683 286.884 107.692C288.13 107.825 289.57 107.659 290.933 106.961C291.414 106.715 291.866 106.409 292.282 106.038Z" fill="#604346"/>
<path d="M295.876 95.8596C295.954 95.8656 296.013 95.9382 296.008 96.0219C296.003 96.0972 295.947 96.1558 295.879 96.1624L295.856 96.1626C295.744 96.1581 295.595 96.1857 295.452 96.2732C295.164 96.4502 295.003 96.8174 295.045 97.458L295.047 97.4776L295.089 97.4803C295.46 97.5104 295.709 97.6813 295.806 97.9608L295.819 98.0035C295.901 98.2958 295.806 98.6541 295.593 98.928C295.543 98.9924 295.453 99.0011 295.393 98.9474C295.333 98.8937 295.325 98.798 295.375 98.7335C295.531 98.5324 295.6 98.2761 295.548 98.0911C295.491 97.8889 295.293 97.7683 294.922 97.78C294.848 97.7823 294.785 97.7239 294.777 97.6456C294.685 96.7962 294.896 96.2649 295.312 96.0095C295.488 95.9015 295.666 95.8608 295.816 95.8584L295.876 95.8596Z" fill="#604346"/>
<path d="M289.297 96.3911C289.399 96.3708 289.498 96.4436 289.517 96.5536C289.615 97.1253 289.278 97.6745 288.759 97.777C288.241 97.879 287.744 97.4939 287.646 96.9221C287.627 96.8121 287.695 96.7065 287.797 96.6863C287.9 96.6662 287.998 96.739 288.017 96.849C288.078 97.2045 288.381 97.4395 288.691 97.3786C289.001 97.3174 289.206 96.9824 289.145 96.627C289.126 96.517 289.194 96.4114 289.297 96.3911Z" fill="#604346"/>
<path d="M284.117 97.4106C284.22 97.3903 284.318 97.4631 284.337 97.5731C284.435 98.1449 284.098 98.694 283.579 98.7965C283.061 98.8985 282.564 98.5134 282.466 97.9416C282.447 97.8316 282.515 97.7261 282.618 97.7059C282.72 97.6857 282.819 97.7585 282.838 97.8686C282.898 98.224 283.202 98.459 283.511 98.3982C283.821 98.3369 284.027 98.0019 283.965 97.6465C283.947 97.5365 284.014 97.4309 284.117 97.4106Z" fill="#604346"/>
<path fill-rule="evenodd" clip-rule="evenodd" d="M304.256 154.154C304.256 154.154 283.108 155.867 281.671 153.635C281.039 152.653 280.585 157.56 279.426 165.658C281.294 169.361 284.836 173.439 289.52 173.299C297.179 173.071 304.19 171.041 304.979 165.544C305.546 161.59 305.074 157.361 304.256 154.154Z" fill="#4E5C93"/>
<path fill-rule="evenodd" clip-rule="evenodd" d="M281.347 151.566L281.139 154.294C281.139 154.294 283.176 154.673 290.297 155.063C297.521 155.459 304.237 154.565 304.237 154.565L304.269 152.082C304.269 152.082 289.733 152.542 281.347 151.566Z" fill="black"/>
<path fill-rule="evenodd" clip-rule="evenodd" d="M284.555 154.317L284.583 152.328C284.591 151.768 285.02 151.333 285.518 151.383C286.712 151.504 288.823 151.678 290.36 151.589C290.863 151.561 291.274 152.027 291.25 152.59L291.165 154.62C291.145 155.094 290.82 155.48 290.398 155.533C289.396 155.66 287.468 155.779 285.245 155.273C284.84 155.181 284.548 154.78 284.555 154.317Z" fill="#E4EBF7"/>
<path fill-rule="evenodd" clip-rule="evenodd" d="M285.332 154.081L285.349 152.674C285.353 152.278 285.683 151.971 286.068 152.008C286.989 152.097 288.618 152.227 289.803 152.169C290.191 152.15 290.509 152.481 290.493 152.88L290.432 154.315C290.418 154.651 290.168 154.923 289.843 154.96C289.071 155.046 287.584 155.124 285.867 154.76C285.554 154.693 285.328 154.408 285.332 154.081Z" fill="black"/>
<path fill-rule="evenodd" clip-rule="evenodd" d="M254.66 165.999C254.691 169.498 257.296 172.344 260.557 172.444L296.921 173.553C301.142 173.682 304.618 170.025 304.579 165.497C304.539 160.97 300.999 157.383 296.781 157.597L260.444 159.437C257.185 159.602 254.63 162.501 254.66 165.999Z" fill="#4E5C93"/>
<path fill-rule="evenodd" clip-rule="evenodd" d="M241.812 207.554L265.585 169.551C267.51 166.474 266.612 162.292 263.625 160.429C260.74 158.629 257.041 159.706 255.401 162.823L234.398 202.74C234.398 202.74 236.34 206.491 241.812 207.554Z" fill="#4E5C93"/>
<path fill-rule="evenodd" clip-rule="evenodd" d="M301.955 150.164C304.681 150.47 307.143 148.403 307.519 145.491L310.687 120.968C311.141 117.455 308.79 114.236 305.5 113.867C302.21 113.497 299.288 116.124 299.053 119.662L297.413 144.356C297.219 147.288 299.228 149.858 301.955 150.164Z" fill="#ADC6FF"/>
<path fill-rule="evenodd" clip-rule="evenodd" d="M304.308 151.908C295.763 152.821 284.612 153.556 281.12 151.401C279.598 150.462 279.739 149.178 280.482 147.067C280.482 147.067 276.955 125.151 277.593 113.86C280.429 112.491 282.197 112.249 285.464 111.579C287.104 111.243 289.773 112.857 291.22 112.72C293.83 112.471 296.869 110.973 297.496 111.123C303.83 112.631 307.375 114.316 307.375 114.316C307.375 114.316 305.792 137.81 303.558 146.364C306.324 152.066 304.308 151.908 304.308 151.908Z" fill="#ADC6FF"/>
<path fill-rule="evenodd" clip-rule="evenodd" d="M286.539 109.604L284.695 112.265L287.035 116.903L290.581 112.797L286.539 109.604Z" fill="#ADC6FF"/>
<path fill-rule="evenodd" clip-rule="evenodd" d="M290.65 112.797L296.86 108.862L298.096 111.276L294.267 116.447L290.65 112.797Z" fill="#ADC6FF"/>
<path fill-rule="evenodd" clip-rule="evenodd" d="M288.09 115.343L290.723 112.949L293.417 115.839L291.917 119.382L288.956 119.341L288.09 115.343Z" fill="#253368"/>
<path fill-rule="evenodd" clip-rule="evenodd" d="M288.95 119.4L291.873 119.51L293.824 141.768C293.841 141.959 293.788 142.149 293.677 142.299L289.382 148.072C289.073 148.487 288.469 148.43 288.233 147.962L285.049 141.622C284.974 141.471 284.949 141.297 284.98 141.128L288.95 119.4Z" fill="#253368"/>
<path d="M297.609 111.765C297.673 111.677 297.792 111.66 297.874 111.729C297.949 111.791 297.969 111.901 297.924 111.988L297.909 112.013L294.653 116.542C294.592 116.626 294.483 116.645 294.401 116.589L294.38 116.572L290.591 113.073L287.193 116.788C287.111 116.877 286.976 116.865 286.908 116.769L286.893 116.745L284.6 112.362C284.549 112.265 284.582 112.141 284.673 112.087C284.756 112.037 284.86 112.062 284.916 112.141L284.93 112.164L287.099 116.311L290.445 112.654C290.508 112.585 290.606 112.574 290.68 112.623L290.703 112.642L294.475 116.125L297.609 111.765Z" fill="#597EF7"/>
<path d="M291.716 119.386C291.768 119.386 291.81 119.431 291.81 119.487C291.81 119.536 291.778 119.577 291.735 119.586L291.716 119.588H288.88C288.827 119.588 288.785 119.543 288.785 119.487C288.785 119.438 288.818 119.397 288.861 119.388L288.88 119.386H291.716Z" fill="#597EF7"/>
<path d="M278.247 126.522C278.35 126.512 278.443 126.593 278.453 126.704L278.518 127.402C279.055 133.179 279.607 138.041 280.145 142.024L280.26 142.867C280.393 143.82 280.517 144.664 280.632 145.401L280.74 146.085L280.845 146.715C280.861 146.807 280.873 146.872 280.879 146.908C280.888 146.957 280.88 147.007 280.856 147.05L280.824 147.113C280.81 147.141 280.793 147.176 280.774 147.216C280.71 147.354 280.646 147.509 280.587 147.678C280.356 148.332 280.254 148.996 280.351 149.607C280.481 150.427 280.961 151.082 281.887 151.526C281.982 151.571 282.025 151.691 281.982 151.793C281.94 151.895 281.828 151.941 281.733 151.896C280.692 151.397 280.13 150.629 279.979 149.674C279.869 148.982 279.981 148.25 280.233 147.535C280.285 147.389 280.339 147.253 280.395 147.127L280.456 146.993L280.495 146.913L280.456 146.685C280.424 146.497 280.388 146.28 280.348 146.034L280.259 145.467C280.128 144.622 279.984 143.638 279.83 142.511L279.707 141.599C279.167 137.54 278.614 132.6 278.077 126.744C278.067 126.633 278.143 126.533 278.247 126.522Z" fill="#597EF7"/>
<path fill-rule="evenodd" clip-rule="evenodd" d="M274.883 147.257L276.751 154.814L303.046 150.319C305.888 149.799 307.748 146.838 307.13 143.818C306.511 140.799 303.666 138.946 300.881 139.749L274.883 147.257Z" fill="#ADC6FF"/>
<path d="M278.772 146.698C278.865 146.674 278.959 146.727 278.993 146.82L279.001 146.846L280.645 153.889C280.67 153.998 280.609 154.108 280.508 154.135C280.415 154.16 280.321 154.107 280.287 154.014L280.279 153.988L278.635 146.944C278.609 146.836 278.671 146.726 278.772 146.698Z" fill="#597EF7"/>
<path fill-rule="evenodd" clip-rule="evenodd" d="M277.902 152.082C277.584 152.157 277.384 152.493 277.453 152.834C277.523 153.174 277.837 153.389 278.154 153.314C278.471 153.239 278.672 152.903 278.602 152.563C278.533 152.223 278.219 152.008 277.902 152.082Z" fill="white"/>
<path d="M299.039 139.795C299.14 139.765 299.244 139.827 299.272 139.935C299.298 140.034 299.251 140.136 299.165 140.176L299.141 140.185L275.112 147.398L276.889 154.583L304.801 149.37C304.896 149.353 304.986 149.413 305.014 149.508L305.02 149.535C305.036 149.636 304.98 149.733 304.891 149.763L304.866 149.769L276.783 155.014C276.695 155.031 276.61 154.979 276.576 154.894L276.568 154.867L274.7 147.309C274.675 147.211 274.723 147.11 274.807 147.071L274.831 147.062L299.039 139.795Z" fill="#597EF7"/>
<path d="M299.175 120.54C299.27 120.544 299.347 120.623 299.356 120.723L299.357 120.75L298.682 140.438C298.678 140.55 298.591 140.637 298.487 140.633C298.391 140.629 298.315 140.55 298.305 140.451L298.305 140.423L298.979 120.735C298.983 120.623 299.07 120.536 299.175 120.54Z" fill="#597EF7"/>
<path fill-rule="evenodd" clip-rule="evenodd" d="M264.427 158.943L284.91 156.384L264.993 148.952L248.053 152.87L264.427 158.943Z" fill="#4E5C93"/>
<path fill-rule="evenodd" clip-rule="evenodd" d="M263.721 157.389L278.597 155.531L264.481 150.119L251.828 152.979L263.721 157.389Z" fill="#253368"/>
<path fill-rule="evenodd" clip-rule="evenodd" d="M284.856 157.51L284.915 156.392L264.018 158.824L264.324 160.033L284.856 157.51Z" fill="#FF7A46"/>
<path d="M261.622 150.99C261.638 150.949 261.679 150.926 261.719 150.934L261.736 150.94L273.192 156.024C273.237 156.044 273.258 156.099 273.24 156.146C273.223 156.188 273.182 156.211 273.142 156.202L273.126 156.197L261.669 151.113C261.625 151.093 261.603 151.038 261.622 150.99Z" fill="#CCD7EE"/>
<path d="M263.188 150.394C263.203 150.352 263.244 150.329 263.284 150.336L263.301 150.342L276.122 155.763C276.166 155.782 276.188 155.837 276.171 155.885C276.155 155.927 276.114 155.95 276.075 155.942L276.057 155.937L263.237 150.516C263.192 150.497 263.17 150.442 263.188 150.394Z" fill="#CCD7EE"/>
<path d="M261.402 152.117C261.418 152.076 261.46 152.054 261.499 152.062L261.516 152.068L271.131 156.504C271.175 156.524 271.195 156.579 271.176 156.627C271.16 156.668 271.118 156.69 271.079 156.681L271.062 156.675L261.447 152.24C261.403 152.22 261.383 152.165 261.402 152.117Z" fill="#CCD7EE"/>
<path d="M258.714 152.286C258.731 152.245 258.772 152.223 258.812 152.231L258.829 152.237L268.443 156.673C268.487 156.693 268.508 156.748 268.489 156.795C268.472 156.837 268.431 156.859 268.391 156.85L268.374 156.844L258.76 152.409C258.716 152.389 258.695 152.334 258.714 152.286Z" fill="#CCD7EE"/>
<path d="M256.226 152.627C256.243 152.585 256.284 152.563 256.324 152.572L256.341 152.578L265.955 157.013C265.999 157.034 266.02 157.089 266.001 157.136C265.984 157.178 265.943 157.2 265.903 157.191L265.886 157.185L256.272 152.75C256.227 152.729 256.207 152.674 256.226 152.627Z" fill="#CCD7EE"/>
<path d="M276.202 154.737C276.25 154.732 276.292 154.771 276.296 154.822C276.3 154.867 276.273 154.908 276.234 154.92L276.216 154.923L263.505 156.039C263.457 156.044 263.414 156.005 263.41 155.954C263.407 155.909 263.434 155.869 263.473 155.856L263.49 155.853L276.202 154.737Z" fill="#CCD7EE"/>
<path d="M273.441 153.553C273.489 153.549 273.531 153.587 273.535 153.639C273.538 153.684 273.511 153.724 273.472 153.736L273.455 153.74L260.743 154.856C260.695 154.86 260.653 154.822 260.649 154.77C260.645 154.725 260.672 154.685 260.711 154.673L260.729 154.669L273.441 153.553Z" fill="#CCD7EE"/>
<path d="M269.987 152.693C270.035 152.688 270.077 152.727 270.081 152.778C270.085 152.823 270.058 152.864 270.019 152.876L270.001 152.879L257.29 153.996C257.242 154 257.2 153.961 257.196 153.91C257.192 153.865 257.219 153.825 257.258 153.812L257.275 153.809L269.987 152.693Z" fill="#CCD7EE"/>
<path d="M267.708 150.712C267.756 150.708 267.798 150.746 267.802 150.798C267.805 150.843 267.779 150.883 267.74 150.895L267.722 150.899L255.01 152.015C254.962 152.019 254.92 151.981 254.916 151.929C254.913 151.884 254.94 151.844 254.979 151.832L254.996 151.829L267.708 150.712Z" fill="#CCD7EE"/>
<path fill-rule="evenodd" clip-rule="evenodd" d="M264.305 160.034L263.387 160.078L247.899 154.102L242.646 125.383L259.408 129.744L264.305 160.034Z" fill="#FF7A46"/>
<path fill-rule="evenodd" clip-rule="evenodd" d="M263.357 160.08L247.024 153.786C246.874 153.728 246.764 153.591 246.733 153.424L241.657 125.822C241.593 125.475 241.887 125.174 242.207 125.258L258.106 129.42C258.28 129.465 258.412 129.618 258.443 129.807L263.357 160.08Z" fill="#FAAD14"/>
<path fill-rule="evenodd" clip-rule="evenodd" d="M266.009 147.354L274.908 147.088L276.185 152.41C274.518 153.665 269.484 152.752 269.484 152.752L266.045 154.577C265.513 154.805 265.386 154.425 265.122 154.425C264.413 154.425 264.413 153.627 264.413 153.627C264.169 153.502 263.775 153.703 263.669 152.98C263.669 152.98 263.172 152.943 263.137 152.296C263.118 151.955 266.009 147.354 266.009 147.354Z" fill="#997C79"/>
<path d="M270.345 150.891C270.422 150.876 270.496 150.931 270.51 151.013C270.522 151.088 270.482 151.159 270.418 151.184L270.396 151.19L268.098 151.638L265.576 154.267C265.526 154.319 265.45 154.324 265.395 154.282L265.376 154.264C265.328 154.21 265.323 154.128 265.362 154.07L265.379 154.049L267.931 151.388C267.947 151.372 267.965 151.36 267.985 151.353L268.005 151.347L270.345 150.891Z" fill="#604346"/>
<path d="M269.118 149.606C269.191 149.577 269.272 149.619 269.299 149.698C269.322 149.769 269.294 149.846 269.234 149.882L269.213 149.892L267.26 150.639L264.873 153.425C264.826 153.48 264.75 153.489 264.693 153.451L264.673 153.434C264.622 153.383 264.613 153.302 264.649 153.241L264.664 153.219L267.075 150.406C267.086 150.394 267.098 150.384 267.111 150.376L267.132 150.366L269.118 149.606Z" fill="#604346"/>
<path d="M267.935 148.395C268.006 148.359 268.09 148.391 268.124 148.466C268.154 148.535 268.133 148.615 268.077 148.656L268.057 148.669L266.527 149.452L264.242 152.505C264.199 152.563 264.124 152.577 264.065 152.543L264.043 152.528C263.989 152.481 263.975 152.401 264.007 152.337L264.021 152.314L266.326 149.235C266.335 149.223 266.345 149.213 266.357 149.204L266.375 149.193L267.935 148.395Z" fill="#604346"/>
<path fill-rule="evenodd" clip-rule="evenodd" d="M95.34 215.592C94.5099 215.592 93.8558 214.885 93.9204 214.057L99.3242 144.821H104.503L96.8743 214.323C96.795 215.045 96.1852 215.592 95.4589 215.592" fill="#FFC53D"/>
<path fill-rule="evenodd" clip-rule="evenodd" d="M214.643 215.592C215.473 215.592 216.127 214.885 216.063 214.057L210.659 144.821H205.48L213.109 214.323C213.188 215.045 213.798 215.592 214.524 215.592" fill="#FFC53D"/>
<path fill-rule="evenodd" clip-rule="evenodd" d="M213.721 144.822H96.2617C95.8352 144.822 95.4362 144.612 95.1949 144.26C94.6043 143.402 95.2192 142.232 96.2617 142.232H213.721C214.763 142.232 215.378 143.402 214.788 144.26C214.546 144.612 214.148 144.822 213.721 144.822Z" fill="#FFC53D"/>
<path fill-rule="evenodd" clip-rule="evenodd" d="M210.83 146.547H99.1504L99.3229 144.821H210.657L210.83 146.547Z" fill="#D48806"/>
<path d="M155.089 21.7969V123.272L132.039 140.842" stroke="#FFC53D" stroke-width="2" stroke-linecap="round" stroke-linejoin="round"/>
<path d="M155.146 123.271L178.196 140.842" stroke="#D48806" stroke-width="2" stroke-linecap="round" stroke-linejoin="round"/>
<path fill-rule="evenodd" clip-rule="evenodd" d="M218.127 106H90.8725C87.6301 106 85 104.06 85 101.667V32.3335C85 29.9399 87.6301 28 90.8725 28H218.127C221.37 28 224 29.9399 224 32.3335V101.667C224 104.06 221.37 106 218.127 106Z" fill="#253368"/>
<path fill-rule="evenodd" clip-rule="evenodd" d="M136.277 159.169C144.459 155.298 149.336 165.449 145.221 171.101C140.199 177.998 137.626 185.934 136.194 188.325C134.985 190.342 131.675 195.26 127.689 192.993C124.02 190.907 126.02 182.72 126.02 182.72C126.02 182.72 126.182 163.944 136.277 159.169Z" fill="#5B8C00"/>
<path fill-rule="evenodd" clip-rule="evenodd" d="M111.664 191.417C108.882 187.664 107.866 182.278 110.971 180.896C113.948 179.572 118.88 182.833 121.164 189.107C123.448 195.382 124.766 199.894 122.532 200.678C118.866 201.965 115.338 196.374 111.664 191.417Z" fill="#5B8C00"/>
<path fill-rule="evenodd" clip-rule="evenodd" d="M140.91 191.703C137.764 195.39 133.223 202.807 130.379 200.209C128.655 198.635 130.959 191.179 137.268 187.122C142.634 183.672 144.057 188.015 140.91 191.703Z" fill="#7CB305"/>
<path fill-rule="evenodd" clip-rule="evenodd" d="M110.802 166.115C111.998 165.31 113.503 165.126 114.877 165.566C116.794 166.18 119.702 168.008 122.581 173.255C126.34 180.105 128.296 187.615 127.91 192.372C127.657 195.483 123.824 196.824 121.68 194.556C120.695 193.514 119.654 191.908 118.634 189.472C114.532 179.669 110.696 173.525 110.239 172.909C109.019 171.263 108.146 167.902 110.802 166.115Z" fill="#7CB305"/>
<path fill-rule="evenodd" clip-rule="evenodd" d="M113.553 170.024C113.593 170.508 113.234 170.933 112.75 170.974C112.266 171.015 111.841 170.655 111.8 170.171C111.759 169.687 112.119 169.262 112.603 169.221C113.087 169.181 113.512 169.54 113.553 170.024Z" fill="white"/>
<path fill-rule="evenodd" clip-rule="evenodd" d="M121.023 173.779C121.064 174.263 120.704 174.688 120.22 174.729C119.736 174.77 119.311 174.41 119.27 173.926C119.23 173.442 119.589 173.017 120.073 172.976C120.557 172.936 120.983 173.295 121.023 173.779Z" fill="white"/>
<path fill-rule="evenodd" clip-rule="evenodd" d="M119.771 183.777C119.818 184.331 119.406 184.818 118.852 184.865C118.297 184.911 117.81 184.5 117.764 183.945C117.717 183.391 118.129 182.904 118.683 182.858C119.238 182.811 119.725 183.223 119.771 183.777Z" fill="white"/>
<path fill-rule="evenodd" clip-rule="evenodd" d="M142.716 168.836C142.716 169.622 142.078 170.26 141.292 170.26C140.505 170.26 139.867 169.622 139.867 168.836C139.867 168.049 140.505 167.411 141.292 167.411C142.078 167.411 142.716 168.049 142.716 168.836Z" fill="white"/>
<path fill-rule="evenodd" clip-rule="evenodd" d="M131.249 173.185C131.249 173.972 130.612 174.61 129.825 174.61C129.038 174.61 128.401 173.972 128.401 173.185C128.401 172.399 129.038 171.761 129.825 171.761C130.612 171.761 131.249 172.399 131.249 173.185Z" fill="white"/>
<path fill-rule="evenodd" clip-rule="evenodd" d="M134.963 182.854C134.963 183.183 134.697 183.449 134.368 183.449C134.039 183.449 133.772 183.183 133.772 182.854C133.772 182.525 134.039 182.259 134.368 182.259C134.697 182.259 134.963 182.525 134.963 182.854Z" fill="white"/>
<path fill-rule="evenodd" clip-rule="evenodd" d="M139.252 190.468C139.252 190.953 138.858 191.347 138.373 191.347C137.887 191.347 137.493 190.953 137.493 190.468C137.493 189.982 137.887 189.588 138.373 189.588C138.858 189.588 139.252 189.982 139.252 190.468Z" fill="white"/>
<path d="M118.709 192.419C118.791 192.34 118.921 192.344 118.999 192.425L119.036 192.466L119.065 192.497C119.117 192.555 119.176 192.624 119.243 192.704C119.434 192.931 119.646 193.203 119.874 193.519C120.523 194.418 121.172 195.491 121.778 196.736C123.505 200.289 124.541 204.509 124.541 209.381C124.541 209.494 124.449 209.586 124.336 209.586C124.223 209.586 124.131 209.494 124.131 209.381C124.131 204.573 123.11 200.414 121.409 196.915C120.814 195.692 120.177 194.639 119.541 193.759C119.332 193.469 119.138 193.219 118.962 193.007L118.929 192.968C118.879 192.908 118.834 192.855 118.793 192.809L118.742 192.751C118.723 192.73 118.709 192.716 118.702 192.709C118.624 192.627 118.627 192.497 118.709 192.419Z" fill="#253368"/>
<path d="M134.203 193.854C134.27 193.763 134.399 193.745 134.49 193.812C134.58 193.88 134.599 194.009 134.531 194.099C133.784 195.1 133.095 196.175 132.461 197.316C131.121 199.726 130.085 202.31 129.316 204.894C129.047 205.799 128.83 206.638 128.662 207.392L128.628 207.546C128.588 207.73 128.553 207.898 128.523 208.049L128.504 208.147L128.47 208.333C128.451 208.445 128.346 208.52 128.234 208.502C128.122 208.483 128.047 208.377 128.066 208.265L128.077 208.199C128.087 208.146 128.099 208.083 128.113 208.011L128.147 207.841C128.18 207.678 128.218 207.498 128.262 207.302L128.299 207.137C128.464 206.418 128.67 205.626 128.923 204.777C129.7 202.166 130.747 199.555 132.103 197.116C132.745 195.961 133.444 194.87 134.203 193.854Z" fill="#253368"/>
<path d="M137.786 168.268C137.865 168.343 137.871 168.466 137.802 168.548L137.793 168.558C137.789 168.562 137.78 168.571 137.767 168.585L137.716 168.641L137.687 168.673C137.599 168.771 137.496 168.89 137.38 169.028C137.048 169.426 136.678 169.904 136.278 170.463C135.135 172.063 133.992 173.99 132.924 176.246C131.146 180.003 129.762 184.287 128.922 189.103C127.903 194.952 127.735 201.341 128.569 208.275C128.582 208.387 128.502 208.489 128.39 208.503C128.277 208.517 128.175 208.436 128.162 208.324C127.323 201.35 127.493 194.921 128.518 189.033C129.364 184.179 130.76 179.86 132.553 176.071C133.632 173.792 134.788 171.844 135.945 170.225L136.034 170.1C136.391 169.606 136.724 169.176 137.028 168.811L137.066 168.765C137.175 168.635 137.272 168.522 137.358 168.425L137.382 168.399C137.408 168.369 137.432 168.343 137.454 168.32L137.496 168.274C137.575 168.192 137.705 168.19 137.786 168.268Z" fill="#253368"/>
<path d="M120.035 180.429C120.132 180.371 120.258 180.402 120.317 180.498L120.337 180.533C120.354 180.561 120.373 180.594 120.395 180.632L120.427 180.689C120.482 180.785 120.544 180.896 120.612 181.022L120.669 181.126C120.877 181.514 121.106 181.964 121.35 182.473L121.383 182.542C122.179 184.21 122.975 186.161 123.717 188.377C125.796 194.582 127.061 201.626 127.108 209.38C127.109 209.493 127.018 209.585 126.904 209.586C126.791 209.587 126.699 209.495 126.698 209.382C126.651 201.674 125.394 194.673 123.328 188.507C122.605 186.347 121.831 184.443 121.056 182.809L121.013 182.719C120.748 182.164 120.502 181.68 120.279 181.269L120.212 181.145C120.148 181.028 120.09 180.925 120.04 180.837L120.015 180.795L119.966 180.711C119.907 180.614 119.938 180.488 120.035 180.429Z" fill="#253368"/>
<path fill-rule="evenodd" clip-rule="evenodd" d="M135.819 219.553H118.092C117.134 219.553 116.35 218.769 116.35 217.811V204.879C116.35 203.92 117.134 203.137 118.092 203.137H135.819C136.777 203.137 137.561 203.92 137.561 204.879V217.811C137.561 218.769 136.777 219.553 135.819 219.553Z" fill="#253368"/>
<g clip-path="url(#clip1)">
<path fill-rule="evenodd" clip-rule="evenodd" d="M142.396 208.895C142.396 208.895 141.859 204.603 147.654 202.671C153.449 200.74 154.737 201.759 154.737 201.759L154.201 203.476C154.201 203.476 153.288 207.769 149.103 208.359C144.918 208.949 143.308 208.091 142.396 208.895Z" fill="#7CB305"/>
<path d="M154.114 201.961L154.284 202.093L154.27 202.11C154.263 202.118 154.256 202.127 154.247 202.138L154.22 202.169C154.201 202.191 154.18 202.215 154.158 202.241L154.14 202.26C154.023 202.391 153.88 202.536 153.714 202.692C153.238 203.137 152.659 203.582 151.975 203.997C150.599 204.83 148.975 205.436 147.094 205.718L147.024 205.728C145.758 205.912 144.749 206.332 143.967 206.918C143.592 207.199 143.294 207.499 143.066 207.799C142.987 207.903 142.922 208 142.871 208.086L142.854 208.115C142.846 208.128 142.839 208.141 142.832 208.153L142.814 208.187L142.813 208.19L142.619 208.098L142.625 208.086C142.637 208.061 142.658 208.024 142.686 207.976C142.742 207.883 142.811 207.78 142.896 207.669C143.135 207.354 143.447 207.039 143.838 206.746C144.637 206.148 145.662 205.717 146.938 205.524L146.993 205.516C148.875 205.242 150.495 204.642 151.863 203.813C152.535 203.406 153.102 202.971 153.567 202.535C153.718 202.394 153.849 202.261 153.958 202.142L153.981 202.116C154.015 202.079 154.044 202.045 154.07 202.015L154.098 201.981L154.114 201.961Z" fill="#7CB305"/>
<path fill-rule="evenodd" clip-rule="evenodd" d="M154.039 211.793H154.737V201.759H154.039L154.227 204.842C154.281 205.719 154.286 206.599 154.245 207.477L154.039 211.793Z" fill="#7CB305"/>
<path fill-rule="evenodd" clip-rule="evenodd" d="M143.297 194.204C143.297 194.204 145.433 190.956 150.521 193.014C155.609 195.072 155.865 196.715 155.865 196.715L154.528 197.381C154.528 197.381 151.401 199.784 148.196 197.748C144.99 195.711 144.39 194.186 143.297 194.204Z" fill="#7CB305"/>
<path fill-rule="evenodd" clip-rule="evenodd" d="M155.166 214.583H155.702L155.913 196.871C155.915 196.652 155.771 196.459 155.561 196.399L155.166 196.286C155.166 196.286 155.301 197.932 155.273 199.988C155.247 201.956 155.059 204.297 155.059 206.031C155.059 210.935 155.166 214.583 155.166 214.583Z" fill="#7CB305"/>
<path fill-rule="evenodd" clip-rule="evenodd" d="M150.552 194.085C152.868 195.882 155.221 197.036 155.221 197.036L154.528 197.38C154.528 197.38 151.401 199.783 148.196 197.747C144.99 195.71 144.39 194.185 143.297 194.203C143.297 194.203 146.957 191.295 150.552 194.085Z" fill="#5B8C00"/>
<path fill-rule="evenodd" clip-rule="evenodd" d="M168.406 201.886C168.406 201.886 166.965 199.706 163.533 201.087C160.1 202.469 159.928 203.572 159.928 203.572L160.83 204.018C160.83 204.018 162.939 205.631 165.102 204.264C167.264 202.898 167.669 201.874 168.406 201.886Z" fill="#7CB305"/>
<path fill-rule="evenodd" clip-rule="evenodd" d="M160.391 215.653H160.02L159.875 203.706C159.873 203.559 159.972 203.428 160.117 203.388L160.391 203.312C160.391 203.312 160.298 204.422 160.317 205.809C160.335 207.136 160.465 208.715 160.465 209.884C160.465 213.192 160.391 215.653 160.391 215.653Z" fill="#7CB305"/>
<path fill-rule="evenodd" clip-rule="evenodd" d="M168.806 190.072C168.806 190.072 166.67 186.824 161.582 188.882C156.493 190.94 156.238 192.583 156.238 192.583L157.575 193.249C157.575 193.249 160.701 195.652 163.907 193.616C167.113 191.579 167.713 190.054 168.806 190.072Z" fill="#7CB305"/>
<path fill-rule="evenodd" clip-rule="evenodd" d="M156.936 211.149H156.4L156.189 192.739C156.187 192.521 156.331 192.327 156.541 192.267L156.936 192.154C156.936 192.154 156.802 193.8 156.829 195.857C156.855 197.824 157.044 200.165 157.044 201.899C157.044 206.803 156.936 211.149 156.936 211.149Z" fill="#7CB305"/>
<path fill-rule="evenodd" clip-rule="evenodd" d="M168.807 190.071C168.807 190.071 165.146 187.163 161.551 189.953C159.235 191.75 156.883 192.905 156.883 192.905L157.576 193.248C157.576 193.248 160.702 195.652 163.908 193.615C167.114 191.578 167.714 190.053 168.807 190.071Z" fill="#5B8C00"/>
<path fill-rule="evenodd" clip-rule="evenodd" d="M157.903 210.988H158.815L159.176 199.585L158.489 188.822C158.492 188.604 158.348 188.41 158.138 188.35L157.742 188.237C157.742 188.237 158.601 196.784 158.601 198.518C158.601 203.422 157.903 210.988 157.903 210.988Z" fill="#7CB305"/>
<path fill-rule="evenodd" clip-rule="evenodd" d="M147.639 182.215C147.639 182.215 149.587 179.33 154.201 182.227C158.85 185.146 158.527 188.975 158.527 188.975L157.042 189.13C157.042 189.13 153.271 190.284 150.983 187.252C148.696 184.22 148.669 182.581 147.639 182.215Z" fill="#7CB305"/>
<path fill-rule="evenodd" clip-rule="evenodd" d="M147.639 182.215C147.639 182.215 149.736 180.669 151.518 182.871C152.431 183.998 154.044 184.847 154.738 185.5C156.539 187.196 157.811 189.05 157.811 189.05L157.042 189.129C157.042 189.129 153.271 190.283 150.983 187.252C148.696 184.22 148.669 182.581 147.639 182.215Z" fill="#5B8C00"/>
<path fill-rule="evenodd" clip-rule="evenodd" d="M162.986 226.011H150.538C149.827 226.011 149.25 225.435 149.25 224.724V212.275C149.25 211.564 149.827 210.987 150.538 210.987H162.986C163.697 210.987 164.274 211.564 164.274 212.275V224.724C164.274 225.435 163.697 226.011 162.986 226.011Z" fill="#253368"/>
</g>
<defs>
<clipPath id="clip0">
<rect width="65" height="56" fill="white" transform="translate(260 170)"/>
</clipPath>
<clipPath id="clip1">
<rect width="36.2637" height="50" fill="white" transform="translate(138 176)"/>
</clipPath>
</defs>
</svg>
