<svg width="62" height="59" viewBox="0 0 62 59" fill="none" xmlns="http://www.w3.org/2000/svg">
<path fill-rule="evenodd" clip-rule="evenodd" d="M30.8491 59C47.8866 59 61.6982 45.7924 61.6982 29.5C61.6982 13.2076 47.8866 0 30.8491 0C13.8116 0 0 13.2076 0 29.5C0 45.7924 13.8116 59 30.8491 59Z" fill="#F7F8FA"/>
<path fill-rule="evenodd" clip-rule="evenodd" d="M20.9141 22V26H41.8287V22H20.9141ZM41.8287 38H20.9141V34H41.8287V38ZM25.097 35H23.0055V37H25.097V35ZM23.0055 25H25.097V23H23.0055V25ZM20.9141 32H41.8287V28H20.9141V32ZM25.097 29H23.0055V31H25.097V29Z" fill="#0F53FA"/>
</svg>
