<svg width="63" height="59" viewBox="0 0 63 59" fill="none" xmlns="http://www.w3.org/2000/svg">
<path fill-rule="evenodd" clip-rule="evenodd" d="M31.0903 59C48.261 59 62.1806 45.7924 62.1806 29.5C62.1806 13.2076 48.261 0 31.0903 0C13.9196 0 0 13.2076 0 29.5C0 45.7924 13.9196 59 31.0903 59Z" fill="#F7F8FA"/>
<path d="M26.9796 30H23.6071C23.3744 30 23.1855 30.2016 23.1855 30.45V38.55C23.1855 38.7984 23.3744 39 23.6071 39H26.9796C27.2123 39 27.4012 38.7984 27.4012 38.55V30.45C27.4012 30.2016 27.2123 30 26.9796 30Z" fill="#0F53FA"/>
<path d="M39.9408 25.6794L34.1038 19.155C33.9194 18.9483 33.5284 18.9483 33.344 19.155L27.507 25.6794C27.3903 25.8098 27.3674 25.9886 27.4482 26.1395C27.5294 26.2905 27.7001 26.3862 27.8869 26.3862H31.2918V38.565C31.2918 38.8051 31.5097 39 31.7782 39H35.6695C35.9381 39 36.156 38.8051 36.156 38.565V26.3862H39.5609C39.7476 26.3862 39.9184 26.2905 39.9991 26.1395C40.0804 25.989 40.0575 25.8098 39.9408 25.6794Z" fill="#0F53FA"/>
</svg>
