<svg width="63" height="59" viewBox="0 0 63 59" fill="none" xmlns="http://www.w3.org/2000/svg">
<path fill-rule="evenodd" clip-rule="evenodd" d="M31.2256 59C48.4711 59 62.4513 45.7924 62.4513 29.5C62.4513 13.2076 48.4711 0 31.2256 0C13.9802 0 0 13.2076 0 29.5C0 45.7924 13.9802 59 31.2256 59Z" fill="#F7F8FA"/>
<path d="M33.3017 34.5H28.1328C27.8506 32.53 25.9333 31 23.6124 31C21.0983 31 19.0527 32.7945 19.0527 35C19.0527 37.2055 21.0983 39 23.6124 39C25.9333 39 27.8506 37.47 28.1328 35.5H33.3017C33.6169 35.5 33.8717 35.2765 33.8717 35C33.8717 34.7235 33.6169 34.5 33.3017 34.5Z" fill="#0F53FA"/>
<path d="M40.0008 30.9887C39.333 30.9887 38.702 31.1249 38.1328 31.3627L35.9586 28.2353C35.796 28.001 35.4523 27.9294 35.1911 28.0766C34.9305 28.2228 34.8514 28.5317 35.0146 28.7665L37.1877 31.892C36.1864 32.627 35.5453 33.7441 35.5453 34.9943C35.5453 37.203 37.5442 39 40.0008 39C42.4573 39 44.4562 37.203 44.4562 34.9943C44.4562 32.7857 42.4573 30.9887 40.0008 30.9887Z" fill="#0F53FA"/>
<path d="M31.5064 19C29.0346 19 27.0234 20.811 27.0234 23.0369C27.0234 24.2969 27.6684 25.4227 28.6754 26.1634L26.5482 29.2279C26.384 29.4646 26.4641 29.776 26.7258 29.9233C26.8183 29.9758 26.9214 30 27.0223 30C27.2089 30 27.3916 29.9162 27.498 29.7628L29.6269 26.6963C30.1996 26.9365 30.8345 27.0738 31.5064 27.0738C33.9782 27.0738 35.9894 25.2627 35.9894 23.0369C35.9894 20.811 33.9782 19 31.5064 19Z" fill="#0F53FA"/>
</svg>
