<svg width="50" height="50" viewBox="0 0 50 50" fill="none" xmlns="http://www.w3.org/2000/svg">
<path d="M24.5575 10.3447L7.03125 10.9332L9.72961 18.8317C11.5527 23.9693 15.2303 27.1359 20.0798 28.0287C21.829 28.2904 23.2164 28.2053 24.4961 27.9849C23.279 28.3806 21.1967 29.2571 20.4016 30.7959C19.2496 33.0298 19.177 34.7076 19.2935 38.2437L20.0097 44.269C20.0097 44.269 32.5211 39.0288 32.4935 38.6869C34.3254 37.5462 36.6093 35.8959 38.063 33.8449C39.1562 32.3048 39.781 30.5355 39.3941 28.5847C41.8745 25.7849 41.5252 24.2873 38.3448 24.0907C38.0443 24.0732 37.7312 24.0707 37.4082 24.0845C37.3568 23.218 37.2892 22.1887 37.2091 20.9967C36.7508 17.7637 35.1606 14.8224 32.7878 12.8252C30.7931 11.1461 28.3815 10.2471 25.9423 10.2471C25.4803 10.2471 25.0182 10.2796 24.5575 10.3447Z" fill="url(#paint0_linear)"/>
<path d="M33.4676 25.9753C27.6363 27.6231 26.7523 29.7255 26.1212 32.2198C25.4877 34.7128 26.4255 40.976 26.88 42.8304C26.88 42.8304 34.4417 40.9622 40.1452 37.0104C43.5949 33.9377 42.9225 32.5603 42.7747 27.99C42.4404 23.6539 41.9921 20.5473 41.4312 18.6729C41.9646 21.2911 39.3088 23.7252 33.4676 25.9753Z" fill="url(#paint1_linear)"/>
<path d="M16.937 16.4037C18.4921 23.1089 21.5436 25.9838 27.1457 26.5861C28.508 27.0944 38.4838 26.5723 42.5007 32.4486C42.85 32.3046 42.6321 28.3065 41.8508 20.4556C40.9217 16.4462 40.4922 13.8581 38.2497 11.5266C36.0071 9.19384 31.3053 7.84654 28.4204 7.39577L15.2754 5.71289L16.937 16.4037Z" fill="url(#paint2_linear)"/>
<path d="M33.1096 26.0847C32.62 26.2187 32.2381 26.3564 32.1191 26.3952C31.4818 26.6081 30.8482 26.866 30.584 26.9987C37.0025 28.1394 41.097 29.9926 42.8675 32.5595C43.0002 32.2778 42.8587 29.9676 42.8262 28.8456C42.4944 24.0099 42.0098 20.6041 41.415 18.6182C41.6504 21.2664 39.4504 23.8145 33.1096 26.0847Z" fill="#FFB511"/>
<defs>
<linearGradient id="paint0_linear" x1="11.2793" y1="29.1751" x2="33.1055" y2="26.4407" gradientUnits="userSpaceOnUse">
<stop stop-color="#FFBA00"/>
<stop offset="1" stop-color="#FA5800"/>
</linearGradient>
<linearGradient id="paint1_linear" x1="41.5025" y1="24.6098" x2="26.6344" y2="43.7016" gradientUnits="userSpaceOnUse">
<stop stop-color="#FFF75D"/>
<stop offset="1" stop-color="#F89800"/>
</linearGradient>
<linearGradient id="paint2_linear" x1="15.7227" y1="6.10352" x2="41.1622" y2="28.0273" gradientUnits="userSpaceOnUse">
<stop stop-color="#FFF75D"/>
<stop offset="1" stop-color="#F89600"/>
</linearGradient>
</defs>
</svg>
