<svg width="50" height="50" viewBox="0 0 50 50" fill="none" xmlns="http://www.w3.org/2000/svg">
<path fill-rule="evenodd" clip-rule="evenodd" d="M44.9839 10.2695H5.0293V6.68946C5.0293 5.91285 5.65895 5.2832 6.43555 5.2832H43.5777C44.3543 5.2832 44.9839 5.91285 44.9839 6.68946V10.2695Z" fill="#253368"/>
<path fill-rule="evenodd" clip-rule="evenodd" d="M43.5777 44.7396H6.43555C5.65895 44.7396 5.0293 44.11 5.0293 43.3333V9.84961H44.9839V43.3333C44.9839 44.11 44.3543 44.7396 43.5777 44.7396Z" fill="#E4EBF7"/>
<path fill-rule="evenodd" clip-rule="evenodd" d="M8.27484 7.60324C8.27484 8.09062 7.87968 8.48577 7.39224 8.48577C6.90486 8.48577 6.50977 8.09062 6.50977 7.60324C6.50977 7.11586 6.90486 6.7207 7.39224 6.7207C7.87968 6.7207 8.27484 7.11586 8.27484 7.60324Z" fill="#FF7946"/>
<path fill-rule="evenodd" clip-rule="evenodd" d="M11.5717 7.60324C11.5717 8.09062 11.1766 8.48577 10.6891 8.48577C10.2017 8.48577 9.80664 8.09062 9.80664 7.60324C9.80664 7.11586 10.2017 6.7207 10.6891 6.7207C11.1766 6.7207 11.5717 7.11586 11.5717 7.60324Z" fill="#FAAD14"/>
<path fill-rule="evenodd" clip-rule="evenodd" d="M14.8666 7.60324C14.8666 8.09062 14.4715 8.48577 13.984 8.48577C13.4967 8.48577 13.1016 8.09062 13.1016 7.60324C13.1016 7.11586 13.4967 6.7207 13.984 6.7207C14.4715 6.7207 14.8666 7.11586 14.8666 7.60324Z" fill="#7CB305"/>
<path fill-rule="evenodd" clip-rule="evenodd" d="M9.34701 39.9945C9.10463 39.9945 8.9082 39.7981 8.9082 39.556V14.1377C8.9082 13.8955 9.10463 13.6992 9.34701 13.6992H41.1014C41.3438 13.6992 41.5402 13.8955 41.5402 14.1377V39.556C41.5402 39.7981 41.3438 39.9945 41.1014 39.9945H9.34701Z" fill="white"/>
<path fill-rule="evenodd" clip-rule="evenodd" d="M20.2285 17.0267H12.1901C11.861 17.0267 11.5918 16.7574 11.5918 16.4284C11.5918 16.0993 11.861 15.8301 12.1901 15.8301H20.2285C20.5575 15.8301 20.8268 16.0993 20.8268 16.4284C20.8268 16.7574 20.5575 17.0267 20.2285 17.0267Z" fill="#E4EBF7"/>
<path fill-rule="evenodd" clip-rule="evenodd" d="M15.5822 19.8489H12.5905C12.2601 19.8489 11.9922 19.5811 11.9922 19.2506C11.9922 18.9202 12.2601 18.6523 12.5905 18.6523H15.5822C15.9126 18.6523 16.1805 18.9202 16.1805 19.2506C16.1805 19.5811 15.9126 19.8489 15.5822 19.8489Z" fill="#E4EBF7"/>
<path d="M25.0047 19.3555C20.8708 19.3555 17.5195 22.7067 17.5195 26.8407C17.5195 30.9746 20.8708 34.3258 25.0047 34.3258C29.1387 34.3258 32.4899 30.9746 32.4899 26.8407C32.4899 22.7067 29.1387 19.3555 25.0047 19.3555ZM25.0047 21.6992C27.8443 21.6992 30.1462 24.0011 30.1462 26.8407C30.1462 29.6802 27.8443 31.9821 25.0047 31.9821C22.1652 31.9821 19.8633 29.6802 19.8633 26.8407C19.8633 24.0011 22.1652 21.6992 25.0047 21.6992Z" fill="#FAAD14"/>
<path d="M30.2606 23.1506C30.8491 22.8812 31.5445 23.1399 31.8139 23.7284C32.2573 24.6972 32.49 25.7537 32.49 26.8408C32.49 27.731 32.334 28.6016 32.0328 29.4216C31.8096 30.0291 31.1362 30.3407 30.5287 30.1176C29.9273 29.8966 29.6159 29.2344 29.8262 28.6317L29.8328 28.6135C30.0393 28.0513 30.1463 27.4542 30.1463 26.8408C30.1463 26.1074 29.9933 25.3977 29.7012 24.7446L29.6828 24.7038C29.4134 24.1154 29.6721 23.4199 30.2606 23.1506Z" fill="#FF7946"/>
<path d="M37.2545 32.8662C35.8536 32.8662 34.7207 34.0152 34.7207 35.4293C34.7207 36.8433 35.8535 37.9923 37.2545 37.9923C38.6554 37.9923 39.7882 36.8433 39.7882 35.4293C39.7882 34.0153 38.6554 32.8662 37.2545 32.8662ZM37.2545 33.8322C38.1188 33.8322 38.8223 34.5457 38.8223 35.4293C38.8223 36.3129 38.1188 37.0264 37.2545 37.0264C36.3901 37.0264 35.6867 36.3129 35.6867 35.4293C35.6867 34.5457 36.3901 33.8322 37.2545 33.8322Z" fill="#E4EBF7"/>
<path d="M38.9412 34.0773C39.1864 33.9722 39.4703 34.0857 39.5755 34.3309C39.7165 34.6598 39.7903 35.0179 39.7903 35.386C39.7903 35.6873 39.7409 35.9821 39.6452 36.2603C39.5585 36.5125 39.2837 36.6467 39.0314 36.56C38.7835 36.4747 38.6496 36.2079 38.7274 35.9593L38.7317 35.9462C38.7927 35.7689 38.8243 35.5802 38.8243 35.386C38.8243 35.149 38.7772 34.9204 38.6876 34.7115C38.5825 34.4664 38.6961 34.1824 38.9412 34.0773Z" fill="#597EF7"/>
</svg>
