<svg width="50" height="50" viewBox="0 0 50 50" fill="none" xmlns="http://www.w3.org/2000/svg">
<path d="M0 25C0 11.1929 11.1929 0 25 0V0C38.8071 0 50 11.1929 50 25V25C50 38.8071 38.8071 50 25 50V50C11.1929 50 0 38.8071 0 25V25Z" fill="white"/>
<path d="M42.5684 9.0791V24.0919" stroke="white" stroke-width="6" stroke-linecap="round" stroke-linejoin="round"/>
<path d="M45.3533 10.7188H10.7227C9.94601 10.7188 9.31641 11.3483 9.31641 12.125V28.0766C9.31641 28.8532 9.94601 29.4828 10.7227 29.4828H45.3533C46.13 29.4828 46.7596 28.8532 46.7596 28.0766V12.125C46.7596 11.3483 46.13 10.7188 45.3533 10.7188Z" fill="#597EF7"/>
<path d="M40.6641 15.4062H24.7852C24.5263 15.4062 24.3164 15.6161 24.3164 15.875V16.8125C24.3164 17.0714 24.5263 17.2812 24.7852 17.2812H40.6641C40.9229 17.2812 41.1328 17.0714 41.1328 16.8125V15.875C41.1328 15.6161 40.9229 15.4062 40.6641 15.4062Z" fill="#2F54EB"/>
<path d="M33.2813 22.9062H24.7852C24.5263 22.9062 24.3164 23.1161 24.3164 23.375V24.3125C24.3164 24.5714 24.5263 24.7812 24.7852 24.7812H33.2813C33.5402 24.7812 33.75 24.5714 33.75 24.3125V23.375C33.75 23.1161 33.5402 22.9062 33.2813 22.9062Z" fill="#597EF7"/>
<path d="M40.6641 19.1562H24.7852C24.5263 19.1562 24.3164 19.3661 24.3164 19.625V20.5625C24.3164 20.8214 24.5263 21.0312 24.7852 21.0312H40.6641C40.9229 21.0312 41.1328 20.8214 41.1328 20.5625V19.625C41.1328 19.3661 40.9229 19.1562 40.6641 19.1562Z" fill="#2F54EB"/>
<path d="M18.2227 15.4062H12.5977C12.0799 15.4062 11.6602 15.826 11.6602 16.3438V21.9688C11.6602 22.4865 12.0799 22.9063 12.5977 22.9063H18.2227C18.7404 22.9063 19.1602 22.4865 19.1602 21.9688V16.3438C19.1602 15.826 18.7404 15.4062 18.2227 15.4062Z" fill="#2F54EB"/>
<path d="M21.5332 15.4062V27.6137" stroke="white" stroke-width="6" stroke-linecap="round" stroke-linejoin="round"/>
<path d="M39.2596 22.1582H4.62891C3.85226 22.1582 3.22266 22.7878 3.22266 23.5645V39.516C3.22266 40.2927 3.85226 40.9223 4.62891 40.9223H39.2596C40.0362 40.9223 40.6658 40.2927 40.6658 39.516V23.5645C40.6658 22.7878 40.0362 22.1582 39.2596 22.1582Z" fill="#E4EBF7"/>
<path d="M34.5703 26.8457H18.6914C18.4325 26.8457 18.2227 27.0556 18.2227 27.3145V28.252C18.2227 28.5108 18.4325 28.7207 18.6914 28.7207H34.5703C34.8292 28.7207 35.0391 28.5108 35.0391 28.252V27.3145C35.0391 27.0556 34.8292 26.8457 34.5703 26.8457Z" fill="#597EF7"/>
<path d="M27.1875 34.3457H18.6914C18.4325 34.3457 18.2227 34.5556 18.2227 34.8145V35.752C18.2227 36.0108 18.4325 36.2207 18.6914 36.2207H27.1875C27.4464 36.2207 27.6563 36.0108 27.6563 35.752V34.8145C27.6563 34.5556 27.4464 34.3457 27.1875 34.3457Z" fill="#597EF7"/>
<path d="M34.5703 30.5957H18.6914C18.4325 30.5957 18.2227 30.8056 18.2227 31.0644V32.0019C18.2227 32.2608 18.4325 32.4707 18.6914 32.4707H34.5703C34.8292 32.4707 35.0391 32.2608 35.0391 32.0019V31.0644C35.0391 30.8056 34.8292 30.5957 34.5703 30.5957Z" fill="#597EF7"/>
<path d="M12.1289 26.8457H6.50391C5.98614 26.8457 5.56641 27.2654 5.56641 27.7832V33.4082C5.56641 33.926 5.98614 34.3457 6.50391 34.3457H12.1289C12.6467 34.3457 13.0664 33.926 13.0664 33.4082V27.7832C13.0664 27.2654 12.6467 26.8457 12.1289 26.8457Z" fill="#597EF7"/>
<path d="M15.4395 26.8457V39.0531" stroke="white" stroke-width="6" stroke-linecap="round" stroke-linejoin="round"/>
</svg>
