<svg width="50" height="50" viewBox="0 0 50 50" fill="none" xmlns="http://www.w3.org/2000/svg">
<path fill-rule="evenodd" clip-rule="evenodd" d="M25.1316 43.995H24.6208C23.9186 43.995 23.3438 43.4218 23.3438 42.7209V32.5281C23.3438 31.8271 23.9186 31.2539 24.6208 31.2539H25.1316C25.8339 31.2539 26.4087 31.8271 26.4087 32.5281V42.7209C26.4087 43.4218 25.8339 43.995 25.1316 43.995Z" fill="#253368"/>
<path fill-rule="evenodd" clip-rule="evenodd" d="M40.308 44.3757C40.308 45.2202 39.622 45.9047 38.7755 45.9047H11.1926C10.3462 45.9047 9.66016 45.2202 9.66016 44.3757C9.66016 43.5314 10.3462 42.8467 11.1926 42.8467H38.7755C39.622 42.8467 40.308 43.5314 40.308 44.3757Z" fill="#253368"/>
<path fill-rule="evenodd" clip-rule="evenodd" d="M20.5179 46.9587C20.0966 46.9587 19.752 46.6146 19.752 46.1942V42.5572C19.752 42.1368 20.0966 41.793 20.5179 41.793H29.2328C29.6542 41.793 29.9991 42.1368 29.9991 42.5572V46.1942C29.9991 46.6146 29.6542 46.9587 29.2328 46.9587H20.5179Z" fill="#ADC6FF"/>
<path d="M21.0254 42.5459V46.2052" stroke="#597EF7" stroke-width="6" stroke-linecap="round" stroke-linejoin="round"/>
<path d="M28.5996 42.5459V46.2052" stroke="#597EF7" stroke-width="6" stroke-linecap="round" stroke-linejoin="round"/>
<path fill-rule="evenodd" clip-rule="evenodd" d="M10.6172 37.1549H39.352V3.66504H10.6172V37.1549Z" fill="#253368"/>
<path fill-rule="evenodd" clip-rule="evenodd" d="M10.4874 37.4441C9.76812 37.4441 9.17969 36.857 9.17969 36.1396V28.4276C9.17969 27.7101 9.76812 27.123 10.4874 27.123H39.4806C40.1996 27.123 40.7883 27.7101 40.7883 28.4276V36.1396C40.7883 36.857 40.1996 37.4441 39.4806 37.4441H10.4874Z" fill="#ADC6FF"/>
<path fill-rule="evenodd" clip-rule="evenodd" d="M10.4874 13.3487C9.76812 13.3487 9.17969 12.7616 9.17969 12.0439V4.33214C9.17969 3.61473 9.76812 3.02734 10.4874 3.02734H39.4806C40.1996 3.02734 40.7883 3.61473 40.7883 4.33214V12.0439C40.7883 12.7616 40.1996 13.3487 39.4806 13.3487H10.4874Z" fill="#ADC6FF"/>
<path fill-rule="evenodd" clip-rule="evenodd" d="M12.8438 9.16687C12.3023 9.16687 11.8633 8.72857 11.8633 8.18827C11.8633 7.64798 12.3023 7.20996 12.8438 7.20996C13.3856 7.20996 13.8246 7.64798 13.8246 8.18827C13.8246 8.72857 13.3856 9.16687 12.8438 9.16687Z" fill="white"/>
<path fill-rule="evenodd" clip-rule="evenodd" d="M14.8848 8.18827C14.8848 7.64798 15.3238 7.20996 15.8656 7.20996C16.4071 7.20996 16.8464 7.64798 16.8464 8.18827C16.8464 8.72857 16.4071 9.16687 15.8656 9.16687C15.3238 9.16687 14.8848 8.72857 14.8848 8.18827Z" fill="white"/>
<path fill-rule="evenodd" clip-rule="evenodd" d="M18.889 9.16687C18.3472 9.16687 17.9082 8.72857 17.9082 8.18827C17.9082 7.64798 18.3472 7.20996 18.889 7.20996C19.4305 7.20996 19.8696 7.64798 19.8696 8.18827C19.8696 8.72857 19.4305 9.16687 18.889 9.16687Z" fill="white"/>
<path fill-rule="evenodd" clip-rule="evenodd" d="M29.2978 9.16687C29.1484 9.16687 29.0273 9.0461 29.0273 8.89701V7.47982C29.0273 7.33073 29.1484 7.20996 29.2978 7.20996H38.5638C38.7133 7.20996 38.8343 7.33073 38.8343 7.47982V8.89701C38.8343 9.0461 38.7133 9.16687 38.5638 9.16687H29.2978Z" fill="#597EF7"/>
<path fill-rule="evenodd" clip-rule="evenodd" d="M10.4874 25.3965C9.76812 25.3965 9.17969 24.8094 9.17969 24.0917V16.38C9.17969 15.6626 9.76812 15.0752 10.4874 15.0752H39.4806C40.1996 15.0752 40.7883 15.6626 40.7883 16.38V24.0917C40.7883 24.8094 40.1996 25.3965 39.4806 25.3965H10.4874Z" fill="#ADC6FF"/>
<path fill-rule="evenodd" clip-rule="evenodd" d="M12.8438 21.5643C12.3023 21.5643 11.8633 21.1263 11.8633 20.5857C11.8633 20.0454 12.3023 19.6074 12.8438 19.6074C13.3856 19.6074 13.8246 20.0454 13.8246 20.5857C13.8246 21.1263 13.3856 21.5643 12.8438 21.5643Z" fill="#FF7946"/>
<path fill-rule="evenodd" clip-rule="evenodd" d="M15.8656 21.5643C15.3238 21.5643 14.8848 21.1263 14.8848 20.5857C14.8848 20.0454 15.3238 19.6074 15.8656 19.6074C16.4071 19.6074 16.8464 20.0454 16.8464 20.5857C16.8464 21.1263 16.4071 21.5643 15.8656 21.5643Z" fill="#253368"/>
<path fill-rule="evenodd" clip-rule="evenodd" d="M18.889 21.5643C18.3472 21.5643 17.9082 21.1263 17.9082 20.5857C17.9082 20.0454 18.3472 19.6074 18.889 19.6074C19.4305 19.6074 19.8696 20.0454 19.8696 20.5857C19.8696 21.1263 19.4305 21.5643 18.889 21.5643Z" fill="#253368"/>
<path fill-rule="evenodd" clip-rule="evenodd" d="M38.5074 21.5643H29.3543C29.1736 21.5643 29.0273 21.4184 29.0273 21.2381V19.9333C29.0273 19.7533 29.1736 19.6074 29.3543 19.6074H38.5074C38.6881 19.6074 38.8343 19.7533 38.8343 19.9333V21.2381C38.8343 21.4184 38.6881 21.5643 38.5074 21.5643Z" fill="#FF7946"/>
<path fill-rule="evenodd" clip-rule="evenodd" d="M11.8633 32.3562C11.8633 31.8159 12.3023 31.3779 12.8438 31.3779C13.3856 31.3779 13.8246 31.8159 13.8246 32.3562C13.8246 32.8965 13.3856 33.3348 12.8438 33.3348C12.3023 33.3348 11.8633 32.8965 11.8633 32.3562Z" fill="white"/>
<path fill-rule="evenodd" clip-rule="evenodd" d="M15.8656 33.3348C15.3238 33.3348 14.8848 32.8965 14.8848 32.3562C14.8848 31.8159 15.3238 31.3779 15.8656 31.3779C16.4071 31.3779 16.8464 31.8159 16.8464 32.3562C16.8464 32.8965 16.4071 33.3348 15.8656 33.3348Z" fill="white"/>
<path fill-rule="evenodd" clip-rule="evenodd" d="M18.889 33.3348C18.3472 33.3348 17.9082 32.8965 17.9082 32.3562C17.9082 31.8159 18.3472 31.3779 18.889 31.3779C19.4305 31.3779 19.8696 31.8159 19.8696 32.3562C19.8696 32.8965 19.4305 33.3348 18.889 33.3348Z" fill="white"/>
<path fill-rule="evenodd" clip-rule="evenodd" d="M38.5074 33.3348H29.3543C29.1736 33.3348 29.0273 33.1886 29.0273 33.0086V31.7038C29.0273 31.5238 29.1736 31.3779 29.3543 31.3779H38.5074C38.6881 31.3779 38.8343 31.5238 38.8343 31.7038V33.0086C38.8343 33.1886 38.6881 33.3348 38.5074 33.3348Z" fill="#597EF7"/>
</svg>
