<svg width="50" height="50" viewBox="0 0 50 50" fill="none" xmlns="http://www.w3.org/2000/svg">
<path fill-rule="evenodd" clip-rule="evenodd" d="M31.0971 38.7587V32.3721H25.2882H24.6741H18.8652V38.7587C18.8652 39.3225 18.5136 39.8259 17.9849 40.022C5.87325 44.5132 4.49219 47.6817 4.49219 47.6817H24.7789H25.1834H45.4701C45.4701 47.6817 44.089 44.5132 31.9774 40.022C31.4487 39.8259 31.0971 39.3225 31.0971 38.7587Z" fill="#253368"/>
<path fill-rule="evenodd" clip-rule="evenodd" d="M16.6828 27.6618C15.0346 28.3802 13.643 26.1048 13.1721 25.1324C12.3299 23.3935 12.9725 21.3977 13.818 20.975C14.5915 20.5883 15.3957 21.0877 15.3957 21.0877C15.3957 21.0877 16.7673 22.3792 17.0861 25.1103C17.2769 26.7448 16.6828 27.6618 16.6828 27.6618Z" fill="#597EF7"/>
<path fill-rule="evenodd" clip-rule="evenodd" d="M33.1519 27.6618C34.8001 28.3802 36.1918 26.1048 36.6627 25.1324C37.5048 23.3935 36.8623 21.3977 36.0168 20.975C35.2433 20.5883 34.439 21.0877 34.439 21.0877C34.439 21.0877 33.0674 22.3792 32.7487 25.1103C32.558 26.7448 33.1519 27.6618 33.1519 27.6618Z" fill="#597EF7"/>
<path fill-rule="evenodd" clip-rule="evenodd" d="M15.1699 22.1083C15.6512 25.6302 15.7512 25.5421 16.5483 29.0293C16.9106 30.6147 20.3233 35.8273 25.0847 35.8273C29.5361 35.8273 32.7651 30.7413 33.1268 29.1199C33.889 25.7029 33.9805 25.6316 34.3934 22.1083C35.9637 8.71185 24.8209 9.18962 24.8209 9.18962C24.8209 9.18962 13.4042 9.1858 15.1699 22.1083Z" fill="#FAAD14"/>
<path fill-rule="evenodd" clip-rule="evenodd" d="M32.3575 13.2706C32.8577 15.4366 33.0492 18.4486 33.0492 18.4486L33.713 19.46L34.3879 22.9161C34.7429 21.363 35.0356 18.2005 35.0356 17.7863C35.0356 11.0985 31.7106 6.375 25.1879 6.375C17.633 6.375 14.4375 10.9268 14.4375 17.7773C14.4375 20.5205 15.2667 22.9937 15.2667 22.9937L15.6627 19.46C15.6627 19.46 16.2287 18.5622 16.2672 18.4236C16.4111 17.9054 16.4836 15.2703 16.97 13.2615C16.97 13.2615 32.0543 13.2706 32.3575 13.2706Z" fill="#4E5C93"/>
<path fill-rule="evenodd" clip-rule="evenodd" d="M32.357 13.3436C32.357 13.3436 34.3146 15.9058 34.9479 18.1225C35.2934 15.2437 35.3648 12.9721 35.1782 11.386C35.063 10.4072 34.8903 9.05415 33.0335 6.72227C32.3949 5.92036 32.3425 7.24049 32.3425 7.24049C32.3425 7.24049 32.2418 6.26172 30.7448 5.22528C29.3262 4.2432 29.8812 5.51317 29.8812 5.51317C29.8812 5.51317 29.1905 4.85524 28.269 3.901C27.3474 2.94681 26.051 2.41607 25.4477 2.34644C24.9268 2.28635 24.0523 3.24649 22.5113 3.78586C20.2082 4.59192 19.0254 6.25235 18.9163 6.31744C18.9959 5.82946 19.1146 4.89306 17.9052 6.03134C16.8724 7.00331 15.8438 8.58749 15.7892 8.64091C15.7997 8.1871 15.7447 7.41538 15.1415 8.44958C14.3354 9.83143 14.0476 11.3284 14.0476 11.3284C13.706 12.613 14.5081 18.5831 14.5081 18.5831C15.1991 15.7043 17.0127 13.3724 17.0127 13.3724C17.0127 13.3724 20.5969 13.1997 25.0447 13.8042C28.3265 13.1997 32.357 13.3436 32.357 13.3436Z" fill="#253368"/>
<path d="M22.9102 28.4297H26.9261" stroke="#D48806" stroke-width="9.6" stroke-linecap="round" stroke-linejoin="round"/>
<path d="M24.1816 29.8945H25.6509" stroke="#D48806" stroke-width="9.6" stroke-linecap="round" stroke-linejoin="round"/>
<path fill-rule="evenodd" clip-rule="evenodd" d="M36.6564 12.2793H13.3076C12.6084 12.2793 12.0256 12.8144 11.9659 13.5109L10.9492 25.3762C10.9492 26.148 11.5748 26.7736 12.3466 26.7736L21.7181 26.2716C22.3596 26.2373 22.8876 25.7545 22.979 25.1185L23.2169 23.4632C23.3121 22.8003 23.8801 22.3081 24.5498 22.3081H25.4142C26.0839 22.3081 26.6518 22.8003 26.7471 23.4632L26.985 25.1185C27.0764 25.7545 27.6043 26.2373 28.2459 26.2716L37.6173 26.7736C38.3891 26.7736 39.0148 26.148 39.0148 25.3762L37.9982 13.5109C37.9385 12.8144 37.3556 12.2793 36.6564 12.2793Z" fill="#E4EBF7"/>
</svg>
