<svg width="50" height="50" viewBox="0 0 50 50" fill="none" xmlns="http://www.w3.org/2000/svg">
<path d="M45.9641 9.46094H4.03594C3.31711 9.46094 2.73438 10.0437 2.73438 10.7625V40.7325C2.73438 41.4514 3.31711 42.0341 4.03594 42.0341H45.9641C46.6829 42.0341 47.2656 41.4514 47.2656 40.7325V10.7625C47.2656 10.0437 46.6829 9.46094 45.9641 9.46094Z" fill="#E4EBF7"/>
<path fill-rule="evenodd" clip-rule="evenodd" d="M15.5879 38.3494V15.9805C15.5879 15.7345 15.7873 15.5352 16.0332 15.5352H43.1306C43.3765 15.5352 43.5759 15.7345 43.5759 15.9805V38.4369C43.5759 38.6345 43.4116 38.7948 43.2089 38.7948H16.0332C15.7873 38.7948 15.5879 38.5954 15.5879 38.3494Z" fill="white"/>
<path fill-rule="evenodd" clip-rule="evenodd" d="M18.3475 33.1482C18.1448 33.1482 17.9805 32.988 17.9805 32.7904V18.2563C17.9805 18.0586 18.1448 17.8984 18.3475 17.8984H40.9424C41.1451 17.8984 41.3094 18.0586 41.3094 18.2563V32.7904C41.3094 32.988 41.1451 33.1482 40.9424 33.1482H18.3475Z" fill="#FAAD14"/>
<path fill-rule="evenodd" clip-rule="evenodd" d="M21.172 20.0011H19.5701C19.4462 20.0011 19.3457 19.9031 19.3457 19.7823C19.3457 19.6614 19.4462 19.5635 19.5701 19.5635H21.172C21.296 19.5635 21.3964 19.6614 21.3964 19.7823C21.3964 19.9031 21.296 20.0011 21.172 20.0011Z" fill="white"/>
<path fill-rule="evenodd" clip-rule="evenodd" d="M21.1974 21.0509H19.5955C19.4716 21.0509 19.3711 20.9529 19.3711 20.8321C19.3711 20.7112 19.4716 20.6133 19.5955 20.6133H21.1974C21.3214 20.6133 21.4218 20.7112 21.4218 20.8321C21.4218 20.9529 21.3214 21.0509 21.1974 21.0509Z" fill="white"/>
<path fill-rule="evenodd" clip-rule="evenodd" d="M17.9805 29.1204C20.4084 29.1204 19.7637 26.1209 23.4408 26.1209C27.118 26.1209 26.9265 28.8024 29.7943 28.8024C32.7069 28.8024 32.5142 21.1006 35.3045 21.1006C38.2499 21.1006 37.5851 28.0795 41.2538 28.0795V32.8091C41.2538 33.0069 41.0893 33.1671 40.8865 33.167L18.3472 33.148C18.1446 33.1479 17.9805 32.9877 17.9805 32.7902V29.1204Z" fill="#253368"/>
<path d="M23.4115 21.9375C23.8453 21.9375 24.1952 22.1951 24.4968 22.6841C24.7283 23.0594 24.9265 23.5486 25.1765 24.3129L25.2102 24.4172C25.2689 24.6032 25.6195 25.719 25.7505 26.1087L25.7588 26.1333C26.1805 27.3769 26.5932 28.248 27.1333 28.9097C27.7928 29.7177 28.607 30.1402 29.6514 30.1402C30.2926 30.1402 30.8622 29.9684 31.4101 29.6378L31.4583 29.6083C31.8663 29.3553 32.2318 29.0411 32.7369 28.5388L32.9544 28.3204L33.1037 28.1698C33.23 28.0428 33.3268 27.947 33.4201 27.8573L33.4376 27.8405C34.1842 27.126 34.7535 26.7965 35.4472 26.7965C36.1745 26.7965 36.8099 27.157 37.6803 27.9369L37.7409 27.9914C37.7886 28.0346 37.8382 28.08 37.8917 28.1294L38.3543 28.5609C38.9284 29.0949 39.2802 29.3872 39.6818 29.639C40.199 29.9633 40.6982 30.1333 41.2225 30.14L41.2546 30.1402V30.4185C40.6616 30.4185 40.1032 30.2317 39.5339 29.8748L39.4914 29.8479C39.0817 29.586 38.7192 29.2814 38.1356 28.7376L37.798 28.4221C37.6901 28.3217 37.6 28.2389 37.5143 28.1619L37.4946 28.1442C36.6714 27.4066 36.0867 27.0748 35.4472 27.0748C34.8507 27.0748 34.342 27.365 33.6556 28.0173L33.6301 28.0416C33.5502 28.118 33.4688 28.1981 33.3684 28.2985L32.9634 28.706L32.9023 28.7667C32.3788 29.2854 31.9965 29.609 31.5539 29.8761C30.9642 30.2319 30.3455 30.4185 29.6514 30.4185C28.5196 30.4185 27.6279 29.9559 26.9177 29.0857C26.3592 28.4015 25.9379 27.5188 25.5122 26.2727L25.473 26.1567C25.3207 25.6984 24.9477 24.5093 24.9373 24.4773L24.9061 24.3816C24.3985 22.837 24.0036 22.2158 23.4115 22.2158C23.0245 22.2158 22.7006 22.4741 22.4005 23.0037L22.3867 23.0283C22.1405 23.4706 21.9343 24.0305 21.6474 24.9776L21.3164 26.0888C21.3008 26.1407 21.2875 26.1851 21.2773 26.2185L21.2348 26.3573C20.8496 27.6052 20.5223 28.4169 20.0915 29.074C19.5222 29.9425 18.8194 30.409 17.9259 30.4184L17.8984 30.4185V30.1402C18.701 30.1402 19.331 29.7264 19.8588 28.9214L19.8888 28.875C20.2922 28.2449 20.6082 27.4494 20.9831 26.2287L21.0246 26.0925L21.3451 25.0164C21.6565 23.9779 21.8743 23.3766 22.1435 22.893C22.4915 22.2676 22.8981 21.9375 23.4115 21.9375Z" fill="white"/>
<path d="M40.8583 35.1084C40.9505 35.1084 41.0253 35.1832 41.0253 35.2754C41.0253 35.3646 40.9554 35.4374 40.8675 35.4422L40.8583 35.4424H18.2275C18.1353 35.4424 18.0605 35.3676 18.0605 35.2754C18.0605 35.1862 18.1304 35.1134 18.2184 35.1086L18.2275 35.1084H40.8583Z" fill="#E4EBF7"/>
<path d="M37.2415 36.6201C37.3338 36.6201 37.4085 36.6949 37.4085 36.7871C37.4085 36.8763 37.3387 36.9491 37.2507 36.9539L37.2415 36.9541H18.2275C18.1353 36.9541 18.0605 36.8794 18.0605 36.7871C18.0605 36.698 18.1304 36.6251 18.2184 36.6204L18.2275 36.6201H37.2415Z" fill="#E4EBF7"/>
<path d="M3.92718 7.95898H46.0505C46.7092 7.95898 47.2433 8.47967 47.2433 9.12197V12.5877H2.73438V9.12197C2.73438 8.47967 3.26841 7.95898 3.92718 7.95898Z" fill="#253368"/>
<path d="M5.28496 11.1035C5.75515 11.1035 6.13632 10.7319 6.13632 10.2734C6.13632 9.815 5.75515 9.44336 5.28496 9.44336C4.81476 9.44336 4.43359 9.815 4.43359 10.2734C4.43359 10.7319 4.81476 11.1035 5.28496 11.1035Z" fill="#FF7946"/>
<path d="M8.46464 11.1035C8.93484 11.1035 9.316 10.7319 9.316 10.2734C9.316 9.815 8.93484 9.44336 8.46464 9.44336C7.99445 9.44336 7.61328 9.815 7.61328 10.2734C7.61328 10.7319 7.99445 11.1035 8.46464 11.1035Z" fill="#FAAD14"/>
<path d="M11.6443 11.1035C12.1145 11.1035 12.4957 10.7319 12.4957 10.2734C12.4957 9.815 12.1145 9.44336 11.6443 9.44336C11.1741 9.44336 10.793 9.815 10.793 10.2734C10.793 10.7319 11.1741 11.1035 11.6443 11.1035Z" fill="#7CB305"/>
<path d="M17.5184 26.6638L16.9707 26.2621L17.5184 25.8613L18.0661 26.2621L17.5184 26.6638Z" fill="white"/>
<path d="M11.9245 24.583H6.25561C6.06159 24.583 5.9043 24.7403 5.9043 24.9343V25.8003C5.9043 25.9943 6.06159 26.1516 6.25561 26.1516H11.9245C12.1186 26.1516 12.2758 25.9943 12.2758 25.8003V24.9343C12.2758 24.7403 12.1186 24.583 11.9245 24.583Z" fill="#A3B5D6"/>
<path d="M11.9299 27.6025H6.25028C6.0592 27.6025 5.9043 27.7574 5.9043 27.9485V28.7777C5.9043 28.9687 6.0592 29.1236 6.25028 29.1236H11.9299C12.1209 29.1236 12.2758 28.9687 12.2758 28.7777V27.9485C12.2758 27.7574 12.1209 27.6025 11.9299 27.6025Z" fill="#A3B5D6"/>
<path d="M11.9299 30.5615H6.25028C6.0592 30.5615 5.9043 30.7164 5.9043 30.9075V31.7366C5.9043 31.9277 6.0592 32.0826 6.25028 32.0826H11.9299C12.1209 32.0826 12.2758 31.9277 12.2758 31.7366V30.9075C12.2758 30.7164 12.1209 30.5615 11.9299 30.5615Z" fill="#A3B5D6"/>
<path d="M9.08901 22.0209C10.8457 22.0209 12.2698 20.6324 12.2698 18.9196C12.2698 17.2069 10.8457 15.8184 9.08901 15.8184C7.3323 15.8184 5.9082 17.2069 5.9082 18.9196C5.9082 20.6324 7.3323 22.0209 9.08901 22.0209Z" fill="white"/>
<path d="M9.08858 22.0214C10.0054 22.0219 10.8754 21.627 11.4652 20.9427C11.0005 20.0824 10.0853 19.5439 9.08809 19.5439C8.09087 19.5439 7.17569 20.0824 6.71094 20.9427C7.30108 21.6271 8.1715 22.022 9.08858 22.0214Z" fill="#253368"/>
<path d="M9.10644 19.6667C9.76713 19.6667 10.3027 19.1445 10.3027 18.5004C10.3027 17.8562 9.76713 17.334 9.10644 17.334C8.44575 17.334 7.91016 17.8562 7.91016 18.5004C7.91016 19.1445 8.44575 19.6667 9.10644 19.6667Z" fill="#253368"/>
</svg>
