<svg width="549" height="423" viewBox="0 0 549 423" fill="none" xmlns="http://www.w3.org/2000/svg">
<path fill-rule="evenodd" clip-rule="evenodd" d="M259.335 60.1202H26V39.2125C26 34.6771 29.6771 31 34.2125 31H251.122C255.658 31 259.335 34.6771 259.335 39.2125V60.1202Z" fill="#253368"/>
<path fill-rule="evenodd" clip-rule="evenodd" d="M251.122 261.429H34.2125C29.6771 261.429 26 257.752 26 253.217V57.6719H259.335V253.217C259.335 257.752 255.658 261.429 251.122 261.429Z" fill="#E4EBF7"/>
<path fill-rule="evenodd" clip-rule="evenodd" d="M44.9623 44.5525C44.9623 47.3988 42.6546 49.7065 39.808 49.7065C36.9617 49.7065 34.6543 47.3988 34.6543 44.5525C34.6543 41.7061 36.9617 39.3984 39.808 39.3984C42.6546 39.3984 44.9623 41.7061 44.9623 44.5525Z" fill="#FF7946"/>
<path fill-rule="evenodd" clip-rule="evenodd" d="M64.2101 44.5525C64.2101 47.3988 61.9027 49.7065 59.056 49.7065C56.2097 49.7065 53.9023 47.3988 53.9023 44.5525C53.9023 41.7061 56.2097 39.3984 59.056 39.3984C61.9027 39.3984 64.2101 41.7061 64.2101 44.5525Z" fill="#FAAD14"/>
<path fill-rule="evenodd" clip-rule="evenodd" d="M83.4581 44.5525C83.4581 47.3988 81.1507 49.7065 78.3041 49.7065C75.4578 49.7065 73.1504 47.3988 73.1504 44.5525C73.1504 41.7061 75.4578 39.3984 78.3041 39.3984C81.1507 39.3984 83.4581 41.7061 83.4581 44.5525Z" fill="#7CB305"/>
<path fill-rule="evenodd" clip-rule="evenodd" d="M51.2189 233.714C49.8034 233.714 48.6562 232.567 48.6562 231.153V82.71C48.6562 81.2959 49.8034 80.1494 51.2189 80.1494H236.665C238.08 80.1494 239.227 81.2959 239.227 82.71V231.153C239.227 232.567 238.08 233.714 236.665 233.714H51.2189Z" fill="white"/>
<path fill-rule="evenodd" clip-rule="evenodd" d="M114.762 99.5829H67.8183C65.8962 99.5829 64.3242 98.0105 64.3242 96.0888C64.3242 94.1667 65.8962 92.5947 67.8183 92.5947H114.762C116.684 92.5947 118.256 94.1667 118.256 96.0888C118.256 98.0105 116.684 99.5829 114.762 99.5829Z" fill="#E4EBF7"/>
<path fill-rule="evenodd" clip-rule="evenodd" d="M87.6217 116.061H70.1507C68.2211 116.061 66.6562 114.497 66.6562 112.567C66.6562 110.637 68.2211 109.073 70.1507 109.073H87.6217C89.5517 109.073 91.1158 110.637 91.1158 112.567C91.1158 114.497 89.5517 116.061 87.6217 116.061Z" fill="#E4EBF7"/>
<path d="M142.651 113.185C118.509 113.185 98.9375 132.756 98.9375 156.898C98.9375 181.04 118.509 200.611 142.651 200.611C166.793 200.611 186.364 181.04 186.364 156.898C186.364 132.756 166.793 113.185 142.651 113.185ZM142.651 126.872C159.234 126.872 172.677 140.315 172.677 156.898C172.677 173.481 159.234 186.924 142.651 186.924C126.068 186.924 112.625 173.481 112.625 156.898C112.625 140.315 126.068 126.872 142.651 126.872Z" fill="#FAAD14"/>
<path d="M173.345 135.347C176.781 133.774 180.843 135.285 182.416 138.722C185.006 144.38 186.365 150.55 186.365 156.898C186.365 162.097 185.453 167.181 183.694 171.97C182.391 175.518 178.458 177.338 174.911 176.035C171.398 174.744 169.58 170.877 170.808 167.357L170.846 167.251C172.052 163.968 172.677 160.481 172.677 156.898C172.677 152.615 171.784 148.47 170.078 144.656L169.97 144.418C168.397 140.982 169.908 136.92 173.345 135.347Z" fill="#FF7946"/>
<path d="M214.204 192.088C206.022 192.088 199.406 198.798 199.406 207.056C199.406 215.314 206.022 222.024 214.204 222.024C222.385 222.024 229.001 215.314 229.001 207.056C229.001 198.798 222.385 192.088 214.204 192.088ZM214.204 197.729C219.251 197.729 223.359 201.896 223.359 207.056C223.359 212.216 219.251 216.383 214.204 216.383C209.156 216.383 205.048 212.216 205.048 207.056C205.048 201.896 209.156 197.729 214.204 197.729Z" fill="#E4EBF7"/>
<path d="M224.042 199.16C225.474 198.546 227.132 199.209 227.746 200.64C228.569 202.562 229.001 204.653 229.001 206.803C229.001 208.562 228.712 210.284 228.153 211.908C227.647 213.381 226.042 214.165 224.569 213.658C223.121 213.161 222.339 211.602 222.793 210.15L222.818 210.074C223.174 209.039 223.359 207.936 223.359 206.803C223.359 205.419 223.084 204.084 222.561 202.864C221.947 201.432 222.61 199.774 224.042 199.16Z" fill="#597EF7"/>
<path fill-rule="evenodd" clip-rule="evenodd" d="M397.98 416.052C401.858 422.141 409.837 424.099 416.089 420.498L536.815 350.992C547.697 344.238 550.968 329.888 544.082 319.083C537.136 308.182 522.579 305.15 511.863 312.37L401.102 398.111C395.582 402.384 394.228 410.163 397.98 416.052Z" fill="#FFC999"/>
<path fill-rule="evenodd" clip-rule="evenodd" d="M337.77 245.359C337.77 245.359 289.067 214.222 335.065 176.319C324.241 149.244 349.945 137.512 349.945 137.512C342.732 132.096 331.906 109.534 359.418 90.1311C359.418 59.4458 385.58 58.3937 385.58 58.3937C385.58 58.3937 423.057 37.3007 440.389 63.5518C474.119 70.1134 467.647 105.924 467.647 105.924C467.647 105.924 487.038 119.462 478.018 137.512C488.841 148.341 490.646 160.072 482.528 168.195C513.643 197.977 490.646 225.052 490.646 225.052C490.646 225.052 508.044 270.667 449.192 270.667C439.722 305.863 380.195 299.095 378.844 269.313C343.667 286.912 337.77 245.359 337.77 245.359Z" fill="#253368"/>
<path fill-rule="evenodd" clip-rule="evenodd" d="M374.129 103.965C393.581 107.382 399.494 92.6531 399.494 92.6531C399.494 92.6531 407.519 71.9093 409.575 84.6438C410.669 91.4125 421.127 82.4325 425.935 89.6459C429.169 94.5036 421.081 100.76 431.593 113.707C437.682 121.206 413.658 127.191 428.48 141.014C428.48 141.014 419.329 159.082 437.431 164.584L438.704 184.672C439.429 196.158 430.304 205.872 418.803 205.853C407.589 205.837 398.603 196.559 398.933 185.342L399.671 160.352C371.563 160.352 370.191 121.695 374.129 103.965Z" fill="#FFC999"/>
<path d="M409.99 124.543C409.503 124.055 408.713 124.055 408.225 124.542L407.97 124.776C407.854 124.877 407.706 125.001 407.527 125.141C406.917 125.623 406.201 126.108 405.386 126.561C402.625 128.097 399.475 128.892 396.008 128.556C395.322 128.49 394.712 128.992 394.646 129.679C394.579 130.365 395.081 130.976 395.767 131.042C399.779 131.431 403.422 130.512 406.599 128.744C408.211 127.848 409.357 126.942 409.99 126.309C410.477 125.821 410.477 125.031 409.99 124.543Z" fill="#F5222D"/>
<path d="M394.648 105.106C394.193 105.138 393.839 105.497 393.799 105.938L393.798 106.101C393.822 106.768 393.691 107.882 393.254 109.394C392.551 111.825 391.239 114.552 389.164 117.528C388.864 117.958 388.984 118.552 389.428 118.831C391.641 120.22 393.544 121.347 395.145 122.237L395.616 122.497C396.093 122.758 396.514 122.982 396.88 123.17L397.667 123.561C398.127 123.773 398.672 123.572 398.884 123.112C399.096 122.651 398.895 122.106 398.435 121.893L397.97 121.665L397.149 121.238C396.945 121.13 396.728 121.013 396.496 120.886L395.554 120.362C394.574 119.809 393.486 119.17 392.286 118.44L391.213 117.778L391.503 117.336C393.088 114.874 394.18 112.564 394.857 110.433L395.017 109.904C395.468 108.344 395.635 107.114 395.636 106.259L395.628 105.957C395.592 105.451 395.153 105.07 394.648 105.106Z" fill="#DD936F"/>
<path d="M418.398 155.693C418.156 155.248 417.599 155.083 417.153 155.326C411.702 158.293 406.052 159.785 400.38 159.862C399.873 159.869 399.468 160.286 399.475 160.793C399.482 161.3 399.898 161.706 400.405 161.699C406.376 161.617 412.319 160.049 418.031 156.939C418.476 156.697 418.64 156.139 418.398 155.693Z" fill="#DD936F"/>
<path d="M407.707 104.9C407.044 104.9 406.507 105.438 406.507 106.101C406.507 110.717 409.98 114.497 414.318 114.497C418.654 114.497 422.127 110.717 422.127 106.101C422.127 105.438 421.59 104.9 420.927 104.9C420.264 104.9 419.726 105.438 419.726 106.101C419.726 109.433 417.281 112.095 414.318 112.095C411.353 112.095 408.907 109.433 408.907 106.101C408.907 105.438 408.37 104.9 407.707 104.9Z" fill="#253368"/>
<path d="M377.418 105.726C376.79 105.726 376.28 106.236 376.28 106.865C376.28 111.425 379.4 115.199 383.366 115.199C387.334 115.199 390.453 111.426 390.453 106.865C390.453 106.236 389.943 105.726 389.314 105.726C388.686 105.726 388.176 106.236 388.176 106.865C388.176 110.253 385.971 112.92 383.366 112.92C380.763 112.92 378.557 110.252 378.557 106.865C378.557 106.236 378.047 105.726 377.418 105.726Z" fill="#253368"/>
<path d="M420.745 92.7103C416.162 90.7756 411.31 90.97 406.723 92.4446C405.405 92.8686 404.42 93.2969 403.855 93.595C403.269 93.9046 403.045 94.6312 403.354 95.2178C403.664 95.8044 404.39 96.029 404.976 95.7193L405.278 95.5726C405.371 95.5294 405.481 95.4797 405.608 95.4246C406.149 95.1894 406.769 94.9529 407.457 94.7316C411.546 93.4173 415.837 93.2453 419.811 94.9235C420.538 95.23 421.245 95.597 421.933 96.0272C422.495 96.3787 423.236 96.2077 423.587 95.6452C423.938 95.0827 423.767 94.3417 423.205 93.9901C422.409 93.492 421.588 93.0662 420.745 92.7103Z" fill="#253368"/>
<path fill-rule="evenodd" clip-rule="evenodd" d="M217.422 229.337L192.574 179.442C192.574 179.442 159.203 141.227 150.189 145.477C142.01 150.57 163.918 159.385 169.887 170.776C161.436 171.656 167.179 182.592 167.179 182.592C167.179 182.592 160.487 183.506 163.867 192.638C158.261 197.109 165.035 207.09 165.035 207.09C165.035 207.09 184.605 230.194 201.56 246.865C201.56 246.865 224.794 262.662 217.422 229.337Z" fill="#FFC999"/>
<path fill-rule="evenodd" clip-rule="evenodd" d="M211.094 212.119C211.094 212.119 205.807 194.45 202.583 185.538C199.359 176.625 200.417 159.361 194.464 164.901C190.463 168.627 192.924 178.371 194.325 185.628C195.725 192.884 186.907 212.149 197.698 222.61C204.99 229.677 214.504 229.148 211.094 212.119Z" fill="#FFC999"/>
<path d="M172.885 169.545C172.463 169.23 171.866 169.316 171.551 169.738C171.236 170.16 171.322 170.757 171.744 171.072L172.3 171.5L173.01 172.062C173.259 172.262 173.518 172.473 173.788 172.696C175.328 173.967 176.868 175.332 178.303 176.736C179.921 178.32 181.301 179.854 182.365 181.292C185.045 184.913 185.42 187.389 183.29 188.736C182.845 189.018 182.712 189.606 182.993 190.051C183.274 190.496 183.863 190.629 184.307 190.348C187.699 188.202 187.146 184.549 183.896 180.157C182.764 178.628 181.32 177.023 179.636 175.374C178.159 173.928 176.579 172.528 175 171.225L174.202 170.575L173.058 169.677C172.986 169.622 172.928 169.578 172.885 169.545Z" fill="#DD936F"/>
<path d="M169.896 181.836C169.65 182.301 169.828 182.878 170.294 183.123L170.844 183.424L171.548 183.821C171.795 183.963 172.052 184.113 172.32 184.271C173.847 185.174 175.374 186.155 176.795 187.176C178.861 188.661 180.521 190.101 181.616 191.428C183.224 193.374 183.432 194.746 182.256 195.776C181.392 196.532 180.209 196.665 178.701 196.229C177.567 195.902 176.326 195.271 175.051 194.425C174.352 193.962 173.688 193.463 173.082 192.965L172.62 192.575C172.493 192.465 172.395 192.377 172.328 192.314C171.944 191.955 171.341 191.976 170.982 192.36C170.623 192.745 170.643 193.348 171.028 193.708L171.231 193.892C171.394 194.036 171.609 194.221 171.872 194.438C172.526 194.975 173.241 195.512 173.999 196.014C175.421 196.958 176.826 197.672 178.172 198.06C180.248 198.66 182.09 198.453 183.51 197.21C185.644 195.342 185.266 192.854 183.085 190.213C181.867 188.738 180.094 187.199 177.906 185.627C176.434 184.57 174.862 183.56 173.289 182.63L172.495 182.167C172.368 182.094 172.244 182.024 172.123 181.955L171.183 181.438C170.717 181.192 170.141 181.37 169.896 181.836Z" fill="#DD936F"/>
<path d="M169.156 191.419C168.63 191.426 168.209 191.858 168.216 192.385C168.222 192.911 168.654 193.332 169.18 193.325C170.457 193.309 172.239 194.164 174.527 196.085C179.33 200.115 180.673 203.003 179.606 203.899C178.5 204.827 175.353 203.992 173.019 201.624C172.188 200.781 170.871 201.909 171.576 202.861C171.761 203.111 171.948 203.357 172.135 203.598C176.684 209.446 180.104 211.505 187.711 214.068L188.947 214.477C195.822 216.718 198.545 218.777 200.992 225.155C201.18 225.646 201.731 225.891 202.222 225.703C202.714 225.514 202.959 224.963 202.77 224.471C200.147 217.632 197.054 215.18 190.045 212.832L188.233 212.232C182.977 210.457 179.89 208.965 176.956 206.172L176.734 205.956L176.751 205.962C178.252 206.323 179.649 206.204 180.627 205.516L180.83 205.36C183.227 203.348 181.359 199.33 175.752 194.624C173.147 192.438 170.975 191.396 169.156 191.419Z" fill="#DD936F"/>
<path d="M192.494 175.607C192.022 175.648 191.66 176.026 191.626 176.484L191.626 176.639L192.818 190.484L192.609 191.058L192.529 191.288C192.256 192.087 191.984 192.983 191.729 193.955C190.834 197.378 190.385 200.849 190.628 204.114C190.885 207.558 191.908 210.541 193.844 212.902C194.178 213.309 194.778 213.369 195.185 213.035C195.592 212.701 195.651 212.1 195.317 211.693C193.654 209.665 192.758 207.052 192.528 203.972C192.302 200.946 192.726 197.674 193.572 194.438C193.814 193.513 194.073 192.662 194.332 191.905L194.587 191.191C194.619 191.104 194.647 191.033 194.668 190.98C194.706 190.887 194.728 190.789 194.735 190.69L194.734 190.541L193.525 176.475C193.484 176.003 193.106 175.641 192.649 175.606L192.494 175.607Z" fill="#DD936F"/>
<path fill-rule="evenodd" clip-rule="evenodd" d="M190.472 216.21C195.366 211.603 202.903 211.543 207.583 216.075L297.955 303.571C305.985 311.892 303.126 325.378 294.44 333.555H296.766C288.008 341.804 272.055 341.43 264.283 332.729L188.948 232.864C185.08 227.887 185.738 220.665 190.472 216.21Z" fill="#FFC999"/>
<path fill-rule="evenodd" clip-rule="evenodd" d="M267.909 335.235C257.978 327.384 256.289 312.969 264.136 303.032L340.583 206.216C348.427 196.282 362.837 194.592 372.763 202.441C382.694 210.29 384.382 224.709 376.536 234.644L300.089 331.459C292.245 341.394 277.837 343.086 267.909 335.235Z" fill="#FFC999"/>
<path fill-rule="evenodd" clip-rule="evenodd" d="M344.128 275.686L376.537 234.643C384.348 224.75 382.652 210.258 372.764 202.442C362.877 194.624 348.395 196.323 340.583 206.218L308.482 246.87L344.128 275.686Z" fill="#597EF7"/>
<path d="M373.731 202.283C373.417 202.035 372.962 202.088 372.715 202.402C372.467 202.716 372.52 203.171 372.834 203.419C382.267 210.875 384.002 224.612 376.815 234.179L376.488 234.605L344.534 275.069L309.455 246.715C309.183 246.496 308.801 246.505 308.541 246.719L308.438 246.824C308.218 247.096 308.228 247.479 308.442 247.738L308.546 247.842L344.192 276.658C344.471 276.883 344.865 276.867 345.124 276.639L345.215 276.543L377.623 235.502C385.683 225.293 383.932 210.346 373.731 202.283Z" fill="#4E5C93"/>
<path fill-rule="evenodd" clip-rule="evenodd" d="M446.887 362.129L445.298 350.083C445.298 350.083 397.763 350.367 351.139 348.03C349.96 353.377 348.608 363.002 348.608 363.002C352.528 359.78 394.878 369.188 446.887 362.129Z" fill="#4E5C93"/>
<path d="M353.612 362.065C353.096 362.04 352.657 362.44 352.633 362.957C352.609 363.473 353.008 363.912 353.525 363.936C375.345 364.958 396.503 365.397 415.183 365.359L420.299 365.336C425.626 365.299 430.401 365.22 434.275 365.114L436.761 365.037C438.314 364.984 439.581 364.927 440.48 364.872L441.369 364.807C441.486 364.796 441.588 364.786 441.675 364.775C441.842 364.755 441.962 364.735 442.07 364.703L442.143 364.694C442.23 364.673 442.307 364.591 442.689 364.182L442.548 363.415C442.443 362.913 442.376 362.907 442.126 362.883C441.93 362.815 441.728 362.816 441.544 362.873L441.434 362.916L441.016 362.956L440.366 363.001L438.978 363.074C438.315 363.105 437.549 363.135 436.694 363.165L434.221 363.241C429.638 363.367 423.781 363.454 417.24 363.479L413.096 363.488C394.962 363.49 374.594 363.047 353.612 362.065Z" fill="#253368"/>
<path fill-rule="evenodd" clip-rule="evenodd" d="M354.604 228.773C349.777 239.298 340.835 257.416 339.723 269.385C337.918 288.788 350.547 303.229 350.547 303.229C350.547 303.229 350.673 297.522 351.899 347.796C409.734 357.949 446.609 347.154 446.609 347.154L445.48 333.828L454.871 302.326C454.871 302.326 460.582 290.595 472.306 264.42C480.457 246.228 479.889 223.668 478.787 211.609C478.314 206.441 474.716 202.098 469.722 200.694C452.282 195.785 445.678 195.632 445.678 195.632L444.036 184.119C443.754 182.148 442.068 180.684 440.077 180.684H397.564C395.738 180.684 394.142 181.922 393.691 183.691L390.574 195.848L364.262 198.683C360.133 199.493 357.016 205.238 356.588 209.428L354.604 228.773Z" fill="#597EF7"/>
<path d="M395.493 195.493C395.084 195.493 394.753 195.825 394.753 196.233C394.753 196.597 395.014 196.899 395.36 196.962L395.493 196.974H433.772C434.181 196.974 434.512 196.642 434.512 196.233C434.512 195.87 434.25 195.568 433.905 195.505L433.772 195.493H395.493Z" fill="#4E5C93"/>
<path d="M446.724 192.413C446.359 192.123 445.845 192.15 445.512 192.453L445.408 192.565L405 243.548L389.316 195.991C389.17 195.549 388.727 195.288 388.282 195.359L388.134 195.395C387.692 195.541 387.432 195.984 387.502 196.43L387.538 196.578L403.765 245.784C403.983 246.445 404.805 246.633 405.29 246.18L405.388 246.073L446.875 193.729C447.197 193.324 447.129 192.734 446.724 192.413Z" fill="#CCD7EE"/>
<path fill-rule="evenodd" clip-rule="evenodd" d="M393.07 249.45C388.825 256.615 390.737 265.597 397.343 269.517C403.947 273.436 412.742 270.806 416.988 263.642C421.233 256.477 419.318 247.493 412.714 243.575C406.108 239.655 397.313 242.286 393.07 249.45Z" fill="#CCD7EE"/>
<path fill-rule="evenodd" clip-rule="evenodd" d="M391.544 249.415C387.301 256.58 389.213 265.562 395.817 269.482C402.423 273.401 411.218 270.771 415.461 263.607C419.707 256.442 417.795 247.457 411.191 243.54C404.584 239.62 395.789 242.251 391.544 249.415Z" fill="#E4EBF7"/>
<path fill-rule="evenodd" clip-rule="evenodd" d="M394.24 250.663C390.944 256.226 392.43 263.2 397.557 266.242C402.687 269.284 409.514 267.243 412.81 261.68C416.106 256.119 414.622 249.143 409.495 246.101C404.366 243.056 397.536 245.1 394.24 250.663Z" fill="#FAAD14"/>
<path d="M478.766 210.867C478.357 210.88 478.036 211.221 478.047 211.629L478.11 214.467L478.119 215.009C478.216 220.667 478.226 226.645 478.094 232.24L478.049 233.916C477.87 239.954 477.523 244.808 476.978 248.077C476.359 251.795 473.979 258.115 470.288 266.259L469.295 268.427C468.956 269.159 468.609 269.901 468.254 270.653C466.691 273.963 465.038 277.33 463.367 280.637L462.111 283.105C461.5 284.297 460.926 285.406 460.398 286.416L459.271 288.574L444.105 333.825L444.07 334.133L445.357 347.242L445.16 347.282C444.6 347.394 443.959 347.516 443.239 347.646L442.685 347.745C439.971 348.225 436.826 348.706 433.288 349.154C409.144 352.214 381.818 352.231 353.668 347.21L352.507 346.997L352.369 342.017L351.783 324.835L351.054 304.784L350.962 304.453L350.514 303.617L350.064 302.75C349.829 302.293 349.582 301.802 349.323 301.278C348.089 298.783 346.855 296.077 345.704 293.257C344.067 289.249 342.737 285.348 341.821 281.684C340.935 278.141 340.463 274.918 340.463 272.092C340.463 265.019 341.401 259.59 343.505 253.99C344.558 251.186 345.911 248.291 347.861 244.594L349.493 241.575L355.252 231.161L355.343 230.833L355.797 218.873C355.812 218.465 355.494 218.121 355.086 218.105C354.723 218.092 354.411 218.342 354.335 218.685L354.318 218.817L353.872 230.599L348.504 240.302L346.953 243.147C344.76 247.26 343.27 250.408 342.12 253.469C339.952 259.24 338.984 264.845 338.984 272.092C338.984 275.052 339.473 278.391 340.386 282.043C341.32 285.782 342.673 289.748 344.334 293.817C345.5 296.672 346.748 299.409 347.997 301.934L348.506 302.952C348.752 303.438 348.986 303.891 349.205 304.307L349.582 305.012L350.811 339.569C350.944 343.666 351.022 346.377 351.032 347.412L351.033 347.617C351.033 347.974 351.288 348.28 351.638 348.345C380.573 353.717 408.685 353.765 433.474 350.623C436.68 350.216 439.568 349.784 442.109 349.348L442.943 349.203C443.71 349.067 444.399 348.939 445.008 348.821L446.319 348.554C446.639 348.483 446.869 348.213 446.897 347.897L446.896 347.759L445.558 334.147L460.625 289.159L461.397 287.698C461.907 286.726 462.467 285.65 463.065 284.488L463.428 283.78C465.529 279.679 467.63 275.439 469.591 271.285C470.304 269.776 470.987 268.302 471.636 266.871L472.322 265.343C475.673 257.819 477.83 251.965 478.437 248.321L478.584 247.369C479.105 243.74 479.423 238.585 479.573 232.275C479.687 227.46 479.695 222.366 479.635 217.434L479.589 214.44L479.526 211.588C479.515 211.179 479.174 210.857 478.766 210.867Z" fill="#4E5C93"/>
<path fill-rule="evenodd" clip-rule="evenodd" d="M535.91 352.075L536.14 351.952C547.471 345.863 551.723 331.732 545.638 320.394L486.781 210.739C480.696 199.401 466.574 195.146 455.243 201.235L455.015 201.358C443.684 207.447 439.43 221.578 445.517 232.916L504.372 342.571C510.459 353.909 524.579 358.164 535.91 352.075Z" fill="#FFC999"/>
<path fill-rule="evenodd" clip-rule="evenodd" d="M469.954 278.444L444.671 231.34C438.576 219.986 442.873 205.706 454.222 199.605C465.569 193.507 479.842 197.808 485.937 209.162L510.98 255.82L469.954 278.444Z" fill="#597EF7"/>
<path d="M444.725 231.31C444.532 230.95 444.084 230.815 443.724 231.008C443.404 231.18 443.262 231.554 443.37 231.888L443.422 232.011L468.705 279.115C468.878 279.438 469.256 279.579 469.591 279.467L469.714 279.413L510.738 256.788C511.096 256.591 511.226 256.141 511.029 255.783C510.854 255.465 510.479 255.326 510.146 255.438L510.024 255.492L469.656 277.755L444.725 231.31Z" fill="#4E5C93"/>
</svg>
