<svg width="18" height="18" viewBox="0 0 18 18" fill="none" xmlns="http://www.w3.org/2000/svg">
<path d="M8.99999 18L16.6432 9.15334C18.4523 7.05939 18.4523 3.66443 16.6432 1.57047C14.8341 -0.523479 11.901 -0.523479 10.0919 1.57047L9.00001 2.83429L7.90812 1.57046C6.09902 -0.523488 3.1659 -0.523488 1.35681 1.57046C-0.452271 3.66442 -0.452271 7.05938 1.35681 9.15333L8.99999 18Z" fill="white"/>
<path d="M16.2648 8.82646L8.99999 17.2352L1.73516 8.82645C0.0882787 6.92024 0.0882778 3.80356 1.73517 1.89734C3.34483 0.0342195 5.92009 0.034217 7.52977 1.89735L8.62166 3.16117L9.00001 3.59909L9.37836 3.16116L10.4702 1.89735C12.0799 0.0342287 14.6552 0.034226 16.2648 1.89735C17.9117 3.80357 17.9117 6.92025 16.2648 8.82646Z" stroke="#828282" stroke-opacity="0.6"/>
</svg>
