<svg width="168" height="80" viewBox="0 0 168 80" fill="none" xmlns="http://www.w3.org/2000/svg">
<g filter="url(#filter0_d_13077_4638)">
<rect x="4" y="2" width="160" height="72" fill="white"/>
<path d="M33.5616 49.288C31.8976 49.288 30.639 48.808 29.7856 47.848C28.9536 46.888 28.5376 45.48 28.5376 43.624V27.848C28.5376 26.76 29.071 26.216 30.1376 26.216C31.2256 26.216 31.7696 26.76 31.7696 27.848V43.432C31.7696 45.544 32.623 46.6 34.3296 46.6C34.5216 46.6 34.6923 46.5893 34.8416 46.568C34.991 46.5467 35.1403 46.536 35.2896 46.536C35.5456 46.5147 35.727 46.5893 35.8336 46.76C35.9403 46.9093 35.9936 47.2293 35.9936 47.72C35.9936 48.5947 35.5883 49.096 34.7776 49.224C34.5643 49.2453 34.351 49.256 34.1376 49.256C33.9456 49.2773 33.7536 49.288 33.5616 49.288ZM45.4906 49.288C42.9306 49.288 40.9146 48.5733 39.4426 47.144C37.9706 45.6933 37.2346 43.72 37.2346 41.224C37.2346 39.624 37.5546 38.216 38.1946 37C38.856 35.7627 39.7626 34.8027 40.9146 34.12C42.0666 33.4373 43.3893 33.096 44.8826 33.096C47.0373 33.096 48.7333 33.7893 49.9706 35.176C51.208 36.5413 51.8266 38.4293 51.8266 40.84C51.8266 41.5653 51.4 41.928 50.5466 41.928H40.3706C40.6053 45.1707 42.3226 46.792 45.5226 46.792C46.1626 46.792 46.8346 46.7173 47.5386 46.568C48.2426 46.3973 48.9253 46.0987 49.5866 45.672C50.0346 45.416 50.4186 45.3307 50.7386 45.416C51.08 45.48 51.3253 45.6613 51.4746 45.96C51.624 46.2373 51.6453 46.5573 51.5386 46.92C51.4533 47.2613 51.208 47.56 50.8026 47.816C50.0773 48.3067 49.224 48.68 48.2426 48.936C47.2826 49.1707 46.3653 49.288 45.4906 49.288ZM45.0106 35.368C43.6666 35.368 42.6 35.784 41.8106 36.616C41.0213 37.448 40.5413 38.5573 40.3706 39.944H49.1066C49.0426 38.4933 48.6586 37.3733 47.9546 36.584C47.2506 35.7733 46.2693 35.368 45.0106 35.368ZM61.1794 49.224C60.2834 49.224 59.622 48.744 59.1954 47.784L53.8514 35.368C53.5954 34.792 53.5847 34.28 53.8194 33.832C54.054 33.384 54.534 33.16 55.2594 33.16C55.6434 33.16 55.9527 33.256 56.1874 33.448C56.4434 33.64 56.6674 33.9707 56.8594 34.44L61.2434 45.256L65.7234 34.44C65.9154 33.9707 66.1287 33.64 66.3634 33.448C66.6194 33.256 66.9714 33.16 67.4194 33.16C67.9954 33.16 68.39 33.384 68.6034 33.832C68.8167 34.28 68.806 34.7813 68.5714 35.336L63.1634 47.784C62.758 48.744 62.0967 49.224 61.1794 49.224ZM78.8031 49.288C76.2431 49.288 74.2271 48.5733 72.7551 47.144C71.2831 45.6933 70.5471 43.72 70.5471 41.224C70.5471 39.624 70.8671 38.216 71.5071 37C72.1685 35.7627 73.0751 34.8027 74.2271 34.12C75.3791 33.4373 76.7018 33.096 78.1951 33.096C80.3498 33.096 82.0458 33.7893 83.2831 35.176C84.5205 36.5413 85.1391 38.4293 85.1391 40.84C85.1391 41.5653 84.7125 41.928 83.8591 41.928H73.6831C73.9178 45.1707 75.6351 46.792 78.8351 46.792C79.4751 46.792 80.1471 46.7173 80.8511 46.568C81.5551 46.3973 82.2378 46.0987 82.8991 45.672C83.3471 45.416 83.7311 45.3307 84.0511 45.416C84.3925 45.48 84.6378 45.6613 84.7871 45.96C84.9365 46.2373 84.9578 46.5573 84.8511 46.92C84.7658 47.2613 84.5205 47.56 84.1151 47.816C83.3898 48.3067 82.5365 48.68 81.5551 48.936C80.5951 49.1707 79.6778 49.288 78.8031 49.288ZM78.3231 35.368C76.9791 35.368 75.9125 35.784 75.1231 36.616C74.3338 37.448 73.8538 38.5573 73.6831 39.944H82.4191C82.3551 38.4933 81.9711 37.3733 81.2671 36.584C80.5631 35.7733 79.5818 35.368 78.3231 35.368ZM93.6866 49.288C92.0226 49.288 90.764 48.808 89.9106 47.848C89.0786 46.888 88.6626 45.48 88.6626 43.624V27.848C88.6626 26.76 89.196 26.216 90.2626 26.216C91.3506 26.216 91.8946 26.76 91.8946 27.848V43.432C91.8946 45.544 92.748 46.6 94.4546 46.6C94.6466 46.6 94.8173 46.5893 94.9666 46.568C95.116 46.5467 95.2653 46.536 95.4146 46.536C95.6706 46.5147 95.852 46.5893 95.9586 46.76C96.0653 46.9093 96.1186 47.2293 96.1186 47.72C96.1186 48.5947 95.7133 49.096 94.9026 49.224C94.6893 49.2453 94.476 49.256 94.2626 49.256C94.0706 49.2773 93.8786 49.288 93.6866 49.288ZM112.449 49.288C108.673 49.288 106.785 47.1867 106.785 42.984V34.792C106.785 33.704 107.319 33.16 108.385 33.16C109.473 33.16 110.017 33.704 110.017 34.792V43.016C110.017 44.2747 110.273 45.2027 110.785 45.8C111.297 46.3973 112.108 46.696 113.217 46.696C114.433 46.696 115.415 46.2907 116.161 45.48C116.929 44.6693 117.313 43.5813 117.313 42.216V34.792C117.313 33.704 117.857 33.16 118.945 33.16C120.012 33.16 120.545 33.704 120.545 34.792V47.592C120.545 48.68 120.023 49.224 118.977 49.224C117.932 49.224 117.409 48.68 117.409 47.592V46.504C116.897 47.4213 116.215 48.1147 115.361 48.584C114.508 49.0533 113.537 49.288 112.449 49.288ZM126.7 54.984C125.633 54.984 125.1 54.44 125.1 53.352V34.792C125.1 33.704 125.623 33.16 126.668 33.16C127.735 33.16 128.268 33.704 128.268 34.792V36.008C128.737 35.112 129.431 34.408 130.348 33.896C131.265 33.3627 132.311 33.096 133.484 33.096C134.871 33.096 136.076 33.4267 137.1 34.088C138.145 34.7493 138.945 35.688 139.5 36.904C140.076 38.0987 140.364 39.528 140.364 41.192C140.364 42.856 140.076 44.296 139.5 45.512C138.945 46.728 138.145 47.6667 137.1 48.328C136.076 48.968 134.871 49.288 133.484 49.288C132.332 49.288 131.297 49.0427 130.38 48.552C129.484 48.04 128.801 47.3467 128.332 46.472V53.352C128.332 54.44 127.788 54.984 126.7 54.984ZM132.684 46.792C134.028 46.792 135.095 46.312 135.884 45.352C136.695 44.392 137.1 43.0053 137.1 41.192C137.1 39.3787 136.695 38.0027 135.884 37.064C135.095 36.104 134.028 35.624 132.684 35.624C131.34 35.624 130.263 36.104 129.452 37.064C128.663 38.0027 128.268 39.3787 128.268 41.192C128.268 43.0053 128.663 44.392 129.452 45.352C130.263 46.312 131.34 46.792 132.684 46.792Z" fill="#DE3F51"/>
</g>
<defs>
<filter id="filter0_d_13077_4638" x="0" y="0" width="168" height="80" filterUnits="userSpaceOnUse" color-interpolation-filters="sRGB">
<feFlood flood-opacity="0" result="BackgroundImageFix"/>
<feColorMatrix in="SourceAlpha" type="matrix" values="0 0 0 0 0 0 0 0 0 0 0 0 0 0 0 0 0 0 127 0" result="hardAlpha"/>
<feOffset dy="2"/>
<feGaussianBlur stdDeviation="2"/>
<feColorMatrix type="matrix" values="0 0 0 0 0 0 0 0 0 0 0 0 0 0 0 0 0 0 0.1 0"/>
<feBlend mode="normal" in2="BackgroundImageFix" result="effect1_dropShadow_13077_4638"/>
<feBlend mode="normal" in="SourceGraphic" in2="effect1_dropShadow_13077_4638" result="shape"/>
</filter>
</defs>
</svg>
